<svg xmlns="http://www.w3.org/2000/svg" width="3.414" height="6.174" viewBox="0 0 3.414 6.174">
  <g id="down-arrow_5_" data-name="down-arrow(5)" transform="translate(-117.072 5.974) rotate(-90)">
    <path id="パス_106" data-name="パス 106" d="M5.579,117.31l-2.673,2.673L.234,117.31a.126.126,0,0,0-.177.177l2.762,2.762a.126.126,0,0,0,.177,0l2.762-2.762a.126.126,0,0,0-.174-.181l0,0Z" transform="translate(-0.021 0)"/>
    <path id="パス_106_-_アウトライン" data-name="パス 106 - アウトライン" d="M5.67,117.072a.326.326,0,0,1,.226.56l-2.759,2.759a.326.326,0,0,1-.46,0l-2.762-2.762a.326.326,0,0,1,.458-.463L2.906,119.7l2.587-2.587h.019A.324.324,0,0,1,5.67,117.072Z" transform="translate(-0.021 0)"/>
  </g>
</svg>
