<svg xmlns="http://www.w3.org/2000/svg" width="124" height="124" viewBox="0 0 124 124">
  <g id="グループ_41432" data-name="グループ 41432" transform="translate(-5479 1613)">
    <path id="パス_3849" data-name="パス 3849" d="M62,0A62,62,0,1,1,0,62,62,62,0,0,1,62,0Z" transform="translate(5479 -1613)" fill="#d97f3f"/>
    <path id="パス_3850" data-name="パス 3850" d="M-19.36-.56v.5a8.465,8.465,0,0,1-.12,1.7h2a14.442,14.442,0,0,1-.16-2.2l-.04-3.42h5.56c-.18,2.6-.22,2.7-1.34,2.7a15.576,15.576,0,0,1-2.26-.24A7.382,7.382,0,0,1-15.3.16a18.643,18.643,0,0,0,2.02.1c1.34,0,1.88-.18,2.26-.76.3-.48.44-1.3.64-3.6.1-1.06.1-1.06.14-1.44a12.311,12.311,0,0,1-1.68.08H-17.7l-.02-1.62h4.62c.8,0,1.34.02,1.88.06a8.7,8.7,0,0,1-.08-1.44v-1.9a7.932,7.932,0,0,1,.08-1.36,14.369,14.369,0,0,1-1.88.08H-24.08a10.549,10.549,0,0,1-1.88-.1v1.66a16.917,16.917,0,0,1,1.88-.08h4.58l.02,1.62h-4.1a12.688,12.688,0,0,1-1.88-.08,15.294,15.294,0,0,1-.32,2.08A14.676,14.676,0,0,1-26.9-3.06l1.94.12c.16-.5.22-.66.34-1.04h4.02A15.983,15.983,0,0,1-27.72-.26a6.9,6.9,0,0,1,1.1,1.56A17.089,17.089,0,0,0-19.4-3.08Zm1.62-7.98-.02-1.62h4.72v1.62Zm-1.72,1.46.02,1.62h-4.78c.22-.84.24-1,.36-1.62Zm-3.72-6.7a12.424,12.424,0,0,1,.98,2l1.56-.52a11.52,11.52,0,0,0-.86-1.48h1.2c.66,0,1.18.02,1.58.06a10.027,10.027,0,0,1-.92.9A4.418,4.418,0,0,1-18.4-11.7a9.251,9.251,0,0,0,1.74-2.08h1.46a11.963,11.963,0,0,1,1.1,2l1.62-.52a13.906,13.906,0,0,0-.94-1.48h1.82a20.516,20.516,0,0,1,2.1.1v-1.74a15.734,15.734,0,0,1-2.16.1H-15.8a13.3,13.3,0,0,0,.6-1.22l-1.76-.36a8.692,8.692,0,0,1-1.72,3.14v-1.68a11.569,11.569,0,0,1-1.96.12h-2.78c.28-.46.38-.64.68-1.18l-1.8-.42a7.187,7.187,0,0,1-1,1.94,8.852,8.852,0,0,1-2.22,2.3,4.645,4.645,0,0,1,1.12,1.32,12.44,12.44,0,0,0,2.22-2.42ZM-2.7-8.98a5.476,5.476,0,0,1,2.4.5A3.825,3.825,0,0,1,1.33-7.03,4.335,4.335,0,0,1,1.92-4.7,4.619,4.619,0,0,1,.49-1.1,5.936,5.936,0,0,1-3.64.2,10.645,10.645,0,0,1-5.75,0,6.049,6.049,0,0,1-7.44-.58V-2.82a7.677,7.677,0,0,0,1.77.66A8.049,8.049,0,0,0-3.7-1.9a3.589,3.589,0,0,0,2.23-.62A2.288,2.288,0,0,0-.66-4.46a2.218,2.218,0,0,0-.76-1.81A3.658,3.658,0,0,0-3.78-6.9,7.912,7.912,0,0,0-5-6.8q-.64.1-1.06.2l-1.08-.6.54-7.08H.92v2.2h-5.3l-.3,3.3q.34-.06.81-.13A8.15,8.15,0,0,1-2.7-8.98ZM14.88-5.1v1.5H12.22a21.026,21.026,0,0,1-2.36-.1v1.78a20.132,20.132,0,0,1,2.4-.12h2.62v1.5a12.912,12.912,0,0,1-.12,2.24h1.92a12.912,12.912,0,0,1-.12-2.24v-1.5h3.18a20.883,20.883,0,0,1,2.32.12v-1.8a15.332,15.332,0,0,1-2.3.12h-3.2V-5.1h2.76a14.71,14.71,0,0,1,1.82.08,15.494,15.494,0,0,1-.08-1.84v-4.22a15.435,15.435,0,0,1,.08-1.86,10.96,10.96,0,0,1-1.64.08,26.653,26.653,0,0,0,1.68-3.34l-1.76-.6a15.83,15.83,0,0,1-1.76,3.94H12.3a12.553,12.553,0,0,1-1.74-.08,17.254,17.254,0,0,1,.06,1.78v4.38a17.6,17.6,0,0,1-.06,1.76,15.592,15.592,0,0,1,1.88-.08Zm0-6.3v1.66h-2.6V-11.4Zm1.68,0H19.4v1.66H16.56ZM14.88-8.34v1.76h-2.6V-8.34Zm1.68,0H19.4v1.76H16.56ZM5.92-7.1c.12-1.02.2-1.86.28-2.78H8.32a12.687,12.687,0,0,1,1.34.04c-.04-.44-.04-.44-.06-1.7V-14.4c0-.58.02-1.04.06-1.46a13.012,13.012,0,0,1-1.54.06H5.84a12.266,12.266,0,0,1-1.9-.12v1.82a14.072,14.072,0,0,1,1.78-.1H7.9v2.76H6.04a10.129,10.129,0,0,1-1.54-.08v.42a35.54,35.54,0,0,1-.56,5.62c.56-.04.78-.04,1.48-.04h2.3a23.65,23.65,0,0,1-.4,3.58C7.08-.72,6.88-.48,6.18-.48a14.2,14.2,0,0,1-2.24-.2,4.729,4.729,0,0,1,.32,1.86c.8.06,1.34.08,1.74.08,1.68,0,2.24-.3,2.68-1.42a20.237,20.237,0,0,0,.76-5.2,15.414,15.414,0,0,1,.14-1.82,10.863,10.863,0,0,1-1.6.08Zm7.52-6.42a17.8,17.8,0,0,0-1.48-3.06L10.34-16a11.766,11.766,0,0,1,1.48,3.08Zm3.58-.24a18.5,18.5,0,0,0-1.32-3.18l-1.6.5a13.5,13.5,0,0,1,1.32,3.22Zm9.66,9.3H24.76l-.5-9.82h2.92Zm-2.5,3.18a1.419,1.419,0,0,1,.45-1.19,1.722,1.722,0,0,1,1.09-.35,1.691,1.691,0,0,1,1.07.35,1.419,1.419,0,0,1,.45,1.19A1.424,1.424,0,0,1,26.79-.1a1.66,1.66,0,0,1-1.07.36A1.69,1.69,0,0,1,24.63-.1,1.424,1.424,0,0,1,24.18-1.28Z" transform="translate(5541 -1552)" fill="#fff"/>
    <path id="パス_3851" data-name="パス 3851" d="M-28.938-1.162a19.8,19.8,0,0,0-1.54-1.54,11.512,11.512,0,0,0,1.092-3.206c.112-.616.28-1.722.322-2.31.042-.49.042-.49.07-.7a9.8,9.8,0,0,1-1.246.056h-1.232c.112-.5.252-1.316.336-1.834.07-.42.112-.686.154-.868l-1.2-.1c0,.07.014.14.014.168a15.612,15.612,0,0,1-.364,2.632h-.476a7.732,7.732,0,0,1-1.232-.084V-7.84a8.825,8.825,0,0,1,1.106-.07h.392a22.692,22.692,0,0,1-1.288,3.864,17.2,17.2,0,0,1,2.226,1.582A7.836,7.836,0,0,1-34.482.056a4.161,4.161,0,0,1,.728.91,9.347,9.347,0,0,0,2.73-2.716A15.991,15.991,0,0,1-29.638-.238ZM-30.114-7.91a12.643,12.643,0,0,1-1.162,4.536c-.448-.35-.728-.546-1.484-1.064a29.471,29.471,0,0,0,.952-3,3.467,3.467,0,0,1,.126-.476Zm4.214,2.2h-1.778A5.774,5.774,0,0,1-28.966-5.8v1.162a8.444,8.444,0,0,1,1.3-.084H-25.9v4.34c0,.238-.1.294-.532.294a12.551,12.551,0,0,1-1.792-.2A3.86,3.86,0,0,1-27.972.854c.63.056,1.274.1,1.638.1,1.218,0,1.512-.238,1.512-1.246V-4.718h2.142a6.741,6.741,0,0,1,1.288.084V-5.8a6.571,6.571,0,0,1-1.288.084h-2.142V-6.958A13.876,13.876,0,0,0-22.764-9.1a10.646,10.646,0,0,1,.826-1.05l-.588-.742a5.048,5.048,0,0,1-1.12.07h-3.5a9.917,9.917,0,0,1-1.456-.084v1.162a13.4,13.4,0,0,1,1.414-.07h3.724a9.861,9.861,0,0,1-2.044,2.2H-26a8.437,8.437,0,0,1,.1,1.344Zm13.888-4.48v5.278h-1.932a7.989,7.989,0,0,1-1.316-.07V-3.85a8.771,8.771,0,0,1,1.316-.084h1.932V-.6a10.835,10.835,0,0,1-.1,1.6h1.26a8.507,8.507,0,0,1-.112-1.6V-3.934h2.156A8.771,8.771,0,0,1-7.49-3.85V-4.984a7.816,7.816,0,0,1-1.288.07h-2.184v-5.278h1.876a9.369,9.369,0,0,1,1.3.07v-1.12a8.713,8.713,0,0,1-1.33.084h-4.592a9.044,9.044,0,0,1-1.344-.084v1.12a9.333,9.333,0,0,1,1.316-.07Zm-7.8-.056a8.32,8.32,0,0,1,1.092-.056h1.9a8.32,8.32,0,0,1,1.092.056V-11.27a5.927,5.927,0,0,1-1.092.07h-1.9a5.835,5.835,0,0,1-1.092-.07Zm-.56,1.988a8.779,8.779,0,0,1,1.12-.056h2.73A6.4,6.4,0,0,1-15.5-8.26V-9.3a7.484,7.484,0,0,1-1.12.056H-19.25a5.982,5.982,0,0,1-1.12-.07Zm.63,1.974a6.258,6.258,0,0,1,.98-.056h2.128a6.53,6.53,0,0,1,.966.056V-7.28a8.027,8.027,0,0,1-.966.042H-18.76a8.8,8.8,0,0,1-.98-.042Zm0,1.946a6.258,6.258,0,0,1,.98-.056h2.114a6.49,6.49,0,0,1,.98.056V-5.348a5.633,5.633,0,0,1-.966.056H-18.76a5.819,5.819,0,0,1-.98-.056Zm.952,5.418V.35h2.1V.9h1.022a8.474,8.474,0,0,1-.07-1.232V-2.3a9.841,9.841,0,0,1,.042-1.064,5.793,5.793,0,0,1-1.008.042h-2a9.214,9.214,0,0,1-1.12-.056,7.219,7.219,0,0,1,.07,1.148v1.96a9.312,9.312,0,0,1-.084,1.344Zm0-3.528h2.1V-.518h-2.1Zm3.836-6.622A13.988,13.988,0,0,1-13.734-5.53l.938-.364a18.424,18.424,0,0,0-1.246-3.57Zm6.146-.392a13.409,13.409,0,0,1-1.484,3.6l.882.378a20.832,20.832,0,0,0,1.582-3.57Zm4.83,7.63c0-.238-.014-.294-.014-.6-.014-.378-.028-1.05-.028-1.33A25.941,25.941,0,0,1-3.7-8.05,17.02,17.02,0,0,1-3-10.836l-1.33-.182a8.589,8.589,0,0,1-.2,1.19,24.029,24.029,0,0,0-.616,5.544,21.143,21.143,0,0,0,.364,3.99c.042.28.056.364.084.588L-3.472.21a2.09,2.09,0,0,1-.014-.266A11.369,11.369,0,0,1-2.31-4L-3.15-4.4a12.149,12.149,0,0,0-.812,2.562Zm2.646-6.4c.112.014.14.014.224.028a1.728,1.728,0,0,0,.252.028,16.841,16.841,0,0,0,1.876.1A24.189,24.189,0,0,0,4-8.26q.9-.126.966-.126L4.9-9.576A15.5,15.5,0,0,1,1.064-9.2,9.673,9.673,0,0,1-1.3-9.408ZM-.322-5.614A4.091,4.091,0,0,0-1.568-2.968a2.258,2.258,0,0,0,.42,1.344C-.56-.868.49-.518,2.142-.518A16.02,16.02,0,0,0,5.026-.784c.294-.056.322-.056.5-.084L5.4-2.142a9.7,9.7,0,0,1-3.262.49C.448-1.652-.42-2.128-.42-3.08A3.176,3.176,0,0,1,.63-5.138ZM8.442-6.8a6.708,6.708,0,0,1,1.05-.35,21.779,21.779,0,0,1,5.684-.994c1.862,0,3,.924,3,2.45,0,1.554-1.092,2.8-3.052,3.472a12.814,12.814,0,0,1-3.836.6,3.838,3.838,0,0,1,.5,1.26A12.278,12.278,0,0,0,16.506-1.47,4.7,4.7,0,0,0,19.474-5.7c0-2.24-1.666-3.626-4.34-3.626a18.551,18.551,0,0,0-4.018.5,16.65,16.65,0,0,1-2.982.6ZM23.1-8.148a6.542,6.542,0,0,1,.9-.028,32.042,32.042,0,0,0,3.78-.238c.406.882.406.882.714,1.456a29.4,29.4,0,0,1-4.284.322A8.432,8.432,0,0,1,23-6.692l.028,1.134a6.5,6.5,0,0,1,1.022-.056,32.894,32.894,0,0,0,4.914-.406,11.926,11.926,0,0,0,1.372,1.988,8.518,8.518,0,0,0-2.7-.378,6.191,6.191,0,0,0-3.192.672A2.123,2.123,0,0,0,23.3-1.932,2.055,2.055,0,0,0,24.36-.14,5.763,5.763,0,0,0,27.4.476a12.741,12.741,0,0,0,3.584-.5c.63-.182.63-.182.868-.238l-.224-1.26a9.865,9.865,0,0,1-4.2.924c-1.848,0-2.87-.476-2.87-1.344,0-.91,1.232-1.484,3.206-1.484a6.807,6.807,0,0,1,3.346.63l.938-.672a15.391,15.391,0,0,1-1.988-2.716c.6-.126.854-.168,1.064-.224,1.526-.378,1.526-.378,1.834-.434L32.83-7.98a15.627,15.627,0,0,1-3.22.854c-.21-.364-.49-.924-.728-1.442.714-.112,2.422-.476,3.486-.756l-.1-1.092a18.389,18.389,0,0,1-3.752.91,10.523,10.523,0,0,1-.686-1.89l-1.246.2c.112.2.5,1.092.8,1.834a25.63,25.63,0,0,1-3.192.182c-.518,0-.784-.014-1.134-.042Z" transform="translate(5541 -1575)" fill="#fff"/>
    <path id="パス_3852" data-name="パス 3852" d="M-37.11-8.088h-3.528a9.192,9.192,0,0,1-1.344-.072v.816a10.007,10.007,0,0,1,1.344-.06h3.528v.66h-2.544a7.691,7.691,0,0,1-1.188-.06v.768a10.1,10.1,0,0,1,1.188-.048h2.544v.612h-2.76a8.123,8.123,0,0,1-1.224-.06v.792A8.32,8.32,0,0,1-39.87-4.8h2.76v.636h-3.528a9.381,9.381,0,0,1-1.356-.072v.852a11.143,11.143,0,0,1,1.356-.072h7.968a11.426,11.426,0,0,1,1.356.072v-.852a9.268,9.268,0,0,1-1.356.072h-3.6V-4.8h2.88a8.42,8.42,0,0,1,1.224.06v-.792a8.123,8.123,0,0,1-1.224.06h-2.88v-.612h2.448a12.415,12.415,0,0,1,1.3.048A8.556,8.556,0,0,1-32.562-7V-7.4a8.257,8.257,0,0,1,1.272.06v-.8a7.582,7.582,0,0,1-1.2.06h-.072v-.288a9.339,9.339,0,0,1,.036-1.044,12.454,12.454,0,0,1-1.332.048H-36.27a2.977,2.977,0,0,1,.084-.756h-1a4.37,4.37,0,0,1,.072.756h-2.46a8.5,8.5,0,0,1-1.248-.072v.816a7.824,7.824,0,0,1,1.164-.06h2.544Zm.84,0v-.6H-33.4v.6Zm0,.684H-33.4v.66H-36.27Zm-4.2,7.092a6.513,6.513,0,0,1-.072,1.2h.948V.444h5.928V.888h.948a5.849,5.849,0,0,1-.072-1.2V-1.764a8.124,8.124,0,0,1,.048-1.152,10.771,10.771,0,0,1-1.368.036h-5.04a11.125,11.125,0,0,1-1.368-.036,8.254,8.254,0,0,1,.048,1.14Zm.876-1.9h5.928v.624h-5.928Zm0,1.284h5.928V-.24h-5.928Zm15.108-2.628h-1.632A7.9,7.9,0,0,1-27.15-3.6,8.683,8.683,0,0,1-27.1-2.544v1.98A10.6,10.6,0,0,1-27.174.888h.972V.324h4.968V.888h.972A9.273,9.273,0,0,1-20.334-.6V-2.472A10.15,10.15,0,0,1-20.286-3.6a7.9,7.9,0,0,1-1.032.048H-23.6v-1.7h2.7a7.658,7.658,0,0,1,1.176.072v-.972a7.143,7.143,0,0,1-1.212.072H-23.6v-.432a7.312,7.312,0,0,1,.048-1.116h-1a5.622,5.622,0,0,1,.06,1.1Zm-1.716.828h4.968V-.516H-26.2Zm1.32-6.084h-2.844c-.492,0-.912-.024-1.308-.06A15.6,15.6,0,0,1-28.986-7.3c0,4.32-.264,5.94-1.212,7.38a3.187,3.187,0,0,1,.78.7c1.092-1.812,1.344-3.492,1.356-8.76h7.344a9.863,9.863,0,0,1,1.368.06v-.96a9.31,9.31,0,0,1-1.38.072h-3.228V-9.3a3.518,3.518,0,0,1,.06-.8h-1.056a3.681,3.681,0,0,1,.072.8Zm12.216,3.132A1.122,1.122,0,0,0-13.782-4.56a1.119,1.119,0,0,0,1.116,1.1,1.119,1.119,0,0,0,1.1-1.116A1.1,1.1,0,0,0-12.666-5.676ZM4.506-8.568,2.25,0H.87L-.642-5.292Q-.726-5.58-.816-5.94t-.162-.678q-.072-.318-.1-.45-.012.132-.072.444t-.144.684q-.084.372-.18.684L-2.958,0h-1.38L-6.582-8.568H-5.25L-3.99-3.5q.12.528.234,1.092T-3.582-1.4q.06-.456.186-1.044T-3.138-3.5L-1.71-8.568h1.3L1.062-3.48q.144.48.264,1.068T1.506-1.4a10.145,10.145,0,0,1,.168-1.008q.12-.564.252-1.092l1.26-5.064Zm3.408,1.98a2.6,2.6,0,0,1,2,.786A3.019,3.019,0,0,1,10.65-3.66v.7H6.306A2.221,2.221,0,0,0,6.828-1.44a1.829,1.829,0,0,0,1.4.528,4.883,4.883,0,0,0,1.11-.114,5.715,5.715,0,0,0,1-.342V-.312a4.522,4.522,0,0,1-.984.33,5.873,5.873,0,0,1-1.176.1A3.557,3.557,0,0,1,6.522-.252,2.643,2.643,0,0,1,5.4-1.356,3.751,3.751,0,0,1,5-3.18a4.216,4.216,0,0,1,.366-1.848,2.7,2.7,0,0,1,1.02-1.158A2.863,2.863,0,0,1,7.914-6.588Zm0,.984a1.43,1.43,0,0,0-1.1.444A2.057,2.057,0,0,0,6.33-3.9H9.378a2.059,2.059,0,0,0-.366-1.23A1.281,1.281,0,0,0,7.914-5.6ZM13.506-9.12v2.2q0,.384-.018.75t-.042.558h.06A2.276,2.276,0,0,1,14.25-6.3a2.364,2.364,0,0,1,1.212-.276,2.345,2.345,0,0,1,1.878.84,3.769,3.769,0,0,1,.714,2.5,3.793,3.793,0,0,1-.72,2.514A2.355,2.355,0,0,1,15.45.12a2.372,2.372,0,0,1-1.206-.27,2.425,2.425,0,0,1-.738-.642h-.1L13.17,0h-.936V-9.12Zm1.656,3.576A1.422,1.422,0,0,0,13.878-5a3.151,3.151,0,0,0-.372,1.674v.1a3.375,3.375,0,0,0,.354,1.71,1.414,1.414,0,0,0,1.326.594,1.3,1.3,0,0,0,1.17-.6,3.177,3.177,0,0,0,.39-1.728Q16.746-5.544,15.162-5.544ZM21.27-1.572c0-.2-.012-.252-.012-.516-.012-.324-.024-.9-.024-1.14A22.235,22.235,0,0,1,21.51-6.9a14.589,14.589,0,0,1,.6-2.388l-1.14-.156a7.363,7.363,0,0,1-.168,1.02,20.6,20.6,0,0,0-.528,4.752,18.122,18.122,0,0,0,.312,3.42c.036.24.048.312.072.5L21.7.18a1.792,1.792,0,0,1-.012-.228A9.745,9.745,0,0,1,22.7-3.432l-.72-.336a10.414,10.414,0,0,0-.7,2.2Zm2.268-5.484c.1.012.12.012.192.024a1.482,1.482,0,0,0,.216.024,14.435,14.435,0,0,0,1.608.084A20.733,20.733,0,0,0,28.11-7.08q.774-.108.828-.108l-.06-1.02a13.29,13.29,0,0,1-3.288.324,8.291,8.291,0,0,1-2.028-.18ZM24.4-4.812a3.506,3.506,0,0,0-1.068,2.268,1.935,1.935,0,0,0,.36,1.152c.5.648,1.4.948,2.82.948a13.732,13.732,0,0,0,2.472-.228c.252-.048.276-.048.432-.072L29.31-1.836a8.318,8.318,0,0,1-2.8.42c-1.452,0-2.2-.408-2.2-1.224a2.722,2.722,0,0,1,.9-1.764Zm7.44-2.112a33.707,33.707,0,0,1,3.948-.384,26,26,0,0,0,2.64-.264c-2.028.912-3.216,2.484-3.216,4.224A2.985,2.985,0,0,0,36.642-.756a6.409,6.409,0,0,0,2.652.888c.192.036.24.036.384.072L39.846-.96a6.017,6.017,0,0,1-1.8-.3,2.229,2.229,0,0,1-1.8-2.184,3.819,3.819,0,0,1,1.9-3.048A5.7,5.7,0,0,1,41.2-7.524h.144l-.084-1.068a8.714,8.714,0,0,1-1.4.12c-1.98.1-5.268.276-6.948.4-.372.024-.528.036-.7.036-.072,0-.18,0-.432-.012ZM-26.448,15a16.969,16.969,0,0,0-1.32-1.32,9.867,9.867,0,0,0,.936-2.748c.1-.528.24-1.476.276-1.98.036-.42.036-.42.06-.6a8.4,8.4,0,0,1-1.068.048H-28.62c.1-.432.216-1.128.288-1.572.06-.36.1-.588.132-.744L-29.232,6c0,.06.012.12.012.144A13.382,13.382,0,0,1-29.532,8.4h-.408A6.628,6.628,0,0,1-31,8.332V9.28a7.564,7.564,0,0,1,.948-.06h.336a19.45,19.45,0,0,1-1.1,3.312,14.745,14.745,0,0,1,1.908,1.356,6.716,6.716,0,0,1-2.292,2.16,3.567,3.567,0,0,1,.624.78,8.011,8.011,0,0,0,2.34-2.328,13.706,13.706,0,0,1,1.188,1.3ZM-27.456,9.22a10.837,10.837,0,0,1-1,3.888c-.384-.3-.624-.468-1.272-.912a25.26,25.26,0,0,0,.816-2.568A2.972,2.972,0,0,1-28.8,9.22Zm3.612,1.884h-1.524a4.949,4.949,0,0,1-1.1-.072v1a7.238,7.238,0,0,1,1.116-.072h1.512v3.72c0,.2-.084.252-.456.252a10.758,10.758,0,0,1-1.536-.168,3.309,3.309,0,0,1,.216.972c.54.048,1.092.084,1.4.084,1.044,0,1.3-.2,1.3-1.068V11.956h1.836a5.778,5.778,0,0,1,1.1.072v-1a5.632,5.632,0,0,1-1.1.072H-22.92V10.036A11.894,11.894,0,0,0-21.156,8.2a9.125,9.125,0,0,1,.708-.9l-.5-.636a4.327,4.327,0,0,1-.96.06h-3a8.5,8.5,0,0,1-1.248-.072v1a11.487,11.487,0,0,1,1.212-.06h3.192a8.452,8.452,0,0,1-1.752,1.884h-.42a7.232,7.232,0,0,1,.084,1.152Zm11.9-3.84v4.524H-13.6a6.848,6.848,0,0,1-1.128-.06V12.7a7.518,7.518,0,0,1,1.128-.072h1.656v2.856a9.287,9.287,0,0,1-.084,1.368h1.08a7.292,7.292,0,0,1-.1-1.368V12.628h1.848a7.518,7.518,0,0,1,1.128.072v-.972a6.7,6.7,0,0,1-1.1.06H-11.04V7.264h1.608a8.031,8.031,0,0,1,1.116.06v-.96a7.468,7.468,0,0,1-1.14.072h-3.936a7.752,7.752,0,0,1-1.152-.072v.96a8,8,0,0,1,1.128-.06Zm-6.684-.048a7.132,7.132,0,0,1,.936-.048h1.632a7.132,7.132,0,0,1,.936.048V6.34a5.08,5.08,0,0,1-.936.06h-1.632a5,5,0,0,1-.936-.06Zm-.48,1.7a7.525,7.525,0,0,1,.96-.048h2.34a5.482,5.482,0,0,1,.876.048V8.032a6.415,6.415,0,0,1-.96.048h-2.256a5.128,5.128,0,0,1-.96-.06Zm.54,1.692a5.364,5.364,0,0,1,.84-.048H-15.9a5.6,5.6,0,0,1,.828.048V9.76A6.88,6.88,0,0,1-15.9,9.8h-1.824a7.545,7.545,0,0,1-.84-.036Zm0,1.668a5.364,5.364,0,0,1,.84-.048h1.812a5.563,5.563,0,0,1,.84.048v-.864a4.828,4.828,0,0,1-.828.048h-1.824a4.988,4.988,0,0,1-.84-.048Zm.816,4.644V16.3h1.8v.468h.876a7.263,7.263,0,0,1-.06-1.056v-1.68a8.435,8.435,0,0,1,.036-.912,4.965,4.965,0,0,1-.864.036h-1.716a7.9,7.9,0,0,1-.96-.048,6.188,6.188,0,0,1,.06.984v1.68a7.982,7.982,0,0,1-.072,1.152Zm0-3.024h1.8v1.656h-1.8Zm3.288-5.676a11.99,11.99,0,0,1,1.044,3.036l.8-.312a15.792,15.792,0,0,0-1.068-3.06Zm5.268-.336a11.493,11.493,0,0,1-1.272,3.084l.756.324a17.856,17.856,0,0,0,1.356-3.06ZM-.9,10.252A9.665,9.665,0,0,0,.54,14.1a7.643,7.643,0,0,1-2.676,2.088,2.374,2.374,0,0,1,.648.756,9.767,9.767,0,0,0,2.556-2.136,8.682,8.682,0,0,0,2.4,2.028,3.323,3.323,0,0,1,.576-.852,7.351,7.351,0,0,1-2.4-1.9,12.85,12.85,0,0,0,1.548-3.228,7.031,7.031,0,0,1,.336-.948L3.06,9.388a4.732,4.732,0,0,1-.984.06H-1.248v-2H2.616a10.426,10.426,0,0,1,1.2.06V6.52a8.479,8.479,0,0,1-1.224.072H-.888a11.059,11.059,0,0,1-1.3-.06c.036.42.048.756.048,1.452,0,5.052-.288,6.864-1.308,8.268a2.93,2.93,0,0,1,.72.672c1-1.572,1.344-3.18,1.452-6.672Zm3.336,0A9.52,9.52,0,0,1,1.1,13.36,8.227,8.227,0,0,1-.084,10.252Zm-6.48,3.684c.42,0,.612.012.948.036-.024-.288-.036-.54-.036-1.056V7.456A7.008,7.008,0,0,1-3.1,6.448a7.686,7.686,0,0,1-1.032.036H-5.544c-.492,0-.732-.012-1.068-.036a8.646,8.646,0,0,1,.048,1.068v5.316c0,.432-.012.78-.036,1.14a5.476,5.476,0,0,1,.924-.036Zm-1.68-6.66H-3.96v1.44H-5.724Zm0,2.184H-3.96v1.452H-5.724Zm0,2.2H-3.96v1.5H-5.724Zm-.264,2.58a4.871,4.871,0,0,1-1.248,2.028,2.063,2.063,0,0,1,.732.588,6.073,6.073,0,0,0,1.272-2.244Zm1.212.336a10.941,10.941,0,0,0,.864,1.716,3.278,3.278,0,0,1,.7-.516,7.3,7.3,0,0,1-.828-1.548ZM9.816,7.228H6.576a9.013,9.013,0,0,1-1.368-.072v.96a8.778,8.778,0,0,1,1.356-.072H9.816v1.1H7.224a7.809,7.809,0,0,1-1.248-.06V10a8.788,8.788,0,0,1,1.248-.06h6.24a8.667,8.667,0,0,1,1.26.06V9.088a8.079,8.079,0,0,1-1.26.06H10.716v-1.1h3.516a9.946,9.946,0,0,1,1.332.072v-.96a8.969,8.969,0,0,1-1.344.072h-3.5V7.036a5.665,5.665,0,0,1,.072-1.056H9.744a5.045,5.045,0,0,1,.072,1.056ZM6.2,13.2V11.656h8.28V13.2h.984a5.633,5.633,0,0,1-.048-.852v-.744a5.159,5.159,0,0,1,.048-.8,11.888,11.888,0,0,1-1.236.048H6.456A11.639,11.639,0,0,1,5.232,10.8a5.7,5.7,0,0,1,.048.828v.732a5.77,5.77,0,0,1-.048.84Zm2.232-1.056c.012.132.036.312.036.384l-.012.06.012.1a3.632,3.632,0,0,1-.348,1.44,3.568,3.568,0,0,1-1.5,1.356,5.016,5.016,0,0,1-1.584.5,3.262,3.262,0,0,1,.612.924,6.1,6.1,0,0,0,1.884-.828,3.942,3.942,0,0,0,1.512-1.74,6.227,6.227,0,0,0,.384-1.656,2.9,2.9,0,0,1,.06-.5Zm3.42.96a4.925,4.925,0,0,1,.06-.936H10.86a4.527,4.527,0,0,1,.06.972v2.592c0,.78.3.912,2.052.912,1.392,0,1.92-.1,2.184-.384a3.5,3.5,0,0,0,.528-1.956,2.978,2.978,0,0,1-.9-.336,3.891,3.891,0,0,1-.288,1.572c-.156.192-.456.24-1.512.24-1.008,0-1.128-.048-1.128-.4ZM21.8,8.2H18.516a7.093,7.093,0,0,1-.948-.048,7.668,7.668,0,0,1,.06.972v3.408a7.7,7.7,0,0,1-.072,1.092h1.02v-.78H21.8v2.688a8.857,8.857,0,0,1-.084,1.4h1.128a7.108,7.108,0,0,1-.084-1.4V12.844h3.4v.78h1.008a7.575,7.575,0,0,1-.06-1.092v-3.4a7.806,7.806,0,0,1,.048-.984,6.867,6.867,0,0,1-.948.048H22.764V7.228a8.662,8.662,0,0,1,.072-1.236H21.72a7.151,7.151,0,0,1,.084,1.26Zm0,.876v2.892H18.576V9.076Zm.96,2.892V9.076h3.4v2.892Zm7.692,1.488h-.9l-.3-6.024h1.5Zm-1.284,1.836a.8.8,0,0,1,.24-.66A.912.912,0,0,1,30,14.44a.9.9,0,0,1,.57.192.789.789,0,0,1,.246.66.827.827,0,0,1-.246.672.867.867,0,0,1-.57.2.877.877,0,0,1-.588-.2A.838.838,0,0,1,29.172,15.292Z" transform="translate(5541 -1529.981)" fill="#fff"/>
  </g>
</svg>
