<svg xmlns="http://www.w3.org/2000/svg" width="263.574" height="165.162" viewBox="0 0 263.574 165.162">
  <g id="グループ_41423" data-name="グループ 41423" transform="translate(-11040.359 -184.02)">
    <path id="パス_3837" data-name="パス 3837" d="M-120.243-7.348V0h-2.73V-18.094h3.094a13.954,13.954,0,0,1,3.434.316,4.6,4.6,0,0,1,2.063,1.2,5.149,5.149,0,0,1,1.559,3.844A4.96,4.96,0,0,1-114.489-8.8a6.585,6.585,0,0,1-4.488,1.453Zm0-2.531h1.02q3.762,0,3.762-2.895,0-2.8-3.879-2.8h-.9Zm21.935,5.484h-7.746L-108.069,0h-2.941l8.953-19.23L-93.421,0h-2.988Zm-1.113-2.566-2.684-6.152-2.812,6.152Zm19.146-2.461H-72.8v.6a12.349,12.349,0,0,1-.48,3.609A7.671,7.671,0,0,1-74.861-2.5,8.2,8.2,0,0,1-81.271.34a8.812,8.812,0,0,1-6.5-2.742,9.093,9.093,0,0,1-2.707-6.609,9.071,9.071,0,0,1,2.754-6.68,9.123,9.123,0,0,1,6.7-2.754,9.173,9.173,0,0,1,3.961.867,11.424,11.424,0,0,1,3.457,2.813L-75.552-12.9a6.6,6.6,0,0,0-5.426-2.965,6.482,6.482,0,0,0-4.816,1.98,6.613,6.613,0,0,0-1.945,4.875,6.414,6.414,0,0,0,2.168,4.98,6.468,6.468,0,0,0,4.395,1.816,5.456,5.456,0,0,0,3.621-1.359,4.836,4.836,0,0,0,1.793-3.281h-4.512Zm23.295-6.105h-7.254v4.348h7.043v2.566h-7.043v6.047h7.254V0h-9.984V-18.094h9.984ZM-41.188,0V-19.324l13.2,13.8V-18.094h2.73V1.1l-13.2-13.77V0Zm21.923-9.129a8.862,8.862,0,0,1,2.8-6.562,9.219,9.219,0,0,1,6.7-2.742,9.047,9.047,0,0,1,6.633,2.766A9.041,9.041,0,0,1-.35-9.023,8.9,8.9,0,0,1-3.139-2.4,9.334,9.334,0,0,1-9.9.328,9.336,9.336,0,0,1-16.194-2.1,8.891,8.891,0,0,1-19.264-9.129Zm2.754.035A6.539,6.539,0,0,0-14.495-4.16,6.469,6.469,0,0,0-9.866-2.227,6.512,6.512,0,0,0-5.061-4.2,6.663,6.663,0,0,0-3.1-9.047,6.63,6.63,0,0,0-5.038-13.9,6.383,6.383,0,0,0-9.8-15.867a6.446,6.446,0,0,0-4.77,1.969A6.527,6.527,0,0,0-16.511-9.094ZM9.831-15.527V0H7.1V-15.527H2.94v-2.566H13.979v2.566Zm27.827,0h-6.3v4.348h6.082v2.566H31.354V0h-2.73V-18.094h9.035Zm4.685,6.4a8.862,8.862,0,0,1,2.8-6.562,9.219,9.219,0,0,1,6.7-2.742,9.047,9.047,0,0,1,6.633,2.766,9.041,9.041,0,0,1,2.777,6.645A8.9,8.9,0,0,1,58.468-2.4,9.334,9.334,0,0,1,51.707.328,9.336,9.336,0,0,1,45.414-2.1,8.891,8.891,0,0,1,42.343-9.129Zm2.754.035A6.539,6.539,0,0,0,47.113-4.16a6.469,6.469,0,0,0,4.629,1.934,6.512,6.512,0,0,0,4.8-1.969A6.663,6.663,0,0,0,58.5-9.047,6.63,6.63,0,0,0,56.57-13.9a6.383,6.383,0,0,0-4.758-1.969,6.446,6.446,0,0,0-4.77,1.969A6.527,6.527,0,0,0,45.1-9.094Zm24.724-9V-7.2a6,6,0,0,0,.762,3.41,3.729,3.729,0,0,0,3.2,1.559,3.741,3.741,0,0,0,3.211-1.559,5.9,5.9,0,0,0,.762-3.41v-10.9h2.73V-6.445A6.518,6.518,0,0,1,78.7-1.734,6.6,6.6,0,0,1,73.782.328a6.557,6.557,0,0,1-4.91-2.062,6.518,6.518,0,0,1-1.781-4.711V-18.094ZM87.221,0V-19.324l13.2,13.8V-18.094h2.73V1.1l-13.2-13.77V0Zm22.662,0V-18.094h3.8a13.818,13.818,0,0,1,4.313.539,8.072,8.072,0,0,1,3.082,1.793,8.658,8.658,0,0,1,2.8,6.715,8.577,8.577,0,0,1-2.918,6.75A8.521,8.521,0,0,1,117.887-.5a13.973,13.973,0,0,1-4.254.5Zm2.73-2.566h1.23a10.267,10.267,0,0,0,3.059-.387,6.208,6.208,0,0,0,2.2-1.3,6.187,6.187,0,0,0,2.016-4.793,6.287,6.287,0,0,0-1.992-4.828,7.546,7.546,0,0,0-5.285-1.652h-1.23Z" transform="translate(11173.973 348.08)" fill="#1e2c4b"/>
    <g id="グループ_41422" data-name="グループ 41422" transform="translate(-17 3.187)">
      <path id="パス_3833" data-name="パス 3833" d="M10224.254-1183.093h-63.933l50.089-78.827v105.079" transform="translate(900.679 1450.054)" fill="none" stroke="#212c49" stroke-width="4"/>
      <path id="パス_3836" data-name="パス 3836" d="M10224.254-1183.093h-63.933l50.089-78.827v105.079" transform="translate(1096.679 1450.054)" fill="none" stroke="#212c49" stroke-width="4"/>
      <g id="グループ_41420" data-name="グループ 41420" transform="translate(0 2)">
        <path id="パス_111" data-name="パス 111" d="M31.335,11.15c-10.953,0-19.9,2.5-19.9,5.546a161.863,161.863,0,0,0,1.8,23.292c.416,1.525,2.5,2.981,5.823,3.951v.624c.485,1.941,4.714,3.674,12.131,3.674h0c7.417,0,11.646-1.733,12.131-3.674v-.624c3.327-.971,5.407-2.426,5.823-3.951a161.864,161.864,0,0,0,2.08-22.945C51.23,13.646,42.357,11.15,31.335,11.15Zm-6.516,18.3c-.555,2.01-10.19,0-10.883-2.5v-.763c0-.069.555,0,.763.485a5.2,5.2,0,0,0,1.664,1.04,14.489,14.489,0,0,0,2.357.555,20.8,20.8,0,0,0,5.754.9ZM31.2,25.707a44.434,44.434,0,0,1-9.774-.555H20.036c-3.535-.624-6.585-1.733-6.932-3.4a.617.617,0,1,1,1.178-.347c0,1.04,4.575,1.8,6.17,2.08h1.456a42.91,42.91,0,0,0,9.358.9.624.624,0,1,1,0,1.248Zm0-5.13c-9.5,0-17.122-1.733-17.122-3.882S21.7,12.744,31.2,12.744,48.319,14.477,48.319,16.7,40.832,20.578,31.4,20.578Z" transform="translate(11144.212 244.976)" fill="#1e2c4b"/>
        <path id="パス_112" data-name="パス 112" d="M62.866,47.138c-2.842-5.546-9.289-8.8-11.369-14.765A19.2,19.2,0,0,1,49,22.391a34.661,34.661,0,0,1,2.08-11.715,15.667,15.667,0,0,1,1.456-4.159c.416-.693,2.149-1.872,2.288-2.5s-2.288-2.5-3.674-2.842A40.068,40.068,0,0,0,42.069,0h-2.7A40.622,40.622,0,0,0,30.7,1.109c-1.386,0-4.021,1.178-3.674,2.842s1.872,1.8,2.288,2.5a13.864,13.864,0,0,1,1.456,4.159,36.324,36.324,0,0,1,2.08,11.715A19.826,19.826,0,0,1,30.493,32.3c-2.149,5.962-8.6,9.22-11.369,14.765a60.309,60.309,0,0,0-6.308,29.184,69.324,69.324,0,0,1,10.606-.832h0a40.345,40.345,0,0,1,19.271,3.674,4.437,4.437,0,0,1,2.288,3.535,154.1,154.1,0,0,1-1.872,23.708c-.763,2.426-2.911,3.743-5.962,4.852h3.882c15.528,0,24.47-3.674,25.649-7.833A119.3,119.3,0,0,0,69.035,77.5a61.7,61.7,0,0,0-6.17-30.362Z" transform="translate(11152.127 178.833)" fill="#1e2c4b"/>
      </g>
    </g>
  </g>
</svg>
