<svg id="レイヤー_2" data-name="レイヤー 2" xmlns="http://www.w3.org/2000/svg" width="24.911" height="19.664" viewBox="0 0 24.911 19.664">
  <g id="文字">
    <path id="パス_110" data-name="パス 110" d="M13.669,5.032a.107.107,0,0,0,0-.143l-.989-.524a.1.1,0,0,0-.143,0l-3.683,6.8H8.009l3.873-7.151a.119.119,0,0,0,0-.143L10.845,3.3a.119.119,0,0,0-.143,0L6.829,11.169H1.561L3.587,7.594H8.044l.393-.787H3.194L0,11.884l3.194,6.853h7.151l3.194-6.853L11.81,9.227l-.5.87.608,1.073H10.094Z" transform="translate(0 0.629)" fill="#231815"/>
    <path id="パス_111" data-name="パス 111" d="M14.86,11.15c-1.883,0-3.42.429-3.42.953a27.828,27.828,0,0,0,.31,4c.072.262.429.512,1,.679v.107c.083.334.81.632,2.086.632h0c1.275,0,2-.3,2.086-.632v-.107c.572-.167.93-.417,1-.679a27.827,27.827,0,0,0,.358-3.945C18.281,11.579,16.755,11.15,14.86,11.15ZM13.74,14.3c-.1.346-1.752,0-1.871-.429v-.131c0-.012.1,0,.131.083a.894.894,0,0,0,.286.179,2.491,2.491,0,0,0,.405.1,3.575,3.575,0,0,0,.989.155Zm1.1-.644a7.639,7.639,0,0,1-1.68-.1h-.238c-.608-.107-1.132-.3-1.192-.584a.106.106,0,1,1,.2-.06c0,.179.787.31,1.061.358h.25a7.377,7.377,0,0,0,1.609.155.107.107,0,1,1,0,.215Zm0-.882c-1.633,0-2.944-.3-2.944-.667s1.311-.679,2.944-.679,2.944.3,2.944.679-1.287.667-2.908.667Z" transform="translate(2.194 2.138)" fill="#231815"/>
    <path id="パス_112" data-name="パス 112" d="M21.386,8.1c-.489-.953-1.6-1.514-1.954-2.538A3.3,3.3,0,0,1,19,3.849a5.959,5.959,0,0,1,.358-2.014,2.693,2.693,0,0,1,.25-.715C19.681,1,19.979.8,20,.691S19.61.262,19.372.2A6.888,6.888,0,0,0,17.81,0h-.465a6.984,6.984,0,0,0-1.49.191c-.238,0-.691.2-.632.489s.322.31.393.429a2.384,2.384,0,0,1,.25.715,6.245,6.245,0,0,1,.358,2.014,3.408,3.408,0,0,1-.405,1.716c-.369,1.025-1.478,1.585-1.954,2.538a10.368,10.368,0,0,0-1.084,5.017,11.918,11.918,0,0,1,1.823-.143h0a6.936,6.936,0,0,1,3.313.632.763.763,0,0,1,.393.608,26.493,26.493,0,0,1-.322,4.076c-.131.417-.5.644-1.025.834h.667c2.67,0,4.207-.632,4.409-1.347a20.51,20.51,0,0,0,.405-4.445A10.607,10.607,0,0,0,21.386,8.1Z" transform="translate(2.449)" fill="#231815"/>
  </g>
</svg>
