<svg xmlns="http://www.w3.org/2000/svg" width="160.1" height="26.782" viewBox="0 0 160.1 26.782">
  <path id="パス_3641" data-name="パス 3641" d="M13.477,14.79a6.19,6.19,0,0,1,1.881.286,5.005,5.005,0,0,1,1.6.837A4,4,0,0,1,18.06,17.27a4.115,4.115,0,0,1,.414,1.843,4.757,4.757,0,0,1-.6,2.284,6.255,6.255,0,0,1-1.985,2.13A11.246,11.246,0,0,1,12.221,25.1a23.313,23.313,0,0,1-5.659.614c-.076,0-.17,0-.269-.008a1.308,1.308,0,0,1-.3-.053.539.539,0,0,1-.241-.145.407.407,0,0,1-.1-.283.324.324,0,0,1,.021-.124.254.254,0,0,1,.086-.108.577.577,0,0,1,.184-.085,1.8,1.8,0,0,1,.315-.058c.082-.015.247-.037.453-.062l.7-.083.709-.083c.21-.025.38-.047.47-.062a14.067,14.067,0,0,0,4.095-1.283,6.222,6.222,0,0,0,2.1-1.681,4.181,4.181,0,0,0,.775-1.611,4.483,4.483,0,0,0,.111-1.071,5.077,5.077,0,0,0-.1-1.031,2.829,2.829,0,0,0-.367-.947,1.938,1.938,0,0,0-.754-.693,2.7,2.7,0,0,0-1.257-.269,4.312,4.312,0,0,0-1.836.445,6.913,6.913,0,0,0-1.654,1.126A8.614,8.614,0,0,0,8.4,19.039a6.417,6.417,0,0,0-.8,1.548c-.041.116-.082.235-.132.349a1.376,1.376,0,0,1-.183.315A.8.8,0,0,1,7,21.48a1.02,1.02,0,0,1-.441.088,1.325,1.325,0,0,1-.767-.244A2.025,2.025,0,0,1,5.2,20.65a3.712,3.712,0,0,1-.378-1.015,5.769,5.769,0,0,1-.133-1.266c0-.274.021-.674.056-1.167s.086-1.077.147-1.721.13-1.345.2-2.072.151-1.478.226-2.22q-.279.1-.564.173t-.574.135q-.289.058-.581.1t-.587.059A3.119,3.119,0,0,1,0,9.487a.294.294,0,0,1,.033-.143.235.235,0,0,1,.084-.088.358.358,0,0,1,.115-.044A.609.609,0,0,1,.357,9.2a.669.669,0,0,1,.3.088q.264.094.535.163t.547.112q.276.043.555.061t.559.009q.345,0,.687-.033t.68-.093q.338-.061.669-.153t.654-.212c.034-.5.064-.929.088-1.309s.044-.705.06-.99.027-.528.034-.742.011-.4.011-.564q.006-.143,0-.286t-.028-.284q-.021-.141-.055-.28t-.081-.274c-.076-.18-.134-.317-.179-.424s-.077-.184-.1-.245A.849.849,0,0,1,5.253,3.6a.753.753,0,0,1-.009-.132.718.718,0,0,1,.8-.721,2.662,2.662,0,0,1,.765.134,3.73,3.73,0,0,1,.827.375,2.438,2.438,0,0,1,.662.574,1.205,1.205,0,0,1,.271.733c0,.007-.05.223-.125.553s-.177.775-.28,1.238S7.954,7.3,7.871,7.7s-.142.735-.156.893q.113-.082.223-.168t.216-.176q.106-.09.209-.184t.2-.192a1.225,1.225,0,0,1,.988-.346,1.908,1.908,0,0,1,.549.082,1.77,1.77,0,0,1,.485.229,1.218,1.218,0,0,1,.345.347.812.812,0,0,1,.132.437A.732.732,0,0,1,11,8.963a1.232,1.232,0,0,1-.412.444,6.107,6.107,0,0,1-1.1.6c-.52.232-1.211.5-2.131.809-.027.23-.079.641-.141,1.144s-.134,1.1-.2,1.7-.134,1.2-.182,1.726-.079.959-.079,1.226a5.1,5.1,0,0,0,.021.515,1.345,1.345,0,0,0,.065.32.374.374,0,0,0,.111.169.3.3,0,0,0,.16.061c.733-.52,1.354-.961,1.908-1.329a13.757,13.757,0,0,1,1.51-.895,6.221,6.221,0,0,1,1.393-.5A6.929,6.929,0,0,1,13.477,14.79Zm16.577,9.235a1.231,1.231,0,0,1-.052.384.558.558,0,0,1-.142.235.506.506,0,0,1-.211.118.924.924,0,0,1-.259.032,1.459,1.459,0,0,1-1.122-.673q-.2-.3-.419-.573t-.47-.53q-.247-.254-.517-.483T26.3,22.1a3.137,3.137,0,0,1-.5,1.177,2.971,2.971,0,0,1-.863.806,3.873,3.873,0,0,1-1.129.464,5.482,5.482,0,0,1-1.3.148,4.106,4.106,0,0,1-.7-.064,3.337,3.337,0,0,1-.782-.233,1.725,1.725,0,0,1-.636-.462,1.157,1.157,0,0,1-.262-.753,1.656,1.656,0,0,1,.289-.92,2.635,2.635,0,0,1,.853-.783,4.857,4.857,0,0,1,1.4-.544,8.423,8.423,0,0,1,1.922-.2q.046,0,.093,0t.092.008q.046.006.091.016t.089.025c0-.2-.031-.607-.079-1.11s-.112-1.107-.178-1.714-.133-1.216-.187-1.732-.094-.936-.105-1.164c-.006-.1-.016-.289-.028-.53s-.026-.53-.041-.821-.028-.583-.041-.83-.022-.448-.028-.556a.776.776,0,0,0-.043-.184c-.026-.082-.06-.178-.094-.276s-.069-.2-.094-.281a.819.819,0,0,1-.043-.2.546.546,0,0,1,.549-.528,1.467,1.467,0,0,1,.439.077,1.9,1.9,0,0,1,.454.217,1.306,1.306,0,0,1,.355.334.746.746,0,0,1,.144.429c0,.06-.007.183-.018.338s-.025.342-.039.53-.028.376-.039.534-.018.286-.018.352q0,.31.008.62t.025.619q.017.31.043.619t.06.617c.063.624.117,1.172.164,1.66s.085.916.116,1.3.056.725.073,1.038.029.6.034.875a9.951,9.951,0,0,1,1.663.746,6.588,6.588,0,0,1,1.155.823,3.593,3.593,0,0,1,.674.79A1.317,1.317,0,0,1,30.054,24.025ZM24.176,21.43a4.435,4.435,0,0,0-.82.084,4.18,4.18,0,0,0-.868.262,2.078,2.078,0,0,0-.687.456.956.956,0,0,0-.28.664.5.5,0,0,0,.158.375.891.891,0,0,0,.364.192,2.051,2.051,0,0,0,.406.071c.124.01.229.01.286.01a1.959,1.959,0,0,0,2.2-1.922,1.273,1.273,0,0,0-.757-.192Zm3.249-6.1a1.094,1.094,0,0,1-.371-.09,2.477,2.477,0,0,1-.438-.229,1.754,1.754,0,0,1-.366-.31.54.54,0,0,1-.153-.332.286.286,0,0,1,.033-.152.188.188,0,0,1,.11-.078.827.827,0,0,1,.2-.029c.086,0,.19,0,.316,0q.113-.005.225-.022t.221-.044q.109-.027.216-.065t.209-.086q.133-.078.271-.144t.282-.12q.143-.054.291-.1t.3-.071a.86.86,0,0,1,.305.071,1.551,1.551,0,0,1,.338.19,1.182,1.182,0,0,1,.273.276.512.512,0,0,1-.2.79,2.65,2.65,0,0,1-.711.313,6.091,6.091,0,0,1-.8.178,4.139,4.139,0,0,1-.565.056Zm17.068-1.315a.483.483,0,0,1,.439.464,3.826,3.826,0,0,1-.065.507c-.039.229-.092.5-.147.779s-.111.552-.157.785-.082.422-.095.523q-.06.538-.1,1.078T44.3,19.23q-.024.541-.03,1.082t.006,1.083a1.038,1.038,0,0,1-.177.595,1.32,1.32,0,0,1-.458.4,2.306,2.306,0,0,1-.628.229,3.235,3.235,0,0,1-.686.073,4.562,4.562,0,0,1-1.614-.36A6.887,6.887,0,0,1,38.52,20.9a9.455,9.455,0,0,1-2.074-3.055,16.833,16.833,0,0,1-1.259-5.208c-.014-.159-.025-.49-.036-.9s-.02-.906-.029-1.389-.016-.955-.024-1.324-.014-.636-.021-.708a1.679,1.679,0,0,0-.067-.2c-.035-.093-.079-.206-.122-.32s-.085-.228-.116-.325a.9.9,0,0,1-.052-.22.636.636,0,0,1,.077-.325.487.487,0,0,1,.19-.183.77.77,0,0,1,.242-.08,1.386,1.386,0,0,1,.233-.018,2.016,2.016,0,0,1,.748.175A3.438,3.438,0,0,1,37,7.277a2.768,2.768,0,0,1,.624.673,1.488,1.488,0,0,1,.254.792q0,.141-.005.282t-.02.282q-.014.14-.035.28t-.049.278q-.057.365-.1.731t-.075.734q-.031.368-.049.736t-.022.738a11.745,11.745,0,0,0,.52,3.691,6.184,6.184,0,0,0,1.187,2.161,4.19,4.19,0,0,0,1.295,1.016,2.191,2.191,0,0,0,.843.253.851.851,0,0,0,.471-.125,1.121,1.121,0,0,0,.347-.379,3.965,3.965,0,0,0,.3-.638c.1-.257.2-.557.316-.9.048-.137.14-.416.254-.761s.248-.756.38-1.156.262-.789.365-1.091.181-.517.208-.568a.564.564,0,0,1,.489-.292Zm10.324,3.345a1,1,0,0,1-.851-.464q-.064-.12-.122-.243t-.11-.249q-.052-.126-.1-.254t-.084-.259A10.169,10.169,0,0,0,52.1,13.3a6.271,6.271,0,0,0-1.564-1.423,5.242,5.242,0,0,0-1.42-.623,6.648,6.648,0,0,0-1.024-.185c-.357-.043-.627-.075-.833-.1a3.589,3.589,0,0,1-.442-.08.3.3,0,0,1-.175-.1.258.258,0,0,1-.031-.153c0-.094.093-.184.248-.266a2.907,2.907,0,0,1,.626-.22,7.006,7.006,0,0,1,.827-.149,7.139,7.139,0,0,1,.851-.055,7.551,7.551,0,0,1,2.993.61,7.753,7.753,0,0,1,2.275,1.5,7.2,7.2,0,0,1,1.446,1.9,4.1,4.1,0,0,1,.507,1.81,1.648,1.648,0,0,1-1.566,1.58ZM71.7,6.375a.865.865,0,0,1-.17.5,1.615,1.615,0,0,1-.41.392,2.265,2.265,0,0,1-.5.256,1.337,1.337,0,0,1-.432.092,1.491,1.491,0,0,1-.711-.288,7.531,7.531,0,0,1-.9-.7c-.309-.276-.618-.579-.9-.87s-.525-.568-.711-.792c-.638.483-1.345.985-2.084,1.465s-1.51.939-2.277,1.337a15.568,15.568,0,0,1-2.252.974,6.567,6.567,0,0,1-2.008.377c-.034,0-.08,0-.13,0a.847.847,0,0,1-.153-.022.313.313,0,0,1-.127-.06.148.148,0,0,1-.053-.117.237.237,0,0,1,.084-.135,1.691,1.691,0,0,1,.195-.162c.074-.054.152-.106.22-.15s.127-.08.161-.1q.985-.581,1.923-1.23T62.3,5.767q.888-.715,1.722-1.495t1.611-1.618a1.526,1.526,0,0,1,1.043-.49,1.587,1.587,0,0,1,.5.089,1.822,1.822,0,0,1,.49.254,1.378,1.378,0,0,1,.372.4,1.018,1.018,0,0,1,.147.526.447.447,0,0,1-.138.348,4.155,4.155,0,0,0,.4.393,4.465,4.465,0,0,0,.516.371c.216.137.489.3.855.5s.826.458,1.416.782c.04.021.089.046.14.076a.957.957,0,0,1,.151.109.546.546,0,0,1,.121.153.442.442,0,0,1,.05.207Zm-6.781,3.4q0-.173,0-.347t-.009-.346q-.007-.173-.018-.346t-.027-.346c-.116-.072-.207-.128-.277-.174a1.346,1.346,0,0,1-.157-.114.248.248,0,0,1-.07-.092.285.285,0,0,1-.016-.109.715.715,0,0,1,.2-.435,2.4,2.4,0,0,1,.491-.42,3.284,3.284,0,0,1,.6-.317,1.574,1.574,0,0,1,.541-.126,1.263,1.263,0,0,1,.313.045,1.39,1.39,0,0,1,.342.14.873.873,0,0,1,.275.242.6.6,0,0,1,.113.352,1.119,1.119,0,0,1-.013.131c-.008.055-.018.12-.028.183s-.021.125-.028.177a1,1,0,0,0-.013.115q-.032.222-.056.445t-.042.447q-.017.224-.027.448T67,9.778h.851A1.2,1.2,0,0,1,68.9,9.2a1.306,1.306,0,0,1,1.263,1.211.749.749,0,0,1-.013.092c-.008.044-.018.1-.029.149s-.021.1-.029.145-.013.07-.013.078q-.026.121-.044.243t-.028.245q-.01.123-.013.246t0,.247c0,.18.01.508.026.908s.036.873.057,1.343.041.938.057,1.327.026.7.026.86a.708.708,0,0,1-.189.485,1.3,1.3,0,0,1-.46.309,2.63,2.63,0,0,1-.568.163,3.037,3.037,0,0,1-.514.048,1,1,0,0,1-.381-.06.4.4,0,0,1-.2-.16.559.559,0,0,1-.072-.23,2.309,2.309,0,0,1-.01-.271H63.736V22c.089-.021.259-.056.469-.1s.459-.086.708-.131l.7-.126.453-.08q.214-.042.425-.092t.421-.108q.21-.058.417-.124t.412-.14q-.138-.277-.292-.546t-.322-.529q-.168-.26-.351-.51t-.38-.489l-.277-.36c-.071-.092-.121-.159-.157-.209a.75.75,0,0,1-.07-.112.153.153,0,0,1-.016-.069.211.211,0,0,1,.024-.1.154.154,0,0,1,.062-.06.272.272,0,0,1,.088-.028.639.639,0,0,1,.1-.007,3.294,3.294,0,0,1,1.044.3,8.656,8.656,0,0,1,1.52.839A5.894,5.894,0,0,1,70.086,20.5a2.719,2.719,0,0,1,.6,1.617A1.127,1.127,0,0,1,69.556,23.3a1.216,1.216,0,0,1-.534-.11,1.052,1.052,0,0,1-.364-.294,1.942,1.942,0,0,1-.251-.424c-.071-.157-.133-.327-.195-.5-1.29.577-2.4,1.031-3.349,1.388s-1.729.616-2.358.8-1.108.3-1.447.371a3.913,3.913,0,0,1-.615.09,1.765,1.765,0,0,1-.482-.071,1.689,1.689,0,0,1-.472-.216,1.184,1.184,0,0,1-.359-.368,1,1,0,0,1-.143-.525A.948.948,0,0,1,59.2,22.8a1.285,1.285,0,0,1,.575-.355,4.024,4.024,0,0,1,.817-.166c.3-.035.62-.055.943-.077.007-.231.016-.474.025-.746s.019-.573.027-.919.016-.737.022-1.189.009-.965.009-1.556c0-.432,0-.965,0-1.545s-.007-1.207-.012-1.827-.011-1.233-.017-1.785-.013-1.042-.02-1.418c-.083-.051-.151-.094-.208-.133a.977.977,0,0,1-.135-.109.33.33,0,0,1-.073-.1.3.3,0,0,1-.022-.119.966.966,0,0,1,.2-.528,2.628,2.628,0,0,1,.491-.514,3.145,3.145,0,0,1,.6-.389,1.332,1.332,0,0,1,.54-.154.8.8,0,0,1,.8.606Zm2.912,1.065H63.738v1.73H67.83Zm.026,2.855H63.736v1.758h4.117Zm14.717,9.859c.069.058.218.157.4.277s.406.259.619.4.417.276.567.392.249.21.249.26c0,.094-.177.216-.449.347a9.311,9.311,0,0,1-1.023.4c-.383.128-.78.244-1.11.328a3.911,3.911,0,0,1-.711.136,1.3,1.3,0,0,1-.695-.275,4.805,4.805,0,0,1-.785-.713,10.026,10.026,0,0,1-.78-.983,12.157,12.157,0,0,1-.68-1.085,12.668,12.668,0,0,1-.824-1.8,14.844,14.844,0,0,1-.544-1.87c-.143-.636-.25-1.286-.334-1.951s-.144-1.347-.192-2.046q0,.4-.018.806t-.061.8q-.041.4-.1.8t-.146.792a8.3,8.3,0,0,1-5.381,6.461q-.49.2-.992.371t-1.015.3q-.513.13-1.034.221t-1.049.145c-.027,0-.06,0-.093,0a.352.352,0,0,1-.1-.022.17.17,0,0,1-.078-.059.2.2,0,0,1-.032-.115.212.212,0,0,1,.026-.114.333.333,0,0,1,.118-.106,2.176,2.176,0,0,1,.273-.133c.124-.053.283-.116.489-.195a13.736,13.736,0,0,0,3.714-2.1,8.043,8.043,0,0,0,2.157-2.744,12.248,12.248,0,0,0,1.02-3.631,38.679,38.679,0,0,0,.3-4.76c-.076-.086-.136-.155-.183-.211a1.5,1.5,0,0,1-.109-.141.391.391,0,0,1-.052-.109.411.411,0,0,1-.013-.114,2.143,2.143,0,0,1,1.9-1.613,1.63,1.63,0,0,1,.3.03,1.46,1.46,0,0,1,.384.128.889.889,0,0,1,.332.279.825.825,0,0,1,.141.484q0,.117-.018.233t-.034.231q-.021.115-.05.228t-.065.225a19.464,19.464,0,0,0,.92,4.555,17,17,0,0,0,1.581,3.431,15.889,15.889,0,0,0,1.772,2.393,14.353,14.353,0,0,0,1.493,1.441Zm-8.6-14.532a9.318,9.318,0,0,1-.685,1.138c-.285.415-.614.846-.945,1.237a9.008,9.008,0,0,1-.961.994,1.4,1.4,0,0,1-.731.408.309.309,0,0,1-.081-.011.232.232,0,0,1-.071-.032.161.161,0,0,1-.05-.054.154.154,0,0,1-.019-.076c0-.007.084-.209.214-.518s.3-.724.487-1.158.371-.887.528-1.272.282-.7.337-.858q.287-.735.522-1.487t.418-1.518q.183-.766.312-1.543t.2-1.563a1.221,1.221,0,0,1,1.373-1.181,1.391,1.391,0,0,1,1.454,1.327,4.214,4.214,0,0,1-.144.9c-.091.373-.22.807-.371,1.262s-.324.934-.5,1.4-.367.913-.546,1.31h5a1.913,1.913,0,0,1,1.51-.893,1.483,1.483,0,0,1,1.538,1.529,2.978,2.978,0,0,1-.22.882c-.135.366-.318.785-.513,1.2s-.4.819-.586,1.16-.34.616-.437.767c-.041.058-.094.136-.158.219a2.531,2.531,0,0,1-.22.257,1.265,1.265,0,0,1-.271.213.638.638,0,0,1-.312.089.5.5,0,0,1-.286-.076.411.411,0,0,1-.147-.181.748.748,0,0,1-.054-.219,1.717,1.717,0,0,1-.008-.188c0-.058.007-.269.017-.561s.024-.666.038-1.05.027-.777.038-1.109.017-.6.017-.739Zm30.477,9.456a1.843,1.843,0,0,1,.876.39,2.777,2.777,0,0,1,.616.7,3.642,3.642,0,0,1,.364.769,2.021,2.021,0,0,1,.12.586.568.568,0,0,1-.122.346,1.007,1.007,0,0,1-.3.253,1.6,1.6,0,0,1-.368.156,1.278,1.278,0,0,1-.337.053,1.405,1.405,0,0,1-.327-.033,1.7,1.7,0,0,1-.386-.147,5.081,5.081,0,0,1-.545-.331c-.219-.149-.481-.34-.8-.585-.144-.108-.3-.222-.487-.345s-.385-.255-.613-.4-.481-.305-.763-.482l-.935-.588a10.259,10.259,0,0,1-7.168,6.829q-.263.084-.531.147t-.539.107q-.271.044-.546.067t-.55.026a1.5,1.5,0,0,1-.286-.026.928.928,0,0,1-.226-.072.44.44,0,0,1-.149-.11.217.217,0,0,1-.054-.14c0-.029.036-.065.093-.1a1.8,1.8,0,0,1,.222-.123c.086-.041.179-.082.264-.117s.162-.066.217-.087a10.76,10.76,0,0,0,7.028-7.352c-.357-.144-.785-.319-1.265-.5s-1.013-.359-1.581-.516a13.1,13.1,0,0,0-1.792-.369,9.143,9.143,0,0,0-1.9-.058c-.638,1.167-1.153,2.077-1.6,2.785A8.989,8.989,0,0,1,88.9,20.791a2.684,2.684,0,0,1-1.1.7,4.338,4.338,0,0,1-1.336.159,3.956,3.956,0,0,1-1.019-.126,2.638,2.638,0,0,1-.849-.386,1.856,1.856,0,0,1-.581-.656,2,2,0,0,1-.215-.937,2.419,2.419,0,0,1,.332-1.157,4.311,4.311,0,0,1,1.088-1.246,7.515,7.515,0,0,1,1.983-1.111,13.3,13.3,0,0,1,3.017-.751c.357-.692.764-1.51,1.173-2.365s.821-1.747,1.189-2.587.69-1.627.921-2.273a5.331,5.331,0,0,0,.37-1.424.384.384,0,0,0-.007-.08.153.153,0,0,0-.028-.063.13.13,0,0,0-.059-.042.286.286,0,0,0-.1-.015,2.491,2.491,0,0,0-.79.248c-.342.149-.742.347-1.142.545s-.8.4-1.137.545a2.46,2.46,0,0,1-.775.248,2.031,2.031,0,0,1-1.977-1.846.579.579,0,0,1,.029-.2.3.3,0,0,1,.081-.124.307.307,0,0,1,.123-.065.563.563,0,0,1,.153-.019c.055,0,.155.009.276.023s.265.032.407.05.284.036.4.05.213.023.261.023q.6-.033,1.2-.121t1.183-.229q.586-.141,1.157-.335t1.124-.439c.254-.137.448-.241.6-.321s.269-.135.365-.173a1.084,1.084,0,0,1,.252-.07,1.838,1.838,0,0,1,.263-.013,1.558,1.558,0,0,1,1.619,1.442,1.189,1.189,0,0,1-.017.227.89.89,0,0,1-.076.221A3.276,3.276,0,0,1,97.1,6.4c-.079.126-.18.282-.31.483Q95.843,8.4,95.1,9.68c-.5.852-.933,1.625-1.312,2.317s-.7,1.3-.978,1.831-.5.974-.687,1.335q.85.015,1.694.1t1.678.235q.833.152,1.653.371t1.62.506c0-.029.012-.146.03-.306s.042-.363.066-.563.048-.4.066-.547.03-.251.03-.258a1.03,1.03,0,0,0-.112-.46q-.085-.118-.164-.241t-.151-.249q-.072-.126-.137-.257t-.124-.264a.322.322,0,0,1,.1-.227.746.746,0,0,1,.255-.162,1.663,1.663,0,0,1,.352-.1,2.37,2.37,0,0,1,.391-.032,2.017,2.017,0,0,1,2.17,2.076q-.01.3-.04.6t-.077.594q-.048.3-.115.588t-.152.58q.389.217.791.41t.814.359q.413.167.835.307t.854.255Zm-18.425.89a.555.555,0,0,0,.109.35.59.59,0,0,0,.246.18,1.018,1.018,0,0,0,.262.066,1.256,1.256,0,0,0,.157.009,1.552,1.552,0,0,0,.973-.4,4.539,4.539,0,0,0,.839-.969,11.05,11.05,0,0,0,.674-1.169c.194-.382.355-.737.478-1a8.6,8.6,0,0,0-1.652.584,5.388,5.388,0,0,0-1.166.745,3.064,3.064,0,0,0-.692.815A1.642,1.642,0,0,0,86.027,19.372ZM121.579,16c1.036-.008,1.911-.015,2.668-.022s1.4-.015,1.958-.022l1.505-.022,1.309-.022a2.256,2.256,0,0,1,1.757-1.354,2.32,2.32,0,0,1,1.921,1.9.794.794,0,0,1-.129.457.828.828,0,0,1-.324.272,1.538,1.538,0,0,1-.426.132,2.635,2.635,0,0,1-.436.034h-9.774c0,.18,0,.53.009.965s.012.955.019,1.478.014,1.046.019,1.489.009.8.009,1a9.787,9.787,0,0,1-.085,1.36,5.211,5.211,0,0,1-.412,1.474,2.847,2.847,0,0,1-.973,1.182,3.08,3.08,0,0,1-1.769.484,3.783,3.783,0,0,1-1.438-.3,5.408,5.408,0,0,1-1.173-.676,7,7,0,0,1-.828-.731,5.509,5.509,0,0,1-.4-.461.112.112,0,0,1,.018-.066.1.1,0,0,1,.044-.034.2.2,0,0,1,.055-.013c.018,0,.035,0,.049,0,.082,0,.238.015.431.036s.424.051.655.08.464.058.661.08.358.036.447.036a2.423,2.423,0,0,0,1.157-.241,1.513,1.513,0,0,0,.645-.674,3.134,3.134,0,0,0,.28-1.031,10.981,10.981,0,0,0,.061-1.313v-4.12h-6.807q-.158,0-.316,0t-.316.008q-.158.007-.316.019t-.315.03q-.244.067-.49.128t-.493.115q-.247.054-.5.1t-.5.089a1.1,1.1,0,0,1-.32-.044.706.706,0,0,1-.252-.133.6.6,0,0,1-.165-.225.81.81,0,0,1-.059-.319,1.4,1.4,0,0,1,.076-.43,1.671,1.671,0,0,1,.223-.441,1.241,1.241,0,0,1,.361-.344.939.939,0,0,1,.493-.139c.041,0,.121.007.222.018s.222.026.343.042l.349.048.239.034c.089.007.261.013.475.017s.47.007.729.008l.745,0h.521c.22,0,.651,0,1.188.009l1.829.02,1.844.02c.548.006.994.009,1.235.009l.027-4.383h-4.585q-.193-.007-.386,0t-.385.013q-.192.011-.384.031t-.383.048c-.061.007-.183.032-.335.065l-.518.117c-.184.041-.368.082-.524.112a2.3,2.3,0,0,1-.351.05,1.119,1.119,0,0,1-.3-.039.787.787,0,0,1-.255-.12.58.58,0,0,1-.177-.206.648.648,0,0,1-.067-.3,1.58,1.58,0,0,1,.071-.448,1.749,1.749,0,0,1,.208-.45,1.2,1.2,0,0,1,.336-.347.818.818,0,0,1,.455-.139,2.371,2.371,0,0,1,.26.027c.118.017.259.039.4.063l.407.068c.121.02.221.036.277.043.2.015.365.025.541.034s.36.014.6.017.521.005.9.006h4.17c0-.367,0-.686-.006-.982s-.01-.567-.018-.841-.02-.549-.034-.852-.032-.632-.053-1.014q-.4.041-.8.07t-.8.047q-.4.018-.8.024t-.8,0c-.192,0-.625,0-1.165-.014s-1.189-.042-1.814-.1a9.766,9.766,0,0,1-1.67-.265c-.444-.126-.733-.293-.733-.517a.208.208,0,0,1,.08-.167.48.48,0,0,1,.191-.086,1.307,1.307,0,0,1,.227-.032c.073,0,.14,0,.188,0,.165,0,.384-.009.633-.023s.528-.034.811-.056l.837-.066c.266-.022.512-.041.711-.056,1.5-.137,2.788-.307,3.911-.495s2.078-.4,2.9-.608,1.511-.431,2.1-.641,1.086-.412,1.519-.592a1.609,1.609,0,0,1,1.426-.951,1.873,1.873,0,0,1,.593.109,2.394,2.394,0,0,1,.609.312,1.772,1.772,0,0,1,.475.49,1.2,1.2,0,0,1,.191.644,1.141,1.141,0,0,1-.124.529,1.346,1.346,0,0,1-.315.394,2.3,2.3,0,0,1-.418.285,4.649,4.649,0,0,1-.433.2q-.594.222-1.2.416t-1.215.36q-.611.166-1.23.3t-1.243.248c-.014.519-.025.944-.033,1.309s-.015.672-.02.953-.01.537-.014.8-.01.538-.017.855l.873,0,1.36-.01,1.376-.01.92,0a2.174,2.174,0,0,1,1.731-1.3,2.083,2.083,0,0,1,1.839,1.816.678.678,0,0,1-.172.471.965.965,0,0,1-.4.249,2.005,2.005,0,0,1-.45.1,3,3,0,0,1-.326.017h-6.753Zm22.183-9.111a1.923,1.923,0,0,0-1.511.866h-1.256c0-.411,0-.788.011-1.149s.019-.709.034-1.06.036-.707.06-1.087.054-.784.088-1.23c.007-.036.017-.106.028-.193s.024-.192.036-.3.023-.209.031-.3.013-.157.013-.193a.984.984,0,0,0-.062-.362.657.657,0,0,0-.185-.262.815.815,0,0,0-.308-.159,1.561,1.561,0,0,0-.432-.054,1.591,1.591,0,0,0-.648.181,3.749,3.749,0,0,0-.7.447,3.2,3.2,0,0,0-.562.565.977.977,0,0,0-.23.538.515.515,0,0,0,.077.2c.046.084.107.181.169.278s.123.195.169.278a.515.515,0,0,1,.077.2c.015.116.029.369.042.691s.025.714.036,1.109.019.792.025,1.125.009.6.009.738h-1.266a.771.771,0,0,0-.193-.383.82.82,0,0,0-.3-.2,1.23,1.23,0,0,0-.3-.073,1.6,1.6,0,0,0-.193-.01,1.2,1.2,0,0,0-.526.161,3.049,3.049,0,0,0-.566.394,2.79,2.79,0,0,0-.452.491.864.864,0,0,0-.185.452.36.36,0,0,0,.008.089.255.255,0,0,0,.036.078c.019.029.045.063.082.111s.084.107.146.187a.736.736,0,0,1,.1.145.588.588,0,0,1,.05.151,1.213,1.213,0,0,1,.018.183c0,.07,0,.149,0,.243,0,.065,0,.236,0,.479s0,.56-.009.915-.013.749-.025,1.148-.028.8-.049,1.178c-.006.223-.028.629-.057,1.123s-.066,1.078-.1,1.658-.071,1.156-.1,1.636-.044.863-.044,1.057a.805.805,0,0,0,.823.835,1.633,1.633,0,0,0,.968-.269,1.447,1.447,0,0,0,.5-.649,2.838,2.838,0,0,0,.183-.8,7.018,7.018,0,0,0,.026-.706c0-.123.007-.68.017-1.45s.024-1.754.038-2.731.028-1.946.038-2.687.017-1.255.017-1.32c.006-.021.013-.05.022-.081a.54.54,0,0,1,.035-.095.227.227,0,0,1,.062-.079.159.159,0,0,1,.1-.033h1.1c-.007.533-.014,1.263-.022,2.123s-.019,1.85-.033,2.9-.031,2.172-.054,3.287-.05,2.229-.085,3.273c-.007.2-.024.57-.046,1.019s-.048.979-.074,1.5-.051,1.049-.069,1.483-.031.78-.031.952a1.611,1.611,0,0,0,.057.448.91.91,0,0,0,.173.336.744.744,0,0,0,.292.211,1.082,1.082,0,0,0,.413.073,1.666,1.666,0,0,0,1-.286,1.552,1.552,0,0,0,.513-.665,2.721,2.721,0,0,0,.189-.751,4.572,4.572,0,0,0,.027-.546c0-.3,0-.751,0-1.276s-.008-1.126-.013-1.733-.011-1.221-.018-1.771-.013-1.037-.02-1.39a3.094,3.094,0,0,0,2.115,1.269,1.668,1.668,0,0,0,.952-.245,1.323,1.323,0,0,0,.489-.637,3.111,3.111,0,0,0,.18-.881c.026-.318.026-.651.026-.976,0-.288-.005-.827-.013-1.489s-.018-1.447-.028-2.229-.02-1.56-.028-2.207-.013-1.164-.013-1.423a2.3,2.3,0,0,1,.164-.981A1.017,1.017,0,0,0,143.764,6.9Zm-1.264,9.2c0,.209,0,.42-.017.618a2.321,2.321,0,0,1-.1.546.825.825,0,0,1-.246.389.7.7,0,0,1-.464.148q-.091,0-.181-.013t-.18-.024q-.089-.014-.178-.034t-.176-.044c-.007-.346-.01-.989-.012-1.779s0-1.726,0-2.657,0-1.858.007-2.63,0-1.387,0-1.7h1.509c0,.072,0,.2,0,.359s.006.344.01.53.007.37.01.525,0,.279,0,.344ZM157.68,6.947a1.662,1.662,0,0,0-1.374,1.1h-4.254c.007-.209.024-.621.046-1.127s.048-1.1.074-1.687.05-1.147.069-1.584.03-.748.03-.82a2.055,2.055,0,0,0-.023-.332,1.1,1.1,0,0,0-.124-.368.764.764,0,0,0-.3-.3,1.164,1.164,0,0,0-.563-.123,2.184,2.184,0,0,0-.719.147,3.609,3.609,0,0,0-.753.382,2.577,2.577,0,0,0-.594.528.975.975,0,0,0-.241.585.435.435,0,0,0,.019.136.443.443,0,0,0,.068.127,1.482,1.482,0,0,0,.135.154c.058.06.13.13.22.216a.59.59,0,0,1,.11.157.716.716,0,0,1,.057.208,2.836,2.836,0,0,1,.021.321c0,.133,0,.3,0,.5,0,.288.005.822.013,1.475s.018,1.427.029,2.2.021,1.534.029,2.169.013,1.141.013,1.393c0,.159,0,.337,0,.532s.006.407.009.632.007.464.009.713,0,.508,0,.774h-1.315a.98.98,0,0,0-.987-.69,1.44,1.44,0,0,0-.573.146,2.718,2.718,0,0,0-.591.373,2.3,2.3,0,0,0-.462.5,1.007,1.007,0,0,0-.187.535.671.671,0,0,0,.357.548c.027.281.031.892.02,1.663s-.034,1.7-.061,2.619-.058,1.827-.082,2.554-.041,1.273-.041,1.467a3.729,3.729,0,0,0,.014.387,1.125,1.125,0,0,0,.1.373.627.627,0,0,0,.261.281,1.021,1.021,0,0,0,.508.111,1.515,1.515,0,0,0,.5-.1,2.537,2.537,0,0,0,.539-.277,1.813,1.813,0,0,0,.431-.4.778.778,0,0,0,.176-.46V23.264h5.819c-.006.3-.013.546,0,.755a1.293,1.293,0,0,0,.109.51.585.585,0,0,0,.33.288,1.871,1.871,0,0,0,.662.091,2.32,2.32,0,0,0,.632-.083,1.606,1.606,0,0,0,.534-.259,1.235,1.235,0,0,0,.37-.449,1.48,1.48,0,0,0,.138-.652c0-.266-.012-.769-.03-1.388s-.042-1.355-.067-2.089-.049-1.464-.067-2.073-.03-1.1-.03-1.34a1.7,1.7,0,0,1,.026-.219c.016-.1.037-.211.057-.325s.042-.226.057-.319a1.617,1.617,0,0,0,.026-.2,1.276,1.276,0,0,0-1.319-1.238,1.684,1.684,0,0,0-1.372.778h-2.225c.007-.8.014-1.474.021-2.055s.014-1.072.021-1.5.014-.807.021-1.159.014-.679.022-1.018h6.038a2.514,2.514,0,0,0,.384-.028,1.518,1.518,0,0,0,.393-.112.773.773,0,0,0,.306-.236.654.654,0,0,0,.123-.4,1.767,1.767,0,0,0-1.59-1.59Zm-5.316,9.427a2.6,2.6,0,0,1,1.574.774v-.011l0-.011,0-.01,0-.01.007.015.006.015.006.015.005.015.015.019.016.018.015.019a.2.2,0,0,1,.014.022c.016.193.023.383.025.572s0,.376-.006.566-.011.38-.016.574-.007.392,0,.6a2.849,2.849,0,0,0,0,.3c0,.1.006.209,0,.315a1.22,1.22,0,0,1-.053.312.82.82,0,0,1-.163.29,2.144,2.144,0,0,1-.842.57s0,.009,0,.014,0,.009,0,.014,0,.009,0,.014l0,.014a.629.629,0,0,1-.028.127.627.627,0,0,1-.054.118.841.841,0,0,1-.348.327q-.1.05-.211.09t-.218.07q-.11.03-.223.05t-.227.029l-.1.009-.064.006-.065,0-.067,0-.067,0-.131-.006-.121-.008-.113-.009-.1-.011a.328.328,0,0,0-.063,0c-.018,0-.033,0-.048.005a.382.382,0,0,1-.047,0,.286.286,0,0,1-.06-.006c0,.019-.019.028-.046.029a.352.352,0,0,1-.1-.017.977.977,0,0,1-.121-.044.81.81,0,0,1-.1-.053.079.079,0,0,0-.012.012l-.011.014a.076.076,0,0,1-.014.013.069.069,0,0,1-.02.01l-.015-.008-.02-.012-.021-.011-.017-.007-.037-.006-.037-.008-.037-.009-.036-.011a.863.863,0,0,1-.435-.421h.035l-.02-.032a.055.055,0,0,0,.023.005.011.011,0,0,0,.011-.008.039.039,0,0,0,0-.023.231.231,0,0,0-.021-.04l.02,0,.02,0h.015s.006,0,.006-.006,0-.02-.007-.032l-.01-.036-.01-.037c0-.012-.006-.024-.008-.034a1.876,1.876,0,0,1-.972-.963q-.012-.03-.023-.061t-.021-.062q-.01-.031-.018-.062t-.015-.063c-.009-.064-.015-.123-.019-.181s-.007-.113-.009-.167,0-.108-.006-.163-.005-.11-.011-.169c0-.1-.009-.208-.014-.311s-.01-.2-.015-.3-.01-.195-.016-.286-.01-.179-.015-.261c0-.062-.008-.112-.014-.155s-.012-.08-.018-.117-.012-.073-.016-.115-.008-.09-.009-.15c-.01,0-.018-.008-.026-.023a.27.27,0,0,1-.018-.069,1.126,1.126,0,0,1-.011-.114q0-.068,0-.158a.869.869,0,0,1,.357-.627.088.088,0,0,0,0-.026c0-.008,0-.015,0-.023a.084.084,0,0,1,.008-.028.211.211,0,0,1,.027-.04l.04-.026.054-.031.056-.032.044-.027.077-.049.079-.046.081-.043.082-.04q.159-.059.322-.1t.33-.071q.166-.028.335-.04t.338-.008l-.036.033h.025l.025,0h.028a.112.112,0,0,0-.034.019c-.006.006-.005.011,0,.014a.132.132,0,0,0,.046.007.94.94,0,0,0,.1,0,.181.181,0,0,1-.026.018l-.028.016a.059.059,0,0,0-.017.013s0,.007.007.009c.032,0,.074.007.119.008l.137,0,.116,0a.151.151,0,0,1,.058.01l0,.005,0,.006a.03.03,0,0,1,0,.006.03.03,0,0,1,0,.012l0,.006,0,.005,0,0h0a10.171,10.171,0,0,1,1.272.12,4.736,4.736,0,0,1,.834.208,2.1,2.1,0,0,1,.49.243.965.965,0,0,1,.238.227,1.415,1.415,0,0,0-.586-.486q-.272-.093-.549-.169t-.558-.135q-.281-.059-.565-.1t-.571-.067l.239-.016q.136.01.273.023t.272.031q.136.018.271.039t.27.047Zm5.772-12.446a1.97,1.97,0,1,1,.762-.156,1.958,1.958,0,0,1-.762.156Zm0-3.713a1.748,1.748,0,1,0,.678.138,1.741,1.741,0,0,0-.678-.138Zm.946,2.807h-.324q-.04-.121-.075-.221t-.064-.18q-.029-.08-.052-.139t-.041-.1a.515.515,0,0,0-.213-.254q-.041-.014-.083-.024t-.084-.015q-.042-.006-.085-.007t-.086,0h-.254q0,.135,0,.261t0,.243q0,.117.006.225t.009.206h-.309q.006-.13.011-.267t.007-.281q0-.144,0-.294t0-.308q0-.148,0-.287t0-.269q0-.13-.007-.251t-.011-.233h.322l.05,0,.055,0,.06,0h.206a1.448,1.448,0,0,1,.322.032.663.663,0,0,1,.23.1.4.4,0,0,1,.138.159.506.506,0,0,1,.046.222.6.6,0,0,1-.413.593v.017a.51.51,0,0,1,.3.258q.048.1.093.2t.087.206q.042.1.08.208t.074.211Zm-.516-1.577a.423.423,0,0,0-.034-.175.314.314,0,0,0-.1-.125.471.471,0,0,0-.169-.075,1,1,0,0,0-.237-.025h-.081l-.081,0-.081.007-.081.01q0,.073.005.159t0,.186q0,.1,0,.212t0,.239h.193a1.4,1.4,0,0,0,.289-.025.62.62,0,0,0,.206-.078.342.342,0,0,0,.124-.131A.39.39,0,0,0,158.567,1.445Z" fill="#fff"/>
</svg>
