<svg xmlns="http://www.w3.org/2000/svg" width="205.16" height="30.125" viewBox="0 0 205.16 30.125">
  <g id="h2-about" transform="translate(12.649 0.144)">
    <path id="パス_1" data-name="パス 1" d="M22.994,16.613c2.607,0,4.994,1.555,4.994,4.321,0,2.968-2.908,6.6-11.9,6.6-.3,0-.907,0-.907-.489,0-.175.083-.318.605-.375.329-.06,1.975-.232,2.333-.291,7.078-1.237,7.078-4.783,7.078-5.643,0-1.354-.412-2.938-2.474-2.938-2.5,0-4.938,2.65-5.6,4.61-.164.464-.329.98-1.041.98-1.126,0-1.866-1.382-1.866-3.2,0-1.1.33-4.208.632-7.175a8.908,8.908,0,0,1-2.305.464,3.118,3.118,0,0,1-3.015-2.165c0-.232.192-.287.357-.287a.669.669,0,0,1,.3.088,6.005,6.005,0,0,0,2.195.344,7.764,7.764,0,0,0,2.689-.489c.138-1.987.192-2.938.192-3.6a3.021,3.021,0,0,0-.165-1.124c-.3-.719-.329-.748-.329-.949a.717.717,0,0,1,.8-.72c.878,0,2.525.75,2.525,1.815,0,.028-.8,3.4-.85,4.033a7.224,7.224,0,0,0,.85-.72,1.224,1.224,0,0,1,.987-.346c.741,0,1.51.464,1.51,1.095,0,.4-.028.951-3.7,2.19-.11.921-.6,4.726-.6,5.791,0,.835.111,1.036.357,1.065C19.564,17.417,20.689,16.613,22.994,16.613Zm16.567,9.229c0,.625-.3.769-.663.769a1.459,1.459,0,0,1-1.121-.673A7.52,7.52,0,0,0,35.81,23.92c-.387,1.827-1.989,2.594-3.793,2.594-.778,0-2.379-.288-2.379-1.511,0-1.272,1.556-2.45,4.458-2.45a.966.966,0,0,1,.366.048c0-.816-.5-4.8-.549-5.715-.023-.387-.114-2.3-.137-2.736,0-.145-.274-.768-.274-.938a.547.547,0,0,1,.549-.528c.526,0,1.391.431,1.391,1.057,0,.24-.113,1.488-.113,1.753a21.955,21.955,0,0,0,.136,2.474c.251,2.5.366,3.769.387,4.87C38.417,23.731,39.561,25.123,39.561,25.842Zm-5.875-2.593c-.96,0-2.653.434-2.653,1.465,0,.648.985.648,1.213.648a1.957,1.957,0,0,0,2.2-1.921,1.272,1.272,0,0,0-.757-.192Zm3.247-6.1c-.387,0-1.327-.53-1.327-.961,0-.264.161-.264.663-.264a2.284,2.284,0,0,0,.87-.216,3.61,3.61,0,0,1,1.143-.431c.342,0,1.028.407,1.028.863,0,.721-1.923,1.009-2.379,1.009ZM53.99,15.836a.483.483,0,0,1,.438.464c0,.375-.411,2.188-.464,2.593a32.614,32.614,0,0,0-.19,4.321c0,.928-1.044,1.3-1.948,1.3-1.456,0-6.311-1.442-7.136-10.056-.054-.634-.082-4.034-.109-4.321-.027-.145-.357-.894-.357-1.068,0-.546.464-.606.741-.606.878,0,2.414,1.01,2.414,2.106a5.4,5.4,0,0,1-.109,1.122,20.552,20.552,0,0,0-.247,2.938c0,6.107,3.267,7.117,3.842,7.117.741,0,.962-.662,1.428-2.045.191-.547,1.1-3.37,1.207-3.574a.564.564,0,0,1,.489-.292ZM64.307,19.18a1,1,0,0,1-.85-.464,5.316,5.316,0,0,1-.412-1c-1.756-4.379-4.473-4.7-5.461-4.811-1.425-.172-1.48-.172-1.48-.432,0-.374,1.48-.69,2.551-.69,4.418,0,7.216,3.687,7.216,5.819a1.648,1.648,0,0,1-1.565,1.579ZM81.18,8.2c0,.722-1.043,1.237-1.508,1.237-.741,0-2.469-1.756-3.21-2.65-2.551,1.933-6.2,4.15-8.616,4.15-.137,0-.464,0-.464-.2,0-.145.522-.464.659-.548A31.308,31.308,0,0,0,75.12,4.484a1.525,1.525,0,0,1,1.043-.49c.63,0,1.51.49,1.51,1.267a.447.447,0,0,1-.138.348c.549.605.824.748,3.183,2.045.16.084.461.228.461.544ZM74.4,11.6a13.383,13.383,0,0,0-.055-1.384c-.464-.289-.521-.316-.521-.489,0-.549,1.237-1.3,1.838-1.3.356,0,1.042.232,1.042.778,0,.115-.082.519-.082.605a13.8,13.8,0,0,0-.138,1.787h.85a1.2,1.2,0,0,1,1.044-.577,1.306,1.306,0,0,1,1.262,1.21c0,.057-.083.432-.083.464a3.936,3.936,0,0,0-.082.98c0,.72.165,3.8.165,4.436,0,.778-1.153,1-1.73,1-.658,0-.658-.345-.658-.72H73.221v5.416c.357-.086,2-.373,2.331-.431a11.208,11.208,0,0,0,1.674-.464,11,11,0,0,0-1.344-2.073c-.464-.605-.521-.662-.521-.751,0-.173.137-.2.274-.2.8,0,4.528,1.7,4.528,4.033a1.126,1.126,0,0,1-1.126,1.182c-.85,0-1.1-.635-1.344-1.327-5.158,2.306-7.464,2.65-7.765,2.65-.6,0-1.455-.373-1.455-1.179,0-1.1,1.263-1.153,2.551-1.241.029-.921.083-2.045.083-4.406,0-1.728-.027-5.07-.054-6.571-.33-.2-.438-.287-.438-.464,0-.664,1.237-1.584,1.837-1.584a.8.8,0,0,1,.8.605Zm2.91,1.064H73.223V14.4h4.089Zm.026,2.853H73.221v1.757h4.115Zm14.708,9.853c.274.232,1.837,1.122,1.837,1.326,0,.375-2.826,1.21-3.292,1.21-.824,0-2.141-1.613-2.938-3.054a17.646,17.646,0,0,1-1.893-7.665,15.041,15.041,0,0,1-.329,3.2,8.3,8.3,0,0,1-5.377,6.457,14.379,14.379,0,0,1-4.089,1.034c-.11,0-.3,0-.3-.2,0-.173.083-.232.905-.548,6.173-2.474,7.079-6.023,7.189-13.225-.3-.345-.357-.4-.357-.575A2.143,2.143,0,0,1,85.3,11.72c.276,0,1.153.114,1.153.921a3.378,3.378,0,0,1-.166.917A16.8,16.8,0,0,0,92.044,25.37ZM83.455,10.852c-.63,1.3-2.607,3.774-3.319,3.774-.11,0-.22-.056-.22-.172,0-.029,1.346-3.169,1.564-3.8a22.755,22.755,0,0,0,1.456-6.107,1.221,1.221,0,0,1,1.372-1.18A1.391,1.391,0,0,1,85.76,4.688,18.789,18.789,0,0,1,84.2,9.559h4.993A1.913,1.913,0,0,1,90.7,8.666a1.482,1.482,0,0,1,1.537,1.528A14.783,14.783,0,0,1,90.48,14.2c-.165.232-.522.778-.961.778-.494,0-.494-.464-.494-.663,0-.232.11-2.91.11-3.458Zm30.458,9.45c1.344.2,1.974,1.9,1.974,2.447,0,.52-.74.808-1.123.808-.44,0-.773-.115-2.059-1.095-.575-.433-1.425-.951-2.8-1.815a10.254,10.254,0,0,1-7.164,6.824,7.39,7.39,0,0,1-2.165.348c-.412,0-.714-.145-.714-.348,0-.116.576-.346.8-.431a10.754,10.754,0,0,0,7.024-7.348,14.891,14.891,0,0,0-6.531-1.44c-2.551,4.665-3.128,5.213-5.213,5.213-1.428,0-2.662-.664-2.662-2.1,0-1.382,1.646-3.6,6.416-4.263,1.428-2.767,3.65-7.55,3.65-8.644,0-.115-.028-.2-.193-.2-.659,0-3.209,1.586-3.841,1.586A2.032,2.032,0,0,1,97.336,8c0-.315.166-.4.387-.4s1.153.145,1.347.145a13.309,13.309,0,0,0,4.662-1.124c1.016-.547,1.07-.577,1.482-.577a1.558,1.558,0,0,1,1.618,1.441c0,.347-.055.435-.577,1.237-2.525,4.035-3.924,6.827-4.665,8.272a20.783,20.783,0,0,1,6.641,1.21c0-.116.193-1.642.193-1.673a1.03,1.03,0,0,0-.112-.46,5.576,5.576,0,0,1-.575-1.01c0-.346.575-.517,1.1-.517A2.016,2.016,0,0,1,111,16.611a9.462,9.462,0,0,1-.383,2.358,14.182,14.182,0,0,0,3.292,1.33Zm-18.414.89c0,.605.686.605.773.605,1.371,0,2.469-2.478,2.962-3.543C96.7,18.887,95.5,20.185,95.5,21.192Zm35.529-3.37c4.143-.03,5.707-.06,7.436-.088a2.255,2.255,0,0,1,1.756-1.353,2.319,2.319,0,0,1,1.92,1.9c0,.751-.769.894-1.314.894h-9.768c0,.72.055,4.147.055,4.926,0,1.555-.245,4.5-3.237,4.5a5.51,5.51,0,0,1-3.841-2.165c0-.114.112-.114.166-.114.329,0,1.836.232,2.193.232,1.948,0,2.142-1.354,2.142-3.257V19.177h-6.8a9.065,9.065,0,0,0-1.262.055,19.284,19.284,0,0,1-1.975.433c-.464,0-.8-.232-.8-.72,0-.517.411-1.353,1.152-1.353.164,0,.959.114,1.153.142.357.029,2.029.029,2.468.029.879,0,5.131.06,6.092.06l.027-4.38h-4.583a8.41,8.41,0,0,0-1.537.088c-.246.027-1.454.344-1.727.344-.411,0-.8-.2-.8-.662,0-.548.387-1.383,1.069-1.383.192,0,1.124.173,1.345.2.8.058,1.071.058,3.485.058h2.716c0-1.469-.027-2.161-.111-3.687a28.071,28.071,0,0,1-3.209.144c-.768,0-5.378,0-5.378-.893,0-.289.493-.289.685-.289.658,0,2.195-.144,2.991-.2,5.98-.548,8.7-1.614,10.428-2.335a1.609,1.609,0,0,1,1.425-.951c.714,0,1.867.605,1.867,1.555,0,.807-.741,1.182-1.289,1.412a27.635,27.635,0,0,1-4.883,1.327c-.056,2.073-.056,2.65-.083,3.916.63,0,3.814-.029,4.526-.029a2.173,2.173,0,0,1,1.73-1.3,2.083,2.083,0,0,1,1.838,1.815c0,.807-1.07.835-1.345.835h-6.749ZM153.2,8.717a1.922,1.922,0,0,0-1.511.865h-1.255c0-1.643.056-2.738.193-4.525.027-.142.109-.835.109-.977,0-.548-.329-.837-.986-.837-.741,0-2.14,1.1-2.14,1.73,0,.172.491.778.491.95.058.464.112,3.112.112,3.66h-1.265c-.138-.662-.85-.662-.988-.662-.605,0-1.727.98-1.727,1.5,0,.145.027.145.271.464.167.2.167.347.167.722,0,.258,0,2.218-.085,3.718-.024.893-.3,4.695-.3,5.471a.8.8,0,0,0,.823.835c1.673,0,1.673-1.64,1.673-2.417,0-.491.111-7.923.111-8.183.026-.085.054-.287.219-.287h1.1c-.028,2.132-.054,7.4-.194,11.58-.027.808-.22,4.266-.22,4.955,0,.666.3,1.068.934,1.068,1.729,0,1.729-1.786,1.729-2.246,0-1.21-.029-4.755-.055-6.167a3.092,3.092,0,0,0,2.114,1.268c1.646,0,1.646-1.44,1.646-2.737,0-1.153-.081-6.308-.081-7.344a2.3,2.3,0,0,1,.164-.98A1.017,1.017,0,0,0,153.2,8.724Zm-1.263,9.19c0,.835-.028,1.7-.823,1.7a3.1,3.1,0,0,1-.714-.115c-.028-1.383,0-7.52,0-8.757h1.508c0,.287.028,1.5.028,1.757Zm15.173-9.132a1.661,1.661,0,0,0-1.373,1.095h-4.252c.027-.835.218-4.926.218-5.215,0-.372-.054-1.122-1.013-1.122-.85,0-2.306.863-2.306,1.642,0,.2.083.288.44.632.191.2.191.375.191,1.183,0,1.153.083,6.223.083,7.23,0,.635.026,1.586.026,2.65h-1.314a.98.98,0,0,0-.986-.69c-.686,0-1.812.863-1.812,1.555a.671.671,0,0,0,.356.548c.109,1.125-.164,7.521-.164,8.3,0,.491,0,1.152.878,1.152.576,0,1.646-.605,1.646-1.237V25.082h5.816c-.025,1.18-.054,1.643,1.1,1.643.878,0,1.674-.433,1.674-1.442,0-1.065-.194-5.906-.194-6.885,0-.172.167-.922.167-1.064a1.276,1.276,0,0,0-1.318-1.237,1.684,1.684,0,0,0-1.371.778h-2.223c.029-3.2.055-4.378.085-5.733h6.034c.464,0,1.207-.115,1.207-.777a1.766,1.766,0,0,0-1.589-1.589ZM161.795,18.2a2.594,2.594,0,0,1,1.573.773.182.182,0,0,0-.008-.042.444.444,0,0,1,.024.06.687.687,0,0,1,.06.077c.065.773-.014,1.49,0,2.307-.029.375.1.85-.216,1.213a2.143,2.143,0,0,1-.842.57.2.2,0,0,1-.005.056.627.627,0,0,1-.082.245.841.841,0,0,1-.348.327,2.5,2.5,0,0,1-.878.238l-.1.009c-.085.009-.173.012-.264.019-.182-.007-.335-.019-.469-.034-.1-.015-.124.019-.219,0-.008.077-.262-.016-.371-.085-.019.015-.024.039-.057.049-.015-.007-.055-.033-.073-.039a.79.79,0,0,1-.147-.034.863.863,0,0,1-.434-.421h.035l-.02-.032c.036.015.051,0,.009-.066.024,0,.06.013.06,0-.007-.037-.028-.1-.036-.139a1.875,1.875,0,0,1-.972-.962,1.477,1.477,0,0,1-.077-.247c-.036-.254-.024-.446-.045-.679-.018-.415-.04-.833-.06-1.16-.014-.249-.053-.3-.058-.536-.039,0-.059-.124-.06-.363a.869.869,0,0,1,.356-.626c.012-.039-.013-.051.039-.117.039-.029.149-.085.194-.116a2.26,2.26,0,0,1,.319-.179,3.575,3.575,0,0,1,1.323-.221l-.036.033s.04,0,.077-.005c-.067.027-.055.049.111.036-.027.024-.094.049-.063.056.13.016.408.007.429.026a.03.03,0,0,1,0,.044h0c2.028.077,2.641.53,2.832.8a1.414,1.414,0,0,0-.586-.485,9.472,9.472,0,0,0-2.242-.471l.239-.016a9.4,9.4,0,0,1,1.084.14Zm5.768-12.438a1.963,1.963,0,1,1,1.962-1.965,1.963,1.963,0,0,1-1.962,1.965Zm0-3.711a1.746,1.746,0,1,0,1.745,1.745,1.746,1.746,0,0,0-1.745-1.745Zm.945,2.805h-.324c-.107-.322-.186-.534-.232-.639a.515.515,0,0,0-.213-.254.864.864,0,0,0-.338-.045h-.254q0,.541.02.935h-.309q.024-.521.024-1.15,0-.592-.024-1.039h.237c.049,0,.114,0,.191-.005s.166,0,.266,0q.736,0,.735.508a.6.6,0,0,1-.413.593v.017a.51.51,0,0,1,.3.257,7.168,7.168,0,0,1,.334.827Zm-.516-1.576q0-.4-.541-.4a2.08,2.08,0,0,0-.324.022q.012.292.012.8h.192Q167.993,3.7,167.993,3.276Z" transform="translate(22.986 0)" fill="#fff"/>
    <g id="レイヤー_2" data-name="レイヤー 2" transform="translate(-12.649 -0.144)">
      <g id="文字">
        <path id="パス_110" data-name="パス 110" d="M20.941,5.964a.164.164,0,0,0,0-.219l-1.515-.8a.146.146,0,0,0-.219,0L13.565,15.366h-1.3L18.2,4.412a.183.183,0,0,0,0-.219l-1.588-.876a.183.183,0,0,0-.219,0l-5.934,12.05H2.392L5.5,9.889h6.828l.6-1.2H4.893L0,16.462l4.893,10.5H15.847l4.893-10.5L18.093,12.39l-.767,1.333.931,1.643H15.464Z" transform="translate(0 2.708)" fill="#fff"/>
        <path id="パス_111" data-name="パス 111" d="M16.68,11.15c-2.885,0-5.24.657-5.24,1.461a42.63,42.63,0,0,0,.475,6.134c.11.4.657.785,1.534,1.041v.164c.128.511,1.241.968,3.2.968h0c1.954,0,3.067-.456,3.2-.968v-.164c.876-.256,1.424-.639,1.534-1.041A42.63,42.63,0,0,0,21.92,12.7C21.92,11.807,19.583,11.15,16.68,11.15Zm-1.716,4.82c-.146.529-2.684,0-2.866-.657v-.2c0-.018.146,0,.2.128a1.369,1.369,0,0,0,.438.274,3.816,3.816,0,0,0,.621.146,5.477,5.477,0,0,0,1.515.237Zm1.68-.986a11.7,11.7,0,0,1-2.574-.146H13.7c-.931-.164-1.734-.456-1.826-.895a.163.163,0,1,1,.31-.091c0,.274,1.2.475,1.625.548H14.2a11.3,11.3,0,0,0,2.465.237.164.164,0,0,1,0,.329Zm0-1.351c-2.5,0-4.51-.456-4.51-1.022s2.008-1.041,4.51-1.041,4.51.456,4.51,1.041-1.972,1.022-4.455,1.022Z" transform="translate(9.446 9.207)" fill="#fff"/>
        <path id="パス_112" data-name="パス 112" d="M25.967,12.415c-.749-1.461-2.446-2.319-2.994-3.889A5.057,5.057,0,0,1,22.315,5.9a9.129,9.129,0,0,1,.548-3.085,4.126,4.126,0,0,1,.383-1.1c.11-.183.566-.493.6-.657S23.246.4,22.881.31A10.553,10.553,0,0,0,20.49,0h-.712A10.7,10.7,0,0,0,17.5.292c-.365,0-1.059.31-.968.749s.493.475.6.657a3.651,3.651,0,0,1,.383,1.1,9.567,9.567,0,0,1,.548,3.085,5.222,5.222,0,0,1-.621,2.629c-.566,1.57-2.264,2.428-2.994,3.889a15.884,15.884,0,0,0-1.661,7.686,18.258,18.258,0,0,1,2.793-.219h0a10.626,10.626,0,0,1,5.076.968,1.168,1.168,0,0,1,.6.931,40.587,40.587,0,0,1-.493,6.244c-.2.639-.767.986-1.57,1.278h1.022c4.09,0,6.445-.968,6.755-2.063a31.421,31.421,0,0,0,.621-6.81,16.249,16.249,0,0,0-1.625-8Z" transform="translate(10.548)" fill="#fff"/>
      </g>
    </g>
  </g>
</svg>
