<svg xmlns="http://www.w3.org/2000/svg" width="106.09" height="17.747" viewBox="0 0 106.09 17.747">
  <g id="グループ_41220" data-name="グループ 41220" transform="translate(0)">
    <path id="パス_1" data-name="パス 1" d="M18.456,11.632c1.729,0,3.311,1.031,3.311,2.865,0,1.968-1.928,4.375-7.894,4.375-.2,0-.6,0-.6-.324,0-.116.055-.211.4-.249.218-.039,1.31-.154,1.547-.193,4.693-.82,4.693-3.171,4.693-3.742,0-.9-.273-1.948-1.64-1.948-1.656,0-3.274,1.757-3.712,3.057-.109.308-.218.65-.69.65-.746,0-1.237-.916-1.237-2.12,0-.726.219-2.79.419-4.758a5.906,5.906,0,0,1-1.528.308,2.068,2.068,0,0,1-2-1.435c0-.154.127-.19.237-.19a.443.443,0,0,1,.2.058,3.982,3.982,0,0,0,1.455.228A5.148,5.148,0,0,0,13.2,7.891c.091-1.318.128-1.948.128-2.388a2,2,0,0,0-.109-.745c-.2-.477-.218-.5-.218-.629a.476.476,0,0,1,.527-.478c.582,0,1.674.5,1.674,1.2,0,.018-.527,2.255-.564,2.674a4.79,4.79,0,0,0,.564-.477.812.812,0,0,1,.655-.229c.492,0,1,.308,1,.726,0,.268-.018.63-2.456,1.452-.073.61-.4,3.133-.4,3.84,0,.554.073.687.237.706C16.181,12.166,16.928,11.632,18.456,11.632Zm10.985,6.12c0,.415-.2.51-.44.51a.967.967,0,0,1-.743-.446,4.986,4.986,0,0,0-1.3-1.338,2.308,2.308,0,0,1-2.515,1.72c-.516,0-1.577-.191-1.577-1,0-.843,1.032-1.624,2.956-1.624a.64.64,0,0,1,.242.032c0-.541-.333-3.185-.364-3.789-.015-.256-.075-1.527-.091-1.814,0-.1-.182-.509-.182-.622a.362.362,0,0,1,.364-.35c.349,0,.923.286.923.7,0,.159-.075.987-.075,1.163a14.557,14.557,0,0,0,.09,1.64c.167,1.655.243,2.5.256,3.229C28.682,16.353,29.441,17.275,29.441,17.752Zm-3.9-1.719c-.637,0-1.759.288-1.759.971,0,.43.653.43.8.43a1.3,1.3,0,0,0,1.456-1.274.844.844,0,0,0-.5-.127ZM27.7,11.989c-.256,0-.88-.351-.88-.637,0-.175.107-.175.44-.175a1.514,1.514,0,0,0,.577-.144,2.394,2.394,0,0,1,.758-.286c.227,0,.682.27.682.573,0,.478-1.275.669-1.578.669Zm11.31-.871a.32.32,0,0,1,.291.308c0,.249-.273,1.451-.308,1.719a21.626,21.626,0,0,0-.126,2.865c0,.615-.692.862-1.292.862-.965,0-4.185-.956-4.732-6.668-.036-.42-.054-2.675-.072-2.865-.018-.1-.237-.593-.237-.708,0-.362.308-.4.492-.4.582,0,1.6.67,1.6,1.4a3.58,3.58,0,0,1-.072.744,13.627,13.627,0,0,0-.164,1.948c0,4.049,2.166,4.719,2.547,4.719.492,0,.638-.439.947-1.356.127-.363.727-2.234.8-2.37a.374.374,0,0,1,.324-.194Zm6.841,2.217a.662.662,0,0,1-.564-.308,3.525,3.525,0,0,1-.273-.666c-1.165-2.9-2.966-3.114-3.621-3.19-.945-.114-.982-.114-.982-.287,0-.248.982-.457,1.691-.457,2.929,0,4.785,2.445,4.785,3.859a1.093,1.093,0,0,1-1.038,1.047ZM57.037,6.056c0,.479-.691.82-1,.82-.492,0-1.637-1.164-2.129-1.757C52.216,6.4,49.8,7.871,48.2,7.871c-.091,0-.308,0-.308-.134,0-.1.346-.308.437-.363a20.759,20.759,0,0,0,4.694-3.783,1.011,1.011,0,0,1,.691-.325c.418,0,1,.325,1,.84a.3.3,0,0,1-.092.231c.364.4.546.5,2.11,1.356.106.056.306.151.306.361ZM52.543,8.311a8.872,8.872,0,0,0-.036-.918c-.308-.192-.345-.21-.345-.324,0-.364.82-.86,1.219-.86.236,0,.691.154.691.516,0,.076-.054.344-.054.4a9.15,9.15,0,0,0-.091,1.185h.564a.8.8,0,0,1,.692-.383.866.866,0,0,1,.837.8c0,.038-.055.287-.055.308a2.61,2.61,0,0,0-.054.65c0,.478.11,2.521.11,2.942,0,.516-.764.666-1.147.666-.436,0-.436-.229-.436-.477H51.76V16.41c.237-.057,1.328-.248,1.546-.286a7.432,7.432,0,0,0,1.11-.308,7.3,7.3,0,0,0-.891-1.374c-.308-.4-.345-.439-.345-.5,0-.115.091-.132.181-.132.528,0,3,1.125,3,2.674a.747.747,0,0,1-.746.784c-.564,0-.727-.421-.891-.88a18.6,18.6,0,0,1-5.149,1.757c-.4,0-.965-.247-.965-.782,0-.727.838-.765,1.691-.823.019-.611.055-1.356.055-2.922,0-1.146-.018-3.361-.036-4.357-.219-.134-.291-.19-.291-.308,0-.44.82-1.05,1.218-1.05a.532.532,0,0,1,.528.4Zm1.929.706H51.761v1.147h2.712Zm.017,1.892H51.76v1.165h2.728Zm9.752,6.533c.182.154,1.218.744,1.218.879,0,.249-1.874.8-2.183.8-.546,0-1.419-1.07-1.948-2.025a11.7,11.7,0,0,1-1.255-5.083,9.974,9.974,0,0,1-.218,2.12,5.5,5.5,0,0,1-3.565,4.282,9.534,9.534,0,0,1-2.711.685c-.073,0-.2,0-.2-.132,0-.115.055-.154.6-.363,4.093-1.64,4.694-3.993,4.767-8.769-.2-.229-.237-.267-.237-.381a1.421,1.421,0,0,1,1.256-1.069c.183,0,.764.076.764.61a2.24,2.24,0,0,1-.11.608,11.138,11.138,0,0,0,3.821,7.833Zm-5.7-9.63c-.418.86-1.728,2.5-2.2,2.5-.073,0-.146-.037-.146-.114,0-.019.892-2.1,1.037-2.522A15.088,15.088,0,0,0,58.2,3.63a.809.809,0,0,1,.91-.783.923.923,0,0,1,.964.879,12.458,12.458,0,0,1-1.037,3.229h3.311a1.268,1.268,0,0,1,1-.592.983.983,0,0,1,1.019,1.013A9.8,9.8,0,0,1,63.2,10.032c-.109.154-.346.516-.637.516-.328,0-.328-.308-.328-.44,0-.154.073-1.929.073-2.293Zm20.2,6.266c.891.133,1.309,1.259,1.309,1.623,0,.345-.491.536-.745.536-.292,0-.513-.076-1.366-.726-.381-.287-.945-.63-1.854-1.2a6.8,6.8,0,0,1-4.75,4.525,4.9,4.9,0,0,1-1.435.231c-.273,0-.474-.1-.474-.231,0-.077.382-.229.528-.286a7.131,7.131,0,0,0,4.657-4.872,9.874,9.874,0,0,0-4.33-.955c-1.691,3.093-2.074,3.457-3.456,3.457-.947,0-1.765-.44-1.765-1.4,0-.916,1.091-2.388,4.254-2.827.947-1.835,2.42-5.006,2.42-5.732,0-.076-.018-.132-.128-.132-.437,0-2.128,1.051-2.547,1.051a1.347,1.347,0,0,1-1.31-1.224c0-.209.11-.268.256-.268s.764.1.893.1A8.825,8.825,0,0,0,71.99,5c.674-.363.709-.382.983-.382a1.033,1.033,0,0,1,1.073.955c0,.23-.036.289-.382.82-1.674,2.676-2.6,4.527-3.093,5.485a13.781,13.781,0,0,1,4.4.8c0-.077.128-1.089.128-1.109a.683.683,0,0,0-.074-.3,3.7,3.7,0,0,1-.381-.669c0-.229.381-.343.726-.343a1.337,1.337,0,0,1,1.438,1.376,6.273,6.273,0,0,1-.254,1.563,9.4,9.4,0,0,0,2.183.882Zm-12.21.59c0,.4.455.4.513.4.909,0,1.637-1.643,1.964-2.349C67.331,13.14,66.531,14,66.531,14.669Zm23.558-2.234c2.747-.02,3.784-.039,4.93-.058a1.5,1.5,0,0,1,1.165-.9,1.538,1.538,0,0,1,1.273,1.26c0,.5-.51.593-.871.593H90.109c0,.478.036,2.749.036,3.266,0,1.031-.162,2.981-2.147,2.981a3.653,3.653,0,0,1-2.547-1.435c0-.076.074-.076.11-.076.218,0,1.217.154,1.454.154,1.292,0,1.42-.9,1.42-2.159v-2.73H83.926a6.01,6.01,0,0,0-.837.036,12.786,12.786,0,0,1-1.31.287c-.308,0-.528-.154-.528-.478,0-.343.273-.9.764-.9.109,0,.636.076.764.094.237.019,1.346.019,1.637.019.583,0,3.4.039,4.04.039l.018-2.9H85.435a5.577,5.577,0,0,0-1.019.058c-.163.018-.964.228-1.145.228-.273,0-.528-.134-.528-.439,0-.363.256-.917.709-.917.128,0,.745.115.892.133.527.038.71.038,2.311.038h1.8c0-.974-.018-1.433-.073-2.444a18.613,18.613,0,0,1-2.128.1c-.509,0-3.566,0-3.566-.592,0-.192.327-.192.454-.192.436,0,1.455-.1,1.983-.133A21.256,21.256,0,0,0,92.04,3.818a1.067,1.067,0,0,1,.945-.63c.473,0,1.238.4,1.238,1.031,0,.535-.492.784-.855.936a18.324,18.324,0,0,1-3.238.88c-.037,1.375-.037,1.757-.055,2.6.418,0,2.529-.019,3-.019a1.441,1.441,0,0,1,1.147-.859,1.381,1.381,0,0,1,1.218,1.2c0,.535-.709.554-.892.554H90.074Zm14.7-6.038a1.274,1.274,0,0,0-1,.574h-.832c0-1.089.037-1.816.128-3,.018-.094.072-.554.072-.648,0-.363-.218-.555-.654-.555-.492,0-1.419.727-1.419,1.147,0,.114.325.516.325.63.038.308.074,2.064.074,2.427h-.839c-.091-.439-.564-.439-.655-.439-.4,0-1.145.65-1.145.993,0,.1.018.1.18.308.111.134.111.23.111.479,0,.171,0,1.471-.056,2.465-.016.592-.2,3.113-.2,3.627a.534.534,0,0,0,.545.554c1.109,0,1.109-1.088,1.109-1.6,0-.325.074-5.253.074-5.426.017-.056.036-.19.145-.19h.728c-.018,1.414-.036,4.91-.129,7.678-.018.536-.146,2.828-.146,3.286,0,.441.2.708.619.708,1.146,0,1.146-1.184,1.146-1.49,0-.8-.019-3.153-.036-4.089a2.05,2.05,0,0,0,1.4.841c1.091,0,1.091-.955,1.091-1.815,0-.764-.054-4.183-.054-4.869a1.527,1.527,0,0,1,.109-.65.674.674,0,0,0-.691-.937Zm-.838,6.093c0,.554-.018,1.128-.545,1.128a2.058,2.058,0,0,1-.473-.076c-.018-.917,0-4.986,0-5.806h1c0,.19.018.993.018,1.165Zm10.061-6.055a1.1,1.1,0,0,0-.91.726h-2.819c.018-.554.145-3.266.145-3.458,0-.247-.036-.744-.672-.744-.564,0-1.529.573-1.529,1.089,0,.134.055.191.292.419.127.134.127.249.127.784,0,.764.055,4.126.055,4.794,0,.421.017,1.051.017,1.757h-.871a.65.65,0,0,0-.654-.457c-.455,0-1.2.573-1.2,1.031a.445.445,0,0,0,.236.363c.072.746-.109,4.987-.109,5.5,0,.325,0,.764.582.764.382,0,1.091-.4,1.091-.82v-.937h3.856c-.016.783-.036,1.089.729,1.089.582,0,1.11-.287,1.11-.956,0-.706-.129-3.916-.129-4.566,0-.114.111-.612.111-.706a.846.846,0,0,0-.874-.82,1.116,1.116,0,0,0-.909.516h-1.474c.019-2.12.036-2.9.056-3.8h4c.308,0,.8-.076.8-.515a1.171,1.171,0,0,0-1.054-1.053Zm-3.522,6.247a1.72,1.72,0,0,1,1.043.513.121.121,0,0,0-.006-.028.3.3,0,0,1,.016.04.457.457,0,0,1,.04.051c.043.513-.009.988,0,1.53-.019.249.065.564-.144.8a1.421,1.421,0,0,1-.558.378.13.13,0,0,1,0,.037.415.415,0,0,1-.054.162.557.557,0,0,1-.231.217,1.66,1.66,0,0,1-.582.158l-.064.006c-.056.006-.115.008-.175.012-.12,0-.222-.012-.311-.023-.066-.01-.082.012-.145,0-.005.051-.174-.011-.246-.056-.012.01-.016.026-.038.032s-.036-.022-.048-.026a.524.524,0,0,1-.1-.023.572.572,0,0,1-.288-.279h.023l-.013-.022c.024.01.034,0,.006-.044.016,0,.04.009.04,0,0-.025-.018-.065-.024-.092a1.243,1.243,0,0,1-.644-.638.978.978,0,0,1-.051-.164c-.024-.169-.016-.3-.03-.45-.012-.275-.027-.553-.04-.769-.009-.165-.035-.2-.038-.355-.026,0-.039-.083-.039-.241a.576.576,0,0,1,.236-.415c.008-.026-.009-.034.026-.077.026-.019.1-.056.129-.077a1.5,1.5,0,0,1,.211-.118,2.371,2.371,0,0,1,.878-.147l-.024.022.051,0c-.045.018-.036.033.074.024-.018.016-.063.032-.042.037.086.011.271,0,.284.017a.02.02,0,0,1,0,.029h0c1.344.051,1.751.351,1.878.528a.938.938,0,0,0-.389-.322,6.28,6.28,0,0,0-1.486-.312l.158-.011a6.234,6.234,0,0,1,.719.093Zm3.825-8.247a1.3,1.3,0,1,1,1.3-1.3,1.3,1.3,0,0,1-1.3,1.3Zm0-2.46a1.157,1.157,0,1,0,1.157,1.157,1.157,1.157,0,0,0-1.157-1.157Zm.627,1.86h-.215c-.071-.214-.123-.354-.154-.423a.341.341,0,0,0-.141-.169.573.573,0,0,0-.224-.03h-.169q0,.359.013.62h-.205q.016-.345.016-.762,0-.393-.016-.689H114c.033,0,.076,0,.127,0s.11,0,.176,0q.488,0,.487.337a.4.4,0,0,1-.274.393v.011a.338.338,0,0,1,.2.171,4.752,4.752,0,0,1,.221.548ZM114.6,2.789q0-.266-.359-.266a1.379,1.379,0,0,0-.215.014q.008.194.008.527h.128Q114.6,3.068,114.6,2.789Z" transform="translate(-9.525 -1.832)" fill="#231815"/>
  </g>
</svg>
