<svg id="グループ_41598" data-name="グループ 41598" xmlns="http://www.w3.org/2000/svg" width="95.059" height="16.01" viewBox="0 0 95.059 16.01">
  <path id="WEBマガジン" d="M1.929,2.93a.672.672,0,0,0-.192.027.48.48,0,0,0-.158.079.37.37,0,0,0-.107.13.406.406,0,0,0-.039.18.484.484,0,0,0,.02.162.189.189,0,0,0,.08.1.642.642,0,0,0,.17.069c.075.022.17.044.29.072a.456.456,0,0,1,.3.166,2.454,2.454,0,0,1,.321.744c.13.413.293,1.026.519,1.942s.514,2.135.894,3.76c.028.124.091.4.17.74s.174.751.266,1.145.181.773.248,1.055.112.466.116.47a.375.375,0,0,0,.077.138.449.449,0,0,0,.129.1.669.669,0,0,0,.174.061,1.023,1.023,0,0,0,.212.021,4.879,4.879,0,0,0,.792-.054,1.558,1.558,0,0,0,.455-.136.626.626,0,0,0,.223-.181.785.785,0,0,0,.1-.189c.068-.164.21-.611.391-1.212s.4-1.353.624-2.129.45-1.573.645-2.264.358-1.273.454-1.617c.16.64.287,1.144.4,1.571s.2.778.288,1.115.173.657.27,1.025.206.78.342,1.3l.432,1.633c.064.248.114.446.163.6a1.3,1.3,0,0,0,.159.361.449.449,0,0,0,.234.175,1.24,1.24,0,0,0,.388.046,5.427,5.427,0,0,0,.9-.058,1.272,1.272,0,0,0,.5-.178.715.715,0,0,0,.252-.3,2.62,2.62,0,0,0,.141-.436c.092-.336.243-.928.418-1.626s.374-1.5.562-2.268.365-1.488.5-2.022.216-.88.22-.888l.384-1.585c.008-.036.023-.1.042-.18s.041-.173.064-.266.047-.186.067-.263.039-.139.051-.171a.685.685,0,0,1,.08-.156.425.425,0,0,1,.092-.1.414.414,0,0,1,.1-.054.781.781,0,0,1,.1-.03c.036-.016.071-.032.1-.05a.418.418,0,0,0,.087-.062.254.254,0,0,0,.06-.086.312.312,0,0,0,.022-.122.322.322,0,0,0-.033-.147.3.3,0,0,0-.089-.105.4.4,0,0,0-.128-.063.531.531,0,0,0-.15-.021H14.705a.713.713,0,0,0-.092.006.8.8,0,0,0-.1.02.693.693,0,0,0-.1.035.51.51,0,0,0-.092.051.324.324,0,0,0-.055.053.34.34,0,0,0-.047.085,1.007,1.007,0,0,0-.044.148c-.015.063-.03.142-.046.242-.108.612-.23,1.274-.361,1.965s-.271,1.411-.415,2.142-.292,1.471-.439,2.2-.293,1.452-.433,2.145c0,0-.116-.476-.292-1.189l-.649-2.635c-.238-.968-.479-1.949-.667-2.716s-.322-1.321-.346-1.433c-.044-.192-.081-.358-.121-.5a1.457,1.457,0,0,0-.137-.349.512.512,0,0,0-.212-.205A.763.763,0,0,0,9.71,2.9c-.308,0-.541.008-.719.025A1.33,1.33,0,0,0,8.605,3a.331.331,0,0,0-.17.144.826.826,0,0,0-.071.214c-.128.58-.244,1.1-.365,1.632s-.248,1.07-.4,1.686-.321,1.31-.532,2.148-.463,1.822-.771,3.019c-.068-.324-.205-.978-.373-1.78S5.56,8.313,5.369,7.393,4.995,5.582,4.857,4.9s-.23-1.146-.238-1.222a2.129,2.129,0,0,0-.062-.307.676.676,0,0,0-.119-.238.5.5,0,0,0-.221-.154A1.058,1.058,0,0,0,3.85,2.93ZM20.581,9.222a.442.442,0,0,1,.206-.388.74.74,0,0,1,.179-.085,1.192,1.192,0,0,1,.159-.04,2.015,2.015,0,0,1,.239-.019c.112,0,.25-.008.391-.01l.412,0h.3c.116,0,.257,0,.409,0s.314.006.472.011.312.012.448.02.253.018.337.03l.125.024.188.038c.066.013.132.026.188.035a.945.945,0,0,0,.125.015.539.539,0,0,0,.382-.161,1.138,1.138,0,0,0,.247-.385,2.3,2.3,0,0,0,.133-.46,2.232,2.232,0,0,0,.04-.386.52.52,0,0,0-.015-.125.345.345,0,0,0-.054-.119.276.276,0,0,0-.108-.089.409.409,0,0,0-.177-.035.449.449,0,0,0-.236.058c-.044.023-.1.055-.16.1s-.144.1-.244.165a2.377,2.377,0,0,1-.34.186,2.156,2.156,0,0,1-.325.114,2.4,2.4,0,0,1-.313.06c-.1.013-.2.02-.3.024s-.307.007-.551.009l-.82,0-.811,0h-.524V4.067a.335.335,0,0,1,.026-.135.248.248,0,0,1,.072-.095.313.313,0,0,1,.111-.056.52.52,0,0,1,.143-.018h2.321a2.594,2.594,0,0,1,.646.065,1.07,1.07,0,0,1,.43.215,1.661,1.661,0,0,1,.328.4c.105.165.212.365.34.605a.884.884,0,0,0,.117.175.544.544,0,0,0,.149.119.68.68,0,0,0,.2.068,1.451,1.451,0,0,0,.27.022.88.88,0,0,0,.355-.064.5.5,0,0,0,.2-.158.553.553,0,0,0,.092-.2.857.857,0,0,0,.022-.2c0-.064,0-.17-.012-.3s-.021-.28-.038-.436-.039-.314-.065-.457A2.092,2.092,0,0,0,26.2,3.25a.468.468,0,0,0-.11-.158.5.5,0,0,0-.16-.1.875.875,0,0,0-.2-.05,1.879,1.879,0,0,0-.245-.014c-.06,0-.173,0-.312.01l-.47.022-.467.022c-.137.006-.247.01-.3.01H20.869l-.559,0-.838-.006L18.64,2.98l-.541,0a1.639,1.639,0,0,0-.191.01.9.9,0,0,0-.233.056.462.462,0,0,0-.2.143.432.432,0,0,0-.083.271.607.607,0,0,0,.036.225.3.3,0,0,0,.106.137.446.446,0,0,0,.175.068,1.326,1.326,0,0,0,.243.018,1.717,1.717,0,0,1,.223.011.508.508,0,0,1,.195.062.34.34,0,0,1,.138.158.725.725,0,0,1,.052.3l.016,2.834q0,.516,0,1.033t-.009,1.033q-.006.516-.015,1.033T18.532,11.4c0,.072-.012.2-.022.366s-.021.353-.032.543-.022.379-.029.537-.013.284-.013.348a1.1,1.1,0,0,0,.016.213.639.639,0,0,0,.114.265.7.7,0,0,0,.309.226,1.617,1.617,0,0,0,.6.1h6.036A2.69,2.69,0,0,0,26,13.956a.945.945,0,0,0,.32-.113.622.622,0,0,0,.2-.194,1.184,1.184,0,0,0,.128-.28,3.5,3.5,0,0,0,.13-.484c.035-.174.063-.355.084-.531s.036-.344.045-.492.013-.275.013-.367a1.178,1.178,0,0,0-.009-.169.484.484,0,0,0-.061-.184A.378.378,0,0,0,26.684,11a.75.75,0,0,0-.324-.061.967.967,0,0,0-.275.035.522.522,0,0,0-.175.087.5.5,0,0,0-.106.114c-.027.04-.048.08-.068.116l-.123.248c-.039.078-.077.152-.117.224s-.082.142-.129.212a2.546,2.546,0,0,1-.159.212,3.912,3.912,0,0,1-.4.419,2.086,2.086,0,0,1-.5.329,2.748,2.748,0,0,1-.706.215,5.93,5.93,0,0,1-1.027.077H21.493a2.948,2.948,0,0,1-.352.006.939.939,0,0,1-.29-.056.4.4,0,0,1-.2-.155.525.525,0,0,1-.073-.291Zm14.6-1.233A3.51,3.51,0,0,0,36.2,7.258a2.735,2.735,0,0,0,.523-.784,2.635,2.635,0,0,0,.193-.667,2.459,2.459,0,0,0,.028-.38,2.306,2.306,0,0,0-.311-1.2,2.364,2.364,0,0,0-.818-.8,3.857,3.857,0,0,0-1.154-.449,6.016,6.016,0,0,0-1.319-.14c-.148,0-.425.009-.766.023s-.746.032-1.149.05-.805.036-1.14.05-.6.023-.739.023l-.218-.005L29,2.962l-.3-.011-.137-.005a1.339,1.339,0,0,0-.156.007.717.717,0,0,0-.2.051.406.406,0,0,0-.175.138.455.455,0,0,0-.075.268.467.467,0,0,0,.046.225.28.28,0,0,0,.132.121.678.678,0,0,0,.207.052c.08.01.171.014.271.018a.968.968,0,0,1,.3.053.28.28,0,0,1,.152.133.634.634,0,0,1,.056.244c.008.1.008.23.008.386,0,.08,0,.559,0,1.24s0,1.563,0,2.45,0,1.777,0,2.474-.005,1.2-.009,1.312c0,.052-.006.146-.015.261s-.021.25-.033.384-.024.267-.033.378-.015.2-.015.243a.748.748,0,0,0,.074.355.483.483,0,0,0,.208.2.963.963,0,0,0,.319.092,3.062,3.062,0,0,0,.408.022l.173-.005.26-.011.248-.011.137-.005c.092,0,.265.005.478.013l.718.028.712.028c.209.008.376.013.46.013a10.089,10.089,0,0,0,1.153-.054,5.642,5.642,0,0,0,1.537-.375,3.114,3.114,0,0,0,1.345-1.017,3.258,3.258,0,0,0,.576-1.981,2.558,2.558,0,0,0-.316-1.292,2.39,2.39,0,0,0-.747-.792,3.589,3.589,0,0,0-.876-.423A6.063,6.063,0,0,0,35.182,7.989ZM31.115,3.97a.217.217,0,0,1,.085-.176.514.514,0,0,1,.208-.09,1.552,1.552,0,0,1,.262-.033c.089,0,.175,0,.247,0a10.4,10.4,0,0,1,1.112.045,2.918,2.918,0,0,1,.917.229,1.359,1.359,0,0,1,.623.557,2.024,2.024,0,0,1,.23,1.026,2.412,2.412,0,0,1-.13.793,2.27,2.27,0,0,1-.319.606,2.313,2.313,0,0,1-.4.423,1.875,1.875,0,0,1-.382.244,1.641,1.641,0,0,1-.3.093c-.115.026-.242.048-.37.065s-.257.03-.376.038-.228.012-.316.012H31.115Zm0,4.611c.132-.008.277-.014.424-.019s.3-.008.436-.01l.382,0h.262a7.224,7.224,0,0,1,1.029.061,3.05,3.05,0,0,1,.984.3,1.783,1.783,0,0,1,.738.7,2.539,2.539,0,0,1,.291,1.277,2.277,2.277,0,0,1-.4,1.388,2.132,2.132,0,0,1-.985.713,4.683,4.683,0,0,1-1.258.263c-.43.038-.853.038-1.218.038-.052,0-.121,0-.2-.005a1.121,1.121,0,0,1-.227-.037.439.439,0,0,1-.188-.1.26.26,0,0,1-.078-.194Zm18.556-3.2c-.308.032-.833.078-1.467.129s-1.378.107-2.126.159-1.5.1-2.147.135-1.194.057-1.53.057h-.165l-.288,0-.282,0a1.073,1.073,0,0,0-.147.009,1.013,1.013,0,0,0-.275.137A1.277,1.277,0,0,0,41,6.236a1.123,1.123,0,0,0-.178.284.809.809,0,0,0-.068.317.819.819,0,0,0,.049.286.648.648,0,0,0,.137.223.612.612,0,0,0,.212.145.719.719,0,0,0,.274.052,1.168,1.168,0,0,0,.2-.014.952.952,0,0,0,.2-.059c.075-.03.164-.072.279-.131s.259-.134.443-.23a1.034,1.034,0,0,1,.19-.08,2.564,2.564,0,0,1,.3-.068c.132-.024.3-.051.538-.086l.911-.134c.26-.04.663-.094,1.13-.153s1-.122,1.51-.18,1.01-.111,1.411-.15.7-.063.833-.063l.076,0a.362.362,0,0,1,.073.011.121.121,0,0,1,.055.029.075.075,0,0,1,.022.056,1.663,1.663,0,0,1-.259.59c-.161.275-.384.614-.636.975s-.53.741-.8,1.1-.534.7-.754.969a6.791,6.791,0,0,0-.975-.378,7.683,7.683,0,0,0-.858-.207c-.254-.046-.47-.072-.63-.087s-.263-.018-.291-.018c-.012,0-.031,0-.053,0a.334.334,0,0,0-.069.012.144.144,0,0,0-.06.033.088.088,0,0,0-.026.065.115.115,0,0,0,.036.07.736.736,0,0,0,.1.092c.046.035.1.075.171.119s.146.095.234.151a8.178,8.178,0,0,1,.915.66,6.23,6.23,0,0,1,.676.66,7.868,7.868,0,0,1,.541.7c.169.242.333.5.51.768a1.352,1.352,0,0,0,.125.158.846.846,0,0,0,.176.144.912.912,0,0,0,.254.105,1.443,1.443,0,0,0,.359.041,1.019,1.019,0,0,0,.416-.085.926.926,0,0,0,.306-.22.968.968,0,0,0,.189-.3.93.93,0,0,0,.065-.337,1.227,1.227,0,0,0-.122-.517,2.142,2.142,0,0,0-.3-.463,4.041,4.041,0,0,0-.386-.4c-.132-.12-.262-.227-.374-.319l.493-.449L49.3,9.26l.73-.657c.215-.192.387-.345.475-.422.28-.252.541-.483.775-.7s.441-.413.613-.6a2.922,2.922,0,0,0,.4-.527.983.983,0,0,0,.145-.482.807.807,0,0,0-.148-.465,1.228,1.228,0,0,0-.364-.336,1.861,1.861,0,0,0-.46-.2,1.6,1.6,0,0,0-.436-.069,1.344,1.344,0,0,0-.354.052,2.235,2.235,0,0,0-.356.134,3.58,3.58,0,0,0-.341.185C49.871,5.241,49.767,5.311,49.671,5.379ZM67.122,3.106a.709.709,0,0,0-.186-.435,1.876,1.876,0,0,0-.534-.426,3.371,3.371,0,0,0-.847-.324,4.744,4.744,0,0,0-1.123-.129c-.016,0-.038,0-.062,0a.363.363,0,0,0-.074.012.146.146,0,0,0-.062.033.087.087,0,0,0-.026.065c0,.008.019.03.05.061s.075.07.124.113.1.09.157.134l.149.124c.176.144.328.277.459.4s.241.23.333.326.166.179.225.248.1.124.135.164c.044.056.085.106.126.15a.753.753,0,0,0,.128.111.516.516,0,0,0,.149.069.7.7,0,0,0,.189.024.756.756,0,0,0,.283-.052.613.613,0,0,0,.217-.146.65.65,0,0,0,.139-.227A.859.859,0,0,0,67.122,3.106ZM64.128,4.595c.056.088.1.16.149.219a.789.789,0,0,0,.128.138.381.381,0,0,0,.134.072.577.577,0,0,0,.167.021.779.779,0,0,0,.313-.063.721.721,0,0,0,.237-.167.746.746,0,0,0,.15-.236.734.734,0,0,0,.052-.27.826.826,0,0,0-.214-.513,2.083,2.083,0,0,0-.562-.458,3.471,3.471,0,0,0-1.689-.454.515.515,0,0,0-.062,0,.392.392,0,0,0-.074.016.169.169,0,0,0-.062.034.077.077,0,0,0-.026.058.155.155,0,0,0,.036.054c.022.026.051.057.081.088s.061.062.087.085a.382.382,0,0,0,.054.045c.128.124.234.227.328.322s.175.183.254.276.156.192.239.309S64.02,4.427,64.128,4.595ZM62.415,5.908c-.136.028-.26.051-.381.071s-.238.036-.361.051-.252.029-.395.042l-.48.044c.008-.076.022-.22.039-.4l.057-.6c.02-.21.04-.419.057-.593s.031-.312.039-.38c.008-.028.021-.079.036-.141s.032-.136.048-.209.031-.146.042-.206a.946.946,0,0,0,.018-.132.53.53,0,0,0-.15-.347,1.36,1.36,0,0,0-.368-.279,2.262,2.262,0,0,0-.461-.186,1.643,1.643,0,0,0-.43-.068,1.454,1.454,0,0,0-.194.01.731.731,0,0,0-.239.07.486.486,0,0,0-.2.19.723.723,0,0,0-.086.37c0,.04.006.114.015.2s.021.2.033.3.024.211.033.3.015.155.015.187,0,.113,0,.225,0,.258-.011.432-.015.376-.029.6-.032.469-.056.729c-.18.016-.367.031-.558.045s-.385.026-.579.036-.388.018-.579.024-.378.009-.558.009h-.219l-.407,0-.4,0a1.58,1.58,0,0,0-.192.009.832.832,0,0,0-.273.13.844.844,0,0,0-.2.2.88.88,0,0,0-.117.235.779.779,0,0,0-.039.238.416.416,0,0,0,.055.214.424.424,0,0,0,.143.144.667.667,0,0,0,.2.081.987.987,0,0,0,.226.025.789.789,0,0,0,.212-.053c.092-.032.2-.075.3-.119l.3-.125a1.586,1.586,0,0,1,.194-.071c.156-.032.284-.058.413-.082s.259-.045.419-.068.35-.048.6-.077.557-.065.954-.109a11.6,11.6,0,0,1-.266,1.3A8.773,8.773,0,0,1,57.93,10a8.168,8.168,0,0,1-1.46,1.97,9.348,9.348,0,0,1-2.509,1.762c-.04.02-.078.038-.116.055l-.116.049-.128.049-.152.055-.084.043a.493.493,0,0,0-.06.037.139.139,0,0,0-.036.037.08.08,0,0,0-.012.043.111.111,0,0,0,.021.061.207.207,0,0,0,.06.057.337.337,0,0,0,.1.042.488.488,0,0,0,.129.016,2.5,2.5,0,0,0,.426-.045,5.58,5.58,0,0,0,.558-.133c.2-.059.424-.133.654-.22s.47-.19.714-.306a8.522,8.522,0,0,0,2.349-1.625,7.7,7.7,0,0,0,1.4-1.887,9.245,9.245,0,0,0,.725-1.848c.161-.576.256-1.1.332-1.508l.545-.063.393-.045c.111-.012.2-.021.288-.027s.158-.009.23-.009a.654.654,0,0,1,.172.017.209.209,0,0,1,.114.073.362.362,0,0,1,.063.16,1.573,1.573,0,0,1,.019.278c0,.264-.012.587-.038.944s-.066.745-.122,1.142-.128.8-.218,1.184a7.575,7.575,0,0,1-.326,1.07c-.02.052-.047.12-.084.193a1.2,1.2,0,0,1-.141.221.74.74,0,0,1-.213.182.609.609,0,0,1-.3.076,1.407,1.407,0,0,1-.292-.036,2.86,2.86,0,0,1-.294-.082c-.093-.031-.179-.064-.249-.091l-.157-.063c-.02-.008-.063-.029-.117-.056l-.185-.092c-.065-.032-.13-.063-.182-.086a.421.421,0,0,0-.108-.038l-.014,0a.059.059,0,0,0-.016.009.05.05,0,0,0-.013.015.044.044,0,0,0-.005.021,1.13,1.13,0,0,0,.146.368,3.429,3.429,0,0,0,.421.607,2.688,2.688,0,0,0,.67.568,1.767,1.767,0,0,0,.893.251,1.888,1.888,0,0,0,1.155-.355,2.347,2.347,0,0,0,.7-.888A5.323,5.323,0,0,0,63.832,11c.089-.4.148-.8.2-1.156.028-.18.059-.407.09-.656s.062-.52.09-.788.053-.533.072-.77.032-.446.036-.6c0-.02,0-.051,0-.088s0-.08,0-.124.005-.089.01-.13a.675.675,0,0,1,.019-.106c.008-.016.022-.046.039-.083s.036-.082.054-.127.035-.091.048-.13a.362.362,0,0,0,.021-.092.772.772,0,0,0-.087-.362.826.826,0,0,0-.225-.266,1.032,1.032,0,0,0-.309-.164,1.081,1.081,0,0,0-.339-.056,1.176,1.176,0,0,0-.27.037,1.709,1.709,0,0,0-.316.112,1.5,1.5,0,0,0-.307.19A1.076,1.076,0,0,0,62.415,5.908ZM77.5,1.681c.268.216.471.381.633.517s.283.242.387.341.191.191.285.3.2.226.327.382c.024.028.05.058.08.087a.618.618,0,0,0,.1.083.538.538,0,0,0,.14.062.688.688,0,0,0,.188.024.764.764,0,0,0,.3-.058.6.6,0,0,0,.215-.154.653.653,0,0,0,.128-.22.779.779,0,0,0,.042-.256.757.757,0,0,0-.212-.491,1.939,1.939,0,0,0-.574-.425,3.619,3.619,0,0,0-.841-.3,4.562,4.562,0,0,0-1.014-.113c-.028,0-.058,0-.087,0a.4.4,0,0,0-.083.012.135.135,0,0,0-.062.033.089.089,0,0,0-.024.065.1.1,0,0,0,.006.033.124.124,0,0,0,.015.029.219.219,0,0,0,.021.026Zm1.169,2.257a.8.8,0,0,0-.235-.517,2.252,2.252,0,0,0-.6-.451,3.761,3.761,0,0,0-.807-.319,3.34,3.34,0,0,0-.856-.121.589.589,0,0,0-.071,0,.258.258,0,0,0-.062.014.1.1,0,0,0-.044.029.074.074,0,0,0-.017.049,1.3,1.3,0,0,0,.14.159c.085.09.2.209.318.333s.243.253.345.363.185.2.221.249c.02.032.056.092.1.166s.1.161.15.247.107.171.153.241a1.172,1.172,0,0,0,.109.148.479.479,0,0,0,.076.072.39.39,0,0,0,.088.05.483.483,0,0,0,.106.029.874.874,0,0,0,.437-.048.7.7,0,0,0,.238-.157.7.7,0,0,0,.154-.238A.821.821,0,0,0,78.665,3.938ZM73.206,5a1.085,1.085,0,0,0-.356-.806,2.324,2.324,0,0,0-.835-.477,5.086,5.086,0,0,0-.964-.228,5.544,5.544,0,0,0-.743-.058,3.7,3.7,0,0,0-.483.033,3.3,3.3,0,0,0-.438.087,1.4,1.4,0,0,0-.318.123c-.078.045-.123.093-.123.141,0,.012.006.023.025.037a.672.672,0,0,0,.1.057c.051.025.122.058.218.1l.376.172c.2.092.377.185.534.276s.292.179.409.262.216.161.3.229.148.129.2.177c.128.12.235.22.33.3a2.1,2.1,0,0,0,.258.2.881.881,0,0,0,.24.108,1.041,1.041,0,0,0,.276.033,1.173,1.173,0,0,0,.337-.053,1.191,1.191,0,0,0,.321-.152.833.833,0,0,0,.24-.242A.6.6,0,0,0,73.206,5Zm5.972.08c-.548.568-.97,1-1.315,1.357s-.615.621-.86.854-.466.431-.713.641-.522.434-.874.718c-.612.488-1.225.929-1.809,1.314s-1.141.717-1.643.987a12.251,12.251,0,0,1-1.31.621,2.606,2.606,0,0,1-.81.216.916.916,0,0,1-.122-.015l-.18-.033-.177-.033a.87.87,0,0,0-.113-.015.563.563,0,0,0-.178.027.4.4,0,0,0-.142.081.365.365,0,0,0-.094.135.5.5,0,0,0-.034.189,1.087,1.087,0,0,0,.078.3,2.28,2.28,0,0,0,.246.475,1.61,1.61,0,0,0,.432.439,1.135,1.135,0,0,0,.636.193,3.342,3.342,0,0,0,1.071-.308,13.412,13.412,0,0,0,1.743-.907,18.424,18.424,0,0,0,2.085-1.48,17.354,17.354,0,0,0,2.1-2.028c.3-.34.591-.709.868-1.079s.533-.738.753-1.079a10.325,10.325,0,0,0,.531-.9,1.57,1.57,0,0,0,.2-.556.323.323,0,0,0-.012-.089.218.218,0,0,0-.034-.071.158.158,0,0,0-.055-.047.164.164,0,0,0-.075-.017.155.155,0,0,0-.059.013.289.289,0,0,0-.055.031.49.49,0,0,0-.046.037ZM69.027,6.98a1.9,1.9,0,0,1,.2.091,2.621,2.621,0,0,1,.249.154c.1.066.207.149.339.256s.285.237.465.4c.152.132.279.242.39.333a3.124,3.124,0,0,0,.291.217,1.017,1.017,0,0,0,.243.118.8.8,0,0,0,.246.036.992.992,0,0,0,.339-.063,1.082,1.082,0,0,0,.309-.175.894.894,0,0,0,.225-.268.719.719,0,0,0,.087-.342.839.839,0,0,0-.187-.508,1.692,1.692,0,0,0-.552-.447,3.418,3.418,0,0,0-.9-.317,5.937,5.937,0,0,0-1.241-.121c-.012,0-.1,0-.213,0s-.27.014-.422.032a1.969,1.969,0,0,0-.413.086c-.112.041-.186.095-.186.167a.052.052,0,0,0,.023.044.468.468,0,0,0,.1.054c.051.023.123.053.222.093ZM92.818,4.9a.167.167,0,0,0-.017-.071.223.223,0,0,0-.105-.105.167.167,0,0,0-.071-.017.118.118,0,0,0-.072.019.759.759,0,0,0-.132.119c-.064.067-.153.167-.282.314s-.3.344-.522.6A20.118,20.118,0,0,1,89.262,8.07a23.03,23.03,0,0,1-2.393,1.75,16.881,16.881,0,0,1-2.012,1.11,3.685,3.685,0,0,1-1.212.388c-.02,0-.06,0-.11-.01l-.17-.022-.17-.022c-.05-.006-.09-.01-.11-.01a.527.527,0,0,0-.23.045.324.324,0,0,0-.131.111.4.4,0,0,0-.059.141.636.636,0,0,0-.014.135,1.181,1.181,0,0,0,.072.293,2.305,2.305,0,0,0,.237.488,1.586,1.586,0,0,0,.435.458,1.167,1.167,0,0,0,.666.2,2.383,2.383,0,0,0,.785-.183,8.422,8.422,0,0,0,.972-.453c.336-.18.675-.381.99-.579s.6-.393.84-.561A16.47,16.47,0,0,0,90.11,9.24,14.353,14.353,0,0,0,91.7,7.249,10.494,10.494,0,0,0,92.562,5.7,2.785,2.785,0,0,0,92.818,4.9Zm-10.006.192c.236.108.433.205.6.3a4.3,4.3,0,0,1,.433.265,2.9,2.9,0,0,1,.327.268,4.045,4.045,0,0,1,.287.306c.144.168.258.3.354.4a1.939,1.939,0,0,0,.246.233.605.605,0,0,0,.21.107A.933.933,0,0,0,85.517,7a1.234,1.234,0,0,0,.369-.064,1.507,1.507,0,0,0,.375-.181,1.054,1.054,0,0,0,.291-.283.66.66,0,0,0,.117-.37,1.073,1.073,0,0,0-.343-.79,2.25,2.25,0,0,0-.816-.473,4.988,4.988,0,0,0-.969-.23,5.935,5.935,0,0,0-.8-.06,4.145,4.145,0,0,0-.466.027,3.658,3.658,0,0,0-.417.071,1.52,1.52,0,0,0-.3.1c-.073.035-.115.072-.115.108s.022.051.055.078a.8.8,0,0,0,.123.078c.045.024.091.045.126.06A.432.432,0,0,0,82.812,5.091Z" fill="#fff"/>
</svg>
