<svg xmlns="http://www.w3.org/2000/svg" width="43.083" height="11.351" viewBox="0 0 43.083 11.351">
  <path id="パス_3646" data-name="パス 3646" d="M11.847,8.517a1.76,1.76,0,0,0-.5-1.193,3.947,3.947,0,0,0-1.183-.845,7.1,7.1,0,0,0-1.39-.5,4.975,4.975,0,0,0-1.121-.166,1.174,1.174,0,0,0-.179.014.961.961,0,0,0-.159.038A.416.416,0,0,0,7.2,5.92a.091.091,0,0,0-.044.068.094.094,0,0,0,.026.064.246.246,0,0,0,.072.052.89.89,0,0,0,.111.046c.043.015.091.03.143.046a1.868,1.868,0,0,1,.259.118,3.608,3.608,0,0,1,.493.32,4.615,4.615,0,0,1,.625.582,5.582,5.582,0,0,1,.655.9c.008.016.044.078.094.163l.176.3.173.292c.048.081.081.137.085.145a1.05,1.05,0,0,0,.169.117,1.108,1.108,0,0,0,.2.085,1.371,1.371,0,0,0,.23.052,1.906,1.906,0,0,0,.268.018,1.141,1.141,0,0,0,.372-.059.876.876,0,0,0,.288-.163.729.729,0,0,0,.186-.244A.712.712,0,0,0,11.847,8.517ZM5.091,6.564c0,.56,0,1.044-.013,1.453A6.85,6.85,0,0,1,4.991,9.03a1.247,1.247,0,0,1-.238.592.574.574,0,0,1-.463.193A1.309,1.309,0,0,1,4.113,9.8C4.055,9.793,4,9.782,3.946,9.77s-.1-.025-.142-.037L3.7,9.7c-.016-.008-.046-.021-.083-.036l-.122-.048-.116-.042a.341.341,0,0,0-.065-.018.09.09,0,0,0-.049.013.089.089,0,0,0-.029.031.133.133,0,0,0-.014.037.143.143,0,0,0,0,.031,2.426,2.426,0,0,0,.178.276,6.992,6.992,0,0,0,.451.576,3.9,3.9,0,0,0,.6.57,1.125,1.125,0,0,0,.628.258,1.607,1.607,0,0,0,.578-.115,1.861,1.861,0,0,0,.554-.339,1.719,1.719,0,0,0,.416-.552,1.752,1.752,0,0,0,.164-.755c0-.024-.008-.18-.02-.408s-.029-.526-.046-.835-.035-.629-.049-.9-.025-.489-.029-.6c0-.132-.009-.329-.014-.557s-.009-.487-.012-.743,0-.509,0-.725.005-.4.013-.5l.437-.04.294-.025c.081-.006.149-.01.213-.013s.125,0,.193,0h2.514a2.16,2.16,0,0,0,.268-.014.788.788,0,0,0,.23-.06.368.368,0,0,0,.161-.135A.434.434,0,0,0,11,3.794a.674.674,0,0,0-.123-.381,1.1,1.1,0,0,0-.307-.293,1.6,1.6,0,0,0-.4-.188,1.378,1.378,0,0,0-.4-.066,1.1,1.1,0,0,0-.316.047,1.345,1.345,0,0,0-.28.122,2.091,2.091,0,0,0-.25.17c-.079.062-.154.127-.226.191l-.417.054-.492.063-.546.069L6.66,3.65c0-.112.008-.253.014-.415s.013-.343.023-.536.023-.4.041-.605.04-.418.068-.622c.012-.068.023-.134.033-.2s.018-.122.025-.177.013-.106.016-.15.006-.084.006-.116A.539.539,0,0,0,6.73.466a1.206,1.206,0,0,0-.368-.26A2.208,2.208,0,0,0,5.918.051,1.733,1.733,0,0,0,5.539,0,.885.885,0,0,0,5.4.016a1.041,1.041,0,0,0-.221.066.563.563,0,0,0-.2.141.357.357,0,0,0-.089.241c0,.036.005.1.013.183s.018.176.029.271.023.19.032.268l.022.174c.028.3.049.574.065.831s.026.491.033.7.011.393.012.547,0,.279,0,.371c-.072.008-.283.026-.562.049l-.967.076L2.619,4c-.263.019-.45.031-.49.031L2,4.03l-.2-.011-.2-.011L1.473,4a.981.981,0,0,0-.4.075.67.67,0,0,0-.251.187.719.719,0,0,0-.131.244.832.832,0,0,0-.038.246A.5.5,0,0,0,.716,5a.441.441,0,0,0,.153.157.666.666,0,0,0,.207.082,1.006,1.006,0,0,0,.222.024.874.874,0,0,0,.144-.012,1.255,1.255,0,0,0,.153-.036c.054-.016.112-.036.177-.06s.136-.052.216-.084A4.009,4.009,0,0,1,2.594,4.9c.264-.062.575-.124.89-.183s.635-.115.917-.162l.69-.116Zm-1.953.08c-.148.216-.28.408-.416.579a2.824,2.824,0,0,1-.437.452,2.373,2.373,0,0,1-.575.34,4.344,4.344,0,0,1-.83.246c-.092.02-.193.041-.293.07A1.25,1.25,0,0,0,.3,8.447a.611.611,0,0,0-.216.2A.614.614,0,0,0,0,8.982a.658.658,0,0,0,.094.341.837.837,0,0,0,.238.251,1.147,1.147,0,0,0,.316.155,1.107,1.107,0,0,0,.328.053,2.064,2.064,0,0,0,.978-.264,3.068,3.068,0,0,0,.84-.683A3.481,3.481,0,0,0,3.381,7.9,2.691,2.691,0,0,0,3.6,6.868a.694.694,0,0,0-.01-.118.5.5,0,0,0-.036-.12.25.25,0,0,0-.069-.093A.171.171,0,0,0,3.378,6.5a.287.287,0,0,0-.092.014.214.214,0,0,0-.065.035.292.292,0,0,0-.047.047C3.162,6.611,3.15,6.628,3.138,6.644ZM25.376,5.475c-.572.032-1.181.058-1.808.079S22.3,5.591,21.65,5.6s-1.294.02-1.925.025-1.245.007-1.826.007c-.048,0-.135-.008-.241-.02s-.231-.028-.355-.044l-.349-.044c-.1-.012-.183-.02-.223-.02a1.126,1.126,0,0,0-.587.158,1.314,1.314,0,0,0-.386.36,1.707,1.707,0,0,0-.212.393.883.883,0,0,0-.065.257.442.442,0,0,0,.054.215.483.483,0,0,0,.147.161.7.7,0,0,0,.219.1,1.007,1.007,0,0,0,.27.035,1.412,1.412,0,0,0,.3-.058c.13-.035.283-.082.435-.13l.429-.136a2.555,2.555,0,0,1,.279-.076c.084-.016.318-.043.682-.075s.859-.068,1.463-.1,1.319-.066,2.123-.09,1.7-.039,2.664-.039h3.042a2.263,2.263,0,0,0,.275-.051,1.044,1.044,0,0,0,.247-.095.5.5,0,0,0,.178-.158.424.424,0,0,0,.068-.24.845.845,0,0,0-.157-.493,1.256,1.256,0,0,0-.391-.35,2.074,2.074,0,0,0-1-.278,1.622,1.622,0,0,0-.313.033,2.025,2.025,0,0,0-.364.109,2.105,2.105,0,0,0-.748.514Zm13.977.352c.14.2.261.384.369.55s.2.316.288.461.164.285.24.428.149.29.225.451c-.364.1-.691.177-1.01.25s-.628.137-.957.2-.678.125-1.074.191-.841.139-1.361.223l.637-1.3q.319-.648.64-1.3T37.993,4.7q.325-.645.655-1.288l.186-.35c.049-.093.085-.165.112-.228A.835.835,0,0,0,39,2.66a.909.909,0,0,0,.015-.179.536.536,0,0,0-.153-.368,1.135,1.135,0,0,0-.36-.248,2.12,2.12,0,0,0-.42-.14,1.629,1.629,0,0,0-.333-.044,1.022,1.022,0,0,0-.492.108.707.707,0,0,0-.273.261,1.052,1.052,0,0,0-.123.321,2.424,2.424,0,0,0-.042.288,8.539,8.539,0,0,1-.421,1.72c-.211.628-.475,1.284-.738,1.891s-.526,1.163-.735,1.59-.364.727-.412.819c-.052,0-.146.009-.261.015l-.384.018-.378.018c-.111.006-.2.011-.243.015a1.008,1.008,0,0,0-.207.057,1.2,1.2,0,0,0-.237.121.735.735,0,0,0-.2.184.425.425,0,0,0-.081.246.919.919,0,0,0,.076.353,1.156,1.156,0,0,0,.208.325,1.061,1.061,0,0,0,.31.238.855.855,0,0,0,.382.092,6.945,6.945,0,0,0,1.285-.222c.581-.138,1.282-.329,2.007-.543s1.475-.451,2.154-.681,1.286-.452,1.726-.636c.036.08.068.151.1.226s.065.153.1.247.079.2.129.343.109.306.181.514a1.392,1.392,0,0,0,.066.168.992.992,0,0,0,.15.23.823.823,0,0,0,.27.2.994.994,0,0,0,.426.087.978.978,0,0,0,.382-.077.953.953,0,0,0,.31-.212.981.981,0,0,0,.208-.32,1.068,1.068,0,0,0,.076-.4,1.88,1.88,0,0,0-.125-.625,3.814,3.814,0,0,0-.332-.678A5.7,5.7,0,0,0,41.594,6.74a5.475,5.475,0,0,0-.507-.388c-.194-.134-.407-.267-.616-.385a5.408,5.408,0,0,0-.6-.295,1.317,1.317,0,0,0-.444-.118.366.366,0,0,0-.068.006.217.217,0,0,0-.056.018.106.106,0,0,0-.038.03.069.069,0,0,0-.014.042.11.11,0,0,0,.008.039.28.28,0,0,0,.022.043c.009.015.02.031.031.046Z" fill="#fff"/>
</svg>
