<svg xmlns="http://www.w3.org/2000/svg" width="139.815" height="14.345" viewBox="0 0 139.815 14.345">
  <path id="パス_3647" data-name="パス 3647" d="M4.259,9.11c-.012-.16-.019-.3-.017-.465s.012-.354.035-.612.059-.585.11-1.026.12-1,.208-1.708c.18-.056.406-.127.644-.211s.488-.18.715-.286a2.727,2.727,0,0,0,.58-.346.546.546,0,0,0,.239-.391.391.391,0,0,0-.107-.251A.99.99,0,0,0,6.4,3.606a1.621,1.621,0,0,0-.348-.143A1.321,1.321,0,0,0,5.7,3.41c-.032,0-.068,0-.106,0a1.01,1.01,0,0,0-.118.016.693.693,0,0,0-.118.034.454.454,0,0,0-.106.058c-.016.012-.044.036-.078.066l-.114.1-.114.1c-.034.03-.062.054-.078.066.008-.08.04-.241.084-.438s.1-.43.153-.654.107-.439.147-.6.066-.268.066-.276a.715.715,0,0,0-.184-.455,1.655,1.655,0,0,0-.447-.36A2.647,2.647,0,0,0,4.133.838a1.811,1.811,0,0,0-.5-.085.687.687,0,0,0-.194.03.706.706,0,0,0-.192.09.5.5,0,0,0-.147.15.4.4,0,0,0-.059.21.491.491,0,0,0,.026.1c.016.049.037.108.059.167s.045.118.065.164a.792.792,0,0,0,.044.094q.024.072.042.15t.03.162q.012.084.018.174t.006.186c0,.068,0,.13,0,.208s-.007.172-.014.3-.017.3-.029.532-.029.52-.049.893c-.092.036-.181.07-.276.1a2.715,2.715,0,0,1-.31.081,3.5,3.5,0,0,1-.4.054c-.153.013-.329.02-.537.02-.1,0-.209,0-.315-.007s-.212-.013-.319-.025S.864,4.567.756,4.546.54,4.5.432,4.467L.391,4.448.328,4.421.266,4.4a.165.165,0,0,0-.042-.01A.32.32,0,0,0,.1,4.408a.163.163,0,0,0-.067.049.155.155,0,0,0-.028.058A.2.2,0,0,0,0,4.563a.653.653,0,0,0,.129.28A2.181,2.181,0,0,0,.5,5.257a2.263,2.263,0,0,0,.594.375,2.012,2.012,0,0,0,.795.163,2.152,2.152,0,0,0,.3-.024c.1-.015.212-.036.318-.06s.211-.051.312-.078l.285-.078c-.076.592-.138,1.082-.188,1.5S2.829,7.81,2.8,8.107s-.049.55-.061.787-.017.46-.017.7a2.358,2.358,0,0,0,.126.807,1.377,1.377,0,0,0,.316.512,1.171,1.171,0,0,0,.416.268A1.2,1.2,0,0,0,4,11.255a1.022,1.022,0,0,0,.3-.037.484.484,0,0,0,.2-.124,1.01,1.01,0,0,0,.163-.232c.054-.1.11-.217.178-.361a4.576,4.576,0,0,1,.5-.838,4.7,4.7,0,0,1,.7-.751A3.5,3.5,0,0,1,6.9,8.373a2.3,2.3,0,0,1,.927-.208,1.459,1.459,0,0,1,.594.111.993.993,0,0,1,.4.321,1.412,1.412,0,0,1,.228.513,2.924,2.924,0,0,1,.072.687,2.362,2.362,0,0,1-.61,1.622,3.916,3.916,0,0,1-1.425.956,8.4,8.4,0,0,1-1.632.475c-.511.1-.955.149-1.232.181-.216.024-.384.043-.515.061a2.385,2.385,0,0,0-.29.052.255.255,0,0,0-.128.064.136.136,0,0,0-.029.1.169.169,0,0,0,.064.139.409.409,0,0,0,.181.071,1.893,1.893,0,0,0,.283.026c.11,0,.234,0,.37,0a13.63,13.63,0,0,0,3.963-.49,5.09,5.09,0,0,0,2.069-1.123,2.924,2.924,0,0,0,.79-1.237,2.706,2.706,0,0,0,.127-.832A2.14,2.14,0,0,0,10.238,8.1,2.941,2.941,0,0,0,9.3,7.636a3.982,3.982,0,0,0-1.136-.159,4.7,4.7,0,0,0-1.813.356,6.513,6.513,0,0,0-.735.36c-.232.131-.453.269-.669.4-.072.044-.137.084-.2.123s-.117.076-.171.115-.106.08-.159.124S4.315,9.054,4.259,9.11ZM25.152,6.356a.5.5,0,0,0-.1-.3.89.89,0,0,0-.252-.221A1.365,1.365,0,0,0,24.49,5.7a.952.952,0,0,0-.267-.047.538.538,0,0,0-.151.033c-.063.021-.136.05-.214.084s-.161.073-.244.114-.165.083-.241.123c-.04.02-.087.043-.141.066a1.881,1.881,0,0,1-.18.068,1.6,1.6,0,0,1-.216.053,1.473,1.473,0,0,1-.249.021c-.04,0-.075,0-.105,0a.326.326,0,0,0-.075.011.083.083,0,0,0-.045.029.09.09,0,0,0-.015.056.406.406,0,0,0,.091.227,1.037,1.037,0,0,0,.25.235,1.46,1.46,0,0,0,.376.184,1.519,1.519,0,0,0,.469.074A4.028,4.028,0,0,0,23.99,7a3.357,3.357,0,0,0,.533-.1,1.348,1.348,0,0,0,.443-.206A.42.42,0,0,0,25.152,6.356Zm-4.115,4.259a5.243,5.243,0,0,0-.95.1,5.082,5.082,0,0,0-1.028.3,2.5,2.5,0,0,0-.824.532,1.108,1.108,0,0,0-.337.781.8.8,0,0,0,.206.55,1.282,1.282,0,0,0,.494.32,2.712,2.712,0,0,0,.6.149,3.722,3.722,0,0,0,.512.037,4.159,4.159,0,0,0,.907-.1,3.33,3.33,0,0,0,.847-.309,2.333,2.333,0,0,0,.678-.537,1.915,1.915,0,0,0,.4-.783c.144.112.26.206.366.3s.2.184.3.291.214.23.349.384.3.342.5.578a.575.575,0,0,0,.14.118,1.324,1.324,0,0,0,.2.1,1.532,1.532,0,0,0,.223.073.9.9,0,0,0,.2.028.677.677,0,0,0,.234-.04.561.561,0,0,0,.188-.114.518.518,0,0,0,.125-.177.579.579,0,0,0,.045-.229.964.964,0,0,0-.236-.52,3.774,3.774,0,0,0-.629-.628,5.816,5.816,0,0,0-.905-.6,5.132,5.132,0,0,0-1.064-.43c0-.148-.007-.279-.012-.416s-.012-.278-.024-.447-.029-.366-.054-.612-.058-.543-.1-.911c-.02-.18-.041-.37-.061-.566s-.04-.4-.057-.6-.032-.405-.042-.6-.016-.4-.016-.584c0-.148.007-.29.018-.42s.025-.248.039-.348.028-.182.039-.24.018-.092.018-.1l.021-.085c.006-.025.011-.047.015-.067s.007-.038.009-.055a.416.416,0,0,0,0-.049.568.568,0,0,0-.136-.358,1.143,1.143,0,0,0-.338-.272,1.92,1.92,0,0,0-.438-.173,1.737,1.737,0,0,0-.433-.061.678.678,0,0,0-.163.021.615.615,0,0,0-.155.061.368.368,0,0,0-.116.1.231.231,0,0,0-.046.138A.547.547,0,0,0,20.6,4.3c.027.069.064.151.1.232s.075.162.1.229a.779.779,0,0,1,.054.149c.012.076.023.217.033.39s.019.378.027.582.015.407.021.576.011.3.015.372c.012.152.044.43.086.77s.093.742.143,1.143.1.8.137,1.131.064.6.068.734Zm.3.624a1.831,1.831,0,0,1-.128.572,1.148,1.148,0,0,1-.718.67,1.807,1.807,0,0,1-.578.086c-.056,0-.133,0-.217-.007a1.2,1.2,0,0,1-.259-.046.5.5,0,0,1-.217-.124.334.334,0,0,1-.091-.241.659.659,0,0,1,.19-.455,1.422,1.422,0,0,1,.465-.314,2.964,2.964,0,0,1,1.123-.24,1.491,1.491,0,0,1,.169.008.682.682,0,0,1,.113.022.524.524,0,0,1,.08.031ZM44.54,8.1A2.329,2.329,0,0,0,44.234,7a3.656,3.656,0,0,0-.867-1.04,4.517,4.517,0,0,0-1.353-.776,5.122,5.122,0,0,0-1.765-.3,5.177,5.177,0,0,0-.611.039,4.978,4.978,0,0,0-.58.1,2.08,2.08,0,0,0-.433.148c-.107.055-.17.114-.17.174a.091.091,0,0,0,.028.076.286.286,0,0,0,.126.049c.065.014.157.027.285.043l.506.058a3.789,3.789,0,0,1,.595.1,2.884,2.884,0,0,1,.79.34,3.455,3.455,0,0,1,.862.776A5.7,5.7,0,0,1,42.459,8.2c.076.184.139.338.2.466a1.507,1.507,0,0,0,.179.307.542.542,0,0,0,.218.169.818.818,0,0,0,.316.052,1.006,1.006,0,0,0,.433-.1,1.411,1.411,0,0,0,.374-.265,1.388,1.388,0,0,0,.263-.352A.821.821,0,0,0,44.54,8.1Zm-7.413-.736c-.2.508-.358.928-.493,1.273s-.242.618-.329.832-.154.37-.206.484a1.455,1.455,0,0,1-.124.229.758.758,0,0,1-.088.1.522.522,0,0,1-.1.07.445.445,0,0,1-.109.043.5.5,0,0,1-.124.015.8.8,0,0,1-.2-.028,1.34,1.34,0,0,1-.205-.073,1.968,1.968,0,0,1-.2-.1c-.064-.038-.125-.078-.181-.118a2.335,2.335,0,0,1-.646-.7,3.7,3.7,0,0,1-.391-.9,5.9,5.9,0,0,1-.193-.975,7.965,7.965,0,0,1-.052-.915c0-.18.005-.348.014-.507s.021-.307.036-.448.033-.275.051-.4.039-.251.059-.371c0-.016.012-.062.022-.123s.021-.136.032-.211.022-.15.029-.208.013-.1.013-.114a.737.737,0,0,0-.2-.463,1.953,1.953,0,0,0-.476-.394,2.949,2.949,0,0,0-.584-.274,1.713,1.713,0,0,0-.521-.1.759.759,0,0,0-.138.012.5.5,0,0,0-.147.05.307.307,0,0,0-.117.107.339.339,0,0,0-.048.183.614.614,0,0,0,.038.156c.023.068.053.147.083.226s.06.158.083.223a.59.59,0,0,1,.038.147c.016.66.031,1.247.059,1.78s.069,1.012.137,1.458a7.3,7.3,0,0,0,.3,1.26A6.378,6.378,0,0,0,32.8,9.766a5.9,5.9,0,0,0,.69.938,5.61,5.61,0,0,0,.843.769,4.132,4.132,0,0,0,.921.52,2.536,2.536,0,0,0,.924.191,1.75,1.75,0,0,0,.443-.057,1.394,1.394,0,0,0,.4-.169.9.9,0,0,0,.285-.28.728.728,0,0,0,.109-.39c0-.048,0-.135-.008-.241s-.011-.232-.017-.357-.012-.25-.017-.354-.008-.188-.008-.232c0-.088,0-.193,0-.312s.006-.251.014-.393.02-.294.038-.453.042-.324.074-.492c.012-.068.027-.149.043-.236s.032-.181.047-.274.029-.186.038-.271a2.086,2.086,0,0,0,.016-.227.569.569,0,0,0-.011-.115.287.287,0,0,0-.038-.1.187.187,0,0,0-.074-.067A.259.259,0,0,0,37.4,7.14a.264.264,0,0,0-.1.019.232.232,0,0,0-.075.051.347.347,0,0,0-.054.072A.759.759,0,0,0,37.127,7.365ZM58.469,4.451c0,.068,0,.2-.005.372s-.007.371-.011.575-.008.407-.011.578-.005.309-.005.381a1,1,0,0,0,.006.126.392.392,0,0,0,.04.136.261.261,0,0,0,.109.109.446.446,0,0,0,.213.045.55.55,0,0,0,.2-.037.6.6,0,0,0,.168-.1,1.191,1.191,0,0,0,.15-.157c.049-.06.1-.127.15-.2.092-.12.208-.293.33-.492s.251-.424.368-.647a6.858,6.858,0,0,0,.3-.638,1.457,1.457,0,0,0,.123-.465.811.811,0,0,0-.082-.346,1.047,1.047,0,0,0-.226-.308,1.124,1.124,0,0,0-.34-.221,1.1,1.1,0,0,0-.424-.085.847.847,0,0,0-.27.045A1.133,1.133,0,0,0,59,3.244a1.662,1.662,0,0,0-.237.188,2.39,2.39,0,0,0-.216.234H55.971c.08-.188.177-.411.278-.649s.2-.491.3-.738.178-.489.239-.7a2.193,2.193,0,0,0,.1-.55.609.609,0,0,0-.093-.317.925.925,0,0,0-.243-.26,1.24,1.24,0,0,0-.339-.176,1.2,1.2,0,0,0-.381-.065,1.247,1.247,0,0,0-.239.022.9.9,0,0,0-.267.1.7.7,0,0,0-.234.213.883.883,0,0,0-.14.373c-.064.428-.129.8-.2,1.154s-.151.671-.243.992-.2.638-.321.98-.267.705-.435,1.118c-.02.048-.064.148-.119.271l-.183.411-.168.378c-.045.1-.074.168-.074.172a.112.112,0,0,0,.011.051.094.094,0,0,0,.031.035.138.138,0,0,0,.046.02.237.237,0,0,0,.056.006.95.95,0,0,0,.458-.192,4.617,4.617,0,0,0,.6-.491,8.371,8.371,0,0,0,.623-.662,7.136,7.136,0,0,0,.53-.705ZM51.232,2.321c.056.064.161.184.3.328s.3.312.469.472a4.2,4.2,0,0,0,.523.424.921.921,0,0,0,.457.184,1.086,1.086,0,0,0,.327-.069A2.2,2.2,0,0,0,53.7,3.48a1.424,1.424,0,0,0,.328-.256.455.455,0,0,0,.138-.294.223.223,0,0,0-.028-.115.311.311,0,0,0-.09-.094,1.21,1.21,0,0,0-.159-.094c-.065-.034-.143-.071-.235-.115-.24-.12-.439-.219-.608-.306s-.307-.162-.425-.234a2.381,2.381,0,0,1-.3-.216,2.005,2.005,0,0,1-.248-.252.655.655,0,0,0,.046-.073.305.305,0,0,0,.024-.057.233.233,0,0,0,.009-.048c0-.015,0-.03,0-.046a.655.655,0,0,0-.1-.346.874.874,0,0,0-.258-.262,1.279,1.279,0,0,0-.36-.166,1.458,1.458,0,0,0-.4-.058.855.855,0,0,0-.2.017.5.5,0,0,0-.173.081,2.107,2.107,0,0,0-.227.192c-.094.088-.21.2-.362.35-.08.076-.225.215-.424.4s-.45.406-.743.652-.628.514-.992.784-.759.541-1.171.793c-.14.084-.268.161-.381.231s-.212.132-.293.186a1.977,1.977,0,0,0-.188.138c-.043.038-.066.067-.066.087a.091.091,0,0,0,.05.077.374.374,0,0,0,.119.044,1.061,1.061,0,0,0,.143.02c.047,0,.09,0,.122,0a3.975,3.975,0,0,0,1.039-.16,8.5,8.5,0,0,0,1.212-.448c.427-.192.875-.424,1.335-.688S50.756,2.642,51.232,2.321Zm5.62,5.956a16.376,16.376,0,0,0,.188,1.822,9.481,9.481,0,0,0,.329,1.384,6.54,6.54,0,0,0,.443,1.054,6.385,6.385,0,0,0,.53.832c.04.052.093.122.158.2a2.072,2.072,0,0,0,.232.232,1.287,1.287,0,0,0,.3.193.889.889,0,0,0,.365.081,2.253,2.253,0,0,0,.51-.113c.227-.069.493-.162.747-.26s.5-.2.675-.29.294-.163.294-.2c0-.02-.07-.076-.178-.151s-.255-.17-.408-.267l-.447-.282c-.134-.085-.243-.156-.3-.2a7.84,7.84,0,0,1-1.655-1.757,8.129,8.129,0,0,1-.931-1.827A9.5,9.5,0,0,1,57.281,7.1c-.083-.482-.118-.887-.142-1.171.012-.048.024-.093.035-.136s.022-.085.031-.126.017-.082.022-.123a1,1,0,0,0,.008-.127.425.425,0,0,0-.11-.294.656.656,0,0,0-.252-.164,1.291,1.291,0,0,0-.279-.071,1.413,1.413,0,0,0-.191-.015,1.184,1.184,0,0,0-.414.087,1.841,1.841,0,0,0-.411.223,1.4,1.4,0,0,0-.315.3.58.58,0,0,0-.126.33.155.155,0,0,0,.007.047.217.217,0,0,0,.023.05.617.617,0,0,0,.044.062c.019.024.042.051.07.083a.026.026,0,0,1,.015.008l.018.018.018.021.015.017a21.456,21.456,0,0,1-.182,2.633,7.031,7.031,0,0,1-.539,1.954,4.309,4.309,0,0,1-1.067,1.438,6.69,6.69,0,0,1-1.767,1.084c-.044.02-.138.052-.254.091s-.255.085-.388.133a3.551,3.551,0,0,0-.355.145c-.094.047-.155.091-.155.127a.116.116,0,0,0,.044.093.263.263,0,0,0,.1.048.7.7,0,0,0,.122.018c.039,0,.074,0,.1,0,.1,0,.248,0,.437-.023a5.734,5.734,0,0,0,.683-.111,6.823,6.823,0,0,0,.888-.264A7.921,7.921,0,0,0,54.066,13a4.955,4.955,0,0,0,2.191-2.4,6.327,6.327,0,0,0,.4-1.268A9.748,9.748,0,0,0,56.8,8.277ZM49.551,4.8a.5.5,0,0,0-.147-.174.741.741,0,0,0-.189-.1,1.01,1.01,0,0,0-.177-.048.708.708,0,0,0-.111-.012.935.935,0,0,0-.355.1,2.491,2.491,0,0,0-.423.253,1.94,1.94,0,0,0-.354.328.561.561,0,0,0-.148.326.2.2,0,0,0,.048.09c.029.038.067.082.1.126s.076.088.1.126a.2.2,0,0,1,.048.09c0,.016.008.249.012.6s.007.812.01,1.29.005.968.007,1.371,0,.717,0,.841c0,.232,0,.431,0,.6s0,.318-.007.443-.007.23-.01.32-.008.166-.012.234c-.132,0-.292,0-.458.015a2.214,2.214,0,0,0-.493.09.893.893,0,0,0-.393.234.637.637,0,0,0-.161.447.722.722,0,0,0,.08.334.779.779,0,0,0,.21.252.975.975,0,0,0,.3.159,1.083,1.083,0,0,0,.341.055,3.366,3.366,0,0,0,.7-.105c.3-.069.649-.171,1.042-.3s.827-.294,1.286-.483.942-.405,1.434-.645a.514.514,0,0,0,.027.058c.013.025.029.055.045.084l.045.081.027.049a2.414,2.414,0,0,0,.1.226.566.566,0,0,0,.114.154.4.4,0,0,0,.162.088.9.9,0,0,0,.246.028.905.905,0,0,0,.343-.072,1.1,1.1,0,0,0,.3-.189.968.968,0,0,0,.216-.267.65.65,0,0,0,.082-.306,1.371,1.371,0,0,0-.35-.856,3.432,3.432,0,0,0-.82-.7,5.219,5.219,0,0,0-.943-.469,2.331,2.331,0,0,0-.72-.172.474.474,0,0,0-.081.007.343.343,0,0,0-.084.025.175.175,0,0,0-.066.049.124.124,0,0,0-.027.079.092.092,0,0,0,.01.041.406.406,0,0,0,.043.068c.022.03.053.069.1.122s.1.119.172.2c.048.06.1.12.149.186s.106.139.164.224.12.183.188.3.141.251.221.412c-.16.04-.318.077-.477.112s-.317.067-.478.1-.325.058-.493.085-.341.052-.522.076V8.645h2.017a.724.724,0,0,0,.011.138.335.335,0,0,0,.219.263.8.8,0,0,0,.3.048,1.844,1.844,0,0,0,.313-.033,2.071,2.071,0,0,0,.393-.111,1.012,1.012,0,0,0,.336-.207.445.445,0,0,0,.142-.321c0-.008-.006-.14-.015-.34s-.021-.467-.033-.745-.024-.567-.033-.811-.015-.442-.015-.538c0-.052,0-.1,0-.146s0-.09.007-.134a1.308,1.308,0,0,1,.019-.134,1.426,1.426,0,0,1,.037-.146c0-.008.011-.024.019-.044s.018-.045.027-.07.018-.051.024-.073a.229.229,0,0,0,.01-.053.5.5,0,0,0-.079-.259.866.866,0,0,0-.2-.226,1.072,1.072,0,0,0-.278-.16.853.853,0,0,0-.3-.061.969.969,0,0,0-.138.012,1.325,1.325,0,0,0-.2.046,1.205,1.205,0,0,0-.227.1,1,1,0,0,0-.219.165h-.272c.008-.164.019-.312.031-.443s.026-.244.039-.338.026-.169.036-.224.018-.089.022-.1a.148.148,0,0,1,.005-.025l.011-.043c0-.016.008-.033.011-.049a.247.247,0,0,0,.005-.043.388.388,0,0,0-.1-.264.562.562,0,0,0-.214-.144,1.03,1.03,0,0,0-.223-.06.928.928,0,0,0-.123-.012,1.313,1.313,0,0,0-.363.071,2.758,2.758,0,0,0-.44.183,1.693,1.693,0,0,0-.37.252.414.414,0,0,0-.156.278.172.172,0,0,0,.008.06.124.124,0,0,0,.034.048A.531.531,0,0,0,49.682,4l.125.078a.229.229,0,0,1,.065.126,1.351,1.351,0,0,1,.033.21c.007.076.011.154.012.222s0,.126,0,.162Zm2.033,1.553H49.535v-.9h2.049Zm.016,1.6H49.535V7.044H51.6Zm22.158.993c.024-.08.052-.176.081-.282s.058-.223.084-.344.049-.247.066-.371a2.792,2.792,0,0,0,.027-.363,1.011,1.011,0,0,0-.16-.574,1.047,1.047,0,0,0-.39-.341,1.751,1.751,0,0,0-.483-.164,2.353,2.353,0,0,0-.44-.042,2.248,2.248,0,0,0-.266.016,1.429,1.429,0,0,0-.242.049.535.535,0,0,0-.176.085.158.158,0,0,0-.068.124.289.289,0,0,0,.031.069c.019.035.044.08.07.125s.053.091.076.128l.049.078c.02.04.039.077.056.114a1.062,1.062,0,0,1,.046.111.743.743,0,0,1,.031.123.925.925,0,0,1,.011.15c0,.044,0,.1,0,.158s-.008.13-.016.206-.019.159-.034.248-.034.184-.058.284q-.426-.156-.856-.276t-.862-.2q-.432-.084-.868-.132t-.874-.06c.268-.536.509-1.01.736-1.441s.438-.821.647-1.189.416-.715.632-1.063.443-.694.691-1.063l.125-.192c.032-.05.056-.089.073-.122a.359.359,0,0,0,.034-.089.422.422,0,0,0,.008-.093.651.651,0,0,0-.115-.363,1.056,1.056,0,0,0-.291-.283,1.513,1.513,0,0,0-.384-.184,1.323,1.323,0,0,0-.395-.066.688.688,0,0,0-.149.013.665.665,0,0,0-.152.055c-.058.028-.127.067-.218.121s-.2.123-.347.211a2.439,2.439,0,0,1-.61.245,8.229,8.229,0,0,1-.813.181c-.279.049-.554.087-.786.112s-.421.038-.529.038a1.666,1.666,0,0,1-.188-.02c-.084-.012-.183-.028-.282-.044L66,2.582a1.614,1.614,0,0,0-.179-.02.2.2,0,0,0-.087.022.321.321,0,0,0-.145.147.242.242,0,0,0-.024.1.77.77,0,0,0,.135.407,1.578,1.578,0,0,0,.335.365,1.9,1.9,0,0,0,.428.263,1.072,1.072,0,0,0,.415.1.794.794,0,0,0,.2-.023,1.841,1.841,0,0,0,.281-.1c.121-.052.277-.125.488-.227s.479-.233.823-.4c.028-.016.061-.034.1-.052s.073-.036.11-.052a1.007,1.007,0,0,1,.107-.04.32.32,0,0,1,.087-.016.118.118,0,0,1,.04.006.056.056,0,0,1,.025.016.061.061,0,0,1,.013.025.133.133,0,0,1,0,.033,3.1,3.1,0,0,1-.226.818c-.14.376-.333.836-.547,1.318s-.449.984-.673,1.447-.436.885-.6,1.205a8.467,8.467,0,0,0-1.9.489,4.319,4.319,0,0,0-1.153.66,2.327,2.327,0,0,0-.571.666,1.11,1.11,0,0,0-.154.507,1.07,1.07,0,0,0,.146.562,1.112,1.112,0,0,0,.388.377,1.853,1.853,0,0,0,.553.212,2.974,2.974,0,0,0,.642.066,2.92,2.92,0,0,0,.93-.12,1.751,1.751,0,0,0,.7-.441,5.081,5.081,0,0,0,.671-.885c.243-.383.517-.86.858-1.452a4.5,4.5,0,0,1,1.057.04,7.543,7.543,0,0,1,1.022.229c.321.094.616.2.863.295s.448.182.58.238a6.871,6.871,0,0,1-.953,1.885,6.013,6.013,0,0,1-1.136,1.189,5.592,5.592,0,0,1-1,.636,4.073,4.073,0,0,1-.557.228c-.224.076-.394.134-.523.18s-.217.079-.277.1a.355.355,0,0,0-.109.063.067.067,0,0,0-.019.054.123.123,0,0,0,.035.088.23.23,0,0,0,.091.054.588.588,0,0,0,.124.027,1.154,1.154,0,0,0,.134.007,5.246,5.246,0,0,0,.918-.088,7.588,7.588,0,0,0,.845-.2c.259-.078.491-.161.68-.235s.335-.138.423-.178a5.424,5.424,0,0,0,1.255-.792,5.577,5.577,0,0,0,.857-.907,6.1,6.1,0,0,0,.53-.838c.13-.247.217-.453.273-.585l.415.232c.108.061.191.109.26.15s.125.076.179.111.107.071.171.115c.248.168.455.309.633.426s.325.21.454.282a1.9,1.9,0,0,0,.343.156.961.961,0,0,0,.3.048.889.889,0,0,0,.223-.033,1.048,1.048,0,0,0,.241-.1.638.638,0,0,0,.193-.16.359.359,0,0,0,.079-.222,1.326,1.326,0,0,0-.055-.3,2.175,2.175,0,0,0-.19-.467,1.474,1.474,0,0,0-.364-.443,1.058,1.058,0,0,0-.577-.23,2.511,2.511,0,0,1-.421-.092c-.16-.047-.334-.107-.508-.173s-.348-.138-.508-.209S73.874,9.01,73.758,8.95Zm-6.852-.432c-.168.308-.321.588-.465.835a6.585,6.585,0,0,1-.411.636,1.849,1.849,0,0,1-.393.4.7.7,0,0,1-.411.142.319.319,0,0,1-.072-.009.307.307,0,0,1-.1-.041.249.249,0,0,1-.084-.092.34.34,0,0,1-.036-.162,1.033,1.033,0,0,1,.148-.509,1.925,1.925,0,0,1,.411-.486,3.11,3.11,0,0,1,.624-.417A3.972,3.972,0,0,1,66.906,8.517ZM83.14,12.888c-.032,0-.1-.005-.177-.013l-.276-.028-.282-.028c-.085-.008-.155-.013-.195-.013a.148.148,0,0,0-.045.006.1.1,0,0,0-.036.02.089.089,0,0,0-.024.035.142.142,0,0,0-.009.051.764.764,0,0,0,.2.29,3.794,3.794,0,0,0,1.356.935,2.753,2.753,0,0,0,1.008.2,2.029,2.029,0,0,0,.857-.174,1.66,1.66,0,0,0,.622-.5,2.247,2.247,0,0,0,.378-.782,3.842,3.842,0,0,0,.128-1.029c0-.1,0-.3-.01-.541s-.014-.539-.022-.834-.016-.592-.022-.843-.01-.456-.01-.568h5.8a2.054,2.054,0,0,0,.3-.022,1.3,1.3,0,0,0,.307-.082.614.614,0,0,0,.238-.166.416.416,0,0,0,.1-.274,1.027,1.027,0,0,0-.126-.473,1.607,1.607,0,0,0-.32-.416,1.693,1.693,0,0,0-.425-.3,1.043,1.043,0,0,0-.442-.113A.941.941,0,0,0,91.7,7.3a1.774,1.774,0,0,0-.351.175,1.848,1.848,0,0,0-.33.268,1.337,1.337,0,0,0-.244.342l-.748.012-.853.012-1.105.012-1.5.012L86.55,5.764h3.906a2.423,2.423,0,0,0,.29-.017,1.552,1.552,0,0,0,.326-.073.679.679,0,0,0,.266-.16.389.389,0,0,0,.11-.278.945.945,0,0,0-.123-.451,1.449,1.449,0,0,0-.311-.383,1.616,1.616,0,0,0-.41-.266,1.056,1.056,0,0,0-.421-.1.9.9,0,0,0-.3.058,1.312,1.312,0,0,0-.309.164,1.507,1.507,0,0,0-.279.257,1.453,1.453,0,0,0-.213.337l-.494,0-.758.006-.764.006-.512,0c0-.164,0-.305,0-.443s.005-.272.009-.424.009-.319.015-.523.013-.444.021-.74c.2-.044.413-.089.626-.137s.43-.1.65-.152.443-.112.668-.176.452-.133.68-.209c.136-.048.271-.1.4-.156a2,2,0,0,0,.343-.192.892.892,0,0,0,.241-.246.589.589,0,0,0,.091-.318.794.794,0,0,0-.161-.464,1.485,1.485,0,0,0-.394-.365A2.153,2.153,0,0,0,89.25.086,1.5,1.5,0,0,0,88.792,0a1.015,1.015,0,0,0-.143.009A1.03,1.03,0,0,0,88.4.074a1.015,1.015,0,0,0-.287.176,1.206,1.206,0,0,0-.269.342c-.837.336-1.593.6-2.291.8a18.941,18.941,0,0,1-1.941.459c-.6.109-1.17.181-1.722.234s-1.089.088-1.634.124c-.176.012-.313.021-.42.03a1.928,1.928,0,0,0-.237.03.19.19,0,0,0-.1.048.119.119,0,0,0-.024.084c0,.132.177.233.451.31a6.242,6.242,0,0,0,1.028.168c.385.037.786.058,1.121.069s.606.013.73.013c.228,0,.424,0,.6,0s.327-.007.468-.014.271-.017.4-.029.255-.029.391-.049c.012.164.022.327.03.491s.015.327.02.492.009.332.011.5,0,.341,0,.518h-2.6l-.379,0c-.128,0-.254-.005-.367-.01s-.213-.011-.289-.019l-.135-.027-.211-.043c-.075-.015-.151-.03-.214-.04a1.074,1.074,0,0,0-.144-.018.648.648,0,0,0-.307.081A.907.907,0,0,0,79.824,5a1.045,1.045,0,0,0-.174.284.821.821,0,0,0-.064.306.467.467,0,0,0,.047.206.488.488,0,0,0,.122.156.562.562,0,0,0,.36.134,1.239,1.239,0,0,0,.213-.036c.1-.022.21-.051.325-.081l.328-.087c.1-.026.178-.046.222-.054s.092-.015.148-.021.119-.011.193-.015.159-.007.259-.009.214,0,.346,0h2.594V8.133L83.9,8.128l-1.3-.011L81.29,8.106,80.418,8.1h-.135l-.2,0c-.073,0-.149-.005-.218-.01s-.132-.011-.18-.019a1.363,1.363,0,0,1-.14-.015l-.222-.033-.225-.033a1.415,1.415,0,0,0-.149-.015.579.579,0,0,0-.309.093.9.9,0,0,0-.243.233,1.194,1.194,0,0,0-.159.3.919.919,0,0,0-.057.3.473.473,0,0,0,.05.215.488.488,0,0,0,.132.161.607.607,0,0,0,.189.1.708.708,0,0,0,.221.035,1.257,1.257,0,0,0,.2-.033c.093-.02.206-.048.319-.077s.227-.06.322-.086l.212-.06a1.536,1.536,0,0,1,.159-.028c.055-.007.112-.011.175-.014s.132,0,.208-.005h.258l4.083-.032v2.129a3.984,3.984,0,0,1-.041.614,1.72,1.72,0,0,1-.167.539.941.941,0,0,1-.359.383,1.206,1.206,0,0,1-.617.146Zm21.886-5.123c0-.436.008-.8.012-1.122s.008-.586.012-.821.008-.438.012-.626.008-.361.012-.537h3.6c.056,0,.123,0,.192-.006a.753.753,0,0,0,.2-.044.354.354,0,0,0,.162-.119.381.381,0,0,0,.066-.231.715.715,0,0,0-.117-.365,1.44,1.44,0,0,0-.293-.335,1.655,1.655,0,0,0-.38-.245.939.939,0,0,0-.378-.1.56.56,0,0,0-.2.042.914.914,0,0,0-.22.128,1.39,1.39,0,0,0-.22.215,1.953,1.953,0,0,0-.2.3H105.09c0-.068.008-.2.012-.375s.008-.376.012-.584.008-.416.012-.593.008-.322.012-.4c0-.036,0-.108.013-.2s.018-.2.028-.308.02-.219.028-.311.013-.167.013-.207a1.475,1.475,0,0,0-.011-.211.61.61,0,0,0-.077-.231A.476.476,0,0,0,104.921.3a.941.941,0,0,0-.407-.076,1.547,1.547,0,0,0-.482.1,2.84,2.84,0,0,0-.53.251,1.925,1.925,0,0,0-.428.341.581.581,0,0,0-.176.368.189.189,0,0,0,.019.081.328.328,0,0,0,.051.075.65.65,0,0,0,.072.069c.026.022.054.043.082.063a.851.851,0,0,1,.1.071.179.179,0,0,1,.049.062.255.255,0,0,1,.019.08c0,.033.006.073.01.125.012.288.023.677.033,1.129s.019.967.027,1.506.015,1.1.021,1.653.011,1.086.015,1.571h-.48a.557.557,0,0,0-.1-.187.6.6,0,0,0-.157-.13.734.734,0,0,0-.19-.076.853.853,0,0,0-.2-.025,1.073,1.073,0,0,0-.382.087,1.953,1.953,0,0,0-.4.222,1.482,1.482,0,0,0-.319.3.552.552,0,0,0-.13.321.219.219,0,0,0,.008.064.213.213,0,0,0,.03.061.844.844,0,0,0,.063.079l.107.118c.012.124.015.446.013.866s-.01.936-.019,1.448-.02,1.021-.028,1.424-.014.7-.014.793a2.538,2.538,0,0,0,.011.285.658.658,0,0,0,.074.252.425.425,0,0,0,.2.18.93.93,0,0,0,.389.069,1.209,1.209,0,0,0,.365-.061,1.38,1.38,0,0,0,.335-.16.948.948,0,0,0,.245-.226.445.445,0,0,0,.1-.259v-.752h3.074v.352a1.019,1.019,0,0,0,.012.189.373.373,0,0,0,.084.181.483.483,0,0,0,.228.136,1.512,1.512,0,0,0,.444.054,1.785,1.785,0,0,0,.313-.033,1.766,1.766,0,0,0,.393-.12.937.937,0,0,0,.336-.24.592.592,0,0,0,.142-.393c0-.008-.009-.207-.023-.51s-.032-.71-.05-1.135-.036-.866-.05-1.237-.023-.672-.023-.817c0-.072,0-.128,0-.173s0-.079,0-.107a.5.5,0,0,1,.01-.071.6.6,0,0,1,.019-.065c.028-.064.05-.114.067-.155s.03-.072.039-.1a.4.4,0,0,0,.018-.072.513.513,0,0,0,0-.074.551.551,0,0,0-.09-.3.827.827,0,0,0-.231-.233,1.174,1.174,0,0,0-.315-.152,1.154,1.154,0,0,0-.342-.054,1.128,1.128,0,0,0-.167.014,1.23,1.23,0,0,0-.231.059,1.062,1.062,0,0,0-.252.131.957.957,0,0,0-.23.23Zm-8.485-4a.481.481,0,0,0-.079-.175.456.456,0,0,0-.13-.119.577.577,0,0,0-.166-.068.778.778,0,0,0-.187-.022,1.042,1.042,0,0,0-.389.1,2.316,2.316,0,0,0-.419.239,1.861,1.861,0,0,0-.335.3.48.48,0,0,0-.137.278.22.22,0,0,0,.006.048.3.3,0,0,0,.015.046.4.4,0,0,0,.021.043c.007.014.016.027.024.039.048.056.084.1.111.14a.488.488,0,0,1,.057.1.334.334,0,0,1,.021.093c0,.033,0,.069,0,.113,0,.2-.013.6-.033,1.082s-.046,1.058-.072,1.621S94.8,8.735,94.78,9.177s-.033.773-.033.893a.49.49,0,0,0,.073.267A.523.523,0,0,0,95,10.5a.814.814,0,0,0,.392.11.96.96,0,0,0,.277-.043,1.113,1.113,0,0,0,.281-.131,1.159,1.159,0,0,0,.254-.224,1.237,1.237,0,0,0,.2-.322,1.165,1.165,0,0,0,.056-.306c.014-.143.023-.317.029-.495s.009-.36.011-.519,0-.294,0-.378c0-.1,0-.307.005-.561s.007-.557.011-.862.008-.612.011-.871,0-.472,0-.588c0-.18,0-.321,0-.432s0-.192.011-.252a.373.373,0,0,1,.029-.126.114.114,0,0,1,.056-.054.29.29,0,0,1,.079,0c.041,0,.092,0,.143.006l.14.009.07,0c-.008.889-.019,1.708-.032,2.452s-.027,1.413-.042,2-.031,1.093-.045,1.511-.029.748-.041.984c0,.084-.012.255-.022.466s-.021.461-.032.7-.022.476-.029.655-.013.3-.013.322a1.18,1.18,0,0,0,.01.17.648.648,0,0,0,.068.218.465.465,0,0,0,.185.188.73.73,0,0,0,.361.08,1.225,1.225,0,0,0,.2-.018,1.5,1.5,0,0,0,.221-.056,1.559,1.559,0,0,0,.224-.095,1.454,1.454,0,0,0,.214-.135,1.183,1.183,0,0,0,.225-.213.74.74,0,0,0,.12-.217.985.985,0,0,0,.048-.238c.008-.085.009-.176.009-.276,0-.116-.006-.359-.015-.668s-.022-.684-.035-1.063-.027-.763-.038-1.09-.02-.6-.024-.749a2.992,2.992,0,0,0,.194.355,1.808,1.808,0,0,0,.251.313,1.129,1.129,0,0,0,.317.223.927.927,0,0,0,.392.085,1.033,1.033,0,0,0,.629-.18.966.966,0,0,0,.323-.446,2.116,2.116,0,0,0,.119-.569c.017-.194.017-.385.017-.55,0-.136,0-.405-.01-.742s-.014-.741-.022-1.147-.016-.815-.022-1.159-.01-.626-.01-.778c0-.1,0-.171,0-.233a.987.987,0,0,1,.014-.152.454.454,0,0,1,.038-.116,1.042,1.042,0,0,1,.074-.125.158.158,0,0,0,.019-.029.487.487,0,0,0,.027-.056.5.5,0,0,0,.024-.074.362.362,0,0,0,.01-.083.485.485,0,0,0-.1-.281.936.936,0,0,0-.246-.229,1.35,1.35,0,0,0-.318-.154,1.026,1.026,0,0,0-.315-.056.827.827,0,0,0-.319.063.907.907,0,0,0-.241.15,1.187,1.187,0,0,0-.169.18,1.583,1.583,0,0,0-.1.153h-.528c.024-.512.045-.928.063-1.263s.033-.59.045-.781.021-.319.027-.4.009-.115.009-.119c0-.02.01-.055.017-.1s.014-.093.021-.143.014-.1.018-.143.008-.078.008-.1a.447.447,0,0,0-.088-.278.542.542,0,0,0-.208-.16.978.978,0,0,0-.244-.073,1.207,1.207,0,0,0-.2-.017,1.273,1.273,0,0,0-.452.1,2.347,2.347,0,0,0-.464.251,1.809,1.809,0,0,0-.362.323.54.54,0,0,0-.146.317.264.264,0,0,0,.043.1c.026.044.061.1.1.148l.1.148a.7.7,0,0,1,.061.1,2.048,2.048,0,0,1,.04.379c.011.2.019.441.025.685s.01.486.013.673,0,.319,0,.343Zm9.446,4.659c0,.116,0,.346,0,.634s0,.634.006.983,0,.7.006.995,0,.538,0,.67H102.88V10.086c0-.056,0-.164,0-.3s0-.29,0-.444,0-.305,0-.426.005-.211.009-.243a.485.485,0,0,1,.034-.108.275.275,0,0,1,.055-.081.219.219,0,0,1,.079-.051.3.3,0,0,1,.106-.018ZM99.2,4.467c0,.032,0,.1,0,.179s0,.181.006.281,0,.2.006.287,0,.157,0,.2V8.405c0,.088,0,.189-.008.291a1.8,1.8,0,0,1-.041.3.592.592,0,0,1-.1.231.231.231,0,0,1-.188.093.646.646,0,0,1-.086-.008l-.1-.017-.081-.017-.041-.008c0-.632.007-1.16.009-1.617s0-.845.007-1.2,0-.672.007-.991.006-.64.01-1ZM117,6.132c-.024-.168-.043-.3-.058-.405s-.026-.191-.034-.267-.013-.144-.016-.219,0-.157,0-.261c0-.08,0-.188,0-.324s.009-.3.021-.494.03-.415.057-.665.063-.53.111-.838c0-.016.012-.062.022-.123s.021-.136.032-.211.022-.15.029-.208.013-.1.013-.114a.794.794,0,0,0-.229-.523,2.089,2.089,0,0,0-.547-.416,3.44,3.44,0,0,0-.655-.275,2.049,2.049,0,0,0-.553-.1.444.444,0,0,0-.151.029A.527.527,0,0,0,114.9.8a.429.429,0,0,0-.109.126.335.335,0,0,0-.043.164.183.183,0,0,0,.017.07.7.7,0,0,0,.049.091c.021.034.047.072.076.115l.1.142a2.426,2.426,0,0,1,.2.319,1.533,1.533,0,0,1,.126.411,6,6,0,0,1,.072.726c.017.319.028.729.036,1.265,0,.328.008.678.033,1.019a4.46,4.46,0,0,0,.161.962,1.559,1.559,0,0,0,.416.716,1.141,1.141,0,0,0,.8.281.777.777,0,0,0,.21-.027.6.6,0,0,0,.176-.081.633.633,0,0,0,.143-.135.9.9,0,0,0,.111-.189,3.461,3.461,0,0,1,.557-.9,2.13,2.13,0,0,1,.562-.461,1.587,1.587,0,0,1,.451-.17,1.092,1.092,0,0,1,.224-.024.424.424,0,0,1,.224.061.511.511,0,0,1,.149.141.672.672,0,0,1,.083.156.359.359,0,0,1,.026.106.5.5,0,0,1-.132.315,1.858,1.858,0,0,1-.382.333,6.757,6.757,0,0,1-.614.369c-.241.131-.517.271-.825.423a19.837,19.837,0,0,0-1.8,1,7.42,7.42,0,0,0-1.187.912,3.052,3.052,0,0,0-.653.879,2.093,2.093,0,0,0-.2.9,1.614,1.614,0,0,0,.121.6,2.026,2.026,0,0,0,.6.8,3.752,3.752,0,0,0,1.418.7,9.634,9.634,0,0,0,2.589.3c.22,0,.548,0,.917-.023a11.212,11.212,0,0,0,1.158-.115,3.738,3.738,0,0,0,.993-.274c.258-.125.422-.288.422-.5a.76.76,0,0,0-.12-.395,1.264,1.264,0,0,0-.312-.338,1.629,1.629,0,0,0-.432-.236,1.422,1.422,0,0,0-.48-.089.771.771,0,0,0-.177.025c-.066.016-.138.038-.216.065s-.162.059-.252.092-.185.07-.285.106a2.577,2.577,0,0,1-.4.116,4.391,4.391,0,0,1-.456.068c-.159.016-.325.026-.495.032s-.344.008-.52.008c-.252,0-.531,0-.808-.028a3.246,3.246,0,0,1-.795-.158,1.336,1.336,0,0,1-.606-.4,1.163,1.163,0,0,1-.241-.757,1.665,1.665,0,0,1,.356-.993,3.8,3.8,0,0,1,.946-.862,8.756,8.756,0,0,1,1.352-.727,15.854,15.854,0,0,1,1.572-.588c.32-.1.6-.186.828-.269a3.436,3.436,0,0,0,.573-.251.937.937,0,0,0,.333-.3A.75.75,0,0,0,121.628,6a.915.915,0,0,0-.177-.517A1.759,1.759,0,0,0,121,5.053a2.443,2.443,0,0,0-.591-.3,1.907,1.907,0,0,0-.609-.111,2.47,2.47,0,0,0-.309.023,3.747,3.747,0,0,0-1.6.6A3.675,3.675,0,0,0,117,6.132Zm20.4,4.339c0-.1,0-.189,0-.279s-.008-.181-.016-.285-.019-.221-.034-.363-.034-.309-.058-.513c-.032-.3-.057-.585-.077-.846s-.034-.5-.044-.721-.016-.424-.02-.61,0-.356,0-.513c.372-.124.684-.228.943-.322a5.281,5.281,0,0,0,.624-.26,1.049,1.049,0,0,0,.344-.257.481.481,0,0,0,.106-.313.456.456,0,0,0-.113-.3.8.8,0,0,0-.275-.2,1.527,1.527,0,0,0-.341-.108,1.654,1.654,0,0,0-.311-.033.5.5,0,0,0-.065,0,.6.6,0,0,0-.08.016,1.07,1.07,0,0,0-.1.034c-.04.015-.085.034-.137.058l-.114.061-.164.089L137.3,4.9c-.047.025-.085.044-.105.052.008-.148.017-.283.029-.418s.028-.27.049-.418.048-.309.082-.5.076-.4.128-.652a.51.51,0,0,1,.008-.063c0-.028.011-.062.017-.095s.012-.066.017-.092a.481.481,0,0,0,.007-.054.739.739,0,0,0-.153-.438A1.371,1.371,0,0,0,137,1.881a2.047,2.047,0,0,0-.471-.219,1.509,1.509,0,0,0-.441-.078,1.062,1.062,0,0,0-.209.022.836.836,0,0,0-.225.079.5.5,0,0,0-.18.157.445.445,0,0,0-.074.256,1.056,1.056,0,0,0,.031.185c.019.082.044.18.07.277s.053.194.076.274.041.144.049.176a5.309,5.309,0,0,1,.067.559c.017.22.03.464.039.706s.015.482.018.694,0,.395,0,.523c-.06.02-.127.041-.211.061a3.026,3.026,0,0,1-.313.057c-.128.017-.283.032-.475.042s-.421.016-.7.016a3.7,3.7,0,0,1-.408-.024c-.134-.015-.264-.036-.384-.06s-.23-.051-.324-.078a2.022,2.022,0,0,1-.228-.078c-.02-.008-.06-.029-.109-.056l-.165-.092-.156-.086a.4.4,0,0,0-.082-.038.349.349,0,0,0-.054,0,.125.125,0,0,0-.04.013.061.061,0,0,0-.025.025.081.081,0,0,0-.009.04.887.887,0,0,0,.066.3,1.811,1.811,0,0,0,.184.353,1.959,1.959,0,0,0,.283.338,1.467,1.467,0,0,0,.363.256,1.964,1.964,0,0,0,.332.123,2.616,2.616,0,0,0,.332.067c.108.015.212.024.308.028s.184.006.26.006c.2,0,.375-.007.538-.018s.309-.027.439-.044.244-.036.343-.053l.25-.045c0,.28-.007.523-.009.76s0,.467,0,.721,0,.532,0,.865.005.72.009,1.192l-.209-.026c-.078-.009-.162-.018-.248-.026s-.174-.015-.26-.02-.169-.008-.245-.008a4.074,4.074,0,0,0-.8.084,3.6,3.6,0,0,0-.819.266,1.884,1.884,0,0,0-.639.467,1.047,1.047,0,0,0-.258.688.934.934,0,0,0,.229.592,1.943,1.943,0,0,0,.582.46,3.5,3.5,0,0,0,1.591.4c.1,0,.23-.006.368-.019s.288-.034.44-.063a3.784,3.784,0,0,0,.452-.114,2.2,2.2,0,0,0,.4-.172,2,2,0,0,0,.325-.228,1.344,1.344,0,0,0,.209-.23,1.466,1.466,0,0,0,.134-.233c.037-.078.068-.157.1-.237.06.056.116.109.175.168s.12.123.191.2.152.173.248.289.21.257.346.429c.068.084.135.163.2.234a1.52,1.52,0,0,0,.214.188.934.934,0,0,0,.241.125.919.919,0,0,0,.6-.009.74.74,0,0,0,.249-.154.7.7,0,0,0,.165-.238.787.787,0,0,0,.06-.307,1.033,1.033,0,0,0-.184-.556,2.529,2.529,0,0,0-.508-.551,5.707,5.707,0,0,0-.766-.53A10.238,10.238,0,0,0,137.4,10.471Zm-7.381.56c-.036,0-.066-.049-.091-.129a1.921,1.921,0,0,1-.059-.315c-.015-.124-.026-.261-.032-.393s-.01-.259-.01-.363a11.086,11.086,0,0,1,.147-1.723c.089-.561.209-1.1.333-1.569s.252-.885.357-1.2.187-.532.219-.616c.068-.18.126-.332.175-.463s.088-.24.119-.334a2.281,2.281,0,0,0,.068-.244.929.929,0,0,0,.022-.193,1.053,1.053,0,0,0-.165-.526,2.11,2.11,0,0,0-.408-.485,2.342,2.342,0,0,0-.522-.356,1.2,1.2,0,0,0-.507-.138.405.405,0,0,0-.135.027.53.53,0,0,0-.141.078.425.425,0,0,0-.111.126.343.343,0,0,0-.045.171,1.054,1.054,0,0,0,.018.135c.01.062.025.136.039.21s.028.148.039.21a1.051,1.051,0,0,1,.018.135c0,.1-.005.205-.015.31s-.025.213-.045.332-.045.249-.075.4-.065.311-.105.5c-.072.36-.145.737-.214,1.129s-.134.8-.19,1.213-.1.844-.136,1.279-.052.879-.052,1.327a10.185,10.185,0,0,0,.073,1.2,7.227,7.227,0,0,0,.261,1.271,2.887,2.887,0,0,0,.51,1.007,1.059,1.059,0,0,0,.821.41.943.943,0,0,0,.258-.04,1.018,1.018,0,0,0,.272-.124.711.711,0,0,0,.215-.214.576.576,0,0,0,.087-.31c0-.052,0-.15-.01-.271s-.014-.264-.022-.408-.016-.286-.022-.4-.01-.214-.01-.262.009-.14.023-.254.032-.249.05-.384.036-.27.05-.381.023-.2.023-.245a.389.389,0,0,0-.015-.11.253.253,0,0,0-.043-.086.194.194,0,0,0-.07-.056.224.224,0,0,0-.1-.02.237.237,0,0,0-.158.075.812.812,0,0,0-.134.175,2.077,2.077,0,0,0-.1.2c-.029.064-.052.12-.068.156s-.044.106-.071.166a1.917,1.917,0,0,1-.091.178.681.681,0,0,1-.106.142A.174.174,0,0,1,130.017,11.031ZM135.669,11a1.442,1.442,0,0,1-.269.571,1.341,1.341,0,0,1-.4.335,1.575,1.575,0,0,1-.407.158,1.371,1.371,0,0,1-.305.04,1.338,1.338,0,0,1-.284-.032,1.1,1.1,0,0,1-.281-.1.627.627,0,0,1-.215-.179.441.441,0,0,1-.086-.266.531.531,0,0,1,.131-.345,1,1,0,0,1,.327-.245,1.866,1.866,0,0,1,.427-.146,2.044,2.044,0,0,1,.428-.048c.036,0,.093,0,.163,0a1.989,1.989,0,0,1,.241.028,1.414,1.414,0,0,1,.271.076A.923.923,0,0,1,135.669,11Z" fill="#fff"/>
</svg>
