<svg xmlns="http://www.w3.org/2000/svg" width="93.258" height="14.793" viewBox="0 0 93.258 14.793">
  <path id="パス_3650" data-name="パス 3650" d="M13.4,7.06a1.966,1.966,0,0,0-.379-1.179,2.8,2.8,0,0,0-.958-.8,4.956,4.956,0,0,0-1.27-.455,6.221,6.221,0,0,0-1.315-.144,3.3,3.3,0,0,0-.361.021,2.605,2.605,0,0,0-.341.06.983.983,0,0,0-.254.1c-.063.038-.1.081-.1.129a.054.054,0,0,0,.014.043.235.235,0,0,0,.084.046c.047.018.117.04.219.07s.239.067.419.115a4.537,4.537,0,0,1,1.24.512,2.19,2.19,0,0,1,.637.579,1.45,1.45,0,0,1,.235.51,1.274,1.274,0,0,1,.034.3.411.411,0,0,1-.027.155.291.291,0,0,1-.091.122.454.454,0,0,1-.172.08,1.105,1.105,0,0,1-.27.029c-.02,0-.048,0-.079,0a.637.637,0,0,0-.1.016.244.244,0,0,0-.08.034.071.071,0,0,0-.034.058c0,.02.055.063.152.116a2.986,2.986,0,0,0,.4.178,4.1,4.1,0,0,0,.578.163,3.412,3.412,0,0,0,.674.071,1.522,1.522,0,0,0,.475-.071,1.061,1.061,0,0,0,.358-.2.853.853,0,0,0,.226-.294A.874.874,0,0,0,13.4,7.06ZM3.826,8.886c-.464.332-.826.59-1.119.8s-.518.377-.71.523-.351.273-.512.409-.324.28-.524.46a.9.9,0,0,0-.1-.019c-.035,0-.071-.008-.1-.01l-.089,0H.608a.861.861,0,0,0-.21.027.75.75,0,0,0-.2.079.459.459,0,0,0-.145.13.311.311,0,0,0-.057.18.855.855,0,0,0,.092.376,1.129,1.129,0,0,0,.248.328A1.233,1.233,0,0,0,.7,12.4a1.133,1.133,0,0,0,.434.088,1.025,1.025,0,0,0,.437-.091.964.964,0,0,0,.3-.217,1.3,1.3,0,0,0,.186-.259,2.257,2.257,0,0,0,.1-.217c.16.1.3.2.426.284s.233.168.327.248a1.945,1.945,0,0,1,.243.242,1.391,1.391,0,0,1,.174.266c.036.076.066.139.1.191a.456.456,0,0,0,.1.123.326.326,0,0,0,.137.066.913.913,0,0,0,.213.02,1.528,1.528,0,0,0,.767-.176,1.092,1.092,0,0,0,.424-.437,1.746,1.746,0,0,0,.18-.563,3.548,3.548,0,0,0,.038-.554c0-.092-.007-.26-.018-.466s-.025-.448-.039-.689S5.2,9.78,5.189,9.58s-.018-.358-.018-.439c.2-.124.4-.242.6-.349a5.736,5.736,0,0,1,.633-.285,4.287,4.287,0,0,1,.663-.192,3.524,3.524,0,0,1,.693-.07,1.564,1.564,0,0,1,.579.1,1.065,1.065,0,0,1,.416.29,1.254,1.254,0,0,1,.25.468,2.179,2.179,0,0,1,.084.631,2.4,2.4,0,0,1-.1.731,1.426,1.426,0,0,1-.3.532,1.246,1.246,0,0,1-.478.324,1.771,1.771,0,0,1-.643.11,2.985,2.985,0,0,1-.616-.066,3.64,3.64,0,0,1-.541-.16,4.877,4.877,0,0,1-.451-.2c-.134-.067-.25-.131-.346-.183l-.031-.012-.023-.01-.02-.007a.085.085,0,0,0-.022,0,.164.164,0,0,0-.047.007.115.115,0,0,0-.041.022.1.1,0,0,0-.029.04.154.154,0,0,0-.011.061,1.237,1.237,0,0,0,.184.294,4.132,4.132,0,0,0,.52.569,3.429,3.429,0,0,0,.809.554,2.413,2.413,0,0,0,1.049.249,3.455,3.455,0,0,0,1.5-.3,2.529,2.529,0,0,0,.921-.735,2.813,2.813,0,0,0,.464-.9,2.774,2.774,0,0,0,.128-.8,2.063,2.063,0,0,0-.237-.982,2.159,2.159,0,0,0-.638-.723,2.977,2.977,0,0,0-.929-.447,3.974,3.974,0,0,0-1.11-.153,5.339,5.339,0,0,0-.591.032,5.043,5.043,0,0,0-.7.128,5.175,5.175,0,0,0-.787.272,5.73,5.73,0,0,0-.852.464q0-.21,0-.444T5.133,7.5q0-.255.01-.531t.012-.57c.46-.172.834-.311,1.134-.43a7.151,7.151,0,0,0,.7-.308A1.116,1.116,0,0,0,7.346,5.4a.447.447,0,0,0,.1-.295.558.558,0,0,0-.1-.3A.947.947,0,0,0,7.1,4.553a1.3,1.3,0,0,0-.331-.168,1.1,1.1,0,0,0-.349-.062.683.683,0,0,0-.083,0,.565.565,0,0,0-.115.026,1,1,0,0,0-.16.071,2.111,2.111,0,0,0-.218.139c-.028.02-.078.059-.139.107l-.2.163-.2.16c-.059.046-.106.082-.13.1.016-.2.034-.4.054-.6s.041-.4.064-.585.048-.353.073-.5a2.168,2.168,0,0,1,.081-.333c0-.012.013-.033.024-.058l.038-.084c.013-.029.026-.058.035-.081A.193.193,0,0,0,5.555,2.8a.609.609,0,0,0-.165-.387A1.587,1.587,0,0,0,5,2.093a2.456,2.456,0,0,0-.48-.219A1.413,1.413,0,0,0,4.1,1.793a.483.483,0,0,0-.164.033.635.635,0,0,0-.173.1.528.528,0,0,0-.137.16.461.461,0,0,0-.056.222c0,.052.005.148.013.266s.018.257.029.4.023.278.032.393l.022.257c0,.076.008.219.012.4s.007.385.01.593.005.415.007.587,0,.309,0,.377A5.346,5.346,0,0,1,2.98,5.8a5.752,5.752,0,0,1-.634.119c-.192.025-.362.038-.5.044s-.25.006-.322.006a1.5,1.5,0,0,1-.158-.015l-.232-.033L.9,5.891a1.433,1.433,0,0,0-.149-.015.284.284,0,0,0-.082.011.163.163,0,0,0-.055.027.11.11,0,0,0-.031.036.084.084,0,0,0-.01.038.471.471,0,0,0,.109.171,1.814,1.814,0,0,0,.329.3,2.153,2.153,0,0,0,.555.284,2.408,2.408,0,0,0,.784.126c.16,0,.319-.009.47-.023s.294-.033.422-.053.241-.041.332-.059l.2-.041Zm.032,1.441c0,.26,0,.481,0,.667a3.52,3.52,0,0,1-.033.452.573.573,0,0,1-.09.257.207.207,0,0,1-.176.081,1.008,1.008,0,0,1-.174-.064c-.092-.039-.211-.091-.332-.145L2.7,11.419l-.219-.1c.052-.072.1-.134.154-.2s.123-.145.216-.245.213-.224.375-.389.367-.371.632-.635Zm21.1-8.982a.666.666,0,0,0-.148-.333.636.636,0,0,0-.242-.171.956.956,0,0,0-.251-.063,1.429,1.429,0,0,0-.175-.009A1.2,1.2,0,0,0,23.7.862a1.764,1.764,0,0,0-.408.233,1.429,1.429,0,0,0-.3.3.548.548,0,0,0-.117.3.208.208,0,0,0,.008.063.188.188,0,0,0,.032.059.706.706,0,0,0,.068.074c.03.029.068.064.116.108a.43.43,0,0,1,.042.048.3.3,0,0,1,.03.05.248.248,0,0,1,.018.053.266.266,0,0,1,.006.057v.256c0,.516,0,.918,0,1.237s0,.556,0,.744,0,.327,0,.45-.005.23-.009.354c0,.048,0,.137-.008.246s-.011.239-.017.368-.012.258-.017.365-.008.193-.008.237a.369.369,0,0,0,.091.252.515.515,0,0,0,.2.134,1.022,1.022,0,0,0,.33.062,1.1,1.1,0,0,0,.251-.036,1.816,1.816,0,0,0,.3-.1,1.532,1.532,0,0,0,.294-.171.912.912,0,0,0,.224-.234h2.4v5.3a4.9,4.9,0,0,1-.063.863,1.588,1.588,0,0,1-.211.586.874.874,0,0,1-.395.334,1.532,1.532,0,0,1-.612.106c-.044,0-.127,0-.229-.008l-.341-.017-.332-.017c-.1,0-.17-.008-.2-.008h-.091a.285.285,0,0,0-.059.007.056.056,0,0,0-.032.019.06.06,0,0,0-.01.037,1.031,1.031,0,0,0,.178.21,3.9,3.9,0,0,0,.489.416,3.454,3.454,0,0,0,.732.407,2.452,2.452,0,0,0,.907.183,2.531,2.531,0,0,0,.7-.1,1.92,1.92,0,0,0,.69-.355,1.813,1.813,0,0,0,.525-.718,3,3,0,0,0,.2-1.185l-.048-5.507V2.417a.6.6,0,0,1,.017-.121c.011-.048.026-.1.044-.165s.039-.128.062-.2.047-.144.071-.22a.283.283,0,0,0,.012-.027.306.306,0,0,0,.01-.033.331.331,0,0,0,.007-.039.364.364,0,0,0,0-.045.571.571,0,0,0-.11-.309,1.294,1.294,0,0,0-.276-.289A1.589,1.589,0,0,0,28.5.756.989.989,0,0,0,28.13.672a1.033,1.033,0,0,0-.145.011A1.241,1.241,0,0,0,27.7.756a1.154,1.154,0,0,0-.332.2,1.234,1.234,0,0,0-.3.389Zm-3.41,6.612a.362.362,0,0,0-.1-.172.549.549,0,0,0-.17-.114.926.926,0,0,0-.209-.063,1.2,1.2,0,0,0-.213-.019,1.164,1.164,0,0,0-.407.087,1.885,1.885,0,0,0-.412.223,1.428,1.428,0,0,0-.318.3.575.575,0,0,0-.128.33.118.118,0,0,0,.008.045.226.226,0,0,0,.032.053c.016.021.038.047.068.08l.116.126a.144.144,0,0,1,.04.069.7.7,0,0,1,.025.109c.006.039.01.079.013.112s0,.062,0,.078c0,.136-.007.387-.018.695s-.025.672-.039,1.034-.028.722-.039,1.022-.018.539-.018.659a1.309,1.309,0,0,0,.01.2.367.367,0,0,0,.07.174.385.385,0,0,0,.19.123,1.2,1.2,0,0,0,.37.047,1.28,1.28,0,0,0,.332-.052,1.679,1.679,0,0,0,.356-.145,1.013,1.013,0,0,0,.284-.223.444.444,0,0,0,.116-.286v-.512h2.257c0,.156-.008.292,0,.409a.754.754,0,0,0,.062.29.35.35,0,0,0,.188.173.982.982,0,0,0,.377.057,1.7,1.7,0,0,0,.275-.024,1.873,1.873,0,0,0,.279-.069,1.566,1.566,0,0,0,.258-.111,1.041,1.041,0,0,0,.212-.15.783.783,0,0,0,.1-.12.381.381,0,0,0,.052-.117.712.712,0,0,0,.019-.147c0-.058,0-.126,0-.21,0-.036,0-.215-.01-.471s-.014-.589-.022-.932-.016-.7-.022-.995-.01-.54-.01-.66a1.349,1.349,0,0,1,.015-.146c.009-.065.021-.143.033-.22s.024-.154.033-.217a1.294,1.294,0,0,0,.015-.137.426.426,0,0,0-.093-.26.79.79,0,0,0-.231-.2,1.268,1.268,0,0,0-.3-.125,1.108,1.108,0,0,0-.291-.044.957.957,0,0,0-.209.025,1.155,1.155,0,0,0-.227.077,1.119,1.119,0,0,0-.221.134,1.008,1.008,0,0,0-.191.2ZM18.187,1.345a.468.468,0,0,0-.108-.276.588.588,0,0,0-.213-.154.966.966,0,0,0-.225-.067A.9.9,0,0,0,17.5.833a1.165,1.165,0,0,0-.449.118,2.743,2.743,0,0,0-.488.288,2.266,2.266,0,0,0-.392.357.572.572,0,0,0-.161.325.149.149,0,0,0,.029.073.836.836,0,0,0,.073.093c.029.033.062.068.094.1s.064.068.092.1a.234.234,0,0,1,.038.032.307.307,0,0,1,.036.046.261.261,0,0,1,.027.055.18.18,0,0,1,.011.059V5.315c0,.608,0,1.229-.011,1.844s-.016,1.225-.027,1.812-.024,1.152-.036,1.677-.026,1.01-.038,1.439c0,.084-.013.248-.024.449s-.025.439-.038.671-.026.458-.035.635-.015.305-.015.341a.7.7,0,0,0,.046.257.534.534,0,0,0,.127.191.548.548,0,0,0,.193.119.705.705,0,0,0,.244.041,1.28,1.28,0,0,0,.375-.074,2.229,2.229,0,0,0,.45-.208A1.446,1.446,0,0,0,18,14.192a.654.654,0,0,0,.159-.408c0-.02,0-.126-.01-.278s-.014-.351-.022-.556-.016-.417-.022-.6-.01-.323-.01-.4V6.34h2.193c0,.108.007.2.018.277a.418.418,0,0,0,.064.189.293.293,0,0,0,.163.108,1.118,1.118,0,0,0,.315.034,1.871,1.871,0,0,0,.244-.025,2.294,2.294,0,0,0,.412-.1A1.112,1.112,0,0,0,21.89,6.6a.517.517,0,0,0,.172-.385c0-.068,0-.194-.005-.349s-.007-.338-.011-.52-.008-.363-.011-.514-.005-.271-.005-.331l-.016-2.321a1.162,1.162,0,0,1,.018-.146c.011-.065.025-.143.039-.22s.028-.154.039-.217a1.117,1.117,0,0,0,.018-.137.531.531,0,0,0-.086-.29.75.75,0,0,0-.22-.216,1.1,1.1,0,0,0-.295-.135,1.115,1.115,0,0,0-.311-.047,1.244,1.244,0,0,0-.306.038,1.2,1.2,0,0,0-.284.112,1.138,1.138,0,0,0-.245.181,1.091,1.091,0,0,0-.189.245ZM24.88,3.506V2.241a.1.1,0,0,1,.022-.059.22.22,0,0,1,.055-.051.307.307,0,0,1,.073-.036.237.237,0,0,1,.076-.014h2.129V3.506Zm0,2.1V4.227h2.353V5.6Zm-6.788-2.1V2.273a.138.138,0,0,1,.015-.057.231.231,0,0,1,.045-.063.242.242,0,0,1,.075-.051.262.262,0,0,1,.105-.021H20.3V3.506Zm0,2.1V4.211h2.225V5.6Zm3.41,5.6V8.886a.309.309,0,0,1,.01-.076.251.251,0,0,1,.031-.073.167.167,0,0,1,.055-.055.156.156,0,0,1,.082-.022h2.113v2.546ZM45.468,8.261a2.329,2.329,0,0,0-.306-1.1,3.656,3.656,0,0,0-.867-1.04,4.517,4.517,0,0,0-1.353-.776,5.122,5.122,0,0,0-1.765-.3,5.177,5.177,0,0,0-.611.039,4.979,4.979,0,0,0-.58.1,2.08,2.08,0,0,0-.433.148c-.107.055-.17.114-.17.174a.091.091,0,0,0,.028.076.286.286,0,0,0,.126.049c.065.014.157.027.285.043l.506.058a3.789,3.789,0,0,1,.595.1,2.884,2.884,0,0,1,.79.34,3.455,3.455,0,0,1,.862.776,5.7,5.7,0,0,1,.811,1.408c.076.184.139.338.2.466a1.507,1.507,0,0,0,.179.307.542.542,0,0,0,.218.169.818.818,0,0,0,.316.052,1.006,1.006,0,0,0,.433-.1,1.411,1.411,0,0,0,.374-.265,1.388,1.388,0,0,0,.263-.352A.821.821,0,0,0,45.468,8.261Zm-7.413-.736c-.2.508-.358.928-.493,1.273s-.242.618-.329.832-.154.37-.206.484a1.456,1.456,0,0,1-.124.229.758.758,0,0,1-.088.1.522.522,0,0,1-.1.07.446.446,0,0,1-.109.043.5.5,0,0,1-.124.015.8.8,0,0,1-.2-.028,1.34,1.34,0,0,1-.205-.073,1.967,1.967,0,0,1-.2-.1c-.064-.038-.125-.078-.181-.118a2.335,2.335,0,0,1-.646-.7,3.7,3.7,0,0,1-.391-.9,5.9,5.9,0,0,1-.193-.975,7.965,7.965,0,0,1-.052-.915c0-.18.005-.348.014-.507s.021-.307.036-.448.033-.275.051-.4.039-.251.059-.371c0-.016.012-.062.022-.123s.021-.136.032-.211.022-.15.029-.208.013-.1.013-.114a.737.737,0,0,0-.2-.463,1.953,1.953,0,0,0-.476-.394,2.949,2.949,0,0,0-.584-.274,1.714,1.714,0,0,0-.521-.1.758.758,0,0,0-.138.012.5.5,0,0,0-.147.05.307.307,0,0,0-.117.107.339.339,0,0,0-.048.183.614.614,0,0,0,.038.156c.023.068.053.147.083.226s.06.158.083.223a.59.59,0,0,1,.038.147c.016.66.031,1.247.059,1.78s.069,1.012.137,1.458a7.3,7.3,0,0,0,.3,1.26,6.379,6.379,0,0,0,.545,1.185,5.9,5.9,0,0,0,.69.938,5.61,5.61,0,0,0,.843.769,4.133,4.133,0,0,0,.921.52,2.536,2.536,0,0,0,.924.191,1.75,1.75,0,0,0,.443-.057,1.394,1.394,0,0,0,.4-.169.9.9,0,0,0,.285-.28.728.728,0,0,0,.109-.39c0-.048,0-.135-.008-.241s-.011-.232-.017-.357-.012-.25-.017-.354-.008-.188-.008-.232c0-.088,0-.193,0-.312s.006-.251.014-.393.02-.294.038-.453.042-.324.074-.492c.012-.068.027-.149.043-.236s.032-.181.047-.274.029-.186.038-.271a2.086,2.086,0,0,0,.016-.227.569.569,0,0,0-.011-.115.287.287,0,0,0-.038-.1.187.187,0,0,0-.074-.067.259.259,0,0,0-.119-.025.264.264,0,0,0-.1.019.232.232,0,0,0-.075.051.348.348,0,0,0-.054.072A.759.759,0,0,0,38.056,7.525ZM55.186,1.3c.016-.024.034-.052.052-.083a1.058,1.058,0,0,0,.052-.1A.722.722,0,0,0,55.331,1a.481.481,0,0,0,.016-.119A.611.611,0,0,0,55.23.527a1.009,1.009,0,0,0-.312-.279,1.691,1.691,0,0,0-.45-.183A2.158,2.158,0,0,0,53.938,0,1.225,1.225,0,0,0,53.5.069a.692.692,0,0,0-.272.183.925.925,0,0,0-.161.261,3.022,3.022,0,0,0-.105.3,5.2,5.2,0,0,1-.5.938,15.557,15.557,0,0,1-1.112,1.537A17,17,0,0,1,49.688,5.06a13.758,13.758,0,0,1-2.154,1.632c-.112.068-.2.121-.267.164s-.116.075-.15.1a.264.264,0,0,0-.066.065.1.1,0,0,0-.015.056.1.1,0,0,0,.029.07.2.2,0,0,0,.069.044.411.411,0,0,0,.084.023.452.452,0,0,0,.074.007,4.262,4.262,0,0,0,1.375-.311,10.527,10.527,0,0,0,1.913-.964,13.547,13.547,0,0,0,2.127-1.663,14.022,14.022,0,0,0,2.014-2.409A10.529,10.529,0,0,0,56.178,4.2a11.184,11.184,0,0,0,1.678,1.65,9.155,9.155,0,0,0,1.5.983,2.564,2.564,0,0,0,.934.326,1.63,1.63,0,0,0,.592-.193,7.759,7.759,0,0,0,.772-.438c.256-.163.5-.332.67-.471s.286-.248.286-.292a.065.065,0,0,0-.028-.055.464.464,0,0,0-.124-.061c-.064-.024-.154-.053-.28-.091s-.288-.085-.5-.145a16.06,16.06,0,0,1-2.324-.873A14.124,14.124,0,0,1,57.47,3.474a10.373,10.373,0,0,1-1.41-1.125A5.419,5.419,0,0,1,55.186,1.3ZM51.744,5.652a.352.352,0,0,1-.061-.01l-.091-.022L51.5,5.6a.352.352,0,0,0-.061-.01.751.751,0,0,0-.276.059A1.018,1.018,0,0,0,50.9,5.8a.853.853,0,0,0-.2.23.553.553,0,0,0-.078.275.412.412,0,0,0,.04.174.484.484,0,0,0,.109.148.526.526,0,0,0,.163.1.539.539,0,0,0,.2.039,1.247,1.247,0,0,0,.239-.043c.1-.026.228-.06.35-.094s.243-.068.344-.094a1.183,1.183,0,0,1,.221-.043h.993l.8,0,1.252.008c.435,0,.86,0,1.189,0s.562-.006.614-.014a1.252,1.252,0,0,0,.133-.02.541.541,0,0,0,.153-.056.335.335,0,0,0,.126-.122.423.423,0,0,0,.052-.218.689.689,0,0,0-.109-.34,1.488,1.488,0,0,0-.269-.326,1.6,1.6,0,0,0-.344-.245.76.76,0,0,0-.334-.1.506.506,0,0,0-.186.045,1.218,1.218,0,0,0-.222.125,1.586,1.586,0,0,0-.222.188,1.359,1.359,0,0,0-.186.234Zm.336,2.8A.729.729,0,0,0,52,8.226a.615.615,0,0,0-.339-.28.724.724,0,0,0-.235-.038,1.477,1.477,0,0,0-.418.082,3,3,0,0,0-.5.212,1.869,1.869,0,0,0-.416.293.488.488,0,0,0-.174.325.423.423,0,0,0,.006.08.226.226,0,0,0,.027.07.8.8,0,0,0,.063.091c.029.037.066.083.114.143a.42.42,0,0,1,.028.052.208.208,0,0,1,.014.052.622.622,0,0,1,.005.076c0,.032,0,.072,0,.124,0,.168-.005.476-.013.853s-.018.823-.028,1.266-.02.884-.028,1.251-.013.66-.013.808a1.805,1.805,0,0,0,.012.244.682.682,0,0,0,.082.256.506.506,0,0,0,.223.2,1,1,0,0,0,.435.082,1.211,1.211,0,0,0,.357-.061,1.473,1.473,0,0,0,.365-.173,1.019,1.019,0,0,0,.284-.272.634.634,0,0,0,.114-.358V13.24h4.563c0,.16,0,.3.012.43a.837.837,0,0,0,.084.322.447.447,0,0,0,.228.2,1.144,1.144,0,0,0,.444.07,1.522,1.522,0,0,0,.376-.048A1.728,1.728,0,0,0,58,14.1a1.836,1.836,0,0,0,.263-.156,1.492,1.492,0,0,0,.187-.156.77.77,0,0,0,.12-.15.547.547,0,0,0,.062-.152.92.92,0,0,0,.023-.173c0-.063,0-.133,0-.213s-.007-.286-.018-.584-.025-.675-.039-1.061-.028-.781-.039-1.115-.018-.606-.018-.746a1.086,1.086,0,0,1,0-.111.469.469,0,0,1,.018-.09.906.906,0,0,1,.039-.1c.017-.04.039-.087.067-.147.008-.02.015-.038.021-.055a.505.505,0,0,0,.015-.051.422.422,0,0,0,.009-.054.621.621,0,0,0,0-.064.685.685,0,0,0-.122-.358,1.522,1.522,0,0,0-.3-.336,1.769,1.769,0,0,0-.386-.249.924.924,0,0,0-.374-.1.809.809,0,0,0-.128.009.952.952,0,0,0-.222.063,1.294,1.294,0,0,0-.291.171,1.98,1.98,0,0,0-.335.333Zm-.128,3.986V10.134c0-.132,0-.252,0-.358a2.376,2.376,0,0,1,.019-.272.465.465,0,0,1,.052-.173.115.115,0,0,1,.1-.061h4.435v3.17ZM69.483,6.516c.088-.152.156-.27.209-.364s.09-.165.116-.222a.673.673,0,0,0,.05-.141.564.564,0,0,0,.01-.121.512.512,0,0,0-.019-.134A.8.8,0,0,0,69.8,5.4a1.19,1.19,0,0,0-.072-.128c-.026-.041-.054-.08-.082-.116.012-.332.031-.629.054-.9s.051-.5.08-.711.06-.392.089-.552.057-.3.081-.419c0-.016.009-.038.014-.063s.011-.054.016-.083.01-.059.013-.086A.64.64,0,0,0,70,2.273a.585.585,0,0,0-.1-.312,1.043,1.043,0,0,0-.253-.266,1.348,1.348,0,0,0-.337-.185,1.022,1.022,0,0,0-.352-.069,1.386,1.386,0,0,0-.161.009,1.161,1.161,0,0,0-.277.065.632.632,0,0,0-.262.176.512.512,0,0,0-.116.342c0,.112.005.316.013.566s.018.544.028.837.02.585.028.828.013.439.013.539a6.614,6.614,0,0,0-1.225.138,3.726,3.726,0,0,0-.9.306,1.707,1.707,0,0,0-.554.42.759.759,0,0,0-.189.48.443.443,0,0,0,.029.175.4.4,0,0,0,.109.143,1.469,1.469,0,0,0,.22.152c.1.057.214.122.362.2a1.048,1.048,0,0,1,.26.2,1.873,1.873,0,0,1,.226.3c.073.116.146.249.223.4s.159.32.251.508c-.076.124-.153.243-.234.36s-.167.232-.26.348-.194.233-.3.354-.233.246-.369.378c-.124.116-.224.21-.3.292a1.619,1.619,0,0,0-.186.217.627.627,0,0,0-.093.2.927.927,0,0,0-.025.238,1.164,1.164,0,0,0,.025.24.835.835,0,0,0,.1.262.592.592,0,0,0,.218.211.762.762,0,0,0,.376.087.694.694,0,0,0,.326-.075.722.722,0,0,0,.232-.2,1.466,1.466,0,0,0,.169-.282c.049-.1.093-.215.137-.327.036-.088.071-.169.11-.253s.082-.17.134-.269.113-.211.188-.344.164-.29.272-.478c.052.168.112.363.173.572s.122.43.177.651.1.442.138.648a3.5,3.5,0,0,1,.056.563c0,.02,0,.06-.008.11s-.011.11-.017.17-.012.12-.017.17-.007.09-.007.11a1.025,1.025,0,0,0,.085.391,1.393,1.393,0,0,0,.223.361,1.2,1.2,0,0,0,.313.265.723.723,0,0,0,.355.1.67.67,0,0,0,.238-.047.774.774,0,0,0,.228-.137.7.7,0,0,0,.171-.221.679.679,0,0,0,.067-.3c0-.052-.008-.148-.02-.266s-.029-.257-.046-.395-.035-.275-.049-.389-.025-.2-.029-.248c-.016-.316-.03-.667-.042-1.023s-.022-.714-.03-1.047-.014-.637-.018-.885-.006-.436-.006-.536a10.5,10.5,0,0,1,.88-.772,6.432,6.432,0,0,1,.9-.591,4.441,4.441,0,0,1,.934-.377,3.743,3.743,0,0,1,.988-.133,1.784,1.784,0,0,1,.892.209,1.434,1.434,0,0,1,.525.517,2.108,2.108,0,0,1,.249.658,3.119,3.119,0,0,1,.063.633,3.347,3.347,0,0,1-.374,1.57,3.732,3.732,0,0,1-.915,1.12,5.237,5.237,0,0,1-1.143.723,5.865,5.865,0,0,1-1.059.381l-.171.042-.3.08c-.105.029-.208.059-.284.083a.377.377,0,0,0-.126.051.113.113,0,0,0,.045.082.408.408,0,0,0,.132.072,1.1,1.1,0,0,0,.216.051,2.106,2.106,0,0,0,.3.019,7.33,7.33,0,0,0,1.674-.222,7.978,7.978,0,0,0,1.872-.7A4.7,4.7,0,0,0,76.3,10.064a2.96,2.96,0,0,0,.629-1.834,2.7,2.7,0,0,0-.3-1.234,3.075,3.075,0,0,0-.783-.967A3.693,3.693,0,0,0,74.733,5.4a3.863,3.863,0,0,0-1.3-.226,4.05,4.05,0,0,0-.467.031,5.605,5.605,0,0,0-1.01.215A5.1,5.1,0,0,0,70.7,6,4.559,4.559,0,0,0,69.5,7.14ZM68.331,6.4c-.028.08-.053.146-.083.213s-.064.136-.111.221-.107.187-.186.32-.18.3-.308.511c-.02-.056-.066-.166-.124-.3s-.127-.293-.194-.446-.132-.3-.179-.413a1.674,1.674,0,0,1-.079-.2.309.309,0,0,1,.087-.169,1.24,1.24,0,0,1,.222-.2,1.458,1.458,0,0,1,.3-.168.868.868,0,0,1,.321-.07.25.25,0,0,1,.131.034.286.286,0,0,1,.1.115.757.757,0,0,1,.07.217A2.214,2.214,0,0,1,68.331,6.4Zm.288,4.755c-.04-.252-.081-.484-.124-.707s-.089-.436-.138-.65-.1-.429-.159-.656-.119-.465-.187-.725c.024-.048.045-.088.069-.13s.05-.085.085-.14.079-.122.136-.209l.222-.337c.024.612.043,1.089.058,1.465s.026.654.034.868.013.365.016.49,0,.223,0,.331c0,.036,0,.071,0,.105s0,.068,0,.1,0,.066,0,.1S68.623,11.127,68.619,11.159ZM88.071,5.78l-1.034.279c-.282.077-.512.14-.717.2s-.386.111-.57.168-.372.117-.593.189c.012-.112.028-.247.047-.394s.04-.305.062-.465.045-.319.068-.468.045-.287.065-.4c.008-.04.023-.112.041-.2s.039-.191.059-.294.039-.206.053-.291a1.49,1.49,0,0,0,.023-.191.606.606,0,0,0-.075-.3.587.587,0,0,0-.186-.2.81.81,0,0,0-.24-.108.913.913,0,0,0-.237-.033,1.048,1.048,0,0,0-.349.073,1.938,1.938,0,0,0-.369.185,1.631,1.631,0,0,0-.306.248.619.619,0,0,0-.16.262,1.344,1.344,0,0,0-.028.16c-.007.06-.011.132-.014.232s0,.228-.005.4,0,.388,0,.664V6.9c-.24.076-.517.159-.813.245s-.61.176-.924.265l-.924.262c-.3.084-.573.164-.813.236a1.235,1.235,0,0,0-.137.046.724.724,0,0,0-.129.067.353.353,0,0,0-.1.091.2.2,0,0,0-.038.118.476.476,0,0,0,.124.29,1.337,1.337,0,0,0,.3.263,1.89,1.89,0,0,0,.377.191,1.061,1.061,0,0,0,.349.074,1.228,1.228,0,0,0,.256-.028,1.589,1.589,0,0,0,.241-.073c.078-.03.154-.065.229-.1s.148-.078.22-.118c.168-.1.338-.186.505-.27s.33-.161.486-.232.3-.136.435-.193l.352-.153c0,.4,0,.748,0,1.056s.012.574.028.811a5.31,5.31,0,0,0,.076.634,2.955,2.955,0,0,0,1.2,1.876,4.729,4.729,0,0,0,1.529.694,8.492,8.492,0,0,0,1.547.256c.468.037.862.037,1.106.037.132,0,.311,0,.506-.012a4.387,4.387,0,0,0,.6-.069,1.469,1.469,0,0,0,.5-.177.394.394,0,0,0,.208-.336.8.8,0,0,0-.144-.45,1.314,1.314,0,0,0-.36-.349,1.88,1.88,0,0,0-.468-.226,1.558,1.558,0,0,0-.468-.08c-.048,0-.09,0-.139.005s-.1.012-.179.025-.17.032-.3.058l-.49.1c-.076.016-.146.029-.212.04s-.128.019-.188.025-.118.01-.176.013-.116,0-.176,0a4.619,4.619,0,0,1-.534-.031c-.163-.019-.31-.045-.438-.073s-.237-.058-.324-.085-.152-.051-.192-.067a1.42,1.42,0,0,1-.588-.384,1.505,1.505,0,0,1-.31-.576,3.337,3.337,0,0,1-.121-.732c-.019-.266-.021-.552-.021-.853,0-.068,0-.158,0-.265s0-.232.007-.369.01-.287.019-.444.021-.322.037-.491c.152-.064.31-.128.486-.195s.37-.136.594-.21S86.7,6.887,87,6.8s.634-.181,1.027-.285c-.008.22-.014.411-.02.581s-.012.317-.02.45-.018.252-.032.363a3.157,3.157,0,0,1-.056.319c-.008.032-.017.069-.03.107a.458.458,0,0,1-.052.11.266.266,0,0,1-.091.086.3.3,0,0,1-.147.035.831.831,0,0,1-.146-.025c-.065-.015-.143-.035-.22-.055s-.154-.04-.217-.055a.8.8,0,0,0-.137-.025.23.23,0,0,0-.052.006.2.2,0,0,0-.052.02.12.12,0,0,0-.04.035.087.087,0,0,0-.016.051.771.771,0,0,0,.146.348,2.815,2.815,0,0,0,.371.453,2.527,2.527,0,0,0,.5.393,1.072,1.072,0,0,0,.524.168,1.048,1.048,0,0,0,.706-.239A1.306,1.306,0,0,0,89.3,9.07a2.848,2.848,0,0,0,.139-.677c.021-.219.022-.419.022-.563,0-.16,0-.288,0-.4s0-.211.005-.311.008-.2.014-.323.016-.261.028-.437c.156-.024.31-.045.47-.063s.325-.033.5-.045.372-.021.586-.027.449-.009.713-.009l.1.005.191.011.2.011.134.005a1.977,1.977,0,0,0,.227-.013,1.235,1.235,0,0,0,.281-.064.582.582,0,0,0,.239-.154.413.413,0,0,0,.1-.283A.609.609,0,0,0,93.2,5.5a.964.964,0,0,0-.2-.292,1.139,1.139,0,0,0-.393-.25,1.717,1.717,0,0,0-.626-.106,2.756,2.756,0,0,0-.493.07c-.206.043-.445.1-.686.166s-.485.133-.7.2-.406.12-.538.16c0-.108.011-.259.02-.431s.021-.364.034-.556.028-.381.043-.547.031-.308.047-.4l.054-.289c.016-.086.029-.162.04-.232s.02-.134.025-.2.009-.121.009-.181a.72.72,0,0,0-.2-.488,1.561,1.561,0,0,0-.473-.339,2.805,2.805,0,0,0-.548-.2,1.916,1.916,0,0,0-.427-.064.469.469,0,0,0-.334.138.462.462,0,0,0-.1.139.385.385,0,0,0-.034.155.5.5,0,0,0,.031.131c.019.056.044.121.07.185s.053.127.076.179.041.093.049.113a2.578,2.578,0,0,1,.074.344c.018.119.03.241.038.358s.012.23.014.331,0,.191,0,.263Z" fill="#fff"/>
</svg>
