<svg xmlns="http://www.w3.org/2000/svg" width="61.238" height="13.48" viewBox="0 0 61.238 13.48">
  <path id="パス_3649" data-name="パス 3649" d="M13.4,6.548a1.966,1.966,0,0,0-.379-1.179,2.8,2.8,0,0,0-.958-.8,4.956,4.956,0,0,0-1.27-.455A6.221,6.221,0,0,0,9.478,3.97a3.3,3.3,0,0,0-.361.021,2.605,2.605,0,0,0-.341.06.984.984,0,0,0-.254.1c-.063.038-.1.081-.1.129a.054.054,0,0,0,.014.043.235.235,0,0,0,.084.046c.047.018.117.04.219.07s.239.067.419.115a4.537,4.537,0,0,1,1.24.512,2.19,2.19,0,0,1,.637.579,1.451,1.451,0,0,1,.235.51,1.274,1.274,0,0,1,.034.3.412.412,0,0,1-.027.155.291.291,0,0,1-.091.122.454.454,0,0,1-.172.08,1.105,1.105,0,0,1-.27.029c-.02,0-.048,0-.079,0a.637.637,0,0,0-.1.016.244.244,0,0,0-.08.034.071.071,0,0,0-.034.058c0,.02.055.063.152.116a2.986,2.986,0,0,0,.4.178,4.1,4.1,0,0,0,.578.163,3.412,3.412,0,0,0,.674.071,1.523,1.523,0,0,0,.475-.071,1.061,1.061,0,0,0,.358-.2.853.853,0,0,0,.226-.294A.874.874,0,0,0,13.4,6.548ZM3.826,8.373c-.464.332-.826.59-1.119.8S2.189,9.552,2,9.7s-.351.273-.512.409-.324.28-.524.46a.9.9,0,0,0-.1-.019c-.035,0-.071-.008-.1-.01l-.089,0H.608a.861.861,0,0,0-.21.027.75.75,0,0,0-.2.079.459.459,0,0,0-.145.13.311.311,0,0,0-.057.18.855.855,0,0,0,.092.376,1.129,1.129,0,0,0,.248.328,1.233,1.233,0,0,0,.362.232,1.133,1.133,0,0,0,.434.088,1.025,1.025,0,0,0,.437-.091.964.964,0,0,0,.3-.217,1.3,1.3,0,0,0,.186-.259,2.259,2.259,0,0,0,.1-.217c.16.1.3.2.426.284s.233.168.327.248a1.946,1.946,0,0,1,.243.242,1.391,1.391,0,0,1,.174.266c.036.076.066.139.1.191a.456.456,0,0,0,.1.123.326.326,0,0,0,.137.066.913.913,0,0,0,.213.02,1.528,1.528,0,0,0,.767-.176,1.092,1.092,0,0,0,.424-.437,1.746,1.746,0,0,0,.18-.563,3.547,3.547,0,0,0,.038-.554c0-.092-.007-.26-.018-.466s-.025-.448-.039-.689-.028-.481-.039-.68-.018-.358-.018-.439c.2-.124.4-.242.6-.349a5.735,5.735,0,0,1,.633-.285A4.287,4.287,0,0,1,7.071,7.8a3.524,3.524,0,0,1,.693-.07,1.564,1.564,0,0,1,.579.1,1.065,1.065,0,0,1,.416.29,1.254,1.254,0,0,1,.25.468,2.179,2.179,0,0,1,.084.631,2.4,2.4,0,0,1-.1.731,1.426,1.426,0,0,1-.3.532,1.246,1.246,0,0,1-.478.324,1.771,1.771,0,0,1-.643.11,2.985,2.985,0,0,1-.616-.066,3.639,3.639,0,0,1-.541-.16,4.877,4.877,0,0,1-.451-.2c-.134-.067-.25-.131-.346-.183L5.589,10.3l-.023-.01-.02-.007a.085.085,0,0,0-.022,0,.164.164,0,0,0-.047.007.115.115,0,0,0-.041.022.1.1,0,0,0-.029.04.154.154,0,0,0-.011.061,1.237,1.237,0,0,0,.184.294,4.132,4.132,0,0,0,.52.569,3.429,3.429,0,0,0,.809.554,2.413,2.413,0,0,0,1.049.249,3.455,3.455,0,0,0,1.5-.3,2.529,2.529,0,0,0,.921-.735,2.813,2.813,0,0,0,.464-.9,2.774,2.774,0,0,0,.128-.8,2.063,2.063,0,0,0-.237-.982,2.159,2.159,0,0,0-.638-.723,2.977,2.977,0,0,0-.929-.447,3.974,3.974,0,0,0-1.11-.153,5.339,5.339,0,0,0-.591.032,5.043,5.043,0,0,0-.7.128,5.174,5.174,0,0,0-.787.272,5.731,5.731,0,0,0-.852.464q0-.21,0-.444t.007-.489q0-.255.01-.531t.012-.57c.46-.172.834-.311,1.134-.43a7.152,7.152,0,0,0,.7-.308,1.116,1.116,0,0,0,.355-.263.447.447,0,0,0,.1-.295.558.558,0,0,0-.1-.3A.947.947,0,0,0,7.1,4.041a1.3,1.3,0,0,0-.331-.168A1.1,1.1,0,0,0,6.42,3.81a.683.683,0,0,0-.083,0,.565.565,0,0,0-.115.026,1,1,0,0,0-.16.071,2.111,2.111,0,0,0-.218.139c-.028.02-.078.059-.139.107l-.2.163-.2.16c-.059.046-.106.082-.13.1.016-.2.034-.4.054-.6s.041-.4.064-.585.048-.353.073-.5a2.167,2.167,0,0,1,.081-.333c0-.012.013-.033.024-.058l.038-.084c.013-.029.026-.058.035-.081a.193.193,0,0,0,.015-.049A.609.609,0,0,0,5.391,1.9,1.587,1.587,0,0,0,5,1.581a2.456,2.456,0,0,0-.48-.219A1.413,1.413,0,0,0,4.1,1.281a.483.483,0,0,0-.164.033.635.635,0,0,0-.173.1.528.528,0,0,0-.137.16.461.461,0,0,0-.056.222c0,.052.005.148.013.266s.018.257.029.4.023.278.032.393l.022.257c0,.076.008.219.012.4s.007.385.01.593.006.415.007.587,0,.309,0,.377a5.345,5.345,0,0,1-.718.231,5.752,5.752,0,0,1-.634.119c-.192.025-.362.038-.5.044s-.25.006-.322.006a1.5,1.5,0,0,1-.158-.015l-.232-.033L.9,5.378a1.433,1.433,0,0,0-.149-.015.284.284,0,0,0-.082.011A.164.164,0,0,0,.616,5.4a.11.11,0,0,0-.031.036.084.084,0,0,0-.01.038.471.471,0,0,0,.109.171,1.814,1.814,0,0,0,.329.3,2.153,2.153,0,0,0,.555.284,2.408,2.408,0,0,0,.784.126c.16,0,.319-.009.47-.023s.294-.033.422-.053.241-.041.332-.059l.2-.041Zm.032,1.441c0,.26,0,.481,0,.667a3.52,3.52,0,0,1-.033.452.573.573,0,0,1-.09.257.207.207,0,0,1-.176.081,1.008,1.008,0,0,1-.174-.064c-.092-.039-.211-.091-.332-.145L2.7,10.906l-.219-.1c.052-.072.1-.134.154-.2s.123-.145.216-.245.213-.224.375-.389.367-.371.632-.635ZM25.632,3.09a.5.5,0,0,0-.132-.25.56.56,0,0,0-.206-.128.88.88,0,0,0-.209-.047,1.263,1.263,0,0,0-.141-.007.979.979,0,0,0-.365.1A2.631,2.631,0,0,0,24.151,3a2.058,2.058,0,0,0-.356.309.493.493,0,0,0-.149.289.436.436,0,0,0,.038.131c.023.056.053.122.083.187s.06.13.083.184a.415.415,0,0,1,.038.122V6.068c0,.112,0,.314,0,.58s0,.594-.007.959-.01.767-.019,1.178-.021.833-.037,1.237c0,.084-.008.163-.012.238s-.007.147-.01.216-.006.136-.007.2,0,.129,0,.193a.818.818,0,0,0,.033.252.378.378,0,0,0,.12.18.57.57,0,0,0,.24.108,1.77,1.77,0,0,0,.393.036,1.146,1.146,0,0,0,.43-.078.886.886,0,0,0,.322-.22.966.966,0,0,0,.2-.343,1.364,1.364,0,0,0,.07-.447h1.873c-.008.172-.015.324-.011.456a.934.934,0,0,0,.059.331.382.382,0,0,0,.191.2.883.883,0,0,0,.386.068,1.522,1.522,0,0,0,.233-.021,2.479,2.479,0,0,0,.272-.06,2.7,2.7,0,0,0,.284-.1,2.18,2.18,0,0,0,.269-.129,1.034,1.034,0,0,0,.194-.136.4.4,0,0,0,.1-.138.523.523,0,0,0,.037-.165c.005-.062.005-.133.005-.217,0-.212,0-.648-.005-1.2s-.007-1.216-.011-1.887-.008-1.346-.011-1.917,0-1.037,0-1.289c0-.068,0-.119,0-.162a.594.594,0,0,1,.018-.111.916.916,0,0,1,.039-.111c.017-.043.039-.094.067-.162a.56.56,0,0,0,.03-.057.407.407,0,0,0,.02-.053.342.342,0,0,0,.011-.05.351.351,0,0,0,0-.048.656.656,0,0,0-.135-.378,1.355,1.355,0,0,0-.331-.316,1.869,1.869,0,0,0-.419-.217,1.2,1.2,0,0,0-.4-.081.63.63,0,0,0-.247.06,1.407,1.407,0,0,0-.263.156,2.092,2.092,0,0,0-.248.216,1.911,1.911,0,0,0-.2.24ZM22.75,7.269c.088,0,.184,0,.279-.008a1.326,1.326,0,0,0,.27-.044.467.467,0,0,0,.2-.11.28.28,0,0,0,.081-.206.851.851,0,0,0-.112-.411,1.273,1.273,0,0,0-.282-.342,1.45,1.45,0,0,0-.369-.234.962.962,0,0,0-.373-.087.45.45,0,0,0-.23.069.91.91,0,0,0-.2.171,1.688,1.688,0,0,0-.167.219,2.252,2.252,0,0,0-.122.213h-.817c.016-.228.028-.443.037-.658s.015-.428.019-.653.006-.462.007-.722,0-.545,0-.865h1.5a2.177,2.177,0,0,0,.232-.011,1.064,1.064,0,0,0,.246-.053.461.461,0,0,0,.195-.125.335.335,0,0,0,.079-.227.785.785,0,0,0-.114-.392,1.3,1.3,0,0,0-.284-.332,1.512,1.512,0,0,0-.365-.23.917.917,0,0,0-.357-.086.568.568,0,0,0-.229.052.906.906,0,0,0-.223.145,1.4,1.4,0,0,0-.205.223,1.882,1.882,0,0,0-.175.286H18.972c.072-.128.165-.29.264-.47s.2-.376.3-.573a5.411,5.411,0,0,0,.246-.576,1.549,1.549,0,0,0,.1-.479.563.563,0,0,0-.127-.361.893.893,0,0,0-.3-.232A1.573,1.573,0,0,0,19.1.037,1.4,1.4,0,0,0,18.812,0a1.494,1.494,0,0,0-.4.061,1.849,1.849,0,0,0-.395.163,1.137,1.137,0,0,0-.3.235.431.431,0,0,0-.12.277.44.44,0,0,0,.013.071c.008.033.018.073.028.113s.02.08.028.113a.439.439,0,0,1,.013.071,2.151,2.151,0,0,1-.127.6,7.231,7.231,0,0,1-.371.9,10.546,10.546,0,0,1-.6,1.07,10.528,10.528,0,0,1-.82,1.113c-.028.032-.088.1-.162.175s-.163.173-.248.265-.167.182-.227.253a.5.5,0,0,0-.1.139.1.1,0,0,0,.019.061.133.133,0,0,0,.049.04.257.257,0,0,0,.067.022.4.4,0,0,0,.073.007,2.158,2.158,0,0,0,.764-.178,5.136,5.136,0,0,0,.893-.475,6.352,6.352,0,0,0,.869-.685,4.643,4.643,0,0,0,.692-.808h.64c0,.064.007.243.009.484s0,.544,0,.857,0,.633,0,.911-.005.51-.009.646l-.507,0-.814-.006-.777-.006-.4,0-.12-.019-.177-.027-.177-.024c-.053-.006-.1-.01-.12-.01a.672.672,0,0,0-.4.113.624.624,0,0,0-.2.253.958.958,0,0,0-.075.262.984.984,0,0,0-.011.14.425.425,0,0,0,.045.2.411.411,0,0,0,.111.134.484.484,0,0,0,.141.077.419.419,0,0,0,.135.025.862.862,0,0,0,.131-.01.972.972,0,0,0,.139-.032,1.631,1.631,0,0,0,.16-.059c.058-.025.122-.055.194-.091l.111-.05c.038-.017.076-.033.115-.047a.923.923,0,0,1,.118-.035.573.573,0,0,1,.12-.014H19.02c-.028.272-.066.653-.153,1.1a7.194,7.194,0,0,1-.449,1.469,5.907,5.907,0,0,1-.98,1.559A6.126,6.126,0,0,1,15.69,12.76l-.118.053-.238.1-.256.11c-.077.033-.14.059-.172.071a.479.479,0,0,0-.082.039.258.258,0,0,0-.055.043.154.154,0,0,0-.031.046.124.124,0,0,0-.01.048.164.164,0,0,0,.032.1.221.221,0,0,0,.08.064.409.409,0,0,0,.1.034.554.554,0,0,0,.1.01,2.724,2.724,0,0,0,.441-.056c.195-.037.43-.091.684-.161s.527-.156.8-.257a6.8,6.8,0,0,0,.783-.344,4.062,4.062,0,0,0,.425-.248,5.156,5.156,0,0,0,2.137-2.97,9.764,9.764,0,0,0,.658,1.5A9.229,9.229,0,0,0,21.8,12.22a5.064,5.064,0,0,0,.852.883,1.311,1.311,0,0,0,.739.33,2.26,2.26,0,0,0,.452-.085c.2-.053.44-.126.667-.208a4.394,4.394,0,0,0,.6-.262c.16-.089.263-.175.263-.247a.119.119,0,0,0-.018-.071.248.248,0,0,0-.08-.067c-.041-.025-.1-.055-.179-.094l-.315-.152c-.248-.116-.551-.26-.885-.453a7.513,7.513,0,0,1-1.07-.744,7.279,7.279,0,0,1-1.109-1.158,8.454,8.454,0,0,1-1-1.7c.008-.052.016-.106.024-.165s.016-.124.024-.2.016-.155.024-.248.016-.2.024-.318ZM25.6,9.654V8.021c0-.156,0-.446.005-.8s.007-.778.011-1.2.008-.839.011-1.187.005-.626.005-.766c0-.02,0-.046,0-.074a.528.528,0,0,1,.011-.084.18.18,0,0,1,.029-.069.067.067,0,0,1,.056-.029h1.777V9.654Zm11.207-.817c-.048.044-.086.078-.118.105s-.057.047-.08.063a.528.528,0,0,1-.065.039c-.022.011-.045.021-.073.033-.008-.064-.014-.115-.019-.158s-.008-.077-.01-.107,0-.056,0-.083,0-.054,0-.086c0-.076,0-.214.009-.389s.018-.386.037-.61.046-.458.082-.679a3.577,3.577,0,0,1,.144-.6c.036-.092.077-.2.118-.312s.083-.229.12-.338.07-.211.093-.293a.84.84,0,0,0,.037-.177,1.229,1.229,0,0,0-.03-.2c-.018-.088-.042-.191-.066-.294s-.048-.206-.066-.291a1.189,1.189,0,0,1-.03-.191.816.816,0,0,1,.151-.48,1.127,1.127,0,0,1,.37-.322,1.841,1.841,0,0,1,.466-.181,1.883,1.883,0,0,1,.439-.057,1.139,1.139,0,0,1,.183.028c.081.017.176.039.271.061s.19.044.268.061a1.1,1.1,0,0,0,.174.028,1.18,1.18,0,0,0,.338-.048.911.911,0,0,0,.292-.146.706.706,0,0,0,.2-.245.762.762,0,0,0,.077-.345,1.076,1.076,0,0,0-.383-.809,2.656,2.656,0,0,0-.892-.5,5.728,5.728,0,0,0-1.015-.254,5.147,5.147,0,0,0-.752-.071,2.984,2.984,0,0,0-.394.028A2.861,2.861,0,0,0,36.3,1.1a1.2,1.2,0,0,0-.291.117c-.072.044-.115.093-.115.145,0,.02.016.039.042.057a.464.464,0,0,0,.1.048,1.19,1.19,0,0,0,.117.036c.038.01.072.017.1.021a2.619,2.619,0,0,1,.507.2,3.4,3.4,0,0,1,.476.3,2.093,2.093,0,0,1,.352.323.494.494,0,0,1,.138.283.309.309,0,0,1-.012.108.178.178,0,0,1-.074.084,1.162,1.162,0,0,1-.191.1c-.089.038-.207.084-.363.144a3.212,3.212,0,0,0-1.005.593,2.16,2.16,0,0,0-.528.718,2.716,2.716,0,0,0-.21.763,7.179,7.179,0,0,0-.051.728c0,.152-.028.463-.062.846s-.077.837-.12,1.275-.086.861-.117,1.179-.053.534-.053.558a1,1,0,0,0,.209.638,1.273,1.273,0,0,0,.469.357,2.131,2.131,0,0,0,.49.156,1.741,1.741,0,0,0,.272.034,1.267,1.267,0,0,0,.407-.057.708.708,0,0,0,.269-.161.944.944,0,0,0,.179-.248,2.919,2.919,0,0,0,.137-.318c.056-.136.141-.348.266-.59a4.1,4.1,0,0,1,.5-.767,2.761,2.761,0,0,1,.808-.665,2.467,2.467,0,0,1,1.175-.284,1.844,1.844,0,0,1,.554.081,1.343,1.343,0,0,1,.47.255,1.2,1.2,0,0,1,.326.447,1.665,1.665,0,0,1,.122.657,2.3,2.3,0,0,1-.278,1.1,3.058,3.058,0,0,1-.736.878,5.284,5.284,0,0,1-1.045.671,8.573,8.573,0,0,1-1.206.484c-.052.016-.163.044-.3.078l-.458.114c-.157.04-.308.08-.419.114s-.183.062-.183.078a.111.111,0,0,0,.032.083.184.184,0,0,0,.089.043.75.75,0,0,0,.137.016c.053,0,.112,0,.176,0a11.114,11.114,0,0,0,2.547-.273,6.518,6.518,0,0,0,1.92-.759,3.676,3.676,0,0,0,1.211-1.156A2.716,2.716,0,0,0,43.5,9.27a1.921,1.921,0,0,0-.279-1.036,2.048,2.048,0,0,0-.705-.671,3.263,3.263,0,0,0-.934-.362,4.349,4.349,0,0,0-.964-.108,4.607,4.607,0,0,0-1.327.194,5.045,5.045,0,0,0-1.076.469,6.4,6.4,0,0,0-.827.574C37.152,8.518,36.959,8.7,36.807,8.838Zm19.244-3.57-1.034.279c-.282.077-.512.14-.717.2s-.386.111-.57.168-.372.117-.593.189c.012-.112.028-.247.047-.394s.04-.305.062-.465.045-.319.068-.468.045-.287.065-.4c.008-.04.023-.112.041-.2s.039-.191.059-.294.039-.206.053-.291a1.49,1.49,0,0,0,.023-.191.606.606,0,0,0-.075-.3.587.587,0,0,0-.186-.2.81.81,0,0,0-.24-.108.913.913,0,0,0-.237-.033,1.048,1.048,0,0,0-.349.073,1.938,1.938,0,0,0-.369.185,1.631,1.631,0,0,0-.306.248.619.619,0,0,0-.16.262,1.344,1.344,0,0,0-.028.16c-.007.06-.011.132-.014.232s0,.228-.005.4,0,.388,0,.664V6.388c-.24.076-.517.159-.813.245s-.61.176-.924.265l-.924.262c-.3.084-.573.164-.813.236a1.234,1.234,0,0,0-.137.046.724.724,0,0,0-.129.067.353.353,0,0,0-.1.091.2.2,0,0,0-.038.118.476.476,0,0,0,.124.29,1.336,1.336,0,0,0,.3.263,1.89,1.89,0,0,0,.377.191,1.061,1.061,0,0,0,.349.074,1.228,1.228,0,0,0,.256-.028,1.589,1.589,0,0,0,.241-.073c.078-.03.154-.065.229-.1s.148-.078.22-.118c.168-.1.338-.186.505-.27s.33-.161.486-.232.3-.136.435-.193l.352-.153c0,.4,0,.748,0,1.056s.012.574.028.811a5.309,5.309,0,0,0,.076.634,2.955,2.955,0,0,0,1.2,1.876,4.729,4.729,0,0,0,1.529.694,8.492,8.492,0,0,0,1.547.256c.468.037.862.037,1.106.037.132,0,.311,0,.506-.012a4.387,4.387,0,0,0,.6-.069,1.469,1.469,0,0,0,.5-.177.394.394,0,0,0,.208-.336.8.8,0,0,0-.144-.45,1.314,1.314,0,0,0-.36-.349,1.88,1.88,0,0,0-.468-.226,1.558,1.558,0,0,0-.468-.08c-.048,0-.09,0-.139.005s-.1.012-.179.025-.17.032-.3.058l-.49.1c-.076.016-.146.029-.212.04s-.128.019-.188.025-.118.01-.176.013-.116,0-.176,0a4.619,4.619,0,0,1-.534-.031c-.163-.019-.31-.045-.438-.073s-.237-.058-.324-.085-.152-.051-.192-.067a1.42,1.42,0,0,1-.588-.384,1.505,1.505,0,0,1-.31-.576,3.337,3.337,0,0,1-.121-.732c-.019-.266-.021-.552-.021-.853,0-.068,0-.158,0-.265s0-.232.007-.369.01-.287.019-.444.021-.322.037-.491c.152-.064.31-.128.486-.195s.37-.136.594-.21.478-.153.774-.24S55.611,6.108,56,6c-.008.22-.014.411-.02.581s-.012.317-.02.45-.018.252-.032.363a3.157,3.157,0,0,1-.056.319c-.008.032-.017.069-.03.107a.458.458,0,0,1-.052.11.266.266,0,0,1-.091.086.3.3,0,0,1-.147.035.831.831,0,0,1-.146-.025c-.065-.015-.143-.035-.22-.055s-.154-.04-.217-.055a.8.8,0,0,0-.137-.025.23.23,0,0,0-.052.006.2.2,0,0,0-.052.02.12.12,0,0,0-.04.035A.087.087,0,0,0,54.674,8a.771.771,0,0,0,.146.348,2.815,2.815,0,0,0,.371.453,2.527,2.527,0,0,0,.5.393,1.072,1.072,0,0,0,.524.168,1.048,1.048,0,0,0,.706-.239,1.306,1.306,0,0,0,.367-.569,2.848,2.848,0,0,0,.139-.677c.021-.219.022-.419.022-.563,0-.16,0-.288,0-.4s0-.211.005-.311.008-.2.014-.323.016-.261.028-.437c.156-.024.31-.045.47-.063s.325-.033.5-.045.372-.021.586-.027.449-.009.713-.009l.1.005.191.011.2.011.134.005a1.977,1.977,0,0,0,.227-.013,1.235,1.235,0,0,0,.281-.064.582.582,0,0,0,.239-.154.413.413,0,0,0,.1-.283.609.609,0,0,0-.058-.232.964.964,0,0,0-.2-.292,1.139,1.139,0,0,0-.393-.25,1.716,1.716,0,0,0-.626-.106,2.757,2.757,0,0,0-.493.07c-.206.043-.445.1-.686.166s-.485.133-.7.2-.406.12-.538.16c0-.108.011-.259.02-.431s.021-.364.034-.556.028-.381.043-.547.031-.308.047-.4l.054-.289c.016-.086.029-.162.04-.232s.02-.134.025-.2.009-.121.009-.181a.72.72,0,0,0-.2-.488,1.561,1.561,0,0,0-.473-.339,2.805,2.805,0,0,0-.548-.2,1.915,1.915,0,0,0-.427-.064.469.469,0,0,0-.334.138.462.462,0,0,0-.1.139.385.385,0,0,0-.034.155.5.5,0,0,0,.031.131c.019.056.044.121.07.185s.053.127.076.179.041.093.049.113A2.579,2.579,0,0,1,56,2.394c.018.119.03.241.038.358s.012.23.014.331,0,.191,0,.263Z" fill="#fff"/>
</svg>
