<svg xmlns="http://www.w3.org/2000/svg" width="63.48" height="15.033" viewBox="0 0 63.48 15.033">
  <path id="パス_3648" data-name="パス 3648" d="M8.245,2.225c0-.032,0-.1.008-.193s.011-.2.017-.3.012-.21.017-.292.008-.141.008-.157c.016-.1.029-.184.04-.248s.019-.111.025-.149S8.367.818,8.37.79s0-.054,0-.086A1,1,0,0,0,8.339.432.575.575,0,0,0,8.221.208.55.55,0,0,0,7.995.056,1.019,1.019,0,0,0,7.637,0a1.685,1.685,0,0,0-.523.105,3.141,3.141,0,0,0-.572.267,2.132,2.132,0,0,0-.461.357.59.59,0,0,0-.189.375.193.193,0,0,0,.013.075.227.227,0,0,0,.045.067.8.8,0,0,0,.084.076c.035.029.078.062.13.1a.446.446,0,0,1,.086.082.313.313,0,0,1,.052.115,1.326,1.326,0,0,1,.031.2c.008.09.015.2.023.352H4.163c-.032,0-.091-.005-.163-.013l-.243-.028-.24-.028C3.446,2.1,3.39,2.1,3.362,2.1a.642.642,0,0,0-.325.09.878.878,0,0,0-.247.22,1.091,1.091,0,0,0-.157.277.753.753,0,0,0-.055.261.355.355,0,0,0,.046.182.349.349,0,0,0,.116.119.521.521,0,0,0,.155.065.687.687,0,0,0,.163.02,1.085,1.085,0,0,0,.2-.033c.086-.02.188-.046.289-.073l.286-.076a1.733,1.733,0,0,1,.188-.042l.16-.014.23-.016.251-.013c.082,0,.159-.005.223-.005h1.5c0,.036,0,.1,0,.178s0,.169.006.26,0,.182.006.257,0,.137,0,.169H5.876c-.476,0-.924,0-1.338-.006S3.743,3.908,3.4,3.9s-.649-.013-.913-.021S2,3.866,1.825,3.858c-.044,0-.122-.014-.217-.027l-.316-.043c-.11-.015-.219-.03-.31-.04S.821,3.73.784,3.73A.605.605,0,0,0,.5,3.809a.969.969,0,0,0-.252.2,1.053,1.053,0,0,0-.18.269A.7.7,0,0,0,0,4.563a.485.485,0,0,0,.051.228.391.391,0,0,0,.127.142.522.522,0,0,0,.166.073.686.686,0,0,0,.168.021,1.469,1.469,0,0,0,.244-.038c.108-.023.235-.053.362-.084l.359-.087a2.212,2.212,0,0,1,.235-.047c.052,0,.191-.01.4-.017s.481-.014.8-.021S3.606,4.719,4,4.715s.826-.008,1.262-.008H6.4v.784H5.583l-.666,0c-.2,0-.384-.005-.555-.01s-.331-.011-.488-.019c-.024,0-.069,0-.125-.01l-.188-.022-.188-.022c-.056-.006-.1-.01-.125-.01a.611.611,0,0,0-.287.07.674.674,0,0,0-.211.176.812.812,0,0,0-.13.233.725.725,0,0,0-.044.241.359.359,0,0,0,.054.2.368.368,0,0,0,.135.123.619.619,0,0,0,.177.063.913.913,0,0,0,.18.018,1.269,1.269,0,0,0,.185-.025c.082-.015.18-.036.277-.057l.274-.06c.08-.017.144-.03.176-.034.052,0,.2-.011.409-.02l.724-.029.754-.029.5-.02c0,.036,0,.1,0,.188s0,.183-.006.282,0,.2-.006.279,0,.147,0,.179H3.682c-.028,0-.079-.005-.141-.013l-.209-.028L3.126,7.1c-.06-.008-.108-.013-.132-.013a.639.639,0,0,0-.3.069.614.614,0,0,0-.2.173.753.753,0,0,0-.117.224.728.728,0,0,0-.037.222.308.308,0,0,0,.068.2.37.37,0,0,0,.152.1.656.656,0,0,0,.158.039.709.709,0,0,0,.086.006,1.236,1.236,0,0,0,.188-.028c.084-.017.184-.039.284-.061s.2-.044.284-.061a1.236,1.236,0,0,1,.188-.028h2.69l-.016.7H1.969c-.044,0-.123-.005-.219-.013l-.323-.028-.32-.028c-.094-.008-.17-.013-.21-.013a.675.675,0,0,0-.3.071.854.854,0,0,0-.245.182.9.9,0,0,0-.167.248.666.666,0,0,0-.062.269.5.5,0,0,0,.035.192.371.371,0,0,0,.1.141.445.445,0,0,0,.161.087A.729.729,0,0,0,.64,9.8.751.751,0,0,0,.8,9.765c.071-.02.155-.046.239-.073l.239-.076a1.2,1.2,0,0,1,.161-.042c.076-.012.17-.025.275-.038s.22-.025.339-.036.242-.021.36-.027.234-.011.338-.011l.637-.008L4.8,9.438l1.534-.017c.461,0,.835-.008,1.015-.008.26,0,.742,0,1.334.01l1.992.022,1.974.022c.58.006,1.044.01,1.28.01.2,0,.376,0,.536-.007a2.142,2.142,0,0,0,.415-.051.54.54,0,0,0,.267-.138.372.372,0,0,0,.095-.268.644.644,0,0,0-.137-.35,1.823,1.823,0,0,0-.332-.348,2.146,2.146,0,0,0-.41-.267.9.9,0,0,0-.371-.107.7.7,0,0,0-.324.088,1.392,1.392,0,0,0-.285.2,2.533,2.533,0,0,0-.225.235c-.063.074-.112.138-.144.178l-1.326.009-1.284,0-1.2,0H8.133v-.7h3.81a.656.656,0,0,0,.219-.035.471.471,0,0,0,.155-.089.378.378,0,0,0,.092-.119.29.29,0,0,0,.03-.125.476.476,0,0,0-.111-.269,1.383,1.383,0,0,0-.271-.265,1.722,1.722,0,0,0-.34-.2.833.833,0,0,0-.318-.08.691.691,0,0,0-.232.04.854.854,0,0,0-.194.1,1.387,1.387,0,0,0-.161.13c-.049.045-.093.09-.133.13H8.133V6.228H10.31a1.294,1.294,0,0,0,.015.23.283.283,0,0,0,.067.148.3.3,0,0,0,.154.079,1.257,1.257,0,0,0,.276.023,3.085,3.085,0,0,0,.468-.035,2.007,2.007,0,0,0,.468-.127.943.943,0,0,0,.36-.25.61.61,0,0,0,.144-.4c0-.044,0-.128-.005-.232s-.007-.227-.011-.35-.008-.246-.011-.347-.005-.183-.005-.223h2.578a2.024,2.024,0,0,0,.234-.012.881.881,0,0,0,.234-.057.415.415,0,0,0,.18-.135.4.4,0,0,0,.072-.246.88.88,0,0,0-.123-.43,1.441,1.441,0,0,0-.306-.368,1.628,1.628,0,0,0-.4-.257.981.981,0,0,0-.393-.1.682.682,0,0,0-.237.045.947.947,0,0,0-.241.135,1.257,1.257,0,0,0-.226.225,1.612,1.612,0,0,0-.192.315l-.3.009-.3,0-.291,0h-.282c0-.1,0-.172,0-.235s0-.112,0-.154,0-.077,0-.112.005-.069.009-.109A1.187,1.187,0,0,1,12.3,3.11c.02-.068.046-.147.071-.226s.05-.158.068-.223a.7.7,0,0,0,.03-.147.5.5,0,0,0-.151-.311,1.756,1.756,0,0,0-.359-.295,2.513,2.513,0,0,0-.429-.22,1.074,1.074,0,0,0-.358-.086.531.531,0,0,0-.1.01.772.772,0,0,0-.2.068,1.194,1.194,0,0,0-.267.185,2.046,2.046,0,0,0-.311.361ZM5.027,10.182a.416.416,0,0,0-.094-.226A.65.65,0,0,0,4.745,9.8a.973.973,0,0,0-.215-.088.7.7,0,0,0-.175-.028,1.244,1.244,0,0,0-.364.079,2.866,2.866,0,0,0-.457.205,1.807,1.807,0,0,0-.391.283.474.474,0,0,0-.166.313.138.138,0,0,0,.015.059.322.322,0,0,0,.035.055c.013.017.027.033.038.046a.2.2,0,0,1,.024.032.94.94,0,0,1,.074.08.221.221,0,0,1,.038.068.328.328,0,0,1,.014.086c0,.035,0,.078,0,.134,0,.132-.007.377-.018.678s-.025.658-.039,1.013-.028.709-.039,1-.018.531-.018.651a.522.522,0,0,0,.1.324.536.536,0,0,0,.22.166.878.878,0,0,0,.229.061.941.941,0,0,0,.125.009,1.074,1.074,0,0,0,.313-.063,1.994,1.994,0,0,0,.381-.174,1.369,1.369,0,0,0,.33-.264.6.6,0,0,0,.16-.333h5.075a3.344,3.344,0,0,0,.011.345.468.468,0,0,0,.074.228.347.347,0,0,0,.2.126,1.491,1.491,0,0,0,.389.039,2.766,2.766,0,0,0,.46-.037,1.727,1.727,0,0,0,.435-.129.852.852,0,0,0,.323-.246.622.622,0,0,0,.127-.388c0-.116-.005-.33-.013-.593s-.018-.573-.028-.882-.02-.617-.028-.873-.013-.462-.013-.566c0-.048,0-.086,0-.121A.594.594,0,0,1,12,11c.009-.034.022-.071.039-.118s.039-.1.067-.175c.008-.024.015-.046.021-.067s.011-.04.015-.058.007-.035.009-.052a.4.4,0,0,0,0-.049A.43.43,0,0,0,12,10.215a1.854,1.854,0,0,0-.359-.27,2.7,2.7,0,0,0-.429-.207,1.12,1.12,0,0,0-.358-.083.7.7,0,0,0-.27.056,1.016,1.016,0,0,0-.231.137,1.663,1.663,0,0,0-.189.173c-.056.059-.1.116-.144.164Zm3.154-6.26c0-.036,0-.1,0-.18s0-.173.006-.266,0-.186.006-.263,0-.139,0-.171h2.145v.881ZM8.149,5.491V4.675h2.193v.817ZM4.931,11.815v-.736a.324.324,0,0,1,.012-.089.218.218,0,0,1,.034-.071.158.158,0,0,1,.055-.047.164.164,0,0,1,.075-.017h4.947v.961Zm0,1.649V12.52h5.123v.945ZM26.481,1.809c.092-.172.164-.306.22-.414s.1-.189.126-.255a.857.857,0,0,0,.057-.165A.654.654,0,0,0,26.9.833.465.465,0,0,0,26.76.511a1.04,1.04,0,0,0-.333-.224,2.026,2.026,0,0,0-.415-.131,1.935,1.935,0,0,0-.38-.043,1.243,1.243,0,0,0-.21.016.786.786,0,0,0-.26.09.575.575,0,0,0-.221.225.863.863,0,0,0-.093.422c-.036.12-.087.286-.163.487a6.384,6.384,0,0,1-.31.694,6.652,6.652,0,0,1-.514.832,7.164,7.164,0,0,1-.775.9c-.028.024-.067.06-.11.1s-.089.089-.132.136a1.592,1.592,0,0,0-.111.133.207.207,0,0,0-.047.093.054.054,0,0,0,.029.046.206.206,0,0,0,.071.024.68.68,0,0,0,.089.009h.083a2.263,2.263,0,0,0,.847-.183,4.2,4.2,0,0,0,.814-.455,6.464,6.464,0,0,0,.712-.584,6.777,6.777,0,0,0,.541-.571h.4a.44.44,0,0,0-.1.1.5.5,0,0,0-.064.115.609.609,0,0,0-.034.121.672.672,0,0,0-.01.115,2.071,2.071,0,0,0,.043.4,1.854,1.854,0,0,0,.13.406.948.948,0,0,0,.22.313.464.464,0,0,0,.313.125.669.669,0,0,0,.393-.156,1.739,1.739,0,0,0,.349-.372,2.359,2.359,0,0,0,.25-.444,1.044,1.044,0,0,0,.1-.372.512.512,0,0,0-.019-.143.347.347,0,0,0-.1-.166c-.02-.018-.039-.032-.055-.044h2.4a2.112,2.112,0,0,0,.225-.011.982.982,0,0,0,.229-.05.419.419,0,0,0,.178-.116.31.31,0,0,0,.072-.209.57.57,0,0,0-.124-.316,1.554,1.554,0,0,0-.3-.306,1.9,1.9,0,0,0-.373-.231.863.863,0,0,0-.34-.091.731.731,0,0,0-.252.05,1.139,1.139,0,0,0-.462.328.759.759,0,0,0-.135.23Zm2.193,6.42V6.644h1.409c.028,0,.081,0,.145-.006a.974.974,0,0,0,.209-.04.451.451,0,0,0,.188-.109.3.3,0,0,0,.082-.213.646.646,0,0,0-.089-.3,1.241,1.241,0,0,0-.225-.29,1.276,1.276,0,0,0-.3-.218.706.706,0,0,0-.314-.086.492.492,0,0,0-.171.034.764.764,0,0,0-.187.1,1.031,1.031,0,0,0-.184.179,1.32,1.32,0,0,0-.162.259h-.368c0-.064,0-.142,0-.23s.006-.186.011-.29.012-.214.02-.326.018-.226.03-.338a1.046,1.046,0,0,1,.01-.105c.006-.047.014-.1.022-.159s.016-.112.022-.159a1.046,1.046,0,0,0,.01-.105.456.456,0,0,0-.08-.269.5.5,0,0,0-.185-.155.863.863,0,0,0-.36-.088,1.22,1.22,0,0,0-.374.09,3.461,3.461,0,0,0-.479.224,2.312,2.312,0,0,0-.413.287.441.441,0,0,0-.176.279.187.187,0,0,0,.01.059.262.262,0,0,0,.024.051.217.217,0,0,0,.027.036c.008.009.015.014.019.014a.184.184,0,0,0,.027.034l.045.046.045.046a.184.184,0,0,1,.027.034c0,.1.008.2.012.29s.007.183.01.268.006.166.007.241,0,.145,0,.209h-.817c0-.052,0-.149.01-.268s.014-.261.022-.4.016-.282.022-.4.01-.211.01-.259a1.381,1.381,0,0,0-.01-.2.492.492,0,0,0-.068-.2.4.4,0,0,0-.185-.153A.9.9,0,0,0,25.648,4a1.235,1.235,0,0,0-.363.077,2.976,2.976,0,0,0-.44.193,1.951,1.951,0,0,0-.37.25.385.385,0,0,0-.156.248.193.193,0,0,0,.013.069.294.294,0,0,0,.033.061.5.5,0,0,0,.042.052l.04.042.128.112c0,.064.008.133.012.2s.007.144.01.216.006.143.007.21,0,.13,0,.186h-.464c-.024,0-.067,0-.119-.008L23.849,5.9l-.172-.017c-.05,0-.09-.008-.11-.008a.462.462,0,0,0-.239.068.669.669,0,0,0-.182.164.836.836,0,0,0-.116.2.5.5,0,0,0-.041.176.362.362,0,0,0,.028.143.33.33,0,0,0,.078.111.352.352,0,0,0,.117.072.41.41,0,0,0,.145.026.7.7,0,0,0,.147-.03c.066-.018.144-.043.222-.068l.222-.071a1.231,1.231,0,0,1,.147-.039l.086-.009.088,0,.085,0h.285V8.229h-.72a1.037,1.037,0,0,1-.1-.01L23.657,8.2,23.5,8.175c-.045-.006-.08-.01-.1-.01a.7.7,0,0,0-.328.074.59.59,0,0,0-.206.179.749.749,0,0,0-.138.42.3.3,0,0,0,.054.177.365.365,0,0,0,.128.108.6.6,0,0,0,.149.054.57.57,0,0,0,.117.015.945.945,0,0,0,.2-.04c.088-.024.191-.056.294-.088s.206-.064.291-.088a.916.916,0,0,1,.191-.04h6.6a1.251,1.251,0,0,0,.211-.018.848.848,0,0,0,.214-.064.437.437,0,0,0,.166-.127.333.333,0,0,0,.067-.207.577.577,0,0,0-.121-.329A1.308,1.308,0,0,0,31,7.9a1.73,1.73,0,0,0-.362-.2.92.92,0,0,0-.328-.077.712.712,0,0,0-.244.052,1.4,1.4,0,0,0-.266.138,1.451,1.451,0,0,0-.239.195.851.851,0,0,0-.163.223Zm-8.165-6.42c.036-.044.086-.106.141-.179s.114-.158.169-.247a1.845,1.845,0,0,0,.142-.274.718.718,0,0,0,.06-.26.494.494,0,0,0-.126-.324.981.981,0,0,0-.308-.23A1.761,1.761,0,0,0,20.2.157a1.583,1.583,0,0,0-.351-.045,1.251,1.251,0,0,0-.242.024.986.986,0,0,0-.254.086.6.6,0,0,0-.206.167.493.493,0,0,0-.1.267,2.046,2.046,0,0,1-.22.648,7.263,7.263,0,0,1-.469.8c-.182.274-.382.546-.577.789a7.009,7.009,0,0,1-.544.612c-.032.032-.1.092-.184.165s-.184.16-.28.245-.188.169-.256.236-.112.118-.112.138a.081.081,0,0,0,.031.065.185.185,0,0,0,.073.033A.488.488,0,0,0,16.6,4.4c.027,0,.051,0,.067,0a2.07,2.07,0,0,0,.457-.079,4.759,4.759,0,0,0,.786-.287,5.4,5.4,0,0,0,.957-.573,5.453,5.453,0,0,0,.97-.934h1.009a.311.311,0,0,0-.1.11.527.527,0,0,0-.052.136.788.788,0,0,0-.019.121c0,.033,0,.057,0,.065a1.715,1.715,0,0,0,.059.407,2.225,2.225,0,0,0,.171.458,1.269,1.269,0,0,0,.276.374.563.563,0,0,0,.374.155.531.531,0,0,0,.371-.172,1.43,1.43,0,0,0,.271-.4,2.621,2.621,0,0,0,.166-.459,1.526,1.526,0,0,0,.056-.343.513.513,0,0,0-.008-.077.8.8,0,0,0-.029-.117.684.684,0,0,0-.059-.132.5.5,0,0,0-.1-.122h1.169a2.313,2.313,0,0,0,.24-.01.845.845,0,0,0,.216-.048A.349.349,0,0,0,24,2.361a.32.32,0,0,0,.06-.2.607.607,0,0,0-.118-.334,1.354,1.354,0,0,0-.288-.3,1.7,1.7,0,0,0-.357-.214.859.859,0,0,0-.325-.082.645.645,0,0,0-.211.041,1.071,1.071,0,0,0-.229.116,1.245,1.245,0,0,0-.217.182,1.142,1.142,0,0,0-.175.239Zm4.867,7.925a.6.6,0,0,0-.114-.222.436.436,0,0,0-.148-.114.5.5,0,0,0-.145-.042.741.741,0,0,0-.1-.006,1.266,1.266,0,0,0-.37.076,2.724,2.724,0,0,0-.439.193,1.749,1.749,0,0,0-.367.259.416.416,0,0,0-.154.274.219.219,0,0,0,0,.051.13.13,0,0,0,.02.043.421.421,0,0,0,.044.052l.077.078a.192.192,0,0,1,.037.051.228.228,0,0,1,.019.059.466.466,0,0,1,.007.068c0,.024,0,.05,0,.078,0,.148-.007.421-.018.756s-.025.731-.039,1.125-.028.786-.039,1.113-.018.588-.018.72a1.208,1.208,0,0,0,.01.186.393.393,0,0,0,.068.176.386.386,0,0,0,.185.131,1.056,1.056,0,0,0,.361.051,1.132,1.132,0,0,0,.246-.03,1.746,1.746,0,0,0,.243-.075,2.17,2.17,0,0,0,.219-.1,1.87,1.87,0,0,0,.174-.1.562.562,0,0,0,.12-.122.422.422,0,0,0,.062-.132.734.734,0,0,0,.023-.153c0-.056,0-.117,0-.185h2.5c0,.128,0,.241.01.339a.6.6,0,0,0,.068.246.348.348,0,0,0,.185.15,1.029,1.029,0,0,0,.361.051,1.456,1.456,0,0,0,.217-.018,1.985,1.985,0,0,0,.233-.051,2.214,2.214,0,0,0,.236-.081,2.057,2.057,0,0,0,.226-.108.964.964,0,0,0,.2-.141.432.432,0,0,0,.1-.147.556.556,0,0,0,.039-.171c.006-.063.006-.133.006-.213,0-.04-.006-.226-.015-.491s-.021-.608-.033-.962-.024-.719-.033-1.028-.015-.561-.015-.689a.576.576,0,0,1,.025-.122c.015-.054.035-.118.055-.182s.04-.128.055-.182a.576.576,0,0,0,.025-.122.416.416,0,0,0-.138-.264,1.612,1.612,0,0,0-.33-.254,2.37,2.37,0,0,0-.4-.191,1.059,1.059,0,0,0-.336-.075.463.463,0,0,0-.177.041.964.964,0,0,0-.183.105,1.493,1.493,0,0,0-.171.144,1.515,1.515,0,0,0-.141.158Zm-4.483-.656h1.329a.888.888,0,0,0,.213-.023.472.472,0,0,0,.156-.067.293.293,0,0,0,.1-.106.3.3,0,0,0,.033-.14.612.612,0,0,0-.08-.291.966.966,0,0,0-.2-.251,1.063,1.063,0,0,0-.265-.176.662.662,0,0,0-.269-.066.434.434,0,0,0-.216.059.69.69,0,0,0-.168.139,1.2,1.2,0,0,0-.12.16c-.032.05-.056.094-.072.122h-.416V7.573h1.233c.044,0,.1,0,.164,0a.915.915,0,0,0,.19-.032.363.363,0,0,0,.157-.086.226.226,0,0,0,.065-.167.481.481,0,0,0-.085-.254A1,1,0,0,0,22.42,6.8a1.207,1.207,0,0,0-.276-.169.711.711,0,0,0-.274-.065.457.457,0,0,0-.162.031.639.639,0,0,0-.148.082,1,1,0,0,0-.133.118,1.5,1.5,0,0,0-.117.139h-.384c0-.06,0-.125,0-.194s0-.141,0-.216,0-.153,0-.231.005-.159.009-.239h1.553c.064,0,.131,0,.2,0a.708.708,0,0,0,.181-.033A.276.276,0,0,0,23,5.923a.281.281,0,0,0,.052-.176.586.586,0,0,0-.076-.267,1.132,1.132,0,0,0-.464-.456.655.655,0,0,0-.292-.078.446.446,0,0,0-.139.025.786.786,0,0,0-.167.081,1.14,1.14,0,0,0-.182.144,1.524,1.524,0,0,0-.184.214h-.592c0-.04,0-.116.01-.209s.014-.2.022-.313.016-.217.022-.3.01-.154.01-.182a2.449,2.449,0,0,0-.009-.262.477.477,0,0,0-.061-.2.321.321,0,0,0-.166-.13.923.923,0,0,0-.324-.046,1.545,1.545,0,0,0-.444.081,2.712,2.712,0,0,0-.477.2,1.765,1.765,0,0,0-.381.27A.428.428,0,0,0,19,4.595a.227.227,0,0,0,.043.094c.026.04.06.086.1.13s.071.086.1.118L19.292,5a.323.323,0,0,1,.009.063c0,.028,0,.062,0,.095s0,.066,0,.092,0,.046,0,.054v.1H18.075c-.024,0-.068,0-.122-.01l-.182-.022-.182-.022c-.054-.006-.1-.01-.122-.01a.443.443,0,0,0-.232.069.687.687,0,0,0-.182.168.868.868,0,0,0-.119.21.553.553,0,0,0-.043.195.347.347,0,0,0,.031.151.255.255,0,0,0,.083.1.355.355,0,0,0,.122.054.623.623,0,0,0,.148.016.573.573,0,0,0,.114-.017c.047-.011.1-.026.164-.044s.128-.039.2-.062l.213-.071a.7.7,0,0,1,.117-.019c.048,0,.1-.008.159-.01l.165,0h.92v.849h-.7c-.024,0-.068,0-.122-.008l-.182-.017-.182-.017c-.054,0-.1-.008-.122-.008a.453.453,0,0,0-.243.071.626.626,0,0,0-.175.17.84.84,0,0,0-.106.206.566.566,0,0,0-.036.179.247.247,0,0,0,.036.133.27.27,0,0,0,.094.089.456.456,0,0,0,.133.05.715.715,0,0,0,.153.016.7.7,0,0,0,.139-.025c.061-.015.132-.036.2-.057l.2-.06c.059-.017.106-.03.13-.034a1.044,1.044,0,0,1,.111-.014l.2-.016c.077-.005.161-.01.242-.013s.16-.005.228-.005v.849H17.579c-.024,0-.069,0-.124-.008l-.186-.017-.183-.017c-.053,0-.1-.008-.115-.008a.441.441,0,0,0-.223.063.668.668,0,0,0-.178.155.8.8,0,0,0-.118.194.484.484,0,0,0-.043.18.428.428,0,0,0,.024.141.381.381,0,0,0,.07.123.337.337,0,0,0,.115.087.377.377,0,0,0,.159.033.817.817,0,0,0,.166-.033c.074-.02.162-.046.25-.073l.25-.076a1.349,1.349,0,0,1,.166-.042c.036,0,.081-.007.131-.009l.159,0,.162,0h1.261c0,.032,0,.064,0,.1s0,.065,0,.1,0,.067,0,.1-.005.069-.009.105a.4.4,0,0,0-.051-.045.278.278,0,0,0-.069-.036.5.5,0,0,0-.105-.024,1.268,1.268,0,0,0-.159-.009A1.317,1.317,0,0,0,18.7,9.4a.991.991,0,0,0-.216.063.714.714,0,0,0-.186.114.59.59,0,0,0-.138.172,5.986,5.986,0,0,1-.376,1.165,9.359,9.359,0,0,1-.531,1.038c-.183.311-.363.581-.51.789s-.261.354-.313.418c-.024.032-.056.071-.091.112l-.106.124c-.034.04-.065.077-.088.106a.18.18,0,0,0-.037.058.09.09,0,0,0,.016.056.086.086,0,0,0,.04.029.2.2,0,0,0,.052.011l.052,0a1.752,1.752,0,0,0,.689-.173,3.816,3.816,0,0,0,.81-.505,5.3,5.3,0,0,0,.813-.814,5.771,5.771,0,0,0,.7-1.1c-.008.108-.022.324-.039.59s-.036.582-.055.889-.038.606-.052.838-.026.4-.03.437l-.021.219c-.006.063-.011.116-.015.163s-.007.088-.009.124,0,.07,0,.1a.466.466,0,0,0,.242.426.748.748,0,0,0,.21.08.873.873,0,0,0,.188.022,1.412,1.412,0,0,0,.321-.044,1.528,1.528,0,0,0,.41-.164,1.039,1.039,0,0,0,.352-.332,1,1,0,0,0,.15-.548c0-.088,0-.253-.008-.456s-.011-.444-.017-.684-.012-.479-.017-.678-.008-.358-.008-.438v-.432c.192.236.355.419.493.561a3.432,3.432,0,0,0,.341.313,1.112,1.112,0,0,0,.212.136.267.267,0,0,0,.106.03.92.92,0,0,0,.3-.078,2.586,2.586,0,0,0,.389-.2,1.738,1.738,0,0,0,.338-.264A.436.436,0,0,0,23.2,11.4a.364.364,0,0,0-.017-.12.217.217,0,0,0-.049-.081.321.321,0,0,0-.076-.057c-.029-.017-.062-.032-.1-.048a4.44,4.44,0,0,1-.489-.224c-.175-.092-.359-.2-.543-.322a6.719,6.719,0,0,1-.543-.4,5.185,5.185,0,0,1-.489-.45Zm5.283-.849V6.644h.849V8.229Zm-.849,3.218V10.5a.073.073,0,0,1,.024-.056.134.134,0,0,1,.057-.029.355.355,0,0,1,.069-.011l.06,0h2.305v1.041Zm.016,1.841c0-.024,0-.07,0-.127s0-.125-.006-.193,0-.136-.006-.193,0-.1,0-.127V12.12h2.514v1.169Zm20.4-5.4a1.639,1.639,0,0,0,.271-.06,1.024,1.024,0,0,0,.253-.117.6.6,0,0,0,.187-.189.524.524,0,0,0,.073-.276,1.145,1.145,0,0,0-.171-.574,1.982,1.982,0,0,0-.426-.5,2.3,2.3,0,0,0-.552-.35,1.4,1.4,0,0,0-.549-.132,1.031,1.031,0,0,0-.273.039,1.288,1.288,0,0,0-.339.151,1.72,1.72,0,0,0-.369.316,2.652,2.652,0,0,0-.363.534H35.19a1.812,1.812,0,0,1-.249-.033c-.111-.02-.243-.046-.375-.072s-.264-.052-.375-.072a1.812,1.812,0,0,0-.249-.033.8.8,0,0,0-.371.1,1.12,1.12,0,0,0-.317.252,1.263,1.263,0,0,0-.221.354,1.064,1.064,0,0,0-.083.4.733.733,0,0,0,.039.25.432.432,0,0,0,.114.175.475.475,0,0,0,.186.1.873.873,0,0,0,.255.034,1.549,1.549,0,0,0,.274-.048c.123-.029.269-.067.417-.1s.295-.076.42-.1a1.584,1.584,0,0,1,.283-.048ZM58.485,2.369c.072-.144.143-.291.209-.435s.127-.283.179-.412.1-.248.125-.349a.944.944,0,0,0,.047-.245.424.424,0,0,0-.1-.254,1.064,1.064,0,0,0-.265-.232,1.562,1.562,0,0,0-.361-.169,1.3,1.3,0,0,0-.391-.065.933.933,0,0,0-.449.1.6.6,0,0,0-.239.235.855.855,0,0,0-.1.289,1.671,1.671,0,0,0-.017.259c-.016.088-.056.264-.121.5s-.155.532-.271.861-.258.688-.427,1.053a8.687,8.687,0,0,1-.589,1.077c-.008.016-.017.032-.026.048l-.026.045a.414.414,0,0,0-.02.039.079.079,0,0,0-.008.03.127.127,0,0,0,.014.061.108.108,0,0,0,.036.04.159.159,0,0,0,.051.022.254.254,0,0,0,.059.007,1.072,1.072,0,0,0,.251-.069,3.037,3.037,0,0,0,.523-.257,3.76,3.76,0,0,0,.664-.518,4.326,4.326,0,0,0,.675-.853H62.2a1.808,1.808,0,0,0,.2-.011,1.12,1.12,0,0,0,.243-.053.5.5,0,0,0,.2-.125.322.322,0,0,0,.086-.227.714.714,0,0,0-.115-.354,1.551,1.551,0,0,0-.286-.342,1.678,1.678,0,0,0-.37-.258.847.847,0,0,0-.367-.1.478.478,0,0,0-.2.053,1.242,1.242,0,0,0-.229.145,1.835,1.835,0,0,0-.229.214,1.749,1.749,0,0,0-.2.26Zm-.608,2.353c-.016,0-.048,0-.088-.008L57.652,4.7l-.136-.017c-.04,0-.072-.008-.088-.008a.925.925,0,0,0-.4.078.562.562,0,0,0-.222.183.617.617,0,0,0-.1.213.719.719,0,0,0-.021.168.3.3,0,0,0,.053.172.389.389,0,0,0,.129.114.632.632,0,0,0,.162.063.662.662,0,0,0,.152.019,1.367,1.367,0,0,0,.213-.033c.1-.02.21-.046.325-.072s.231-.052.328-.072a1.408,1.408,0,0,1,.222-.033l.7-.009.7,0,.707,0h.708c.044,0,.118,0,.2-.006a1.512,1.512,0,0,0,.278-.044.614.614,0,0,0,.245-.119.3.3,0,0,0,.105-.231.672.672,0,0,0-.1-.341,1.207,1.207,0,0,0-.258-.3,1.409,1.409,0,0,0-.333-.21.838.838,0,0,0-.329-.08.567.567,0,0,0-.211.052,1.306,1.306,0,0,0-.239.136,1.413,1.413,0,0,0-.218.19.814.814,0,0,0-.148.214ZM50.912,6.116h4.531c.06,0,.143,0,.234-.006a1.511,1.511,0,0,0,.28-.042.574.574,0,0,0,.235-.114.284.284,0,0,0,.1-.222.472.472,0,0,0-.108-.288.983.983,0,0,0-.264-.228,1.5,1.5,0,0,0-.33-.15,1.058,1.058,0,0,0-.306-.054.638.638,0,0,0-.19.034,1.192,1.192,0,0,0-.216.1,1.412,1.412,0,0,0-.213.147,1.188,1.188,0,0,0-.181.187h-.993c0-.036,0-.105,0-.191s0-.188-.006-.291,0-.207-.006-.294,0-.16,0-.2h.464a.773.773,0,0,0,.011.15.258.258,0,0,0,.062.128.332.332,0,0,0,.158.089,1.1,1.1,0,0,0,.3.033,1.723,1.723,0,0,0,.354-.042,1.9,1.9,0,0,0,.388-.128,1,1,0,0,0,.313-.215.442.442,0,0,0,.129-.3c0-.012,0-.069-.005-.15s-.007-.186-.011-.294-.008-.219-.011-.312-.005-.168-.005-.2a.242.242,0,0,1,.02-.066c.012-.03.028-.066.044-.1s.032-.072.044-.1a.242.242,0,0,0,.02-.066.39.39,0,0,0-.123-.269,1.028,1.028,0,0,0-.294-.2,1.867,1.867,0,0,0-.354-.126,1.325,1.325,0,0,0-.3-.044.62.62,0,0,0-.17.027.892.892,0,0,0-.184.078.937.937,0,0,0-.175.126A.821.821,0,0,0,54,2.674h-.544c0-.032,0-.1,0-.176s0-.177.006-.274,0-.195.006-.277,0-.149,0-.185h1.873a.924.924,0,0,0,.212-.024.664.664,0,0,0,.185-.072.393.393,0,0,0,.131-.12.3.3,0,0,0,.05-.168.583.583,0,0,0-.107-.317,1.155,1.155,0,0,0-.267-.277,1.479,1.479,0,0,0-.348-.2.985.985,0,0,0-.35-.074.521.521,0,0,0-.2.043.866.866,0,0,0-.2.121,1.26,1.26,0,0,0-.19.187A1.528,1.528,0,0,0,54.1,1.1l-3.186.016a.556.556,0,0,0-.106-.239.506.506,0,0,0-.164-.135.647.647,0,0,0-.173-.06.693.693,0,0,0-.133-.014,1.114,1.114,0,0,0-.4.1,2.261,2.261,0,0,0-.435.242,1.736,1.736,0,0,0-.348.317.548.548,0,0,0-.142.321.146.146,0,0,0,.033.061c.02.027.047.059.075.091l.081.091a.761.761,0,0,1,.051.061.42.42,0,0,1,.019.1c0,.043.008.094.01.146s0,.105,0,.152,0,.088,0,.116c0,.148-.006.44-.015.806s-.021.8-.033,1.244-.024.883-.033,1.256-.015.677-.015.842a1.223,1.223,0,0,0,.009.171.513.513,0,0,0,.061.189.385.385,0,0,0,.166.153.725.725,0,0,0,.324.063,1.632,1.632,0,0,0,.385-.051A1.809,1.809,0,0,0,50.508,7,1.019,1.019,0,0,0,50.8,6.79a.386.386,0,0,0,.115-.258Zm4.979,5.475v1.473a1.253,1.253,0,0,0,.153.634,1.219,1.219,0,0,0,.422.425,2.54,2.54,0,0,0,.635.272,6.847,6.847,0,0,0,.792.174c.08.012.216.034.4.06s.423.057.7.086.607.057.971.077.768.033,1.2.033a3.875,3.875,0,0,0,.652-.042,1.365,1.365,0,0,0,.508-.186,1.517,1.517,0,0,0,.424-.42,4.185,4.185,0,0,0,.4-.744c.02-.048.05-.127.084-.221s.071-.2.106-.313.068-.218.091-.31a1.025,1.025,0,0,0,.039-.212.13.13,0,0,0-.024-.075.2.2,0,0,0-.06-.055.31.31,0,0,0-.078-.034.288.288,0,0,0-.078-.012.393.393,0,0,0-.127.028,1.357,1.357,0,0,0-.147.066c-.049.025-.1.052-.138.075s-.076.043-.1.055a6.843,6.843,0,0,1-1.151.565,6.317,6.317,0,0,1-1.019.29,6.45,6.45,0,0,1-.839.107c-.244.015-.45.015-.61.015-.108,0-.252,0-.41,0s-.328-.014-.489-.033a2.04,2.04,0,0,1-.432-.09.381.381,0,0,1-.238-.176.868.868,0,0,1-.048-.282c-.009-.134-.011-.3-.01-.464s.006-.331.011-.467.011-.243.015-.291h.72a.434.434,0,0,1,.009.055c0,.02,0,.041,0,.061s0,.039,0,.055,0,.029,0,.037a.949.949,0,0,0,.01.167.3.3,0,0,0,.068.149.384.384,0,0,0,.185.107,1.294,1.294,0,0,0,.361.041,1.555,1.555,0,0,0,.215-.016,1.846,1.846,0,0,0,.233-.049,2.068,2.068,0,0,0,.245-.085,2.238,2.238,0,0,0,.251-.124,1.166,1.166,0,0,0,.222-.149.473.473,0,0,0,.114-.145.455.455,0,0,0,.042-.154,1.638,1.638,0,0,0,.006-.176c0-.136-.009-.405-.023-.742s-.032-.741-.05-1.147-.036-.815-.05-1.159-.023-.626-.023-.778a.6.6,0,0,1,.023-.113c.014-.052.032-.114.05-.177s.036-.127.05-.18a.627.627,0,0,0,.023-.122.439.439,0,0,0-.124-.271,1.373,1.373,0,0,0-.3-.253,1.956,1.956,0,0,0-.377-.187,1.072,1.072,0,0,0-.349-.073.712.712,0,0,0-.13.011.755.755,0,0,0-.2.067.945.945,0,0,0-.239.172,1.456,1.456,0,0,0-.247.326H53.185A.263.263,0,0,0,53.1,6.58a.57.57,0,0,0-.17-.1,1.032,1.032,0,0,0-.185-.056.739.739,0,0,0-.133-.017,1.136,1.136,0,0,0-.358.081,2.6,2.6,0,0,0-.429.205,1.751,1.751,0,0,0-.359.274.45.45,0,0,0-.151.288.288.288,0,0,0,.006.058.331.331,0,0,0,.016.055.527.527,0,0,0,.025.055c.01.019.021.038.033.058l.077.1a.374.374,0,0,1,.044.067.221.221,0,0,1,.02.07.85.85,0,0,1,0,.1c0,.068-.007.312-.018.647s-.025.76-.039,1.19-.028.866-.039,1.22-.018.629-.018.737a1.5,1.5,0,0,0,.011.219.453.453,0,0,0,.075.2.422.422,0,0,0,.2.147,1.152,1.152,0,0,0,.4.057,1.181,1.181,0,0,0,.293-.041,1.463,1.463,0,0,0,.311-.121,1.1,1.1,0,0,0,.269-.2.677.677,0,0,0,.167-.266l.32-.016a1.378,1.378,0,0,1-.383.717,4.993,4.993,0,0,1-.931.792,8.864,8.864,0,0,1-1.331.738,9.631,9.631,0,0,1-1.581.555l-.5.124c-.126.032-.216.056-.28.076a.459.459,0,0,0-.124.052.058.058,0,0,0-.028.052.145.145,0,0,0,.088.123.7.7,0,0,0,.208.067,2.024,2.024,0,0,0,.244.028c.078,0,.148.006.2.006a9,9,0,0,0,4.407-1.179,5.562,5.562,0,0,0,1.379-1.084,1.7,1.7,0,0,0,.506-1.067ZM51.856,2.674h-.945V1.921a.134.134,0,0,1,.011-.045.3.3,0,0,1,.027-.053.215.215,0,0,1,.036-.044.061.061,0,0,1,.038-.018h.817Zm2.081,1.281H50.912V3.2h3.026Zm4.275,4.227H53.185V7.637a.211.211,0,0,1,.012-.071.186.186,0,0,1,.036-.062.172.172,0,0,1,.06-.044.208.208,0,0,1,.084-.017h4.835Zm.016,1.409H53.185V8.854h5.043ZM51.872,4.5c0,.036,0,.105,0,.191s0,.188-.006.291,0,.207-.006.294,0,.16,0,.2h-.945V4.5Zm6.356,6.452H53.185v-.7h5.043Z" fill="#fff"/>
</svg>
