<svg xmlns="http://www.w3.org/2000/svg" width="64.912" height="11.344" viewBox="0 0 64.912 11.344">
  <path id="パス_3650" data-name="パス 3650" d="M11.456-6.256c-2.288.128-5.152.16-7.472.16-.192,0-1.008-.128-1.168-.128A1.36,1.36,0,0,0,1.568-5.056c0,.32.3.512.688.512.24,0,1.232-.368,1.44-.4a62.9,62.9,0,0,1,6.928-.3h3.04c.368-.048.768-.16.768-.544,0-.752-.944-1.12-1.552-1.12A2.037,2.037,0,0,0,11.456-6.256Zm23.808,3.04c0-1.824-3.088-2.7-4.192-2.7-.24,0-.5.08-.5.176s.144.144.352.208a4.3,4.3,0,0,1,2.032,1.92c.032.064.512.864.528.9a1.27,1.27,0,0,0,.864.272A.82.82,0,0,0,35.264-3.216ZM28.512-5.168c0,2.24,0,3.248-.8,3.248a2.153,2.153,0,0,1-.592-.112,2.98,2.98,0,0,0-.384-.144c-.08,0-.1.08-.1.112S27.7-.384,28.5-.384a1.761,1.761,0,0,0,1.712-1.76c0-.1-.128-2.3-.144-2.736-.016-.528-.048-2.1-.016-2.528.7-.064.864-.08,1.136-.08H33.7c.368,0,.72-.048.72-.448,0-.56-.736-.928-1.232-.928a1.641,1.641,0,0,0-1.072.528c-.5.064-1.248.16-2.032.256.016-.448.032-1.36.144-2.176a4.525,4.525,0,0,0,.08-.64c0-.56-.944-.832-1.344-.832-.1,0-.656.064-.656.464,0,.144.08.768.1.9.112,1.184.112,2.08.112,2.448-.288.032-2.8.224-2.96.224-.1,0-.56-.032-.656-.032a.734.734,0,0,0-.816.752c0,.4.352.512.64.512a1.879,1.879,0,0,0,.688-.192,24.134,24.134,0,0,1,3.1-.64Zm-1.952.08A2.98,2.98,0,0,1,24.3-3.472c-.368.08-.88.176-.88.72,0,.512.56.8.976.8a3.04,3.04,0,0,0,2.624-2.912c0-.144-.048-.368-.224-.368A.266.266,0,0,0,26.56-5.088ZM48.784-6.256c-2.288.128-5.152.16-7.472.16-.192,0-1.008-.128-1.168-.128A1.36,1.36,0,0,0,38.9-5.056c0,.32.3.512.688.512.24,0,1.232-.368,1.44-.4a62.9,62.9,0,0,1,6.928-.3h3.04c.368-.048.768-.16.768-.544,0-.752-.944-1.12-1.552-1.12A2.037,2.037,0,0,0,48.784-6.256ZM62.752-5.9a12.231,12.231,0,0,1,1.12,1.888,39.677,39.677,0,0,1-4.4.864c.848-1.728,1.7-3.456,2.576-5.168.3-.576.368-.656.368-.928,0-.576-.944-.8-1.264-.8-.832,0-.9.656-.928.976-.208,1.968-2.112,5.648-2.3,6.016-.208.016-1.088.048-1.264.064-.224.032-.72.24-.72.608a1.053,1.053,0,0,0,.976,1.008,37.764,37.764,0,0,0,7.168-2.08,12.508,12.508,0,0,1,.512,1.328.91.91,0,0,0,.912.688.977.977,0,0,0,.976-1.008,4.223,4.223,0,0,0-1.488-2.544,5.525,5.525,0,0,0-2.16-1.184c-.1,0-.176.032-.176.1A.388.388,0,0,0,62.752-5.9Z" transform="translate(-1.568 11.728)" fill="#fff"/>
</svg>
