<svg xmlns="http://www.w3.org/2000/svg" width="161.744" height="14.336" viewBox="0 0 161.744 14.336">
  <path id="パス_3647" data-name="パス 3647" d="M11.456-6.256c-2.288.128-5.152.16-7.472.16-.192,0-1.008-.128-1.168-.128A1.36,1.36,0,0,0,1.568-5.056c0,.32.3.512.688.512.24,0,1.232-.368,1.44-.4a62.9,62.9,0,0,1,6.928-.3h3.04c.368-.048.768-.16.768-.544,0-.752-.944-1.12-1.552-1.12A2.037,2.037,0,0,0,11.456-6.256ZM27.84-4.1A19.309,19.309,0,0,1,28.176-7.9c.72-.224,2.176-.688,2.176-1.232,0-.352-.64-.656-1.072-.656a.78.78,0,0,0-.448.112c-.064.048-.32.288-.384.336.032-.32.448-1.936.448-1.968,0-.656-1.12-1.136-1.68-1.136-.24,0-.592.16-.592.48a2.967,2.967,0,0,0,.192.528,2.127,2.127,0,0,1,.1.672c0,.272-.016.448-.1,1.936a3.5,3.5,0,0,1-1.52.256,4.458,4.458,0,0,1-1.28-.16,1.111,1.111,0,0,0-.208-.08c-.208,0-.224.128-.224.176a2.067,2.067,0,0,0,1.888,1.232,5.12,5.12,0,0,0,1.216-.24A30.318,30.318,0,0,0,26.3-3.616c0,1.3.752,1.664,1.28,1.664.5,0,.576-.176.848-.752A3.8,3.8,0,0,1,31.408-5.04c.928,0,1.3.608,1.3,1.632,0,2.688-3.792,3.1-4.9,3.232-.864.1-.96.112-.96.272,0,.24.352.24.9.24,6.816,0,6.944-3.072,6.944-3.68,0-1.52-1.344-2.384-2.944-2.384a5.682,5.682,0,0,0-3.216,1.12A3.209,3.209,0,0,0,27.84-4.1ZM48.72-6.848c0-.448-.64-.7-.928-.7a3.173,3.173,0,0,0-.848.352,1.717,1.717,0,0,1-.784.208c-.16,0-.24,0-.24.1,0,.272.512.72,1.184.72C47.584-6.176,48.72-6.3,48.72-6.848ZM44.608-2.592c-1.088,0-3.136.5-3.136,1.712,0,.912,1.264,1.056,1.808,1.056a2.719,2.719,0,0,0,2.832-1.728A8.7,8.7,0,0,1,47.632,0,1.244,1.244,0,0,0,48.4.32a.555.555,0,0,0,.592-.56c0-.56-1.36-1.776-2.832-2.176A19.812,19.812,0,0,0,45.968-4.8a22.582,22.582,0,0,1-.176-2.352,6.016,6.016,0,0,1,.112-1.1,1.109,1.109,0,0,0,.048-.256c0-.528-.816-.864-1.344-.864-.208,0-.48.112-.48.32,0,.128.288.656.3.768.048.3.08,1.648.1,1.92.048.608.416,3.232.432,3.776Zm.3.624A1.294,1.294,0,0,1,43.488-.64c-.224,0-.784,0-.784-.416,0-.7,1.152-1.008,1.776-1.008A.729.729,0,0,1,44.912-1.968ZM68.1-5.1c0-1.408-1.7-3.216-4.288-3.216-.784,0-1.792.224-1.792.464,0,.128.1.128.944.224.608.064,2.064.24,3.056,2.624.3.736.4.992.912.992A1.28,1.28,0,0,0,68.1-5.1ZM60.688-5.84a24.728,24.728,0,0,1-1.152,2.816.5.5,0,0,1-.416.224,1.521,1.521,0,0,1-.784-.32c-1.056-.736-1.28-2.368-1.28-3.488a9.783,9.783,0,0,1,.16-1.728c.016-.064.1-.608.1-.656,0-.64-1.2-1.232-1.776-1.232-.16,0-.448.048-.448.352,0,.128.24.64.24.752.064,2.64.112,4.1,1.04,5.68a4.569,4.569,0,0,0,3.376,2.416c.592,0,1.232-.3,1.232-.9,0-.192-.048-1.008-.048-1.184a8.679,8.679,0,0,1,.128-1.648A7.643,7.643,0,0,0,61.2-5.76c0-.16-.048-.3-.24-.3C60.8-6.064,60.736-5.952,60.688-5.84ZM82.016-8.752c0,.272-.032,1.616-.032,1.9,0,.144,0,.416.368.416.3,0,.464-.208.672-.5a6.827,6.827,0,0,0,1.12-2.24,1.056,1.056,0,0,0-1.072-.96,1.348,1.348,0,0,0-.976.592H79.52a10.6,10.6,0,0,0,.912-2.64c0-.448-.544-.816-1.056-.816a.806.806,0,0,0-.88.7,15.573,15.573,0,0,1-1.2,4.24c-.08.192-.544,1.216-.544,1.232,0,.08.064.112.144.112.464,0,1.616-1.136,2.208-2.048ZM74.784-10.88c.224.256,1.232,1.408,1.744,1.408.336,0,1.184-.4,1.184-.8,0-.176-.144-.24-.512-.416A4.28,4.28,0,0,1,75.616-11.7a.314.314,0,0,0,.08-.224c0-.512-.576-.832-1.12-.832-.32,0-.352.048-.96.64a20.759,20.759,0,0,1-3.328,2.624c-.56.336-.928.56-.928.64,0,.128.3.144.432.144C71.04-8.7,72.88-9.6,74.784-10.88ZM80.4-4.928c.144,2.768.736,4.08,1.488,5.088a1.478,1.478,0,0,0,1.056.7A6.581,6.581,0,0,0,85.168,0c0-.08-1.12-.736-1.328-.9A8.635,8.635,0,0,1,80.688-7.28a2.051,2.051,0,0,0,.1-.512c0-.5-.688-.544-.832-.544-.512,0-1.264.512-1.264.944,0,.064.032.112.144.24.016,0,.048.048.064.064-.08,4.032-.656,5.824-3.552,7.1-.176.08-1.152.352-1.152.5,0,.16.272.16.368.16a6.459,6.459,0,0,0,3.056-.88,5.59,5.59,0,0,0,2.736-4.72ZM73.1-8.4a.764.764,0,0,0-.624-.336c-.368,0-1.28.608-1.28,1.008,0,.08.3.352.3.432.016.064.032,3.6.032,4.1,0,.928-.016,1.328-.032,1.6-.528,0-1.5.016-1.5.784a.864.864,0,0,0,.928.8,14.473,14.473,0,0,0,4.464-1.536c.016.048.128.24.144.272.144.352.224.5.624.5a.968.968,0,0,0,.944-.832c0-1.216-2.176-2.192-2.832-2.192-.1,0-.256.032-.256.16,0,.048.032.1.32.432a5.179,5.179,0,0,1,.72,1.12,17.219,17.219,0,0,1-1.968.368V-4.56H75.1c0,.16.016.448.528.448.3,0,1.184-.16,1.184-.672,0-.032-.1-2.048-.1-2.432a1.677,1.677,0,0,1,.064-.56,1.057,1.057,0,0,0,.08-.24c0-.352-.464-.7-.864-.7a1.2,1.2,0,0,0-.784.32h-.272a6.349,6.349,0,0,1,.128-1.1,1.386,1.386,0,0,0,.032-.16c0-.448-.608-.48-.656-.48-.368,0-1.328.416-1.328.784,0,.1.032.112.24.24.112.08.112.576.112.72Zm2.032,1.552H73.088v-.9h2.048Zm.016,1.6H73.088V-6.16h2.064ZM97.3-4.256a5.276,5.276,0,0,0,.256-1.36c0-.944-.976-1.12-1.472-1.12-.352,0-.752.08-.752.272a3.481,3.481,0,0,0,.224.4.954.954,0,0,1,.144.5,3.889,3.889,0,0,1-.112.9,10.858,10.858,0,0,0-3.456-.672,37.687,37.687,0,0,1,2.7-4.752c.208-.32.24-.352.24-.5,0-.528-.688-.9-1.184-.9-.224,0-.288.048-.864.4a7.922,7.922,0,0,1-2.736.576c-.144,0-.8-.128-.928-.128a.291.291,0,0,0-.256.272c0,.544.816,1.136,1.312,1.136.272,0,.416-.08,1.792-.752a1.162,1.162,0,0,1,.4-.16c.064,0,.08.032.08.08A25.646,25.646,0,0,1,90.64-5.28c-3.1.464-3.776,1.824-3.776,2.32,0,.88.848,1.216,1.728,1.216,1.488,0,1.792-.528,3.152-2.9a8.083,8.083,0,0,1,3.52.8A5.948,5.948,0,0,1,91.616.1c-.9.3-.928.32-.928.4,0,.144.208.176.384.176a7.667,7.667,0,0,0,2.864-.7,5.758,5.758,0,0,0,2.912-3.12,10.319,10.319,0,0,1,1.024.608c.992.672,1.328.912,1.728.912.256,0,.736-.176.736-.512,0-.208-.256-1.36-1.184-1.44A7.224,7.224,0,0,1,97.3-4.256Zm-6.848-.432c-.672,1.232-1.1,2.016-1.68,2.016a.281.281,0,0,1-.288-.3C88.48-3.648,89.312-4.384,90.448-4.688ZM106.672-.32c-.128,0-.768-.08-.928-.08a.1.1,0,0,0-.112.112,3.282,3.282,0,0,0,2.56,1.424c1.3,0,1.984-.96,1.984-2.48,0-.4-.064-2.336-.064-2.784H115.9c.368,0,.944-.1.944-.544a1.494,1.494,0,0,0-1.312-1.3,1.655,1.655,0,0,0-1.232.848c-.992.016-1.872.032-4.208.048L110.08-7.44h3.9c.32,0,.992-.064.992-.528a1.393,1.393,0,0,0-1.264-1.2,1.355,1.355,0,0,0-1.1.816c-.368,0-2.128.016-2.528.016,0-.656.016-.944.048-2.128a24.4,24.4,0,0,0,2.624-.672c.544-.192,1.072-.432,1.072-.912,0-.672-.976-1.152-1.5-1.152a1.046,1.046,0,0,0-.944.592,21.336,21.336,0,0,1-7.584,1.616c-.7.048-.784.048-.784.192,0,.528,2.832.56,3.328.56a11.41,11.41,0,0,0,1.856-.1c.048.656.064,1.3.064,2h-2.272c-.368,0-1.056,0-1.36-.032-.1-.016-.592-.128-.7-.128a.911.911,0,0,0-.8.88.515.515,0,0,0,.528.5c.16,0,.912-.224,1.088-.256a5.526,5.526,0,0,1,.944-.048h2.592v2.352c-.624,0-3.648-.032-4.32-.032a6.311,6.311,0,0,1-.736-.032c-.1,0-.624-.1-.736-.1-.448,0-.768.56-.768.928a.546.546,0,0,0,.592.512,9.183,9.183,0,0,0,1.056-.256,3.578,3.578,0,0,1,.8-.048l4.08-.032V-2c0,.832-.16,1.68-1.184,1.68Zm21.872-5.12c.016-1.744.032-2.4.048-3.1h3.6c.224,0,.624,0,.624-.4,0-.48-.7-1.04-1.168-1.04-.256,0-.592.224-.848.688h-2.192c.016-.272.032-1.632.048-1.952,0-.144.08-.864.08-1.024,0-.24,0-.7-.7-.7-.544,0-1.616.576-1.616,1.056,0,.112.112.208.224.288.176.112.16.128.176.336.048,1.152.08,3.92.1,5.856h-.48a.659.659,0,0,0-.656-.416c-.448,0-1.232.512-1.232.928,0,.1.032.128.208.32.048.5-.048,4.16-.048,4.528,0,.384,0,.784.672.784.48,0,1.04-.352,1.04-.7V-.752h3.072V-.4c0,.24,0,.56.768.56.3,0,1.184-.144,1.184-.784,0-.032-.144-3.12-.144-3.7a1.112,1.112,0,0,1,.032-.416c.112-.256.128-.288.128-.4,0-.432-.528-.736-.976-.736a1.1,1.1,0,0,0-.88.432Zm-8.48-4a.524.524,0,0,0-.56-.384c-.448,0-1.28.592-1.28.912a.336.336,0,0,0,.064.176c.192.224.192.272.192.448,0,.816-.208,4.672-.208,5.152,0,.432.448.544.64.544a1.132,1.132,0,0,0,1.008-.72,9.323,9.323,0,0,0,.1-1.7c0-.416.032-2.416.032-2.88,0-.72,0-.816.1-.864a3.757,3.757,0,0,1,.432.016c-.032,3.552-.112,6-.16,6.944-.016.336-.1,2.064-.1,2.144a.571.571,0,0,0,.624.656,1.494,1.494,0,0,0,.864-.3.956.956,0,0,0,.4-.944c0-.464-.1-2.96-.112-3.568.224.48.576.976,1.152.976,1.088,0,1.088-1.088,1.088-1.744,0-.544-.064-3.216-.064-3.824,0-.384,0-.432.128-.624a.448.448,0,0,0,.08-.24c0-.4-.592-.72-.976-.72a1,1,0,0,0-.832.544h-.528c.1-2.048.144-2.544.144-2.56.016-.08.064-.4.064-.48,0-.464-.544-.528-.736-.528-.544,0-1.424.608-1.424.992a4.138,4.138,0,0,0,.3.5c.064.16.08,1.984.08,2.08Zm9.44,4.656c0,.464.016,2.752.016,3.28H126.4V-3.12c0-.224,0-1.28.016-1.408.032-.16.112-.256.272-.256ZM122.72-8.736c0,.128.016.784.016.944V-4.8c0,.352-.016.912-.336.912a2.439,2.439,0,0,1-.3-.048c.016-2.528.016-3.376.032-4.8Zm17.792,1.664a6.138,6.138,0,0,1-.112-1.152,14.2,14.2,0,0,1,.192-2.32c.016-.064.1-.608.1-.656,0-.752-1.408-1.312-1.984-1.312a.449.449,0,0,0-.448.4c0,.08.1.208.24.416.32.464.4.576.432,2.72C138.944-7.664,138.96-6,140.336-6a.653.653,0,0,0,.64-.432c.688-1.552,1.7-1.552,1.792-1.552a.529.529,0,0,1,.48.464c0,.416-.72.832-1.952,1.44-2.848,1.424-3.84,2.448-3.84,3.7,0,.528.336,2.384,4.72,2.384.88,0,3.488-.064,3.488-.912,0-.544-.7-1.056-1.344-1.056a3.8,3.8,0,0,0-.928.288,5.513,5.513,0,0,1-1.872.224c-1.008,0-2.448-.048-2.448-1.344,0-1.408,2.064-2.48,4.224-3.168,1.28-.4,1.84-.576,1.84-1.232,0-.72-1.056-1.36-1.824-1.36A3.67,3.67,0,0,0,140.512-7.072ZM160.9-2.736a10.444,10.444,0,0,0-.112-1.44,24.445,24.445,0,0,1-.144-2.688c1.488-.5,2.016-.672,2.016-1.152s-.688-.64-1.04-.64a.885.885,0,0,0-.384.112c-.1.048-.464.256-.544.288a11.42,11.42,0,0,1,.288-1.984c0-.048.048-.272.048-.3,0-.64-.928-1.072-1.44-1.072-.24,0-.688.1-.688.512a8.432,8.432,0,0,0,.224.912,18.946,18.946,0,0,1,.128,2.48,4.98,4.98,0,0,1-1.7.176,4.04,4.04,0,0,1-1.344-.24c-.08-.032-.48-.272-.512-.272-.08,0-.128.016-.128.08a1.723,1.723,0,0,0,.9,1.248A2.883,2.883,0,0,0,157.7-6.5a7.846,7.846,0,0,0,1.568-.16c-.016,1.12-.016,1.648,0,3.536a8.3,8.3,0,0,0-.96-.08c-.96,0-2.512.432-2.512,1.5,0,.864,1.36,1.456,2.4,1.456a3.882,3.882,0,0,0,1.664-.368,1.547,1.547,0,0,0,.768-.928,8.181,8.181,0,0,1,.96,1.088,1.212,1.212,0,0,0,.944.592.74.74,0,0,0,.784-.752C163.312-1.344,162.272-2.112,160.9-2.736Zm-7.376.56c-.144,0-.192-.784-.192-1.2a16.1,16.1,0,0,1,1.056-5.1,4.311,4.311,0,0,0,.384-1.232,1.923,1.923,0,0,0-1.6-1.5.444.444,0,0,0-.432.4c0,.1.112.592.112.688a7.382,7.382,0,0,1-.24,1.536,25.217,25.217,0,0,0-.592,4.944c0,1.408.336,3.888,1.664,3.888.3,0,.832-.208.832-.688,0-.208-.064-1.152-.064-1.344s.144-1.088.144-1.264c0-.16-.08-.272-.224-.272-.224,0-.4.464-.464.608C153.824-2.528,153.68-2.176,153.52-2.176Zm5.648-.032a1.426,1.426,0,0,1-1.376,1.1c-.352,0-.864-.16-.864-.576,0-.528.784-.784,1.312-.784A1.508,1.508,0,0,1,159.168-2.208Z" transform="translate(-1.568 13.2)" fill="#fff"/>
</svg>
