<svg xmlns="http://www.w3.org/2000/svg" width="83.52" height="15.024" viewBox="0 0 83.52 15.024">
  <path id="パス_3649" data-name="パス 3649" d="M11.456-6.256c-2.288.128-5.152.16-7.472.16-.192,0-1.008-.128-1.168-.128A1.36,1.36,0,0,0,1.568-5.056c0,.32.3.512.688.512.24,0,1.232-.368,1.44-.4a62.9,62.9,0,0,1,6.928-.3h3.04c.368-.048.768-.16.768-.544,0-.752-.944-1.12-1.552-1.12A2.037,2.037,0,0,0,11.456-6.256ZM29.888-11.28c0-.128.048-.88.048-.944a4.066,4.066,0,0,0,.08-.576c0-.384-.16-.7-.736-.7-.592,0-1.744.624-1.744,1.1,0,.112.064.16.272.32.144.112.16.16.192.752H25.808c-.128,0-.688-.08-.8-.08a.9.9,0,0,0-.784.848c0,.288.272.384.48.384.16,0,.816-.208.96-.224s.608-.048.864-.048h1.5c0,.144.016.736.016.864H27.52c-1.9,0-3.344-.032-4.048-.064-.176-.016-.9-.128-1.04-.128a.919.919,0,0,0-.784.832.461.461,0,0,0,.512.464c.192,0,1.024-.24,1.2-.256.208-.016,1.808-.064,3.552-.064h1.136v.784c-1.216,0-1.9,0-2.528-.032-.1,0-.528-.064-.624-.064a.715.715,0,0,0-.672.72c0,.32.32.4.544.4.144,0,.784-.16.912-.176.208-.016,2.016-.08,2.384-.1,0,.144-.016.8-.016.928h-2.72c-.112,0-.592-.08-.688-.08a.67.67,0,0,0-.656.688c0,.352.432.352.464.352.144,0,.8-.176.944-.176H28.08l-.016.7H23.616c-.176,0-.912-.08-1.072-.08a.825.825,0,0,0-.768.768c0,.288.192.448.512.448.128,0,.672-.208.8-.224A10.05,10.05,0,0,1,24.4-4.048c.048,0,3.872-.048,4.592-.048,1.04,0,5.632.064,6.576.064.784,0,1.312,0,1.312-.464,0-.432-.832-1.072-1.248-1.072-.448,0-.848.544-.976.7-1.776.016-3.552.016-4.88.016v-.7h3.808c.336,0,.5-.208.5-.368,0-.336-.672-.816-1.04-.816a1.041,1.041,0,0,0-.72.4H29.776V-7.28h2.176c0,.368.048.48.512.48.576,0,1.44-.16,1.44-.816,0-.176-.032-.992-.032-1.152h2.576c.288,0,.72-.032.72-.448a1.373,1.373,0,0,0-1.216-1.152,1.1,1.1,0,0,0-.9.72c-.4.016-.8.016-1.168.016a5.211,5.211,0,0,1,.016-.608c.016-.128.208-.64.208-.752,0-.4-.928-.912-1.3-.912-.064,0-.448,0-.88.624ZM26.672-3.328c-.032-.352-.5-.5-.672-.5-.352,0-1.376.464-1.376.88,0,.08.1.16.112.192.128.128.128.144.128.368,0,.528-.112,2.864-.112,3.344,0,.56.624.56.672.56.32,0,1.136-.352,1.184-.832H31.68c0,.544,0,.736.672.736.592,0,1.344-.176,1.344-.8,0-.464-.08-2.5-.08-2.912a1.073,1.073,0,0,1,.128-.512.705.705,0,0,0,.048-.224c0-.336-.928-.832-1.3-.832a1.2,1.2,0,0,0-.832.528Zm3.152-6.256c0-.144.016-.752.016-.88h2.144v.88Zm-.032,1.568v-.816h2.192v.816ZM26.576-1.7v-.736c0-.128.064-.224.176-.224H31.7v.96Zm0,1.648V-.992H31.7v.944ZM48.112-11.7c.368-.688.416-.768.416-.976,0-.5-.832-.72-1.264-.72a.7.7,0,0,0-.784.752,6.645,6.645,0,0,1-1.76,2.912c-.112.1-.4.384-.4.464s.176.08.272.08A4.635,4.635,0,0,0,47.5-10.976h.4a.541.541,0,0,0-.208.448c0,.5.224,1.248.7,1.248.528,0,1.088-.96,1.088-1.344a.385.385,0,0,0-.176-.352h2.4c.272,0,.7-.032.7-.384,0-.4-.752-.944-1.136-.944a1.023,1.023,0,0,0-.848.608ZM50.3-5.28V-6.864h1.408c.112,0,.624,0,.624-.368a1.1,1.1,0,0,0-.928-.9.893.893,0,0,0-.7.576h-.368c0-.256.016-.736.064-1.184,0-.08.064-.448.064-.528,0-.448-.5-.512-.624-.512-.352,0-1.44.544-1.44.88a.208.208,0,0,0,.08.16c.016.032.128.128.144.16.016.4.032.752.032,1.008H47.84c0-.208.064-1.136.064-1.328,0-.24,0-.608-.624-.608-.368,0-1.328.464-1.328.768a.35.35,0,0,0,.128.224l.128.112c.016.256.032.592.032.816h-.464c-.1,0-.5-.048-.576-.048-.352,0-.576.416-.576.608a.349.349,0,0,0,.368.352c.112,0,.624-.192.736-.208a2.477,2.477,0,0,1,.336-.016h.208V-5.28h-.72c-.08,0-.448-.064-.512-.064a.655.655,0,0,0-.672.672c0,.288.336.352.448.352.16,0,.832-.256.976-.256h6.592c.256,0,.656-.08.656-.416,0-.448-.736-.9-1.1-.9a1.264,1.264,0,0,0-.912.608ZM42.144-11.7a2.059,2.059,0,0,0,.512-.96c0-.5-.768-.736-1.168-.736-.288,0-.768.112-.8.544A7.361,7.361,0,0,1,38.88-10a8.2,8.2,0,0,0-.832.784c0,.112.192.112.256.112a5,5,0,0,0,3.168-1.872H42.48c-.176.112-.176.4-.176.432,0,.448.32,1.392.88,1.392s.864-1.072.864-1.376a.679.679,0,0,0-.192-.448h1.168c.32,0,.672-.032.672-.368,0-.448-.72-.928-1.088-.928a1.1,1.1,0,0,0-.832.576Zm4.864,7.92A.486.486,0,0,0,46.5-4.16c-.384,0-1.328.448-1.328.8,0,.08.016.1.144.224.064.064.064.144.064.256,0,.592-.112,3.184-.112,3.712,0,.24,0,.544.624.544a1.8,1.8,0,0,0,.88-.3c.208-.16.208-.32.208-.592h2.5c0,.512,0,.784.624.784a2.022,2.022,0,0,0,.912-.256c.352-.192.352-.352.352-.672,0-.16-.1-2.656-.1-3.168,0-.1.16-.512.16-.608,0-.336-.848-.784-1.2-.784a1.078,1.078,0,0,0-.672.448Zm-4.48-.656h1.328c.32,0,.5-.128.5-.336a.916.916,0,0,0-.816-.784c-.32,0-.512.368-.576.48h-.416v-.864h1.232c.176,0,.576,0,.576-.288,0-.336-.512-.72-.848-.72a.769.769,0,0,0-.56.368H42.56c0-.24,0-.56.016-.88h1.552c.256,0,.56,0,.56-.3a.968.968,0,0,0-.832-.8.957.957,0,0,0-.672.464h-.592c0-.16.064-.9.064-1.008,0-.384,0-.64-.56-.64-.512,0-1.456.48-1.456.832,0,.08.272.384.288.4a2.04,2.04,0,0,1,.016.3v.1H39.712c-.1,0-.512-.064-.608-.064-.336,0-.576.416-.576.64,0,.24.176.32.384.32a3.617,3.617,0,0,0,.688-.192,3.291,3.291,0,0,1,.576-.032h.784v.848h-.7c-.1,0-.512-.048-.608-.048-.368,0-.56.432-.56.624,0,.208.208.288.416.288.112,0,.576-.16.672-.176a6.9,6.9,0,0,1,.784-.048V-5.1H39.216c-.1,0-.528-.048-.608-.048a.658.658,0,0,0-.56.592.365.365,0,0,0,.368.384c.128,0,.7-.208.832-.224.144-.016.432-.016.592-.016h1.12a3.48,3.48,0,0,1-.016.4c-.064-.064-.128-.112-.384-.112a.827.827,0,0,0-.768.368A9.255,9.255,0,0,1,38.064-.352c-.1.128-.32.368-.32.4,0,.1.1.1.16.1.784,0,2.208-.944,3.008-2.592-.032.432-.16,2.592-.176,2.752-.032.336-.048.48-.048.608,0,.432.432.528.64.528.3,0,1.232-.192,1.232-1.088,0-.352-.048-1.936-.048-2.256v-.432c.768.944,1.072,1.04,1.152,1.04.272,0,1.168-.464,1.168-.816,0-.192-.1-.24-.24-.3a6.264,6.264,0,0,1-2.064-1.392Zm5.28-.848V-6.864h.848V-5.28ZM46.96-2.064v-.944c0-.1.144-.1.208-.1h2.3v1.04Zm.016,1.84c0-.1-.016-.544-.016-.64v-.528h2.512V-.224ZM67.36-5.616c.352-.048.784-.208.784-.64a1.9,1.9,0,0,0-1.7-1.552c-.3,0-.88.16-1.344,1.04H56.816c-.192,0-1.056-.208-1.248-.208a1.125,1.125,0,0,0-.992,1.1c0,.384.208.56.592.56.208,0,1.168-.3,1.392-.3ZM80.1-11.136a5.234,5.234,0,0,0,.56-1.44c0-.336-.608-.72-1.12-.72-.768,0-.8.592-.8.88a11.463,11.463,0,0,1-1.408,3.488.724.724,0,0,0-.08.16c0,.1.08.128.16.128a3.49,3.49,0,0,0,2.112-1.7h4.288c.208,0,.736-.032.736-.416a1.385,1.385,0,0,0-1.136-1.056,1.376,1.376,0,0,0-.848.672Zm-.608,2.352c-.064,0-.384-.048-.448-.048-.672,0-.736.48-.736.64,0,.272.32.368.5.368.16,0,.912-.208,1.088-.208.928-.016,1.872-.016,2.816-.016.176,0,.832,0,.832-.4a1.154,1.154,0,0,0-1.024-.928,1.186,1.186,0,0,0-.816.592Zm-6.96,1.392h4.528c.24,0,.848,0,.848-.384,0-.416-.656-.72-1.008-.72a1.207,1.207,0,0,0-.8.464H75.1c0-.144-.016-.816-.016-.976h.464c0,.208.016.4.528.4.4,0,1.184-.224,1.184-.688,0-.048-.032-.816-.032-.96,0-.048.128-.288.128-.336,0-.4-.752-.64-1.072-.64a.874.874,0,0,0-.672.4h-.544c0-.128.016-.768.016-.912H76.96c.288,0,.576-.128.576-.384,0-.432-.64-.864-1.072-.864a1.01,1.01,0,0,0-.752.592l-3.184.016a.561.561,0,0,0-.576-.448c-.464,0-1.328.576-1.328.976,0,.048.208.256.24.3a2.587,2.587,0,0,1,.032.512c0,.592-.1,3.488-.1,4.144,0,.192,0,.576.56.576.48,0,1.168-.288,1.168-.656ZM77.5-1.92V-.448c0,1.008.864,1.312,2,1.5a20.408,20.408,0,0,0,3.28.256c.992,0,1.44-.144,1.984-1.392a5.652,5.652,0,0,0,.32-1.056c0-.112-.144-.176-.24-.176a1.657,1.657,0,0,0-.512.224,6.523,6.523,0,0,1-3.616.976c-.432,0-1.44,0-1.568-.3a6.737,6.737,0,0,1-.032-1.5h.72a1.062,1.062,0,0,1,.016.208c0,.224,0,.464.624.464a1.946,1.946,0,0,0,.944-.272c.384-.208.384-.368.384-.624,0-.544-.144-3.216-.144-3.824,0-.08.144-.5.144-.592,0-.352-.752-.784-1.152-.784a.932.932,0,0,0-.816.576H74.8c-.032-.256-.464-.336-.576-.336-.368,0-1.3.48-1.3.848a.425.425,0,0,0,.08.224c.128.16.144.16.144.336,0,.272-.112,3.36-.112,3.792,0,.288,0,.624.688.624a1.156,1.156,0,0,0,1.04-.624l.32-.016c-.08.848-2.016,2.24-4.224,2.8-.832.208-.928.224-.928.3,0,.208.544.224.736.224,3.344,0,6.3-2.032,6.288-3.328Zm-4.032-8.912h-.944v-.752c0-.048.064-.16.112-.16h.816Zm2.08,1.28H72.528V-10.3h3.024Zm4.272,4.224H74.8v-.544a.184.184,0,0,1,.192-.192h4.832ZM79.84-3.92H74.8v-.736h5.04ZM73.488-9.008c0,.144-.016.816-.016.976h-.944v-.976ZM79.84-2.56H74.8v-.7h5.04Z" transform="translate(-1.568 13.504)" fill="#fff"/>
</svg>
