<svg xmlns="http://www.w3.org/2000/svg" width="114.288" height="14.784" viewBox="0 0 114.288 14.784">
  <path id="パス_3646" data-name="パス 3646" d="M11.456-6.256c-2.288.128-5.152.16-7.472.16-.192,0-1.008-.128-1.168-.128A1.36,1.36,0,0,0,1.568-5.056c0,.32.3.512.688.512.24,0,1.232-.368,1.44-.4a62.9,62.9,0,0,1,6.928-.3h3.04c.368-.048.768-.16.768-.544,0-.752-.944-1.12-1.552-1.12A2.037,2.037,0,0,0,11.456-6.256ZM36.048-6.3c0-1.84-2.256-2.576-3.92-2.576-.464,0-1.056.112-1.056.3,0,.064.016.08.736.272,2.144.576,2.144,1.7,2.144,1.9,0,.224-.128.384-.56.384-.08,0-.288.016-.288.112a3.17,3.17,0,0,0,1.808.528C35.616-5.376,36.048-5.776,36.048-6.3ZM26.48-4.48a25.582,25.582,0,0,0-2.864,2.192,1.644,1.644,0,0,0-.352-.032c-.272,0-.608.144-.608.416A1.136,1.136,0,0,0,23.792-.88a1.1,1.1,0,0,0,1.024-.784,2.943,2.943,0,0,1,1.168,1.04c.144.3.192.4.544.4,1.3,0,1.408-1.056,1.408-1.728,0-.368-.112-1.952-.112-2.272a4.909,4.909,0,0,1,2.592-.9c.88,0,1.328.544,1.328,1.488,0,1.1-.56,1.7-1.52,1.7a4.062,4.062,0,0,1-1.952-.608c-.048-.016-.064-.032-.1-.032a.117.117,0,0,0-.128.128,3.318,3.318,0,0,0,2.56,1.664A2.756,2.756,0,0,0,33.616-3.52c0-1.472-1.36-2.3-2.912-2.3a5.2,5.2,0,0,0-2.928.9c0-.56.016-1.248.032-2.032,1.84-.688,2.288-.848,2.288-1.3,0-.432-.576-.784-1.024-.784a.893.893,0,0,0-.576.24c-.112.08-.576.464-.672.528a12,12,0,0,1,.272-2.016c.016-.048.112-.24.112-.272,0-.544-1.008-1.008-1.456-1.008a.548.548,0,0,0-.528.512c0,.208.08,1.12.1,1.312.016.3.032,1.68.032,1.952a5.776,5.776,0,0,1-2.176.4c-.128,0-.656-.1-.768-.1-.128,0-.176.064-.176.112a1.983,1.983,0,0,0,1.776.88,7.129,7.129,0,0,0,1.424-.176Zm.032,1.44c0,1.04,0,1.456-.3,1.456-.064,0-.928-.4-1.072-.464A11.7,11.7,0,0,1,26.512-3.52ZM47.6-12.016a.737.737,0,0,0-.816-.576c-.576,0-1.264.56-1.264.928,0,.1.032.128.224.3a.282.282,0,0,1,.1.208v.256c0,2.064,0,2.288-.016,2.784,0,.192-.048,1.04-.048,1.216,0,.432.576.448.624.448a1.491,1.491,0,0,0,1.072-.544h2.4v5.3c0,1.344-.3,1.888-1.28,1.888-.176,0-.976-.048-1.1-.048-.144,0-.192,0-.192.064a3.278,3.278,0,0,0,2.3,1.216A2.03,2.03,0,0,0,51.712-.928l-.048-5.5v-4.512a3.688,3.688,0,0,1,.192-.7.32.32,0,0,0,.032-.144c0-.4-.656-.9-1.12-.9a1.185,1.185,0,0,0-1.056.672ZM44.192-5.408c-.064-.272-.416-.368-.688-.368-.5,0-1.264.512-1.264.944,0,.064.032.1.224.3.064.048.08.3.08.368,0,.544-.112,2.928-.112,3.408,0,.272,0,.544.64.544.384,0,1.088-.288,1.088-.7v-.512h2.256C46.4-.8,46.384-.5,47.04-.5a1.62,1.62,0,0,0,1.024-.352c.176-.176.176-.256.176-.592,0-.144-.064-2.576-.064-3.056,0-.112.1-.624.1-.72,0-.384-.56-.624-.912-.624a1.1,1.1,0,0,0-.848.432Zm-3.36-6.608c-.032-.464-.592-.512-.688-.512-.512,0-1.488.72-1.488,1.088,0,.08.176.24.288.368a.262.262,0,0,1,.112.192v2.832c0,2.432-.064,5.056-.112,6.768-.016.336-.112,1.952-.112,2.1a.571.571,0,0,0,.608.608c.384,0,1.36-.416,1.36-1.008,0-.08-.064-1.536-.064-1.824V-7.024h2.192c.016.432.016.608.56.608.128,0,1.216-.1,1.216-.736,0-.272-.032-1.472-.032-1.712l-.016-2.32c0-.112.112-.624.112-.72,0-.432-.512-.688-.912-.688a1.168,1.168,0,0,0-1.024.576Zm6.688,2.16V-11.12c0-.08.128-.16.224-.16h2.128v1.424Zm0,2.1V-9.136h2.352V-7.76Zm-6.784-2.1v-1.232a.231.231,0,0,1,.24-.192h1.968v1.424Zm0,2.1V-9.152H42.96V-7.76Zm3.408,5.6V-4.48c0-.1.048-.224.176-.224h2.112V-2.16ZM68.1-5.1c0-1.408-1.7-3.216-4.288-3.216-.784,0-1.792.224-1.792.464,0,.128.1.128.944.224.608.064,2.064.24,3.056,2.624.3.736.4.992.912.992A1.28,1.28,0,0,0,68.1-5.1ZM60.688-5.84a24.728,24.728,0,0,1-1.152,2.816.5.5,0,0,1-.416.224,1.521,1.521,0,0,1-.784-.32c-1.056-.736-1.28-2.368-1.28-3.488a9.783,9.783,0,0,1,.16-1.728c.016-.064.1-.608.1-.656,0-.64-1.2-1.232-1.776-1.232-.16,0-.448.048-.448.352,0,.128.24.64.24.752.064,2.64.112,4.1,1.04,5.68a4.569,4.569,0,0,0,3.376,2.416c.592,0,1.232-.3,1.232-.9,0-.192-.048-1.008-.048-1.184a8.679,8.679,0,0,1,.128-1.648A7.643,7.643,0,0,0,61.2-5.76c0-.16-.048-.3-.24-.3C60.8-6.064,60.736-5.952,60.688-5.84Zm17.12-6.224a.813.813,0,0,0,.16-.416c0-.512-.672-.88-1.408-.88-.72,0-.848.4-.976.816A15.153,15.153,0,0,1,70.16-6.672c-.448.272-.5.3-.5.384,0,.112.176.144.256.144,1.328,0,4.96-1.616,7.424-5.344,1.616,3.552,4.88,5.28,5.568,5.28A5.685,5.685,0,0,0,85.232-7.6c0-.08-.1-.112-.928-.352C80.944-8.928,78.592-10.768,77.808-12.064Zm-3.44,4.352c-.048,0-.256-.064-.3-.064a.856.856,0,0,0-.816.72.5.5,0,0,0,.512.464c.192,0,.992-.272,1.152-.272H75.9c.544,0,3.648.032,3.856,0,.144-.016.464-.048.464-.416a1.317,1.317,0,0,0-1.056-1.008,1.272,1.272,0,0,0-.816.592Zm.336,2.8a.641.641,0,0,0-.656-.544c-.432,0-1.5.48-1.5.912,0,.128.016.144.208.384.048.08.048.1.048.3,0,.672-.08,3.584-.08,4.176,0,.288,0,.784.752.784.432,0,1.12-.336,1.12-.864V-.128h4.56c0,.64,0,1.024.768,1.024a1.72,1.72,0,0,0,1.152-.48c.208-.208.208-.368.208-.688,0-.272-.112-2.944-.112-3.5a.8.8,0,0,1,.128-.448.511.511,0,0,0,.048-.224c0-.464-.736-1.04-1.184-1.04a1.239,1.239,0,0,0-.976.576ZM74.576-.928v-2.3c0-.528,0-.864.176-.864h4.432V-.928ZM92.1-6.848c.352-.608.384-.672.384-.848a.923.923,0,0,0-.224-.512,14.389,14.389,0,0,1,.3-2.576,1.727,1.727,0,0,0,.048-.3c0-.432-.592-.832-1.04-.832-.08,0-.816,0-.816.592,0,.448.08,2.368.08,2.768-1.84.048-2.864.688-2.864,1.344,0,.272.128.352.72.672.384.208.592.656.96,1.408A6.89,6.89,0,0,1,88.48-3.7c-.5.464-.608.576-.608.944a.71.71,0,0,0,.72.8c.512,0,.688-.432.864-.88a10.411,10.411,0,0,1,.7-1.344A10.411,10.411,0,0,1,90.7-1.744c0,.08-.048.48-.048.56a1.183,1.183,0,0,0,.976,1.12.718.718,0,0,0,.7-.7c0-.208-.128-1.12-.144-1.3-.064-1.264-.1-3.088-.1-3.488a5.389,5.389,0,0,1,3.7-1.872c1.472,0,1.728,1.264,1.728,2.016,0,2.416-2.272,3.488-3.488,3.792a7.406,7.406,0,0,0-.88.256c0,.112.24.224.688.224,1.856,0,5.7-1.136,5.7-4a3.318,3.318,0,0,0-3.488-3.056,5.105,5.105,0,0,0-3.936,1.968ZM90.944-6.96A6.19,6.19,0,0,1,90.256-5.7c-.08-.224-.576-1.312-.576-1.36,0-.176.512-.608.928-.608C90.8-7.664,90.928-7.5,90.944-6.96Zm.288,4.752a25.585,25.585,0,0,0-.608-2.736,7.774,7.774,0,0,1,.512-.816c.1,2.448.112,2.72.112,3.152A3.214,3.214,0,0,1,91.232-2.208Zm19.44-5.376c-1.664.448-2.032.544-2.912.832.048-.448.16-1.264.24-1.728.032-.16.176-.832.176-.976a.676.676,0,0,0-.736-.64,1.512,1.512,0,0,0-1.184.768,7.217,7.217,0,0,0-.048,1.456v1.408c-.96.3-2.512.72-3.472,1.008-.176.048-.4.144-.4.32,0,.384.752.816,1.152.816a1.957,1.957,0,0,0,.944-.32,18.028,18.028,0,0,1,1.776-.848,8.768,8.768,0,0,0,.256,3.024c.88,2.336,4.256,2.336,5.232,2.336.528,0,1.808-.016,1.808-.592,0-.656-.864-1.1-1.44-1.1a5.141,5.141,0,0,0-1.1.192,3.347,3.347,0,0,1-.752.08,4.22,4.22,0,0,1-1.488-.256c-1.008-.368-1.04-1.344-1.04-2.544,0-.272,0-.9.064-1.568a20.278,20.278,0,0,1,2.88-.928,9.6,9.6,0,0,1-.128,1.712c-.032.128-.08.336-.32.336-.112,0-.624-.16-.72-.16-.064,0-.16.032-.16.112a2.156,2.156,0,0,0,1.536,1.36c1.216,0,1.232-1.472,1.232-2.048,0-.64,0-.768.048-1.472a13.779,13.779,0,0,1,2.272-.144c.032,0,.528.032.624.032.224,0,.848-.032.848-.512,0-.224-.272-.88-1.28-.88a15.132,15.132,0,0,0-2.416.592c.016-.432.08-1.552.144-1.936a5.111,5.111,0,0,0,.128-.9c0-.752-1.248-1.088-1.648-1.088a.459.459,0,0,0-.464.432,3.412,3.412,0,0,0,.224.608,4.974,4.974,0,0,1,.128,1.3Z" transform="translate(-1.568 13.36)" fill="#fff"/>
</svg>
