<svg xmlns="http://www.w3.org/2000/svg" width="82.288" height="13.472" viewBox="0 0 82.288 13.472">
  <path id="パス_3648" data-name="パス 3648" d="M11.456-6.256c-2.288.128-5.152.16-7.472.16-.192,0-1.008-.128-1.168-.128A1.36,1.36,0,0,0,1.568-5.056c0,.32.3.512.688.512.24,0,1.232-.368,1.44-.4a62.9,62.9,0,0,1,6.928-.3h3.04c.368-.048.768-.16.768-.544,0-.752-.944-1.12-1.552-1.12A2.037,2.037,0,0,0,11.456-6.256ZM36.048-6.3c0-1.84-2.256-2.576-3.92-2.576-.464,0-1.056.112-1.056.3,0,.064.016.08.736.272,2.144.576,2.144,1.7,2.144,1.9,0,.224-.128.384-.56.384-.08,0-.288.016-.288.112a3.17,3.17,0,0,0,1.808.528C35.616-5.376,36.048-5.776,36.048-6.3ZM26.48-4.48a25.582,25.582,0,0,0-2.864,2.192,1.644,1.644,0,0,0-.352-.032c-.272,0-.608.144-.608.416A1.136,1.136,0,0,0,23.792-.88a1.1,1.1,0,0,0,1.024-.784,2.943,2.943,0,0,1,1.168,1.04c.144.3.192.4.544.4,1.3,0,1.408-1.056,1.408-1.728,0-.368-.112-1.952-.112-2.272a4.909,4.909,0,0,1,2.592-.9c.88,0,1.328.544,1.328,1.488,0,1.1-.56,1.7-1.52,1.7a4.062,4.062,0,0,1-1.952-.608c-.048-.016-.064-.032-.1-.032a.117.117,0,0,0-.128.128,3.318,3.318,0,0,0,2.56,1.664A2.756,2.756,0,0,0,33.616-3.52c0-1.472-1.36-2.3-2.912-2.3a5.2,5.2,0,0,0-2.928.9c0-.56.016-1.248.032-2.032,1.84-.688,2.288-.848,2.288-1.3,0-.432-.576-.784-1.024-.784a.893.893,0,0,0-.576.24c-.112.08-.576.464-.672.528a12,12,0,0,1,.272-2.016c.016-.048.112-.24.112-.272,0-.544-1.008-1.008-1.456-1.008a.548.548,0,0,0-.528.512c0,.208.08,1.12.1,1.312.016.3.032,1.68.032,1.952a5.776,5.776,0,0,1-2.176.4c-.128,0-.656-.1-.768-.1-.128,0-.176.064-.176.112a1.983,1.983,0,0,0,1.776.88,7.129,7.129,0,0,0,1.424-.176Zm.032,1.44c0,1.04,0,1.456-.3,1.456-.064,0-.928-.4-1.072-.464A11.7,11.7,0,0,1,26.512-3.52Zm21.76-6.72c-.1-.432-.576-.432-.688-.432-.384,0-1.3.608-1.3.944,0,.112.24.528.24.624v1.84c0,.448,0,2.336-.064,3.952-.016.336-.032.592-.032.848,0,.384.144.576.784.576A.984.984,0,0,0,48.24-2.5h1.872c-.032.688-.048,1.056.624,1.056a2.43,2.43,0,0,0,1.056-.3c.336-.192.336-.32.336-.656,0-.848-.032-5.28-.032-6.288a.974.974,0,0,1,.128-.544.387.387,0,0,0,.064-.208c0-.528-.816-.992-1.28-.992a1.536,1.536,0,0,0-.96.672Zm-2.88,4.176c.352,0,.832-.016.832-.368a1.24,1.24,0,0,0-1.136-1.072c-.32,0-.592.416-.72.672h-.816c.064-.912.064-1.616.064-2.9h1.5c.272,0,.752-.032.752-.416a1.254,1.254,0,0,0-1.12-1.04,1.1,1.1,0,0,0-.832.7h-2.3a6.483,6.483,0,0,0,.912-2.1c0-.576-.784-.752-1.072-.752-.5,0-1.216.352-1.216.736,0,.048.08.32.08.368a8.177,8.177,0,0,1-1.92,3.68,9.856,9.856,0,0,0-.736.832c0,.1.112.128.208.128a5.108,5.108,0,0,0,3.216-2.144h.64c.016.256.016,2.352,0,2.9-.32,0-2.368-.016-2.5-.016-.1-.016-.5-.08-.592-.08-.688,0-.688.72-.688.768a.436.436,0,0,0,.432.432,1.338,1.338,0,0,0,.624-.192,1.207,1.207,0,0,1,.464-.144h2.192A6.461,6.461,0,0,1,38.336-.1c-.032.016-.656.288-.784.336s-.176.112-.176.176c0,.16.192.208.32.208a8.2,8.2,0,0,0,2.7-.816,5.135,5.135,0,0,0,2.56-3.216c.7,2.08,2.224,3.984,3.072,3.984.336,0,1.984-.512,1.984-.8,0-.112-.064-.128-.592-.384A7.645,7.645,0,0,1,43.36-4.656c.032-.208.064-.448.1-.928ZM48.24-3.2V-4.832c0-.624.032-3.392.032-3.952,0-.08,0-.256.1-.256h1.776V-3.2Zm11.2-.816a.935.935,0,0,1-.336.24,2.649,2.649,0,0,1-.032-.432,8.859,8.859,0,0,1,.272-2.272,7.272,7.272,0,0,0,.368-1.12c0-.16-.192-.832-.192-.976,0-.752.912-1.04,1.424-1.04.144,0,.768.176.9.176a.818.818,0,0,0,.912-.784c0-1.312-2.384-1.632-3.04-1.632-.5,0-1.184.16-1.184.368,0,.08.256.144.352.16.656.176,1.472.784,1.472,1.1,0,.176-.016.192-.64.432a2.609,2.609,0,0,0-1.792,2.8c-.016.608-.352,3.76-.352,3.856,0,1.072,1.328,1.184,1.44,1.184.656,0,.816-.32.992-.784.224-.544.912-2.3,2.752-2.3A1.349,1.349,0,0,1,64.224-3.6c0,1.632-1.616,2.608-3.264,3.136A11.656,11.656,0,0,0,59.6-.08c0,.144.176.144.432.144,3.776,0,6.1-1.536,6.1-3.648,0-1.648-1.664-2.176-2.88-2.176A5.549,5.549,0,0,0,59.44-4.016ZM78.672-7.584c-1.664.448-2.032.544-2.912.832.048-.448.16-1.264.24-1.728.032-.16.176-.832.176-.976a.676.676,0,0,0-.736-.64,1.512,1.512,0,0,0-1.184.768,7.217,7.217,0,0,0-.048,1.456v1.408c-.96.3-2.512.72-3.472,1.008-.176.048-.4.144-.4.32,0,.384.752.816,1.152.816a1.957,1.957,0,0,0,.944-.32,18.028,18.028,0,0,1,1.776-.848,8.768,8.768,0,0,0,.256,3.024C75.344-.128,78.72-.128,79.7-.128c.528,0,1.808-.016,1.808-.592,0-.656-.864-1.1-1.44-1.1a5.141,5.141,0,0,0-1.1.192,3.347,3.347,0,0,1-.752.08,4.22,4.22,0,0,1-1.488-.256c-1.008-.368-1.04-1.344-1.04-2.544,0-.272,0-.9.064-1.568a20.278,20.278,0,0,1,2.88-.928A9.6,9.6,0,0,1,78.5-5.136c-.032.128-.08.336-.32.336-.112,0-.624-.16-.72-.16-.064,0-.16.032-.16.112a2.156,2.156,0,0,0,1.536,1.36c1.216,0,1.232-1.472,1.232-2.048,0-.64,0-.768.048-1.472a13.779,13.779,0,0,1,2.272-.144c.032,0,.528.032.624.032.224,0,.848-.032.848-.512,0-.224-.272-.88-1.28-.88a15.132,15.132,0,0,0-2.416.592c.016-.432.08-1.552.144-1.936a5.111,5.111,0,0,0,.128-.9c0-.752-1.248-1.088-1.648-1.088a.459.459,0,0,0-.464.432,3.412,3.412,0,0,0,.224.608,4.974,4.974,0,0,1,.128,1.3Z" transform="translate(-1.568 12.848)" fill="#fff"/>
</svg>
