<svg xmlns="http://www.w3.org/2000/svg" width="111.536" height="12.816" viewBox="0 0 111.536 12.816">
  <path id="パス_4730" data-name="パス 4730" d="M11.456-6.256c-2.288.128-5.152.16-7.472.16-.192,0-1.008-.128-1.168-.128A1.36,1.36,0,0,0,1.568-5.056c0,.32.3.512.688.512.24,0,1.232-.368,1.44-.4a62.9,62.9,0,0,1,6.928-.3h3.04c.368-.048.768-.16.768-.544,0-.752-.944-1.12-1.552-1.12A2.037,2.037,0,0,0,11.456-6.256Zm10.816-4.816c-.272,0-.5.144-.5.416s.08.288.56.4c.464.112.512.112,2.032,6.608.112.5.784,3.392.8,3.408.064.208.288.32.592.32,1.328,0,1.472-.32,1.568-.56C27.6-1.136,29.056-6.32,29.44-7.7c.64,2.56.752,2.928,1.3,5.008l.432,1.632c.256.992.288,1.184.944,1.184,1.52,0,1.616-.3,1.792-.976.368-1.344,1.68-6.768,1.7-6.8l.384-1.584c.032-.144.176-.752.224-.88a.464.464,0,0,1,.368-.336c.144-.064.272-.128.272-.32a.355.355,0,0,0-.4-.336H35.04a.708.708,0,0,0-.384.112c-.08.064-.128.128-.192.528-.432,2.448-1.088,5.68-1.648,8.448,0-.016-1.856-7.52-1.952-7.968-.176-.768-.24-1.12-.816-1.12-1.232,0-1.264.128-1.344.464-.512,2.32-.832,3.7-2.064,8.48-.272-1.3-1.648-7.856-1.68-8.16-.064-.448-.16-.752-.768-.752Zm18.64,6.288c0-.384.368-.48.544-.512.16-.032,1.072-.032,1.344-.032.464,0,1.328.016,1.664.064.1.016.528.112.624.112.608,0,.8-.992.8-1.392a.328.328,0,0,0-.352-.368c-.176,0-.24.048-.64.32a2.346,2.346,0,0,1-1.28.384c-.432.016-2.32.016-2.7.016V-9.936c0-.208.144-.3.352-.3h2.32c1.056,0,1.232.32,1.744,1.28a.689.689,0,0,0,.736.384c.592,0,.672-.384.672-.624a6.392,6.392,0,0,0-.208-1.552c-.112-.256-.368-.32-.72-.32-.24,0-1.328.064-1.552.064H41.2c-.432,0-2.368-.016-2.768-.016-.192,0-.7.016-.7.48,0,.368.192.448.56.448.3,0,.608.016.608.528l.016,2.832q0,2.064-.048,4.128c-.016.288-.1,1.536-.1,1.792,0,.208,0,.8,1.04.8H45.84c.784,0,.992-.192,1.136-.624a6.754,6.754,0,0,0,.272-1.872c0-.192,0-.56-.56-.56a.585.585,0,0,0-.624.352,4.129,4.129,0,0,1-.528.9,2.788,2.788,0,0,1-2.624,1.04H41.824c-.5.032-.912,0-.912-.5ZM55.5-6.016a2.806,2.806,0,0,0,1.76-2.56c0-1.888-1.808-2.592-3.6-2.592-.592,0-3.248.144-3.792.144-.16,0-.96-.032-.976-.032-.144,0-.608,0-.608.464,0,.384.256.4.656.416.512.032.512.192.512.816,0,.32,0,7.024-.016,7.472,0,.208-.1,1.088-.1,1.264,0,.592.416.672,1.008.672.128,0,.752-.032.816-.032.368,0,2.032.08,2.368.08,1.024,0,4.608,0,4.608-3.424C58.144-5.44,56.192-5.872,55.5-6.016ZM51.44-10.032c0-.3.512-.3.8-.3,1.568,0,2.88.112,2.88,1.856a2.275,2.275,0,0,1-1.232,2.064,4.314,4.314,0,0,1-1.36.208H51.44Zm0,4.608c.528-.032,1.264-.032,1.5-.032,1.312,0,3.04.176,3.04,2.336,0,2.4-2.4,2.4-3.856,2.4-.208,0-.688,0-.688-.336Zm18.544-3.2c-1.232.128-5.92.48-7.264.48-.08,0-.832,0-.88.016a1.125,1.125,0,0,0-.768.96.656.656,0,0,0,.672.7c.3,0,.384-.048,1.12-.432A6.881,6.881,0,0,1,64.8-7.264c1.04-.16,4.368-.544,4.88-.544.1,0,.224,0,.224.1A17.545,17.545,0,0,1,67.456-4.08,7.282,7.282,0,0,0,64.7-4.768c-.048,0-.208,0-.208.112,0,.08.192.208.544.432A7.584,7.584,0,0,1,67.68-1.44a.965.965,0,0,0,.912.448.952.952,0,0,0,.976-.944c0-.72-.736-1.328-1.184-1.7.384-.352,2.08-1.888,2.432-2.192,1.12-1.008,1.936-1.68,1.936-2.3,0-.7-.9-1.072-1.408-1.072A2.634,2.634,0,0,0,69.984-8.624ZM87.424-10.9c0-.544-1.024-1.312-2.688-1.312-.064,0-.224,0-.224.112a3.808,3.808,0,0,0,.48.432,7.232,7.232,0,0,1,1.152,1.136.68.68,0,0,0,.592.352A.664.664,0,0,0,87.424-10.9ZM84.432-9.408c.224.352.32.448.576.448A.737.737,0,0,0,85.76-9.7c0-.688-1.248-1.424-2.464-1.424-.064,0-.224.016-.224.112a1.363,1.363,0,0,0,.256.272A5.737,5.737,0,0,1,84.432-9.408ZM82.72-8.1a12.565,12.565,0,0,1-1.616.208c.032-.3.16-1.7.192-1.968a5.875,5.875,0,0,0,.144-.688c0-.5-.912-.88-1.408-.88-.192,0-.72,0-.72.64,0,.16.1.864.1.992,0,.144,0,.944-.1,1.984-.72.064-1.552.112-2.272.112-.08,0-1.184,0-1.216.016a.849.849,0,0,0-.624.8c0,.336.32.464.624.464a9.36,9.36,0,0,0,1.008-.368,20.381,20.381,0,0,1,2.384-.336A8.618,8.618,0,0,1,74.272-.272a4.2,4.2,0,0,1-.512.208c-.128.064-.192.1-.192.16,0,.08.112.176.3.176a6.564,6.564,0,0,0,2.352-.7,8.539,8.539,0,0,0,4.8-6.864c.848-.1,1.168-.144,1.456-.144.272,0,.368.064.368.528a13.752,13.752,0,0,1-.7,4.336c-.08.208-.272.672-.736.672a3.153,3.153,0,0,1-.992-.272,6.314,6.314,0,0,0-.592-.272.051.051,0,0,0-.048.048c0,.208.8,1.792,2.128,1.792,1.9,0,2.224-2.128,2.432-3.552.112-.72.272-2.192.288-2.816a2.267,2.267,0,0,1,.032-.448,2,2,0,0,0,.16-.432.908.908,0,0,0-.96-.848A1.484,1.484,0,0,0,82.72-8.1ZM97.792-12.32a8.2,8.2,0,0,1,1.632,1.536.609.609,0,0,0,.512.256.654.654,0,0,0,.688-.688c0-.672-1.216-1.328-2.64-1.328-.112,0-.256,0-.256.112A.162.162,0,0,0,97.792-12.32Zm1.168,2.256c0-.7-1.392-1.408-2.5-1.408-.1,0-.192.016-.192.1,0,.032.88.912,1.024,1.1.08.128.416.7.512.8a.467.467,0,0,0,.4.16A.723.723,0,0,0,98.96-10.064ZM93.5-9.008c0-1.328-2.208-1.568-2.9-1.568-.64,0-1.36.192-1.36.384,0,.048.1.08.72.368a5.24,5.24,0,0,1,1.44.944c.512.48.688.64,1.1.64C92.944-8.24,93.5-8.528,93.5-9.008Zm5.968.08a30.349,30.349,0,0,1-3.76,3.568c-2.448,1.952-4.9,3.136-5.568,3.136-.1,0-.512-.1-.592-.1a.407.407,0,0,0-.448.432C89.1-1.7,89.5-.48,90.5-.48c.832,0,4.336-1.664,6.992-4.72A12.071,12.071,0,0,0,99.84-8.816c0-.128-.064-.224-.176-.224A.325.325,0,0,0,99.472-8.928Zm-10.144,1.9a4.317,4.317,0,0,1,1.248.9c.608.528.816.7,1.168.7a.944.944,0,0,0,.96-.848c0-.688-1.008-1.392-2.88-1.392-.048,0-1.232,0-1.232.288C88.592-7.312,88.672-7.3,89.328-7.024ZM113.1-9.1a.206.206,0,0,0-.192-.192c-.1,0-.112.016-1.008,1.056-2.928,3.408-7.072,5.552-7.968,5.552-.08,0-.48-.064-.56-.064a.388.388,0,0,0-.432.432c0,.16.352,1.44,1.408,1.44.848,0,2.64-1.1,3.584-1.776C111.856-5.408,113.1-8.688,113.1-9.1Zm-10,.192a3.985,3.985,0,0,1,1.648,1.136c.576.672.672.768,1.056.768.448,0,1.152-.352,1.152-.9,0-1.3-2.112-1.552-2.928-1.552-.624,0-1.3.16-1.3.3C102.736-9.056,103.088-8.912,103.1-8.912Z" transform="translate(-1.568 12.544)" fill="#fff"/>
</svg>
