<svg xmlns="http://www.w3.org/2000/svg" width="55.37" height="9.41" viewBox="0 0 55.37 9.41">
  <g id="グループ_41313" data-name="グループ 41313" transform="translate(-5069 -512.5)">
    <path id="パス_3741" data-name="パス 3741" d="M125.516,204.926c-.057-.03-.115-.059-.174-.086v-.275a.143.143,0,0,0-.076-.127,4.735,4.735,0,0,0-4.476.036,4.735,4.735,0,0,0-4.476-.036.143.143,0,0,0-.076.127v.275c-.058.028-.116.056-.174.086a.143.143,0,0,0-.076.127v5.259a.143.143,0,0,0,.206.129,4.735,4.735,0,0,1,4.288.07.143.143,0,0,0,.067.017h.483a.143.143,0,0,0,.067-.017,4.736,4.736,0,0,1,4.288-.07.143.143,0,0,0,.206-.129v-5.259A.143.143,0,0,0,125.516,204.926Zm-5.011,4.361a5.3,5.3,0,0,0-3.7-.1v-4.351a4.162,4.162,0,0,1,3.7.138Zm4.265-.1a5.3,5.3,0,0,0-3.7.1V204.97a4.162,4.162,0,0,1,3.7-.138Z" transform="translate(4953.013 310.695)" fill="#fff"/>
    <path id="パス_3743" data-name="パス 3743" d="M2.94-6.23H1.87v-.91H2.94Zm0,1.81H1.87v-.93H2.94Zm0,1.81H1.87v-.93H2.94Zm1.1-5.47H.81v6.42H4.04ZM1.3-1.58A4.554,4.554,0,0,1,.22.27a7.647,7.647,0,0,1,.93.64A6.688,6.688,0,0,0,2.39-1.33ZM5.26-.16A10.971,10.971,0,0,0,5.8-3.55a10.254,10.254,0,0,0,.95,2.23A4.395,4.395,0,0,1,5.26-.16ZM8.11-4.44a7.88,7.88,0,0,1-.7,2.12,8.67,8.67,0,0,1-.83-2.12Zm.53-1.05-.19.02H5.81V-6.88H9.4V-7.95H4.72V-4.2A9.82,9.82,0,0,1,4.17-.44a8.407,8.407,0,0,0-.74-1.17l-.92.39A7.34,7.34,0,0,1,3.26.16l.81-.39a3.961,3.961,0,0,1-.31.52A4.826,4.826,0,0,1,4.71.9a4.577,4.577,0,0,0,.52-.98,4.063,4.063,0,0,1,.64.93A5.879,5.879,0,0,0,7.45-.36,5.487,5.487,0,0,0,9.02.89a3.916,3.916,0,0,1,.77-.95A4.89,4.89,0,0,1,8.14-1.29a10.106,10.106,0,0,0,1.2-4.05Zm6.3-.45H12.15V-4.9h6.94V-5.94H16.17v-.65h3.84V-7.67H16.17v-.79H14.94v.79H11.2v1.08h3.74Zm4.94,3.66V-4.41H11.33v2.13h1.15V-3.34h6.2v1.06Zm-6.21-.75c-.12,1.54-.37,2.44-2.74,2.9A3.509,3.509,0,0,1,11.58.9c2.73-.65,3.17-1.92,3.33-3.93ZM17.74-.32c-.36,0-.42-.04-.42-.36V-3.03h-1.2V-.66c0,1.07.29,1.41,1.45,1.41h1.29c.94,0,1.25-.37,1.38-1.81a3.415,3.415,0,0,1-1.07-.45c-.04,1.02-.1,1.19-.43,1.19ZM28.39-1.59v.36H24.11v-.36ZM24.11-.15V-.54h4.28v.39ZM22.96.9h1.15V.6h4.28V.89h1.2V-2.35H22.96Zm3.79-6.89h1.61v.38H26.75Zm0-1.19h1.61v.37H26.75Zm2.79,2.26V-5.99h1.14v-.82H29.54V-7.87H26.75V-8.5H25.56v.63H22.74v.69h2.82v.37H21.72v.82h3.84v.38H22.63v.69h2.93v.35H22.41v.72h3.15v.36H21.71v.83h8.97v-.83H26.75v-.36h3.2v-.72h-3.2v-.35ZM39.43-.54H35.88V-1.9h3.55ZM38.12-6.03H36.91v3.08H34.72V.87h1.16V.5h3.55V.86h1.22V-2.95H38.12V-4.04h3.12V-5.09H38.12Zm-.39-1.28V-8.46H36.49v1.15H32.93v2.52A10.653,10.653,0,0,1,32.04.18a5.523,5.523,0,0,1,1.03.67,12.437,12.437,0,0,0,1.05-5.64V-6.18h7.25V-7.31Z" transform="translate(5083 521)" fill="#fff"/>
  </g>
</svg>
