<svg xmlns="http://www.w3.org/2000/svg" width="47.818" height="59.186" viewBox="0 0 47.818 59.186">
  <g id="グループ_41441" data-name="グループ 41441" transform="translate(-5805 -2589.875)">
    <path id="パス_3843" data-name="パス 3843" d="M47.818,17.643A2.778,2.778,0,0,1,45.047,20.4H3.1A2.772,2.772,0,0,1,.34,17.643V10.435A2.777,2.777,0,0,1,3.1,7.67H45.047a2.783,2.783,0,0,1,2.771,2.765Z" transform="translate(5805 2588.861)" fill="#4e3b30"/>
    <g id="長方形_31475" data-name="長方形 31475" transform="translate(5805 2613.5)" fill="#fff" stroke="#4e3b30" stroke-width="2.25">
      <rect width="47.496" height="35.561" rx="2.552" stroke="none"/>
      <rect x="1.125" y="1.125" width="45.246" height="33.311" rx="1.427" fill="none"/>
    </g>
    <rect id="長方形_31476" data-name="長方形 31476" width="5.531" height="5.549" transform="translate(5813.531 2636.803)" fill="#4e3b30"/>
    <rect id="長方形_31477" data-name="長方形 31477" width="5.537" height="5.549" transform="translate(5821.834 2636.803)" fill="#4e3b30"/>
    <rect id="長方形_31478" data-name="長方形 31478" width="5.531" height="5.549" transform="translate(5830.137 2636.803)" fill="#4e3b30"/>
    <rect id="長方形_31479" data-name="長方形 31479" width="5.525" height="5.549" transform="translate(5838.439 2636.803)" fill="#dc000c"/>
    <rect id="長方形_31480" data-name="長方形 31480" width="5.531" height="5.531" transform="translate(5813.531 2628.512)" fill="#4e3b30"/>
    <rect id="長方形_31481" data-name="長方形 31481" width="5.537" height="5.531" transform="translate(5821.834 2628.512)" fill="#4e3b30"/>
    <rect id="長方形_31482" data-name="長方形 31482" width="5.531" height="5.531" transform="translate(5830.137 2628.512)" fill="#4e3b30"/>
    <rect id="長方形_31483" data-name="長方形 31483" width="5.525" height="5.531" transform="translate(5838.439 2628.512)" fill="#4e3b30"/>
    <rect id="長方形_31484" data-name="長方形 31484" width="5.537" height="5.537" transform="translate(5821.834 2620.209)" fill="#4e3b30"/>
    <rect id="長方形_31485" data-name="長方形 31485" width="5.531" height="5.537" transform="translate(5830.137 2620.209)" fill="#4e3b30"/>
    <rect id="長方形_31486" data-name="長方形 31486" width="5.525" height="5.537" transform="translate(5838.439 2620.209)" fill="#4e3b30"/>
    <rect id="長方形_31487" data-name="長方形 31487" width="2.766" height="11.068" transform="translate(5817.639 2591)" fill="#4e3b30" stroke="#fff" stroke-linejoin="round" stroke-width="2.25"/>
    <rect id="長方形_31488" data-name="長方形 31488" width="2.766" height="11.068" transform="translate(5837.754 2591)" fill="#4e3b30" stroke="#fff" stroke-linejoin="round" stroke-width="2.25"/>
    <rect id="長方形_31473" data-name="長方形 31473" width="2.766" height="11.068" transform="translate(5817.639 2591)" fill="#4e3b30"/>
    <rect id="長方形_31474" data-name="長方形 31474" width="2.766" height="11.068" transform="translate(5837.754 2591)" fill="#4e3b30"/>
  </g>
</svg>
