<svg xmlns="http://www.w3.org/2000/svg" width="52.926" height="9.35" viewBox="0 0 52.926 9.35">
  <g id="グループ_41314" data-name="グループ 41314" transform="translate(-5159.614 -512.54)">
    <g id="グループ_41311" data-name="グループ 41311" transform="translate(4234.614 166.101)">
      <g id="グループ_41239" data-name="グループ 41239" transform="translate(925 346.471)">
        <path id="線_1" data-name="線 1" d="M-.362,1.551a.636.636,0,0,1-.451-.187.638.638,0,0,1,0-.9L.462-.813a.638.638,0,0,1,.9,0,.638.638,0,0,1,0,.9L.089,1.364A.636.636,0,0,1-.362,1.551Z" transform="translate(4.826 1)" fill="#fff"/>
        <path id="線_2" data-name="線 2" d="M2.189,2.826a.636.636,0,0,1-.451-.187L-.813.089a.638.638,0,0,1,0-.9.638.638,0,0,1,.9,0L2.64,1.738a.638.638,0,0,1-.451,1.089Z" transform="translate(1 1)" fill="#fff"/>
        <path id="線_3" data-name="線 3" d="M-.362,5.377A.638.638,0,0,1-1,4.74v-5.1A.638.638,0,0,1-.362-1a.638.638,0,0,1,.638.638v5.1A.638.638,0,0,1-.362,5.377Z" transform="translate(3.551 3.551)" fill="#fff"/>
        <path id="線_4" data-name="線 4" d="M2.189.275H-.362A.638.638,0,0,1-1-.362.638.638,0,0,1-.362-1H2.189a.638.638,0,0,1,.638.638A.638.638,0,0,1,2.189.275Z" transform="translate(1 4.189)" fill="#fff"/>
        <path id="線_5" data-name="線 5" d="M2.189.275H-.362A.638.638,0,0,1-1-.362.638.638,0,0,1-.362-1H2.189a.638.638,0,0,1,.638.638A.638.638,0,0,1,2.189.275Z" transform="translate(1 6.74)" fill="#fff"/>
        <path id="線_6" data-name="線 6" d="M2.189.275H-.362A.638.638,0,0,1-1-.362.638.638,0,0,1-.362-1H2.189a.638.638,0,0,1,.638.638A.638.638,0,0,1,2.189.275Z" transform="translate(3.551 4.189)" fill="#fff"/>
        <path id="線_7" data-name="線 7" d="M2.189.275H-.362A.638.638,0,0,1-1-.362.638.638,0,0,1-.362-1H2.189a.638.638,0,0,1,.638.638A.638.638,0,0,1,2.189.275Z" transform="translate(3.551 6.74)" fill="#fff"/>
      </g>
    </g>
    <path id="パス_3744" data-name="パス 3744" d="M2.78-6.24H1.79v-.92h.99Zm0,1.82H1.79v-.93h.99Zm0,1.82H1.79v-.94h.99ZM3.82-8.1H.78v6.45H3.82ZM1.26-1.58A4.744,4.744,0,0,1,.23.31a6.089,6.089,0,0,1,.88.58A6.62,6.62,0,0,0,2.3-1.35Zm1.17.35A8.665,8.665,0,0,1,3.25.46L4.17.01A9.123,9.123,0,0,0,3.31-1.6Zm4.89-.34v-.5H8.1v.5Zm-1.79-.5h.76v.5H5.53Zm.76-1.19v.46H5.53v-.46Zm1.81,0v.46H7.32v-.46ZM6.29-5.7H7.31v.39H6.29Zm0-1.16H7.31v.37H6.29ZM9.64-1.57H9.18V-4.09H7.32v-.38H9.63v-.84H8.37V-5.7H9.3v-.79H8.37v-.37H9.45V-7.7H8.37v-.76H7.31v.76H6.29v-.76H5.25v.76H4.17v.84H5.25v.37H4.4v.79h.85v.39H4v.84H6.29v.38H4.49v2.52H3.95v.83h.54V.88H5.53V-.74H8.1v.52c0,.11-.04.15-.17.15s-.55,0-.94-.01A3.644,3.644,0,0,1,7.3.87,3.575,3.575,0,0,0,8.75.7c.33-.16.43-.41.43-.91V-.74h.46Zm3.27-6.34V-6.7h2.28c.03.34.07.7.14,1.08l-.61-.11C14.17-3.1,12.98-1.17,10.9-.12a9.5,9.5,0,0,1,1.09.97,8.653,8.653,0,0,0,3.69-4.94A8.449,8.449,0,0,0,19.36.84,6.4,6.4,0,0,1,20.32-.2a8.348,8.348,0,0,1-3.95-7.71ZM25.23-3.29a.739.739,0,0,1,.76-.78.706.706,0,0,1,.65.35c.13.86-.24,1.17-.65,1.17A.736.736,0,0,1,25.23-3.29Zm5.28-3.59c-.52-.01-1.87,0-2.87,0,0-.12.01-.22.01-.3.01-.16.04-.69.07-.85H26.28a6.7,6.7,0,0,1,.09.86,2.538,2.538,0,0,1,.01.3c-1.33.02-3.13.07-4.26.07l.03,1.2c1.22-.07,2.75-.13,4.25-.15l.01.66a2.376,2.376,0,0,0-.39-.03,1.865,1.865,0,0,0-1.98,1.85,1.745,1.745,0,0,0,1.71,1.82,2.138,2.138,0,0,0,.45-.05A4.527,4.527,0,0,1,23.78-.37L24.83.69c2.42-.68,3.18-2.32,3.18-3.61a2.442,2.442,0,0,0-.37-1.37c0-.43,0-.97-.01-1.47,1.34,0,2.27.02,2.87.05ZM36.71-.6c-.58,0-1-.25-1-.62,0-.25.24-.47.61-.47.54,0,.91.42.97,1.06A5.221,5.221,0,0,1,36.71-.6Zm2.18-7.14a4.776,4.776,0,0,1-.76.1c-.56.05-2.68.1-3.2.1-.28,0-.62-.02-.9-.05l.04,1.29a6.535,6.535,0,0,1,.81-.08c.52-.04,1.88-.1,2.39-.11-.49.43-1.52,1.26-2.07,1.72-.59.48-1.78,1.49-2.48,2.06l.9.93c1.06-1.2,2.05-2.01,3.57-2.01,1.15,0,2.05.6,2.05,1.49a1.444,1.444,0,0,1-.81,1.35,1.994,1.994,0,0,0-2.11-1.69A1.664,1.664,0,0,0,34.54-1.1c0,.99,1.04,1.62,2.42,1.62,2.39,0,3.58-1.24,3.58-2.8a2.686,2.686,0,0,0-2.96-2.49,3.33,3.33,0,0,0-.93.11c.62-.5,1.66-1.38,2.19-1.75q.33-.225.69-.45Z" transform="translate(5172 521)" fill="#fff"/>
  </g>
</svg>
