<svg xmlns="http://www.w3.org/2000/svg" width="267.876" height="17.747" viewBox="0 0 267.876 17.747">
  <g id="グループ_41291" data-name="グループ 41291" transform="translate(-5005.56 -655)">
    <path id="パス_3691" data-name="パス 3691" d="M92.812,279.044c0-.748,0-1.265-.019-1.936a7.251,7.251,0,0,1-2.05.326c-1.189,0-1.763-.69-1.763-.862a.266.266,0,0,1,.268-.288c.115,0,.613.153.747.153a8.4,8.4,0,0,0,2.721-.479c-.019-.556-.038-1.936-.057-2.453-.019-.211-.1-1.169-.1-1.4a.542.542,0,0,1,.537-.555c.517,0,1.456.383,1.456,1a.853.853,0,0,1-.1.345,19.414,19.414,0,0,0-.288,2.665,5.258,5.258,0,0,0,.9-.595c.46-.345.613-.441.823-.441.442,0,1.054.268,1.054.824,0,.307,0,.613-2.817,1.571-.019.939-.019,1.668-.019,2.434a7.072,7.072,0,0,1,3.641-1.073c1.975,0,3.316,1.054,3.316,2.721a3.408,3.408,0,0,1-3.507,3.335,4.6,4.6,0,0,1-3.009-1.993c0-.1.076-.154.23-.154a.867.867,0,0,1,.249.154,5.058,5.058,0,0,0,2.2.708,1.887,1.887,0,0,0,1.974-2.127,1.625,1.625,0,0,0-1.8-1.8,5.922,5.922,0,0,0-3.239,1.074c0,.364.077,2.108.077,2.511,0,.613,0,2.185-1.419,2.185-.383,0-.441-.077-.767-.479a4.792,4.792,0,0,0-1.456-1.13c-.211.383-.536.938-1.169.938a1.3,1.3,0,0,1-1.207-1.226c0-.307.307-.4.5-.4a1.6,1.6,0,0,1,.421.058c2.224-1.763,2.472-1.955,3.661-2.759Zm-.364,4.37c.364,0,.364-.383.364-.747,0-.25.038-1.533.038-1.821a13.015,13.015,0,0,0-1.9,1.955A6.987,6.987,0,0,0,92.448,283.413Zm11.154-4.236a2.89,2.89,0,0,1-1.955-.652c0-.1.057-.1.575-.191.23-.039.4-.115.4-.383,0-.479-.422-1.763-2.607-2.281-.767-.173-.844-.211-.844-.344,0-.326.633-.345.921-.345,2.07,0,4.638.9,4.638,3.1A1.035,1.035,0,0,1,103.6,279.177Z" transform="translate(4917.329 385.827)" fill="#1a1311"/>
    <path id="パス_3692" data-name="パス 3692" d="M111.679,277.646c-.211,0-.46,0-.46-.115s.077-.173.8-.536a14.771,14.771,0,0,0,4.14-3.277c.421-.518.479-.594.862-.594.5,0,1.092.306,1.092.767,0,.44-1,1.246-1.553,1.686-.019,1.456-.038,4.408-.038,8.739,0,.748,0,.863-.173,1.189a1.269,1.269,0,0,1-1,.708.76.76,0,0,1-.8-.767c0-.1.058-.517.058-.613.153-2.99.249-5.194.326-8.28A8.715,8.715,0,0,1,111.679,277.646Zm5.405-7.34c.517,0,1.169.306,1.169.844a.773.773,0,0,1-.46.632,7.781,7.781,0,0,1-3.43.882c-.365,0-1.725,0-1.725-.326,0-.1.441-.23.671-.288a9.453,9.453,0,0,0,2.99-1.4A.9.9,0,0,1,117.084,270.305Zm10.656,9.736a1.178,1.178,0,0,1,.882-.613c.422,0,1.169.518,1.169.977,0,.442-.594.46-.863.46-.92.019-2.319.019-3.22,0,.019.48.077,2.836.077,3.354,0,1.3-.556,2.2-1.782,2.2a2.785,2.785,0,0,1-2.4-1.151c0-.057.058-.095.134-.095.173,0,1.035.095,1.226.095.882,0,1.074-.21,1.092-2.011l.019-2.4H121.7c-.384,0-2.549,0-2.78.038-.115.019-.709.192-.843.192-.25,0-.556-.115-.556-.4a.792.792,0,0,1,.767-.747c.153,0,.9.1,1.054.1h4.733l-.019-.729a.441.441,0,0,1-.172-.344c0-.211.211-.307.344-.383h-4.408a1.519,1.519,0,0,0-.594.1,1.631,1.631,0,0,1-.536.134c-.269,0-.537-.076-.537-.4a.787.787,0,0,1,.709-.767c.077,0,.5.058.575.077.556.038,6.171.057,7.053.057.191-.25.479-.613.882-.613.421,0,1.169.517,1.169,1,0,.442-.633.442-.805.442-.268,0-1.609-.019-1.917-.019-.019.076-.1.555-.1.613l-.019.843Zm-8.279,3.986c-.441,0-1.036-.249-1.036-.747a.922.922,0,0,1,.863-.8,6.713,6.713,0,0,0,2.2-.383,7.025,7.025,0,0,1,1.016-.479.141.141,0,0,1,.153.153C122.661,282.437,120.9,284.027,119.461,284.027Zm5.481-13.3a1.03,1.03,0,0,1,.882-.536c.48,0,1,.364,1,.786a2.73,2.73,0,0,1-.135.441v1.571c0,.422.1,2.473.1,2.932,0,.613-.748.863-1.246.863-.594,0-.613-.306-.613-.671h-3.642c0,.383,0,.4-.153.575a1.451,1.451,0,0,1-.843.326c-.652,0-.652-.4-.652-.69,0-.632.115-3.776.115-4.485a2.187,2.187,0,0,0-.019-.326c-.019-.058-.21-.288-.21-.345,0-.383.728-.9,1.149-.9.154,0,.613.116.69.46Zm0,2.28v-1.475h-3.45c-.076,0-.229.115-.229.191v1.284Zm0,2.339v-1.571h-3.679v1.571Z" transform="translate(4911.518 386.171)" fill="#1a1311"/>
    <path id="パス_3693" data-name="パス 3693" d="M144.719,273.188c.364,0,.958.249.958.671,0,.575-1.149.9-2.376,1.264-2.109,5.884-2.569,6.344-3.277,6.344a.866.866,0,0,1-.863-.9.916.916,0,0,1,.365-.862,13.051,13.051,0,0,0,2.357-4.313,6.093,6.093,0,0,1-1.553.25,1.875,1.875,0,0,1-1.994-1.38.172.172,0,0,1,.192-.192.854.854,0,0,1,.4.154,2.5,2.5,0,0,0,1.227.268,7.041,7.041,0,0,0,2.127-.306,7.515,7.515,0,0,0,.288-2.032c0-.134-.115-.747-.115-.9a.559.559,0,0,1,.594-.575c.594,0,1.361.48,1.361,1.074,0,.191-.594,1.667-.69,1.993A4.621,4.621,0,0,1,144.719,273.188Zm6.344,11.633a.643.643,0,0,1-.728.652c-.69,0-.863-.211-1.476-1a7.521,7.521,0,0,0-1.3-1.151c-.23,1.63-1.763,2.242-3.45,2.242-.786,0-2.549-.229-2.549-1.552,0-1.112,1.226-2.166,3.718-2.166a2.694,2.694,0,0,1,.728.058c-.019-.383-.115-2.242-.115-2.664a2.721,2.721,0,0,1,1.189-2.683,1.316,1.316,0,0,1,.594-.288c.115,0,.5.1.5.307,0,.134-.46.632-.556.747a2.067,2.067,0,0,0-.383,1.227c0,.249.192,1.418.211,1.686.038.306.192,1.667.192,1.9C148.935,282.5,151.062,283.94,151.062,284.821Zm-6.056-2.166c-1.418,0-1.878.307-2.166.978a.286.286,0,0,0-.038.173c0,.594.536.767,1.131.767,1.859,0,2.013-1.15,2.089-1.821A3.956,3.956,0,0,0,145.006,282.655Zm4.082-6.88c0-.1.077-.134.191-.191.48-.23.518-.268.518-.4,0-.441-1.035-.594-1.5-.67-.191-.019-.843-.116-.843-.269,0-.249.977-.517,1.706-.517.134,0,2.779,0,2.779,1.514,0,.536-.613.729-1.112.748a6.613,6.613,0,0,0-1.284.115A.358.358,0,0,1,149.088,275.775Z" transform="translate(4904.662 386.047)" fill="#1a1311"/>
    <path id="パス_3694" data-name="パス 3694" d="M167.278,269.443h-3.986v12.3h-1.073v-13.3h5.059Z" transform="translate(4898.625 386.611)" fill="#1a1311"/>
    <path id="パス_3695" data-name="パス 3695" d="M180.894,278.329c1.821,0,3.488,1.035,3.488,2.875,0,1.973-2.032,4.388-8.318,4.388-.211,0-.632,0-.632-.326,0-.115.058-.211.421-.249.23-.039,1.38-.153,1.629-.192,4.945-.824,4.945-3.181,4.945-3.756,0-.9-.288-1.955-1.725-1.955-1.744,0-3.45,1.763-3.909,3.066-.115.306-.23.652-.729.652-.786,0-1.3-.921-1.3-2.127,0-.729.23-2.8.441-4.772a6.472,6.472,0,0,1-1.61.306,2.154,2.154,0,0,1-2.108-1.438c0-.153.134-.191.249-.191a.5.5,0,0,1,.211.058,4.378,4.378,0,0,0,1.533.23,5.651,5.651,0,0,0,1.878-.326c.1-1.323.135-1.955.135-2.4a1.908,1.908,0,0,0-.116-.748c-.21-.479-.229-.5-.229-.633a.494.494,0,0,1,.555-.479c.613,0,1.763.5,1.763,1.207,0,.019-.555,2.262-.594,2.683a4.942,4.942,0,0,0,.594-.479.879.879,0,0,1,.69-.23c.518,0,1.054.307,1.054.729,0,.268-.019.632-2.588,1.456-.077.613-.422,3.143-.422,3.853,0,.556.077.69.25.709C178.5,278.866,179.284,278.329,180.894,278.329Z" transform="translate(4896.282 386.138)" fill="#1a1311"/>
    <path id="パス_3696" data-name="パス 3696" d="M199.838,285.875c0,.5-.249.613-.556.613a1.237,1.237,0,0,1-.939-.537,6.142,6.142,0,0,0-1.648-1.61c-.326,1.457-1.668,2.071-3.182,2.071-.652,0-1.993-.23-1.993-1.207,0-1.016,1.3-1.955,3.737-1.955a.844.844,0,0,1,.306.038c0-.652-.421-3.833-.46-4.562-.019-.306-.1-1.84-.114-2.185,0-.115-.23-.613-.23-.747a.447.447,0,0,1,.46-.421c.441,0,1.169.344,1.169.843,0,.191-.1,1.188-.1,1.4a16.508,16.508,0,0,0,.115,1.974c.211,1.993.306,3.009.326,3.89C198.88,284.187,199.838,285.3,199.838,285.875Zm-4.926-2.07c-.8,0-2.223.345-2.223,1.169,0,.518.823.518,1.015.518a1.6,1.6,0,0,0,1.84-1.533A1.106,1.106,0,0,0,194.912,283.8Zm2.722-4.868c-.326,0-1.112-.421-1.112-.767,0-.211.134-.211.555-.211a1.994,1.994,0,0,0,.729-.172,3.132,3.132,0,0,1,.959-.345c.288,0,.862.326.862.69C199.627,278.706,198.017,278.936,197.634,278.936Z" transform="translate(4891.217 384.861)" fill="#1a1311"/>
    <path id="パス_3697" data-name="パス 3697" d="M213.378,278.688a.329.329,0,0,1,.307.306c0,.249-.288,1.457-.326,1.725a20.443,20.443,0,0,0-.134,2.875c0,.613-.729.862-1.361.862-1.016,0-4.408-.958-4.983-6.689-.039-.421-.058-2.683-.077-2.874-.019-.1-.249-.594-.249-.709,0-.364.326-.4.518-.4.613,0,1.686.671,1.686,1.4a3.416,3.416,0,0,1-.076.748,13.031,13.031,0,0,0-.173,1.955c0,4.063,2.281,4.734,2.683,4.734.518,0,.671-.441,1-1.361.134-.365.767-2.242.844-2.377A.393.393,0,0,1,213.378,278.688Zm7.207,2.223a.7.7,0,0,1-.594-.306,3.53,3.53,0,0,1-.288-.671c-1.227-2.913-3.124-3.124-3.814-3.2-1-.115-1.035-.115-1.035-.287,0-.25,1.035-.46,1.783-.46,3.085,0,5.04,2.453,5.04,3.871A1.123,1.123,0,0,1,220.584,280.911Z" transform="translate(4887.417 385.263)" fill="#1a1311"/>
    <path id="パス_3698" data-name="パス 3698" d="M238.362,272.461c0,.479-.729.824-1.054.824-.517,0-1.725-1.169-2.242-1.763-1.782,1.284-4.331,2.76-6.018,2.76-.1,0-.326,0-.326-.134,0-.1.364-.307.46-.365a21.691,21.691,0,0,0,4.945-3.8,1.082,1.082,0,0,1,.728-.326c.441,0,1.054.326,1.054.844a.285.285,0,0,1-.1.23c.384.4.575.5,2.224,1.361C238.152,272.154,238.362,272.25,238.362,272.461Zm-4.733,2.262a8.194,8.194,0,0,0-.039-.92c-.326-.192-.364-.211-.364-.326,0-.365.862-.863,1.284-.863.25,0,.729.153.729.518,0,.077-.058.345-.058.4a8.714,8.714,0,0,0-.1,1.188h.594a.851.851,0,0,1,.728-.383.893.893,0,0,1,.881.8c0,.038-.057.288-.057.307a2.5,2.5,0,0,0-.058.652c0,.479.114,2.53.114,2.951,0,.517-.8.67-1.207.67-.46,0-.46-.229-.46-.479H232.8v3.6c.249-.058,1.4-.25,1.629-.288a8.191,8.191,0,0,0,1.169-.307,7.34,7.34,0,0,0-.939-1.379c-.326-.4-.364-.441-.364-.5,0-.115.095-.134.191-.134.556,0,3.162,1.131,3.162,2.683a.765.765,0,0,1-.785.786c-.595,0-.767-.422-.939-.882a20.342,20.342,0,0,1-5.425,1.763c-.421,0-1.015-.25-1.015-.786,0-.729.882-.767,1.783-.824.019-.613.057-1.361.057-2.932,0-1.151-.019-3.374-.038-4.37-.229-.134-.306-.191-.306-.306,0-.441.862-1.054,1.284-1.054a.558.558,0,0,1,.556.4Zm2.031.709H232.8v1.15h2.855Zm.019,1.9H232.8V278.5h2.874Zm10.272,6.555c.192.153,1.284.747,1.284.882,0,.249-1.974.8-2.3.8-.575,0-1.5-1.073-2.05-2.032a11.246,11.246,0,0,1-1.323-5.1,9.576,9.576,0,0,1-.23,2.127,5.585,5.585,0,0,1-3.757,4.293,10.4,10.4,0,0,1-2.856.69c-.076,0-.211,0-.211-.134,0-.115.058-.153.633-.365,4.312-1.648,4.945-4,5.021-8.8-.211-.23-.249-.268-.249-.383,0-.441.728-1.073,1.323-1.073.191,0,.8.076.8.613a2.183,2.183,0,0,1-.115.613A11.038,11.038,0,0,0,245.952,283.884Zm-6-9.66c-.441.862-1.821,2.511-2.319,2.511-.076,0-.153-.038-.153-.115,0-.019.939-2.108,1.092-2.53a14.547,14.547,0,0,0,1.016-4.063.834.834,0,0,1,.958-.785.953.953,0,0,1,1.016.882,12.078,12.078,0,0,1-1.092,3.239h3.488a1.348,1.348,0,0,1,1.054-.595,1.013,1.013,0,0,1,1.074,1.016,9.6,9.6,0,0,1-1.227,2.664c-.114.154-.364.518-.67.518-.345,0-.345-.307-.345-.441,0-.153.076-1.936.076-2.3Z" transform="translate(4881.813 386.41)" fill="#1a1311"/>
    <path id="パス_3699" data-name="パス 3699" d="M269.893,281.113a1.885,1.885,0,0,1,1.38,1.629c0,.345-.518.537-.786.537-.306,0-.536-.077-1.437-.728-.4-.288-1-.633-1.955-1.207a6.981,6.981,0,0,1-5,4.542,5.369,5.369,0,0,1-1.515.23c-.288,0-.5-.1-.5-.23,0-.077.4-.23.556-.288a7.326,7.326,0,0,0,4.907-4.887,10.841,10.841,0,0,0-4.562-.959c-1.782,3.1-2.185,3.469-3.642,3.469-1,0-1.859-.441-1.859-1.4,0-.92,1.151-2.4,4.485-2.836,1-1.84,2.549-5.021,2.549-5.75,0-.076-.019-.134-.134-.134-.46,0-2.242,1.054-2.682,1.054a1.391,1.391,0,0,1-1.381-1.226.234.234,0,0,1,.269-.268c.153,0,.8.1.939.1a9.713,9.713,0,0,0,3.258-.747c.709-.365.747-.384,1.035-.384a1.07,1.07,0,0,1,1.131.959c0,.23-.038.288-.4.824-1.763,2.683-2.741,4.542-3.259,5.5a15.2,15.2,0,0,1,4.638.8c0-.077.134-1.092.134-1.112a.655.655,0,0,0-.076-.306,3.646,3.646,0,0,1-.4-.671c0-.23.4-.345.767-.345a1.381,1.381,0,0,1,1.514,1.38,6.061,6.061,0,0,1-.268,1.572A10.272,10.272,0,0,0,269.893,281.113Zm-12.86.595c0,.4.479.4.536.4.959,0,1.725-1.648,2.07-2.357C257.876,280.174,257.033,281.037,257.033,281.708Z" transform="translate(4875.048 385.808)" fill="#1a1311"/>
    <path id="パス_3700" data-name="パス 3700" d="M286.557,283.041a7.478,7.478,0,0,0,2.971-.537c.575-.306.594-.306.863-.306.479,0,1.571.306,1.571.844,0,.593-.613.747-1,.824a21.321,21.321,0,0,1-4.638.44,2.333,2.333,0,0,1-2.588-2.05c-.038-.422,0-3.392,0-4.025-.192.1-1.189.536-1.418.633a12.819,12.819,0,0,0-1.686.862c-.575.422-.747.536-1.131.536-.326,0-.5-.192-.5-.652a1.083,1.083,0,0,1,.921-1.015,29.943,29.943,0,0,0,3.833-1.093c-.019-.383-.039-2.28-.058-2.7,0-.25-.135-1.438-.135-1.706,0-.421.383-.517.709-.517.46,0,1.341.344,1.341.881,0,.1-.134.613-.153.729-.076.594-.134,2.2-.153,2.856.939-.345,3.6-1.323,3.986-1.571.518-.345.613-.4.9-.4a1.258,1.258,0,0,1,1.207,1.13.935.935,0,0,1-.575.824c-1.63,1.9-3.8,3.489-4.331,3.489-.1,0-.288-.019-.288-.211,0-.153,2.606-2.684,2.606-3.354,0-.153-.153-.153-.249-.153a14.973,14.973,0,0,0-3.3,1.015c0,.46-.038,4.006-.019,4.159A1.125,1.125,0,0,0,286.557,283.041Z" transform="translate(4869.101 385.567)" fill="#1a1311"/>
    <path id="パス_3701" data-name="パス 3701" d="M299.505,279.63c0-.038.1-.134.325-.134.939,0,2.99.8,2.99,2.07a.683.683,0,0,1-.728.709c-.345,0-.422-.1-.863-.728a6.6,6.6,0,0,0-.824-1.074A10.351,10.351,0,0,1,299.505,279.63Zm8.011-.536c0-.058-.058-.306-.058-.364a.627.627,0,0,1,.594-.613c.5,0,1.246.518,1.246,1.035a18.9,18.9,0,0,1-2.7,5.059,9.222,9.222,0,0,1-6.191,3.565c-.057,0-.23,0-.23-.134,0-.115.767-.421.921-.5A11.98,11.98,0,0,0,307.516,279.093Zm-5.348-.652c0-.115.211-.134.269-.134,1.054,0,3.008.938,3.008,2.108a.653.653,0,0,1-.69.69c-.421,0-.613-.268-.844-.632a7.666,7.666,0,0,0-1.629-1.9C302.246,278.537,302.169,278.5,302.169,278.442Z" transform="translate(4863.918 384.167)" fill="#1a1311"/>
    <path id="パス_3702" data-name="パス 3702" d="M319.809,277.47c0,.518.1,4.045.154,4.887.019.249.115,1.4.115,1.533,0,.767-.556,1.706-1.284,1.706-.8,0-.844-1-.844-1.418,0-.211.134-1.323.153-1.591.1-1.553.173-4.121.173-6.536,0-1.169-.1-3.545-.134-3.833-.019-.1-.172-.5-.172-.594a.535.535,0,0,1,.593-.536c.613,0,1.686.383,1.686,1.188,0,.153-.249.9-.268,1.074a21.119,21.119,0,0,0-.191,3.047c2.875.173,5.06.977,5.06,2.338a.994.994,0,0,1-.978.977c-.441,0-.517-.1-1.207-.862a7.315,7.315,0,0,0-2.857-1.82Z" transform="translate(4859.255 385.944)" fill="#1a1311"/>
    <path id="パス_3703" data-name="パス 3703" d="M330.139,286.624h3.986v-12.3H335.2v13.3h-5.059Z" transform="translate(4856.174 385.126)" fill="#1a1311"/>
    <path id="パス_3704" data-name="パス 3704" d="M351.685,278.785c.058,2.166-.671,6.4-3.086,6.4-1.648,0-2.185-2.147-2.185-2.3,0-.076,0-.134.076-.134a3.215,3.215,0,0,1,.46.306,2.583,2.583,0,0,0,1.379.556.711.711,0,0,0,.614-.307c.747-.977,1.073-3.737,1.073-5.136,0-.594-.019-1.9-1.073-1.9a.765.765,0,0,0-.4.115c-.69,1.878-2.99,7.513-4.159,7.513a.847.847,0,0,1-.92-.921c0-.594.211-.767.632-1.111a16.459,16.459,0,0,0,2.913-5.118,7.9,7.9,0,0,1-2.8.977c-.594,0-1.629-.766-1.629-1.379a.32.32,0,0,1,.326-.307.939.939,0,0,1,.345.1,3.723,3.723,0,0,0,1.15.191,13.113,13.113,0,0,0,2.97-.5,15.9,15.9,0,0,0,.921-3.986c0-.058-.039-.345-.039-.4,0-.5.25-.613.537-.613a1.512,1.512,0,0,1,1.437,1.264,3.7,3.7,0,0,1-.287.613c-.077.173-.8,2.109-1.074,2.913a3.842,3.842,0,0,1,.594-.058,2.375,2.375,0,0,1,2.2,2.568Zm5.232,1.955a3.134,3.134,0,0,1-1.955-.9c0-.134.173-.134.519-.134.325,0,.517,0,.517-.384a4.02,4.02,0,0,0-2.837-3.143c-.268-.1-.421-.134-.421-.23,0-.134.191-.268.631-.268,2.339,0,4.639,2.108,4.639,3.967A1.046,1.046,0,0,1,356.917,280.74Zm-1.515-6.229a.639.639,0,0,1-.555-.287c-.115-.154-.613-.921-.748-1.093-.134-.153-.958-.9-.958-.92,0-.173.306-.173.383-.173,1,0,2.645.8,2.645,1.783A.731.731,0,0,1,355.4,274.511Zm2.186-1.284a.847.847,0,0,1-.729-.441,5.411,5.411,0,0,0-1.265-1.361c-.076-.038-.421-.306-.421-.364,0-.153.326-.191.44-.191.9,0,2.722.67,2.722,1.648A.742.742,0,0,1,357.588,273.228Z" transform="translate(4853.029 386.008)" fill="#1a1311"/>
    <path id="パス_3705" data-name="パス 3705" d="M380.074,274.556a1.571,1.571,0,0,1,1.227-1.035,1.688,1.688,0,0,1,1.476,1.438.547.547,0,0,1-.461.556c-.344.077-5.672.077-6.727.077a13.267,13.267,0,0,0,7.609,8.854c.383.173.421.191.421.288a9.877,9.877,0,0,1-2.913,1.15c-1.015,0-2.434-1.86-2.7-2.224a13.622,13.622,0,0,1-2.8-7.819l-.039-.019c-.077,6.651-5.309,9.66-8.241,9.66-.134,0-.383,0-.383-.192,0-.115.076-.134.517-.306.269-.115.824-.326,1-.421,4.754-2.454,5.213-7.072,5.385-8.951H369.15c-.249,0-1.438.4-1.725.4a.575.575,0,0,1-.518-.633.915.915,0,0,1,.958-1c.211,0,1.151.172,1.361.172h4.293v-2.99a.94.94,0,0,0-.173-.556c-.172-.268-.287-.421-.287-.536,0-.5,1.092-1.361,1.706-1.361.8,0,.843.517.843.959,0,.114-.038.613-.057.728-.02.537-.077,3.162-.116,3.756Z" transform="translate(4846.971 386.443)" fill="#1a1311"/>
    <path id="パス_3706" data-name="パス 3706" d="M406.532,279.7a1.478,1.478,0,0,1,1.207-.8,1.408,1.408,0,0,1,1.284,1.169c0,.5-.709.537-1.054.555-.306.019-1.744,0-2.07,0-1.438,0-2.894-.019-4.312-.057.632.843,2.281,2.453,6.65,3.507.537.134.594.154.594.268a5.825,5.825,0,0,1-2.664,1.112c-.173,0-3.354-.633-5.232-4.7,0,.556.134,3.239.134,3.833a1.173,1.173,0,0,1-1.246,1.341c-.67,0-.67-.268-.67-.939,0-.613.153-3.7.153-4.408l-6.018.077c-.191,0-1.092.287-1.3.287a.574.574,0,0,1-.632-.517.907.907,0,0,1,.862-.824c.192,0,1.131.115,1.342.115h5.73v-.594c0-.077-.288-.365-.288-.442,0-.326.575-.747,1.111-.881-1.4.019-2.453.019-3.564.019-.019.326-.038.881-1.035.881-.729,0-.729-.383-.729-.613,0-.384.134-2.262.153-2.7.038-1.13.058-2.166.058-2.53a4.538,4.538,0,0,1-2.7,1.706c-.058,0-.268,0-.268-.115a3.457,3.457,0,0,1,.537-.517,15.25,15.25,0,0,0,3.086-4.409c0-.345.019-.959.919-.959a1.054,1.054,0,0,1,1.131.9c0,.479-.844,1.438-1.054,1.686H404.5a1.3,1.3,0,0,1,1-.652c.422,0,1.092.441,1.092.959,0,.4-.5.44-.651.46-.211.019-1.514.039-1.744.039h-3.143c-.019.44-.019.862-.019,1.188h2.185a.925.925,0,0,1,.785-.479c.345,0,1,.344,1,.785,0,.383-.364.4-.786.4h-3.219v1.111h2.261a.879.879,0,0,1,.786-.479c.364,0,1,.326,1,.786,0,.421-.077.421-2.051.421h-2.012v1.284H404.9a1.135,1.135,0,0,1,.939-.613c.441,0,1.15.479,1.15.977,0,.46-.651.46-.8.46h-5.731c.327.058.595.191.595.517a1.549,1.549,0,0,1-.058.307,7.074,7.074,0,0,0-.058,1.092Zm-8.356,1.246c.422,0,.977.288.977.767,0,.882-4.791,3.546-7.033,3.546-.135,0-.364-.058-.364-.192s.114-.173.9-.479a17.32,17.32,0,0,0,3.853-2.492c.153-.134.766-.8.939-.938A1.394,1.394,0,0,1,398.176,280.941Zm1.188-5.98V273.85h-2.779l-.019,1.111Zm-.058,2.032c0-.192.019-1.093.019-1.3h-2.76v1.3Zm.058-3.853c0-.173-.019-1-.019-1.188H396.6l-.019,1.188Zm.652-2.07c-.114,0-.345-.077-.345-.269a16.5,16.5,0,0,1,.461-1.725.921.921,0,0,1,.881-.709c.46,0,1,.4,1,.824C402.009,269.768,400.456,271.072,400.015,271.072Z" transform="translate(4840.699 386.631)" fill="#1a1311"/>
    <path id="パス_3707" data-name="パス 3707" d="M419.477,280.338c.1,0,.115.134.115.153a2.807,2.807,0,0,1-2.473,2.127.869.869,0,0,1-.959-.8c0-.729.709-.747,1.265-.767a2.968,2.968,0,0,0,1.917-.652C419.362,280.4,419.458,280.338,419.477,280.338Zm1.782-6.88c0-.518.9-.595,1.131-.595.517,0,.882.211.882.652,0,.269-.077.383-.383.824-.978,1.4-2.434,3.124-2.568,3.277.268.019,1.246.039,2.319-.019-.038-.1-.306-.575-.364-.671,0-.019-.383-.5-.383-.556,0-.172.1-.172.23-.172.536,0,2.453,1.111,2.453,2.108a.815.815,0,0,1-.767.862c-.441,0-.536-.211-.92-1.073-.173.038-1.054.268-1.246.306,0,.9.115,5.347.115,6.344a1.191,1.191,0,0,1-1.112,1.284c-.23,0-.766-.153-.766-.575s.114-2.472.134-2.932c.038-1.3.1-2.665.1-3.948-.421.077-2.108.345-2.4.345a.719.719,0,0,1-.748-.729.684.684,0,0,1,.748-.652c.134,0,1.188.038,1.418.038.421-.652.536-.844,1.112-1.783-.306-.076-1.8-.421-2.147-.5a.664.664,0,0,1-.537-.633.807.807,0,0,1,.518-.728,16.136,16.136,0,0,0,1.9-3.316c0-.057-.115-.326-.115-.4,0-.48,1.054-.729,1.457-.729.211,0,.92.1.92.652,0,.5-.288.862-2.913,4.178.306.153.536.268,1.322.709.057-.115.537-1.092.613-1.323Zm.824,7.283a.7.7,0,0,1,.69-.671.8.8,0,0,1,.728.383,7.638,7.638,0,0,0,.959,1.591c.191.229.307.364.307.517,0,.173-.231.173-.4.173C422.946,282.312,422.083,281.411,422.083,280.74Zm4.428-6.957c-.326,0-1.3.038-1.5.057a9.691,9.691,0,0,1-1.016.25c-.249,0-.517-.115-.517-.422,0-.326.249-.92.786-.92.057,0,.478.077.575.1.268.038,2.644.1,3.028.1,0-.8-.039-1.859-.058-1.9,0-.211,0-.23-.135-.345-.306-.23-.326-.25-.326-.326,0-.613,1.054-1.284,1.648-1.284a.717.717,0,0,1,.767.805,3.031,3.031,0,0,1-.039.383c-.057.46-.133,2.07-.153,2.665.4,0,2.4-.019,2.856-.039a1.289,1.289,0,0,1,1.074-.728,1.2,1.2,0,0,1,1.15,1.112c0,.517-.575.536-1.036.536-.919,0-2.664-.019-4.063-.038l-.058,2.8c.748,0,1.054,0,1.955-.019a1.075,1.075,0,0,1,.882-.652,1.2,1.2,0,0,1,1.072,1.054c0,.537-.5.518-1.591.518h-4.849a6.293,6.293,0,0,0-.921.038c-.133.019-.785.23-.938.23a.469.469,0,0,1-.46-.518.866.866,0,0,1,.805-.8c.115,0,.652.115.785.134.269.019.422.019,1.668.019v-2.8Zm4.446,5.788a1.663,1.663,0,0,1,1.054-.613c.421,0,.978.345.978.824,0,.173-.135,1-.135,1.188,0,.518.114,3.028.114,3.584,0,1.015-1.188,1.015-1.246,1.015-.709,0-.709-.364-.709-.958H426.8v.575c0,.421-.767.709-1.073.709-.575,0-.575-.421-.575-1.188,0-.594.1-3.507.1-4.178-.287-.115-.325-.287-.325-.364,0-.365.977-1.035,1.4-1.035a.511.511,0,0,1,.556.441Zm.1,4.178c0-1.4,0-1.974-.02-3.411h-4.063c-.1,0-.173.115-.173.211s-.019,2.836-.019,3.2Z" transform="translate(4834.428 386.449)" fill="#1a1311"/>
    <path id="パス_3708" data-name="パス 3708" d="M442.841,272.427c0-.959.517-1.878,1.5-1.878.823,0,1.417.652,1.417,1.878,0,.23-.747,6.344-.747,6.842,0,.058-.134,1.476-.153,1.668a.54.54,0,0,1-.536.479c-.441,0-.46-.365-.536-1.169s-.556-4.772-.652-5.673C443.091,274.286,442.841,272.638,442.841,272.427Zm1.456,12.86a1.338,1.338,0,0,1-1.361-1.341,1.383,1.383,0,0,1,1.361-1.38,1.412,1.412,0,0,1,1.38,1.38A1.353,1.353,0,0,1,444.3,285.287Z" transform="translate(4827.683 386.08)" fill="#1a1311"/>
  </g>
</svg>
