<svg xmlns="http://www.w3.org/2000/svg" width="15" height="15" viewBox="0 0 15 15">
  <path id="Icon_awesome-line" data-name="Icon awesome-line" d="M9.11,8.016V10.4A.106.106,0,0,1,9,10.5H8.622a.111.111,0,0,1-.087-.044L7.443,8.987V10.4a.106.106,0,0,1-.107.107H6.954a.106.106,0,0,1-.107-.107V8.019a.106.106,0,0,1,.107-.107h.378a.1.1,0,0,1,.087.047L8.511,9.432V8.019a.106.106,0,0,1,.107-.107H9A.106.106,0,0,1,9.11,8.016ZM6.365,7.908H5.983a.106.106,0,0,0-.107.107V10.4a.106.106,0,0,0,.107.107h.382a.106.106,0,0,0,.107-.107V8.016a.108.108,0,0,0-.107-.107Zm-.921,2H4.4V8.016A.106.106,0,0,0,4.3,7.908H3.914a.106.106,0,0,0-.107.107V10.4a.1.1,0,0,0,.03.074.113.113,0,0,0,.074.03h1.53a.106.106,0,0,0,.107-.107v-.382a.107.107,0,0,0-.1-.107Zm5.675-2H9.589a.108.108,0,0,0-.107.107V10.4a.108.108,0,0,0,.107.107h1.53a.106.106,0,0,0,.107-.107v-.382a.106.106,0,0,0-.107-.107H10.078v-.4h1.041a.106.106,0,0,0,.107-.107V9.013a.106.106,0,0,0-.107-.107H10.078V8.5h1.041a.106.106,0,0,0,.107-.107V8.016A.113.113,0,0,0,11.119,7.908ZM15,4.985v9.552a2.727,2.727,0,0,1-2.735,2.712H2.712A2.729,2.729,0,0,1,0,14.514V4.962A2.729,2.729,0,0,1,2.735,2.25h9.552A2.727,2.727,0,0,1,15,4.985Zm-2.062,4.1c0-2.444-2.451-4.433-5.461-4.433S2.016,6.646,2.016,9.09c0,2.19,1.942,4.025,4.567,4.373.64.137.566.372.422,1.232-.023.137-.11.539.472.295a17.648,17.648,0,0,0,4.292-3.171A3.956,3.956,0,0,0,12.937,9.09Z" transform="translate(0 -2.25)"/>
</svg>
