<svg xmlns="http://www.w3.org/2000/svg" width="55.37" height="9.36" viewBox="0 0 55.37 9.36">
  <g id="グループ_41312" data-name="グループ 41312" transform="translate(-4982 -512.53)">
    <path id="パス_3742" data-name="パス 3742" d="M3.5-4.17l-.76.2V-5.49h.83V-6.58H2.74V-8.46H1.6v1.88H.44v1.09H1.6v1.8c-.51.12-.98.23-1.36.31L.49-2.23l1.11-.3V-.48c0,.15-.05.19-.17.19S.89-.28.5-.3A4.321,4.321,0,0,1,.83.86,2.954,2.954,0,0,0,2.32.62c.32-.18.42-.5.42-1.09V-2.85c.3-.09.6-.17.89-.26ZM5.55-.93c-.29,0-.34-.04-.34-.29v-.26a11.826,11.826,0,0,0,2.12-.61l-.69-.73a8.3,8.3,0,0,1-1.43.51v-.54H4.95c.06-.08.11-.15.17-.23H8.33C8.22-1.21,8.08-.42,7.88-.22a.435.435,0,0,1-.36.13c-.09,0-.24,0-.42-.01.33-.13.48-.43.56-1.04a3.076,3.076,0,0,1-.89-.36c-.03.49-.08.57-.31.57ZM5.18-6.01H7.9v.54H5.18Zm0-1.31H7.9v.53H5.18Zm.53,3.26a4.8,4.8,0,0,0,.26-.57H9.03V-8.16H4.1v3.53h.65A5.322,5.322,0,0,1,2.98-2.49a5.808,5.808,0,0,1,.83.81c.13-.1.26-.22.39-.34v.81c0,.91.22,1.19,1.22,1.19H6.54a2.71,2.71,0,0,1,.24.87A10.29,10.29,0,0,0,8.05.84a1.128,1.128,0,0,0,.79-.4c.32-.37.48-1.39.62-4.04.02-.14.03-.46.03-.46ZM20-7.06a8.721,8.721,0,0,0-1.26-1.37l-.87.58a8.2,8.2,0,0,1,1.2,1.43ZM16.05-.87H14.22v-.39h1.7V-3.72H14.23v-.39h1.83v-.83H14.23v-.44h2.2a19.759,19.759,0,0,0,.53,3.85,6.851,6.851,0,0,1-.91.88ZM12.37-2.21h.9v.37h-.9Zm0-.93h.9v.37h-.9Zm1.76.37v-.37h.92v.37Zm0,.93v-.37h.92v.37Zm4.65-3.11a9.975,9.975,0,0,1-.91,2.13,23.855,23.855,0,0,1-.28-2.56h2.55v-.98H17.55c-.02-.68-.03-1.38-.01-2.1h-1.2c0,.71.01,1.41.04,2.1h-2.1v-.53h1.6v-.9h-1.6v-.67H13.14v.67H11.53v.9h1.61v.53H11.09v.98h2.07v.44h-1.8v.83h1.8v.39H11.54v2.46h1.64v.39H11.22v.86h1.96V.88h1.04V-.01h.93a3.706,3.706,0,0,1,.79.9A8.868,8.868,0,0,0,17.39-.32c.37.75.86,1.19,1.5,1.19.88,0,1.24-.43,1.4-2.17a2.776,2.776,0,0,1-.94-.63C19.3-.77,19.2-.29,19-.29c-.3,0-.56-.38-.78-1.03a11.673,11.673,0,0,0,1.62-3.3ZM28.83-.54H25.28V-1.9h3.55ZM27.52-6.03H26.31v3.08H24.12V.87h1.16V.5h3.55V.86h1.22V-2.95H27.52V-4.04h3.12V-5.09H27.52Zm-.39-1.28V-8.46H25.89v1.15H22.33v2.52A10.653,10.653,0,0,1,21.44.18a5.523,5.523,0,0,1,1.03.67,12.437,12.437,0,0,0,1.05-5.64V-6.18h7.25V-7.31Zm7.9,5.78v.9H33.65v-.9ZM32.62.85h1.03V.34h1.38V.65H36.1V-2.49H32.62ZM40.2-4.48v.64h-.83v-.64Zm-.83,2.25v-.65h.83v.65Zm-1.83,0v-.65h.77v.65Zm.77-2.25v.64h-.77v-.64Zm3.06-1.66V-7.16h-.59l.52-.43a5.28,5.28,0,0,0-1.1-.87l-.7.52a6.6,6.6,0,0,1,.94.78H39.37V-8.47H38.31v1.31H36.33v.4a10.03,10.03,0,0,0-1.64-1.7H33.68a6.676,6.676,0,0,1-1.72,2.34,3.72,3.72,0,0,1,.73.75v.79h1.12v.68H32.36v.96h3.9V-3.9H34.89v-.68h1.15v-.91H34.89v-.85H33.81v.85h-.92a9.467,9.467,0,0,0,1.48-1.9,9.254,9.254,0,0,1,1.29,1.63l.67-.84v.46h1.98v.66h-1.8V.83h1.03V-1.28h.77V.78h1.06V-1.28h.83v.99c0,.09-.03.12-.12.12a5.179,5.179,0,0,1-.57,0,3.35,3.35,0,0,1,.3,1.01A2.007,2.007,0,0,0,40.9.64c.28-.18.34-.45.34-.91V-5.48H39.37v-.66Z" transform="translate(4996 521)" fill="#fff"/>
    <path id="パス_3740" data-name="パス 3740" d="M20.869,7.086c-2.651,0-4.8.6-4.8,1.326a39.189,39.189,0,0,0,.434,5.632c.1.375.592.714,1.409.96a.713.713,0,0,0,.027.139c.123.475,1.144.889,2.922.892h.014c1.779,0,2.8-.42,2.928-.892.008-.036.014-.1.026-.139.811-.247,1.311-.586,1.41-.96a39.183,39.183,0,0,0,.434-5.632C25.675,7.682,23.522,7.086,20.869,7.086Zm-1.58,5.068c-.131.484-2.448.064-2.62-.6-.013-.06.014-.165.086-.18s.133.073.18.116a1.309,1.309,0,0,0,.4.253,5.679,5.679,0,0,0,.58.134,4.908,4.908,0,0,0,1.38.211A.212.212,0,0,1,19.289,12.154Zm1.539-1.279a10.4,10.4,0,0,1-2.363-.139c-.08-.019-.191-.04-.33-.065-.849-.152-1.594-.42-1.692-.827a.149.149,0,0,1,.106-.187.161.161,0,0,1,.191.112c.06.254,1.092.437,1.481.506.143.028.264.047.348.07a10.435,10.435,0,0,0,2.259.224.153.153,0,1,1,0,.306Zm.053-1.237c-2.284,0-4.134-.424-4.134-.952s1.85-.952,4.134-.952,4.135.428,4.135.952-1.847.952-4.133.952Z" transform="translate(4965.933 505.502)" fill="#fff"/>
  </g>
</svg>
