<svg xmlns="http://www.w3.org/2000/svg" width="205" height="81.703" viewBox="0 0 205 81.703">
  <g id="グループ_41332" data-name="グループ 41332" transform="translate(-4767.5 1309)">
    <path id="パス_3709" data-name="パス 3709" d="M0,0H205l-9.354,10.281L205,19.7H0l7.643-9.422Z" transform="translate(4767.5 -1309)" fill="#d97f3f"/>
    <path id="パス_3751" data-name="パス 3751" d="M-27.78-6.168a8.462,8.462,0,0,1,1.368.084v-1.1a8.146,8.146,0,0,1-1.38.084h-3.5c.024-.432.036-.816.048-1.4a7.423,7.423,0,0,1,.084-1.3h-1.164a9.073,9.073,0,0,1,.084,1.524c0,.456-.012.78-.024,1.176H-35.5a8.028,8.028,0,0,1-1.392-.084v1.1a7.871,7.871,0,0,1,1.38-.084h3.156a6.392,6.392,0,0,1-2.964,5.136,8.815,8.815,0,0,1-1.824.948,2.777,2.777,0,0,1,.6.876A9.39,9.39,0,0,0-33.864-.9a7.439,7.439,0,0,0,2.232-4.008A9.378,9.378,0,0,0-28.38-.288,11.435,11.435,0,0,0-26.664.78a4.009,4.009,0,0,1,.636-.972A7.822,7.822,0,0,1-27.3-.828,8.116,8.116,0,0,1-29.388-2.58,9.571,9.571,0,0,1-31.2-6.168Zm8.856.264a9.074,9.074,0,0,0,1.4,3.852A7.551,7.551,0,0,1-20.58.132a2.46,2.46,0,0,1,.648.744A8.43,8.43,0,0,0-17-1.344,8.723,8.723,0,0,0-14.412.816a2.719,2.719,0,0,1,.528-.888A7.435,7.435,0,0,1-16.44-2.064a12.158,12.158,0,0,0,1.632-3.66c.084-.288.12-.372.18-.54l-.468-.5a4.6,4.6,0,0,1-.972.06h-3.288c.012-.36.012-.564.012-1.008V-8.6h3.888a10.2,10.2,0,0,1,1.188.06v-.972a8.479,8.479,0,0,1-1.224.072h-3.456c-.48,0-.912-.024-1.332-.06.036.372.048.756.048,1.188a23.149,23.149,0,0,1-.48,5.748A5.408,5.408,0,0,1-22.524.252a2.548,2.548,0,0,1,.744.624,6.912,6.912,0,0,0,1.752-2.688A12.719,12.719,0,0,0-19.38-5.9Zm3.228,0A9.7,9.7,0,0,1-16.98-2.8,7.688,7.688,0,0,1-18.1-5.9Zm-8.868,5.58a8.007,8.007,0,0,1-.072,1.2H-23.6a10.267,10.267,0,0,1-.06-1.116V-8.832h1.92A12.074,12.074,0,0,1-23.088-5.94,3.756,3.756,0,0,1-22-4.236a3.174,3.174,0,0,1,.12.792c0,.492-.132.636-.576.636a5.482,5.482,0,0,1-.876-.072,1.939,1.939,0,0,1,.2.888c.252.012.348.012.456.012a2.923,2.923,0,0,0,.96-.12c.444-.156.7-.612.7-1.308A3.608,3.608,0,0,0-21.24-4.62a4.936,4.936,0,0,0-.852-1.416A17.114,17.114,0,0,0-20.88-8.568a3,3,0,0,1,.2-.492l-.456-.624a4.171,4.171,0,0,1-.756.048H-23.82a6.52,6.52,0,0,1-.78-.036c.024.384.036.588.036.984ZM-6.7-5.808A9.885,9.885,0,0,0-5.364-1.944,7.444,7.444,0,0,1-7.74.1a2.839,2.839,0,0,1,.588.8,8.986,8.986,0,0,0,2.3-2.112A9.022,9.022,0,0,0-2.556.9,3.7,3.7,0,0,1-2.028.024,6.928,6.928,0,0,1-4.32-1.956a12.572,12.572,0,0,0,1.6-3.732c.06-.24.06-.24.144-.5l-.456-.468a5.858,5.858,0,0,1-1.1.06H-6.948c.012-.384.012-.564.012-.864V-8.64h3.324c.456,0,.948.024,1.308.06v-.96a9.823,9.823,0,0,1-1.332.072H-6.624a10.362,10.362,0,0,1-1.236-.06c.036.408.048.744.048,1.452a36.926,36.926,0,0,1-.264,5.352A7.123,7.123,0,0,1-9.084.4a2.008,2.008,0,0,1,.72.6,9.279,9.279,0,0,0,1.176-3.8c.1-.828.192-1.98.216-3Zm3.072,0A9.061,9.061,0,0,1-4.836-2.724,8.6,8.6,0,0,1-5.892-5.808Zm-6.432,2.4v2.94a9.37,9.37,0,0,1-.06,1.344h.984a10.007,10.007,0,0,1-.06-1.344v-2.76a9.8,9.8,0,0,1,.036-1.044,7.166,7.166,0,0,1-1.008.048h-1.308c.012-.552.024-.888.024-1.62H-9.4A7.135,7.135,0,0,1-8.3-5.8V-6.72a4.5,4.5,0,0,1-.984.06V-8.7a9.974,9.974,0,0,1,.06-1.152h-1A7.422,7.422,0,0,1-10.152-8.7v2.04h-1.3V-8.292a11.236,11.236,0,0,1,.06-1.3H-12.4a8.684,8.684,0,0,1,.072,1.26V-5.7c0,3.312-.24,4.956-.888,6.048a2.648,2.648,0,0,1,.792.624,10.53,10.53,0,0,0,.912-4.38ZM5.388-8.268a15.764,15.764,0,0,1-.408,4.02A7.335,7.335,0,0,1,2.352.012,3.177,3.177,0,0,1,3.06.756,8.451,8.451,0,0,0,4.236-.516,8.836,8.836,0,0,0,5.82-3.888a17.787,17.787,0,0,0,.492-4.38H8.388a55.128,55.128,0,0,1-.336,6.792C7.908-.408,7.824-.3,7.224-.3A12,12,0,0,1,5.592-.456a3.141,3.141,0,0,1,.216.972c.72.06.984.072,1.452.072A2.42,2.42,0,0,0,8.16.48a1.182,1.182,0,0,0,.7-.948A46.6,46.6,0,0,0,9.324-7.68a10.212,10.212,0,0,1,.06-1.464,8.627,8.627,0,0,1-1.164.06H4.836a10.369,10.369,0,0,1-1.38-.072v.96a9.884,9.884,0,0,1,1.38-.072ZM3.516-6.012a7.346,7.346,0,0,1-1.26,1.764,5.023,5.023,0,0,1-.612-.564,10.732,10.732,0,0,0,1.464-2.28,3.937,3.937,0,0,1,.24-.468l-.42-.516a5.75,5.75,0,0,1-.888.048H1.62v-1a4.2,4.2,0,0,1,.072-.984H.66a5.846,5.846,0,0,1,.072,1v.984H.24A6.236,6.236,0,0,1-.9-8.088v.924a8.8,8.8,0,0,1,1.128-.06H2.22A8.337,8.337,0,0,1,.456-4.7,8.876,8.876,0,0,1-1.38-3.24a2.96,2.96,0,0,1,.492.816A11.266,11.266,0,0,0,.732-3.792C.72-3.4.72-3.156.72-3.108V-.54A11.724,11.724,0,0,1,.648.888H1.656A10.121,10.121,0,0,1,1.6-.528V-3.42c0-.156,0-.24-.012-.456A11.651,11.651,0,0,0,3.264-2.52a3.667,3.667,0,0,1,.492-.708A7.551,7.551,0,0,1,2.844-3.8,14.87,14.87,0,0,0,4.188-5.5Zm17.04-2.352A7.3,7.3,0,0,1,19.2-6.78c-.372-.3-.576-.48-.936-.816a15.285,15.285,0,0,0,1.392-1.512l-.732-.5A6.933,6.933,0,0,1,17.76-8.136a3.3,3.3,0,0,1-.936-1.572,7,7,0,0,1-1.044.048H13.5a4.314,4.314,0,0,1-.888-.06v.888a4.931,4.931,0,0,1,.756-.06h2.016A7.29,7.29,0,0,1,14-7.26a17.65,17.65,0,0,0-1.728-1.488l-.636.564A13.461,13.461,0,0,1,13.356-6.72,9.93,9.93,0,0,1,10.74-5.208a2.289,2.289,0,0,1,.5.78,12.059,12.059,0,0,0,3-1.932v.816a6.256,6.256,0,0,1,.936-.048h2.376a6.205,6.205,0,0,1,.912.048V-6.3a10.888,10.888,0,0,0,2.976,1.824,2.968,2.968,0,0,1,.492-.828,9.615,9.615,0,0,1-2.112-1.032,11.852,11.852,0,0,0,1.212-1.236A3,3,0,0,1,21.3-7.86Zm-5.4,2.016a5.652,5.652,0,0,1-.888-.048,9.734,9.734,0,0,0,2.064-2.388,8.74,8.74,0,0,0,2.04,2.4,6.836,6.836,0,0,1-.8.036ZM12.216-.264a6.317,6.317,0,0,1-1.164-.072V.636a8.007,8.007,0,0,1,1.2-.072h8.256A8.413,8.413,0,0,1,21.72.636V-.336a6.537,6.537,0,0,1-1.176.072H18.276a13.286,13.286,0,0,0,.7-1.224l-.852-.348a8.577,8.577,0,0,1-.756,1.572H15.372a11.188,11.188,0,0,0-.732-1.524l-.84.3a6.043,6.043,0,0,1,.648,1.224ZM18.984-1.9a9.071,9.071,0,0,1,.912.036,5.84,5.84,0,0,1-.036-.828V-4.032a5.577,5.577,0,0,1,.036-.8,6.979,6.979,0,0,1-.948.048H13.764a7.725,7.725,0,0,1-.972-.048,5.93,5.93,0,0,1,.06.816v1.332a6.147,6.147,0,0,1-.048.828,8.747,8.747,0,0,1,.912-.036ZM13.728-4h5.256v1.308H13.728Zm15.324.984A6.818,6.818,0,0,1,26.088-.78a2.1,2.1,0,0,1,.576.66,8.05,8.05,0,0,0,3.312-2.892h1.056a5.969,5.969,0,0,1-1.224,1.764A7.878,7.878,0,0,1,27.672.24a2.222,2.222,0,0,1,.636.66,7.884,7.884,0,0,0,1-.66,12.015,12.015,0,0,0,1.5-1.416,7.041,7.041,0,0,0,1.1-1.836h.708a10.664,10.664,0,0,1-.4,2.676c-.1.192-.24.252-.648.252a9.573,9.573,0,0,1-1.356-.132A2.315,2.315,0,0,1,30.5.7c.468.036.768.048.96.048a3.065,3.065,0,0,0,.972-.108,1.07,1.07,0,0,0,.648-.768,11.576,11.576,0,0,0,.348-2.316,12.431,12.431,0,0,1,.12-1.332,10.1,10.1,0,0,1-1.188.048H28.44a7.465,7.465,0,0,0,.492-.78H32.6a10.2,10.2,0,0,1,1.2.048V-5.34a7.075,7.075,0,0,1-1.2.072H27.432a5.908,5.908,0,0,1-1.1-.072v.9a6.025,6.025,0,0,1,1.092-.072h.6a4.859,4.859,0,0,1-1.776,1.8l-.012-.756a7.825,7.825,0,0,1-.924.492V-6.192h.276a8.151,8.151,0,0,1,.936.048v-.912a6.256,6.256,0,0,1-.936.048h-.276V-8.616a9.822,9.822,0,0,1,.072-1.332H24.348a9.507,9.507,0,0,1,.072,1.32v1.62h-.444a6.454,6.454,0,0,1-1.032-.06v.936a6.6,6.6,0,0,1,1.008-.06h.468V-2.58a6.039,6.039,0,0,1-1.5.492l.228,1.02a3.422,3.422,0,0,1,.468-.228C24.24-1.56,25.164-2,25.74-2.3a2.6,2.6,0,0,1,.48.576,7.365,7.365,0,0,0,1.632-1.284Zm2.64-2.952c.48,0,.84.012,1.092.036a7.776,7.776,0,0,1-.048-1.092V-8.58a9.1,9.1,0,0,1,.048-1.128,8.788,8.788,0,0,1-1.248.06H28.284a8,8,0,0,1-1.176-.06,8.313,8.313,0,0,1,.048,1.056v1.62a9.519,9.519,0,0,1-.048,1.116,9.042,9.042,0,0,1,1.1-.048ZM28.02-8.916h3.852v.768H28.02Zm0,1.452h3.852v.8H28.02Zm8.436,4.92h-.9l-.3-6.024h1.5ZM35.172-.708a.8.8,0,0,1,.24-.66A.912.912,0,0,1,36-1.56a.9.9,0,0,1,.57.192.789.789,0,0,1,.246.66.827.827,0,0,1-.246.672.867.867,0,0,1-.57.2.877.877,0,0,1-.588-.2A.838.838,0,0,1,35.172-.708Z" transform="translate(4869.5 -1295)" fill="#fff"/>
    <path id="パス_3715" data-name="パス 3715" d="M0,0H205l-9.354,10.281L205,19.7H0l7.643-9.422Z" transform="translate(4767.5 -1247)" fill="#d97f3f"/>
    <path id="パス_3749" data-name="パス 3749" d="M-21.816-7.62a7.138,7.138,0,0,1,1.116.06v-.984a6.863,6.863,0,0,1-1.116.06h-5.952c.192-.384.288-.564.384-.792.156-.384.2-.468.288-.66l-1.032-.216A7.452,7.452,0,0,1-29.34-7.644,7.949,7.949,0,0,1-31.068-5.88a3.257,3.257,0,0,1,.636.78,11.288,11.288,0,0,0,2.16-2.52Zm-2.352,2.3A19.74,19.74,0,0,0-27.084-3.5C-28.644-2.352-29.256-1.56-29.256-.7c0,.552.348.924,1.044,1.1A12.636,12.636,0,0,0-25.392.6C-22.068.6-21.5.456-21.1-.54a5.984,5.984,0,0,0,.348-1.752,2.922,2.922,0,0,1-.948-.336c-.06,1.26-.192,1.728-.516,2.016-.324.264-.924.336-3,.336A12.829,12.829,0,0,1-27.7-.4c-.36-.084-.528-.252-.528-.528a.9.9,0,0,1,.156-.48A8.431,8.431,0,0,1-25.776-3.42a26.712,26.712,0,0,1,3.492-2.028l-.444-.732a5.115,5.115,0,0,1-1.068.06h-3.84a6.789,6.789,0,0,1-1.1-.06v.924a6.88,6.88,0,0,1,1.1-.06Zm7.752-3.252a23.774,23.774,0,0,0,5.208.78l.156-1.032a18.21,18.21,0,0,1-3.324-.3,8.875,8.875,0,0,1-1.692-.432ZM-17.6-4.644a16.893,16.893,0,0,1,4.716-.8c1.332,0,2.064.54,2.064,1.524a2.809,2.809,0,0,1-1.6,2.388,8.065,8.065,0,0,1-3.456.96A3.2,3.2,0,0,1-15.42.468,9.785,9.785,0,0,0-11.844-.648,3.892,3.892,0,0,0-9.72-3.984a2.235,2.235,0,0,0-1.068-1.968,4.093,4.093,0,0,0-2.1-.468,20.078,20.078,0,0,0-3.72.432,10.11,10.11,0,0,1-1.26.2Zm12.528-3.1c.156.012.192.012.408.036a21.409,21.409,0,0,0,2.532.156A11.632,11.632,0,0,0-.348-7.68l-.228.12-.312.168c-.48.276-.7.408-1.476.924l.732.588A17.787,17.787,0,0,1,1.44-7.752l-.06-.96a14.008,14.008,0,0,1-3.156.24A14.06,14.06,0,0,1-4.992-8.76ZM2.076-1.632a11.712,11.712,0,0,1-3.624.468A8.485,8.485,0,0,1-3.72-1.38c-.648-.216-.984-.588-.984-1.1,0-.552.36-1.092,1.128-1.728l-.732-.552a3.22,3.22,0,0,0-1.428,2.4A1.938,1.938,0,0,0-4.32-.5,8.505,8.505,0,0,0-1.476-.12,20.7,20.7,0,0,0,1.752-.4a3.668,3.668,0,0,1,.432-.06ZM1.752-6.888a8.794,8.794,0,0,1,1.236,1.86l.7-.4a8.954,8.954,0,0,0-1.26-1.824ZM.36-6.24a8.376,8.376,0,0,1,1.248,1.9l.708-.4A9.391,9.391,0,0,0,1.056-6.6Zm14.052,3.3V-.312c0,.192-.1.264-.372.264a5.883,5.883,0,0,1-1.272-.144A3.653,3.653,0,0,1,13,.792c.612.048.72.048.936.048C15,.84,15.288.624,15.288-.18V-8.22a10.166,10.166,0,0,1,.048-1.212,10,10,0,0,1-1.176.048H12.48a10.594,10.594,0,0,1-1.2-.048,12.776,12.776,0,0,1,.048,1.44A48.24,48.24,0,0,1,11.112-2.3,4.349,4.349,0,0,1,9.96.252a2.535,2.535,0,0,1,.72.672A6.4,6.4,0,0,0,12.06-2.94Zm0-2.856v2.04H12.12c.024-.6.048-1.38.06-2.04Zm0-.816h-2.22V-8.556h2.22ZM6.1-8.544h-.06a4.658,4.658,0,0,1-.984-.072v.9A6.489,6.489,0,0,1,6.1-7.764v4.98H5.82a4.688,4.688,0,0,1-.948-.06v.9A4.9,4.9,0,0,1,5.832-2h3.84c.468,0,.792.012,1.068.036v-.876a5.49,5.49,0,0,1-.888.06v-4.98a6.335,6.335,0,0,1,.948.048v-.9a4.653,4.653,0,0,1-.948.072V-8.76a7.025,7.025,0,0,1,.072-1.116H8.952a6.611,6.611,0,0,1,.06,1.1v.228H6.936V-8.76A7.232,7.232,0,0,1,7-9.876h-.96a9.387,9.387,0,0,1,.06,1.1Zm.84,5.76V-4.032H9.012v1.248Zm0-1.992V-5.9H9.012v1.128Zm0-1.872V-7.764H9.012v1.116Zm-.2,4.968A4.912,4.912,0,0,1,4.944.192,2.226,2.226,0,0,1,5.6.876,6.852,6.852,0,0,0,7.476-1.236ZM8.3-1.224A5.917,5.917,0,0,0,9.48.192a3.54,3.54,0,0,1,.648-.624A4.378,4.378,0,0,1,8.964-1.668ZM23.316-7.86v1.488H21.408a7.486,7.486,0,0,1-1.164-.072v.936a7.824,7.824,0,0,1,1.164-.06h3.648V-4.26H21.264A7.486,7.486,0,0,1,20.1-4.332v.96a8.348,8.348,0,0,1,1.2-.072h3.756v3.06c0,.2-.084.276-.336.276a2.222,2.222,0,0,0-.3.012h-.048A11.238,11.238,0,0,1,23.088-.24a3.414,3.414,0,0,1,.24.96c.42.036.828.048,1.092.048A3.448,3.448,0,0,0,25.6.612c.252-.12.384-.4.384-.84V-3.444h.444a8.007,8.007,0,0,1,1.2.072v-.96a8.3,8.3,0,0,1-1.212.072H25.98V-5.568h.432a10.66,10.66,0,0,1,1.212.06v-.936a8.479,8.479,0,0,1-1.224.072H24.216V-7.86h1.74a7.747,7.747,0,0,1,1.152.06v-.924a7.593,7.593,0,0,1-1.164.072H24.216v-.432a5.879,5.879,0,0,1,.06-.96H23.244a6.229,6.229,0,0,1,.072.96v.432H21.792a7.486,7.486,0,0,1-1.164-.072V-7.8a7.671,7.671,0,0,1,1.14-.06Zm-3.888-2.268a6.9,6.9,0,0,1-2.58,2.448,2.631,2.631,0,0,1,.54.756,10.681,10.681,0,0,0,2.388-2.148c.336-.4.336-.4.432-.5Zm4.08,8.976A14.007,14.007,0,0,0,21.7-3.144l-.708.516A9.42,9.42,0,0,1,22.752-.552Zm-5.232.66A10.648,10.648,0,0,1,18.2.912h1.02a10.352,10.352,0,0,1-.06-1.4V-5.424a10.025,10.025,0,0,0,.756-1.044,5.819,5.819,0,0,1,.324-.492l-.8-.5a8.342,8.342,0,0,1-2.712,3.216,3.122,3.122,0,0,1,.48.852,5.482,5.482,0,0,0,1.1-1.14c-.036.576-.036.888-.036,1.368Zm12.18-2.052h-.9l-.3-6.024h1.5ZM29.172-.708a.8.8,0,0,1,.24-.66A.911.911,0,0,1,30-1.56a.9.9,0,0,1,.57.192.789.789,0,0,1,.246.66.827.827,0,0,1-.246.672.867.867,0,0,1-.57.2.877.877,0,0,1-.588-.2A.838.838,0,0,1,29.172-.708Z" transform="translate(4869.5 -1233)" fill="#fff"/>
    <path id="パス_3750" data-name="パス 3750" d="M-53.544-3.552h-2.064V0h-3.528V-3.552h-7.32v-2.52l7.512-11.064h3.336V-6.36h2.064ZM-59.136-6.36v-2.9q0-.552.024-1.344t.06-1.476q.036-.684.06-.9h-.1q-.216.48-.468.936t-.564.936L-63.264-6.36Zm23.328.816v4.152c0,.528-.168.648-.888.648a24.267,24.267,0,0,1-3.528-.288,8.683,8.683,0,0,1,.7,2.688c1.224.072,2.016.1,2.784.1,1.584,0,2.256-.12,2.784-.48.6-.384.864-1.08.864-2.28V-16.56a18.1,18.1,0,0,1,.12-2.712,21.633,21.633,0,0,1-2.784.12H-45.768a24.215,24.215,0,0,1-2.808-.12,33.822,33.822,0,0,1,.12,3.624c0,6.24-.24,9.048-.96,11.28A9.087,9.087,0,0,1-51.984-.144a9.284,9.284,0,0,1,2.232,2.208A13.458,13.458,0,0,0-46.92-2.688a17.788,17.788,0,0,0,.7-2.856ZM-45.936-7.992c.144-1.944.192-2.472.192-3.216h9.936v3.216Zm.216-5.664v-3h9.912v3Zm24.456,5.544c0,.264,0,.432-.024.744H-24.72a14.5,14.5,0,0,1-2.52-.144v2.568a15.333,15.333,0,0,1,2.52-.144h3.072a5.455,5.455,0,0,1-1.7,2.664,9.924,9.924,0,0,1-4.44,2.136,8.76,8.76,0,0,1,1.7,2.352C-23.136.912-21.7-.048-20.5-1.632a8.44,8.44,0,0,0,1.488-3.456h3.1V-.432c0,1.68.768,2.088,4.032,2.088,4.608,0,5.04-.36,5.568-4.416A8.189,8.189,0,0,1-8.9-3.6a5.614,5.614,0,0,1-.432,2.4c-.264.336-.84.456-2.16.456a5.551,5.551,0,0,1-1.536-.12c-.36-.1-.384-.144-.384-.648V-5.088H-9.6a18.31,18.31,0,0,1,2.52.144V-7.512a14.334,14.334,0,0,1-2.52.144h-3.816V-9.96a19.347,19.347,0,0,1,2.3.1V-10.9a24.055,24.055,0,0,0,3.96,2.16,9.79,9.79,0,0,1,1.344-2.376,21.3,21.3,0,0,1-3.84-1.824,18.591,18.591,0,0,0,2.16-2.208c.48-.528.528-.6.672-.744l-2.208-1.248a14.151,14.151,0,0,1-2.5,2.9c-.5-.384-.768-.6-1.416-1.152a24.785,24.785,0,0,0,1.776-1.8c.552-.648.864-1.008.936-1.1l-2.208-1.224c-.072.12-.072.12-.192.312a4.209,4.209,0,0,1-.5.7,12.618,12.618,0,0,1-1.416,1.536,5.908,5.908,0,0,1-1.488-2.616,13.819,13.819,0,0,1-2.064.1h-4.44a13.714,13.714,0,0,1-1.992-.12v2.5l-.768-.624-1.968,1.464a16.441,16.441,0,0,1,3.36,3.144A20.586,20.586,0,0,1-28.488-10.8a9.08,9.08,0,0,1,1.416,2.208,23.659,23.659,0,0,0,4.224-2.328v1.056c.6-.048.864-.072,1.608-.1ZM-18.7-9.96h2.784v2.592H-18.72V-7.92Zm-.864-7.248a15.521,15.521,0,0,1-2.352,2.568,20.648,20.648,0,0,0-2.616-2.472,10.684,10.684,0,0,1,1.464-.1Zm-.912,4.992h-.648a20.039,20.039,0,0,0,4.056-4.344,20.1,20.1,0,0,0,4.08,4.344h-7.488ZM5.352-18.1h-6.1a20.722,20.722,0,0,1-2.9-.144V-15.7a22.935,22.935,0,0,1,2.832-.12H5.352v1.584H.24a15.322,15.322,0,0,1-2.424-.12v2.472a21.662,21.662,0,0,1,2.424-.1H13.368a21.058,21.058,0,0,1,2.448.1v-2.472a15.481,15.481,0,0,1-2.448.12H8.016v-1.584h6.552a27.691,27.691,0,0,1,2.808.12V-18.24a20.559,20.559,0,0,1-2.88.144H8.016v-.288a7.4,7.4,0,0,1,.144-1.848H5.232a9.88,9.88,0,0,1,.12,1.848ZM-.96-5.472V-8.256h15.5v2.784h2.808a9.4,9.4,0,0,1-.12-1.752V-8.976a10.869,10.869,0,0,1,.1-1.7c-.84.072-1.44.1-2.592.1H-1.128a24.615,24.615,0,0,1-2.568-.1A12.754,12.754,0,0,1-3.6-8.9v1.7a9.77,9.77,0,0,1-.12,1.728Zm3.48-2.04a4.576,4.576,0,0,1,.072.768,8.086,8.086,0,0,1-.384,2.256,5.261,5.261,0,0,1-3.1,2.976,10.347,10.347,0,0,1-3.288.888A9.425,9.425,0,0,1-2.448,2.04,14.932,14.932,0,0,0,.144,1.128,11.031,11.031,0,0,0,2.976-.84,8.9,8.9,0,0,0,5.3-6.336a5.472,5.472,0,0,1,.144-1.032Zm7.824,1.944a9.849,9.849,0,0,1,.12-1.872H7.584a13.524,13.524,0,0,1,.1,1.992v4.92c0,1.752.648,2.064,4.3,2.064,2.76,0,3.888-.168,4.44-.7.648-.6,1.008-1.9,1.2-4.32A8.272,8.272,0,0,1,15.048-4.3c-.12,2.016-.216,2.664-.432,2.976s-.744.408-2.424.408c-1.632,0-1.848-.1-1.848-.72ZM38.16-19.32a14.671,14.671,0,0,1-2.064.1H25.416a19.489,19.489,0,0,1-2.952-.144V-16.7a21.673,21.673,0,0,1,2.9-.12h9.36a25.985,25.985,0,0,1-3.816,2.472c-1.416-.888-1.944-1.224-3.528-2.088l-1.752,1.632a48.908,48.908,0,0,1,5.28,3.408H23.5a24.136,24.136,0,0,1-3.144-.144v2.712a25.122,25.122,0,0,1,3.024-.144h6.36v7.608c0,.528-.168.648-.96.648a23.236,23.236,0,0,1-3.5-.24,9.9,9.9,0,0,1,.7,2.664c.744.048,1.944.072,2.736.072,2.952,0,3.744-.528,3.744-2.5V-8.976h5.568a15.374,15.374,0,0,1-3.48,3.264,7.749,7.749,0,0,1,2.112,1.8,22.4,22.4,0,0,0,3.816-3.96c1.008-1.344,1.536-2.016,1.56-2.04L40.512-11.52a19.9,19.9,0,0,1-2.664.12h-4.3l.72-.72c-.576-.384-.6-.408-1.128-.744,1.248-.768,2.256-1.44,3.72-2.424a26.969,26.969,0,0,0,2.784-2.28ZM53.832-1.992a6.955,6.955,0,0,1-3.648-3.336c.36-1.128.5-1.68.624-2.16.216-.984.216-1.008.336-1.416l-2.664-.5A14.877,14.877,0,0,1,48-6.816,14.21,14.21,0,0,1,43.872-.024a6.532,6.532,0,0,1,2.064,1.968,17,17,0,0,0,3.288-4.7c1.968,2.9,5.112,4.128,10.728,4.128,1.9,0,3.144-.024,5.112-.072a9.335,9.335,0,0,1,.672-2.736c-2.448.216-4.08.288-5.472.288a28.056,28.056,0,0,1-3.912-.24V-5.52h4.536a16.2,16.2,0,0,1,2.352.12V-7.968a12.31,12.31,0,0,1-2.352.144H56.352V-10.9H59.5a17.206,17.206,0,0,1,2.472.12V-13.32a16.8,16.8,0,0,1-2.472.12H50.3a16.084,16.084,0,0,1-2.424-.12v2.544A17.085,17.085,0,0,1,50.3-10.9h3.528Zm-.408-15.72H47.16c-.96,0-1.776-.024-2.64-.1.048.552.1,1.152.1,1.776v1.848a10.607,10.607,0,0,1-.12,1.9H47.16v-3h15.5v3h2.592a15.5,15.5,0,0,1-.1-1.872v-1.872a13.205,13.205,0,0,1,.1-1.776c-.888.072-1.7.1-2.664.1h-6.48v-.912a7.287,7.287,0,0,1,.12-1.512H53.28a7.767,7.767,0,0,1,.144,1.536Z" transform="translate(4869.5 -1259)" fill="#d97f3f"/>
  </g>
</svg>
