<svg xmlns="http://www.w3.org/2000/svg" width="205" height="81.703" viewBox="0 0 205 81.703">
  <g id="グループ_41432" data-name="グループ 41432" transform="translate(-5217.5 1248.297)">
    <path id="パス_3709" data-name="パス 3709" d="M0,0H205l-9.354,10.281L205,19.7H0l7.643-9.422Z" transform="translate(5217.5 -1248.297)" fill="#d97f3f"/>
    <path id="パス_3846" data-name="パス 3846" d="M-41.88-1a16.969,16.969,0,0,0-1.32-1.32,9.867,9.867,0,0,0,.936-2.748c.1-.528.24-1.476.276-1.98.036-.42.036-.42.06-.6A8.4,8.4,0,0,1-43-7.6h-1.056c.1-.432.216-1.128.288-1.572.06-.36.1-.588.132-.744L-44.664-10c0,.06.012.12.012.144A13.381,13.381,0,0,1-44.964-7.6h-.408a6.628,6.628,0,0,1-1.056-.072v.948a7.564,7.564,0,0,1,.948-.06h.336a19.45,19.45,0,0,1-1.1,3.312A14.745,14.745,0,0,1-44.34-2.112,6.716,6.716,0,0,1-46.632.048a3.567,3.567,0,0,1,.624.78A8.011,8.011,0,0,0-43.668-1.5,13.707,13.707,0,0,1-42.48-.2ZM-42.888-6.78a10.837,10.837,0,0,1-1,3.888c-.384-.3-.624-.468-1.272-.912a25.26,25.26,0,0,0,.816-2.568,2.972,2.972,0,0,1,.108-.408ZM-39.276-4.9H-40.8a4.949,4.949,0,0,1-1.1-.072v1a7.238,7.238,0,0,1,1.116-.072h1.512v3.72c0,.2-.084.252-.456.252A10.758,10.758,0,0,1-41.268-.24a3.309,3.309,0,0,1,.216.972c.54.048,1.092.084,1.4.084,1.044,0,1.3-.2,1.3-1.068V-4.044h1.836a5.778,5.778,0,0,1,1.1.072v-1a5.632,5.632,0,0,1-1.1.072h-1.836V-5.964A11.894,11.894,0,0,0-36.588-7.8a9.127,9.127,0,0,1,.708-.9l-.5-.636a4.327,4.327,0,0,1-.96.06h-3a8.5,8.5,0,0,1-1.248-.072v1a11.487,11.487,0,0,1,1.212-.06h3.192A8.452,8.452,0,0,1-38.94-6.528h-.42a7.231,7.231,0,0,1,.084,1.152Zm11.9-3.84v4.524h-1.656a6.848,6.848,0,0,1-1.128-.06V-3.3a7.518,7.518,0,0,1,1.128-.072h1.656V-.516A9.287,9.287,0,0,1-27.456.852h1.08a7.292,7.292,0,0,1-.1-1.368V-3.372h1.848A7.518,7.518,0,0,1-23.5-3.3v-.972a6.7,6.7,0,0,1-1.1.06h-1.872V-8.736h1.608a8.031,8.031,0,0,1,1.116.06v-.96a7.468,7.468,0,0,1-1.14.072h-3.936a7.752,7.752,0,0,1-1.152-.072v.96a8,8,0,0,1,1.128-.06Zm-6.684-.048a7.132,7.132,0,0,1,.936-.048h1.632a7.132,7.132,0,0,1,.936.048V-9.66a5.08,5.08,0,0,1-.936.06H-33.12a5,5,0,0,1-.936-.06Zm-.48,1.7a7.525,7.525,0,0,1,.96-.048h2.34a5.482,5.482,0,0,1,.876.048v-.888a6.415,6.415,0,0,1-.96.048h-2.256a5.128,5.128,0,0,1-.96-.06ZM-34-5.388a5.364,5.364,0,0,1,.84-.048h1.824a5.6,5.6,0,0,1,.828.048V-6.24a6.88,6.88,0,0,1-.828.036h-1.824A7.545,7.545,0,0,1-34-6.24Zm0,1.668a5.364,5.364,0,0,1,.84-.048h1.812a5.563,5.563,0,0,1,.84.048v-.864a4.828,4.828,0,0,1-.828.048h-1.824A4.987,4.987,0,0,1-34-4.584ZM-33.18.924V.3h1.8V.768h.876a7.263,7.263,0,0,1-.06-1.056v-1.68a8.435,8.435,0,0,1,.036-.912,4.965,4.965,0,0,1-.864.036h-1.716a7.9,7.9,0,0,1-.96-.048,6.188,6.188,0,0,1,.06.984v1.68A7.982,7.982,0,0,1-34.08.924Zm0-3.024h1.8V-.444h-1.8Zm3.288-5.676A11.99,11.99,0,0,1-28.848-4.74l.8-.312a15.792,15.792,0,0,0-1.068-3.06Zm5.268-.336A11.493,11.493,0,0,1-25.9-5.028l.756.324a17.856,17.856,0,0,0,1.356-3.06Zm4.14,6.54c0-.2-.012-.252-.012-.516-.012-.324-.024-.9-.024-1.14A22.235,22.235,0,0,1-20.244-6.9a14.589,14.589,0,0,1,.6-2.388l-1.14-.156a7.363,7.363,0,0,1-.168,1.02,20.6,20.6,0,0,0-.528,4.752,18.122,18.122,0,0,0,.312,3.42c.036.24.048.312.072.5L-20.052.18a1.792,1.792,0,0,1-.012-.228,9.745,9.745,0,0,1,1.008-3.384l-.72-.336a10.414,10.414,0,0,0-.7,2.2Zm2.268-5.484c.1.012.12.012.192.024a1.482,1.482,0,0,0,.216.024,14.435,14.435,0,0,0,1.608.084,20.733,20.733,0,0,0,2.556-.156q.774-.108.828-.108l-.06-1.02a13.29,13.29,0,0,1-3.288.324,8.291,8.291,0,0,1-2.028-.18Zm.864,2.244A3.506,3.506,0,0,0-18.42-2.544a1.935,1.935,0,0,0,.36,1.152c.5.648,1.4.948,2.82.948a13.732,13.732,0,0,0,2.472-.228c.252-.048.276-.048.432-.072l-.108-1.092a8.318,8.318,0,0,1-2.8.42c-1.452,0-2.2-.408-2.2-1.224a2.722,2.722,0,0,1,.9-1.764Zm7.512-1.02a5.75,5.75,0,0,1,.9-.3,18.668,18.668,0,0,1,4.872-.852c1.6,0,2.568.792,2.568,2.1,0,1.332-.936,2.4-2.616,2.976A10.983,10.983,0,0,1-7.4-1.392a3.29,3.29,0,0,1,.432,1.08A10.524,10.524,0,0,0-2.928-1.26,4.027,4.027,0,0,0-.384-4.884c0-1.92-1.428-3.108-3.72-3.108a15.9,15.9,0,0,0-3.444.432,14.272,14.272,0,0,1-2.556.516ZM2.724-6.984a5.607,5.607,0,0,1,.768-.024,27.465,27.465,0,0,0,3.24-.2c.348.756.348.756.612,1.248a25.2,25.2,0,0,1-3.672.276A7.227,7.227,0,0,1,2.64-5.736l.024.972a5.573,5.573,0,0,1,.876-.048A28.2,28.2,0,0,0,7.752-5.16a10.222,10.222,0,0,0,1.176,1.7A7.3,7.3,0,0,0,6.612-3.78,5.307,5.307,0,0,0,3.876-3.2a1.82,1.82,0,0,0-.984,1.548A1.762,1.762,0,0,0,3.8-.12a4.939,4.939,0,0,0,2.6.528A10.921,10.921,0,0,0,9.48-.024c.54-.156.54-.156.744-.2l-.192-1.08a8.456,8.456,0,0,1-3.6.792c-1.584,0-2.46-.408-2.46-1.152,0-.78,1.056-1.272,2.748-1.272a5.835,5.835,0,0,1,2.868.54l.8-.576A13.192,13.192,0,0,1,8.688-5.3c.516-.108.732-.144.912-.192,1.308-.324,1.308-.324,1.572-.372l-.108-.972a13.4,13.4,0,0,1-2.76.732c-.18-.312-.42-.792-.624-1.236.612-.1,2.076-.408,2.988-.648l-.084-.936a15.762,15.762,0,0,1-3.216.78,9.02,9.02,0,0,1-.588-1.62L5.712-9.6c.1.168.432.936.684,1.572a21.969,21.969,0,0,1-2.736.156c-.444,0-.672-.012-.972-.036ZM18.5-.36v.3A5.221,5.221,0,0,1,18.432.96h1.032a8.409,8.409,0,0,1-.1-1.32l-.024-2.088h3.528c-.12,1.656-.156,1.764-.768,1.764A9.586,9.586,0,0,1,20.64-.816a3.8,3.8,0,0,1,.228.864,11.9,11.9,0,0,0,1.26.06c.864,0,1.176-.156,1.344-.66a10.826,10.826,0,0,0,.312-2.232,4.1,4.1,0,0,1,.06-.468,7.082,7.082,0,0,1-1,.048H19.332L19.32-4.32h2.8c.48,0,.8.012,1.116.036a5.172,5.172,0,0,1-.048-.84V-6.192a4.559,4.559,0,0,1,.048-.78,8.528,8.528,0,0,1-1.116.048h-6.5a6.487,6.487,0,0,1-1.14-.06v.876a7.87,7.87,0,0,1,1.14-.06H18.42l.012,1.1H15.96a7.507,7.507,0,0,1-1.128-.048,7.866,7.866,0,0,1-.18,1.2,9.159,9.159,0,0,1-.672,2l.984.072c.108-.288.144-.384.216-.612h2.664A8.017,8.017,0,0,1,15.78-.96a10.965,10.965,0,0,1-2.34.888,3.256,3.256,0,0,1,.564.8A11.122,11.122,0,0,0,16.4-.36,9.3,9.3,0,0,0,18.48-2Zm.8-4.7-.012-1.1h3.012v1.1Zm-.864.744L18.468-3.2H15.4c.12-.456.18-.72.252-1.116ZM16.176-8.34a6.973,6.973,0,0,1,.636,1.272l.8-.288a9.256,9.256,0,0,0-.588-.984H17.8a8.47,8.47,0,0,1,1.044.048v-.9a7.008,7.008,0,0,1-1.188.072H15.9c.18-.3.24-.408.432-.756l-.924-.24a4.851,4.851,0,0,1-.684,1.3A5.5,5.5,0,0,1,13.44-7.512a2.7,2.7,0,0,1,.6.66A8.107,8.107,0,0,0,15.4-8.34Zm4.752.012a7.572,7.572,0,0,1,.708,1.26l.828-.3c-.192-.336-.408-.648-.624-.96h1.212a9.734,9.734,0,0,1,1.26.06V-9.18a7.879,7.879,0,0,1-1.3.072h-2.6c.216-.444.252-.492.372-.78L19.9-10.1A5.149,5.149,0,0,1,18.276-7.6a2.158,2.158,0,0,1,.636.552,6.089,6.089,0,0,0,1.056-1.284Zm4.584,4.68a10.425,10.425,0,0,1,.1-1.464,5.832,5.832,0,0,1,.36-1.362,3.735,3.735,0,0,1,.714-1.14,3.116,3.116,0,0,1,1.158-.78,4.558,4.558,0,0,1,1.7-.282q.252,0,.57.018a2.369,2.369,0,0,1,.522.078v1.068a2.947,2.947,0,0,0-.5-.108,4.037,4.037,0,0,0-.534-.036,3.239,3.239,0,0,0-1.368.252,2.1,2.1,0,0,0-.852.7,3.028,3.028,0,0,0-.456,1.032,6.829,6.829,0,0,0-.18,1.26h.072a2.239,2.239,0,0,1,.744-.714A2.337,2.337,0,0,1,28.8-5.424a2.4,2.4,0,0,1,1.794.69,2.665,2.665,0,0,1,.678,1.95,2.936,2.936,0,0,1-.75,2.124,2.689,2.689,0,0,1-2.034.78,2.865,2.865,0,0,1-1.506-.408A2.8,2.8,0,0,1,25.908-1.53,4.942,4.942,0,0,1,25.512-3.648ZM28.476-.936a1.478,1.478,0,0,0,1.116-.45,1.957,1.957,0,0,0,.432-1.4,1.79,1.79,0,0,0-.378-1.2,1.407,1.407,0,0,0-1.134-.444,1.806,1.806,0,0,0-.9.216,1.669,1.669,0,0,0-.6.552,1.252,1.252,0,0,0-.216.684,2.523,2.523,0,0,0,.192.954,1.926,1.926,0,0,0,.564.78A1.406,1.406,0,0,0,28.476-.936Zm10.56-2.22v1H37.38a12.269,12.269,0,0,1-1.392-.06v.936A11.11,11.11,0,0,1,37.4-1.356h1.632V-.348A9.08,9.08,0,0,1,38.964,1h1.008A8.893,8.893,0,0,1,39.9-.336v-1.02h1.992a12,12,0,0,1,1.38.072v-.948A9.122,9.122,0,0,1,41.9-2.16h-2v-1h1.7a8.826,8.826,0,0,1,1.092.048,9.042,9.042,0,0,1-.048-1.1V-6.624A9.01,9.01,0,0,1,42.7-7.74a7.844,7.844,0,0,1-1.056.048A16.226,16.226,0,0,0,42.672-9.72l-.9-.324A9.289,9.289,0,0,1,40.7-7.692H37.476A7.509,7.509,0,0,1,36.42-7.74a10.192,10.192,0,0,1,.036,1.068v2.508a10.233,10.233,0,0,1-.036,1.056,9.135,9.135,0,0,1,1.116-.048Zm0-3.792v1.116H37.272V-6.948Zm.864,0h1.92v1.116H39.9Zm-.864,1.836v1.2H37.272v-1.2Zm.864,0h1.92v1.2H39.9Zm-6.42.924c.084-.672.144-1.152.192-1.824H35a7.612,7.612,0,0,1,.8.024,8.714,8.714,0,0,1-.036-.948V-8.592c0-.324.012-.588.036-.852a7.192,7.192,0,0,1-.9.036H33.576a7.407,7.407,0,0,1-1.128-.072v.948a8.8,8.8,0,0,1,1.08-.06h1.38v1.8H33.756a6.757,6.757,0,0,1-.948-.048,2.64,2.64,0,0,1,.012.276,22.127,22.127,0,0,1-.348,3.192c.288-.024.444-.024.888-.024H34.8a16.882,16.882,0,0,1-.276,2.376c-.144.708-.264.84-.7.84A10.242,10.242,0,0,1,32.484-.3a2.961,2.961,0,0,1,.156.948c.48.036.8.048,1.14.048.9,0,1.188-.168,1.428-.828a12.363,12.363,0,0,0,.468-3.048,9.708,9.708,0,0,1,.084-1.056,7.275,7.275,0,0,1-1.008.048Zm4.56-3.9A10.68,10.68,0,0,0,37.128-9.9l-.828.3a7.413,7.413,0,0,1,.912,1.824Zm2.124-.132a11.335,11.335,0,0,0-.8-1.908l-.828.264a8.265,8.265,0,0,1,.816,1.932Zm5.724,5.676h-.9l-.3-6.024h1.5ZM44.6-.708a.8.8,0,0,1,.24-.66.912.912,0,0,1,.588-.192.9.9,0,0,1,.57.192.789.789,0,0,1,.246.66A.827.827,0,0,1,46-.036a.867.867,0,0,1-.57.2.877.877,0,0,1-.588-.2A.838.838,0,0,1,44.6-.708Z" transform="translate(5319.5 -1234.297)" fill="#fff"/>
    <path id="パス_3715" data-name="パス 3715" d="M0,0H205l-9.354,10.281L205,19.7H0l7.643-9.422Z" transform="translate(5217.5 -1186.297)" fill="#d97f3f"/>
    <path id="パス_3847" data-name="パス 3847" d="M-68.754-8.088h-3.528a9.192,9.192,0,0,1-1.344-.072v.816a10.007,10.007,0,0,1,1.344-.06h3.528v.66H-71.3a7.691,7.691,0,0,1-1.188-.06v.768A10.1,10.1,0,0,1-71.3-6.084h2.544v.612h-2.76a8.123,8.123,0,0,1-1.224-.06v.792a8.32,8.32,0,0,1,1.224-.06h2.76v.636h-3.528a9.382,9.382,0,0,1-1.356-.072v.852a11.143,11.143,0,0,1,1.356-.072h7.968a11.426,11.426,0,0,1,1.356.072v-.852a9.268,9.268,0,0,1-1.356.072h-3.6V-4.8h2.88a8.42,8.42,0,0,1,1.224.06v-.792a8.123,8.123,0,0,1-1.224.06h-2.88v-.612h2.448a12.415,12.415,0,0,1,1.3.048A8.556,8.556,0,0,1-64.206-7V-7.4a8.257,8.257,0,0,1,1.272.06v-.8a7.582,7.582,0,0,1-1.2.06h-.072v-.288A9.338,9.338,0,0,1-64.17-9.42a12.454,12.454,0,0,1-1.332.048h-2.412a2.978,2.978,0,0,1,.084-.756h-1a4.37,4.37,0,0,1,.072.756h-2.46a8.5,8.5,0,0,1-1.248-.072v.816a7.824,7.824,0,0,1,1.164-.06h2.544Zm.84,0v-.6h2.868v.6Zm0,.684h2.868v.66h-2.868Zm-4.2,7.092a6.513,6.513,0,0,1-.072,1.2h.948V.444h5.928V.888h.948a5.849,5.849,0,0,1-.072-1.2V-1.764a8.124,8.124,0,0,1,.048-1.152,10.771,10.771,0,0,1-1.368.036h-5.04a11.125,11.125,0,0,1-1.368-.036,8.255,8.255,0,0,1,.048,1.14Zm.876-1.9h5.928v.624h-5.928Zm0,1.284h5.928V-.24h-5.928ZM-56.13-3.552h-1.632A7.9,7.9,0,0,1-58.794-3.6a8.683,8.683,0,0,1,.048,1.056v1.98A10.6,10.6,0,0,1-58.818.888h.972V.324h4.968V.888h.972A9.273,9.273,0,0,1-51.978-.6V-2.472A10.15,10.15,0,0,1-51.93-3.6a7.9,7.9,0,0,1-1.032.048h-2.28v-1.7h2.7a7.658,7.658,0,0,1,1.176.072v-.972a7.143,7.143,0,0,1-1.212.072h-2.664v-.432a7.312,7.312,0,0,1,.048-1.116h-1a5.622,5.622,0,0,1,.06,1.1Zm-1.716.828h4.968V-.516h-4.968Zm1.32-6.084H-59.37c-.492,0-.912-.024-1.308-.06A15.6,15.6,0,0,1-60.63-7.3c0,4.32-.264,5.94-1.212,7.38a3.187,3.187,0,0,1,.78.7c1.092-1.812,1.344-3.492,1.356-8.76h7.344a9.863,9.863,0,0,1,1.368.06v-.96a9.31,9.31,0,0,1-1.38.072H-55.6V-9.3a3.517,3.517,0,0,1,.06-.8H-56.6a3.681,3.681,0,0,1,.072.8ZM-44.31-5.676A1.122,1.122,0,0,0-45.426-4.56a1.119,1.119,0,0,0,1.116,1.1,1.119,1.119,0,0,0,1.1-1.116A1.1,1.1,0,0,0-44.31-5.676Zm17.172-2.892L-29.394,0h-1.38l-1.512-5.292q-.084-.288-.174-.648t-.162-.678q-.072-.318-.1-.45-.012.132-.072.444t-.144.684q-.084.372-.18.684L-34.6,0h-1.38l-2.244-8.568h1.332l1.26,5.064q.12.528.234,1.092t.174,1.008q.06-.456.186-1.044t.258-1.056l1.428-5.064h1.3l1.476,5.088q.144.48.264,1.068t.18,1.008a10.145,10.145,0,0,1,.168-1.008q.12-.564.252-1.092l1.26-5.064Zm3.408,1.98a2.6,2.6,0,0,1,2,.786,3.019,3.019,0,0,1,.732,2.142v.7h-4.344a2.221,2.221,0,0,0,.522,1.524,1.829,1.829,0,0,0,1.4.528,4.883,4.883,0,0,0,1.11-.114,5.715,5.715,0,0,0,1-.342V-.312a4.522,4.522,0,0,1-.984.33,5.873,5.873,0,0,1-1.176.1,3.557,3.557,0,0,1-1.656-.372,2.643,2.643,0,0,1-1.122-1.1,3.751,3.751,0,0,1-.4-1.824,4.216,4.216,0,0,1,.366-1.848,2.7,2.7,0,0,1,1.02-1.158A2.863,2.863,0,0,1-23.73-6.588Zm0,.984a1.43,1.43,0,0,0-1.1.444,2.057,2.057,0,0,0-.486,1.26h3.048a2.059,2.059,0,0,0-.366-1.23A1.281,1.281,0,0,0-23.73-5.6Zm5.592-3.516v2.2q0,.384-.018.75t-.042.558h.06a2.276,2.276,0,0,1,.744-.684,2.364,2.364,0,0,1,1.212-.276,2.345,2.345,0,0,1,1.878.84,3.769,3.769,0,0,1,.714,2.5,3.793,3.793,0,0,1-.72,2.514A2.355,2.355,0,0,1-16.194.12,2.372,2.372,0,0,1-17.4-.15a2.425,2.425,0,0,1-.738-.642h-.1l-.24.792h-.936V-9.12Zm1.656,3.576A1.422,1.422,0,0,0-17.766-5a3.151,3.151,0,0,0-.372,1.674v.1a3.375,3.375,0,0,0,.354,1.71,1.414,1.414,0,0,0,1.326.594,1.3,1.3,0,0,0,1.17-.6,3.177,3.177,0,0,0,.39-1.728Q-14.9-5.544-16.482-5.544Zm6.108,3.972c0-.2-.012-.252-.012-.516-.012-.324-.024-.9-.024-1.14A22.235,22.235,0,0,1-10.134-6.9a14.589,14.589,0,0,1,.6-2.388l-1.14-.156a7.363,7.363,0,0,1-.168,1.02,20.6,20.6,0,0,0-.528,4.752,18.123,18.123,0,0,0,.312,3.42c.036.24.048.312.072.5L-9.942.18a1.792,1.792,0,0,1-.012-.228A9.745,9.745,0,0,1-8.946-3.432l-.72-.336a10.414,10.414,0,0,0-.7,2.2Zm2.268-5.484c.1.012.12.012.192.024a1.481,1.481,0,0,0,.216.024,14.435,14.435,0,0,0,1.608.084A20.733,20.733,0,0,0-3.534-7.08q.774-.108.828-.108l-.06-1.02a13.29,13.29,0,0,1-3.288.324,8.291,8.291,0,0,1-2.028-.18Zm.864,2.244A3.506,3.506,0,0,0-8.31-2.544a1.935,1.935,0,0,0,.36,1.152c.5.648,1.4.948,2.82.948A13.732,13.732,0,0,0-2.658-.672c.252-.048.276-.048.432-.072l-.108-1.092a8.318,8.318,0,0,1-2.8.42c-1.452,0-2.2-.408-2.2-1.224a2.722,2.722,0,0,1,.9-1.764ZM.2-6.924a33.707,33.707,0,0,1,3.948-.384,26,26,0,0,0,2.64-.264C4.758-6.66,3.57-5.088,3.57-3.348A2.985,2.985,0,0,0,5-.756,6.409,6.409,0,0,0,7.65.132c.192.036.24.036.384.072L8.2-.96a6.017,6.017,0,0,1-1.8-.3A2.229,2.229,0,0,1,4.6-3.444,3.819,3.819,0,0,1,6.5-6.492a5.7,5.7,0,0,1,3.06-1.032H9.7L9.618-8.592a8.714,8.714,0,0,1-1.4.12c-1.98.1-5.268.276-6.948.4-.372.024-.528.036-.7.036-.072,0-.18,0-.432-.012ZM16.23-1a16.969,16.969,0,0,0-1.32-1.32,9.867,9.867,0,0,0,.936-2.748c.1-.528.24-1.476.276-1.98.036-.42.036-.42.06-.6a8.4,8.4,0,0,1-1.068.048H14.058c.1-.432.216-1.128.288-1.572.06-.36.1-.588.132-.744L13.446-10c0,.06.012.12.012.144A13.382,13.382,0,0,1,13.146-7.6h-.408a6.628,6.628,0,0,1-1.056-.072v.948a7.564,7.564,0,0,1,.948-.06h.336a19.451,19.451,0,0,1-1.1,3.312A14.745,14.745,0,0,1,13.77-2.112,6.716,6.716,0,0,1,11.478.048a3.567,3.567,0,0,1,.624.78A8.011,8.011,0,0,0,14.442-1.5,13.707,13.707,0,0,1,15.63-.2ZM15.222-6.78a10.837,10.837,0,0,1-1,3.888c-.384-.3-.624-.468-1.272-.912a25.26,25.26,0,0,0,.816-2.568,2.972,2.972,0,0,1,.108-.408ZM18.834-4.9H17.31a4.949,4.949,0,0,1-1.1-.072v1a7.238,7.238,0,0,1,1.116-.072h1.512v3.72c0,.2-.084.252-.456.252A10.758,10.758,0,0,1,16.842-.24a3.309,3.309,0,0,1,.216.972c.54.048,1.092.084,1.4.084,1.044,0,1.3-.2,1.3-1.068V-4.044h1.836a5.778,5.778,0,0,1,1.1.072v-1a5.632,5.632,0,0,1-1.1.072H19.758V-5.964A11.894,11.894,0,0,0,21.522-7.8a9.126,9.126,0,0,1,.708-.9l-.5-.636a4.327,4.327,0,0,1-.96.06h-3a8.5,8.5,0,0,1-1.248-.072v1a11.487,11.487,0,0,1,1.212-.06h3.192A8.452,8.452,0,0,1,19.17-6.528h-.42a7.231,7.231,0,0,1,.084,1.152Zm11.9-3.84v4.524H29.082a6.848,6.848,0,0,1-1.128-.06V-3.3a7.518,7.518,0,0,1,1.128-.072h1.656V-.516A9.287,9.287,0,0,1,30.654.852h1.08a7.292,7.292,0,0,1-.1-1.368V-3.372h1.848a7.518,7.518,0,0,1,1.128.072v-.972a6.7,6.7,0,0,1-1.1.06H31.638V-8.736h1.608a8.031,8.031,0,0,1,1.116.06v-.96a7.468,7.468,0,0,1-1.14.072H29.286a7.752,7.752,0,0,1-1.152-.072v.96a8,8,0,0,1,1.128-.06Zm-6.684-.048a7.132,7.132,0,0,1,.936-.048h1.632a7.132,7.132,0,0,1,.936.048V-9.66a5.08,5.08,0,0,1-.936.06H24.99a5,5,0,0,1-.936-.06Zm-.48,1.7a7.525,7.525,0,0,1,.96-.048h2.34a5.482,5.482,0,0,1,.876.048v-.888a6.415,6.415,0,0,1-.96.048H24.534a5.128,5.128,0,0,1-.96-.06Zm.54,1.692a5.364,5.364,0,0,1,.84-.048h1.824a5.6,5.6,0,0,1,.828.048V-6.24a6.88,6.88,0,0,1-.828.036H24.954a7.545,7.545,0,0,1-.84-.036Zm0,1.668a5.364,5.364,0,0,1,.84-.048h1.812a5.563,5.563,0,0,1,.84.048v-.864a4.828,4.828,0,0,1-.828.048H24.954a4.987,4.987,0,0,1-.84-.048ZM24.93.924V.3h1.8V.768h.876a7.263,7.263,0,0,1-.06-1.056v-1.68a8.435,8.435,0,0,1,.036-.912,4.965,4.965,0,0,1-.864.036H25a7.9,7.9,0,0,1-.96-.048,6.188,6.188,0,0,1,.06.984v1.68A7.982,7.982,0,0,1,24.03.924Zm0-3.024h1.8V-.444h-1.8Zm3.288-5.676A11.99,11.99,0,0,1,29.262-4.74l.8-.312A15.792,15.792,0,0,0,29-8.112Zm5.268-.336a11.493,11.493,0,0,1-1.272,3.084l.756.324a17.856,17.856,0,0,0,1.356-3.06Zm8.292,2.364A9.666,9.666,0,0,0,43.218-1.9,7.643,7.643,0,0,1,40.542.192a2.374,2.374,0,0,1,.648.756,9.767,9.767,0,0,0,2.556-2.136A8.682,8.682,0,0,0,46.146.84a3.323,3.323,0,0,1,.576-.852,7.351,7.351,0,0,1-2.4-1.9A12.85,12.85,0,0,0,45.87-5.136a7.031,7.031,0,0,1,.336-.948l-.468-.528a4.732,4.732,0,0,1-.984.06H41.43v-2h3.864a10.426,10.426,0,0,1,1.2.06V-9.48a8.479,8.479,0,0,1-1.224.072H41.79a11.059,11.059,0,0,1-1.3-.06c.036.42.048.756.048,1.452,0,5.052-.288,6.864-1.308,8.268a2.93,2.93,0,0,1,.72.672c1-1.572,1.344-3.18,1.452-6.672Zm3.336,0A9.52,9.52,0,0,1,43.782-2.64a8.227,8.227,0,0,1-1.188-3.108Zm-6.48,3.684c.42,0,.612.012.948.036-.024-.288-.036-.54-.036-1.056v-5.46a7.008,7.008,0,0,1,.036-1.008,7.686,7.686,0,0,1-1.032.036H37.134c-.492,0-.732-.012-1.068-.036a8.646,8.646,0,0,1,.048,1.068v5.316c0,.432-.012.78-.036,1.14A5.476,5.476,0,0,1,37-2.064Zm-1.68-6.66h1.764v1.44H36.954Zm0,2.184h1.764v1.452H36.954Zm0,2.2h1.764v1.5H36.954Zm-.264,2.58A4.871,4.871,0,0,1,35.442.264a2.063,2.063,0,0,1,.732.588,6.073,6.073,0,0,0,1.272-2.244Zm1.212.336A10.941,10.941,0,0,0,38.766.288a3.278,3.278,0,0,1,.7-.516,7.3,7.3,0,0,1-.828-1.548ZM52.494-8.772h-3.24a9.013,9.013,0,0,1-1.368-.072v.96a8.778,8.778,0,0,1,1.356-.072h3.252v1.1H49.9a7.809,7.809,0,0,1-1.248-.06V-6A8.788,8.788,0,0,1,49.9-6.06h6.24A8.667,8.667,0,0,1,57.4-6v-.912a8.079,8.079,0,0,1-1.26.06H53.394v-1.1H56.91a9.946,9.946,0,0,1,1.332.072v-.96a8.969,8.969,0,0,1-1.344.072h-3.5v-.192a5.665,5.665,0,0,1,.072-1.056H52.422a5.045,5.045,0,0,1,.072,1.056ZM48.882-2.8V-4.344h8.28V-2.8h.984a5.633,5.633,0,0,1-.048-.852v-.744a5.159,5.159,0,0,1,.048-.8,11.888,11.888,0,0,1-1.236.048H49.134A11.639,11.639,0,0,1,47.91-5.2a5.7,5.7,0,0,1,.048.828v.732a5.77,5.77,0,0,1-.048.84Zm2.232-1.056c.012.132.036.312.036.384l-.012.06.012.1a3.632,3.632,0,0,1-.348,1.44A3.568,3.568,0,0,1,49.3-.516a5.016,5.016,0,0,1-1.584.5,3.262,3.262,0,0,1,.612.924A6.1,6.1,0,0,0,50.214.084a3.942,3.942,0,0,0,1.512-1.74,6.227,6.227,0,0,0,.384-1.656,2.9,2.9,0,0,1,.06-.5Zm3.42.96a4.925,4.925,0,0,1,.06-.936H53.538a4.527,4.527,0,0,1,.06.972V-.264c0,.78.3.912,2.052.912,1.392,0,1.92-.1,2.184-.384a3.5,3.5,0,0,0,.528-1.956,2.978,2.978,0,0,1-.9-.336,3.891,3.891,0,0,1-.288,1.572c-.156.192-.456.24-1.512.24-1.008,0-1.128-.048-1.128-.4ZM64.482-7.8H61.194a7.093,7.093,0,0,1-.948-.048,7.668,7.668,0,0,1,.06.972v3.408a7.7,7.7,0,0,1-.072,1.092h1.02v-.78h3.228V-.468A8.856,8.856,0,0,1,64.4.936h1.128a7.109,7.109,0,0,1-.084-1.4V-3.156h3.4v.78h1.008a7.575,7.575,0,0,1-.06-1.092v-3.4a7.806,7.806,0,0,1,.048-.984,6.867,6.867,0,0,1-.948.048H65.442v-.972a8.661,8.661,0,0,1,.072-1.236H64.4a7.15,7.15,0,0,1,.084,1.26Zm0,.876v2.892H61.254V-6.924Zm.96,2.892V-6.924h3.4v2.892Zm7.692,1.488h-.9l-.3-6.024h1.5ZM71.85-.708a.8.8,0,0,1,.24-.66.911.911,0,0,1,.588-.192.9.9,0,0,1,.57.192.789.789,0,0,1,.246.66.827.827,0,0,1-.246.672.867.867,0,0,1-.57.2.877.877,0,0,1-.588-.2A.838.838,0,0,1,71.85-.708Z" transform="translate(5319.5 -1172.297)" fill="#fff"/>
    <path id="パス_3848" data-name="パス 3848" d="M-34.992-8.112c0,.264,0,.432-.024.744h-3.432a14.5,14.5,0,0,1-2.52-.144v2.568a15.333,15.333,0,0,1,2.52-.144h3.072a5.455,5.455,0,0,1-1.7,2.664A9.924,9.924,0,0,1-41.52-.288a8.76,8.76,0,0,1,1.7,2.352c2.952-1.152,4.392-2.112,5.592-3.7a8.44,8.44,0,0,0,1.488-3.456h3.1V-.432c0,1.68.768,2.088,4.032,2.088,4.608,0,5.04-.36,5.568-4.416a8.189,8.189,0,0,1-2.592-.84,5.614,5.614,0,0,1-.432,2.4c-.264.336-.84.456-2.16.456a5.551,5.551,0,0,1-1.536-.12c-.36-.1-.384-.144-.384-.648V-5.088h3.816a18.31,18.31,0,0,1,2.52.144V-7.512a14.334,14.334,0,0,1-2.52.144h-3.816V-9.96a19.347,19.347,0,0,1,2.3.1V-10.9a24.055,24.055,0,0,0,3.96,2.16,9.79,9.79,0,0,1,1.344-2.376,21.3,21.3,0,0,1-3.84-1.824,18.591,18.591,0,0,0,2.16-2.208c.48-.528.528-.6.672-.744l-2.208-1.248a14.151,14.151,0,0,1-2.5,2.9c-.5-.384-.768-.6-1.416-1.152a24.785,24.785,0,0,0,1.776-1.8c.552-.648.864-1.008.936-1.1l-2.208-1.224c-.072.12-.072.12-.192.312a4.209,4.209,0,0,1-.5.7,12.618,12.618,0,0,1-1.416,1.536,5.908,5.908,0,0,1-1.488-2.616,13.819,13.819,0,0,1-2.064.1h-4.44a13.714,13.714,0,0,1-1.992-.12v2.5l-.768-.624-1.968,1.464a16.441,16.441,0,0,1,3.36,3.144A20.586,20.586,0,0,1-42.216-10.8,9.08,9.08,0,0,1-40.8-8.592a23.659,23.659,0,0,0,4.224-2.328v1.056c.6-.048.864-.072,1.608-.1Zm2.568-1.848h2.784v2.592h-2.808V-7.92Zm-.864-7.248A15.521,15.521,0,0,1-35.64-14.64a20.648,20.648,0,0,0-2.616-2.472,10.684,10.684,0,0,1,1.464-.1Zm-.912,4.992h-.648a20.039,20.039,0,0,0,4.056-4.344,20.1,20.1,0,0,0,4.08,4.344H-34.2ZM-8.376-18.1h-6.1a20.722,20.722,0,0,1-2.9-.144V-15.7a22.935,22.935,0,0,1,2.832-.12h6.168v1.584h-5.112a15.322,15.322,0,0,1-2.424-.12v2.472a21.662,21.662,0,0,1,2.424-.1H-.36a21.058,21.058,0,0,1,2.448.1v-2.472a15.481,15.481,0,0,1-2.448.12H-5.712v-1.584H.84a27.691,27.691,0,0,1,2.808.12V-18.24a20.559,20.559,0,0,1-2.88.144h-6.48v-.288a7.4,7.4,0,0,1,.144-1.848H-8.5a9.88,9.88,0,0,1,.12,1.848ZM-14.688-5.472V-8.256H.816v2.784H3.624A9.4,9.4,0,0,1,3.5-7.224V-8.976a10.869,10.869,0,0,1,.1-1.7c-.84.072-1.44.1-2.592.1H-14.856a24.615,24.615,0,0,1-2.568-.1,12.754,12.754,0,0,1,.1,1.776v1.7a9.77,9.77,0,0,1-.12,1.728Zm3.48-2.04a4.576,4.576,0,0,1,.072.768,8.086,8.086,0,0,1-.384,2.256,5.261,5.261,0,0,1-3.1,2.976A10.347,10.347,0,0,1-17.9-.624,9.425,9.425,0,0,1-16.176,2.04a14.932,14.932,0,0,0,2.592-.912A11.031,11.031,0,0,0-10.752-.84a8.9,8.9,0,0,0,2.328-5.5A5.472,5.472,0,0,1-8.28-7.368Zm7.824,1.944a9.849,9.849,0,0,1,.12-1.872h-2.88a13.524,13.524,0,0,1,.1,1.992v4.92c0,1.752.648,2.064,4.3,2.064,2.76,0,3.888-.168,4.44-.7.648-.6,1.008-1.9,1.2-4.32A8.272,8.272,0,0,1,1.32-4.3C1.2-2.28,1.1-1.632.888-1.32s-.744.408-2.424.408c-1.632,0-1.848-.1-1.848-.72Zm19.008-10.56H9.312a18.492,18.492,0,0,1-2.16-.1,18.789,18.789,0,0,1,.1,2.088v7.344a17.987,17.987,0,0,1-.12,2.4H9.96v-1.44h5.664V-.96a20.122,20.122,0,0,1-.168,2.976h3.072A18.88,18.88,0,0,1,18.36-.96V-5.832h5.952v1.44h2.832a16.518,16.518,0,0,1-.12-2.4v-7.32a17.619,17.619,0,0,1,.1-2.112,17.164,17.164,0,0,1-2.184.1H18.36v-1.56a17.6,17.6,0,0,1,.144-2.52H15.48a15.56,15.56,0,0,1,.144,2.616Zm0,2.544v5.208H9.96v-5.208ZM18.36-8.376v-5.208h5.952v5.208ZM34.008-5.688H31.152l-.6-11.448h4.056ZM30.5-1.68a1.8,1.8,0,0,1,.6-1.548,2.392,2.392,0,0,1,1.464-.444,2.353,2.353,0,0,1,1.44.444,1.8,1.8,0,0,1,.6,1.548,1.815,1.815,0,0,1-.6,1.524,2.271,2.271,0,0,1-1.44.468A2.308,2.308,0,0,1,31.1-.156,1.815,1.815,0,0,1,30.5-1.68ZM40.872-5.688H38.016l-.6-11.448h4.056Zm-3.5,4.008a1.8,1.8,0,0,1,.6-1.548,2.392,2.392,0,0,1,1.464-.444,2.353,2.353,0,0,1,1.44.444,1.8,1.8,0,0,1,.6,1.548,1.815,1.815,0,0,1-.6,1.524,2.271,2.271,0,0,1-1.44.468,2.308,2.308,0,0,1-1.464-.468A1.815,1.815,0,0,1,37.368-1.68Z" transform="translate(5319.5 -1198.297)" fill="#d97f3f"/>
  </g>
</svg>
