<svg xmlns="http://www.w3.org/2000/svg" width="205" height="81.703" viewBox="0 0 205 81.703">
  <g id="グループ_41329" data-name="グループ 41329" transform="translate(-4968.5 1199.852)">
    <g id="グループ_41328" data-name="グループ 41328" transform="translate(4690.5 -1689.322)">
      <path id="パス_3709" data-name="パス 3709" d="M0,0H205l-9.354,10.281L205,19.7H0l7.643-9.422Z" transform="translate(278 489.471)" fill="#d97f3f"/>
      <text id="姫路版初登場_" data-name="姫路版初登場!" transform="translate(380 503.471)" fill="#fff" font-size="12" font-family="HiraginoSans-W4, Hiragino Sans"><tspan x="-37.644" y="0">姫路版初登場</tspan><tspan y="0" font-family="NotoSans-Medium, Noto Sans" font-weight="500">!</tspan></text>
    </g>
    <g id="グループ_41327" data-name="グループ 41327" transform="translate(4690.5 -1689.322)">
      <path id="パス_3715" data-name="パス 3715" d="M0,0H205l-9.354,10.281L205,19.7H0l7.643-9.422Z" transform="translate(278 551.471)" fill="#d97f3f"/>
      <text id="乞うご期待_" data-name="乞うご期待!" transform="translate(380 565.471)" fill="#fff" font-size="12" font-family="HiraginoSans-W4, Hiragino Sans"><tspan x="-31.644" y="0">乞うご期待</tspan><tspan y="0" font-family="NotoSans-Medium, Noto Sans" font-weight="500">!</tspan></text>
    </g>
    <path id="パス_3750" data-name="パス 3750" d="M-63.816,0H-67.44V-9.912q0-.6.024-1.62t.072-1.788q-.12.144-.516.516t-.732.66L-70.56-10.56l-1.752-2.184,5.52-4.392h2.976Zm13.728,0h-3.624V-9.912q0-.6.024-1.62t.072-1.788q-.12.144-.516.516t-.732.66l-1.968,1.584-1.752-2.184,5.52-4.392h2.976Zm21.144-5.544v4.152c0,.528-.168.648-.888.648a24.267,24.267,0,0,1-3.528-.288,8.683,8.683,0,0,1,.7,2.688c1.224.072,2.016.1,2.784.1,1.584,0,2.256-.12,2.784-.48.6-.384.864-1.08.864-2.28V-16.56a18.1,18.1,0,0,1,.12-2.712,21.633,21.633,0,0,1-2.784.12H-38.9a24.215,24.215,0,0,1-2.808-.12,33.823,33.823,0,0,1,.12,3.624c0,6.24-.24,9.048-.96,11.28A9.087,9.087,0,0,1-45.12-.144a9.284,9.284,0,0,1,2.232,2.208,13.458,13.458,0,0,0,2.832-4.752,17.788,17.788,0,0,0,.7-2.856ZM-39.072-7.992c.144-1.944.192-2.472.192-3.216h9.936v3.216Zm.216-5.664v-3h9.912v3ZM-14.4-8.112c0,.264,0,.432-.024.744h-3.432a14.5,14.5,0,0,1-2.52-.144v2.568a15.333,15.333,0,0,1,2.52-.144h3.072a5.455,5.455,0,0,1-1.7,2.664,9.924,9.924,0,0,1-4.44,2.136,8.76,8.76,0,0,1,1.7,2.352c2.952-1.152,4.392-2.112,5.592-3.7a8.44,8.44,0,0,0,1.488-3.456h3.1V-.432c0,1.68.768,2.088,4.032,2.088C-.408,1.656.024,1.3.552-2.76A8.189,8.189,0,0,1-2.04-3.6a5.614,5.614,0,0,1-.432,2.4c-.264.336-.84.456-2.16.456a5.551,5.551,0,0,1-1.536-.12c-.36-.1-.384-.144-.384-.648V-5.088h3.816a18.31,18.31,0,0,1,2.52.144V-7.512a14.334,14.334,0,0,1-2.52.144H-6.552V-9.96a19.347,19.347,0,0,1,2.3.1V-10.9a24.055,24.055,0,0,0,3.96,2.16,9.79,9.79,0,0,1,1.344-2.376,21.3,21.3,0,0,1-3.84-1.824,18.591,18.591,0,0,0,2.16-2.208c.48-.528.528-.6.672-.744L-2.16-17.136a14.151,14.151,0,0,1-2.5,2.9c-.5-.384-.768-.6-1.416-1.152a24.785,24.785,0,0,0,1.776-1.8c.552-.648.864-1.008.936-1.1l-2.208-1.224c-.072.12-.072.12-.192.312a4.209,4.209,0,0,1-.5.7A12.618,12.618,0,0,1-7.68-16.968a5.908,5.908,0,0,1-1.488-2.616,13.819,13.819,0,0,1-2.064.1h-4.44a13.714,13.714,0,0,1-1.992-.12v2.5l-.768-.624L-20.4-16.272a16.441,16.441,0,0,1,3.36,3.144A20.586,20.586,0,0,1-21.624-10.8a9.08,9.08,0,0,1,1.416,2.208,23.659,23.659,0,0,0,4.224-2.328v1.056c.6-.048.864-.072,1.608-.1Zm2.568-1.848h2.784v2.592h-2.808V-7.92Zm-.864-7.248a15.521,15.521,0,0,1-2.352,2.568,20.648,20.648,0,0,0-2.616-2.472,10.684,10.684,0,0,1,1.464-.1Zm-.912,4.992h-.648A20.039,20.039,0,0,0-10.2-16.56a20.1,20.1,0,0,0,4.08,4.344h-7.488ZM12.216-18.1H6.12a20.722,20.722,0,0,1-2.9-.144V-15.7a22.935,22.935,0,0,1,2.832-.12h6.168v1.584H7.1a15.322,15.322,0,0,1-2.424-.12v2.472a21.662,21.662,0,0,1,2.424-.1H20.232a21.058,21.058,0,0,1,2.448.1v-2.472a15.481,15.481,0,0,1-2.448.12H14.88v-1.584h6.552a27.691,27.691,0,0,1,2.808.12V-18.24a20.559,20.559,0,0,1-2.88.144H14.88v-.288a7.4,7.4,0,0,1,.144-1.848H12.1a9.88,9.88,0,0,1,.12,1.848ZM5.9-5.472V-8.256h15.5v2.784h2.808a9.4,9.4,0,0,1-.12-1.752V-8.976a10.869,10.869,0,0,1,.1-1.7c-.84.072-1.44.1-2.592.1H5.736a24.615,24.615,0,0,1-2.568-.1,12.754,12.754,0,0,1,.1,1.776v1.7a9.77,9.77,0,0,1-.12,1.728Zm3.48-2.04a4.576,4.576,0,0,1,.072.768,8.086,8.086,0,0,1-.384,2.256,5.261,5.261,0,0,1-3.1,2.976,10.347,10.347,0,0,1-3.288.888A9.425,9.425,0,0,1,4.416,2.04a14.932,14.932,0,0,0,2.592-.912A11.031,11.031,0,0,0,9.84-.84a8.9,8.9,0,0,0,2.328-5.5,5.472,5.472,0,0,1,.144-1.032Zm7.824,1.944a9.849,9.849,0,0,1,.12-1.872h-2.88a13.524,13.524,0,0,1,.1,1.992v4.92c0,1.752.648,2.064,4.3,2.064,2.76,0,3.888-.168,4.44-.7.648-.6,1.008-1.9,1.2-4.32A8.272,8.272,0,0,1,21.912-4.3c-.12,2.016-.216,2.664-.432,2.976s-.744.408-2.424.408c-1.632,0-1.848-.1-1.848-.72ZM45.024-19.32a14.671,14.671,0,0,1-2.064.1H32.28a19.489,19.489,0,0,1-2.952-.144V-16.7a21.673,21.673,0,0,1,2.9-.12h9.36a25.985,25.985,0,0,1-3.816,2.472c-1.416-.888-1.944-1.224-3.528-2.088L32.5-14.808a48.908,48.908,0,0,1,5.28,3.408H30.36a24.136,24.136,0,0,1-3.144-.144v2.712a25.122,25.122,0,0,1,3.024-.144H36.6v7.608c0,.528-.168.648-.96.648a23.236,23.236,0,0,1-3.5-.24,9.9,9.9,0,0,1,.7,2.664c.744.048,1.944.072,2.736.072,2.952,0,3.744-.528,3.744-2.5V-8.976H44.88A15.374,15.374,0,0,1,41.4-5.712a7.749,7.749,0,0,1,2.112,1.8,22.4,22.4,0,0,0,3.816-3.96c1.008-1.344,1.536-2.016,1.56-2.04L47.376-11.52a19.9,19.9,0,0,1-2.664.12h-4.3l.72-.72c-.576-.384-.6-.408-1.128-.744,1.248-.768,2.256-1.44,3.72-2.424a26.969,26.969,0,0,0,2.784-2.28ZM60.7-1.992a6.955,6.955,0,0,1-3.648-3.336c.36-1.128.5-1.68.624-2.16.216-.984.216-1.008.336-1.416l-2.664-.5a14.877,14.877,0,0,1-.48,2.592A14.21,14.21,0,0,1,50.736-.024,6.532,6.532,0,0,1,52.8,1.944a17,17,0,0,0,3.288-4.7C58.056.144,61.2,1.368,66.816,1.368c1.9,0,3.144-.024,5.112-.072A9.335,9.335,0,0,1,72.6-1.44c-2.448.216-4.08.288-5.472.288a28.056,28.056,0,0,1-3.912-.24V-5.52h4.536A16.2,16.2,0,0,1,70.1-5.4V-7.968a12.31,12.31,0,0,1-2.352.144H63.216V-10.9H66.36a17.206,17.206,0,0,1,2.472.12V-13.32a16.8,16.8,0,0,1-2.472.12H57.168a16.084,16.084,0,0,1-2.424-.12v2.544a17.085,17.085,0,0,1,2.424-.12H60.7Zm-.408-15.72H54.024c-.96,0-1.776-.024-2.64-.1.048.552.1,1.152.1,1.776v1.848a10.607,10.607,0,0,1-.12,1.9h2.664v-3h15.5v3H72.12a15.5,15.5,0,0,1-.1-1.872v-1.872a13.2,13.2,0,0,1,.1-1.776c-.888.072-1.7.1-2.664.1h-6.48v-.912a7.287,7.287,0,0,1,.12-1.512H60.144a7.767,7.767,0,0,1,.144,1.536Z" transform="translate(5070.5 -1149.852)" fill="#d97f3f"/>
  </g>
</svg>
