<svg xmlns="http://www.w3.org/2000/svg" width="205" height="81.703" viewBox="0 0 205 81.703">
  <g id="グループ_41429" data-name="グループ 41429" transform="translate(-4992.5 1230.297)">
    <g id="グループ_41310" data-name="グループ 41310" transform="translate(4714.5 -1719.768)">
      <path id="パス_3709" data-name="パス 3709" d="M0,0H205l-9.354,10.281L205,19.7H0l7.643-9.422Z" transform="translate(278 489.471)" fill="#d97f3f"/>
      <text id="好評につき第6弾_" data-name="好評につき第6弾!" transform="translate(380 503.471)" fill="#fff" font-size="12" font-family="HiraginoSans-W4, Hiragino Sans"><tspan x="-47.076" y="0">好評につき第</tspan><tspan y="0" font-family="NotoSans-Medium, Noto Sans" font-weight="500">6</tspan><tspan y="0">弾</tspan><tspan y="0" font-family="NotoSans-Medium, Noto Sans" font-weight="500">!</tspan></text>
    </g>
    <g id="グループ_41309" data-name="グループ 41309" transform="translate(4714.5 -1719.768)">
      <path id="パス_3715" data-name="パス 3715" d="M0,0H205l-9.354,10.281L205,19.7H0l7.643-9.422Z" transform="translate(278 551.471)" fill="#d97f3f"/>
      <text id="書店_Webにて好評販売中_" data-name="書店・Webにて好評販売中!" transform="translate(380 565.471)" fill="#fff" font-size="12" font-family="HiraginoSans-W4, Hiragino Sans"><tspan x="-74.322" y="0">書店・</tspan><tspan y="0" font-family="NotoSans-Medium, Noto Sans" font-weight="500">Web</tspan><tspan y="0">にて好評販売中</tspan><tspan y="0" font-family="NotoSans-Medium, Noto Sans" font-weight="500">!</tspan></text>
    </g>
    <path id="パス_3838" data-name="パス 3838" d="M-34.992-8.112c0,.264,0,.432-.024.744h-3.432a14.5,14.5,0,0,1-2.52-.144v2.568a15.333,15.333,0,0,1,2.52-.144h3.072a5.455,5.455,0,0,1-1.7,2.664A9.924,9.924,0,0,1-41.52-.288a8.76,8.76,0,0,1,1.7,2.352c2.952-1.152,4.392-2.112,5.592-3.7a8.44,8.44,0,0,0,1.488-3.456h3.1V-.432c0,1.68.768,2.088,4.032,2.088,4.608,0,5.04-.36,5.568-4.416a8.189,8.189,0,0,1-2.592-.84,5.614,5.614,0,0,1-.432,2.4c-.264.336-.84.456-2.16.456a5.551,5.551,0,0,1-1.536-.12c-.36-.1-.384-.144-.384-.648V-5.088h3.816a18.31,18.31,0,0,1,2.52.144V-7.512a14.334,14.334,0,0,1-2.52.144h-3.816V-9.96a19.347,19.347,0,0,1,2.3.1V-10.9a24.055,24.055,0,0,0,3.96,2.16,9.79,9.79,0,0,1,1.344-2.376,21.3,21.3,0,0,1-3.84-1.824,18.591,18.591,0,0,0,2.16-2.208c.48-.528.528-.6.672-.744l-2.208-1.248a14.151,14.151,0,0,1-2.5,2.9c-.5-.384-.768-.6-1.416-1.152a24.785,24.785,0,0,0,1.776-1.8c.552-.648.864-1.008.936-1.1l-2.208-1.224c-.072.12-.072.12-.192.312a4.209,4.209,0,0,1-.5.7,12.618,12.618,0,0,1-1.416,1.536,5.908,5.908,0,0,1-1.488-2.616,13.819,13.819,0,0,1-2.064.1h-4.44a13.714,13.714,0,0,1-1.992-.12v2.5l-.768-.624-1.968,1.464a16.441,16.441,0,0,1,3.36,3.144A20.586,20.586,0,0,1-42.216-10.8,9.08,9.08,0,0,1-40.8-8.592a23.659,23.659,0,0,0,4.224-2.328v1.056c.6-.048.864-.072,1.608-.1Zm2.568-1.848h2.784v2.592h-2.808V-7.92Zm-.864-7.248A15.521,15.521,0,0,1-35.64-14.64a20.648,20.648,0,0,0-2.616-2.472,10.684,10.684,0,0,1,1.464-.1Zm-.912,4.992h-.648a20.039,20.039,0,0,0,4.056-4.344,20.1,20.1,0,0,0,4.08,4.344H-34.2ZM-8.376-18.1h-6.1a20.722,20.722,0,0,1-2.9-.144V-15.7a22.935,22.935,0,0,1,2.832-.12h6.168v1.584h-5.112a15.322,15.322,0,0,1-2.424-.12v2.472a21.662,21.662,0,0,1,2.424-.1H-.36a21.058,21.058,0,0,1,2.448.1v-2.472a15.481,15.481,0,0,1-2.448.12H-5.712v-1.584H.84a27.691,27.691,0,0,1,2.808.12V-18.24a20.559,20.559,0,0,1-2.88.144h-6.48v-.288a7.4,7.4,0,0,1,.144-1.848H-8.5a9.88,9.88,0,0,1,.12,1.848ZM-14.688-5.472V-8.256H.816v2.784H3.624A9.4,9.4,0,0,1,3.5-7.224V-8.976a10.869,10.869,0,0,1,.1-1.7c-.84.072-1.44.1-2.592.1H-14.856a24.615,24.615,0,0,1-2.568-.1,12.754,12.754,0,0,1,.1,1.776v1.7a9.77,9.77,0,0,1-.12,1.728Zm3.48-2.04a4.576,4.576,0,0,1,.072.768,8.086,8.086,0,0,1-.384,2.256,5.261,5.261,0,0,1-3.1,2.976A10.347,10.347,0,0,1-17.9-.624,9.425,9.425,0,0,1-16.176,2.04a14.932,14.932,0,0,0,2.592-.912A11.031,11.031,0,0,0-10.752-.84a8.9,8.9,0,0,0,2.328-5.5A5.472,5.472,0,0,1-8.28-7.368Zm7.824,1.944a9.849,9.849,0,0,1,.12-1.872h-2.88a13.524,13.524,0,0,1,.1,1.992v4.92c0,1.752.648,2.064,4.3,2.064,2.76,0,3.888-.168,4.44-.7.648-.6,1.008-1.9,1.2-4.32A8.272,8.272,0,0,1,1.32-4.3C1.2-2.28,1.1-1.632.888-1.32s-.744.408-2.424.408c-1.632,0-1.848-.1-1.848-.72Zm19.008-10.56H9.312a18.492,18.492,0,0,1-2.16-.1,18.789,18.789,0,0,1,.1,2.088v7.344a17.987,17.987,0,0,1-.12,2.4H9.96v-1.44h5.664V-.96a20.122,20.122,0,0,1-.168,2.976h3.072A18.88,18.88,0,0,1,18.36-.96V-5.832h5.952v1.44h2.832a16.518,16.518,0,0,1-.12-2.4v-7.32a17.619,17.619,0,0,1,.1-2.112,17.164,17.164,0,0,1-2.184.1H18.36v-1.56a17.6,17.6,0,0,1,.144-2.52H15.48a15.56,15.56,0,0,1,.144,2.616Zm0,2.544v5.208H9.96v-5.208ZM18.36-8.376v-5.208h5.952v5.208ZM34.008-5.688H31.152l-.6-11.448h4.056ZM30.5-1.68a1.8,1.8,0,0,1,.6-1.548,2.392,2.392,0,0,1,1.464-.444,2.353,2.353,0,0,1,1.44.444,1.8,1.8,0,0,1,.6,1.548,1.815,1.815,0,0,1-.6,1.524,2.271,2.271,0,0,1-1.44.468A2.308,2.308,0,0,1,31.1-.156,1.815,1.815,0,0,1,30.5-1.68ZM40.872-5.688H38.016l-.6-11.448h4.056Zm-3.5,4.008a1.8,1.8,0,0,1,.6-1.548,2.392,2.392,0,0,1,1.464-.444,2.353,2.353,0,0,1,1.44.444,1.8,1.8,0,0,1,.6,1.548,1.815,1.815,0,0,1-.6,1.524,2.271,2.271,0,0,1-1.44.468,2.308,2.308,0,0,1-1.464-.468A1.815,1.815,0,0,1,37.368-1.68Z" transform="translate(5094.5 -1180.297)" fill="#d97f3f"/>
  </g>
</svg>
