<svg xmlns="http://www.w3.org/2000/svg" width="557" height="118" viewBox="0 0 557 118">
  <g id="グループ_41308" data-name="グループ 41308" transform="translate(-4949.56 -611.453)">
    <path id="パス_3736" data-name="パス 3736" d="M4,0H553a4,4,0,0,1,4,4V114a4,4,0,0,1-4,4H4a4,4,0,0,1-4-4V4A4,4,0,0,1,4,0Z" transform="translate(4949.56 611.453)" fill="#fff"/>
    <path id="パス_3738" data-name="パス 3738" d="M18.24-18.48H13.05v2.88H27.48v-2.88h-5.7v-1.8h6.6v-2.88h-6.6v-2.25H18.24v2.25H12.06v2.88h6.18Zm-3.36,7.14H25.29V-8.4h3.3v-5.73H11.73V-8.4h3.15ZM10.56-24.48H2.49v2.7h8.07Zm.96,4.02H.99v2.82H11.52Zm-.9,4.17H2.31v2.73h8.31ZM2.31-9.51h8.31v-2.67H2.31ZM7.77-1.8H5.13V-5.25H7.77Zm2.91-6.24H2.22V2.19H5.13V.99h5.55V.09A10.3,10.3,0,0,1,12.45,2.7C18,.39,18.81-3.66,19.05-9.93H15.72c-.18,5.01-.6,7.92-5.04,9.66ZM24.81-.72c-.45,0-.51-.09-.51-.96V-9.9H21v8.25c0,3.03.6,4.02,3.21,4.02h2.01c2.16,0,2.94-1.14,3.24-5.58a9.372,9.372,0,0,1-2.94-1.32c-.06,3.33-.18,3.81-.66,3.81ZM46.53-19.08h4.89a40.966,40.966,0,0,1-3.24,2.73H46.53ZM53.07-5.97H42.75V-7.89H53.07ZM42.75-1.23V-3.27H53.07v2.04ZM60.24-13.2v-3.15H53.28a43.88,43.88,0,0,0,5.91-6.6l-3.06-1.56a36.533,36.533,0,0,1-3.09,3.81v-1.47H46.53v-3.24H42.99v3.24H35.94v3.09h7.05v2.73H33.36v3.15h10.2A53.4,53.4,0,0,1,32.4-8.22a19.657,19.657,0,0,1,2.19,2.94c1.53-.57,3.09-1.23,4.59-1.89V2.64h3.57v-.9H53.07v.78h3.72V-10.8H45.9c1.23-.78,2.37-1.56,3.54-2.4Zm15.42-3.06a16.631,16.631,0,0,1,.21,2.7c0,4.92-.72,8.1-4.53,10.74a11.854,11.854,0,0,1-3.15,1.65l3.48,2.85c8.19-4.38,8.34-10.5,8.34-17.94Zm14.19-6.27a14.946,14.946,0,0,1-3.03.27H70.65a23.783,23.783,0,0,1-3.66-.3v4.17c1.41-.12,2.4-.21,3.66-.21H86.28a17.841,17.841,0,0,1-5.52,5.58l3.09,2.49a30.187,30.187,0,0,0,7.23-8.22,15.1,15.1,0,0,1,1.17-1.56Zm11.58-.27-2.82,3a62.378,62.378,0,0,1,7.5,6.48l3.06-3.15A63,63,0,0,0,101.43-22.8ZM97.68-2.82l2.52,3.96a32.489,32.489,0,0,0,11.13-4.23,31.9,31.9,0,0,0,11.1-11.1l-2.34-4.23A28.447,28.447,0,0,1,109.17-6.75,30.92,30.92,0,0,1,97.68-2.82Zm39.96-16.05c.33-.78.6-1.56.84-2.19s.63-1.68.96-2.43l-4.62-.93a11.786,11.786,0,0,1-.63,3.09,18.854,18.854,0,0,1-1.74,4.08,22.973,22.973,0,0,1-5.19,6.18l3.78,2.28a24.6,24.6,0,0,0,4.83-6.3h6.33c-.48,6.27-2.97,9.96-6.12,12.36a11.171,11.171,0,0,1-2.85,1.68l4.05,2.7c5.43-3.42,8.55-8.76,9.09-16.74h4.2a31.01,31.01,0,0,1,3.12.12v-4.11a19.671,19.671,0,0,1-3.12.21Zm22.92,9.69c1.11-.09,3.12-.15,4.83-.15H181.5c1.26,0,2.79.12,3.51.15v-4.71c-.78.06-2.13.18-3.51.18H165.39c-1.56,0-3.75-.09-4.83-.18Zm55.11-1.86a97.982,97.982,0,0,0-12.54-4.65V-20.1a32.623,32.623,0,0,1,.27-3.63h-4.68a20.923,20.923,0,0,1,.3,3.63V-2.88a32.1,32.1,0,0,1-.3,4.17h4.68c-.12-1.2-.27-3.3-.27-4.17v-8.49A86.651,86.651,0,0,1,213.96-6.9Zm11.46-6.24v-2.37h18.36v2.37h-7.47v-1.71h-3.57v1.71ZM249.6-4.74V-7.83H237.75a10.186,10.186,0,0,0,.24-1.89h8.19V-12.6h-8.16v-1.8h8.76v-1.98h2.4v-6.39H238.2v-2.61h-3.66v2.61H223.59v6.39h2.67v1.98h8.19v1.8h-7.71v2.88h7.68a13.75,13.75,0,0,1-.3,1.89H223.35v3.09h9.03c-1.65,1.77-4.53,3.33-9.57,4.47a14.559,14.559,0,0,1,2.22,2.88c6.12-1.65,9.45-4.02,11.22-6.69,2.37,3.72,5.94,5.85,11.64,6.75a13.88,13.88,0,0,1,2.1-3.12c-4.74-.51-8.1-1.89-10.23-4.29Zm16.32-5.25.06-3v-1.35h-5.4c.03-1.05.06-2.13.09-3.21h5.73a11.184,11.184,0,0,1-.96,1.08,19.454,19.454,0,0,1,2.67,2.52l.27-.3v3.12Zm7.32,9.54c-1.5,0-1.71-.18-1.71-1.41V-9.09l1.62-.75v6.99h2.97v-8.37l1.92-.9c-.03,2.85-.03,4.5-.09,4.77-.03.39-.18.45-.42.45s-.66,0-1.02-.03a9.012,9.012,0,0,1,.66,2.61,6.783,6.783,0,0,0,2.46-.33,2.1,2.1,0,0,0,1.29-2.07c.09-.9.09-3.96.12-8.22l.12-.48-2.22-.78-.54.39-.12.09-2.16.99v-2.91h-2.97v4.29l-1.62.75v-2.88h-2.19a19.534,19.534,0,0,0,1.71-2.91h10.77v-3.24H272.4c.33-1.02.66-2.07.9-3.12l-3.51-.66a21.67,21.67,0,0,1-2.67,6.81v-2.25h-4.68v-4.53h-3.42v4.53h-4.59v3.3h2.88c-.09,6.93-.36,13.53-3.33,17.64a10.588,10.588,0,0,1,2.55,2.49c2.49-3.42,3.45-8.28,3.87-13.68h2.34c-.12,7.05-.3,9.57-.69,10.17a.871.871,0,0,1-.87.48,16.757,16.757,0,0,1-2.16-.12,8.377,8.377,0,0,1,.87,3.18,15.682,15.682,0,0,0,3.09-.15,2.687,2.687,0,0,0,1.92-1.23c.69-.96.9-3.84,1.02-11.19l1.23,2.91,1.23-.57v5.76c0,3.42.96,4.38,4.5,4.38h5.25c2.91,0,3.81-1.14,4.2-4.89a9.826,9.826,0,0,1-2.88-1.23c-.18,2.64-.42,3.15-1.59,3.15Zm28.59-9.81v-6.45h6.78v6.45Zm-10.53,0v-6.45h6.75v6.45Zm10.53-9.96v-5.19h-3.78v5.19H287.7V-5.1h3.6V-6.75h6.75V2.61h3.78V-6.75h6.78v1.5h3.75V-20.22Z" transform="translate(5114.56 669.952)"/>
    <path id="パス_3739" data-name="パス 3739" d="M7.854-4.368H5.908V-6.356H7.854ZM3.99-8.12v5.5H9.9v-5.5Zm-.966,6.8V-9.464h7.854v8.148ZM.91-11.55V1.33H3.024V.574h7.854V1.33H13.1V-11.55ZM24.626-1.61v.868h-4.55V-1.61Zm-6.5,2.954h1.946V.994h4.55V1.3h2.03V-3.332H18.13Zm2.828-7.1a10.052,10.052,0,0,0,1.358-1.274A10.387,10.387,0,0,0,23.7-5.754Zm.77-3.472c.238.126.546.322.854.518h-1.3c-.1.126-.21.252-.322.378-.112-.252-.28-.574-.462-.9Zm2.954,0a8.636,8.636,0,0,1,.91,1.554l1.862-.672a6.637,6.637,0,0,0-.546-.882H28.8v-1.68H25.3c.1-.238.2-.476.28-.714l-1.988-.49A7.3,7.3,0,0,1,22.19-9.7v-1.2H19.432a7.219,7.219,0,0,0,.294-.686L17.78-12.11a8.7,8.7,0,0,1-2.156,3.388,13.069,13.069,0,0,1,1.694,1.106,11.036,11.036,0,0,0,1.162-1.54,7.16,7.16,0,0,1,.7,1.47L20.9-8.26a13.944,13.944,0,0,1-5.236,3.374,8.118,8.118,0,0,1,1.092,1.568A18.421,18.421,0,0,0,19.614-4.8v.7h5.558v-.616a18.6,18.6,0,0,0,2.814,1.456,9.887,9.887,0,0,1,1.19-1.68A12.765,12.765,0,0,1,23.6-8.274a8.984,8.984,0,0,0,.742-.952Zm11.634-.126v-1.9h-5.18v1.9h1.792v8.078c0,.2-.07.266-.28.266s-.9,0-1.47-.028A8.325,8.325,0,0,1,31.766.938,4.957,4.957,0,0,0,34.188.574c.574-.322.728-.854.728-1.82V-9.352ZM38.85-3.6h3.108v.63H38.85Zm0-1.988h3.108v.63H38.85Zm0-1.974h3.108v.63H38.85Zm5.1,6.048v-7.5H41.2c.112-.252.21-.5.308-.77h2.842V-11.48H36.526v1.694h2.7c-.042.252-.084.518-.126.77H36.96v7.5h1.2a11.806,11.806,0,0,1-2.926,1.4,11.175,11.175,0,0,1,1.232,1.4A13.546,13.546,0,0,0,40.082-.574l-1.3-.938h2.968L40.432-.56a21.647,21.647,0,0,1,2.66,1.876L44.7.126a21.749,21.749,0,0,0-2.548-1.638Zm6.2-8.6-2.576-.028a8.212,8.212,0,0,1,.126,1.5c0,.882.014,2.464.154,3.78C48.244-1.064,49.6.336,51.24.336c1.218,0,2.1-.868,3.066-3.318L52.612-5.054c-.2.938-.686,2.674-1.33,2.674-.8,0-1.078-1.274-1.246-3.094-.084-.924-.084-1.834-.084-2.744A12.935,12.935,0,0,1,50.148-10.108Zm6.776.266-2.142.7c1.624,1.764,2.3,5.306,2.492,7.392L59.5-2.6C59.388-4.606,58.282-8.246,56.924-9.842Zm12.1,4.76a21.178,21.178,0,0,1,2.744-.154,20.127,20.127,0,0,1,2.408.182l.042-2.016c-.84-.084-1.68-.126-2.45-.126-.91,0-1.946.07-2.744.154Zm1.2-4.9c-.7.168-1.414.308-2.128.42l.056-.238c.07-.322.21-.994.322-1.428l-2.562-.2A7.55,7.55,0,0,1,65.87-9.87a4.967,4.967,0,0,1-.084.56c-.364.014-.742.028-1.106.028a14.427,14.427,0,0,1-1.792-.112l.056,2.086c.476.028,1.008.056,1.722.056.224,0,.462,0,.7-.014-.07.322-.168.658-.252.98A30.7,30.7,0,0,1,62.678-.028l2.338.784A46.028,46.028,0,0,0,67.228-5.7c.14-.546.28-1.162.42-1.75a22.426,22.426,0,0,0,2.576-.434ZM68.1-3.682a9.827,9.827,0,0,0-.252,1.974c0,1.414,1.218,2.3,3.64,2.3a22.816,22.816,0,0,0,2.9-.2l.084-2.142a17.586,17.586,0,0,1-2.968.294c-1.218,0-1.582-.364-1.582-.938A5.036,5.036,0,0,1,70.1-3.5Zm22.3-4.2V-9.828H84.966v-2.226H82.852v2.226H77.6v1.946h3.864c-.14,2.87-.448,5.852-4.172,7.6a6.237,6.237,0,0,1,1.442,1.736A8.356,8.356,0,0,0,83.272-4.41H86.7c-.168,2.184-.406,3.3-.742,3.584a1.012,1.012,0,0,1-.7.182c-.434,0-1.414,0-2.366-.084a4.362,4.362,0,0,1,.728,2,22.437,22.437,0,0,0,2.45-.028A2.411,2.411,0,0,0,87.752.49c.574-.644.868-2.24,1.106-5.964.042-.266.056-.854.056-.854h-5.32c.07-.518.112-1.036.14-1.554Zm7.308,2.59c-.49,1.61-.91,2.45-1.47,2.45-.476,0-.9-.63-.9-1.834a4.131,4.131,0,0,1,3.08-3.752A20.217,20.217,0,0,1,97.706-5.292ZM100.142.7c3.612-.6,5.334-2.744,5.334-5.656a5.437,5.437,0,0,0-5.768-5.586,6.323,6.323,0,0,0-6.552,6.09c0,2.366,1.316,4.228,3.024,4.228,1.638,0,2.884-1.862,3.71-4.634A29,29,0,0,0,100.7-8.47a3.213,3.213,0,0,1,2.464,3.444,3.512,3.512,0,0,1-2.94,3.486,9.955,9.955,0,0,1-1.358.252ZM115.85-4.956V-7.574h2.7v2.618Zm-4.844,0V-7.574h2.688v2.618Zm4.844-4.62V-11.97h-2.156v2.394h-4.732v7.35h2.044v-.728h2.688V1.33h2.156V-2.954h2.7V-2.3h2.142v-7.28Zm11.508-1.778a13.918,13.918,0,0,1-.266,2.9c-.616.042-1.19.084-1.6.1a15.439,15.439,0,0,1-1.61,0l.182,2.254c.462-.084,1.26-.2,1.708-.252.2-.028.5-.07.868-.126a20.153,20.153,0,0,1-2.73,6.258l2.2.882a31.354,31.354,0,0,0,2.772-7.392c.252-.014.49-.028.644-.028.868,0,1.288.126,1.288,1.134a9.893,9.893,0,0,1-.518,3.556.94.94,0,0,1-.938.532,8.8,8.8,0,0,1-1.694-.294L128.03.378a8.233,8.233,0,0,0,1.68.2A2.374,2.374,0,0,0,132.132-.77a13.853,13.853,0,0,0,.77-5.082c0-2.072-1.05-2.828-2.646-2.828-.252,0-.574.014-.938.042.084-.364.168-.742.238-1.12s.2-.91.294-1.33Zm5.25,2.3a15.66,15.66,0,0,1,2.268,5.432l2.142-.994a25.711,25.711,0,0,0-2.38-5.278Zm10.15-.322c1.092.28,4.228.938,5.684,1.134l.5-2.072A42.954,42.954,0,0,1,143.29-11.4Zm.84.91-2.254-.308a53.156,53.156,0,0,1-.686,5.894l1.918.476a3.563,3.563,0,0,1,.574-.868,4.645,4.645,0,0,1,3.584-1.512c1.106,0,1.862.588,1.862,1.372,0,1.694-2.24,2.576-6.286,1.974l.658,2.2c6.1.532,7.994-1.554,7.994-4.13,0-1.694-1.414-3.318-4.018-3.318a7.017,7.017,0,0,0-3.836,1.12A24.063,24.063,0,0,1,143.6-8.47Zm15.526,2.45-1.162.266V-7.546h1.218V-9.422h-1.218V-11.97H156v2.548h-1.554v1.876H156V-5.32c-.658.14-1.26.266-1.778.364l.49,1.946L156-3.332v2.59c0,.2-.07.266-.266.266s-.756,0-1.246-.028a7.027,7.027,0,0,1,.546,1.834A4.56,4.56,0,0,0,157.29.966c.518-.294.672-.784.672-1.694V-3.822c.476-.126.938-.238,1.4-.364Zm5.138,4.354V-3.444h1.064v1.778ZM161.35-3.444h.994v1.778h-.994Zm.994-3.514v1.624h-.994V-6.958Zm2.982,0v1.624h-1.064V-6.958ZM164.262-8.89v-3.052h-1.918V-8.89h-2.926V1.316h1.932V.28h3.976v.938h2.03V-8.89ZM180.32-8.3c-.308,0-.364-.042-.364-.364v-.042h1.554c-.056.336-.126.406-.364.406Zm.308-1.666H178.3v1.316c0,1.288.378,1.666,1.75,1.666h1.3c.938,0,1.372-.28,1.54-1.26a4.562,4.562,0,0,1-1.316-.462h.77v-2.9h-4.3v1.246h2.576ZM175.714-8.3c-.308,0-.364-.042-.364-.364v-.042H176.9c-.056.336-.126.406-.364.406Zm.28-1.666h-2.3v1.316c0,1.288.378,1.666,1.75,1.666h1.3c.938,0,1.372-.28,1.54-1.26a4.562,4.562,0,0,1-1.316-.462h.714v-2.9h-4.172v1.246h2.478Zm-2.842.616a10.914,10.914,0,0,0-1.876-2.3l-1.61,1.008a10.881,10.881,0,0,1,1.75,2.422Zm3.556,6.636h2.786l-1.036.574a15.379,15.379,0,0,1,2.3,1.414c-1.82.056-3.794.056-5.012,0L175.21-.77a9.545,9.545,0,0,0,2.632-1.554Zm.728-2.184h1.246v.714h-1.246Zm5.5,3.5a24.865,24.865,0,0,0-2.45-1.316h2.366v-1.47h-2.24V-4.9h1.806V-6.342h-1.806v-.6h-1.932v.6h-1.246v-.6h-1.9v.6h-1.75V-4.9h1.75v.714H173.39v1.47h2.324a10.09,10.09,0,0,1-2.254.84,12.722,12.722,0,0,1,1.274,1.022,2.408,2.408,0,0,1-1.694-1.2V-6.552h-3.192v1.876h1.3V-1.89c-.5.42-1.05.812-1.526,1.134l.938,1.946c.658-.616,1.176-1.12,1.666-1.652a4.156,4.156,0,0,0,3.514,1.526c1.848.084,4.984.056,6.874-.042a9.34,9.34,0,0,1,.6-1.89c-.63.056-1.386.1-2.184.126ZM195.23-7.28l-1.218.5a11.248,11.248,0,0,1,1.064,1.918l1.246-.546A18.556,18.556,0,0,0,195.23-7.28Zm1.582-.672-1.2.546a11.725,11.725,0,0,1,1.134,1.862l1.232-.588C197.694-6.636,197.176-7.448,196.812-7.952Zm-11.06-1.834.21,2.282c1.666-.364,4.1-.644,5.292-.77a5.652,5.652,0,0,0-1.75,4.046c0,2.954,2.646,4.634,5.74,4.872l.784-2.338c-2.394-.14-4.312-.938-4.312-2.982a3.854,3.854,0,0,1,2.786-3.6,17.407,17.407,0,0,1,2.66-.168l-.014-2.156c-1.008.042-2.646.126-4.032.238-2.534.224-4.634.392-5.936.5C186.914-9.828,186.312-9.8,185.752-9.786Z" transform="translate(5113.769 697.539)"/>
    <path id="パス_3737" data-name="パス 3737" d="M11.97-9.646a.747.747,0,0,1-.742-.742.747.747,0,0,1,.742-.742.747.747,0,0,1,.742.742A.747.747,0,0,1,11.97-9.646Zm-8.9-.49c-.462,0-1.386-.07-1.82-.126v2.394c.364-.028,1.134-.07,1.82-.07h6.16a7.865,7.865,0,0,1-1.54,3.612,9.162,9.162,0,0,1-5.5,3.234L4.032.938A11.481,11.481,0,0,0,9.73-3a14.751,14.751,0,0,0,2.114-5.068c.042-.168.1-.378.168-.588a1.755,1.755,0,0,0,1.694-1.736,1.745,1.745,0,0,0-1.736-1.736,1.745,1.745,0,0,0-1.736,1.736.8.8,0,0,0,.014.182,7.3,7.3,0,0,1-1.008.07ZM19.53.784A3.64,3.64,0,0,1,20.5.336a18.654,18.654,0,0,0,8.092-5.068l-1.2-1.932a16.5,16.5,0,0,1-6.93,4.55v-6.9a10.994,10.994,0,0,1,.154-1.764h-2.66a9.241,9.241,0,0,1,.182,1.764v7.364a2.112,2.112,0,0,1-.21,1.036ZM44.548-10.388a19.983,19.983,0,0,0-1.106-1.9l-1.316.532a15.616,15.616,0,0,1,1.106,1.932ZM42.812-9.7c-.252-.49-.742-1.4-1.092-1.918l-1.316.532a18.967,18.967,0,0,1,1.078,1.946Zm-6.2.588a14.109,14.109,0,0,1,.14-1.792H34.23a14.4,14.4,0,0,1,.126,1.792V-7.35c-1.33.238-2.52.434-3.192.518L31.57-4.62c.6-.14,1.624-.35,2.786-.588v3.584c0,1.82.448,2.632,3.962,2.632A36.062,36.062,0,0,0,42.63.7l.07-2.3a24.077,24.077,0,0,1-4.452.49c-1.456,0-1.638-.294-1.638-1.12V-5.67c1.694-.336,3.234-.644,3.738-.742A11.492,11.492,0,0,1,38.262-3.85l1.862,1.092a19.336,19.336,0,0,0,2.912-4.088c.14-.28.378-.644.518-.868L41.916-8.988a4.883,4.883,0,0,1-1.134.378c-.644.154-2.352.5-4.172.84Zm13.076-1.75-1.61,1.722A29.18,29.18,0,0,1,51.59-6.076l1.736-1.778A28.247,28.247,0,0,0,49.686-10.864Zm-2.072,9.3L49.056.672a14.94,14.94,0,0,0,5.012-1.848,15.14,15.14,0,0,0,5.446-5.306L58.2-8.876a13.528,13.528,0,0,1-5.348,5.6A14.407,14.407,0,0,1,47.614-1.568Zm26.32-3.794a46.286,46.286,0,0,0-5.782-2.114V-9.394a16.645,16.645,0,0,1,.14-1.82H65.646a9.78,9.78,0,0,1,.168,1.82V-1.4A15.717,15.717,0,0,1,65.646.714h2.66c-.07-.63-.154-1.736-.154-2.114V-5a43.662,43.662,0,0,1,4.816,2ZM85.54-7.8H84.07v-.574h1.47Zm0,2.212H84.07v-.588h1.47Zm0,2.254H84.07v-.63h1.47ZM82.11-1.638h8.2V-3.332H87.472v-.63h2.142V-5.586H87.472v-.588h2.212V-7.8H87.472v-.574h2.59v-1.694h-2.17c.224-.42.448-.882.672-1.33l-2.254-.392a13.7,13.7,0,0,1-.5,1.722H84.6q.315-.63.588-1.26l-2.03-.588A9.74,9.74,0,0,1,80.136-7.77,13.313,13.313,0,0,1,81.62-6.146c.168-.14.322-.294.49-.462Zm-.9-7.784a12.374,12.374,0,0,0-2.184-2.184l-1.554,1.148a11.74,11.74,0,0,1,2.058,2.324Zm-.336,2.87h-3.4v1.876h1.456v2.744c-.546.406-1.12.8-1.638,1.106l.938,2.03c.714-.6,1.26-1.092,1.792-1.61a4.119,4.119,0,0,0,3.458,1.5c1.792.084,4.774.056,6.608-.042a9.312,9.312,0,0,1,.63-1.974,66.783,66.783,0,0,1-7.21.14,2.774,2.774,0,0,1-2.632-1.288ZM101.92-8.2H96.782V-9.73h5.138Zm2.128-3.3H94.78v5.1h9.268ZM100.394-.868v-.7h4.1V-3.276h-4.1v-.7h4.564V-5.754H93.926v1.778h4.312v.7H94.4v1.708h3.836v.7H93.212V.924H105.63V-.868Zm9.38-2.912h1.61l.364-4.732.084-2.212h-2.506l.084,2.212Zm.8,3.976a1.484,1.484,0,0,0,1.484-1.554,1.48,1.48,0,0,0-1.484-1.54,1.478,1.478,0,0,0-1.47,1.54A1.481,1.481,0,0,0,110.572.2Z" transform="translate(5316.56 697.539)" fill="#b9222a"/>
    <g id="グループ_41307" data-name="グループ 41307" transform="translate(4418.56 157.453)">
      <path id="合体_1" data-name="合体 1" d="M4261,37.5C4261,16.79,4280.252,0,4304,0c22.143,0,40.376,14.6,42.741,33.357a113.684,113.684,0,0,0,12.666,2.04c-4.7,2.122-8.986,3.826-12.545,5.137C4345.09,59.825,4326.577,75,4304,75,4280.252,75,4261,58.211,4261,37.5Z" transform="translate(-3682.406 476.5)" fill="#e2e2e2"/>
      <text id="ご協力_おねがい_します_" data-name="ご協力
おねがい
します!!" transform="translate(621.594 502.5)" font-size="12" font-family="MidashiGoPro-MB31, A-OTF Midashi Go MB31 Pro"><tspan x="-18" y="0">ご協力</tspan><tspan x="-24" y="16">おねがい</tspan><tspan x="-21.108" y="32">します!!</tspan></text>
    </g>
  </g>
</svg>
