<svg xmlns="http://www.w3.org/2000/svg" width="163.104" height="48.324" viewBox="0 0 163.104 48.324">
  <g id="グループ_41315" data-name="グループ 41315" transform="translate(-4941.272 -2786.43)">
    <path id="パス_3745" data-name="パス 3745" d="M-68.928-14.784H-73.08v2.3h11.544v-2.3H-66.1v-1.44h5.28v-2.3H-66.1v-1.8h-2.832v1.8h-4.944v2.3h4.944Zm-2.688,5.712h8.328V-6.72h2.64V-11.3H-74.136V-6.72h2.52Zm-3.456-10.512h-6.456v2.16h6.456Zm.768,3.216h-8.424v2.256H-74.3Zm-.72,3.336h-6.648v2.184h6.648Zm-6.648,5.424h6.648V-9.744h-6.648ZM-77.3-1.44h-2.112V-4.2H-77.3Zm2.328-4.992h-6.768V1.752h2.328V.792h4.44V.072A8.237,8.237,0,0,1-73.56,2.16c4.44-1.848,5.088-5.088,5.28-10.1h-2.664c-.144,4.008-.48,6.336-4.032,7.728Zm11.3,5.856c-.36,0-.408-.072-.408-.768V-7.92h-2.64v6.6c0,2.424.48,3.216,2.568,3.216h1.608c1.728,0,2.352-.912,2.592-4.464A7.5,7.5,0,0,1-62.3-3.624c-.048,2.664-.144,3.048-.528,3.048Zm15.936-14.688h3.912a32.774,32.774,0,0,1-2.592,2.184h-1.32ZM-42.5-4.776H-50.76V-6.312H-42.5ZM-50.76-.984V-2.616H-42.5V-.984Zm13.992-9.576v-2.52h-5.568a35.1,35.1,0,0,0,4.728-5.28l-2.448-1.248a29.227,29.227,0,0,1-2.472,3.048v-1.176h-5.208v-2.592h-2.832v2.592h-5.64v2.472h5.64v2.184h-7.7v2.52h8.16A42.719,42.719,0,0,1-59.04-6.576a15.725,15.725,0,0,1,1.752,2.352c1.224-.456,2.472-.984,3.672-1.512V2.112h2.856v-.72H-42.5v.624h2.976V-8.64H-48.24c.984-.624,1.9-1.248,2.832-1.92Zm10.9-2.448a13.3,13.3,0,0,1,.168,2.16c0,3.936-.576,6.48-3.624,8.592a9.483,9.483,0,0,1-2.52,1.32l2.784,2.28c6.552-3.5,6.672-8.4,6.672-14.352Zm11.352-5.016a11.957,11.957,0,0,1-2.424.216H-29.88a19.027,19.027,0,0,1-2.928-.24v3.336c1.128-.1,1.92-.168,2.928-.168h12.5a14.272,14.272,0,0,1-4.416,4.464l2.472,1.992A24.15,24.15,0,0,0-13.536-15a12.084,12.084,0,0,1,.936-1.248ZM-6.7-18.24l-2.256,2.4a49.9,49.9,0,0,1,6,5.184L-.5-13.176A50.4,50.4,0,0,0-6.7-18.24Zm-3,15.984L-7.68.912a25.991,25.991,0,0,0,8.9-3.384,25.52,25.52,0,0,0,8.88-8.88L8.232-14.736A22.757,22.757,0,0,1-.5-5.4,24.736,24.736,0,0,1-9.7-2.256ZM20.832-15.1c.264-.624.48-1.248.672-1.752s.5-1.344.768-1.944l-3.7-.744a9.428,9.428,0,0,1-.5,2.472A15.083,15.083,0,0,1,16.68-13.8a18.378,18.378,0,0,1-4.152,4.944l3.024,1.824a19.678,19.678,0,0,0,3.864-5.04H24.48C24.1-7.056,22.1-4.1,19.584-2.184A8.937,8.937,0,0,1,17.3-.84l3.24,2.16c4.344-2.736,6.84-7.008,7.272-13.392h3.36a24.808,24.808,0,0,1,2.5.1v-3.288a15.737,15.737,0,0,1-2.5.168Zm16.9,7.752c.888-.072,2.5-.12,3.864-.12H54.48c1.008,0,2.232.1,2.808.12v-3.768c-.624.048-1.7.144-2.808.144H41.592c-1.248,0-3-.072-3.864-.144ZM80.376-8.832a78.385,78.385,0,0,0-10.032-3.72V-16.08a26.1,26.1,0,0,1,.216-2.9H66.816a16.739,16.739,0,0,1,.24,2.9V-2.3a25.68,25.68,0,0,1-.24,3.336H70.56c-.1-.96-.216-2.64-.216-3.336V-9.1A69.321,69.321,0,0,1,79.008-5.52Z" transform="translate(5024 2832.594)" fill="#333"/>
    <g id="レイヤー_2" data-name="レイヤー 2" transform="translate(5012 2786.43)">
      <g id="文字">
        <path id="パス_110" data-name="パス 110" d="M13.669,5.032a.107.107,0,0,0,0-.143l-.989-.524a.1.1,0,0,0-.143,0l-3.683,6.8H8.009l3.873-7.151a.119.119,0,0,0,0-.143L10.845,3.3a.119.119,0,0,0-.143,0L6.829,11.169H1.561L3.587,7.594H8.044l.393-.787H3.194L0,11.884l3.194,6.853h7.151l3.194-6.853L11.81,9.227l-.5.87.608,1.073H10.094Z" transform="translate(0 0.629)" fill="#231815"/>
        <path id="パス_111" data-name="パス 111" d="M14.86,11.15c-1.883,0-3.42.429-3.42.953a27.828,27.828,0,0,0,.31,4c.072.262.429.512,1,.679v.107c.083.334.81.632,2.086.632h0c1.275,0,2-.3,2.086-.632v-.107c.572-.167.93-.417,1-.679a27.827,27.827,0,0,0,.358-3.945C18.281,11.579,16.755,11.15,14.86,11.15ZM13.74,14.3c-.1.346-1.752,0-1.871-.429v-.131c0-.012.1,0,.131.083a.894.894,0,0,0,.286.179,2.491,2.491,0,0,0,.405.1,3.575,3.575,0,0,0,.989.155Zm1.1-.644a7.639,7.639,0,0,1-1.68-.1h-.238c-.608-.107-1.132-.3-1.192-.584a.106.106,0,1,1,.2-.06c0,.179.787.31,1.061.358h.25a7.377,7.377,0,0,0,1.609.155.107.107,0,1,1,0,.215Zm0-.882c-1.633,0-2.944-.3-2.944-.667s1.311-.679,2.944-.679,2.944.3,2.944.679-1.287.667-2.908.667Z" transform="translate(2.194 2.138)" fill="#231815"/>
        <path id="パス_112" data-name="パス 112" d="M21.386,8.1c-.489-.953-1.6-1.514-1.954-2.538A3.3,3.3,0,0,1,19,3.849a5.959,5.959,0,0,1,.358-2.014,2.693,2.693,0,0,1,.25-.715C19.681,1,19.979.8,20,.691S19.61.262,19.372.2A6.888,6.888,0,0,0,17.81,0h-.465a6.984,6.984,0,0,0-1.49.191c-.238,0-.691.2-.632.489s.322.31.393.429a2.384,2.384,0,0,1,.25.715,6.245,6.245,0,0,1,.358,2.014,3.408,3.408,0,0,1-.405,1.716c-.369,1.025-1.478,1.585-1.954,2.538a10.368,10.368,0,0,0-1.084,5.017,11.918,11.918,0,0,1,1.823-.143h0a6.936,6.936,0,0,1,3.313.632.763.763,0,0,1,.393.608,26.493,26.493,0,0,1-.322,4.076c-.131.417-.5.644-1.025.834h.667c2.67,0,4.207-.632,4.409-1.347a20.51,20.51,0,0,0,.405-4.445A10.607,10.607,0,0,0,21.386,8.1Z" transform="translate(2.449)" fill="#231815"/>
      </g>
    </g>
  </g>
</svg>
