<svg xmlns="http://www.w3.org/2000/svg" width="124" height="124" viewBox="0 0 124 124">
  <g id="グループ_41333" data-name="グループ 41333" transform="translate(-4798 1466)">
    <path id="パス_3759" data-name="パス 3759" d="M62,0A62,62,0,1,1,0,62,62,62,0,0,1,62,0Z" transform="translate(4798 -1466)" fill="#d97f3f"/>
    <path id="パス_3760" data-name="パス 3760" d="M-21.22-13.64a25.392,25.392,0,0,1-.1,2.68,17.06,17.06,0,0,1-1.92,7.28A10.987,10.987,0,0,1-26.2-.18a5.47,5.47,0,0,1,1.36,1.52A15.072,15.072,0,0,0-22.8-.88a14.214,14.214,0,0,0,2.56-5.4,28.424,28.424,0,0,0,.82-7.36h3.16c-.04,3.54-.04,4.2-.12,6.2-.08,1.82-.26,3.86-.44,4.96C-17.06-.94-17.22-.7-18.1-.7a18.314,18.314,0,0,1-2.68-.24A5.547,5.547,0,0,1-20.36.94c.96.08,1.7.12,2.34.12A3.66,3.66,0,0,0-16.4.82,1.921,1.921,0,0,0-15.34-.44c.44-1.36.76-5.16.86-10.44.02-1.14.04-1.8.04-1.98.02-1.26.02-1.26.02-1.38.02-.52.04-.72.08-1.12a13.611,13.611,0,0,1-1.92.1h-5.7a18.388,18.388,0,0,1-2.34-.12v1.86a17.747,17.747,0,0,1,2.34-.12Zm-3.04,3.5a11.424,11.424,0,0,1-2,2.88,6.089,6.089,0,0,1-.88-.8,20.032,20.032,0,0,0,2.32-3.74,7.238,7.238,0,0,1,.4-.8l-.78-.98a9.461,9.461,0,0,1-1.46.08h-.58v-1.58a7.084,7.084,0,0,1,.12-1.66H-29.1a9.582,9.582,0,0,1,.12,1.66v1.58h-.76a10.954,10.954,0,0,1-1.9-.1v1.78a14.774,14.774,0,0,1,1.86-.1h3.14a13.376,13.376,0,0,1-2.92,4.08,15.153,15.153,0,0,1-2.86,2.26,5.263,5.263,0,0,1,.9,1.64A18.342,18.342,0,0,0-29-6.02c0,.26-.02.96-.02,1.06V-.9a20.736,20.736,0,0,1-.12,2.42h1.98a17.53,17.53,0,0,1-.12-2.4V-6.22a19.122,19.122,0,0,0,2.62,2.14,6.362,6.362,0,0,1,.96-1.4,10.527,10.527,0,0,1-1.42-.9,24.368,24.368,0,0,0,2.18-2.76ZM4.16-14.1a11.952,11.952,0,0,1-2.12,2.54c-.5-.4-.84-.68-1.42-1.22a30.945,30.945,0,0,0,2.2-2.4L1.4-16.14A11.468,11.468,0,0,1-.42-13.82,5.1,5.1,0,0,1-1.9-16.28a11.486,11.486,0,0,1-1.74.08H-7.42a7.956,7.956,0,0,1-1.56-.1v1.7a9.6,9.6,0,0,1,1.24-.08h3.06a12.388,12.388,0,0,1-2.16,2.4,26.926,26.926,0,0,0-2.82-2.44l-1.24,1.1a19.785,19.785,0,0,1,2.78,2.4,18.49,18.49,0,0,1-4.1,2.28,4.636,4.636,0,0,1,.94,1.54A18.819,18.819,0,0,0-6.4-10.48v1.26A9.835,9.835,0,0,1-4.88-9.3h4.2a9.016,9.016,0,0,1,1.44.08v-1.24a17.875,17.875,0,0,0,4.92,3,5.324,5.324,0,0,1,.9-1.66,16.317,16.317,0,0,1-3.3-1.58,22.326,22.326,0,0,0,1.9-1.98,4.38,4.38,0,0,1,.4-.44Zm-9.1,3.32a8.39,8.39,0,0,1-1.08-.04,15.6,15.6,0,0,0,3.2-3.62A15.228,15.228,0,0,0,.34-10.8c-.42.02-.5.02-1,.02ZM-9.76-.58A10.4,10.4,0,0,1-11.7-.7V1.16a13.941,13.941,0,0,1,2.04-.12H4.12a13.866,13.866,0,0,1,2.06.12V-.7a10.637,10.637,0,0,1-1.96.12H.58c.26-.38.64-1.06,1.08-1.88L-.02-3.1A13.553,13.553,0,0,1-1.2-.58H-4.38A17.22,17.22,0,0,0-5.52-3.04l-1.62.6A9.674,9.674,0,0,1-6.18-.58ZM1.78-3.12a13.469,13.469,0,0,1,1.48.06c-.04-.46-.06-.8-.06-1.42V-6.82a13.049,13.049,0,0,1,.06-1.36,11,11,0,0,1-1.54.08H-7.3a12.951,12.951,0,0,1-1.6-.08,7.507,7.507,0,0,1,.1,1.36v2.34a11.059,11.059,0,0,1-.08,1.42A13.722,13.722,0,0,1-7.4-3.12ZM-7.06-6.6H1.46v1.98H-7.06Zm25.1,1.84a11.17,11.17,0,0,1-4.8,3.34,4.588,4.588,0,0,1,1.1,1.28,12.868,12.868,0,0,0,5.52-4.62h1.52a9.173,9.173,0,0,1-2.06,2.82A13.033,13.033,0,0,1,15.72.4a4.436,4.436,0,0,1,1.24,1.28A15.623,15.623,0,0,0,18.66.62a18.511,18.511,0,0,0,2.52-2.28,12.3,12.3,0,0,0,1.92-3.1h.98A16.16,16.16,0,0,1,23.46-.6c-.12.24-.42.36-.98.36a16.691,16.691,0,0,1-2.36-.2,4.318,4.318,0,0,1,.56,1.78c.64.04,1.22.06,1.76.06,1.48,0,2.06-.24,2.46-.98a16.975,16.975,0,0,0,.9-5.48,7.126,7.126,0,0,1,.1-1.2,16.446,16.446,0,0,1-1.96.08H17.46a10.075,10.075,0,0,0,.72-1.08h6.1a18.221,18.221,0,0,1,2.04.08v-1.7a12.514,12.514,0,0,1-2.04.12H15.62a10.567,10.567,0,0,1-1.86-.1v1.7a13.31,13.31,0,0,1,1.84-.1h.76A7.931,7.931,0,0,1,13.58-4.6l.02-1.24c-.62.32-.84.42-1.42.68v-4.96h.42a12.79,12.79,0,0,1,1.5.08v-1.78a9.671,9.671,0,0,1-1.52.08h-.4v-2.58a13.494,13.494,0,0,1,.12-2.22H10.32a15.846,15.846,0,0,1,.12,2.2v2.6H9.78a9.864,9.864,0,0,1-1.64-.1v1.82a12.942,12.942,0,0,1,1.6-.1h.7v5.64A11.47,11.47,0,0,1,8.1-3.8l.38,1.98c.12-.06.62-.28,1.16-.5.78-.3,2.68-1.14,3.34-1.48a4.519,4.519,0,0,1,.72.94,11.86,11.86,0,0,0,2.54-1.9ZM22.88-9.8c.8,0,1.38.02,1.82.06a13.826,13.826,0,0,1-.08-1.86v-2.66a12.322,12.322,0,0,1,.08-1.92,15.1,15.1,0,0,1-2.12.1h-5.6a13.632,13.632,0,0,1-1.98-.1,14.767,14.767,0,0,1,.08,1.8v2.78c0,.78-.04,1.34-.08,1.88a14.506,14.506,0,0,1,1.82-.08ZM16.8-14.64h6.08v1.08H16.8Zm0,2.38h6.08v1.12H16.8Zm14.16,7.8H29.04l-.5-9.82h2.92Zm-2.5,3.18a1.419,1.419,0,0,1,.45-1.19A1.722,1.722,0,0,1,30-2.82a1.691,1.691,0,0,1,1.07.35,1.419,1.419,0,0,1,.45,1.19A1.424,1.424,0,0,1,31.07-.1,1.66,1.66,0,0,1,30,.26,1.69,1.69,0,0,1,28.91-.1,1.424,1.424,0,0,1,28.46-1.28Z" transform="translate(4860 -1400)" fill="#fff"/>
    <path id="パス_3762" data-name="パス 3762" d="M-9.492-7.2a9.872,9.872,0,0,1,1.6.1V-8.386a9.5,9.5,0,0,1-1.61.1h-4.088c.028-.5.042-.952.056-1.638a8.66,8.66,0,0,1,.1-1.512H-14.8a10.585,10.585,0,0,1,.1,1.778c0,.532-.014.91-.028,1.372h-3.766a9.366,9.366,0,0,1-1.624-.1V-7.1a9.183,9.183,0,0,1,1.61-.1h3.682c-.364,2.9-1.3,4.522-3.458,5.992A10.284,10.284,0,0,1-20.412-.1a3.24,3.24,0,0,1,.7,1.022A10.955,10.955,0,0,0-16.59-1.05a8.678,8.678,0,0,0,2.6-4.676,10.941,10.941,0,0,0,3.794,5.39A13.34,13.34,0,0,0-8.19.91,4.678,4.678,0,0,1-7.448-.224,9.126,9.126,0,0,1-8.932-.966,9.468,9.468,0,0,1-11.368-3.01,11.167,11.167,0,0,1-13.482-7.2ZM.84-6.888A10.587,10.587,0,0,0,2.478-2.394,8.81,8.81,0,0,1-1.092.154a2.87,2.87,0,0,1,.756.868A9.835,9.835,0,0,0,3.08-1.568,10.177,10.177,0,0,0,6.1.952,3.172,3.172,0,0,1,6.72-.084,8.674,8.674,0,0,1,3.738-2.408a14.184,14.184,0,0,0,1.9-4.27c.1-.336.14-.434.21-.63L5.306-7.9a5.364,5.364,0,0,1-1.134.07H.336C.35-8.246.35-8.484.35-9v-1.036H4.886a11.894,11.894,0,0,1,1.386.07V-11.1a9.892,9.892,0,0,1-1.428.084H.812c-.56,0-1.064-.028-1.554-.07.042.434.056.882.056,1.386A27.007,27.007,0,0,1-1.246-3,6.31,6.31,0,0,1-3.36.294a2.972,2.972,0,0,1,.868.728A8.064,8.064,0,0,0-.448-2.114,14.839,14.839,0,0,0,.308-6.888Zm3.766,0a11.312,11.312,0,0,1-1.5,3.626,8.97,8.97,0,0,1-1.3-3.626ZM-5.74-.378a9.342,9.342,0,0,1-.084,1.4h1.2a11.979,11.979,0,0,1-.07-1.3V-10.3h2.24A14.087,14.087,0,0,1-4.018-6.93,4.382,4.382,0,0,1-2.744-4.942a3.7,3.7,0,0,1,.14.924c0,.574-.154.742-.672.742A6.4,6.4,0,0,1-4.3-3.36,2.262,2.262,0,0,1-4.06-2.324c.294.014.406.014.532.014a3.41,3.41,0,0,0,1.12-.14c.518-.182.812-.714.812-1.526A4.209,4.209,0,0,0-1.862-5.39a5.758,5.758,0,0,0-.994-1.652A19.967,19.967,0,0,0-1.442-10,3.5,3.5,0,0,1-1.2-10.57l-.532-.728a4.867,4.867,0,0,1-.882.056H-4.872a7.606,7.606,0,0,1-.91-.042c.028.448.042.686.042,1.148Zm20.846-6.4A11.532,11.532,0,0,0,16.66-2.268,8.684,8.684,0,0,1,13.888.112a3.312,3.312,0,0,1,.686.938,10.484,10.484,0,0,0,2.688-2.464A10.525,10.525,0,0,0,19.936,1.05,4.319,4.319,0,0,1,20.552.028a8.082,8.082,0,0,1-2.674-2.31A14.667,14.667,0,0,0,19.74-6.636c.07-.28.07-.28.168-.588l-.532-.546a6.835,6.835,0,0,1-1.288.07H14.812c.014-.448.014-.658.014-1.008V-10.08H18.7c.532,0,1.106.028,1.526.07v-1.12a11.46,11.46,0,0,1-1.554.084H15.19a12.088,12.088,0,0,1-1.442-.07c.042.476.056.868.056,1.694A43.08,43.08,0,0,1,13.5-3.178,8.31,8.31,0,0,1,12.32.462a2.342,2.342,0,0,1,.84.7,10.825,10.825,0,0,0,1.372-4.438c.112-.966.224-2.31.252-3.5Zm3.584,0a10.571,10.571,0,0,1-1.414,3.6,10.038,10.038,0,0,1-1.232-3.6Zm-7.5,2.8v3.43a10.932,10.932,0,0,1-.07,1.568h1.148a11.675,11.675,0,0,1-.07-1.568v-3.22a11.432,11.432,0,0,1,.042-1.218,8.36,8.36,0,0,1-1.176.056H9.534c.014-.644.028-1.036.028-1.89h2.394a8.324,8.324,0,0,1,1.274.056V-7.84a5.247,5.247,0,0,1-1.148.07v-2.38a11.636,11.636,0,0,1,.07-1.344H10.99a8.659,8.659,0,0,1,.084,1.344v2.38H9.562v-1.9a13.108,13.108,0,0,1,.07-1.512H8.456a10.131,10.131,0,0,1,.084,1.47V-6.65C8.54-2.786,8.26-.868,7.5.406a3.09,3.09,0,0,1,.924.728,12.285,12.285,0,0,0,1.064-5.11Z" transform="translate(4860 -1423)" fill="#fff"/>
    <path id="パス_3761" data-name="パス 3761" d="M-21.816-7.62a7.138,7.138,0,0,1,1.116.06v-.984a6.863,6.863,0,0,1-1.116.06h-5.952c.192-.384.288-.564.384-.792.156-.384.2-.468.288-.66l-1.032-.216A7.452,7.452,0,0,1-29.34-7.644,7.949,7.949,0,0,1-31.068-5.88a3.257,3.257,0,0,1,.636.78,11.288,11.288,0,0,0,2.16-2.52Zm-2.352,2.3A19.74,19.74,0,0,0-27.084-3.5C-28.644-2.352-29.256-1.56-29.256-.7c0,.552.348.924,1.044,1.1A12.636,12.636,0,0,0-25.392.6C-22.068.6-21.5.456-21.1-.54a5.984,5.984,0,0,0,.348-1.752,2.922,2.922,0,0,1-.948-.336c-.06,1.26-.192,1.728-.516,2.016-.324.264-.924.336-3,.336A12.829,12.829,0,0,1-27.7-.4c-.36-.084-.528-.252-.528-.528a.9.9,0,0,1,.156-.48A8.431,8.431,0,0,1-25.776-3.42a26.712,26.712,0,0,1,3.492-2.028l-.444-.732a5.115,5.115,0,0,1-1.068.06h-3.84a6.789,6.789,0,0,1-1.1-.06v.924a6.88,6.88,0,0,1,1.1-.06Zm7.752-3.252a23.774,23.774,0,0,0,5.208.78l.156-1.032a18.21,18.21,0,0,1-3.324-.3,8.875,8.875,0,0,1-1.692-.432ZM-17.6-4.644a16.893,16.893,0,0,1,4.716-.8c1.332,0,2.064.54,2.064,1.524a2.809,2.809,0,0,1-1.6,2.388,8.065,8.065,0,0,1-3.456.96A3.2,3.2,0,0,1-15.42.468,9.785,9.785,0,0,0-11.844-.648,3.892,3.892,0,0,0-9.72-3.984a2.235,2.235,0,0,0-1.068-1.968,4.093,4.093,0,0,0-2.1-.468,20.078,20.078,0,0,0-3.72.432,10.11,10.11,0,0,1-1.26.2Zm12.528-3.1c.156.012.192.012.408.036a21.409,21.409,0,0,0,2.532.156A11.632,11.632,0,0,0-.348-7.68l-.228.12-.312.168c-.48.276-.7.408-1.476.924l.732.588A17.787,17.787,0,0,1,1.44-7.752l-.06-.96a14.008,14.008,0,0,1-3.156.24A14.06,14.06,0,0,1-4.992-8.76ZM2.076-1.632a11.712,11.712,0,0,1-3.624.468A8.485,8.485,0,0,1-3.72-1.38c-.648-.216-.984-.588-.984-1.1,0-.552.36-1.092,1.128-1.728l-.732-.552a3.22,3.22,0,0,0-1.428,2.4A1.938,1.938,0,0,0-4.32-.5,8.505,8.505,0,0,0-1.476-.12,20.7,20.7,0,0,0,1.752-.4a3.668,3.668,0,0,1,.432-.06ZM1.752-6.888a8.794,8.794,0,0,1,1.236,1.86l.7-.4a8.954,8.954,0,0,0-1.26-1.824ZM.36-6.24a8.376,8.376,0,0,1,1.248,1.9l.708-.4A9.391,9.391,0,0,0,1.056-6.6Zm14.052,3.3V-.312c0,.192-.1.264-.372.264a5.883,5.883,0,0,1-1.272-.144A3.653,3.653,0,0,1,13,.792c.612.048.72.048.936.048C15,.84,15.288.624,15.288-.18V-8.22a10.166,10.166,0,0,1,.048-1.212,10,10,0,0,1-1.176.048H12.48a10.594,10.594,0,0,1-1.2-.048,12.776,12.776,0,0,1,.048,1.44A48.24,48.24,0,0,1,11.112-2.3,4.349,4.349,0,0,1,9.96.252a2.535,2.535,0,0,1,.72.672A6.4,6.4,0,0,0,12.06-2.94Zm0-2.856v2.04H12.12c.024-.6.048-1.38.06-2.04Zm0-.816h-2.22V-8.556h2.22ZM6.1-8.544h-.06a4.658,4.658,0,0,1-.984-.072v.9A6.489,6.489,0,0,1,6.1-7.764v4.98H5.82a4.688,4.688,0,0,1-.948-.06v.9A4.9,4.9,0,0,1,5.832-2h3.84c.468,0,.792.012,1.068.036v-.876a5.49,5.49,0,0,1-.888.06v-4.98a6.335,6.335,0,0,1,.948.048v-.9a4.653,4.653,0,0,1-.948.072V-8.76a7.025,7.025,0,0,1,.072-1.116H8.952a6.611,6.611,0,0,1,.06,1.1v.228H6.936V-8.76A7.232,7.232,0,0,1,7-9.876h-.96a9.387,9.387,0,0,1,.06,1.1Zm.84,5.76V-4.032H9.012v1.248Zm0-1.992V-5.9H9.012v1.128Zm0-1.872V-7.764H9.012v1.116Zm-.2,4.968A4.912,4.912,0,0,1,4.944.192,2.226,2.226,0,0,1,5.6.876,6.852,6.852,0,0,0,7.476-1.236ZM8.3-1.224A5.917,5.917,0,0,0,9.48.192a3.54,3.54,0,0,1,.648-.624A4.378,4.378,0,0,1,8.964-1.668ZM23.316-7.86v1.488H21.408a7.486,7.486,0,0,1-1.164-.072v.936a7.824,7.824,0,0,1,1.164-.06h3.648V-4.26H21.264A7.486,7.486,0,0,1,20.1-4.332v.96a8.348,8.348,0,0,1,1.2-.072h3.756v3.06c0,.2-.084.276-.336.276a2.222,2.222,0,0,0-.3.012h-.048A11.238,11.238,0,0,1,23.088-.24a3.414,3.414,0,0,1,.24.96c.42.036.828.048,1.092.048A3.448,3.448,0,0,0,25.6.612c.252-.12.384-.4.384-.84V-3.444h.444a8.007,8.007,0,0,1,1.2.072v-.96a8.3,8.3,0,0,1-1.212.072H25.98V-5.568h.432a10.66,10.66,0,0,1,1.212.06v-.936a8.479,8.479,0,0,1-1.224.072H24.216V-7.86h1.74a7.747,7.747,0,0,1,1.152.06v-.924a7.593,7.593,0,0,1-1.164.072H24.216v-.432a5.879,5.879,0,0,1,.06-.96H23.244a6.229,6.229,0,0,1,.072.96v.432H21.792a7.486,7.486,0,0,1-1.164-.072V-7.8a7.671,7.671,0,0,1,1.14-.06Zm-3.888-2.268a6.9,6.9,0,0,1-2.58,2.448,2.631,2.631,0,0,1,.54.756,10.681,10.681,0,0,0,2.388-2.148c.336-.4.336-.4.432-.5Zm4.08,8.976A14.007,14.007,0,0,0,21.7-3.144l-.708.516A9.42,9.42,0,0,1,22.752-.552Zm-5.232.66A10.648,10.648,0,0,1,18.2.912h1.02a10.352,10.352,0,0,1-.06-1.4V-5.424a10.025,10.025,0,0,0,.756-1.044,5.819,5.819,0,0,1,.324-.492l-.8-.5a8.342,8.342,0,0,1-2.712,3.216,3.122,3.122,0,0,1,.48.852,5.482,5.482,0,0,0,1.1-1.14c-.036.576-.036.888-.036,1.368Zm12.18-2.052h-.9l-.3-6.024h1.5ZM29.172-.708a.8.8,0,0,1,.24-.66A.911.911,0,0,1,30-1.56a.9.9,0,0,1,.57.192.789.789,0,0,1,.246.66.827.827,0,0,1-.246.672.867.867,0,0,1-.57.2.877.877,0,0,1-.588-.2A.838.838,0,0,1,29.172-.708Z" transform="translate(4860 -1377.98)" fill="#fff"/>
  </g>
</svg>
