<svg xmlns="http://www.w3.org/2000/svg" width="124" height="124" viewBox="0 0 124 124">
  <g id="グループ_41334" data-name="グループ 41334" transform="translate(-4798 1733)">
    <path id="パス_3755" data-name="パス 3755" d="M62,0A62,62,0,1,1,0,62,62,62,0,0,1,62,0Z" transform="translate(4798 -1733)" fill="#d97f3f"/>
    <path id="パス_3756" data-name="パス 3756" d="M-21.22-13.64a25.392,25.392,0,0,1-.1,2.68,17.06,17.06,0,0,1-1.92,7.28A10.987,10.987,0,0,1-26.2-.18a5.47,5.47,0,0,1,1.36,1.52A15.072,15.072,0,0,0-22.8-.88a14.214,14.214,0,0,0,2.56-5.4,28.424,28.424,0,0,0,.82-7.36h3.16c-.04,3.54-.04,4.2-.12,6.2-.08,1.82-.26,3.86-.44,4.96C-17.06-.94-17.22-.7-18.1-.7a18.314,18.314,0,0,1-2.68-.24A5.547,5.547,0,0,1-20.36.94c.96.08,1.7.12,2.34.12A3.66,3.66,0,0,0-16.4.82,1.921,1.921,0,0,0-15.34-.44c.44-1.36.76-5.16.86-10.44.02-1.14.04-1.8.04-1.98.02-1.26.02-1.26.02-1.38.02-.52.04-.72.08-1.12a13.611,13.611,0,0,1-1.92.1h-5.7a18.388,18.388,0,0,1-2.34-.12v1.86a17.747,17.747,0,0,1,2.34-.12Zm-3.04,3.5a11.424,11.424,0,0,1-2,2.88,6.089,6.089,0,0,1-.88-.8,20.032,20.032,0,0,0,2.32-3.74,7.238,7.238,0,0,1,.4-.8l-.78-.98a9.461,9.461,0,0,1-1.46.08h-.58v-1.58a7.084,7.084,0,0,1,.12-1.66H-29.1a9.582,9.582,0,0,1,.12,1.66v1.58h-.76a10.954,10.954,0,0,1-1.9-.1v1.78a14.774,14.774,0,0,1,1.86-.1h3.14a13.376,13.376,0,0,1-2.92,4.08,15.153,15.153,0,0,1-2.86,2.26,5.263,5.263,0,0,1,.9,1.64A18.342,18.342,0,0,0-29-6.02c0,.26-.02.96-.02,1.06V-.9a20.736,20.736,0,0,1-.12,2.42h1.98a17.53,17.53,0,0,1-.12-2.4V-6.22a19.122,19.122,0,0,0,2.62,2.14,6.362,6.362,0,0,1,.96-1.4,10.527,10.527,0,0,1-1.42-.9,24.368,24.368,0,0,0,2.18-2.76ZM4.16-14.1a11.952,11.952,0,0,1-2.12,2.54c-.5-.4-.84-.68-1.42-1.22a30.945,30.945,0,0,0,2.2-2.4L1.4-16.14A11.468,11.468,0,0,1-.42-13.82,5.1,5.1,0,0,1-1.9-16.28a11.486,11.486,0,0,1-1.74.08H-7.42a7.956,7.956,0,0,1-1.56-.1v1.7a9.6,9.6,0,0,1,1.24-.08h3.06a12.388,12.388,0,0,1-2.16,2.4,26.926,26.926,0,0,0-2.82-2.44l-1.24,1.1a19.785,19.785,0,0,1,2.78,2.4,18.49,18.49,0,0,1-4.1,2.28,4.636,4.636,0,0,1,.94,1.54A18.819,18.819,0,0,0-6.4-10.48v1.26A9.835,9.835,0,0,1-4.88-9.3h4.2a9.016,9.016,0,0,1,1.44.08v-1.24a17.875,17.875,0,0,0,4.92,3,5.324,5.324,0,0,1,.9-1.66,16.317,16.317,0,0,1-3.3-1.58,22.326,22.326,0,0,0,1.9-1.98,4.38,4.38,0,0,1,.4-.44Zm-9.1,3.32a8.39,8.39,0,0,1-1.08-.04,15.6,15.6,0,0,0,3.2-3.62A15.228,15.228,0,0,0,.34-10.8c-.42.02-.5.02-1,.02ZM-9.76-.58A10.4,10.4,0,0,1-11.7-.7V1.16a13.941,13.941,0,0,1,2.04-.12H4.12a13.866,13.866,0,0,1,2.06.12V-.7a10.637,10.637,0,0,1-1.96.12H.58c.26-.38.64-1.06,1.08-1.88L-.02-3.1A13.553,13.553,0,0,1-1.2-.58H-4.38A17.22,17.22,0,0,0-5.52-3.04l-1.62.6A9.674,9.674,0,0,1-6.18-.58ZM1.78-3.12a13.469,13.469,0,0,1,1.48.06c-.04-.46-.06-.8-.06-1.42V-6.82a13.049,13.049,0,0,1,.06-1.36,11,11,0,0,1-1.54.08H-7.3a12.951,12.951,0,0,1-1.6-.08,7.507,7.507,0,0,1,.1,1.36v2.34a11.059,11.059,0,0,1-.08,1.42A13.722,13.722,0,0,1-7.4-3.12ZM-7.06-6.6H1.46v1.98H-7.06Zm25.1,1.84a11.17,11.17,0,0,1-4.8,3.34,4.588,4.588,0,0,1,1.1,1.28,12.868,12.868,0,0,0,5.52-4.62h1.52a9.173,9.173,0,0,1-2.06,2.82A13.033,13.033,0,0,1,15.72.4a4.436,4.436,0,0,1,1.24,1.28A15.623,15.623,0,0,0,18.66.62a18.511,18.511,0,0,0,2.52-2.28,12.3,12.3,0,0,0,1.92-3.1h.98A16.16,16.16,0,0,1,23.46-.6c-.12.24-.42.36-.98.36a16.691,16.691,0,0,1-2.36-.2,4.318,4.318,0,0,1,.56,1.78c.64.04,1.22.06,1.76.06,1.48,0,2.06-.24,2.46-.98a16.975,16.975,0,0,0,.9-5.48,7.126,7.126,0,0,1,.1-1.2,16.446,16.446,0,0,1-1.96.08H17.46a10.075,10.075,0,0,0,.72-1.08h6.1a18.221,18.221,0,0,1,2.04.08v-1.7a12.514,12.514,0,0,1-2.04.12H15.62a10.567,10.567,0,0,1-1.86-.1v1.7a13.31,13.31,0,0,1,1.84-.1h.76A7.931,7.931,0,0,1,13.58-4.6l.02-1.24c-.62.32-.84.42-1.42.68v-4.96h.42a12.79,12.79,0,0,1,1.5.08v-1.78a9.671,9.671,0,0,1-1.52.08h-.4v-2.58a13.494,13.494,0,0,1,.12-2.22H10.32a15.846,15.846,0,0,1,.12,2.2v2.6H9.78a9.864,9.864,0,0,1-1.64-.1v1.82a12.942,12.942,0,0,1,1.6-.1h.7v5.64A11.47,11.47,0,0,1,8.1-3.8l.38,1.98c.12-.06.62-.28,1.16-.5.78-.3,2.68-1.14,3.34-1.48a4.519,4.519,0,0,1,.72.94,11.86,11.86,0,0,0,2.54-1.9ZM22.88-9.8c.8,0,1.38.02,1.82.06a13.826,13.826,0,0,1-.08-1.86v-2.66a12.322,12.322,0,0,1,.08-1.92,15.1,15.1,0,0,1-2.12.1h-5.6a13.632,13.632,0,0,1-1.98-.1,14.767,14.767,0,0,1,.08,1.8v2.78c0,.78-.04,1.34-.08,1.88a14.506,14.506,0,0,1,1.82-.08ZM16.8-14.64h6.08v1.08H16.8Zm0,2.38h6.08v1.12H16.8Zm14.16,7.8H29.04l-.5-9.82h2.92Zm-2.5,3.18a1.419,1.419,0,0,1,.45-1.19A1.722,1.722,0,0,1,30-2.82a1.691,1.691,0,0,1,1.07.35,1.419,1.419,0,0,1,.45,1.19A1.424,1.424,0,0,1,31.07-.1,1.66,1.66,0,0,1,30,.26,1.69,1.69,0,0,1,28.91-.1,1.424,1.424,0,0,1,28.46-1.28Z" transform="translate(4860 -1672)" fill="#fff"/>
    <path id="パス_3757" data-name="パス 3757" d="M-9.492-7.2a9.872,9.872,0,0,1,1.6.1V-8.386a9.5,9.5,0,0,1-1.61.1h-4.088c.028-.5.042-.952.056-1.638a8.66,8.66,0,0,1,.1-1.512H-14.8a10.585,10.585,0,0,1,.1,1.778c0,.532-.014.91-.028,1.372h-3.766a9.366,9.366,0,0,1-1.624-.1V-7.1a9.183,9.183,0,0,1,1.61-.1h3.682c-.364,2.9-1.3,4.522-3.458,5.992A10.284,10.284,0,0,1-20.412-.1a3.24,3.24,0,0,1,.7,1.022A10.955,10.955,0,0,0-16.59-1.05a8.678,8.678,0,0,0,2.6-4.676,10.941,10.941,0,0,0,3.794,5.39A13.34,13.34,0,0,0-8.19.91,4.678,4.678,0,0,1-7.448-.224,9.126,9.126,0,0,1-8.932-.966,9.468,9.468,0,0,1-11.368-3.01,11.167,11.167,0,0,1-13.482-7.2ZM.84-6.888A10.587,10.587,0,0,0,2.478-2.394,8.81,8.81,0,0,1-1.092.154a2.87,2.87,0,0,1,.756.868A9.835,9.835,0,0,0,3.08-1.568,10.177,10.177,0,0,0,6.1.952,3.172,3.172,0,0,1,6.72-.084,8.674,8.674,0,0,1,3.738-2.408a14.184,14.184,0,0,0,1.9-4.27c.1-.336.14-.434.21-.63L5.306-7.9a5.364,5.364,0,0,1-1.134.07H.336C.35-8.246.35-8.484.35-9v-1.036H4.886a11.894,11.894,0,0,1,1.386.07V-11.1a9.892,9.892,0,0,1-1.428.084H.812c-.56,0-1.064-.028-1.554-.07.042.434.056.882.056,1.386A27.007,27.007,0,0,1-1.246-3,6.31,6.31,0,0,1-3.36.294a2.972,2.972,0,0,1,.868.728A8.064,8.064,0,0,0-.448-2.114,14.839,14.839,0,0,0,.308-6.888Zm3.766,0a11.312,11.312,0,0,1-1.5,3.626,8.97,8.97,0,0,1-1.3-3.626ZM-5.74-.378a9.342,9.342,0,0,1-.084,1.4h1.2a11.979,11.979,0,0,1-.07-1.3V-10.3h2.24A14.087,14.087,0,0,1-4.018-6.93,4.382,4.382,0,0,1-2.744-4.942a3.7,3.7,0,0,1,.14.924c0,.574-.154.742-.672.742A6.4,6.4,0,0,1-4.3-3.36,2.262,2.262,0,0,1-4.06-2.324c.294.014.406.014.532.014a3.41,3.41,0,0,0,1.12-.14c.518-.182.812-.714.812-1.526A4.209,4.209,0,0,0-1.862-5.39a5.758,5.758,0,0,0-.994-1.652A19.967,19.967,0,0,0-1.442-10,3.5,3.5,0,0,1-1.2-10.57l-.532-.728a4.867,4.867,0,0,1-.882.056H-4.872a7.606,7.606,0,0,1-.91-.042c.028.448.042.686.042,1.148Zm20.846-6.4A11.532,11.532,0,0,0,16.66-2.268,8.684,8.684,0,0,1,13.888.112a3.312,3.312,0,0,1,.686.938,10.484,10.484,0,0,0,2.688-2.464A10.525,10.525,0,0,0,19.936,1.05,4.319,4.319,0,0,1,20.552.028a8.082,8.082,0,0,1-2.674-2.31A14.667,14.667,0,0,0,19.74-6.636c.07-.28.07-.28.168-.588l-.532-.546a6.835,6.835,0,0,1-1.288.07H14.812c.014-.448.014-.658.014-1.008V-10.08H18.7c.532,0,1.106.028,1.526.07v-1.12a11.46,11.46,0,0,1-1.554.084H15.19a12.088,12.088,0,0,1-1.442-.07c.042.476.056.868.056,1.694A43.08,43.08,0,0,1,13.5-3.178,8.31,8.31,0,0,1,12.32.462a2.342,2.342,0,0,1,.84.7,10.825,10.825,0,0,0,1.372-4.438c.112-.966.224-2.31.252-3.5Zm3.584,0a10.571,10.571,0,0,1-1.414,3.6,10.038,10.038,0,0,1-1.232-3.6Zm-7.5,2.8v3.43a10.932,10.932,0,0,1-.07,1.568h1.148a11.675,11.675,0,0,1-.07-1.568v-3.22a11.432,11.432,0,0,1,.042-1.218,8.36,8.36,0,0,1-1.176.056H9.534c.014-.644.028-1.036.028-1.89h2.394a8.324,8.324,0,0,1,1.274.056V-7.84a5.247,5.247,0,0,1-1.148.07v-2.38a11.636,11.636,0,0,1,.07-1.344H10.99a8.659,8.659,0,0,1,.084,1.344v2.38H9.562v-1.9a13.108,13.108,0,0,1,.07-1.512H8.456a10.131,10.131,0,0,1,.084,1.47V-6.65C8.54-2.786,8.26-.868,7.5.406a3.09,3.09,0,0,1,.924.728,12.285,12.285,0,0,0,1.064-5.11Z" transform="translate(4860 -1695)" fill="#fff"/>
    <path id="パス_3758" data-name="パス 3758" d="M-37.11-8.088h-3.528a9.192,9.192,0,0,1-1.344-.072v.816a10.007,10.007,0,0,1,1.344-.06h3.528v.66h-2.544a7.691,7.691,0,0,1-1.188-.06v.768a10.1,10.1,0,0,1,1.188-.048h2.544v.612h-2.76a8.123,8.123,0,0,1-1.224-.06v.792A8.32,8.32,0,0,1-39.87-4.8h2.76v.636h-3.528a9.381,9.381,0,0,1-1.356-.072v.852a11.143,11.143,0,0,1,1.356-.072h7.968a11.426,11.426,0,0,1,1.356.072v-.852a9.268,9.268,0,0,1-1.356.072h-3.6V-4.8h2.88a8.42,8.42,0,0,1,1.224.06v-.792a8.123,8.123,0,0,1-1.224.06h-2.88v-.612h2.448a12.415,12.415,0,0,1,1.3.048A8.556,8.556,0,0,1-32.562-7V-7.4a8.257,8.257,0,0,1,1.272.06v-.8a7.582,7.582,0,0,1-1.2.06h-.072v-.288a9.339,9.339,0,0,1,.036-1.044,12.454,12.454,0,0,1-1.332.048H-36.27a2.977,2.977,0,0,1,.084-.756h-1a4.37,4.37,0,0,1,.072.756h-2.46a8.5,8.5,0,0,1-1.248-.072v.816a7.824,7.824,0,0,1,1.164-.06h2.544Zm.84,0v-.6H-33.4v.6Zm0,.684H-33.4v.66H-36.27Zm-4.2,7.092a6.513,6.513,0,0,1-.072,1.2h.948V.444h5.928V.888h.948a5.849,5.849,0,0,1-.072-1.2V-1.764a8.124,8.124,0,0,1,.048-1.152,10.771,10.771,0,0,1-1.368.036h-5.04a11.125,11.125,0,0,1-1.368-.036,8.254,8.254,0,0,1,.048,1.14Zm.876-1.9h5.928v.624h-5.928Zm0,1.284h5.928V-.24h-5.928Zm15.108-2.628h-1.632A7.9,7.9,0,0,1-27.15-3.6,8.683,8.683,0,0,1-27.1-2.544v1.98A10.6,10.6,0,0,1-27.174.888h.972V.324h4.968V.888h.972A9.273,9.273,0,0,1-20.334-.6V-2.472A10.15,10.15,0,0,1-20.286-3.6a7.9,7.9,0,0,1-1.032.048H-23.6v-1.7h2.7a7.658,7.658,0,0,1,1.176.072v-.972a7.143,7.143,0,0,1-1.212.072H-23.6v-.432a7.312,7.312,0,0,1,.048-1.116h-1a5.622,5.622,0,0,1,.06,1.1Zm-1.716.828h4.968V-.516H-26.2Zm1.32-6.084h-2.844c-.492,0-.912-.024-1.308-.06A15.6,15.6,0,0,1-28.986-7.3c0,4.32-.264,5.94-1.212,7.38a3.187,3.187,0,0,1,.78.7c1.092-1.812,1.344-3.492,1.356-8.76h7.344a9.863,9.863,0,0,1,1.368.06v-.96a9.31,9.31,0,0,1-1.38.072h-3.228V-9.3a3.518,3.518,0,0,1,.06-.8h-1.056a3.681,3.681,0,0,1,.072.8Zm12.216,3.132A1.122,1.122,0,0,0-13.782-4.56a1.119,1.119,0,0,0,1.116,1.1,1.119,1.119,0,0,0,1.1-1.116A1.1,1.1,0,0,0-12.666-5.676ZM4.506-8.568,2.25,0H.87L-.642-5.292Q-.726-5.58-.816-5.94t-.162-.678q-.072-.318-.1-.45-.012.132-.072.444t-.144.684q-.084.372-.18.684L-2.958,0h-1.38L-6.582-8.568H-5.25L-3.99-3.5q.12.528.234,1.092T-3.582-1.4q.06-.456.186-1.044T-3.138-3.5L-1.71-8.568h1.3L1.062-3.48q.144.48.264,1.068T1.506-1.4a10.145,10.145,0,0,1,.168-1.008q.12-.564.252-1.092l1.26-5.064Zm3.408,1.98a2.6,2.6,0,0,1,2,.786A3.019,3.019,0,0,1,10.65-3.66v.7H6.306A2.221,2.221,0,0,0,6.828-1.44a1.829,1.829,0,0,0,1.4.528,4.883,4.883,0,0,0,1.11-.114,5.715,5.715,0,0,0,1-.342V-.312a4.522,4.522,0,0,1-.984.33,5.873,5.873,0,0,1-1.176.1A3.557,3.557,0,0,1,6.522-.252,2.643,2.643,0,0,1,5.4-1.356,3.751,3.751,0,0,1,5-3.18a4.216,4.216,0,0,1,.366-1.848,2.7,2.7,0,0,1,1.02-1.158A2.863,2.863,0,0,1,7.914-6.588Zm0,.984a1.43,1.43,0,0,0-1.1.444A2.057,2.057,0,0,0,6.33-3.9H9.378a2.059,2.059,0,0,0-.366-1.23A1.281,1.281,0,0,0,7.914-5.6ZM13.506-9.12v2.2q0,.384-.018.75t-.042.558h.06A2.276,2.276,0,0,1,14.25-6.3a2.364,2.364,0,0,1,1.212-.276,2.345,2.345,0,0,1,1.878.84,3.769,3.769,0,0,1,.714,2.5,3.793,3.793,0,0,1-.72,2.514A2.355,2.355,0,0,1,15.45.12a2.372,2.372,0,0,1-1.206-.27,2.425,2.425,0,0,1-.738-.642h-.1L13.17,0h-.936V-9.12Zm1.656,3.576A1.422,1.422,0,0,0,13.878-5a3.151,3.151,0,0,0-.372,1.674v.1a3.375,3.375,0,0,0,.354,1.71,1.414,1.414,0,0,0,1.326.594,1.3,1.3,0,0,0,1.17-.6,3.177,3.177,0,0,0,.39-1.728Q16.746-5.544,15.162-5.544ZM21.27-1.572c0-.2-.012-.252-.012-.516-.012-.324-.024-.9-.024-1.14A22.235,22.235,0,0,1,21.51-6.9a14.589,14.589,0,0,1,.6-2.388l-1.14-.156a7.363,7.363,0,0,1-.168,1.02,20.6,20.6,0,0,0-.528,4.752,18.122,18.122,0,0,0,.312,3.42c.036.24.048.312.072.5L21.7.18a1.792,1.792,0,0,1-.012-.228A9.745,9.745,0,0,1,22.7-3.432l-.72-.336a10.414,10.414,0,0,0-.7,2.2Zm2.268-5.484c.1.012.12.012.192.024a1.482,1.482,0,0,0,.216.024,14.435,14.435,0,0,0,1.608.084A20.733,20.733,0,0,0,28.11-7.08q.774-.108.828-.108l-.06-1.02a13.29,13.29,0,0,1-3.288.324,8.291,8.291,0,0,1-2.028-.18ZM24.4-4.812a3.506,3.506,0,0,0-1.068,2.268,1.935,1.935,0,0,0,.36,1.152c.5.648,1.4.948,2.82.948a13.732,13.732,0,0,0,2.472-.228c.252-.048.276-.048.432-.072L29.31-1.836a8.318,8.318,0,0,1-2.8.42c-1.452,0-2.2-.408-2.2-1.224a2.722,2.722,0,0,1,.9-1.764Zm7.44-2.112a33.707,33.707,0,0,1,3.948-.384,26,26,0,0,0,2.64-.264c-2.028.912-3.216,2.484-3.216,4.224A2.985,2.985,0,0,0,36.642-.756a6.409,6.409,0,0,0,2.652.888c.192.036.24.036.384.072L39.846-.96a6.017,6.017,0,0,1-1.8-.3,2.229,2.229,0,0,1-1.8-2.184,3.819,3.819,0,0,1,1.9-3.048A5.7,5.7,0,0,1,41.2-7.524h.144l-.084-1.068a8.714,8.714,0,0,1-1.4.12c-1.98.1-5.268.276-6.948.4-.372.024-.528.036-.7.036-.072,0-.18,0-.432-.012ZM-26.448,15a16.969,16.969,0,0,0-1.32-1.32,9.867,9.867,0,0,0,.936-2.748c.1-.528.24-1.476.276-1.98.036-.42.036-.42.06-.6a8.4,8.4,0,0,1-1.068.048H-28.62c.1-.432.216-1.128.288-1.572.06-.36.1-.588.132-.744L-29.232,6c0,.06.012.12.012.144A13.382,13.382,0,0,1-29.532,8.4h-.408A6.628,6.628,0,0,1-31,8.332V9.28a7.564,7.564,0,0,1,.948-.06h.336a19.45,19.45,0,0,1-1.1,3.312,14.745,14.745,0,0,1,1.908,1.356,6.716,6.716,0,0,1-2.292,2.16,3.567,3.567,0,0,1,.624.78,8.011,8.011,0,0,0,2.34-2.328,13.706,13.706,0,0,1,1.188,1.3ZM-27.456,9.22a10.837,10.837,0,0,1-1,3.888c-.384-.3-.624-.468-1.272-.912a25.26,25.26,0,0,0,.816-2.568A2.972,2.972,0,0,1-28.8,9.22Zm3.612,1.884h-1.524a4.949,4.949,0,0,1-1.1-.072v1a7.238,7.238,0,0,1,1.116-.072h1.512v3.72c0,.2-.084.252-.456.252a10.758,10.758,0,0,1-1.536-.168,3.309,3.309,0,0,1,.216.972c.54.048,1.092.084,1.4.084,1.044,0,1.3-.2,1.3-1.068V11.956h1.836a5.778,5.778,0,0,1,1.1.072v-1a5.632,5.632,0,0,1-1.1.072H-22.92V10.036A11.894,11.894,0,0,0-21.156,8.2a9.125,9.125,0,0,1,.708-.9l-.5-.636a4.327,4.327,0,0,1-.96.06h-3a8.5,8.5,0,0,1-1.248-.072v1a11.487,11.487,0,0,1,1.212-.06h3.192a8.452,8.452,0,0,1-1.752,1.884h-.42a7.232,7.232,0,0,1,.084,1.152Zm11.9-3.84v4.524H-13.6a6.848,6.848,0,0,1-1.128-.06V12.7a7.518,7.518,0,0,1,1.128-.072h1.656v2.856a9.287,9.287,0,0,1-.084,1.368h1.08a7.292,7.292,0,0,1-.1-1.368V12.628h1.848a7.518,7.518,0,0,1,1.128.072v-.972a6.7,6.7,0,0,1-1.1.06H-11.04V7.264h1.608a8.031,8.031,0,0,1,1.116.06v-.96a7.468,7.468,0,0,1-1.14.072h-3.936a7.752,7.752,0,0,1-1.152-.072v.96a8,8,0,0,1,1.128-.06Zm-6.684-.048a7.132,7.132,0,0,1,.936-.048h1.632a7.132,7.132,0,0,1,.936.048V6.34a5.08,5.08,0,0,1-.936.06h-1.632a5,5,0,0,1-.936-.06Zm-.48,1.7a7.525,7.525,0,0,1,.96-.048h2.34a5.482,5.482,0,0,1,.876.048V8.032a6.415,6.415,0,0,1-.96.048h-2.256a5.128,5.128,0,0,1-.96-.06Zm.54,1.692a5.364,5.364,0,0,1,.84-.048H-15.9a5.6,5.6,0,0,1,.828.048V9.76A6.88,6.88,0,0,1-15.9,9.8h-1.824a7.545,7.545,0,0,1-.84-.036Zm0,1.668a5.364,5.364,0,0,1,.84-.048h1.812a5.563,5.563,0,0,1,.84.048v-.864a4.828,4.828,0,0,1-.828.048h-1.824a4.988,4.988,0,0,1-.84-.048Zm.816,4.644V16.3h1.8v.468h.876a7.263,7.263,0,0,1-.06-1.056v-1.68a8.435,8.435,0,0,1,.036-.912,4.965,4.965,0,0,1-.864.036h-1.716a7.9,7.9,0,0,1-.96-.048,6.188,6.188,0,0,1,.06.984v1.68a7.982,7.982,0,0,1-.072,1.152Zm0-3.024h1.8v1.656h-1.8Zm3.288-5.676a11.99,11.99,0,0,1,1.044,3.036l.8-.312a15.792,15.792,0,0,0-1.068-3.06Zm5.268-.336a11.493,11.493,0,0,1-1.272,3.084l.756.324a17.856,17.856,0,0,0,1.356-3.06ZM-.9,10.252A9.665,9.665,0,0,0,.54,14.1a7.643,7.643,0,0,1-2.676,2.088,2.374,2.374,0,0,1,.648.756,9.767,9.767,0,0,0,2.556-2.136,8.682,8.682,0,0,0,2.4,2.028,3.323,3.323,0,0,1,.576-.852,7.351,7.351,0,0,1-2.4-1.9,12.85,12.85,0,0,0,1.548-3.228,7.031,7.031,0,0,1,.336-.948L3.06,9.388a4.732,4.732,0,0,1-.984.06H-1.248v-2H2.616a10.426,10.426,0,0,1,1.2.06V6.52a8.479,8.479,0,0,1-1.224.072H-.888a11.059,11.059,0,0,1-1.3-.06c.036.42.048.756.048,1.452,0,5.052-.288,6.864-1.308,8.268a2.93,2.93,0,0,1,.72.672c1-1.572,1.344-3.18,1.452-6.672Zm3.336,0A9.52,9.52,0,0,1,1.1,13.36,8.227,8.227,0,0,1-.084,10.252Zm-6.48,3.684c.42,0,.612.012.948.036-.024-.288-.036-.54-.036-1.056V7.456A7.008,7.008,0,0,1-3.1,6.448a7.686,7.686,0,0,1-1.032.036H-5.544c-.492,0-.732-.012-1.068-.036a8.646,8.646,0,0,1,.048,1.068v5.316c0,.432-.012.78-.036,1.14a5.476,5.476,0,0,1,.924-.036Zm-1.68-6.66H-3.96v1.44H-5.724Zm0,2.184H-3.96v1.452H-5.724Zm0,2.2H-3.96v1.5H-5.724Zm-.264,2.58a4.871,4.871,0,0,1-1.248,2.028,2.063,2.063,0,0,1,.732.588,6.073,6.073,0,0,0,1.272-2.244Zm1.212.336a10.941,10.941,0,0,0,.864,1.716,3.278,3.278,0,0,1,.7-.516,7.3,7.3,0,0,1-.828-1.548ZM9.816,7.228H6.576a9.013,9.013,0,0,1-1.368-.072v.96a8.778,8.778,0,0,1,1.356-.072H9.816v1.1H7.224a7.809,7.809,0,0,1-1.248-.06V10a8.788,8.788,0,0,1,1.248-.06h6.24a8.667,8.667,0,0,1,1.26.06V9.088a8.079,8.079,0,0,1-1.26.06H10.716v-1.1h3.516a9.946,9.946,0,0,1,1.332.072v-.96a8.969,8.969,0,0,1-1.344.072h-3.5V7.036a5.665,5.665,0,0,1,.072-1.056H9.744a5.045,5.045,0,0,1,.072,1.056ZM6.2,13.2V11.656h8.28V13.2h.984a5.633,5.633,0,0,1-.048-.852v-.744a5.159,5.159,0,0,1,.048-.8,11.888,11.888,0,0,1-1.236.048H6.456A11.639,11.639,0,0,1,5.232,10.8a5.7,5.7,0,0,1,.048.828v.732a5.77,5.77,0,0,1-.048.84Zm2.232-1.056c.012.132.036.312.036.384l-.012.06.012.1a3.632,3.632,0,0,1-.348,1.44,3.568,3.568,0,0,1-1.5,1.356,5.016,5.016,0,0,1-1.584.5,3.262,3.262,0,0,1,.612.924,6.1,6.1,0,0,0,1.884-.828,3.942,3.942,0,0,0,1.512-1.74,6.227,6.227,0,0,0,.384-1.656,2.9,2.9,0,0,1,.06-.5Zm3.42.96a4.925,4.925,0,0,1,.06-.936H10.86a4.527,4.527,0,0,1,.06.972v2.592c0,.78.3.912,2.052.912,1.392,0,1.92-.1,2.184-.384a3.5,3.5,0,0,0,.528-1.956,2.978,2.978,0,0,1-.9-.336,3.891,3.891,0,0,1-.288,1.572c-.156.192-.456.24-1.512.24-1.008,0-1.128-.048-1.128-.4ZM21.8,8.2H18.516a7.093,7.093,0,0,1-.948-.048,7.668,7.668,0,0,1,.06.972v3.408a7.7,7.7,0,0,1-.072,1.092h1.02v-.78H21.8v2.688a8.857,8.857,0,0,1-.084,1.4h1.128a7.108,7.108,0,0,1-.084-1.4V12.844h3.4v.78h1.008a7.575,7.575,0,0,1-.06-1.092v-3.4a7.806,7.806,0,0,1,.048-.984,6.867,6.867,0,0,1-.948.048H22.764V7.228a8.662,8.662,0,0,1,.072-1.236H21.72a7.151,7.151,0,0,1,.084,1.26Zm0,.876v2.892H18.576V9.076Zm.96,2.892V9.076h3.4v2.892Zm7.692,1.488h-.9l-.3-6.024h1.5Zm-1.284,1.836a.8.8,0,0,1,.24-.66A.912.912,0,0,1,30,14.44a.9.9,0,0,1,.57.192.789.789,0,0,1,.246.66.827.827,0,0,1-.246.672.867.867,0,0,1-.57.2.877.877,0,0,1-.588-.2A.838.838,0,0,1,29.172,15.292Z" transform="translate(4860 -1649.981)" fill="#fff"/>
  </g>
</svg>
