<svg xmlns="http://www.w3.org/2000/svg" width="124" height="124" viewBox="0 0 124 124">
  <g id="グループ_41427" data-name="グループ 41427" transform="translate(-5020 1476)">
    <path id="パス_3837" data-name="パス 3837" d="M62,0A62,62,0,1,1,0,62,62,62,0,0,1,62,0Z" transform="translate(5020 -1476)" fill="#d97f3f"/>
    <path id="パス_3841" data-name="パス 3841" d="M-19.36-.56v.5a8.465,8.465,0,0,1-.12,1.7h2a14.442,14.442,0,0,1-.16-2.2l-.04-3.42h5.56c-.18,2.6-.22,2.7-1.34,2.7a15.576,15.576,0,0,1-2.26-.24A7.382,7.382,0,0,1-15.3.16a18.643,18.643,0,0,0,2.02.1c1.34,0,1.88-.18,2.26-.76.3-.48.44-1.3.64-3.6.1-1.06.1-1.06.14-1.44a12.311,12.311,0,0,1-1.68.08H-17.7l-.02-1.62h4.62c.8,0,1.34.02,1.88.06a8.7,8.7,0,0,1-.08-1.44v-1.9a7.932,7.932,0,0,1,.08-1.36,14.369,14.369,0,0,1-1.88.08H-24.08a10.549,10.549,0,0,1-1.88-.1v1.66a16.917,16.917,0,0,1,1.88-.08h4.58l.02,1.62h-4.1a12.688,12.688,0,0,1-1.88-.08,15.294,15.294,0,0,1-.32,2.08A14.676,14.676,0,0,1-26.9-3.06l1.94.12c.16-.5.22-.66.34-1.04h4.02A15.983,15.983,0,0,1-27.72-.26a6.9,6.9,0,0,1,1.1,1.56A17.089,17.089,0,0,0-19.4-3.08Zm1.62-7.98-.02-1.62h4.72v1.62Zm-1.72,1.46.02,1.62h-4.78c.22-.84.24-1,.36-1.62Zm-3.72-6.7a12.424,12.424,0,0,1,.98,2l1.56-.52a11.52,11.52,0,0,0-.86-1.48h1.2c.66,0,1.18.02,1.58.06a10.027,10.027,0,0,1-.92.9A4.418,4.418,0,0,1-18.4-11.7a9.251,9.251,0,0,0,1.74-2.08h1.46a11.963,11.963,0,0,1,1.1,2l1.62-.52a13.906,13.906,0,0,0-.94-1.48h1.82a20.516,20.516,0,0,1,2.1.1v-1.74a15.734,15.734,0,0,1-2.16.1H-15.8a13.3,13.3,0,0,0,.6-1.22l-1.76-.36a8.692,8.692,0,0,1-1.72,3.14v-1.68a11.569,11.569,0,0,1-1.96.12h-2.78c.28-.46.38-.64.68-1.18l-1.8-.42a7.187,7.187,0,0,1-1,1.94,8.852,8.852,0,0,1-2.22,2.3,4.645,4.645,0,0,1,1.12,1.32,12.44,12.44,0,0,0,2.22-2.42Zm15.52,7.7a17.375,17.375,0,0,1,.17-2.44,9.416,9.416,0,0,1,.61-2.27,6.183,6.183,0,0,1,1.22-1.9,5.326,5.326,0,0,1,1.99-1.3,8.108,8.108,0,0,1,2.93-.47q.42,0,.96.04a6.447,6.447,0,0,1,.9.12v2.08A6.324,6.324,0,0,0-.6-12.44a5.118,5.118,0,0,0-2.8.65,3.433,3.433,0,0,0-1.4,1.78,9.122,9.122,0,0,0-.48,2.53h.12a3.594,3.594,0,0,1,1.2-1.19,3.746,3.746,0,0,1,2.02-.49A3.952,3.952,0,0,1,1.04-8,4.559,4.559,0,0,1,2.16-4.7,4.909,4.909,0,0,1,.88-1.1,4.635,4.635,0,0,1-2.58.2,4.954,4.954,0,0,1-5.15-.48,4.737,4.737,0,0,1-6.98-2.55,8.027,8.027,0,0,1-7.66-6.08Zm5.04,4.22A2.16,2.16,0,0,0-.96-2.55,3.048,3.048,0,0,0-.32-4.68,2.766,2.766,0,0,0-.88-6.51a2.065,2.065,0,0,0-1.68-.67,2.648,2.648,0,0,0-1.35.33,2.512,2.512,0,0,0-.89.84,1.951,1.951,0,0,0-.32,1.05,3.921,3.921,0,0,0,.28,1.45,2.944,2.944,0,0,0,.83,1.18A2.064,2.064,0,0,0-2.62-1.86ZM14.88-5.1v1.5H12.22a21.026,21.026,0,0,1-2.36-.1v1.78a20.132,20.132,0,0,1,2.4-.12h2.62v1.5a12.912,12.912,0,0,1-.12,2.24h1.92a12.912,12.912,0,0,1-.12-2.24v-1.5h3.18a20.883,20.883,0,0,1,2.32.12v-1.8a15.332,15.332,0,0,1-2.3.12h-3.2V-5.1h2.76a14.71,14.71,0,0,1,1.82.08,15.494,15.494,0,0,1-.08-1.84v-4.22a15.435,15.435,0,0,1,.08-1.86,10.96,10.96,0,0,1-1.64.08,26.653,26.653,0,0,0,1.68-3.34l-1.76-.6a15.83,15.83,0,0,1-1.76,3.94H12.3a12.553,12.553,0,0,1-1.74-.08,17.254,17.254,0,0,1,.06,1.78v4.38a17.6,17.6,0,0,1-.06,1.76,15.592,15.592,0,0,1,1.88-.08Zm0-6.3v1.66h-2.6V-11.4Zm1.68,0H19.4v1.66H16.56ZM14.88-8.34v1.76h-2.6V-8.34Zm1.68,0H19.4v1.76H16.56ZM5.92-7.1c.12-1.02.2-1.86.28-2.78H8.32a12.687,12.687,0,0,1,1.34.04c-.04-.44-.04-.44-.06-1.7V-14.4c0-.58.02-1.04.06-1.46a13.012,13.012,0,0,1-1.54.06H5.84a12.266,12.266,0,0,1-1.9-.12v1.82a14.072,14.072,0,0,1,1.78-.1H7.9v2.76H6.04a10.129,10.129,0,0,1-1.54-.08v.42a35.54,35.54,0,0,1-.56,5.62c.56-.04.78-.04,1.48-.04h2.3a23.65,23.65,0,0,1-.4,3.58C7.08-.72,6.88-.48,6.18-.48a14.2,14.2,0,0,1-2.24-.2,4.729,4.729,0,0,1,.32,1.86c.8.06,1.34.08,1.74.08,1.68,0,2.24-.3,2.68-1.42a20.237,20.237,0,0,0,.76-5.2,15.414,15.414,0,0,1,.14-1.82,10.863,10.863,0,0,1-1.6.08Zm7.52-6.42a17.8,17.8,0,0,0-1.48-3.06L10.34-16a11.766,11.766,0,0,1,1.48,3.08Zm3.58-.24a18.5,18.5,0,0,0-1.32-3.18l-1.6.5a13.5,13.5,0,0,1,1.32,3.22Zm9.66,9.3H24.76l-.5-9.82h2.92Zm-2.5,3.18a1.419,1.419,0,0,1,.45-1.19,1.722,1.722,0,0,1,1.09-.35,1.691,1.691,0,0,1,1.07.35,1.419,1.419,0,0,1,.45,1.19A1.424,1.424,0,0,1,26.79-.1a1.66,1.66,0,0,1-1.07.36A1.69,1.69,0,0,1,24.63-.1,1.424,1.424,0,0,1,24.18-1.28Z" transform="translate(5082 -1410)" fill="#fff"/>
    <path id="パス_3844" data-name="パス 3844" d="M-28.938-1.162a19.8,19.8,0,0,0-1.54-1.54,11.512,11.512,0,0,0,1.092-3.206c.112-.616.28-1.722.322-2.31.042-.49.042-.49.07-.7a9.8,9.8,0,0,1-1.246.056h-1.232c.112-.5.252-1.316.336-1.834.07-.42.112-.686.154-.868l-1.2-.1c0,.07.014.14.014.168a15.612,15.612,0,0,1-.364,2.632h-.476a7.732,7.732,0,0,1-1.232-.084V-7.84a8.825,8.825,0,0,1,1.106-.07h.392a22.692,22.692,0,0,1-1.288,3.864,17.2,17.2,0,0,1,2.226,1.582A7.836,7.836,0,0,1-34.482.056a4.161,4.161,0,0,1,.728.91,9.347,9.347,0,0,0,2.73-2.716A15.991,15.991,0,0,1-29.638-.238ZM-30.114-7.91a12.643,12.643,0,0,1-1.162,4.536c-.448-.35-.728-.546-1.484-1.064a29.471,29.471,0,0,0,.952-3,3.467,3.467,0,0,1,.126-.476Zm4.214,2.2h-1.778A5.774,5.774,0,0,1-28.966-5.8v1.162a8.444,8.444,0,0,1,1.3-.084H-25.9v4.34c0,.238-.1.294-.532.294a12.551,12.551,0,0,1-1.792-.2A3.86,3.86,0,0,1-27.972.854c.63.056,1.274.1,1.638.1,1.218,0,1.512-.238,1.512-1.246V-4.718h2.142a6.741,6.741,0,0,1,1.288.084V-5.8a6.571,6.571,0,0,1-1.288.084h-2.142V-6.958A13.876,13.876,0,0,0-22.764-9.1a10.646,10.646,0,0,1,.826-1.05l-.588-.742a5.048,5.048,0,0,1-1.12.07h-3.5a9.917,9.917,0,0,1-1.456-.084v1.162a13.4,13.4,0,0,1,1.414-.07h3.724a9.861,9.861,0,0,1-2.044,2.2H-26a8.437,8.437,0,0,1,.1,1.344Zm13.888-4.48v5.278h-1.932a7.989,7.989,0,0,1-1.316-.07V-3.85a8.771,8.771,0,0,1,1.316-.084h1.932V-.6a10.835,10.835,0,0,1-.1,1.6h1.26a8.507,8.507,0,0,1-.112-1.6V-3.934h2.156A8.771,8.771,0,0,1-7.49-3.85V-4.984a7.816,7.816,0,0,1-1.288.07h-2.184v-5.278h1.876a9.369,9.369,0,0,1,1.3.07v-1.12a8.713,8.713,0,0,1-1.33.084h-4.592a9.044,9.044,0,0,1-1.344-.084v1.12a9.333,9.333,0,0,1,1.316-.07Zm-7.8-.056a8.32,8.32,0,0,1,1.092-.056h1.9a8.32,8.32,0,0,1,1.092.056V-11.27a5.927,5.927,0,0,1-1.092.07h-1.9a5.835,5.835,0,0,1-1.092-.07Zm-.56,1.988a8.779,8.779,0,0,1,1.12-.056h2.73A6.4,6.4,0,0,1-15.5-8.26V-9.3a7.484,7.484,0,0,1-1.12.056H-19.25a5.982,5.982,0,0,1-1.12-.07Zm.63,1.974a6.258,6.258,0,0,1,.98-.056h2.128a6.53,6.53,0,0,1,.966.056V-7.28a8.027,8.027,0,0,1-.966.042H-18.76a8.8,8.8,0,0,1-.98-.042Zm0,1.946a6.258,6.258,0,0,1,.98-.056h2.114a6.49,6.49,0,0,1,.98.056V-5.348a5.633,5.633,0,0,1-.966.056H-18.76a5.819,5.819,0,0,1-.98-.056Zm.952,5.418V.35h2.1V.9h1.022a8.474,8.474,0,0,1-.07-1.232V-2.3a9.841,9.841,0,0,1,.042-1.064,5.793,5.793,0,0,1-1.008.042h-2a9.214,9.214,0,0,1-1.12-.056,7.219,7.219,0,0,1,.07,1.148v1.96a9.312,9.312,0,0,1-.084,1.344Zm0-3.528h2.1V-.518h-2.1Zm3.836-6.622A13.988,13.988,0,0,1-13.734-5.53l.938-.364a18.424,18.424,0,0,0-1.246-3.57Zm6.146-.392a13.409,13.409,0,0,1-1.484,3.6l.882.378a20.832,20.832,0,0,0,1.582-3.57Zm4.83,7.63c0-.238-.014-.294-.014-.6-.014-.378-.028-1.05-.028-1.33A25.941,25.941,0,0,1-3.7-8.05,17.02,17.02,0,0,1-3-10.836l-1.33-.182a8.589,8.589,0,0,1-.2,1.19,24.029,24.029,0,0,0-.616,5.544,21.143,21.143,0,0,0,.364,3.99c.042.28.056.364.084.588L-3.472.21a2.09,2.09,0,0,1-.014-.266A11.369,11.369,0,0,1-2.31-4L-3.15-4.4a12.149,12.149,0,0,0-.812,2.562Zm2.646-6.4c.112.014.14.014.224.028a1.728,1.728,0,0,0,.252.028,16.841,16.841,0,0,0,1.876.1A24.189,24.189,0,0,0,4-8.26q.9-.126.966-.126L4.9-9.576A15.5,15.5,0,0,1,1.064-9.2,9.673,9.673,0,0,1-1.3-9.408ZM-.322-5.614A4.091,4.091,0,0,0-1.568-2.968a2.258,2.258,0,0,0,.42,1.344C-.56-.868.49-.518,2.142-.518A16.02,16.02,0,0,0,5.026-.784c.294-.056.322-.056.5-.084L5.4-2.142a9.7,9.7,0,0,1-3.262.49C.448-1.652-.42-2.128-.42-3.08A3.176,3.176,0,0,1,.63-5.138ZM8.442-6.8a6.708,6.708,0,0,1,1.05-.35,21.779,21.779,0,0,1,5.684-.994c1.862,0,3,.924,3,2.45,0,1.554-1.092,2.8-3.052,3.472a12.814,12.814,0,0,1-3.836.6,3.838,3.838,0,0,1,.5,1.26A12.278,12.278,0,0,0,16.506-1.47,4.7,4.7,0,0,0,19.474-5.7c0-2.24-1.666-3.626-4.34-3.626a18.551,18.551,0,0,0-4.018.5,16.65,16.65,0,0,1-2.982.6ZM23.1-8.148a6.542,6.542,0,0,1,.9-.028,32.042,32.042,0,0,0,3.78-.238c.406.882.406.882.714,1.456a29.4,29.4,0,0,1-4.284.322A8.432,8.432,0,0,1,23-6.692l.028,1.134a6.5,6.5,0,0,1,1.022-.056,32.894,32.894,0,0,0,4.914-.406,11.926,11.926,0,0,0,1.372,1.988,8.518,8.518,0,0,0-2.7-.378,6.191,6.191,0,0,0-3.192.672A2.123,2.123,0,0,0,23.3-1.932,2.055,2.055,0,0,0,24.36-.14,5.763,5.763,0,0,0,27.4.476a12.741,12.741,0,0,0,3.584-.5c.63-.182.63-.182.868-.238l-.224-1.26a9.865,9.865,0,0,1-4.2.924c-1.848,0-2.87-.476-2.87-1.344,0-.91,1.232-1.484,3.206-1.484a6.807,6.807,0,0,1,3.346.63l.938-.672a15.391,15.391,0,0,1-1.988-2.716c.6-.126.854-.168,1.064-.224,1.526-.378,1.526-.378,1.834-.434L32.83-7.98a15.627,15.627,0,0,1-3.22.854c-.21-.364-.49-.924-.728-1.442.714-.112,2.422-.476,3.486-.756l-.1-1.092a18.389,18.389,0,0,1-3.752.91,10.523,10.523,0,0,1-.686-1.89l-1.246.2c.112.2.5,1.092.8,1.834a25.63,25.63,0,0,1-3.192.182c-.518,0-.784-.014-1.134-.042Z" transform="translate(5082 -1433)" fill="#fff"/>
    <path id="パス_3842" data-name="パス 3842" d="M-21.816-7.62a7.138,7.138,0,0,1,1.116.06v-.984a6.863,6.863,0,0,1-1.116.06h-5.952c.192-.384.288-.564.384-.792.156-.384.2-.468.288-.66l-1.032-.216A7.452,7.452,0,0,1-29.34-7.644,7.949,7.949,0,0,1-31.068-5.88a3.257,3.257,0,0,1,.636.78,11.288,11.288,0,0,0,2.16-2.52Zm-2.352,2.3A19.74,19.74,0,0,0-27.084-3.5C-28.644-2.352-29.256-1.56-29.256-.7c0,.552.348.924,1.044,1.1A12.636,12.636,0,0,0-25.392.6C-22.068.6-21.5.456-21.1-.54a5.984,5.984,0,0,0,.348-1.752,2.922,2.922,0,0,1-.948-.336c-.06,1.26-.192,1.728-.516,2.016-.324.264-.924.336-3,.336A12.829,12.829,0,0,1-27.7-.4c-.36-.084-.528-.252-.528-.528a.9.9,0,0,1,.156-.48A8.431,8.431,0,0,1-25.776-3.42a26.712,26.712,0,0,1,3.492-2.028l-.444-.732a5.115,5.115,0,0,1-1.068.06h-3.84a6.789,6.789,0,0,1-1.1-.06v.924a6.88,6.88,0,0,1,1.1-.06Zm7.752-3.252a23.774,23.774,0,0,0,5.208.78l.156-1.032a18.21,18.21,0,0,1-3.324-.3,8.875,8.875,0,0,1-1.692-.432ZM-17.6-4.644a16.893,16.893,0,0,1,4.716-.8c1.332,0,2.064.54,2.064,1.524a2.809,2.809,0,0,1-1.6,2.388,8.065,8.065,0,0,1-3.456.96A3.2,3.2,0,0,1-15.42.468,9.785,9.785,0,0,0-11.844-.648,3.892,3.892,0,0,0-9.72-3.984a2.235,2.235,0,0,0-1.068-1.968,4.093,4.093,0,0,0-2.1-.468,20.078,20.078,0,0,0-3.72.432,10.11,10.11,0,0,1-1.26.2Zm12.528-3.1c.156.012.192.012.408.036a21.409,21.409,0,0,0,2.532.156A11.632,11.632,0,0,0-.348-7.68l-.228.12-.312.168c-.48.276-.7.408-1.476.924l.732.588A17.787,17.787,0,0,1,1.44-7.752l-.06-.96a14.008,14.008,0,0,1-3.156.24A14.06,14.06,0,0,1-4.992-8.76ZM2.076-1.632a11.712,11.712,0,0,1-3.624.468A8.485,8.485,0,0,1-3.72-1.38c-.648-.216-.984-.588-.984-1.1,0-.552.36-1.092,1.128-1.728l-.732-.552a3.22,3.22,0,0,0-1.428,2.4A1.938,1.938,0,0,0-4.32-.5,8.505,8.505,0,0,0-1.476-.12,20.7,20.7,0,0,0,1.752-.4a3.668,3.668,0,0,1,.432-.06ZM1.752-6.888a8.794,8.794,0,0,1,1.236,1.86l.7-.4a8.954,8.954,0,0,0-1.26-1.824ZM.36-6.24a8.376,8.376,0,0,1,1.248,1.9l.708-.4A9.391,9.391,0,0,0,1.056-6.6Zm14.052,3.3V-.312c0,.192-.1.264-.372.264a5.883,5.883,0,0,1-1.272-.144A3.653,3.653,0,0,1,13,.792c.612.048.72.048.936.048C15,.84,15.288.624,15.288-.18V-8.22a10.166,10.166,0,0,1,.048-1.212,10,10,0,0,1-1.176.048H12.48a10.594,10.594,0,0,1-1.2-.048,12.776,12.776,0,0,1,.048,1.44A48.24,48.24,0,0,1,11.112-2.3,4.349,4.349,0,0,1,9.96.252a2.535,2.535,0,0,1,.72.672A6.4,6.4,0,0,0,12.06-2.94Zm0-2.856v2.04H12.12c.024-.6.048-1.38.06-2.04Zm0-.816h-2.22V-8.556h2.22ZM6.1-8.544h-.06a4.658,4.658,0,0,1-.984-.072v.9A6.489,6.489,0,0,1,6.1-7.764v4.98H5.82a4.688,4.688,0,0,1-.948-.06v.9A4.9,4.9,0,0,1,5.832-2h3.84c.468,0,.792.012,1.068.036v-.876a5.49,5.49,0,0,1-.888.06v-4.98a6.335,6.335,0,0,1,.948.048v-.9a4.653,4.653,0,0,1-.948.072V-8.76a7.025,7.025,0,0,1,.072-1.116H8.952a6.611,6.611,0,0,1,.06,1.1v.228H6.936V-8.76A7.232,7.232,0,0,1,7-9.876h-.96a9.387,9.387,0,0,1,.06,1.1Zm.84,5.76V-4.032H9.012v1.248Zm0-1.992V-5.9H9.012v1.128Zm0-1.872V-7.764H9.012v1.116Zm-.2,4.968A4.912,4.912,0,0,1,4.944.192,2.226,2.226,0,0,1,5.6.876,6.852,6.852,0,0,0,7.476-1.236ZM8.3-1.224A5.917,5.917,0,0,0,9.48.192a3.54,3.54,0,0,1,.648-.624A4.378,4.378,0,0,1,8.964-1.668ZM23.316-7.86v1.488H21.408a7.486,7.486,0,0,1-1.164-.072v.936a7.824,7.824,0,0,1,1.164-.06h3.648V-4.26H21.264A7.486,7.486,0,0,1,20.1-4.332v.96a8.348,8.348,0,0,1,1.2-.072h3.756v3.06c0,.2-.084.276-.336.276a2.222,2.222,0,0,0-.3.012h-.048A11.238,11.238,0,0,1,23.088-.24a3.414,3.414,0,0,1,.24.96c.42.036.828.048,1.092.048A3.448,3.448,0,0,0,25.6.612c.252-.12.384-.4.384-.84V-3.444h.444a8.007,8.007,0,0,1,1.2.072v-.96a8.3,8.3,0,0,1-1.212.072H25.98V-5.568h.432a10.66,10.66,0,0,1,1.212.06v-.936a8.479,8.479,0,0,1-1.224.072H24.216V-7.86h1.74a7.747,7.747,0,0,1,1.152.06v-.924a7.593,7.593,0,0,1-1.164.072H24.216v-.432a5.879,5.879,0,0,1,.06-.96H23.244a6.229,6.229,0,0,1,.072.96v.432H21.792a7.486,7.486,0,0,1-1.164-.072V-7.8a7.671,7.671,0,0,1,1.14-.06Zm-3.888-2.268a6.9,6.9,0,0,1-2.58,2.448,2.631,2.631,0,0,1,.54.756,10.681,10.681,0,0,0,2.388-2.148c.336-.4.336-.4.432-.5Zm4.08,8.976A14.007,14.007,0,0,0,21.7-3.144l-.708.516A9.42,9.42,0,0,1,22.752-.552Zm-5.232.66A10.648,10.648,0,0,1,18.2.912h1.02a10.352,10.352,0,0,1-.06-1.4V-5.424a10.025,10.025,0,0,0,.756-1.044,5.819,5.819,0,0,1,.324-.492l-.8-.5a8.342,8.342,0,0,1-2.712,3.216,3.122,3.122,0,0,1,.48.852,5.482,5.482,0,0,0,1.1-1.14c-.036.576-.036.888-.036,1.368Zm12.18-2.052h-.9l-.3-6.024h1.5ZM29.172-.708a.8.8,0,0,1,.24-.66A.911.911,0,0,1,30-1.56a.9.9,0,0,1,.57.192.789.789,0,0,1,.246.66.827.827,0,0,1-.246.672.867.867,0,0,1-.57.2.877.877,0,0,1-.588-.2A.838.838,0,0,1,29.172-.708Z" transform="translate(5082 -1387.98)" fill="#fff"/>
  </g>
</svg>
