<svg xmlns="http://www.w3.org/2000/svg" width="295.44" height="89.365" viewBox="0 0 295.44 89.365">
  <g id="グループ_41306" data-name="グループ 41306" transform="translate(-4858.62 -780)">
    <path id="パス_3734" data-name="パス 3734" d="M4,0H291.44a4,4,0,0,1,4,4V62.72a4,4,0,0,1-4,4H4a4,4,0,0,1-4-4V4A4,4,0,0,1,4,0Z" transform="translate(4858.62 802.645)" fill="#fff"/>
    <path id="パス_3735" data-name="パス 3735" d="M10.944-11.088H7.83V-9.36h8.658v-1.728h-3.42v-1.08h3.96V-13.9h-3.96v-1.35H10.944v1.35H7.236v1.728h3.708ZM8.928-6.8h6.246V-5.04h1.98V-8.478H7.038V-5.04h1.89ZM6.336-14.688H1.494v1.62H6.336Zm.576,2.412H.594v1.692H6.912Zm-.54,2.5H1.386v1.638H6.372ZM1.386-5.706H6.372v-1.6H1.386ZM4.662-1.08H3.078V-3.15H4.662ZM6.408-4.824H1.332V1.314H3.078V.594h3.33V.054A6.178,6.178,0,0,1,7.47,1.62C10.8.234,11.286-2.2,11.43-5.958h-2c-.108,3.006-.36,4.752-3.024,5.8ZM14.886-.432c-.27,0-.306-.054-.306-.576V-5.94H12.6V-.99c0,1.818.36,2.412,1.926,2.412h1.206c1.3,0,1.764-.684,1.944-3.348a5.623,5.623,0,0,1-1.764-.792c-.036,2-.108,2.286-.4,2.286ZM27.918-11.448h2.934A24.58,24.58,0,0,1,28.908-9.81h-.99Zm3.924,7.866H25.65V-4.734h6.192ZM25.65-.738V-1.962h6.192V-.738ZM36.144-7.92V-9.81H31.968a26.328,26.328,0,0,0,3.546-3.96l-1.836-.936a21.92,21.92,0,0,1-1.854,2.286V-13.3H27.918v-1.944H25.794V-13.3h-4.23v1.854h4.23V-9.81H20.016v1.89h6.12a32.039,32.039,0,0,1-6.7,2.988,11.794,11.794,0,0,1,1.314,1.764c.918-.342,1.854-.738,2.754-1.134V1.584H25.65v-.54h6.192v.468h2.232V-6.48H27.54c.738-.468,1.422-.936,2.124-1.44ZM45.4-9.756a9.979,9.979,0,0,1,.126,1.62c0,2.952-.432,4.86-2.718,6.444a7.112,7.112,0,0,1-1.89.99L43,1.008c4.914-2.628,5-6.3,5-10.764Zm8.514-3.762a8.968,8.968,0,0,1-1.818.162h-9.7a14.27,14.27,0,0,1-2.2-.18v2.5c.846-.072,1.44-.126,2.2-.126h9.378a10.7,10.7,0,0,1-3.312,3.348L50.31-6.318a18.112,18.112,0,0,0,4.338-4.932,9.062,9.062,0,0,1,.7-.936Zm6.948-.162-1.692,1.8a37.426,37.426,0,0,1,4.5,3.888L65.5-9.882A37.8,37.8,0,0,0,60.858-13.68ZM58.608-1.692,60.12.684A19.493,19.493,0,0,0,66.8-1.854a19.14,19.14,0,0,0,6.66-6.66l-1.4-2.538a17.068,17.068,0,0,1-6.552,7A18.552,18.552,0,0,1,58.608-1.692Zm23.976-9.63c.2-.468.36-.936.5-1.314s.378-1.008.576-1.458l-2.772-.558a7.071,7.071,0,0,1-.378,1.854A11.313,11.313,0,0,1,79.47-10.35a13.784,13.784,0,0,1-3.114,3.708l2.268,1.368a14.759,14.759,0,0,0,2.9-3.78h3.8c-.288,3.762-1.782,5.976-3.672,7.416A6.7,6.7,0,0,1,79.938-.63L82.368.99c3.258-2.052,5.13-5.256,5.454-10.044h2.52a18.606,18.606,0,0,1,1.872.072v-2.466a11.8,11.8,0,0,1-1.872.126ZM96.336-5.508c.666-.054,1.872-.09,2.9-.09H108.9c.756,0,1.674.072,2.106.09V-8.334c-.468.036-1.278.108-2.106.108H99.234c-.936,0-2.25-.054-2.9-.108ZM129.4-6.624a58.789,58.789,0,0,0-7.524-2.79V-12.06a19.576,19.576,0,0,1,.162-2.178h-2.808a12.554,12.554,0,0,1,.18,2.178V-1.728a19.26,19.26,0,0,1-.18,2.5h2.808c-.072-.72-.162-1.98-.162-2.5V-6.822a51.991,51.991,0,0,1,6.5,2.682Zm6.876-3.744V-11.79h11.016v1.422h-4.482v-1.026H140.67v1.026ZM149.76-2.844V-4.7h-7.11a6.111,6.111,0,0,0,.144-1.134h4.914V-7.56h-4.9V-8.64h5.256V-9.828h1.44v-3.834H142.92v-1.566h-2.2v1.566h-6.57v3.834h1.6V-8.64h4.914v1.08h-4.626v1.728h4.608a8.249,8.249,0,0,1-.18,1.134H134.01v1.854h5.418c-.99,1.062-2.718,2-5.742,2.682a8.735,8.735,0,0,1,1.332,1.728c3.672-.99,5.67-2.412,6.732-4.014,1.422,2.232,3.564,3.51,6.984,4.05a8.328,8.328,0,0,1,1.26-1.872c-2.844-.306-4.86-1.134-6.138-2.574Zm9.792-3.15.036-1.8V-8.6h-3.24c.018-.63.036-1.278.054-1.926h3.438a6.708,6.708,0,0,1-.576.648,11.673,11.673,0,0,1,1.6,1.512l.162-.18v1.872ZM163.944-.27c-.9,0-1.026-.108-1.026-.846V-5.454l.972-.45V-1.71h1.782V-6.732l1.152-.54c-.018,1.71-.018,2.7-.054,2.862-.018.234-.108.27-.252.27s-.4,0-.612-.018a5.407,5.407,0,0,1,.4,1.566,4.07,4.07,0,0,0,1.476-.2,1.263,1.263,0,0,0,.774-1.242c.054-.54.054-2.376.072-4.932l.072-.288-1.332-.468-.324.234-.072.054-1.3.594v-1.746H163.89V-8.01l-.972.45V-9.288H161.6a11.723,11.723,0,0,0,1.026-1.746h6.462v-1.944H163.44c.2-.612.4-1.242.54-1.872l-2.106-.4a13,13,0,0,1-1.6,4.086v-1.35h-2.808v-2.718h-2.052v2.718h-2.754v1.98h1.728c-.054,4.158-.216,8.118-2,10.584a6.353,6.353,0,0,1,1.53,1.494c1.494-2.052,2.07-4.968,2.322-8.208h1.4c-.072,4.23-.18,5.742-.414,6.1a.523.523,0,0,1-.522.288,10.054,10.054,0,0,1-1.3-.072,5.026,5.026,0,0,1,.522,1.908,9.409,9.409,0,0,0,1.854-.09A1.612,1.612,0,0,0,158.94.738c.414-.576.54-2.3.612-6.714l.738,1.746.738-.342v3.456c0,2.052.576,2.628,2.7,2.628h3.15c1.746,0,2.286-.684,2.52-2.934a5.9,5.9,0,0,1-1.728-.738c-.108,1.584-.252,1.89-.954,1.89ZM181.1-6.156v-3.87h4.068v3.87Zm-6.318,0v-3.87h4.05v3.87Zm6.318-5.976v-3.114H178.83v3.114h-6.21V-3.06h2.16v-.99h4.05V1.566H181.1V-4.05h4.068v.9h2.25v-8.982Z" transform="translate(4941 833.645)"/>
    <g id="グループ_41305" data-name="グループ 41305" transform="translate(4816.62 -1)">
      <path id="合体_1" data-name="合体 1" d="M0,27.5C0,12.314,14.5,0,32.376,0S64.751,12.314,64.751,27.5c0,7.83-3.852,14.9-10.034,19.9a35.427,35.427,0,0,1,2.67,6.3,37.108,37.108,0,0,0-7.369-3.145A36.462,36.462,0,0,1,32.376,55C14.5,55,0,42.691,0,27.5Z" transform="translate(54.28 781)" fill="#e2e2e2"/>
      <text id="ご協力_おねがい_します_" data-name="ご協力
おねがい
します!!" transform="translate(86.655 799.201)" font-size="10" font-family="MidashiGoPro-MB31, A-OTF Midashi Go MB31 Pro"><tspan x="-15" y="0">ご協力</tspan><tspan x="-20" y="12">おねがい</tspan><tspan x="-17.59" y="24">します!!</tspan></text>
    </g>
    <g id="グループ_41304" data-name="グループ 41304" transform="translate(4822 -51.355)">
      <text id="回答頂いた方の中から抽選で" transform="translate(60 903.253)" font-size="11" font-family="NotoSansJP-Black, Noto Sans JP" font-weight="800" letter-spacing="0.1em"><tspan x="0" y="0">回答頂</tspan><tspan y="0">いた</tspan><tspan y="0">方</tspan><tspan y="0">の</tspan><tspan y="0">中</tspan><tspan y="0">から</tspan><tspan y="0">抽選</tspan><tspan y="0">で</tspan></text>
      <text id="プレゼント進呈_" data-name="プレゼント進呈!" transform="translate(217.845 903.253)" fill="#b9222a" font-size="11" font-family="NotoSansJP-Black, Noto Sans JP" font-weight="800" letter-spacing="0.1em"><tspan x="0" y="0">プレゼント</tspan><tspan y="0">進呈!</tspan></text>
    </g>
  </g>
</svg>
