<svg xmlns="http://www.w3.org/2000/svg" width="205" height="81.703" viewBox="0 0 205 81.703">
  <g id="グループ_41428" data-name="グループ 41428" transform="translate(-4992.5 1334)">
    <path id="パス_3709" data-name="パス 3709" d="M0,0H205l-9.354,10.281L205,19.7H0l7.643-9.422Z" transform="translate(4992.5 -1334)" fill="#d97f3f"/>
    <path id="パス_3839" data-name="パス 3839" d="M-41.88-1a16.969,16.969,0,0,0-1.32-1.32,9.867,9.867,0,0,0,.936-2.748c.1-.528.24-1.476.276-1.98.036-.42.036-.42.06-.6A8.4,8.4,0,0,1-43-7.6h-1.056c.1-.432.216-1.128.288-1.572.06-.36.1-.588.132-.744L-44.664-10c0,.06.012.12.012.144A13.381,13.381,0,0,1-44.964-7.6h-.408a6.628,6.628,0,0,1-1.056-.072v.948a7.564,7.564,0,0,1,.948-.06h.336a19.45,19.45,0,0,1-1.1,3.312A14.745,14.745,0,0,1-44.34-2.112,6.716,6.716,0,0,1-46.632.048a3.567,3.567,0,0,1,.624.78A8.011,8.011,0,0,0-43.668-1.5,13.707,13.707,0,0,1-42.48-.2ZM-42.888-6.78a10.837,10.837,0,0,1-1,3.888c-.384-.3-.624-.468-1.272-.912a25.26,25.26,0,0,0,.816-2.568,2.972,2.972,0,0,1,.108-.408ZM-39.276-4.9H-40.8a4.949,4.949,0,0,1-1.1-.072v1a7.238,7.238,0,0,1,1.116-.072h1.512v3.72c0,.2-.084.252-.456.252A10.758,10.758,0,0,1-41.268-.24a3.309,3.309,0,0,1,.216.972c.54.048,1.092.084,1.4.084,1.044,0,1.3-.2,1.3-1.068V-4.044h1.836a5.778,5.778,0,0,1,1.1.072v-1a5.632,5.632,0,0,1-1.1.072h-1.836V-5.964A11.894,11.894,0,0,0-36.588-7.8a9.127,9.127,0,0,1,.708-.9l-.5-.636a4.327,4.327,0,0,1-.96.06h-3a8.5,8.5,0,0,1-1.248-.072v1a11.487,11.487,0,0,1,1.212-.06h3.192A8.452,8.452,0,0,1-38.94-6.528h-.42a7.231,7.231,0,0,1,.084,1.152Zm11.9-3.84v4.524h-1.656a6.848,6.848,0,0,1-1.128-.06V-3.3a7.518,7.518,0,0,1,1.128-.072h1.656V-.516A9.287,9.287,0,0,1-27.456.852h1.08a7.292,7.292,0,0,1-.1-1.368V-3.372h1.848A7.518,7.518,0,0,1-23.5-3.3v-.972a6.7,6.7,0,0,1-1.1.06h-1.872V-8.736h1.608a8.031,8.031,0,0,1,1.116.06v-.96a7.468,7.468,0,0,1-1.14.072h-3.936a7.752,7.752,0,0,1-1.152-.072v.96a8,8,0,0,1,1.128-.06Zm-6.684-.048a7.132,7.132,0,0,1,.936-.048h1.632a7.132,7.132,0,0,1,.936.048V-9.66a5.08,5.08,0,0,1-.936.06H-33.12a5,5,0,0,1-.936-.06Zm-.48,1.7a7.525,7.525,0,0,1,.96-.048h2.34a5.482,5.482,0,0,1,.876.048v-.888a6.415,6.415,0,0,1-.96.048h-2.256a5.128,5.128,0,0,1-.96-.06ZM-34-5.388a5.364,5.364,0,0,1,.84-.048h1.824a5.6,5.6,0,0,1,.828.048V-6.24a6.88,6.88,0,0,1-.828.036h-1.824A7.545,7.545,0,0,1-34-6.24Zm0,1.668a5.364,5.364,0,0,1,.84-.048h1.812a5.563,5.563,0,0,1,.84.048v-.864a4.828,4.828,0,0,1-.828.048h-1.824A4.987,4.987,0,0,1-34-4.584ZM-33.18.924V.3h1.8V.768h.876a7.263,7.263,0,0,1-.06-1.056v-1.68a8.435,8.435,0,0,1,.036-.912,4.965,4.965,0,0,1-.864.036h-1.716a7.9,7.9,0,0,1-.96-.048,6.188,6.188,0,0,1,.06.984v1.68A7.982,7.982,0,0,1-34.08.924Zm0-3.024h1.8V-.444h-1.8Zm3.288-5.676A11.99,11.99,0,0,1-28.848-4.74l.8-.312a15.792,15.792,0,0,0-1.068-3.06Zm5.268-.336A11.493,11.493,0,0,1-25.9-5.028l.756.324a17.856,17.856,0,0,0,1.356-3.06Zm4.14,6.54c0-.2-.012-.252-.012-.516-.012-.324-.024-.9-.024-1.14A22.235,22.235,0,0,1-20.244-6.9a14.589,14.589,0,0,1,.6-2.388l-1.14-.156a7.363,7.363,0,0,1-.168,1.02,20.6,20.6,0,0,0-.528,4.752,18.122,18.122,0,0,0,.312,3.42c.036.24.048.312.072.5L-20.052.18a1.792,1.792,0,0,1-.012-.228,9.745,9.745,0,0,1,1.008-3.384l-.72-.336a10.414,10.414,0,0,0-.7,2.2Zm2.268-5.484c.1.012.12.012.192.024a1.482,1.482,0,0,0,.216.024,14.435,14.435,0,0,0,1.608.084,20.733,20.733,0,0,0,2.556-.156q.774-.108.828-.108l-.06-1.02a13.29,13.29,0,0,1-3.288.324,8.291,8.291,0,0,1-2.028-.18Zm.864,2.244A3.506,3.506,0,0,0-18.42-2.544a1.935,1.935,0,0,0,.36,1.152c.5.648,1.4.948,2.82.948a13.732,13.732,0,0,0,2.472-.228c.252-.048.276-.048.432-.072l-.108-1.092a8.318,8.318,0,0,1-2.8.42c-1.452,0-2.2-.408-2.2-1.224a2.722,2.722,0,0,1,.9-1.764Zm7.512-1.02a5.75,5.75,0,0,1,.9-.3,18.668,18.668,0,0,1,4.872-.852c1.6,0,2.568.792,2.568,2.1,0,1.332-.936,2.4-2.616,2.976A10.983,10.983,0,0,1-7.4-1.392a3.29,3.29,0,0,1,.432,1.08A10.524,10.524,0,0,0-2.928-1.26,4.027,4.027,0,0,0-.384-4.884c0-1.92-1.428-3.108-3.72-3.108a15.9,15.9,0,0,0-3.444.432,14.272,14.272,0,0,1-2.556.516ZM2.724-6.984a5.607,5.607,0,0,1,.768-.024,27.465,27.465,0,0,0,3.24-.2c.348.756.348.756.612,1.248a25.2,25.2,0,0,1-3.672.276A7.227,7.227,0,0,1,2.64-5.736l.024.972a5.573,5.573,0,0,1,.876-.048A28.2,28.2,0,0,0,7.752-5.16a10.222,10.222,0,0,0,1.176,1.7A7.3,7.3,0,0,0,6.612-3.78,5.307,5.307,0,0,0,3.876-3.2a1.82,1.82,0,0,0-.984,1.548A1.762,1.762,0,0,0,3.8-.12a4.939,4.939,0,0,0,2.6.528A10.921,10.921,0,0,0,9.48-.024c.54-.156.54-.156.744-.2l-.192-1.08a8.456,8.456,0,0,1-3.6.792c-1.584,0-2.46-.408-2.46-1.152,0-.78,1.056-1.272,2.748-1.272a5.835,5.835,0,0,1,2.868.54l.8-.576A13.192,13.192,0,0,1,8.688-5.3c.516-.108.732-.144.912-.192,1.308-.324,1.308-.324,1.572-.372l-.108-.972a13.4,13.4,0,0,1-2.76.732c-.18-.312-.42-.792-.624-1.236.612-.1,2.076-.408,2.988-.648l-.084-.936a15.762,15.762,0,0,1-3.216.78,9.02,9.02,0,0,1-.588-1.62L5.712-9.6c.1.168.432.936.684,1.572a21.969,21.969,0,0,1-2.736.156c-.444,0-.672-.012-.972-.036ZM18.5-.36v.3A5.221,5.221,0,0,1,18.432.96h1.032a8.409,8.409,0,0,1-.1-1.32l-.024-2.088h3.528c-.12,1.656-.156,1.764-.768,1.764A9.586,9.586,0,0,1,20.64-.816a3.8,3.8,0,0,1,.228.864,11.9,11.9,0,0,0,1.26.06c.864,0,1.176-.156,1.344-.66a10.826,10.826,0,0,0,.312-2.232,4.1,4.1,0,0,1,.06-.468,7.082,7.082,0,0,1-1,.048H19.332L19.32-4.32h2.8c.48,0,.8.012,1.116.036a5.172,5.172,0,0,1-.048-.84V-6.192a4.559,4.559,0,0,1,.048-.78,8.528,8.528,0,0,1-1.116.048h-6.5a6.487,6.487,0,0,1-1.14-.06v.876a7.87,7.87,0,0,1,1.14-.06H18.42l.012,1.1H15.96a7.507,7.507,0,0,1-1.128-.048,7.866,7.866,0,0,1-.18,1.2,9.159,9.159,0,0,1-.672,2l.984.072c.108-.288.144-.384.216-.612h2.664A8.017,8.017,0,0,1,15.78-.96a10.965,10.965,0,0,1-2.34.888,3.256,3.256,0,0,1,.564.8A11.122,11.122,0,0,0,16.4-.36,9.3,9.3,0,0,0,18.48-2Zm.8-4.7-.012-1.1h3.012v1.1Zm-.864.744L18.468-3.2H15.4c.12-.456.18-.72.252-1.116ZM16.176-8.34a6.973,6.973,0,0,1,.636,1.272l.8-.288a9.256,9.256,0,0,0-.588-.984H17.8a8.47,8.47,0,0,1,1.044.048v-.9a7.008,7.008,0,0,1-1.188.072H15.9c.18-.3.24-.408.432-.756l-.924-.24a4.851,4.851,0,0,1-.684,1.3A5.5,5.5,0,0,1,13.44-7.512a2.7,2.7,0,0,1,.6.66A8.107,8.107,0,0,0,15.4-8.34Zm4.752.012a7.572,7.572,0,0,1,.708,1.26l.828-.3c-.192-.336-.408-.648-.624-.96h1.212a9.734,9.734,0,0,1,1.26.06V-9.18a7.879,7.879,0,0,1-1.3.072h-2.6c.216-.444.252-.492.372-.78L19.9-10.1A5.149,5.149,0,0,1,18.276-7.6a2.158,2.158,0,0,1,.636.552,6.089,6.089,0,0,0,1.056-1.284Zm4.584,4.68a10.425,10.425,0,0,1,.1-1.464,5.832,5.832,0,0,1,.36-1.362,3.735,3.735,0,0,1,.714-1.14,3.116,3.116,0,0,1,1.158-.78,4.558,4.558,0,0,1,1.7-.282q.252,0,.57.018a2.369,2.369,0,0,1,.522.078v1.068a2.947,2.947,0,0,0-.5-.108,4.037,4.037,0,0,0-.534-.036,3.239,3.239,0,0,0-1.368.252,2.1,2.1,0,0,0-.852.7,3.028,3.028,0,0,0-.456,1.032,6.829,6.829,0,0,0-.18,1.26h.072a2.239,2.239,0,0,1,.744-.714A2.337,2.337,0,0,1,28.8-5.424a2.4,2.4,0,0,1,1.794.69,2.665,2.665,0,0,1,.678,1.95,2.936,2.936,0,0,1-.75,2.124,2.689,2.689,0,0,1-2.034.78,2.865,2.865,0,0,1-1.506-.408A2.8,2.8,0,0,1,25.908-1.53,4.942,4.942,0,0,1,25.512-3.648ZM28.476-.936a1.478,1.478,0,0,0,1.116-.45,1.957,1.957,0,0,0,.432-1.4,1.79,1.79,0,0,0-.378-1.2,1.407,1.407,0,0,0-1.134-.444,1.806,1.806,0,0,0-.9.216,1.669,1.669,0,0,0-.6.552,1.252,1.252,0,0,0-.216.684,2.523,2.523,0,0,0,.192.954,1.926,1.926,0,0,0,.564.78A1.406,1.406,0,0,0,28.476-.936Zm10.56-2.22v1H37.38a12.269,12.269,0,0,1-1.392-.06v.936A11.11,11.11,0,0,1,37.4-1.356h1.632V-.348A9.08,9.08,0,0,1,38.964,1h1.008A8.893,8.893,0,0,1,39.9-.336v-1.02h1.992a12,12,0,0,1,1.38.072v-.948A9.122,9.122,0,0,1,41.9-2.16h-2v-1h1.7a8.826,8.826,0,0,1,1.092.048,9.042,9.042,0,0,1-.048-1.1V-6.624A9.01,9.01,0,0,1,42.7-7.74a7.844,7.844,0,0,1-1.056.048A16.226,16.226,0,0,0,42.672-9.72l-.9-.324A9.289,9.289,0,0,1,40.7-7.692H37.476A7.509,7.509,0,0,1,36.42-7.74a10.192,10.192,0,0,1,.036,1.068v2.508a10.233,10.233,0,0,1-.036,1.056,9.135,9.135,0,0,1,1.116-.048Zm0-3.792v1.116H37.272V-6.948Zm.864,0h1.92v1.116H39.9Zm-.864,1.836v1.2H37.272v-1.2Zm.864,0h1.92v1.2H39.9Zm-6.42.924c.084-.672.144-1.152.192-1.824H35a7.612,7.612,0,0,1,.8.024,8.714,8.714,0,0,1-.036-.948V-8.592c0-.324.012-.588.036-.852a7.192,7.192,0,0,1-.9.036H33.576a7.407,7.407,0,0,1-1.128-.072v.948a8.8,8.8,0,0,1,1.08-.06h1.38v1.8H33.756a6.757,6.757,0,0,1-.948-.048,2.64,2.64,0,0,1,.012.276,22.127,22.127,0,0,1-.348,3.192c.288-.024.444-.024.888-.024H34.8a16.882,16.882,0,0,1-.276,2.376c-.144.708-.264.84-.7.84A10.242,10.242,0,0,1,32.484-.3a2.961,2.961,0,0,1,.156.948c.48.036.8.048,1.14.048.9,0,1.188-.168,1.428-.828a12.363,12.363,0,0,0,.468-3.048,9.708,9.708,0,0,1,.084-1.056,7.275,7.275,0,0,1-1.008.048Zm4.56-3.9A10.68,10.68,0,0,0,37.128-9.9l-.828.3a7.413,7.413,0,0,1,.912,1.824Zm2.124-.132a11.335,11.335,0,0,0-.8-1.908l-.828.264a8.265,8.265,0,0,1,.816,1.932Zm5.724,5.676h-.9l-.3-6.024h1.5ZM44.6-.708a.8.8,0,0,1,.24-.66.912.912,0,0,1,.588-.192.9.9,0,0,1,.57.192.789.789,0,0,1,.246.66A.827.827,0,0,1,46-.036a.867.867,0,0,1-.57.2.877.877,0,0,1-.588-.2A.838.838,0,0,1,44.6-.708Z" transform="translate(5094.5 -1320)" fill="#fff"/>
    <path id="パス_3715" data-name="パス 3715" d="M0,0H205l-9.354,10.281L205,19.7H0l7.643-9.422Z" transform="translate(4992.5 -1272)" fill="#d97f3f"/>
    <path id="パス_3843" data-name="パス 3843" d="M-21.816-7.62a7.138,7.138,0,0,1,1.116.06v-.984a6.863,6.863,0,0,1-1.116.06h-5.952c.192-.384.288-.564.384-.792.156-.384.2-.468.288-.66l-1.032-.216A7.452,7.452,0,0,1-29.34-7.644,7.949,7.949,0,0,1-31.068-5.88a3.257,3.257,0,0,1,.636.78,11.288,11.288,0,0,0,2.16-2.52Zm-2.352,2.3A19.74,19.74,0,0,0-27.084-3.5C-28.644-2.352-29.256-1.56-29.256-.7c0,.552.348.924,1.044,1.1A12.636,12.636,0,0,0-25.392.6C-22.068.6-21.5.456-21.1-.54a5.984,5.984,0,0,0,.348-1.752,2.922,2.922,0,0,1-.948-.336c-.06,1.26-.192,1.728-.516,2.016-.324.264-.924.336-3,.336A12.829,12.829,0,0,1-27.7-.4c-.36-.084-.528-.252-.528-.528a.9.9,0,0,1,.156-.48A8.431,8.431,0,0,1-25.776-3.42a26.712,26.712,0,0,1,3.492-2.028l-.444-.732a5.115,5.115,0,0,1-1.068.06h-3.84a6.789,6.789,0,0,1-1.1-.06v.924a6.88,6.88,0,0,1,1.1-.06Zm7.752-3.252a23.774,23.774,0,0,0,5.208.78l.156-1.032a18.21,18.21,0,0,1-3.324-.3,8.875,8.875,0,0,1-1.692-.432ZM-17.6-4.644a16.893,16.893,0,0,1,4.716-.8c1.332,0,2.064.54,2.064,1.524a2.809,2.809,0,0,1-1.6,2.388,8.065,8.065,0,0,1-3.456.96A3.2,3.2,0,0,1-15.42.468,9.785,9.785,0,0,0-11.844-.648,3.892,3.892,0,0,0-9.72-3.984a2.235,2.235,0,0,0-1.068-1.968,4.093,4.093,0,0,0-2.1-.468,20.078,20.078,0,0,0-3.72.432,10.11,10.11,0,0,1-1.26.2Zm12.528-3.1c.156.012.192.012.408.036a21.409,21.409,0,0,0,2.532.156A11.632,11.632,0,0,0-.348-7.68l-.228.12-.312.168c-.48.276-.7.408-1.476.924l.732.588A17.787,17.787,0,0,1,1.44-7.752l-.06-.96a14.008,14.008,0,0,1-3.156.24A14.06,14.06,0,0,1-4.992-8.76ZM2.076-1.632a11.712,11.712,0,0,1-3.624.468A8.485,8.485,0,0,1-3.72-1.38c-.648-.216-.984-.588-.984-1.1,0-.552.36-1.092,1.128-1.728l-.732-.552a3.22,3.22,0,0,0-1.428,2.4A1.938,1.938,0,0,0-4.32-.5,8.505,8.505,0,0,0-1.476-.12,20.7,20.7,0,0,0,1.752-.4a3.668,3.668,0,0,1,.432-.06ZM1.752-6.888a8.794,8.794,0,0,1,1.236,1.86l.7-.4a8.954,8.954,0,0,0-1.26-1.824ZM.36-6.24a8.376,8.376,0,0,1,1.248,1.9l.708-.4A9.391,9.391,0,0,0,1.056-6.6Zm14.052,3.3V-.312c0,.192-.1.264-.372.264a5.883,5.883,0,0,1-1.272-.144A3.653,3.653,0,0,1,13,.792c.612.048.72.048.936.048C15,.84,15.288.624,15.288-.18V-8.22a10.166,10.166,0,0,1,.048-1.212,10,10,0,0,1-1.176.048H12.48a10.594,10.594,0,0,1-1.2-.048,12.776,12.776,0,0,1,.048,1.44A48.24,48.24,0,0,1,11.112-2.3,4.349,4.349,0,0,1,9.96.252a2.535,2.535,0,0,1,.72.672A6.4,6.4,0,0,0,12.06-2.94Zm0-2.856v2.04H12.12c.024-.6.048-1.38.06-2.04Zm0-.816h-2.22V-8.556h2.22ZM6.1-8.544h-.06a4.658,4.658,0,0,1-.984-.072v.9A6.489,6.489,0,0,1,6.1-7.764v4.98H5.82a4.688,4.688,0,0,1-.948-.06v.9A4.9,4.9,0,0,1,5.832-2h3.84c.468,0,.792.012,1.068.036v-.876a5.49,5.49,0,0,1-.888.06v-4.98a6.335,6.335,0,0,1,.948.048v-.9a4.653,4.653,0,0,1-.948.072V-8.76a7.025,7.025,0,0,1,.072-1.116H8.952a6.611,6.611,0,0,1,.06,1.1v.228H6.936V-8.76A7.232,7.232,0,0,1,7-9.876h-.96a9.387,9.387,0,0,1,.06,1.1Zm.84,5.76V-4.032H9.012v1.248Zm0-1.992V-5.9H9.012v1.128Zm0-1.872V-7.764H9.012v1.116Zm-.2,4.968A4.912,4.912,0,0,1,4.944.192,2.226,2.226,0,0,1,5.6.876,6.852,6.852,0,0,0,7.476-1.236ZM8.3-1.224A5.917,5.917,0,0,0,9.48.192a3.54,3.54,0,0,1,.648-.624A4.378,4.378,0,0,1,8.964-1.668ZM23.316-7.86v1.488H21.408a7.486,7.486,0,0,1-1.164-.072v.936a7.824,7.824,0,0,1,1.164-.06h3.648V-4.26H21.264A7.486,7.486,0,0,1,20.1-4.332v.96a8.348,8.348,0,0,1,1.2-.072h3.756v3.06c0,.2-.084.276-.336.276a2.222,2.222,0,0,0-.3.012h-.048A11.238,11.238,0,0,1,23.088-.24a3.414,3.414,0,0,1,.24.96c.42.036.828.048,1.092.048A3.448,3.448,0,0,0,25.6.612c.252-.12.384-.4.384-.84V-3.444h.444a8.007,8.007,0,0,1,1.2.072v-.96a8.3,8.3,0,0,1-1.212.072H25.98V-5.568h.432a10.66,10.66,0,0,1,1.212.06v-.936a8.479,8.479,0,0,1-1.224.072H24.216V-7.86h1.74a7.747,7.747,0,0,1,1.152.06v-.924a7.593,7.593,0,0,1-1.164.072H24.216v-.432a5.879,5.879,0,0,1,.06-.96H23.244a6.229,6.229,0,0,1,.072.96v.432H21.792a7.486,7.486,0,0,1-1.164-.072V-7.8a7.671,7.671,0,0,1,1.14-.06Zm-3.888-2.268a6.9,6.9,0,0,1-2.58,2.448,2.631,2.631,0,0,1,.54.756,10.681,10.681,0,0,0,2.388-2.148c.336-.4.336-.4.432-.5Zm4.08,8.976A14.007,14.007,0,0,0,21.7-3.144l-.708.516A9.42,9.42,0,0,1,22.752-.552Zm-5.232.66A10.648,10.648,0,0,1,18.2.912h1.02a10.352,10.352,0,0,1-.06-1.4V-5.424a10.025,10.025,0,0,0,.756-1.044,5.819,5.819,0,0,1,.324-.492l-.8-.5a8.342,8.342,0,0,1-2.712,3.216,3.122,3.122,0,0,1,.48.852,5.482,5.482,0,0,0,1.1-1.14c-.036.576-.036.888-.036,1.368Zm12.18-2.052h-.9l-.3-6.024h1.5ZM29.172-.708a.8.8,0,0,1,.24-.66A.911.911,0,0,1,30-1.56a.9.9,0,0,1,.57.192.789.789,0,0,1,.246.66.827.827,0,0,1-.246.672.867.867,0,0,1-.57.2.877.877,0,0,1-.588-.2A.838.838,0,0,1,29.172-.708Z" transform="translate(5094.5 -1258)" fill="#fff"/>
    <path id="パス_3840" data-name="パス 3840" d="M-53.928,0H-65.9V-2.52l4.3-4.344q1.3-1.344,2.088-2.244a7.752,7.752,0,0,0,1.152-1.632,3.514,3.514,0,0,0,.36-1.572,1.956,1.956,0,0,0-.564-1.536,2.2,2.2,0,0,0-1.524-.5,4.338,4.338,0,0,0-1.92.456,10.357,10.357,0,0,0-1.968,1.3l-1.968-2.328a15.975,15.975,0,0,1,1.56-1.188,7.565,7.565,0,0,1,1.932-.912,8.716,8.716,0,0,1,2.628-.348,6.349,6.349,0,0,1,2.892.612,4.614,4.614,0,0,1,1.872,1.656,4.33,4.33,0,0,1,.66,2.364,5.916,5.916,0,0,1-.564,2.592A9.509,9.509,0,0,1-56.6-7.824q-1.068,1.152-2.58,2.544l-2.208,2.064v.168h7.464Zm18.12-5.544v4.152c0,.528-.168.648-.888.648a24.267,24.267,0,0,1-3.528-.288,8.683,8.683,0,0,1,.7,2.688c1.224.072,2.016.1,2.784.1,1.584,0,2.256-.12,2.784-.48.6-.384.864-1.08.864-2.28V-16.56a18.1,18.1,0,0,1,.12-2.712,21.633,21.633,0,0,1-2.784.12H-45.768a24.215,24.215,0,0,1-2.808-.12,33.822,33.822,0,0,1,.12,3.624c0,6.24-.24,9.048-.96,11.28A9.087,9.087,0,0,1-51.984-.144a9.284,9.284,0,0,1,2.232,2.208A13.458,13.458,0,0,0-46.92-2.688a17.788,17.788,0,0,0,.7-2.856ZM-45.936-7.992c.144-1.944.192-2.472.192-3.216h9.936v3.216Zm.216-5.664v-3h9.912v3Zm24.456,5.544c0,.264,0,.432-.024.744H-24.72a14.5,14.5,0,0,1-2.52-.144v2.568a15.333,15.333,0,0,1,2.52-.144h3.072a5.455,5.455,0,0,1-1.7,2.664,9.924,9.924,0,0,1-4.44,2.136,8.76,8.76,0,0,1,1.7,2.352C-23.136.912-21.7-.048-20.5-1.632a8.44,8.44,0,0,0,1.488-3.456h3.1V-.432c0,1.68.768,2.088,4.032,2.088,4.608,0,5.04-.36,5.568-4.416A8.189,8.189,0,0,1-8.9-3.6a5.614,5.614,0,0,1-.432,2.4c-.264.336-.84.456-2.16.456a5.551,5.551,0,0,1-1.536-.12c-.36-.1-.384-.144-.384-.648V-5.088H-9.6a18.31,18.31,0,0,1,2.52.144V-7.512a14.334,14.334,0,0,1-2.52.144h-3.816V-9.96a19.347,19.347,0,0,1,2.3.1V-10.9a24.055,24.055,0,0,0,3.96,2.16,9.79,9.79,0,0,1,1.344-2.376,21.3,21.3,0,0,1-3.84-1.824,18.591,18.591,0,0,0,2.16-2.208c.48-.528.528-.6.672-.744l-2.208-1.248a14.151,14.151,0,0,1-2.5,2.9c-.5-.384-.768-.6-1.416-1.152a24.785,24.785,0,0,0,1.776-1.8c.552-.648.864-1.008.936-1.1l-2.208-1.224c-.072.12-.072.12-.192.312a4.209,4.209,0,0,1-.5.7,12.618,12.618,0,0,1-1.416,1.536,5.908,5.908,0,0,1-1.488-2.616,13.819,13.819,0,0,1-2.064.1h-4.44a13.714,13.714,0,0,1-1.992-.12v2.5l-.768-.624-1.968,1.464a16.441,16.441,0,0,1,3.36,3.144A20.586,20.586,0,0,1-28.488-10.8a9.08,9.08,0,0,1,1.416,2.208,23.659,23.659,0,0,0,4.224-2.328v1.056c.6-.048.864-.072,1.608-.1ZM-18.7-9.96h2.784v2.592H-18.72V-7.92Zm-.864-7.248a15.521,15.521,0,0,1-2.352,2.568,20.648,20.648,0,0,0-2.616-2.472,10.684,10.684,0,0,1,1.464-.1Zm-.912,4.992h-.648a20.039,20.039,0,0,0,4.056-4.344,20.1,20.1,0,0,0,4.08,4.344h-7.488ZM5.352-18.1h-6.1a20.722,20.722,0,0,1-2.9-.144V-15.7a22.935,22.935,0,0,1,2.832-.12H5.352v1.584H.24a15.322,15.322,0,0,1-2.424-.12v2.472a21.662,21.662,0,0,1,2.424-.1H13.368a21.058,21.058,0,0,1,2.448.1v-2.472a15.481,15.481,0,0,1-2.448.12H8.016v-1.584h6.552a27.691,27.691,0,0,1,2.808.12V-18.24a20.559,20.559,0,0,1-2.88.144H8.016v-.288a7.4,7.4,0,0,1,.144-1.848H5.232a9.88,9.88,0,0,1,.12,1.848ZM-.96-5.472V-8.256h15.5v2.784h2.808a9.4,9.4,0,0,1-.12-1.752V-8.976a10.869,10.869,0,0,1,.1-1.7c-.84.072-1.44.1-2.592.1H-1.128a24.615,24.615,0,0,1-2.568-.1A12.754,12.754,0,0,1-3.6-8.9v1.7a9.77,9.77,0,0,1-.12,1.728Zm3.48-2.04a4.576,4.576,0,0,1,.072.768,8.086,8.086,0,0,1-.384,2.256,5.261,5.261,0,0,1-3.1,2.976,10.347,10.347,0,0,1-3.288.888A9.425,9.425,0,0,1-2.448,2.04,14.932,14.932,0,0,0,.144,1.128,11.031,11.031,0,0,0,2.976-.84,8.9,8.9,0,0,0,5.3-6.336a5.472,5.472,0,0,1,.144-1.032Zm7.824,1.944a9.849,9.849,0,0,1,.12-1.872H7.584a13.524,13.524,0,0,1,.1,1.992v4.92c0,1.752.648,2.064,4.3,2.064,2.76,0,3.888-.168,4.44-.7.648-.6,1.008-1.9,1.2-4.32A8.272,8.272,0,0,1,15.048-4.3c-.12,2.016-.216,2.664-.432,2.976s-.744.408-2.424.408c-1.632,0-1.848-.1-1.848-.72ZM38.16-19.32a14.671,14.671,0,0,1-2.064.1H25.416a19.489,19.489,0,0,1-2.952-.144V-16.7a21.673,21.673,0,0,1,2.9-.12h9.36a25.985,25.985,0,0,1-3.816,2.472c-1.416-.888-1.944-1.224-3.528-2.088l-1.752,1.632a48.908,48.908,0,0,1,5.28,3.408H23.5a24.136,24.136,0,0,1-3.144-.144v2.712a25.122,25.122,0,0,1,3.024-.144h6.36v7.608c0,.528-.168.648-.96.648a23.236,23.236,0,0,1-3.5-.24,9.9,9.9,0,0,1,.7,2.664c.744.048,1.944.072,2.736.072,2.952,0,3.744-.528,3.744-2.5V-8.976h5.568a15.374,15.374,0,0,1-3.48,3.264,7.749,7.749,0,0,1,2.112,1.8,22.4,22.4,0,0,0,3.816-3.96c1.008-1.344,1.536-2.016,1.56-2.04L40.512-11.52a19.9,19.9,0,0,1-2.664.12h-4.3l.72-.72c-.576-.384-.6-.408-1.128-.744,1.248-.768,2.256-1.44,3.72-2.424a26.969,26.969,0,0,0,2.784-2.28ZM53.832-1.992a6.955,6.955,0,0,1-3.648-3.336c.36-1.128.5-1.68.624-2.16.216-.984.216-1.008.336-1.416l-2.664-.5A14.877,14.877,0,0,1,48-6.816,14.21,14.21,0,0,1,43.872-.024a6.532,6.532,0,0,1,2.064,1.968,17,17,0,0,0,3.288-4.7c1.968,2.9,5.112,4.128,10.728,4.128,1.9,0,3.144-.024,5.112-.072a9.335,9.335,0,0,1,.672-2.736c-2.448.216-4.08.288-5.472.288a28.056,28.056,0,0,1-3.912-.24V-5.52h4.536a16.2,16.2,0,0,1,2.352.12V-7.968a12.31,12.31,0,0,1-2.352.144H56.352V-10.9H59.5a17.206,17.206,0,0,1,2.472.12V-13.32a16.8,16.8,0,0,1-2.472.12H50.3a16.084,16.084,0,0,1-2.424-.12v2.544A17.085,17.085,0,0,1,50.3-10.9h3.528Zm-.408-15.72H47.16c-.96,0-1.776-.024-2.64-.1.048.552.1,1.152.1,1.776v1.848a10.607,10.607,0,0,1-.12,1.9H47.16v-3h15.5v3h2.592a15.5,15.5,0,0,1-.1-1.872v-1.872a13.205,13.205,0,0,1,.1-1.776c-.888.072-1.7.1-2.664.1h-6.48v-.912a7.287,7.287,0,0,1,.12-1.512H53.28a7.767,7.767,0,0,1,.144,1.536Z" transform="translate(5094.5 -1284)" fill="#d97f3f"/>
  </g>
</svg>
