<svg xmlns="http://www.w3.org/2000/svg" width="109.856" height="90.719" viewBox="0 0 109.856 90.719">
  <g id="グループ_41211" data-name="グループ 41211" transform="translate(385.192 -1225)">
    <path id="パス_3671" data-name="パス 3671" d="M-18.993-2.067V-1.6h-5.564v-.468ZM-24.557-.195V-.7h5.564v.507Zm-1.5,1.365h1.5V.78h5.564v.377h1.56V-3.055h-8.619Zm4.927-8.957h2.093v.494h-2.093Zm0-1.547h2.093v.481h-2.093ZM-17.5-6.4V-7.787h1.482V-8.853H-17.5v-1.378h-3.627v-.819h-1.547v.819h-3.666v.9h3.666v.481h-4.992v1.066h4.992v.494h-3.809v.9h3.809v.455h-4.095v.936h4.095v.468h-5v1.079h11.661V-4.537h-5.109v-.468h4.16v-.936h-4.16V-6.4ZM-3.6-2.4v.624H-5.772V-2.4ZM-5.772-.221V-.858H-3.6v.637Zm-1.4,1.352h1.4V.78H-3.6v.312h1.482V-3.419H-7.176ZM-4.1-7.9v.819H-5.213v-.936H-5.9c.156-.221.312-.442.455-.689h.637a4.694,4.694,0,0,1,.338.949Zm0,2.86H-5.213v-.962H-4.1Zm2.639-4.914H-4.823c.091-.234.169-.455.234-.676L-6.1-11A6,6,0,0,1-7.709-8.281a11.655,11.655,0,0,1,1.079.7v.494H-7.774v1.079H-6.63v.962h-1.4L-8.021-3.9H-9.763v-.533H-8.4V-5.5H-9.763v-.546H-8.19V-7.137H-9.763v-.325l1.326-.533a4.14,4.14,0,0,0-.325-.715h1.456V-9.958h-2.873c.1-.234.221-.468.312-.689l-1.495-.4A7.335,7.335,0,0,1-13.377-8.1a9.717,9.717,0,0,1,1.287.871A11.149,11.149,0,0,0-10.907-8.71h.585a7.223,7.223,0,0,1,.351.715h-1.248v.858h-1.716v1.092h1.716V-5.5H-12.74v1.066h1.521V-3.9h-1.937v1.092h1.69A7.939,7.939,0,0,1-13.442-.494,4.846,4.846,0,0,1-12.7.637a10.885,10.885,0,0,0,1.482-1.7V1.157h1.456V-1.5C-9.308-1-8.84-.481-8.554-.13l.832-1.053c-.26-.26-1.209-1.131-1.794-1.625H-8L-8.008-3.9h6.526V-5.044h-1.2v-.962h1.053V-7.085H-2.678v-.923h-1.1l.637-.247c-.039-.13-.1-.286-.169-.455h1.859ZM1.313-5.9v1.677h11.96V-5.9ZM17.836-7.215h.923v.468h-.923Zm.923-2.509v.416h-.923v-.416Zm1.56,1.69H17.836v-.455h2.483Zm1.742,1.287H19.994v-.468h1.677V-7.93a7.293,7.293,0,0,1,1.118.754,8.123,8.123,0,0,0,.884-1.378h4.056v-1.2H24.206a8.369,8.369,0,0,0,.325-.962l-1.378-.3A7.351,7.351,0,0,1,21.671-8.06V-9.308H19.994v-.416h1.859V-10.6h-5.4v4.719h5.6Zm5.356.52V-7.4H23.1v1.17ZM19.188-2.353h5.239v.429H19.188Zm0-1.2h5.239v.416H19.188Zm0-1.183h5.239v.416H19.188Zm5.33,4.537c-.533,0-.624-.039-.624-.351v-.572h2.067V-5.551H17.732v4.433h1.677c-.312.663-1.1.949-3.627,1.092a3.522,3.522,0,0,1,.663,1.17c3.159-.3,4.147-.949,4.524-2.262h1.417v.585C22.386.637,22.763,1,24.31,1h1.9c1.157,0,1.534-.364,1.677-1.768a4.536,4.536,0,0,1-1.274-.481c-.052.91-.143,1.053-.546,1.053Z" transform="translate(-331 1314.549)" fill="#333"/>
    <path id="パス_3670" data-name="パス 3670" d="M-43.888-12a7.332,7.332,0,0,1,3.136,2.192A5.111,5.111,0,0,1-39.6-6.5a6.015,6.015,0,0,1-1.072,3.664A6.278,6.278,0,0,1-43.488-.688,10.332,10.332,0,0,1-47.312,0h-6.88V-23.136h5.984a9.058,9.058,0,0,1,5.5,1.456,5.1,5.1,0,0,1,1.952,4.368,6.07,6.07,0,0,1-.816,3.184A5.609,5.609,0,0,1-43.888-12Zm-7.2-1.024h3.52a3.433,3.433,0,0,0,2.7-1.024,3.8,3.8,0,0,0,.912-2.624A3.147,3.147,0,0,0-45.04-19.3a4.773,4.773,0,0,0-3.04-.864h-3.008ZM-47.44-2.88a5.7,5.7,0,0,0,3.328-.912A3.047,3.047,0,0,0-42.8-6.464a2.921,2.921,0,0,0-1.424-2.688,6.511,6.511,0,0,0-3.44-.864h-3.424V-2.88Zm11.616-8.672a11.411,11.411,0,0,1,1.6-5.888,12.149,12.149,0,0,1,4.3-4.336,11.3,11.3,0,0,1,5.9-1.616,11.325,11.325,0,0,1,5.888,1.616,12.237,12.237,0,0,1,4.336,4.336,11.325,11.325,0,0,1,1.616,5.888,11.469,11.469,0,0,1-1.6,5.92,11.818,11.818,0,0,1-4.336,4.3,11.585,11.585,0,0,1-5.9,1.584,11.649,11.649,0,0,1-5.92-1.568,11.646,11.646,0,0,1-4.3-4.272A11.591,11.591,0,0,1-35.824-11.552Zm3.2.032a8.685,8.685,0,0,0,1.152,4.384,8.64,8.64,0,0,0,3.152,3.2,8.42,8.42,0,0,0,4.368,1.184A8.338,8.338,0,0,0-19.616-3.92a8.439,8.439,0,0,0,3.1-3.2,8.931,8.931,0,0,0,1.136-4.432A8.921,8.921,0,0,0-16.528-16a8.608,8.608,0,0,0-3.136-3.232,8.336,8.336,0,0,0-4.352-1.184,8.251,8.251,0,0,0-4.352,1.2,8.608,8.608,0,0,0-3.12,3.248A9.02,9.02,0,0,0-32.624-11.52ZM-8.4-11.552A11.411,11.411,0,0,1-6.8-17.44a12.149,12.149,0,0,1,4.3-4.336,11.3,11.3,0,0,1,5.9-1.616A11.325,11.325,0,0,1,9.3-21.776a12.237,12.237,0,0,1,4.336,4.336,11.325,11.325,0,0,1,1.616,5.888,11.469,11.469,0,0,1-1.6,5.92,11.818,11.818,0,0,1-4.336,4.3A11.585,11.585,0,0,1,3.408.256a11.649,11.649,0,0,1-5.92-1.568,11.646,11.646,0,0,1-4.3-4.272A11.591,11.591,0,0,1-8.4-11.552Zm3.2.032A8.685,8.685,0,0,0-4.048-7.136,8.64,8.64,0,0,0-.9-3.936,8.42,8.42,0,0,0,3.472-2.752,8.338,8.338,0,0,0,7.808-3.92a8.439,8.439,0,0,0,3.1-3.2,8.931,8.931,0,0,0,1.136-4.432A8.921,8.921,0,0,0,10.9-16,8.608,8.608,0,0,0,7.76-19.232a8.336,8.336,0,0,0-4.352-1.184,8.251,8.251,0,0,0-4.352,1.2,8.608,8.608,0,0,0-3.12,3.248A9.02,9.02,0,0,0-5.2-11.52Zm28.736-1.152.384-.608,9.472-9.856h4l-9.568,9.92L37.936,0H34L25.552-11.232,23.6-9.344,23.632,0H20.464V-23.136h3.168v9.312Zm30.656-6.336A13.88,13.88,0,0,0,51.536-20.1a9.389,9.389,0,0,0-2.656-.416,4.794,4.794,0,0,0-2.992.848,2.767,2.767,0,0,0-1.1,2.32,2.766,2.766,0,0,0,1.3,2.352,16.768,16.768,0,0,0,3.7,1.808A16.459,16.459,0,0,1,52.8-11.792a6.167,6.167,0,0,1,2.048,2.08,6.356,6.356,0,0,1,.816,3.376,6.27,6.27,0,0,1-.928,3.36A6.411,6.411,0,0,1,52.1-.608,8.807,8.807,0,0,1,48.08.256a12.51,12.51,0,0,1-4.128-.688,14.035,14.035,0,0,1-3.488-1.744L41.84-4.64a11.218,11.218,0,0,0,2.848,1.52,8.876,8.876,0,0,0,3.1.624,5.579,5.579,0,0,0,3.248-.96A3.234,3.234,0,0,0,52.432-6.3a3.1,3.1,0,0,0-1.168-2.544,12.627,12.627,0,0,0-3.28-1.776,26.5,26.5,0,0,1-3.248-1.44A6.873,6.873,0,0,1,42.512-14a4.987,4.987,0,0,1-.928-3.088,5.588,5.588,0,0,1,1.9-4.4,7.577,7.577,0,0,1,4.944-1.776,13.6,13.6,0,0,1,6.944,1.856Z" transform="translate(-331 1284.549)" fill="#333"/>
    <g id="レイヤー_2" data-name="レイヤー 2" transform="translate(-347 1225)">
      <g id="文字">
        <path id="パス_110" data-name="パス 110" d="M18.108,5.6a.142.142,0,0,0,0-.189L16.8,4.717a.126.126,0,0,0-.189,0L11.73,13.731H10.609L15.74,4.259a.158.158,0,0,0,0-.189l-1.374-.758a.158.158,0,0,0-.189,0L9.046,13.731H2.068L4.752,9h5.9l.521-1.042H4.231L0,14.679l4.231,9.078H13.7l4.231-9.078-2.289-3.521-.663,1.152.805,1.421H13.372Z" transform="translate(0 1.898)" fill="#231815"/>
        <path id="パス_111" data-name="パス 111" d="M15.971,11.15c-2.494,0-4.531.568-4.531,1.263a36.864,36.864,0,0,0,.41,5.3c.095.347.568.679,1.326.9v.142c.111.442,1.074.837,2.763.837h0c1.689,0,2.652-.395,2.763-.837v-.142c.758-.221,1.231-.553,1.326-.9a36.864,36.864,0,0,0,.474-5.226C20.5,11.718,18.481,11.15,15.971,11.15Zm-1.484,4.168c-.126.458-2.321,0-2.479-.568v-.174c0-.016.126,0,.174.111a1.184,1.184,0,0,0,.379.237,3.3,3.3,0,0,0,.537.126,4.736,4.736,0,0,0,1.31.205Zm1.452-.853a10.12,10.12,0,0,1-2.226-.126H13.4c-.805-.142-1.5-.395-1.579-.774a.141.141,0,1,1,.268-.079c0,.237,1.042.41,1.405.474h.332a9.773,9.773,0,0,0,2.131.205.142.142,0,1,1,0,.284Zm0-1.168c-2.163,0-3.9-.395-3.9-.884s1.737-.9,3.9-.9,3.9.395,3.9.9-1.705.884-3.852.884Z" transform="translate(6.621 6.453)" fill="#231815"/>
        <path id="パス_112" data-name="パス 112" d="M24.182,10.735c-.647-1.263-2.116-2.005-2.589-3.363A4.373,4.373,0,0,1,21.025,5.1,7.894,7.894,0,0,1,21.5,2.431a3.568,3.568,0,0,1,.332-.947c.095-.158.489-.426.521-.568S21.83.347,21.514.268A9.125,9.125,0,0,0,19.446,0H18.83a9.251,9.251,0,0,0-1.973.253c-.316,0-.916.268-.837.647s.426.41.521.568a3.157,3.157,0,0,1,.332.947,8.273,8.273,0,0,1,.474,2.668,4.515,4.515,0,0,1-.537,2.273c-.489,1.358-1.958,2.1-2.589,3.363a13.735,13.735,0,0,0-1.437,6.647,15.788,15.788,0,0,1,2.415-.189h0a9.188,9.188,0,0,1,4.389.837,1.01,1.01,0,0,1,.521.805,35.1,35.1,0,0,1-.426,5.4c-.174.553-.663.853-1.358,1.105h.884c3.536,0,5.573-.837,5.841-1.784a27.17,27.17,0,0,0,.537-5.889,14.051,14.051,0,0,0-1.405-6.915Z" transform="translate(7.393)" fill="#231815"/>
      </g>
    </g>
  </g>
</svg>
