<svg id="h2-about" xmlns="http://www.w3.org/2000/svg" width="275.659" height="37.6" viewBox="0 0 275.659 37.6">
  <path id="パス_1" data-name="パス 1" d="M26.948,20.952c3.373,0,6.46,2.011,6.46,5.589,0,3.839-3.762,8.535-15.4,8.535-.391,0-1.173,0-1.173-.632,0-.226.108-.412.783-.485.425-.077,2.555-.3,3.018-.376,9.156-1.6,9.156-6.187,9.156-7.3,0-1.751-.533-3.8-3.2-3.8-3.23,0-6.388,3.428-7.241,5.964-.212.6-.425,1.268-1.347,1.268-1.456,0-2.414-1.788-2.414-4.136,0-1.417.427-5.444.817-9.282a11.523,11.523,0,0,1-2.982.6,4.034,4.034,0,0,1-3.9-2.8c0-.3.248-.371.462-.371a.865.865,0,0,1,.39.114,7.768,7.768,0,0,0,2.839.445,10.043,10.043,0,0,0,3.478-.633c.178-2.571.249-3.8.249-4.659a3.908,3.908,0,0,0-.213-1.454c-.391-.93-.426-.967-.426-1.228a.928.928,0,0,1,1.029-.932c1.136,0,3.266.97,3.266,2.348,0,.036-1.029,4.4-1.1,5.217a9.344,9.344,0,0,0,1.1-.931,1.584,1.584,0,0,1,1.277-.447c.959,0,1.953.6,1.953,1.416,0,.522-.036,1.23-4.791,2.833-.142,1.191-.782,6.113-.782,7.491,0,1.08.143,1.34.462,1.378C22.511,21.993,23.967,20.952,26.948,20.952ZM48.379,32.891c0,.809-.383.995-.858.995a1.887,1.887,0,0,1-1.45-.87,9.728,9.728,0,0,0-2.544-2.611c-.5,2.363-2.573,3.355-4.907,3.355-1.006,0-3.077-.372-3.077-1.955,0-1.645,2.013-3.169,5.767-3.169a1.249,1.249,0,0,1,.473.062c0-1.056-.65-6.213-.71-7.393-.03-.5-.147-2.979-.177-3.539,0-.188-.355-.994-.355-1.213a.707.707,0,0,1,.71-.683c.68,0,1.8.558,1.8,1.367,0,.31-.146,1.925-.146,2.268a28.4,28.4,0,0,0,.176,3.2c.325,3.229.474,4.876.5,6.3C46.9,30.161,48.379,31.961,48.379,32.891Zm-7.6-3.354c-1.242,0-3.432.561-3.432,1.9,0,.838,1.274.838,1.569.838a2.532,2.532,0,0,0,2.84-2.485,1.646,1.646,0,0,0-.979-.248Zm4.2-7.889c-.5,0-1.716-.685-1.716-1.243,0-.341.208-.341.858-.341a2.954,2.954,0,0,0,1.126-.28,4.67,4.67,0,0,1,1.478-.558c.443,0,1.33.527,1.33,1.117,0,.933-2.487,1.305-3.078,1.305Zm22.065-1.7a.625.625,0,0,1,.567.6c0,.485-.532,2.831-.6,3.354a42.19,42.19,0,0,0-.246,5.589c0,1.2-1.35,1.681-2.52,1.681-1.883,0-8.164-1.866-9.231-13.008-.07-.82-.106-5.218-.141-5.59-.035-.188-.462-1.157-.462-1.381,0-.706.6-.784.959-.784,1.136,0,3.123,1.307,3.123,2.724a6.984,6.984,0,0,1-.141,1.451,26.585,26.585,0,0,0-.32,3.8c0,7.9,4.226,9.206,4.97,9.206.959,0,1.244-.857,1.847-2.645.247-.708,1.418-4.359,1.561-4.623a.729.729,0,0,1,.632-.378Zm13.347,4.325a1.291,1.291,0,0,1-1.1-.6,6.877,6.877,0,0,1-.533-1.3c-2.272-5.664-5.786-6.075-7.064-6.224-1.844-.223-1.915-.223-1.915-.559,0-.484,1.915-.892,3.3-.892,5.715,0,9.335,4.77,9.335,7.528a2.132,2.132,0,0,1-2.025,2.043Zm21.826-14.2c0,.934-1.349,1.6-1.951,1.6-.959,0-3.194-2.271-4.153-3.428-3.3,2.5-8.021,5.368-11.145,5.368-.177,0-.6,0-.6-.261,0-.188.675-.6.853-.709a40.5,40.5,0,0,0,9.157-7.38,1.973,1.973,0,0,1,1.349-.634c.815,0,1.953.634,1.953,1.639a.578.578,0,0,1-.179.45c.71.783,1.066.967,4.117,2.645.207.109.6.3.6.7Zm-8.767,4.4a17.31,17.31,0,0,0-.071-1.79c-.6-.374-.674-.409-.674-.633,0-.71,1.6-1.678,2.378-1.678.46,0,1.348.3,1.348,1.006,0,.149-.106.672-.106.783a17.853,17.853,0,0,0-.178,2.312h1.1a1.55,1.55,0,0,1,1.35-.747,1.69,1.69,0,0,1,1.633,1.565c0,.074-.108.559-.108.6a5.091,5.091,0,0,0-.106,1.268c0,.932.214,4.918.214,5.739,0,1.006-1.491,1.3-2.238,1.3-.851,0-.851-.446-.851-.931H91.922v7.006c.462-.111,2.59-.483,3.016-.558a14.5,14.5,0,0,0,2.166-.6,14.233,14.233,0,0,0-1.739-2.681c-.6-.783-.674-.857-.674-.971,0-.224.177-.258.354-.258,1.03,0,5.857,2.195,5.857,5.217a1.457,1.457,0,0,1-1.456,1.529c-1.1,0-1.419-.821-1.738-1.717-6.673,2.983-9.656,3.428-10.045,3.428-.781,0-1.882-.482-1.882-1.525,0-1.418,1.634-1.492,3.3-1.6.037-1.192.107-2.646.107-5.7,0-2.235-.035-6.558-.07-8.5-.427-.262-.567-.371-.567-.6,0-.859,1.6-2.049,2.376-2.049a1.038,1.038,0,0,1,1.031.783Zm3.764,1.377h-5.29v2.237h5.29Zm.033,3.691H91.922v2.273h5.323Zm19.026,12.746c.355.3,2.376,1.452,2.376,1.715,0,.485-3.656,1.565-4.258,1.565-1.066,0-2.769-2.087-3.8-3.95-1.7-3.057-2.2-6.3-2.449-9.916a19.457,19.457,0,0,1-.425,4.136,10.733,10.733,0,0,1-6.956,8.353,18.6,18.6,0,0,1-5.289,1.337c-.142,0-.39,0-.39-.258,0-.224.107-.3,1.171-.709,7.985-3.2,9.157-7.791,9.3-17.108-.391-.446-.462-.521-.462-.744a2.772,2.772,0,0,1,2.45-2.085c.357,0,1.491.148,1.491,1.191A4.37,4.37,0,0,1,108.817,17c.744,8.871,5.393,13.568,7.454,15.281ZM105.16,13.5c-.815,1.678-3.372,4.882-4.294,4.882-.142,0-.285-.072-.285-.223,0-.037,1.741-4.1,2.023-4.92a29.436,29.436,0,0,0,1.883-7.9,1.579,1.579,0,0,1,1.775-1.527,1.8,1.8,0,0,1,1.88,1.715c0,1.117-1.1,4.247-2.023,6.3h6.459a2.474,2.474,0,0,1,1.952-1.155,1.917,1.917,0,0,1,1.988,1.977c0,1.044-1.773,4.4-2.27,5.181-.213.3-.675,1.006-1.243,1.006-.639,0-.639-.6-.639-.858,0-.3.142-3.764.142-4.473Zm39.4,12.225c1.738.259,2.554,2.457,2.554,3.166,0,.673-.957,1.045-1.453,1.045-.569,0-1-.149-2.664-1.416-.744-.56-1.844-1.23-3.618-2.348A13.265,13.265,0,0,1,130.112,35a9.56,9.56,0,0,1-2.8.45c-.533,0-.924-.188-.924-.45,0-.15.745-.447,1.03-.557a13.912,13.912,0,0,0,9.086-9.5c-1.847-.747-5.15-2.125-8.448-1.863-3.3,6.035-4.047,6.744-6.743,6.744-1.847,0-3.443-.859-3.443-2.722,0-1.788,2.129-4.659,8.3-5.515,1.847-3.579,4.722-9.766,4.722-11.182,0-.149-.036-.258-.25-.258-.852,0-4.151,2.051-4.969,2.051a2.628,2.628,0,0,1-2.556-2.387c0-.408.215-.523.5-.523s1.491.188,1.742.188a17.216,17.216,0,0,0,6.031-1.454c1.314-.708,1.384-.746,1.917-.746A2.016,2.016,0,0,1,135.4,9.135c0,.449-.071.563-.746,1.6-3.266,5.22-5.076,8.832-6.034,10.7A26.885,26.885,0,0,1,137.211,23c0-.15.25-2.124.25-2.164a1.332,1.332,0,0,0-.145-.6,7.213,7.213,0,0,1-.744-1.306c0-.447.744-.669,1.417-.669a2.608,2.608,0,0,1,2.806,2.684A12.24,12.24,0,0,1,140.3,24a18.345,18.345,0,0,0,4.258,1.721Zm-23.82,1.151c0,.783.888.783,1,.783,1.774,0,3.194-3.2,3.832-4.583C122.3,23.894,120.74,25.573,120.74,26.876Zm45.96-4.359c5.359-.039,7.383-.077,9.619-.114a2.917,2.917,0,0,1,2.272-1.75,3,3,0,0,1,2.484,2.458c0,.971-1,1.157-1.7,1.157H166.739c0,.932.071,5.364.071,6.372,0,2.012-.317,5.816-4.188,5.816-2.662,0-4.683-2.424-4.969-2.8,0-.148.145-.148.215-.148.425,0,2.375.3,2.837.3,2.52,0,2.771-1.751,2.771-4.213V24.269h-8.8a11.726,11.726,0,0,0-1.633.071,24.946,24.946,0,0,1-2.555.56c-.6,0-1.03-.3-1.03-.932,0-.669.532-1.75,1.49-1.75.212,0,1.241.148,1.491.184.462.037,2.625.037,3.193.037,1.137,0,6.637.077,7.881.077l.035-5.666H157.62a10.88,10.88,0,0,0-1.988.114c-.318.035-1.881.445-2.234.445-.532,0-1.03-.261-1.03-.856,0-.709.5-1.789,1.383-1.789.249,0,1.454.224,1.74.259,1.029.075,1.385.075,4.508.075h3.514c0-1.9-.035-2.8-.143-4.769a36.313,36.313,0,0,1-4.151.186c-.994,0-6.957,0-6.957-1.155,0-.374.638-.374.886-.374.851,0,2.839-.186,3.869-.26,7.736-.709,11.251-2.088,13.489-3.02a2.081,2.081,0,0,1,1.843-1.23c.923,0,2.415.783,2.415,2.012,0,1.044-.959,1.529-1.668,1.826a35.749,35.749,0,0,1-6.317,1.716c-.073,2.682-.073,3.428-.108,5.066.815,0,4.934-.037,5.855-.037a2.811,2.811,0,0,1,2.238-1.676,2.694,2.694,0,0,1,2.377,2.348c0,1.044-1.384,1.08-1.74,1.08h-8.73Zm28.678-11.779a2.486,2.486,0,0,0-1.954,1.119H191.8c0-2.125.073-3.542.25-5.853.035-.184.141-1.08.141-1.264,0-.709-.425-1.083-1.276-1.083-.959,0-2.768,1.419-2.768,2.238,0,.223.635,1.006.635,1.229.075.6.145,4.026.145,4.735H187.29c-.178-.857-1.1-.857-1.278-.857-.783,0-2.234,1.268-2.234,1.937,0,.187.035.187.351.6.216.261.216.449.216.934,0,.334,0,2.869-.11,4.809-.031,1.155-.388,6.073-.388,7.077a1.041,1.041,0,0,0,1.064,1.08c2.164,0,2.164-2.122,2.164-3.127,0-.635.144-10.249.144-10.585.033-.11.07-.371.283-.371h1.42c-.036,2.758-.07,9.579-.251,14.98-.035,1.045-.284,5.518-.284,6.41,0,.861.39,1.381,1.208,1.381,2.236,0,2.236-2.31,2.236-2.906,0-1.565-.037-6.151-.071-7.977a4,4,0,0,0,2.734,1.64c2.129,0,2.129-1.863,2.129-3.541,0-1.491-.1-8.16-.1-9.5a2.979,2.979,0,0,1,.212-1.268,1.315,1.315,0,0,0-1.349-1.828Zm-1.634,11.888c0,1.08-.036,2.2-1.064,2.2a4.015,4.015,0,0,1-.923-.149c-.036-1.789,0-9.728,0-11.328h1.951c0,.371.036,1.937.036,2.273Zm19.628-11.813a2.149,2.149,0,0,0-1.776,1.416h-5.5c.035-1.08.282-6.372.282-6.746,0-.481-.07-1.451-1.311-1.451-1.1,0-2.983,1.117-2.983,2.124,0,.261.107.372.569.818.247.262.247.485.247,1.53,0,1.491.108,8.05.108,9.353,0,.821.034,2.051.034,3.428h-1.7a1.268,1.268,0,0,0-1.276-.892c-.888,0-2.344,1.117-2.344,2.011a.868.868,0,0,0,.461.709c.141,1.455-.212,9.729-.212,10.734,0,.635,0,1.49,1.136,1.49.745,0,2.129-.783,2.129-1.6V31.908h7.523c-.032,1.527-.07,2.125,1.422,2.125,1.136,0,2.165-.56,2.165-1.866,0-1.378-.251-7.64-.251-8.907,0-.223.216-1.193.216-1.377a1.65,1.65,0,0,0-1.705-1.6,2.178,2.178,0,0,0-1.774,1.006h-2.876c.037-4.136.071-5.663.11-7.416h7.806c.6,0,1.561-.149,1.561-1.005a2.285,2.285,0,0,0-2.056-2.055ZM206.5,23a3.355,3.355,0,0,1,2.035,1,.236.236,0,0,0-.011-.054.573.573,0,0,1,.031.078.889.889,0,0,1,.078.1c.084,1-.018,1.927,0,2.984-.038.485.127,1.1-.28,1.569a2.772,2.772,0,0,1-1.089.737.254.254,0,0,1-.007.072.811.811,0,0,1-.106.317,1.087,1.087,0,0,1-.45.423,3.239,3.239,0,0,1-1.136.308l-.124.012c-.11.012-.224.016-.341.024-.235-.009-.433-.024-.607-.044-.129-.019-.16.024-.283,0-.01.1-.339-.021-.48-.11-.024.019-.031.05-.074.063-.02-.009-.071-.043-.094-.05a1.022,1.022,0,0,1-.19-.044,1.116,1.116,0,0,1-.562-.544h.045l-.026-.042c.047.02.066,0,.012-.085.031,0,.078.017.078,0-.009-.048-.036-.126-.047-.18a2.425,2.425,0,0,1-1.257-1.245,1.909,1.909,0,0,1-.1-.32c-.047-.329-.031-.577-.058-.878-.023-.537-.052-1.078-.078-1.5-.018-.322-.068-.384-.075-.693-.05,0-.076-.161-.077-.47a1.124,1.124,0,0,1,.461-.81c.016-.051-.017-.066.051-.151.05-.037.193-.11.251-.15a2.922,2.922,0,0,1,.412-.231,4.625,4.625,0,0,1,1.712-.286l-.047.043s.052,0,.1-.007c-.087.035-.071.064.144.047-.035.031-.122.063-.082.073.168.021.528.009.555.033a.039.039,0,0,1-.006.057h.006c2.623.1,3.417.685,3.663,1.031a1.829,1.829,0,0,0-.758-.628,12.252,12.252,0,0,0-2.9-.609l.309-.021a12.162,12.162,0,0,1,1.4.181Zm7.462-16.09A2.539,2.539,0,1,1,216.5,4.368a2.539,2.539,0,0,1-2.538,2.542Zm0-4.8a2.258,2.258,0,1,0,2.257,2.258,2.258,2.258,0,0,0-2.257-2.258Zm1.223,3.629h-.419c-.139-.417-.24-.691-.3-.826a.666.666,0,0,0-.276-.329,1.117,1.117,0,0,0-.437-.058h-.329q0,.7.026,1.209h-.4q.031-.674.031-1.487,0-.766-.031-1.344h.306c.064,0,.148,0,.247-.007s.215-.006.344-.006q.952,0,.951.657a.778.778,0,0,1-.534.767v.022a.66.66,0,0,1,.386.333,9.275,9.275,0,0,1,.432,1.07ZM214.518,3.7q0-.518-.7-.518a2.69,2.69,0,0,0-.419.028q.016.378.016,1.029h.249Q214.518,4.244,214.518,3.7Z" fill="#231815"/>
  <path id="パス_2" data-name="パス 2" d="M3.8,15.451H0V0H8.339V3.679H3.8ZM2.531,14.2V2.478H7.074V1.2H1.265v13Z" fill="#231815"/>
  <path id="パス_3" data-name="パス 3" d="M222.587,22.148h3.795V37.6h-8.338V33.933h4.543Zm1.265,1.252V35.133h-4.543V36.4h5.808v-13Z" fill="#231815"/>
  <path id="パス_4" data-name="パス 4" d="M242.535,16.523a1.692,1.692,0,0,1,.362-.268,1.52,1.52,0,0,1,.394-.11,4.1,4.1,0,0,1,.546-.031,6.254,6.254,0,0,1,2.2.42q1.228.462,1.229,1.2a.973.973,0,0,1-.084.42l-.147.3a6.188,6.188,0,0,0-.431,1.627,18.032,18.032,0,0,0-.21,2.9q0,.987.693.987a6.625,6.625,0,0,0,1.963-.714,5.162,5.162,0,0,1,1.87-.6,1.336,1.336,0,0,1,1.082.494,1.294,1.294,0,0,1,.347.84.94.94,0,0,1-.567.914,20.5,20.5,0,0,1-2.163.588,15.142,15.142,0,0,0-5.429,2.268,3.133,3.133,0,0,0-1.523,2.447,1.731,1.731,0,0,0,.861,1.565,4.386,4.386,0,0,0,2.31.5,19.672,19.672,0,0,0,5.072-.756,3.1,3.1,0,0,1,.735-.116,1.964,1.964,0,0,1,1.25.462,1.521,1.521,0,0,1,.672,1.155.877.877,0,0,1-.567.861,7.307,7.307,0,0,1-2.048.378q-1.365.126-2.814.126a19.93,19.93,0,0,1-2.52-.147,5.159,5.159,0,0,1-3.182-1.407,3.494,3.494,0,0,1-1-2.51,4.084,4.084,0,0,1,.735-2.3,11.334,11.334,0,0,1,4.316-3.434q-.116.01-.179.01a1.575,1.575,0,0,1-.63-.136,1.47,1.47,0,0,1-.756-.641,4.751,4.751,0,0,1-.378-1.691q-.042-.461-.084-1.816-.063-1.607-.137-2.29a1.718,1.718,0,0,0-.262-.809,1.671,1.671,0,0,0-.872-.557A6.335,6.335,0,0,0,242.535,16.523Z"/>
  <path id="パス_5" data-name="パス 5" d="M262.815,25.218l.241.084-.157.62q-.7,2.657-.84,3.3a13.029,13.029,0,0,0-.4,2.552,6.974,6.974,0,0,0,.052.7q.031.325.032.567a1.111,1.111,0,0,1-.336.851.985.985,0,0,1-.693.273q-.777,0-1.281-1.113a7.872,7.872,0,0,1-.535-1.859,15.274,15.274,0,0,1-.221-2.7,24.405,24.405,0,0,1,.189-2.94q.189-1.523.8-4.327a13.064,13.064,0,0,0,.367-2.258,3.506,3.506,0,0,0-.178-1.113,6.121,6.121,0,0,0-.483-.987,2.859,2.859,0,0,1,1.113.5,5.924,5.924,0,0,1,1.439,1.575,2.719,2.719,0,0,1,.525,1.417,2.382,2.382,0,0,1-.389,1.113,14.245,14.245,0,0,0-.84,1.659,12.2,12.2,0,0,0-.714,2.489,12.5,12.5,0,0,0-.221,2.258,8.259,8.259,0,0,0,.242,2.069q.388-.766,1.029-2.111Q262.226,26.425,262.815,25.218Zm1.585-3.56.168-.158a5.115,5.115,0,0,0,1.04.7,4.082,4.082,0,0,0,1.712.336,10.348,10.348,0,0,0,2.5-.3q-.021-1.9-.063-2.751a2.92,2.92,0,0,0-.263-1.155,1.411,1.411,0,0,0-.725-.546,3.294,3.294,0,0,0-.914-.2,1.642,1.642,0,0,1,.714-.389,3.257,3.257,0,0,1,.714-.073,5.491,5.491,0,0,1,2.279.472q.829.368.83.956a1.842,1.842,0,0,1-.221.725,4.5,4.5,0,0,0-.325.966,13.792,13.792,0,0,0-.189,1.491,9.036,9.036,0,0,0,1.071-.4,4.956,4.956,0,0,0,.84-.546.857.857,0,0,1,.536-.22,1.973,1.973,0,0,1,1.187.389.788.788,0,0,1,.368.64q0,.483-1.019.945a11.363,11.363,0,0,1-2.016.672q-.368.083-1.061.231-.011.6-.011.872a32.391,32.391,0,0,0,.315,4.652,9.292,9.292,0,0,1,2.825,1.281,2.109,2.109,0,0,1,.914,1.764,1.66,1.66,0,0,1-.263,1.029.59.59,0,0,1-.483.263.766.766,0,0,1-.483-.231q-.147-.126-.756-.746a7.2,7.2,0,0,0-1.711-1.281v.483a2.245,2.245,0,0,1-.525,1.312,3.016,3.016,0,0,1-1.512.9,6.175,6.175,0,0,1-1.774.242,4.591,4.591,0,0,1-2.185-.462,2.271,2.271,0,0,1-1.354-2.09,2.316,2.316,0,0,1,.683-1.648,4.324,4.324,0,0,1,2.562-1.134,7.565,7.565,0,0,1,1.124-.084q.388,0,1,.063v-.273l-.032-2.1-.031-2.09-.011-.462a10.82,10.82,0,0,1-1.522.126,4.23,4.23,0,0,1-2.583-.725,5.1,5.1,0,0,1-1.35-1.446Zm5.429,8.653a5.707,5.707,0,0,0-1.943-.294,3.21,3.21,0,0,0-2.31.651,1.037,1.037,0,0,0-.326.756q0,.651.809.966a3.326,3.326,0,0,0,1.239.21,3.913,3.913,0,0,0,1.323-.21,1.583,1.583,0,0,0,1.082-1.029,2.452,2.452,0,0,0,.1-.63,3.2,3.2,0,0,0,.026-.42Z"/>
</svg>
