<svg xmlns="http://www.w3.org/2000/svg" width="93.408" height="90.641" viewBox="0 0 93.408 90.641">
  <g id="グループ_41212" data-name="グループ 41212" transform="translate(376.968 -1422.178)">
    <path id="パス_3669" data-name="パス 3669" d="M-24.583-1.157c-.338,0-.936-.364-.936-.754,0-.455.52-.988,1.313-1.391.026.676.039,1.261.039,1.586C-24.167-1.274-24.349-1.157-24.583-1.157Zm1.833-4.628c0-.377,0-.767.013-1.157a24.863,24.863,0,0,0,2.457-.4l-.039-1.612a17.63,17.63,0,0,1-2.366.481c.013-.325.026-.637.039-.923.026-.325.078-.884.1-1.118H-24.31a10.22,10.22,0,0,1,.091,1.131c0,.221,0,.6-.013,1.053-.26.013-.507.026-.741.026a14.1,14.1,0,0,1-1.781-.1l.026,1.56c.559.052,1.209.065,1.794.065.208,0,.442-.013.689-.026v1.079c0,.3,0,.6.013.9-1.573.689-2.886,1.846-2.886,2.977,0,1.365,1.781,2.444,3.042,2.444.832,0,1.417-.416,1.417-2.015,0-.442-.039-1.43-.065-2.457a9.139,9.139,0,0,1,2.418-.351c1.118,0,1.9.507,1.9,1.378,0,.936-.832,1.469-1.872,1.651a9.841,9.841,0,0,1-1.586.091l.6,1.651a10.489,10.489,0,0,0,1.69-.208c2.041-.507,2.834-1.651,2.834-3.172,0-1.768-1.56-2.821-3.536-2.821a10.478,10.478,0,0,0-2.47.338Zm3.172-2.08a19.557,19.557,0,0,1,3.094,1.872l.78-1.326a28.439,28.439,0,0,0-3.159-1.807ZM-7.033-4.42V-5.876H-9.165V-7.943h1.833v-1.43h-3.432c.13-.442.234-.884.325-1.339l-1.482-.3A9.684,9.684,0,0,1-13.377-7.1a8.7,8.7,0,0,1,1.248.9,9.068,9.068,0,0,0,.884-1.742h.52v2.067h-2.4V-4.42h2.3a6.073,6.073,0,0,1-2.5,4.342,5.879,5.879,0,0,1,1.105,1.17A6.94,6.94,0,0,0-9.763-2.314C-9.126-1.521-8.385-.546-7.956.13l1.04-1.3C-7.28-1.6-8.684-3.224-9.36-3.887c.039-.169.065-.351.091-.533Zm1.846,2.782v-6.8H-3.3v6.8ZM-6.682-9.893V.754h1.495V-.182H-3.3V.559h1.573V-9.893ZM4.862-8.866c1,.26,3.874.858,5.174,1.027l.39-1.586a40.757,40.757,0,0,1-5.148-1Zm.494,1.027L3.614-8.073A46.875,46.875,0,0,1,2.977-2.7l1.495.377a2.79,2.79,0,0,1,.481-.754A4.513,4.513,0,0,1,8.5-4.589c1.131,0,1.924.611,1.924,1.443,0,1.638-2.041,2.587-5.9,2.041L5.018.585c5.356.468,7.215-1.339,7.215-3.692,0-1.56-1.313-2.951-3.575-2.951A6.313,6.313,0,0,0,4.875-4.836C4.966-5.577,5.187-7.124,5.356-7.839Zm18.031-2.314a9.97,9.97,0,0,1,.091,1.17v1.456c-1.17.1-2.418.221-3.51.325.013-.507.013-.936.013-1.235a10.183,10.183,0,0,1,.078-1.339h-1.82a9.721,9.721,0,0,1,.1,1.43v1.3l-.975.091c-.65.052-1.248.078-1.612.078l.169,1.651c.338-.052,1.144-.182,1.547-.234l.871-.091c0,1.209,0,2.457.013,3,.052,2.223.455,2.925,3.8,2.925A36.171,36.171,0,0,0,25.818.169L25.883-1.6a23.941,23.941,0,0,1-3.848.338c-1.937,0-2.041-.286-2.08-1.547-.026-.546-.013-1.729,0-2.912,1.105-.117,2.366-.234,3.5-.325A14.551,14.551,0,0,1,23.361-4.5c-.039.247-.143.3-.4.3a8.032,8.032,0,0,1-1.183-.156l-.039,1.417a16.293,16.293,0,0,0,1.937.195c.663,0,.988-.169,1.118-.845a22.52,22.52,0,0,0,.2-2.574c.377-.026.715-.039.988-.052.351-.013,1.027-.026,1.248-.013V-7.813c-.377.026-.884.065-1.235.091-.3.013-.624.039-.975.065.013-.429.026-.884.039-1.391a10.966,10.966,0,0,1,.078-1.105Z" transform="translate(-331 1511.727)" fill="#333"/>
    <path id="パス_3668" data-name="パス 3668" d="M-25.808-23.136V.768h-.1L-42.9-16.48-42.832,0h-3.136V-23.84h.16L-28.848-6.4l-.064-16.736Zm21.7,0v2.976H-16.048v7.04H-5.392v2.976H-16.048v7.136H-3.664V0H-19.152V-23.136ZM20.272,1.024,14.864-12.8,8.944,1.088-.272-23.04H3.344L9.328-6.208l4-10.5L10.864-23.04h3.072L20.368-6.56l5.7-16.48h3.328Zm25.7-20.032A13.88,13.88,0,0,0,43.312-20.1a9.389,9.389,0,0,0-2.656-.416,4.794,4.794,0,0,0-2.992.848,2.767,2.767,0,0,0-1.1,2.32,2.766,2.766,0,0,0,1.3,2.352,16.768,16.768,0,0,0,3.7,1.808,16.459,16.459,0,0,1,3.024,1.392,6.167,6.167,0,0,1,2.048,2.08,6.356,6.356,0,0,1,.816,3.376,6.27,6.27,0,0,1-.928,3.36,6.411,6.411,0,0,1-2.64,2.368,8.807,8.807,0,0,1-4.016.864,12.51,12.51,0,0,1-4.128-.688A14.035,14.035,0,0,1,32.24-2.176L33.616-4.64a11.218,11.218,0,0,0,2.848,1.52,8.876,8.876,0,0,0,3.1.624,5.579,5.579,0,0,0,3.248-.96A3.234,3.234,0,0,0,44.208-6.3,3.1,3.1,0,0,0,43.04-8.848a12.627,12.627,0,0,0-3.28-1.776,26.5,26.5,0,0,1-3.248-1.44A6.873,6.873,0,0,1,34.288-14a4.987,4.987,0,0,1-.928-3.088,5.588,5.588,0,0,1,1.9-4.4,7.577,7.577,0,0,1,4.944-1.776,13.6,13.6,0,0,1,6.944,1.856Z" transform="translate(-331 1481.727)" fill="#333"/>
    <g id="レイヤー_2" data-name="レイヤー 2" transform="translate(-347 1422.178)">
      <g id="文字">
        <path id="パス_110" data-name="パス 110" d="M18.108,5.6a.142.142,0,0,0,0-.189L16.8,4.717a.126.126,0,0,0-.189,0L11.73,13.731H10.609L15.74,4.259a.158.158,0,0,0,0-.189l-1.374-.758a.158.158,0,0,0-.189,0L9.046,13.731H2.068L4.752,9h5.9l.521-1.042H4.231L0,14.679l4.231,9.078H13.7l4.231-9.078-2.289-3.521-.663,1.152.805,1.421H13.372Z" transform="translate(0 1.898)" fill="#231815"/>
        <path id="パス_111" data-name="パス 111" d="M15.971,11.15c-2.494,0-4.531.568-4.531,1.263a36.864,36.864,0,0,0,.41,5.3c.095.347.568.679,1.326.9v.142c.111.442,1.074.837,2.763.837h0c1.689,0,2.652-.395,2.763-.837v-.142c.758-.221,1.231-.553,1.326-.9a36.864,36.864,0,0,0,.474-5.226C20.5,11.718,18.481,11.15,15.971,11.15Zm-1.484,4.168c-.126.458-2.321,0-2.479-.568v-.174c0-.016.126,0,.174.111a1.184,1.184,0,0,0,.379.237,3.3,3.3,0,0,0,.537.126,4.736,4.736,0,0,0,1.31.205Zm1.452-.853a10.12,10.12,0,0,1-2.226-.126H13.4c-.805-.142-1.5-.395-1.579-.774a.141.141,0,1,1,.268-.079c0,.237,1.042.41,1.405.474h.332a9.773,9.773,0,0,0,2.131.205.142.142,0,1,1,0,.284Zm0-1.168c-2.163,0-3.9-.395-3.9-.884s1.737-.9,3.9-.9,3.9.395,3.9.9-1.705.884-3.852.884Z" transform="translate(6.621 6.453)" fill="#231815"/>
        <path id="パス_112" data-name="パス 112" d="M24.182,10.735c-.647-1.263-2.116-2.005-2.589-3.363A4.373,4.373,0,0,1,21.025,5.1,7.894,7.894,0,0,1,21.5,2.431a3.568,3.568,0,0,1,.332-.947c.095-.158.489-.426.521-.568S21.83.347,21.514.268A9.125,9.125,0,0,0,19.446,0H18.83a9.251,9.251,0,0,0-1.973.253c-.316,0-.916.268-.837.647s.426.41.521.568a3.157,3.157,0,0,1,.332.947,8.273,8.273,0,0,1,.474,2.668,4.515,4.515,0,0,1-.537,2.273c-.489,1.358-1.958,2.1-2.589,3.363a13.735,13.735,0,0,0-1.437,6.647,15.788,15.788,0,0,1,2.415-.189h0a9.188,9.188,0,0,1,4.389.837,1.01,1.01,0,0,1,.521.805,35.1,35.1,0,0,1-.426,5.4c-.174.553-.663.853-1.358,1.105h.884c3.536,0,5.573-.837,5.841-1.784a27.17,27.17,0,0,0,.537-5.889,14.051,14.051,0,0,0-1.405-6.915Z" transform="translate(7.393)" fill="#231815"/>
      </g>
    </g>
  </g>
</svg>
