<svg xmlns="http://www.w3.org/2000/svg" width="806.518" height="53.223" viewBox="0 0 806.518 53.223">
  <g id="グループ_41209" data-name="グループ 41209" transform="translate(125 1121.236)">
    <g id="h2-about" transform="translate(-125 -1117.925)">
      <path id="パス_1" data-name="パス 1" d="M34.641,29.394c4.862,0,9.312,2.9,9.312,8.057,0,5.534-5.423,12.3-22.2,12.3-.564,0-1.691,0-1.691-.911,0-.326.156-.594,1.129-.7.613-.111,3.683-.432,4.351-.542,13.2-2.306,13.2-8.919,13.2-10.523,0-2.524-.768-5.478-4.613-5.478-4.656,0-9.209,4.942-10.438,8.6-.306.865-.613,1.828-1.942,1.828-2.1,0-3.48-2.577-3.48-5.962,0-2.043.616-7.848,1.178-13.38a16.611,16.611,0,0,1-4.3.865,5.815,5.815,0,0,1-5.622-4.036c0-.432.358-.535.666-.535a1.247,1.247,0,0,1,.562.164,11.2,11.2,0,0,0,4.093.641,14.477,14.477,0,0,0,5.014-.913c.257-3.706.359-5.478.359-6.716a5.634,5.634,0,0,0-.307-2.1c-.564-1.341-.614-1.394-.614-1.77a1.338,1.338,0,0,1,1.483-1.344c1.638,0,4.708,1.4,4.708,3.385,0,.052-1.483,6.343-1.586,7.521a13.47,13.47,0,0,0,1.586-1.342,2.283,2.283,0,0,1,1.841-.644c1.382,0,2.815.865,2.815,2.041,0,.752-.052,1.773-6.906,4.084-.2,1.717-1.127,8.812-1.127,10.8,0,1.557.206,1.932.666,1.986C28.245,30.9,30.344,29.394,34.641,29.394ZM65.535,46.605c0,1.166-.552,1.434-1.237,1.434a2.72,2.72,0,0,1-2.09-1.254,14.023,14.023,0,0,0-3.667-3.764c-.721,3.406-3.709,4.836-7.074,4.836-1.45,0-4.436-.536-4.436-2.818,0-2.371,2.9-4.568,8.313-4.568a1.8,1.8,0,0,1,.682.089c0-1.522-.937-8.956-1.024-10.657-.043-.721-.212-4.294-.255-5.1,0-.271-.512-1.433-.512-1.749a1.019,1.019,0,0,1,1.023-.985c.98,0,2.595.8,2.595,1.971,0,.447-.21,2.775-.21,3.269a40.94,40.94,0,0,0,.254,4.613c.469,4.655.683,7.029.721,9.082C63.4,42.67,65.535,45.264,65.535,46.605ZM54.579,41.77c-1.79,0-4.947.809-4.947,2.732,0,1.208,1.837,1.208,2.262,1.208a3.65,3.65,0,0,0,4.094-3.582,2.373,2.373,0,0,0-1.411-.358ZM60.634,30.4c-.721,0-2.474-.987-2.474-1.792,0-.492.3-.492,1.237-.492a4.258,4.258,0,0,0,1.623-.4,6.732,6.732,0,0,1,2.131-.8c.639,0,1.917.76,1.917,1.61,0,1.345-3.585,1.881-4.437,1.881Zm31.808-2.451a.9.9,0,0,1,.817.865c0,.7-.767,4.081-.865,4.835a60.816,60.816,0,0,0-.355,8.057c0,1.73-1.946,2.423-3.633,2.423-2.714,0-11.769-2.69-13.307-18.752-.1-1.182-.153-7.522-.2-8.058-.05-.271-.666-1.668-.666-1.991,0-1.018.865-1.13,1.382-1.13,1.638,0,4.5,1.884,4.5,3.927a10.066,10.066,0,0,1-.2,2.092,38.321,38.321,0,0,0-.461,5.478c0,11.388,6.092,13.271,7.165,13.271,1.382,0,1.793-1.235,2.663-3.813.356-1.021,2.044-6.284,2.25-6.664a1.051,1.051,0,0,1,.911-.545Zm19.24,6.235a1.861,1.861,0,0,1-1.586-.865,9.913,9.913,0,0,1-.768-1.874c-3.275-8.165-8.341-8.757-10.183-8.972-2.658-.321-2.761-.321-2.761-.806,0-.7,2.761-1.286,4.757-1.286,8.238,0,13.457,6.876,13.457,10.852a3.073,3.073,0,0,1-2.919,2.945Zm31.463-20.47c0,1.346-1.945,2.306-2.812,2.306-1.382,0-4.6-3.274-5.987-4.942-4.757,3.6-11.563,7.738-16.066,7.738-.255,0-.865,0-.865-.376,0-.271.973-.865,1.23-1.022a58.383,58.383,0,0,0,13.2-10.639,2.844,2.844,0,0,1,1.945-.914c1.175,0,2.815.914,2.815,2.363a.833.833,0,0,1-.258.649c1.024,1.129,1.537,1.394,5.935,3.813.3.157.861.425.861,1.015Zm-12.638,6.343a24.956,24.956,0,0,0-.1-2.58c-.865-.539-.972-.59-.972-.913,0-1.023,2.306-2.419,3.428-2.419.663,0,1.943.432,1.943,1.45,0,.215-.153.969-.153,1.129a25.738,25.738,0,0,0-.257,3.333h1.586a2.234,2.234,0,0,1,1.946-1.077,2.436,2.436,0,0,1,2.354,2.256c0,.107-.156.806-.156.865a7.339,7.339,0,0,0-.153,1.828c0,1.344.308,7.09.308,8.273,0,1.45-2.149,1.874-3.226,1.874-1.227,0-1.227-.643-1.227-1.342H128.3v10.1c.666-.16,3.734-.7,4.348-.8a20.9,20.9,0,0,0,3.122-.865,20.517,20.517,0,0,0-2.507-3.865c-.865-1.129-.972-1.235-.972-1.4,0-.323.255-.372.51-.372,1.485,0,8.443,3.164,8.443,7.521a2.1,2.1,0,0,1-2.1,2.2c-1.586,0-2.046-1.184-2.505-2.475-9.619,4.3-13.92,4.942-14.48,4.942-1.126,0-2.713-.695-2.713-2.2,0-2.044,2.355-2.151,4.757-2.314.053-1.718.154-3.814.154-8.217,0-3.222-.05-9.454-.1-12.253-.616-.378-.817-.535-.817-.865,0-1.238,2.306-2.954,3.425-2.954a1.5,1.5,0,0,1,1.486,1.129Zm5.426,1.985h-7.626v3.225h7.626Zm.048,5.321H128.3v3.277h7.673Zm27.427,18.374c.512.432,3.425,2.093,3.425,2.472,0,.7-5.27,2.256-6.138,2.256-1.537,0-3.992-3.009-5.478-5.694-2.451-4.407-3.171-9.082-3.53-14.294a28.048,28.048,0,0,1-.613,5.962,15.472,15.472,0,0,1-10.027,12.041,26.813,26.813,0,0,1-7.624,1.927c-.2,0-.562,0-.562-.372,0-.323.154-.432,1.688-1.022,11.511-4.613,13.2-11.231,13.406-24.662-.564-.643-.666-.751-.666-1.073a4,4,0,0,1,3.532-3.006c.515,0,2.149.213,2.149,1.717a6.3,6.3,0,0,1-.31,1.71c1.073,12.788,7.774,19.559,10.745,22.028Zm-16.02-27.082c-1.175,2.419-4.861,7.038-6.19,7.038-.2,0-.411-.1-.411-.321,0-.053,2.51-5.91,2.916-7.092a42.433,42.433,0,0,0,2.714-11.388,2.276,2.276,0,0,1,2.559-2.2,2.6,2.6,0,0,1,2.71,2.472c0,1.61-1.586,6.122-2.916,9.082h9.311a3.566,3.566,0,0,1,2.814-1.665,2.763,2.763,0,0,1,2.866,2.85c0,1.5-2.556,6.343-3.272,7.469-.307.432-.973,1.45-1.792,1.45-.921,0-.921-.865-.921-1.237,0-.432.2-5.426.2-6.448Zm56.8,17.623c2.505.373,3.682,3.542,3.682,4.564,0,.97-1.38,1.506-2.095,1.506-.82,0-1.442-.215-3.84-2.041-1.073-.807-2.658-1.773-5.216-3.385a19.122,19.122,0,0,1-13.359,12.726,13.781,13.781,0,0,1-4.036.649c-.768,0-1.332-.271-1.332-.649,0-.216,1.074-.644,1.485-.8a20.055,20.055,0,0,0,13.1-13.7c-2.663-1.077-7.424-3.063-12.178-2.686-4.757,8.7-5.834,9.722-9.72,9.722-2.663,0-4.963-1.238-4.963-3.924,0-2.577,3.069-6.716,11.965-7.95,2.663-5.159,6.807-14.078,6.807-16.119,0-.215-.052-.372-.36-.372-1.228,0-5.984,2.957-7.163,2.957a3.788,3.788,0,0,1-3.685-3.441c0-.588.31-.754.721-.754s2.149.271,2.511.271a24.818,24.818,0,0,0,8.694-2.1c1.894-1.021,2-1.075,2.763-1.075a2.906,2.906,0,0,1,3.017,2.687c0,.647-.1.812-1.075,2.306-4.708,7.525-7.317,12.732-8.7,15.425a38.756,38.756,0,0,1,12.384,2.256c0-.216.36-3.062.36-3.12a1.92,1.92,0,0,0-.209-.858,10.4,10.4,0,0,1-1.072-1.883c0-.644,1.073-.964,2.043-.964a3.76,3.76,0,0,1,4.045,3.869,17.643,17.643,0,0,1-.714,4.4,26.446,26.446,0,0,0,6.138,2.481Zm-34.338,1.659c0,1.129,1.28,1.129,1.442,1.129,2.557,0,4.6-4.62,5.524-6.607C172.1,33.635,169.847,36.056,169.847,37.934ZM236.1,31.65c7.725-.056,10.643-.111,13.866-.164a4.2,4.2,0,0,1,3.275-2.523,4.325,4.325,0,0,1,3.581,3.543c0,1.4-1.434,1.668-2.451,1.668H236.157c0,1.344.1,7.732.1,9.186,0,2.9-.457,8.384-6.037,8.384-3.837,0-6.751-3.494-7.163-4.036,0-.213.209-.213.31-.213.613,0,3.424.432,4.09.432,3.633,0,3.995-2.524,3.995-6.073V34.176H218.767a16.9,16.9,0,0,0-2.354.1,35.963,35.963,0,0,1-3.683.807c-.865,0-1.485-.432-1.485-1.344,0-.964.767-2.523,2.148-2.523.306,0,1.789.213,2.149.265.666.053,3.784.053,4.6.053,1.639,0,9.568.111,11.361.111l.05-8.168h-8.545a15.684,15.684,0,0,0-2.866.164c-.458.05-2.712.641-3.22.641-.767,0-1.485-.376-1.485-1.234,0-1.022.721-2.579,1.994-2.579.359,0,2.1.323,2.508.373,1.483.108,2,.108,6.5.108h5.066c0-2.739-.05-4.029-.206-6.875a52.347,52.347,0,0,1-5.984.268c-1.433,0-10.029,0-10.029-1.665,0-.539.92-.539,1.277-.539,1.227,0,4.093-.268,5.577-.375,11.152-1.022,16.219-3.01,19.445-4.353a3,3,0,0,1,2.657-1.773c1.331,0,3.481,1.129,3.481,2.9,0,1.5-1.382,2.2-2.4,2.632a51.534,51.534,0,0,1-9.106,2.474c-.105,3.866-.105,4.942-.156,7.3,1.175,0,7.113-.053,8.44-.053a4.052,4.052,0,0,1,3.226-2.416,3.884,3.884,0,0,1,3.427,3.385c0,1.5-2,1.557-2.508,1.557H236.059Zm41.341-16.98a3.584,3.584,0,0,0-2.817,1.613h-2.341c0-3.063.105-5.106.36-8.437.05-.265.2-1.557.2-1.822,0-1.022-.613-1.561-1.839-1.561-1.382,0-3.99,2.046-3.99,3.226,0,.321.915,1.45.915,1.772.108.865.209,5.8.209,6.826h-2.36c-.257-1.235-1.586-1.235-1.842-1.235-1.129,0-3.22,1.828-3.22,2.792,0,.27.05.27.506.865.311.376.311.647.311,1.346,0,.481,0,4.136-.159,6.932-.045,1.665-.559,8.755-.559,10.2a1.5,1.5,0,0,0,1.534,1.557c3.12,0,3.12-3.059,3.12-4.508,0-.915.208-14.774.208-15.259.048-.159.1-.535.408-.535h2.047c-.052,3.976-.1,13.809-.362,21.594-.05,1.506-.409,7.954-.409,9.24,0,1.241.562,1.991,1.741,1.991,3.223,0,3.223-3.33,3.223-4.189,0-2.256-.053-8.867-.1-11.5a5.766,5.766,0,0,0,3.941,2.364c3.069,0,3.069-2.686,3.069-5.1,0-2.149-.151-11.763-.151-13.695a4.294,4.294,0,0,1,.306-1.828,1.9,1.9,0,0,0-1.945-2.635Zm-2.355,17.137c0,1.557-.052,3.171-1.534,3.171a5.788,5.788,0,0,1-1.331-.215c-.052-2.579,0-14.023,0-16.33h2.813c0,.535.052,2.792.052,3.277Zm28.295-17.029a3.1,3.1,0,0,0-2.56,2.041h-7.929c.05-1.557.407-9.186.407-9.725,0-.693-.1-2.092-1.89-2.092-1.586,0-4.3,1.61-4.3,3.062,0,.376.154.536.82,1.179.356.378.356.7.356,2.206,0,2.149.156,11.6.156,13.483,0,1.184.049,2.957.049,4.942h-2.451a1.828,1.828,0,0,0-1.839-1.286c-1.28,0-3.379,1.61-3.379,2.9a1.251,1.251,0,0,0,.665,1.022c.2,2.1-.306,14.025-.306,15.474,0,.915,0,2.148,1.638,2.148,1.074,0,3.069-1.129,3.069-2.306V45.188h10.845c-.046,2.2-.1,3.063,2.05,3.063,1.638,0,3.121-.807,3.121-2.69,0-1.986-.362-11.013-.362-12.84,0-.321.311-1.72.311-1.985a2.379,2.379,0,0,0-2.458-2.306,3.14,3.14,0,0,0-2.557,1.45H292.69c.053-5.962.1-8.163.159-10.691H304.1c.865,0,2.25-.215,2.25-1.449a3.294,3.294,0,0,0-2.964-2.962Zm-9.906,17.568a4.836,4.836,0,0,1,2.934,1.442.341.341,0,0,0-.016-.078.827.827,0,0,1,.045.112,1.287,1.287,0,0,1,.112.144c.121,1.442-.026,2.778,0,4.3-.055.7.183,1.586-.4,2.262a4,4,0,0,1-1.57,1.062.367.367,0,0,1-.01.1,1.169,1.169,0,0,1-.153.457,1.567,1.567,0,0,1-.649.61,4.669,4.669,0,0,1-1.638.444l-.179.017c-.159.017-.323.023-.492.035-.339-.013-.624-.035-.875-.063-.186-.027-.231.035-.408,0-.014.144-.489-.03-.692-.159-.035.027-.045.072-.107.091-.029-.013-.1-.062-.135-.072a1.473,1.473,0,0,1-.274-.063,1.609,1.609,0,0,1-.81-.784h.065l-.038-.061c.068.029.1,0,.017-.123.045,0,.112.025.112,0-.013-.069-.052-.182-.068-.259a3.5,3.5,0,0,1-1.812-1.795,2.751,2.751,0,0,1-.144-.461c-.068-.474-.045-.832-.084-1.266-.033-.774-.075-1.554-.112-2.162-.026-.464-.1-.554-.108-1-.072,0-.11-.232-.111-.678a1.62,1.62,0,0,1,.665-1.168c.023-.074-.025-.1.074-.218.072-.053.278-.159.362-.216a4.213,4.213,0,0,1,.594-.333,6.667,6.667,0,0,1,2.468-.412l-.068.062s.075-.007.144-.01c-.125.05-.1.092.208.068-.05.045-.176.091-.118.105.242.03.761.013.8.048a.056.056,0,0,1-.009.082H291c3.781.144,4.926.987,5.28,1.486a2.637,2.637,0,0,0-1.093-.905,17.662,17.662,0,0,0-4.18-.878l.445-.03a17.531,17.531,0,0,1,2.021.261ZM304.231,9.152a3.66,3.66,0,1,1,3.659-3.664,3.66,3.66,0,0,1-3.659,3.664Zm0-6.919a3.255,3.255,0,1,0,3.254,3.255,3.255,3.255,0,0,0-3.254-3.255Zm1.763,5.231h-.6c-.2-.6-.346-1-.432-1.191a.96.96,0,0,0-.4-.474,1.61,1.61,0,0,0-.63-.084h-.474q0,1.009.037,1.743h-.577q.045-.972.045-2.144,0-1.1-.045-1.937h.441c.092,0,.213,0,.356-.01s.31-.009.5-.009q1.372,0,1.371.947a1.121,1.121,0,0,1-.77,1.106v.032a.951.951,0,0,1,.556.48,13.366,13.366,0,0,1,.623,1.542Zm-.962-2.939q0-.747-1.009-.747a3.878,3.878,0,0,0-.6.04q.023.545.023,1.483h.359Q305.033,5.309,305.033,4.525Z" transform="translate(-9.525 -1.832)"/>
    </g>
    <path id="パス_3662" data-name="パス 3662" d="M-93.4-21.622h-3.838v-4.142H-93.4Zm9.462,8.436a7.358,7.358,0,0,1-1.558-.836c-.076,1.71-.228,1.976-.874,1.976h-1.938c-.722,0-.836-.114-.836-1.1V-17.48h5.206ZM-106.134-3.154v-5.4a15.363,15.363,0,0,1,2.508,2.394c5.244-2.736,6.384-7.144,6.384-10.906v-.418h3.8v4.37c0,3.762.722,5.016,4.408,5.016h3.192a4.749,4.749,0,0,0,1.9-.3v5.244Zm4.674-14.326v.342c0,2.546-.608,5.434-4.674,7.676V-17.48Zm23.408-8.284V-30.1h-33.972v4.332h10.336v4.142H-110.5V3.154h4.37V.988h22.192v2.09h4.6v-24.7H-88.92v-4.142ZM-65.436-4.18v-8.512h16.872V-4.18Zm16.872-21.166v8.17H-65.436v-8.17Zm-21.546-4.56V2.85h4.674V.38h16.872V2.774H-43.7v-32.68ZM-16.644-7.714v-8.36A42.351,42.351,0,0,0-10.6-7.714Zm-10.716,0A44.28,44.28,0,0,0-21.394-16v8.284Zm25.118-12.54v-4.56h-14.4v-7.334h-4.75v7.334H-35.682v4.56h11.59C-27.018-14.4-31.806-8.93-37.164-6a22.341,22.341,0,0,1,3.306,3.762A33.9,33.9,0,0,0-27.93-7.106v3.99h6.536V3.306h4.75V-3.116h6.308V-7.448A31.088,31.088,0,0,0-4.142-2.356a19.211,19.211,0,0,1,3.5-4.1A33.2,33.2,0,0,1-13.908-20.254Z" transform="translate(332 -1075)"/>
    <path id="パス_3663" data-name="パス 3663" d="M-23.294-23.978A27.265,27.265,0,0,1-29.6-14.022c.038-1.406.076-2.736.076-3.914V-24.13H-1.672v-4.18H-15.466v-3.838h-4.712v3.838H-33.934v10.336c0,5.548-.266,13.452-3.23,18.924a17.363,17.363,0,0,1,3.876,2.508c2.2-4.028,3.154-9.614,3.534-14.706.57.684,1.1,1.368,1.482,1.862a22.042,22.042,0,0,0,2.394-2.242V3.23h4.256V-17.29a43.559,43.559,0,0,0,2.774-5.472ZM-19.3-11.4a33.211,33.211,0,0,1,3.61,7.3l3.8-1.71a30.9,30.9,0,0,0-3.8-7.068Zm17.822-7.3H-5.32v-4.712H-9.69V-18.7h-9.8v4.18h9.8V-1.634c0,.57-.228.76-.836.76-.684,0-2.812,0-4.826-.076a16.314,16.314,0,0,1,1.368,4.332c3.078.038,5.244-.076,6.726-.76C-5.776,1.9-5.32.76-5.32-1.6v-12.92h3.838Z" transform="translate(413 -1075)"/>
    <path id="パス_3664" data-name="パス 3664" d="M-200.374-25.878h-12.54v-1.9h12.54Zm0,4.864h-12.54V-22.99h12.54Zm0,4.788h-12.54v-1.938h12.54Zm4.446-14.63H-217.17v17.708h21.242ZM-218.386-6.118A26.976,26.976,0,0,1-226.48,0a38.057,38.057,0,0,1,3.686,3.04,37.721,37.721,0,0,0,9.12-7.41ZM-191.9-7.182v-3.99h-27.892v-17.4h-4.56V-6.384h4.56v-.8h8.474V3.306h4.75V-7.182ZM-204.174-3.99a77.672,77.672,0,0,1,8.55,7.068l4.18-2.812A80.225,80.225,0,0,0-200.3-6.422Zm42.294-15.77-2.812,1.178a29.32,29.32,0,0,1,2.964,5.282l2.888-1.292A49.8,49.8,0,0,0-161.88-19.76Zm4.256-1.748-2.774,1.292a33.431,33.431,0,0,1,3.116,5.13l2.85-1.368A56.838,56.838,0,0,0-157.624-21.508Zm-29.6-4.484.494,5.168c4.37-.95,12.274-1.786,15.542-2.128a14.922,14.922,0,0,0-5.548,11.59c0,8.17,7.448,12.426,15.352,12.92l1.748-5.206c-6.384-.3-12.16-2.546-12.16-8.74a11.423,11.423,0,0,1,7.942-10.526,38.861,38.861,0,0,1,7.258-.494l-.038-4.864c-2.66.114-6.764.342-10.64.646-6.878.608-13.11,1.178-16.264,1.444C-184.262-26.106-185.706-26.03-187.226-25.992ZM-134.634-7.6h3.344a19.7,19.7,0,0,0,2.66,4.446c-2.014.3-4.066.57-6,.836Zm1.9-6.384h5.662V-11.4h-5.662Zm0-6.27h5.662v2.508h-5.662Zm-9.69-6.5h20.1v2.66h-20.1ZM-121.068-7.6a45.751,45.751,0,0,1-3.876,2.584,15.177,15.177,0,0,1-2.09-2.584Zm1.33,0h3.99v-3.8h-7.144v-2.584h5.472v-3.762h-5.472v-2.508h5.168v-10.3h-29.26v11.21c0,6.042-.3,14.592-4.066,20.444a19.156,19.156,0,0,1,4.028,2.318c3.99-6.232,4.6-16.112,4.6-22.762v-.912h5.548v2.508h-4.788v3.762h4.788V-11.4h-5.814v3.8h3.914v5.814c-1.406.19-2.736.342-3.876.456l.608,4.1c3.952-.608,9.234-1.33,14.174-2.128l-.152-3.078a19.05,19.05,0,0,0,10.07,5.776,15.428,15.428,0,0,1,2.66-3.724,20.721,20.721,0,0,1-6.688-2.394,45.124,45.124,0,0,0,4.94-3Zm19.19-19.912v1.938h-5.966v-1.938Zm-5.966,6.954v-2.09h5.966v2.09Zm10.222,3.268V-30.742h-14.63V3.306h4.408v-20.6ZM-96.9-8.93v-2.85h3.534v2.85Zm11.666,3.686V-8.93h-4.18v-2.85h3.572v-3.572H-104.2v3.572h3.458v2.85h-3.99v3.686h3.838A8.9,8.9,0,0,1-104.766.684a17.1,17.1,0,0,1,2.888,2.584c3.23-2.2,4.484-5.89,4.864-8.512h3.648V2.584h3.952V-5.244ZM-89.49-20.482v-2.166h6.156v2.166Zm6.156-7.03v1.938H-89.49v-1.938Zm4.446-3.23h-14.9v13.528h10.45v15.2c0,.532-.19.76-.8.76-.57.038-2.432.038-4.142-.038a16.068,16.068,0,0,1,1.368,4.484c2.888,0,4.864-.114,6.232-.874,1.368-.722,1.786-1.976,1.786-4.294Zm35.8,12.692-.836.3h-6l.912-1.482c-.874-.418-2.014-.836-3.268-1.33a62.65,62.65,0,0,0,8.778-7.22l-3.23-2.546-1.026.266H-70.49v4.142h18.354a39.554,39.554,0,0,1-4.826,3.572c-2.128-.8-4.256-1.52-5.966-2.128l-2.242,3.42c2.432.912,5.51,2.128,8.322,3.306h-17.29v4.294h15.01V-1.786c0,.57-.228.722-.95.76-.76,0-3.572,0-5.814-.076A15.391,15.391,0,0,1-64.258,3.23c3.268,0,5.738-.038,7.486-.684,1.824-.646,2.356-1.786,2.356-4.18V-13.452H-46.4a48.03,48.03,0,0,1-2.964,4.674l3.876,2.242a50.617,50.617,0,0,0,6.08-9.918Zm12.312-6H-7.41v5.206h4.674v-9.5H-16.644v-3.8h-4.788v3.8H-35.226v9.5h4.446Zm14.1,16.568h10.45v-4.256h-10.45v-4.75H-8.55v-4.294h-20.9v4.294h8.094V-3.078a10.229,10.229,0,0,1-5.168-5.966c.342-1.52.608-3.116.836-4.826l-4.712-.456c-.684,6.5-2.546,11.742-6.65,14.782a27.671,27.671,0,0,1,3.724,3.078,19.391,19.391,0,0,0,5.092-7.22c3.42,5.434,8.626,6.574,15.656,6.574h9.5a16.9,16.9,0,0,1,1.6-4.6C-4.028-1.6-10.3-1.6-12.35-1.6a39.265,39.265,0,0,1-4.332-.228Z" transform="translate(683 -1075)"/>
    <path id="パス_3665" data-name="パス 3665" d="M-35.112-.66H-1.98V-9.834H-19.8c7.656-5.874,17.094-14.322,17.094-24.882,0-8.118-4.884-14.52-15.84-14.52-8.778,0-16.368,5.016-16.7,16.7h10.89c0-4.554,1.98-7.194,5.346-7.194,3.432,0,5.016,2.244,5.016,5.742,0,8.118-10.89,16.5-21.12,24.948Z" transform="translate(372 -1072)"/>
    <path id="パス_3666" data-name="パス 3666" d="M-37.118-35.108h11.189c.2-2.68,1.541-5.36,5.226-5.36,3.082,0,5.025,1.809,5.025,5.092,0,4.422-3.752,5.36-7.638,5.36H-25.46V-20.7h2.144c5.963,0,8.576,1.742,8.576,6.1a5.1,5.1,0,0,1-5.494,5.494c-4.221,0-6.3-2.546-6.365-6.365H-37.721C-37.386-4.422-30.016.4-19.832.4-9.581.4-3.685-5.494-3.685-13.735c0-6.432-3.35-10.184-8.241-11.792V-25.8c3.35-1.139,7.37-4.556,7.37-10.988,0-7.37-5.561-13.266-15.879-13.266C-30.418-50.049-36.716-44.756-37.118-35.108Z" transform="translate(456 -1071)"/>
    <path id="パス_3667" data-name="パス 3667" d="M-32.376-29.678a28.237,28.237,0,0,1-.342,3.686A111.531,111.531,0,0,0-34.276-10.3,45.392,45.392,0,0,0-32.794,1.71l4.256-.3c-.038-.532-.038-1.178-.038-1.558a7.429,7.429,0,0,1,.19-1.748,89.772,89.772,0,0,1,2.7-8.968l-2.318-1.862c-.57,1.254-1.178,2.508-1.672,3.838a17.417,17.417,0,0,1-.152-2.432,99.525,99.525,0,0,1,1.786-14.554,31.626,31.626,0,0,1,.912-3.344Zm19,23.37c0,2.2-.8,3.42-3.116,3.42-1.976,0-3.5-.684-3.5-2.2,0-1.406,1.444-2.28,3.572-2.28a11.732,11.732,0,0,1,3.04.418Zm11.894,1.52A23.887,23.887,0,0,0-8.74-9.652c-.152-2.546-.342-5.548-.418-9.2,2.052-.152,4.028-.38,5.852-.646v-4.674c-1.786.38-3.762.646-5.814.874,0-1.672.076-3.078.114-3.914a24.036,24.036,0,0,1,.228-2.432h-5.4a21.292,21.292,0,0,1,.228,2.47c.038.8.038,2.318.076,4.18-.874.038-1.786.038-2.66.038a62.4,62.4,0,0,1-6.574-.342v4.484c2.242.152,4.37.228,6.574.228.874,0,1.786,0,2.7-.038.038,2.66.152,5.4.266,7.714a16.905,16.905,0,0,0-2.47-.152c-5.13,0-8.36,2.622-8.36,6.46,0,3.952,3.268,6.156,8.436,6.156,5.092,0,7.144-2.584,7.372-6.156A38.378,38.378,0,0,1-4.028-.836Z" transform="translate(214 -1074)"/>
  </g>
</svg>
