<svg xmlns="http://www.w3.org/2000/svg" width="292.816" height="71.073" viewBox="0 0 292.816 71.073">
  <g id="グループ_41210" data-name="グループ 41210" transform="translate(-2238 1319.537)">
    <g id="グループ_41206" data-name="グループ 41206" transform="translate(631.752 -1168.741)">
      <g id="h2-about" transform="translate(1644.894 -150.796)">
        <path id="パス_1" data-name="パス 1" d="M25.531,19.4c3.1,0,5.935,1.847,5.935,5.135,0,3.527-3.456,7.841-14.148,7.841-.359,0-1.078,0-1.078-.581,0-.208.1-.378.719-.446.39-.071,2.347-.276,2.773-.345,8.411-1.47,8.411-5.684,8.411-6.706,0-1.609-.49-3.491-2.94-3.491-2.967,0-5.869,3.149-6.652,5.479-.195.551-.39,1.165-1.237,1.165-1.338,0-2.218-1.643-2.218-3.8,0-1.3.392-5,.751-8.527a10.586,10.586,0,0,1-2.74.551A3.706,3.706,0,0,1,9.525,13.1c0-.276.228-.341.424-.341a.8.8,0,0,1,.358.1,7.136,7.136,0,0,0,2.608.409,9.226,9.226,0,0,0,3.2-.582c.164-2.362.229-3.491.229-4.28a3.59,3.59,0,0,0-.2-1.336c-.359-.854-.391-.888-.391-1.128a.853.853,0,0,1,.945-.856c1.044,0,3,.891,3,2.157,0,.033-.945,4.042-1.011,4.793a8.584,8.584,0,0,0,1.011-.855,1.455,1.455,0,0,1,1.173-.411c.881,0,1.794.551,1.794,1.3,0,.48-.033,1.13-4.4,2.6-.13,1.094-.718,5.616-.718,6.882,0,.992.131,1.231.424,1.266C21.455,20.354,22.793,19.4,25.531,19.4ZM45.22,30.365c0,.743-.352.914-.788.914a1.734,1.734,0,0,1-1.332-.8,8.937,8.937,0,0,0-2.337-2.4c-.459,2.171-2.364,3.082-4.508,3.082-.924,0-2.827-.342-2.827-1.8,0-1.511,1.849-2.911,5.3-2.911a1.147,1.147,0,0,1,.435.057c0-.97-.6-5.708-.652-6.792-.028-.459-.135-2.737-.163-3.251,0-.173-.326-.913-.326-1.114a.65.65,0,0,1,.652-.627c.625,0,1.654.513,1.654,1.256,0,.285-.134,1.768-.134,2.084a26.091,26.091,0,0,0,.162,2.94c.3,2.966.435,4.48.459,5.788C43.861,27.857,45.22,29.511,45.22,30.365Zm-6.982-3.081c-1.141,0-3.153.515-3.153,1.741,0,.77,1.17.77,1.441.77a2.326,2.326,0,0,0,2.609-2.283,1.512,1.512,0,0,0-.9-.228ZM42.1,20.037c-.459,0-1.576-.629-1.576-1.142,0-.313.191-.313.788-.313a2.714,2.714,0,0,0,1.034-.257,4.29,4.29,0,0,1,1.358-.513c.407,0,1.222.484,1.222,1.026,0,.857-2.285,1.2-2.828,1.2Zm20.271-1.562a.574.574,0,0,1,.521.551c0,.446-.489,2.6-.551,3.081a38.758,38.758,0,0,0-.226,5.135c0,1.1-1.24,1.544-2.315,1.544-1.73,0-7.5-1.714-8.48-11.95-.064-.753-.1-4.794-.13-5.135-.032-.173-.424-1.063-.424-1.269,0-.649.551-.72.881-.72,1.044,0,2.869,1.2,2.869,2.5a6.415,6.415,0,0,1-.13,1.333,24.422,24.422,0,0,0-.294,3.491c0,7.258,3.882,8.457,4.566,8.457.881,0,1.143-.787,1.7-2.43.227-.65,1.3-4,1.434-4.247a.67.67,0,0,1,.581-.347Zm12.262,3.973a1.186,1.186,0,0,1-1.011-.551,6.317,6.317,0,0,1-.49-1.194c-2.087-5.2-5.316-5.581-6.49-5.718-1.694-.2-1.759-.2-1.759-.514,0-.445,1.759-.819,3.032-.819,5.25,0,8.576,4.382,8.576,6.916a1.959,1.959,0,0,1-1.86,1.877ZM94.68,9.4c0,.858-1.239,1.47-1.792,1.47-.881,0-2.934-2.086-3.815-3.149-3.032,2.3-7.369,4.932-10.239,4.932-.163,0-.551,0-.551-.24,0-.173.62-.551.784-.651a37.207,37.207,0,0,0,8.412-6.78A1.813,1.813,0,0,1,88.718,4.4c.749,0,1.794.582,1.794,1.506a.531.531,0,0,1-.164.413c.652.719.979.888,3.782,2.43.19.1.548.271.548.647Zm-8.054,4.042a15.908,15.908,0,0,0-.065-1.644c-.551-.344-.619-.376-.619-.582,0-.652,1.47-1.542,2.185-1.542.423,0,1.238.276,1.238.924,0,.137-.1.617-.1.719a16.4,16.4,0,0,0-.164,2.124h1.011a1.424,1.424,0,0,1,1.24-.686,1.553,1.553,0,0,1,1.5,1.438c0,.068-.1.514-.1.551a4.677,4.677,0,0,0-.1,1.165c0,.856.2,4.518.2,5.272,0,.924-1.37,1.194-2.056,1.194-.782,0-.782-.41-.782-.855H85.222V27.96c.424-.1,2.379-.444,2.771-.513a13.321,13.321,0,0,0,1.99-.551,13.075,13.075,0,0,0-1.6-2.463c-.551-.719-.619-.787-.619-.892,0-.206.163-.237.325-.237.946,0,5.381,2.017,5.381,4.793a1.339,1.339,0,0,1-1.338,1.4c-1.011,0-1.3-.754-1.6-1.577-6.13,2.74-8.871,3.149-9.228,3.149-.717,0-1.729-.443-1.729-1.4,0-1.3,1.5-1.371,3.032-1.474.034-1.1.1-2.431.1-5.237,0-2.053-.032-6.025-.064-7.809-.392-.241-.521-.341-.521-.551,0-.789,1.47-1.882,2.183-1.882a.954.954,0,0,1,.947.719Zm3.458,1.265h-4.86v2.055h4.86Zm.03,3.391H85.222v2.088h4.89Zm17.479,11.71c.326.276,2.183,1.334,2.183,1.576,0,.446-3.359,1.438-3.912,1.438-.979,0-2.544-1.917-3.491-3.629a20.97,20.97,0,0,1-2.25-9.11,17.874,17.874,0,0,1-.39,3.8,9.86,9.86,0,0,1-6.39,7.674,17.088,17.088,0,0,1-4.859,1.228c-.13,0-.358,0-.358-.237,0-.206.1-.276,1.076-.651,7.336-2.94,8.412-7.157,8.544-15.717-.359-.41-.424-.479-.424-.683a2.547,2.547,0,0,1,2.251-1.915c.328,0,1.37.136,1.37,1.094a4.015,4.015,0,0,1-.2,1.09c.684,8.15,4.954,12.465,6.848,14.038ZM97.384,12.551c-.749,1.542-3.1,4.485-3.945,4.485-.13,0-.262-.066-.262-.2,0-.034,1.6-3.767,1.859-4.52a27.042,27.042,0,0,0,1.73-7.258,1.451,1.451,0,0,1,1.631-1.4,1.654,1.654,0,0,1,1.727,1.576,22.329,22.329,0,0,1-1.858,5.788H104.2a2.273,2.273,0,0,1,1.793-1.061,1.761,1.761,0,0,1,1.826,1.816c0,.959-1.629,4.042-2.085,4.76-.2.276-.62.924-1.142.924-.587,0-.587-.551-.587-.788,0-.276.13-3.458.13-4.109Zm36.2,11.231c1.6.238,2.346,2.257,2.346,2.909,0,.618-.879.96-1.335.96-.523,0-.919-.137-2.447-1.3-.684-.514-1.694-1.13-3.324-2.157a12.186,12.186,0,0,1-8.513,8.11,8.783,8.783,0,0,1-2.572.413c-.49,0-.849-.173-.849-.413,0-.138.684-.411.946-.512a12.781,12.781,0,0,0,8.347-8.732c-1.7-.686-4.731-1.952-7.761-1.712-3.032,5.544-3.718,6.2-6.195,6.2-1.7,0-3.163-.789-3.163-2.5,0-1.643,1.956-4.28,7.625-5.067,1.7-3.288,4.338-8.972,4.338-10.273,0-.137-.033-.237-.23-.237-.783,0-3.813,1.884-4.565,1.884a2.414,2.414,0,0,1-2.348-2.193c0-.375.2-.48.459-.48s1.37.173,1.6.173a15.816,15.816,0,0,0,5.541-1.336c1.207-.65,1.271-.685,1.761-.685a1.852,1.852,0,0,1,1.923,1.712c0,.412-.065.517-.685,1.47-3,4.8-4.663,8.114-5.543,9.83a24.7,24.7,0,0,1,7.892,1.438c0-.138.23-1.951.23-1.988a1.224,1.224,0,0,0-.133-.547,6.627,6.627,0,0,1-.683-1.2c0-.411.684-.615,1.3-.615a2.4,2.4,0,0,1,2.578,2.466,11.244,11.244,0,0,1-.455,2.8,16.854,16.854,0,0,0,3.912,1.581ZM111.7,24.84c0,.719.816.719.919.719,1.63,0,2.934-2.944,3.52-4.21C113.13,22.1,111.7,23.643,111.7,24.84Zm42.223-4c4.923-.036,6.783-.071,8.837-.1a2.68,2.68,0,0,1,2.087-1.608,2.756,2.756,0,0,1,2.282,2.258c0,.892-.914,1.063-1.562,1.063H153.955c0,.856.065,4.928.065,5.854,0,1.848-.291,5.343-3.847,5.343-2.446,0-4.3-2.227-4.565-2.572,0-.136.133-.136.2-.136.39,0,2.182.276,2.606.276,2.315,0,2.546-1.609,2.546-3.87V22.445h-8.084a10.773,10.773,0,0,0-1.5.065,22.918,22.918,0,0,1-2.347.514c-.551,0-.946-.276-.946-.856,0-.615.489-1.608,1.369-1.608.195,0,1.14.136,1.37.169.424.034,2.412.034,2.933.034,1.045,0,6.1.071,7.24.071l.032-5.205h-5.446a10,10,0,0,0-1.826.1c-.292.032-1.728.409-2.052.409-.489,0-.946-.24-.946-.786,0-.651.459-1.644,1.271-1.644.229,0,1.336.206,1.6.238.945.069,1.272.069,4.141.069h3.228c0-1.746-.032-2.568-.131-4.381a33.36,33.36,0,0,1-3.813.171c-.913,0-6.391,0-6.391-1.061,0-.344.586-.344.814-.344.782,0,2.608-.171,3.554-.239,7.107-.651,10.336-1.918,12.392-2.774a1.912,1.912,0,0,1,1.693-1.13c.848,0,2.219.719,2.219,1.848,0,.959-.881,1.4-1.532,1.678a32.843,32.843,0,0,1-5.8,1.576c-.067,2.464-.067,3.149-.1,4.654.749,0,4.533-.034,5.379-.034a2.582,2.582,0,0,1,2.056-1.54,2.475,2.475,0,0,1,2.184,2.157c0,.959-1.271.992-1.6.992h-8.02Zm26.346-10.821a2.284,2.284,0,0,0-1.8,1.028h-1.492c0-1.952.067-3.254.23-5.377.032-.169.13-.992.13-1.161,0-.651-.39-.995-1.172-.995-.881,0-2.543,1.3-2.543,2.056,0,.2.583.924.583,1.129.069.551.133,3.7.133,4.35h-1.5c-.164-.787-1.011-.787-1.174-.787-.719,0-2.052,1.165-2.052,1.779,0,.172.032.172.322.551.2.24.2.412.2.858,0,.307,0,2.636-.1,4.418-.028,1.061-.356,5.579-.356,6.5a.956.956,0,0,0,.977.992c1.988,0,1.988-1.949,1.988-2.873,0-.583.132-9.416.132-9.724.03-.1.064-.341.26-.341h1.3c-.033,2.534-.064,8.8-.231,13.762-.032.96-.261,5.069-.261,5.889,0,.791.358,1.269,1.11,1.269,2.054,0,2.054-2.122,2.054-2.67,0-1.438-.034-5.651-.065-7.328a3.675,3.675,0,0,0,2.512,1.507c1.956,0,1.956-1.712,1.956-3.253,0-1.37-.1-7.5-.1-8.728a2.737,2.737,0,0,1,.195-1.165,1.208,1.208,0,0,0-1.239-1.679Zm-1.5,10.921c0,.992-.033,2.021-.977,2.021a3.689,3.689,0,0,1-.848-.137c-.033-1.644,0-8.937,0-10.407h1.792c0,.341.033,1.779.033,2.088ZM196.8,10.083a1.974,1.974,0,0,0-1.632,1.3h-5.053c.032-.992.259-5.854.259-6.2,0-.442-.064-1.333-1.2-1.333-1.011,0-2.74,1.026-2.74,1.951,0,.24.1.342.523.751.227.241.227.446.227,1.406,0,1.37.1,7.4.1,8.592,0,.754.031,1.884.031,3.149h-1.562a1.165,1.165,0,0,0-1.172-.819c-.816,0-2.153,1.026-2.153,1.847a.8.8,0,0,0,.424.651c.13,1.337-.195,8.938-.195,9.861,0,.583,0,1.369,1.044,1.369.684,0,1.956-.719,1.956-1.47v-1.68h6.911c-.029,1.4-.064,1.952,1.306,1.952,1.044,0,1.989-.514,1.989-1.714,0-1.266-.231-7.019-.231-8.183,0-.2.2-1.1.2-1.265a1.516,1.516,0,0,0-1.566-1.47,2,2,0,0,0-1.63.924h-2.642c.034-3.8.065-5.2.1-6.813h7.171c.551,0,1.434-.137,1.434-.923a2.1,2.1,0,0,0-1.889-1.888Zm-6.313,11.2a3.082,3.082,0,0,1,1.87.919.218.218,0,0,0-.01-.05.528.528,0,0,1,.029.072.819.819,0,0,1,.072.092c.077.919-.017,1.77,0,2.741-.035.446.117,1.011-.257,1.441a2.546,2.546,0,0,1-1,.677.234.234,0,0,1-.006.066.745.745,0,0,1-.1.291,1,1,0,0,1-.413.389,2.975,2.975,0,0,1-1.044.283l-.114.011c-.1.011-.206.015-.313.022-.216-.008-.4-.022-.558-.04-.119-.017-.147.022-.26,0-.009.092-.311-.019-.441-.1-.022.017-.029.046-.068.058-.018-.008-.065-.04-.086-.046a.939.939,0,0,1-.175-.04,1.025,1.025,0,0,1-.516-.5h.041l-.024-.039c.043.018.061,0,.011-.078.028,0,.072.016.072,0-.008-.044-.033-.116-.043-.165A2.228,2.228,0,0,1,186,26.138a1.752,1.752,0,0,1-.092-.294c-.043-.3-.028-.53-.053-.807-.021-.493-.048-.99-.072-1.378-.017-.3-.062-.353-.069-.637-.046,0-.07-.148-.071-.432a1.033,1.033,0,0,1,.424-.744c.015-.047-.016-.061.047-.139.046-.034.177-.1.231-.138a2.686,2.686,0,0,1,.379-.212,4.249,4.249,0,0,1,1.573-.263l-.043.04s.048,0,.092-.006c-.08.032-.065.059.132.043-.032.028-.112.058-.075.067.154.019.485.008.51.03a.036.036,0,0,1-.005.052h.005c2.41.092,3.139.629,3.365.947a1.68,1.68,0,0,0-.7-.577,11.256,11.256,0,0,0-2.664-.559l.284-.019a11.172,11.172,0,0,1,1.288.166ZM197.338,6.5a2.333,2.333,0,1,1,2.332-2.335A2.333,2.333,0,0,1,197.338,6.5Zm0-4.41a2.074,2.074,0,1,0,2.074,2.074,2.074,2.074,0,0,0-2.074-2.074Zm1.124,3.334h-.385c-.128-.383-.22-.635-.276-.759a.612.612,0,0,0-.254-.3,1.026,1.026,0,0,0-.4-.053h-.3q0,.643.024,1.111H196.5q.028-.619.028-1.366,0-.7-.028-1.235h.281c.059,0,.136,0,.227-.006s.2-.006.316-.006q.875,0,.874.6a.715.715,0,0,1-.491.7v.02a.606.606,0,0,1,.355.306,8.519,8.519,0,0,1,.4.983Zm-.613-1.873q0-.476-.643-.476a2.471,2.471,0,0,0-.385.026q.015.347.015.945h.229Q197.849,4.048,197.849,3.548Z" transform="translate(-9.525 -1.832)"/>
      </g>
      <path id="パス_3646" data-name="パス 3646" d="M-20.448-18.744a17.834,17.834,0,0,1-.216,2.328A70.441,70.441,0,0,0-21.648-6.5a28.669,28.669,0,0,0,.936,7.584l2.688-.192c-.024-.336-.024-.744-.024-.984a4.692,4.692,0,0,1,.12-1.1,56.7,56.7,0,0,1,1.7-5.664L-17.688-8.04c-.36.792-.744,1.584-1.056,2.424a11,11,0,0,1-.1-1.536,62.858,62.858,0,0,1,1.128-9.192,19.974,19.974,0,0,1,.576-2.112Zm12,14.76c0,1.392-.5,2.16-1.968,2.16-1.248,0-2.208-.432-2.208-1.392,0-.888.912-1.44,2.256-1.44a7.41,7.41,0,0,1,1.92.264Zm7.512.96A15.086,15.086,0,0,0-5.52-6.1c-.1-1.608-.216-3.5-.264-5.808,1.3-.1,2.544-.24,3.7-.408v-2.952c-1.128.24-2.376.408-3.672.552,0-1.056.048-1.944.072-2.472a15.181,15.181,0,0,1,.144-1.536H-8.952a13.448,13.448,0,0,1,.144,1.56c.024.5.024,1.464.048,2.64-.552.024-1.128.024-1.68.024a39.41,39.41,0,0,1-4.152-.216v2.832c1.416.1,2.76.144,4.152.144.552,0,1.128,0,1.7-.024.024,1.68.1,3.408.168,4.872a10.677,10.677,0,0,0-1.56-.1c-3.24,0-5.28,1.656-5.28,4.08,0,2.5,2.064,3.888,5.328,3.888C-6.864.984-5.568-.648-5.424-2.9A24.239,24.239,0,0,1-2.544-.528Z" transform="translate(1861 -122.981)"/>
      <g id="グループ_41204" data-name="グループ 41204" transform="translate(1565 -246.981)">
        <g id="グループ_41179" data-name="グループ 41179">
          <g id="グループ_41205" data-name="グループ 41205">
            <path id="パス_3648" data-name="パス 3648" d="M-58.992-13.656h-2.424v-2.616h2.424Zm5.976,5.328A4.647,4.647,0,0,1-54-8.856c-.048,1.08-.144,1.248-.552,1.248h-1.224c-.456,0-.528-.072-.528-.7V-11.04h3.288ZM-67.032-1.992V-5.4a9.7,9.7,0,0,1,1.584,1.512,7.2,7.2,0,0,0,4.032-6.888v-.264h2.4v2.76c0,2.376.456,3.168,2.784,3.168h2.016a3,3,0,0,0,1.2-.192v3.312Zm2.952-9.048v.216a5.02,5.02,0,0,1-2.952,4.848V-11.04ZM-49.3-16.272v-2.736H-70.752v2.736h6.528v2.616h-5.568V1.992h2.76V.624h14.016v1.32h2.9v-15.6H-56.16v-2.616ZM-41.328-2.64V-8.016h10.656V-2.64Zm10.656-13.368v5.16H-41.328v-5.16Zm-13.608-2.88V1.8h2.952V.24h10.656V1.752H-27.6v-20.64ZM-10.512-4.872v-5.28A26.748,26.748,0,0,0-6.7-4.872Zm-6.768,0A27.967,27.967,0,0,0-13.512-10.1v5.232Zm15.864-7.92v-2.88h-9.1V-20.3h-3v4.632h-9.024v2.88h7.32a21.32,21.32,0,0,1-8.256,9,14.11,14.11,0,0,1,2.088,2.376A21.408,21.408,0,0,0-17.64-4.488v2.52h4.128V2.088h3V-1.968h3.984V-4.7A19.635,19.635,0,0,0-2.616-1.488,12.134,12.134,0,0,1-.408-4.08a20.966,20.966,0,0,1-8.376-8.712Z" transform="translate(112 164)"/>
            <path id="パス_3649" data-name="パス 3649" d="M-14.712-15.144A17.22,17.22,0,0,1-18.7-8.856c.024-.888.048-1.728.048-2.472V-15.24H-1.056v-2.64H-9.768V-20.3h-2.976v2.424h-8.688v6.528c0,3.5-.168,8.5-2.04,11.952a10.966,10.966,0,0,1,2.448,1.584C-19.632-.36-19.032-3.888-18.792-7.1c.36.432.7.864.936,1.176a13.921,13.921,0,0,0,1.512-1.416V2.04h2.688V-10.92A27.511,27.511,0,0,0-11.9-14.376Zm2.52,7.944a20.975,20.975,0,0,1,2.28,4.608l2.4-1.08a19.513,19.513,0,0,0-2.4-4.464ZM-.936-11.808H-3.36v-2.976H-6.12v2.976h-6.192v2.64H-6.12v8.136c0,.36-.144.48-.528.48-.432,0-1.776,0-3.048-.048a10.3,10.3,0,0,1,.864,2.736,10.571,10.571,0,0,0,4.248-.48C-3.648,1.2-3.36.48-3.36-1.008v-8.16H-.936Z" transform="translate(163 164)"/>
            <path id="パス_3647" data-name="パス 3647" d="M-126.552-16.344h-7.92v-1.2h7.92Zm0,3.072h-7.92V-14.52h7.92Zm0,3.024h-7.92v-1.224h7.92Zm2.808-9.24H-137.16V-8.3h13.416ZM-137.928-3.864A17.037,17.037,0,0,1-143.04,0a24.036,24.036,0,0,1,2.328,1.92,23.824,23.824,0,0,0,5.76-4.68Zm16.728-.672v-2.52h-17.616V-18.048h-2.88V-4.032h2.88v-.5h5.352V2.088h3V-4.536Zm-7.752,2.016a49.055,49.055,0,0,1,5.4,4.464l2.64-1.776A50.668,50.668,0,0,0-126.5-4.056Zm26.712-9.96-1.776.744A18.518,18.518,0,0,1-102.144-8.4l1.824-.816A31.454,31.454,0,0,0-102.24-12.48Zm2.688-1.1-1.752.816a21.113,21.113,0,0,1,1.968,3.24l1.8-.864A35.9,35.9,0,0,0-99.552-13.584Zm-18.7-2.832.312,3.264c2.76-.6,7.752-1.128,9.816-1.344a9.424,9.424,0,0,0-3.5,7.32c0,5.16,4.7,7.848,9.7,8.16l1.1-3.288c-4.032-.192-7.68-1.608-7.68-5.52a7.214,7.214,0,0,1,5.016-6.648,24.543,24.543,0,0,1,4.584-.312l-.024-3.072c-1.68.072-4.272.216-6.72.408-4.344.384-8.28.744-10.272.912C-116.376-16.488-117.288-16.44-118.248-16.416ZM-85.032-4.8h2.112a12.44,12.44,0,0,0,1.68,2.808c-1.272.192-2.568.36-3.792.528Zm1.2-4.032h3.576V-7.2h-3.576Zm0-3.96h3.576v1.584h-3.576Zm-6.12-4.1h12.7v1.68h-12.7ZM-76.464-4.8a28.9,28.9,0,0,1-2.448,1.632A9.586,9.586,0,0,1-80.232-4.8Zm.84,0h2.52V-7.2h-4.512V-8.832h3.456v-2.376h-3.456v-1.584h3.264v-6.5h-18.48v7.08C-92.832-8.4-93.024-3-95.4.7A12.1,12.1,0,0,1-92.856,2.16c2.52-3.936,2.9-10.176,2.9-14.376v-.576h3.5v1.584h-3.024v2.376h3.024V-7.2H-90.12v2.4h2.472v3.672c-.888.12-1.728.216-2.448.288l.384,2.592c2.5-.384,5.832-.84,8.952-1.344l-.1-1.944A12.032,12.032,0,0,0-74.5,2.112,9.744,9.744,0,0,1-72.816-.24,13.087,13.087,0,0,1-77.04-1.752a28.5,28.5,0,0,0,3.12-1.9ZM-63.5-17.376v1.224h-3.768v-1.224Zm-3.768,4.392V-14.3H-63.5v1.32Zm6.456,2.064v-8.5h-9.24v21.5h2.784V-10.92ZM-61.2-5.64v-1.8h2.232v1.8Zm7.368,2.328V-5.64h-2.64v-1.8h2.256V-9.7H-65.808V-7.44h2.184v1.8h-2.52v2.328h2.424A5.624,5.624,0,0,1-66.168.432a10.8,10.8,0,0,1,1.824,1.632,7.818,7.818,0,0,0,3.072-5.376h2.3V1.632h2.5V-3.312Zm-2.688-9.624V-14.3h3.888v1.368Zm3.888-4.44v1.224H-56.52v-1.224Zm2.808-2.04h-9.408v8.544h6.6v9.6c0,.336-.12.48-.5.48-.36.024-1.536.024-2.616-.024a10.148,10.148,0,0,1,.864,2.832,8.531,8.531,0,0,0,3.936-.552c.864-.456,1.128-1.248,1.128-2.712ZM-27.216-11.4l-.528.192h-3.792l.576-.936c-.552-.264-1.272-.528-2.064-.84a39.568,39.568,0,0,0,5.544-4.56l-2.04-1.608-.648.168H-44.52v2.616h11.592a24.981,24.981,0,0,1-3.048,2.256c-1.344-.5-2.688-.96-3.768-1.344L-41.16-13.3c1.536.576,3.48,1.344,5.256,2.088h-10.92V-8.5h9.48v7.368c0,.36-.144.456-.6.48-.48,0-2.256,0-3.672-.048A9.72,9.72,0,0,1-40.584,2.04a15,15,0,0,0,4.728-.432C-34.7,1.2-34.368.48-34.368-1.032V-8.5H-29.3a30.335,30.335,0,0,1-1.872,2.952l2.448,1.416a31.968,31.968,0,0,0,3.84-6.264Zm7.776-3.792H-4.68V-11.9h2.952v-6h-8.784v-2.4h-3.024v2.4h-8.712v6h2.808Zm8.9,10.464h6.6V-7.416h-6.6v-3H-5.4v-2.712H-18.6v2.712h5.112v8.472a6.46,6.46,0,0,1-3.264-3.768c.216-.96.384-1.968.528-3.048L-19.2-9.048c-.432,4.1-1.608,7.416-4.2,9.336a17.477,17.477,0,0,1,2.352,1.944,12.247,12.247,0,0,0,3.216-4.56c2.16,3.432,5.448,4.152,9.888,4.152h6A10.673,10.673,0,0,1-.936-1.08c-1.608.072-5.568.072-6.864.072a24.8,24.8,0,0,1-2.736-.144Z" transform="translate(335 164)"/>
            <path id="パス_3650" data-name="パス 3650" d="M-22.344-.42H-1.26V-6.258H-12.6C-7.728-10-1.722-15.372-1.722-22.092c0-5.166-3.108-9.24-10.08-9.24-5.586,0-10.416,3.192-10.626,10.626h6.93c0-2.9,1.26-4.578,3.4-4.578,2.184,0,3.192,1.428,3.192,3.654,0,5.166-6.93,10.5-13.44,15.876Z" transform="translate(138 166)"/>
            <path id="パス_3651" data-name="パス 3651" d="M-23.822-22.532h7.181c.129-1.72.989-3.44,3.354-3.44A2.974,2.974,0,0,1-10.062-22.7c0,2.838-2.408,3.44-4.9,3.44H-16.34v5.977h1.376c3.827,0,5.5,1.118,5.5,3.913a3.274,3.274,0,0,1-3.526,3.526c-2.709,0-4.042-1.634-4.085-4.085h-7.138C-23.994-2.838-19.264.258-12.728.258c6.579,0,10.363-3.784,10.363-9.073,0-4.128-2.15-6.536-5.289-7.568v-.172a7.116,7.116,0,0,0,4.73-7.052c0-4.73-3.569-8.514-10.191-8.514C-19.522-32.121-23.564-28.724-23.822-22.532Z" transform="translate(191 167)"/>
          </g>
        </g>
      </g>
    </g>
  </g>
</svg>
