<svg xmlns="http://www.w3.org/2000/svg" width="87.633" height="94.134" viewBox="0 0 87.633 94.134">
  <g id="グループ_41598" data-name="グループ 41598" transform="translate(5929.582 -1321)">
    <path id="パス_4730" data-name="パス 4730" d="M-42.126,0h1.43l1.417-5.746c.156-.754.325-1.443.481-2.171h.052c.156.728.3,1.417.468,2.171L-36.835,0h1.443l1.976-9.529h-1.157l-1,5.187q-.273,1.521-.546,3.081h-.065c-.221-1.04-.442-2.067-.676-3.081L-38.2-9.529h-1.092l-1.313,5.187c-.234,1.027-.468,2.054-.689,3.081h-.052c-.182-1.027-.377-2.054-.559-3.081l-1-5.187h-1.248Zm11.921,0h5.642V-1.027H-29V-4.5h3.614V-5.525H-29v-2.99h4.29V-9.529h-5.5ZM-21,0h3.042c2.132,0,3.614-.923,3.614-2.8A2.2,2.2,0,0,0-16.3-5.07v-.065a2.076,2.076,0,0,0,1.4-2.067c0-1.677-1.339-2.327-3.276-2.327H-21Zm1.209-5.473V-8.58h1.469c1.482,0,2.249.416,2.249,1.534,0,.962-.663,1.573-2.3,1.573Zm0,4.511V-4.55h1.664c1.664,0,2.6.533,2.6,1.716,0,1.287-.962,1.872-2.6,1.872ZM-.956-8.9a2.644,2.644,0,0,1-.832.1H-9.536a9.99,9.99,0,0,1-1.326-.1v1.17c.26-.026.819-.078,1.326-.078h7.644A15.943,15.943,0,0,1-5.948-3.3c-.884-.793-1.95-1.651-2.431-2l-.845.676A30.675,30.675,0,0,1-6.247-2.067,31.186,31.186,0,0,1-3.906.585l.949-.754C-3.478-.806-4.4-1.781-5.181-2.561A20.349,20.349,0,0,0-.449-7.839a3.682,3.682,0,0,1,.325-.4ZM8.561-7.683c.026-.429.052-.871.065-1.339.013-.312.039-.767.078-1.053H7.482A7.552,7.552,0,0,1,7.573-9c0,.455-.026.9-.052,1.313H5.233c-.494,0-1.027-.026-1.482-.065v1.092a13.752,13.752,0,0,1,1.5-.052H7.43A8.328,8.328,0,0,1,4.856-1.235,6.7,6.7,0,0,1,3.53-.273l.936.767C6.637-1,7.989-2.964,8.457-6.708H12.1c0,1.391-.169,4.589-.663,5.59A.711.711,0,0,1,10.68-.7,15.816,15.816,0,0,1,8.743-.845L8.873.234c.676.052,1.43.091,2.093.091a1.332,1.332,0,0,0,1.391-.793c.585-1.248.741-5.031.793-6.279a4.066,4.066,0,0,1,.065-.637l-.728-.364a4.685,4.685,0,0,1-.832.065Zm2.9-2.21A15.756,15.756,0,0,1,12.513-8.1l.7-.312a20.147,20.147,0,0,0-1.066-1.781Zm1.43-.52a13.511,13.511,0,0,1,1.079,1.781l.689-.312a16.119,16.119,0,0,0-1.079-1.768ZM26.227-9.7l-.715.312A13.077,13.077,0,0,1,26.7-7.345l.741-.338A19.2,19.2,0,0,0,26.227-9.7Zm1.7-.624-.728.312a15.425,15.425,0,0,1,1.235,2.015l.741-.338A18.745,18.745,0,0,0,27.93-10.322Zm-7.254.429-.585.871c.754.442,2.171,1.378,2.795,1.859l.611-.9C22.938-8.463,21.443-9.464,20.676-9.893ZM18.726-.6l.6,1.053a15.524,15.524,0,0,0,4.3-1.612A15.3,15.3,0,0,0,28.632-5.8l-.624-1.079a13.288,13.288,0,0,1-4.927,4.771A14.111,14.111,0,0,1,18.726-.6Zm-.013-6.37-.585.884A28.721,28.721,0,0,1,20.975-4.3l.6-.91C21-5.616,19.48-6.552,18.713-6.968ZM34.431-9.529l-.741.793a27,27,0,0,1,3.237,2.717l.819-.819A28.466,28.466,0,0,0,34.431-9.529ZM33.313-.819,34,.247a14.013,14.013,0,0,0,5.109-2.028A12.967,12.967,0,0,0,43.479-6.4L42.854-7.5a12.246,12.246,0,0,1-4.342,4.784A13.423,13.423,0,0,1,33.313-.819Z" transform="translate(-5885.427 1414.549)" fill="#333"/>
    <path id="パス_4731" data-name="パス 4731" d="M-14.624,1.024-20.032-12.8l-5.92,13.888L-35.168-23.04h3.616l5.984,16.832,4-10.5-2.464-6.336h3.072l6.432,16.48,5.7-16.48H-5.5Zm28.768-24.16v2.976H2.208v7.04H12.864v2.976H2.208v7.136H14.592V0H-.9V-23.136ZM30.3-12A7.332,7.332,0,0,1,33.44-9.808,5.111,5.111,0,0,1,34.592-6.5,6.015,6.015,0,0,1,33.52-2.832,6.278,6.278,0,0,1,30.7-.688,10.332,10.332,0,0,1,26.88,0H20V-23.136h5.984a9.058,9.058,0,0,1,5.5,1.456,5.1,5.1,0,0,1,1.952,4.368,6.07,6.07,0,0,1-.816,3.184A5.609,5.609,0,0,1,30.3-12Zm-7.2-1.024h3.52a3.433,3.433,0,0,0,2.7-1.024,3.8,3.8,0,0,0,.912-2.624A3.147,3.147,0,0,0,29.152-19.3a4.773,4.773,0,0,0-3.04-.864H23.1ZM26.752-2.88a5.7,5.7,0,0,0,3.328-.912,3.047,3.047,0,0,0,1.312-2.672,2.921,2.921,0,0,0-1.424-2.688,6.511,6.511,0,0,0-3.44-.864H23.1V-2.88Z" transform="translate(-5885.427 1384.549)" fill="#333"/>
    <g id="レイヤー_2" data-name="レイヤー 2" transform="translate(-5901.427 1321)">
      <g id="文字">
        <path id="パス_110" data-name="パス 110" d="M18.108,5.6a.142.142,0,0,0,0-.189L16.8,4.717a.126.126,0,0,0-.189,0L11.73,13.731H10.609L15.74,4.259a.158.158,0,0,0,0-.189l-1.374-.758a.158.158,0,0,0-.189,0L9.046,13.731H2.068L4.752,9h5.9l.521-1.042H4.231L0,14.679l4.231,9.078H13.7l4.231-9.078-2.289-3.521-.663,1.152.805,1.421H13.372Z" transform="translate(0 1.898)" fill="#231815"/>
        <path id="パス_111" data-name="パス 111" d="M15.971,11.15c-2.494,0-4.531.568-4.531,1.263a36.864,36.864,0,0,0,.41,5.3c.095.347.568.679,1.326.9v.142c.111.442,1.074.837,2.763.837h0c1.689,0,2.652-.395,2.763-.837v-.142c.758-.221,1.231-.553,1.326-.9a36.864,36.864,0,0,0,.474-5.226C20.5,11.718,18.481,11.15,15.971,11.15Zm-1.484,4.168c-.126.458-2.321,0-2.479-.568v-.174c0-.016.126,0,.174.111a1.184,1.184,0,0,0,.379.237,3.3,3.3,0,0,0,.537.126,4.736,4.736,0,0,0,1.31.205Zm1.452-.853a10.12,10.12,0,0,1-2.226-.126H13.4c-.805-.142-1.5-.395-1.579-.774a.141.141,0,1,1,.268-.079c0,.237,1.042.41,1.405.474h.332a9.773,9.773,0,0,0,2.131.205.142.142,0,1,1,0,.284Zm0-1.168c-2.163,0-3.9-.395-3.9-.884s1.737-.9,3.9-.9,3.9.395,3.9.9-1.705.884-3.852.884Z" transform="translate(6.621 6.453)" fill="#231815"/>
        <path id="パス_112" data-name="パス 112" d="M24.182,10.735c-.647-1.263-2.116-2.005-2.589-3.363A4.373,4.373,0,0,1,21.025,5.1,7.894,7.894,0,0,1,21.5,2.431a3.568,3.568,0,0,1,.332-.947c.095-.158.489-.426.521-.568S21.83.347,21.514.268A9.125,9.125,0,0,0,19.446,0H18.83a9.251,9.251,0,0,0-1.973.253c-.316,0-.916.268-.837.647s.426.41.521.568a3.157,3.157,0,0,1,.332.947,8.273,8.273,0,0,1,.474,2.668,4.515,4.515,0,0,1-.537,2.273c-.489,1.358-1.958,2.1-2.589,3.363a13.735,13.735,0,0,0-1.437,6.647,15.788,15.788,0,0,1,2.415-.189h0a9.188,9.188,0,0,1,4.389.837,1.01,1.01,0,0,1,.521.805,35.1,35.1,0,0,1-.426,5.4c-.174.553-.663.853-1.358,1.105h.884c3.536,0,5.573-.837,5.841-1.784a27.17,27.17,0,0,0,.537-5.889,14.051,14.051,0,0,0-1.405-6.915Z" transform="translate(7.393)" fill="#231815"/>
      </g>
    </g>
  </g>
</svg>
