<svg xmlns="http://www.w3.org/2000/svg" xmlns:xlink="http://www.w3.org/1999/xlink" width="256" height="169.038" viewBox="0 0 256 169.038">
  <defs>
    <clipPath id="clip-path">
      <path id="パス_3830" data-name="パス 3830" d="M178.089,21.5l-7.672,8.894.34,1.233h.936l-.374,2.421-6.69,6.221-15.321,5.617L123.6,42.223l.508-39.84L132.2.6l18.647,2.127L164.112,0l11.07,1.531L176.4,4.342Z" transform="translate(-123.6)" fill="none"/>
    </clipPath>
  </defs>
  <g id="グループ_41383" data-name="グループ 41383" transform="translate(-8709.999 -230.393)">
    <g id="グループ_41366" data-name="グループ 41366" transform="translate(8713.35 293.939)">
      <path id="パス_3784" data-name="パス 3784" d="M13.37,163.053h2.381V187.13H13.37Zm1.736,12.52h7.7a4.748,4.748,0,0,0,2.482-.644,4.409,4.409,0,0,0,1.662-1.8,5.846,5.846,0,0,0,.59-2.713,5.934,5.934,0,0,0-.59-2.713,4.341,4.341,0,0,0-1.628-1.777,4.707,4.707,0,0,0-2.482-.678H15.106v-2.225h7.583a7.684,7.684,0,0,1,3.8.922,6.348,6.348,0,0,1,2.537,2.591,8.722,8.722,0,0,1,0,7.725,6.416,6.416,0,0,1-2.537,2.584,7.677,7.677,0,0,1-3.8.916H15.106Z" transform="translate(-13.37 -162.8)" fill="#fff"/>
      <path id="パス_3785" data-name="パス 3785" d="M55.031,186.421a6.28,6.28,0,0,1-2.808-2.923,11.279,11.279,0,0,1-.936-4.876V163.09h2.387v15.647a6.649,6.649,0,0,0,1.506,4.748,6.026,6.026,0,0,0,4.558,1.58,6.053,6.053,0,0,0,4.564-1.58,6.622,6.622,0,0,0,1.526-4.748V163.07h2.387v15.552a11.279,11.279,0,0,1-.936,4.9,6.253,6.253,0,0,1-2.828,2.923,10.174,10.174,0,0,1-4.748.977A10.112,10.112,0,0,1,55.031,186.421Z" transform="translate(-25.568 -162.817)" fill="#fff"/>
      <path id="パス_3786" data-name="パス 3786" d="M91.33,163.068h2.387v24.077H91.33Zm1.987,21.859h6.606a7.01,7.01,0,0,0,4.463-1.153,3.941,3.941,0,0,0,1.4-3.235v-.047a5.426,5.426,0,0,0-.515-2.455,3.6,3.6,0,0,0-1.641-1.58,6.518,6.518,0,0,0-2.876-.556H93.29v-2.218h7.461a5.189,5.189,0,0,0,3.534-1.044,4.612,4.612,0,0,0-.1-6.287,6.227,6.227,0,0,0-3.893-1.058H93.317v-2.225h7.5a8.505,8.505,0,0,1,3.907.8,5.256,5.256,0,0,1,2.353,2.252,7.312,7.312,0,0,1,.78,3.473,5.677,5.677,0,0,1-.482,2.313,4.9,4.9,0,0,1-1.465,1.865,5.473,5.473,0,0,1-2.442,1.038,5.3,5.3,0,0,1,4.137,3.079,6.328,6.328,0,0,1,.563,2.652v.047a6.735,6.735,0,0,1-.861,3.445,5.806,5.806,0,0,1-2.469,2.306,8.26,8.26,0,0,1-3.737.807H93.317Z" transform="translate(-38.455 -162.815)" fill="#fff"/>
      <path id="パス_3787" data-name="パス 3787" d="M130.25,163.07h2.387v24.077H130.25Zm1.689,21.859h13.775v2.218H131.939Z" transform="translate(-50.978 -162.817)" fill="#fff"/>
      <path id="パス_3788" data-name="パス 3788" d="M169.507,187.147H167.12V163.07h2.387Z" transform="translate(-62.842 -162.817)" fill="#fff"/>
      <path id="パス_3789" data-name="パス 3789" d="M190.11,186.166a7.461,7.461,0,0,1-2.937-3.147,10.173,10.173,0,0,1-1.044-4.714V171.72a10.174,10.174,0,0,1,1.044-4.748,7.508,7.508,0,0,1,2.937-3.154A8.505,8.505,0,0,1,194.5,162.7a8.6,8.6,0,0,1,3.812.841,7.889,7.889,0,0,1,2.9,2.394,8.756,8.756,0,0,1,1.587,3.588h-2.387a6.268,6.268,0,0,0-1.3-2.4,6.375,6.375,0,0,0-2.109-1.628,5.724,5.724,0,0,0-2.5-.577,5.854,5.854,0,0,0-3.147.841,5.67,5.67,0,0,0-2.1,2.381,8.03,8.03,0,0,0-.739,3.547V178.3a8.03,8.03,0,0,0,.739,3.547,5.589,5.589,0,0,0,2.1,2.367,5.853,5.853,0,0,0,3.147.841,6,6,0,0,0,2.5-.549,6.1,6.1,0,0,0,2.109-1.587,6.3,6.3,0,0,0,1.3-2.469h2.387a8.688,8.688,0,0,1-1.594,3.581,7.921,7.921,0,0,1-2.916,2.394,9.082,9.082,0,0,1-8.186-.258Z" transform="translate(-68.957 -162.697)" fill="#fff"/>
      <path id="パス_3790" data-name="パス 3790" d="M230.2,163.07h2.882l8.878,24.077H239.31l-7.664-21.574-7.671,21.574H221.33Zm-4.748,16.013h12.608v2.252H225.42Z" transform="translate(-80.285 -162.817)" fill="#fff"/>
      <path id="パス_3791" data-name="パス 3791" d="M257.24,163.07H274.2v2.225H257.24Zm7.3.977h2.387v23.1h-2.387Z" transform="translate(-91.84 -162.817)" fill="#fff"/>
      <path id="パス_3792" data-name="パス 3792" d="M297.871,187.147H295.49V163.07h2.381Z" transform="translate(-104.148 -162.817)" fill="#fff"/>
      <path id="パス_3793" data-name="パス 3793" d="M318.337,186.238a6.9,6.9,0,0,1-2.889-3.032,10.69,10.69,0,0,1-.99-4.8v-6.823a10.729,10.729,0,0,1,.99-4.8,6.891,6.891,0,0,1,2.889-3.025,10.553,10.553,0,0,1,9.156,0,6.783,6.783,0,0,1,2.889,3.025,10.641,10.641,0,0,1,1,4.8V178.4a10.6,10.6,0,0,1-1,4.8,6.83,6.83,0,0,1-2.889,3.032A10.553,10.553,0,0,1,318.337,186.238Zm7.867-1.946a5.018,5.018,0,0,0,2.075-2.231,8.058,8.058,0,0,0,.712-3.54v-7.054a8.03,8.03,0,0,0-.712-3.534,5.032,5.032,0,0,0-2.075-2.238,7.46,7.46,0,0,0-6.572,0,5.046,5.046,0,0,0-2.082,2.238,8.032,8.032,0,0,0-.678,3.534v7.04a8.058,8.058,0,0,0,.678,3.54,5.032,5.032,0,0,0,2.082,2.231,7.372,7.372,0,0,0,6.572,0Z" transform="translate(-110.25 -162.701)" fill="#fff"/>
      <path id="パス_3794" data-name="パス 3794" d="M354.09,163.07h2.4l13.978,21.7-.977-.678V163.07h2.381v24.064h-2.435L355.2,165.274l1.3.943v20.917H354.1Z" transform="translate(-123.003 -162.817)" fill="#fff"/>
    </g>
    <g id="グループ_41367" data-name="グループ 41367" transform="translate(8709.999 353.939)">
      <path id="パス_3795" data-name="パス 3795" d="M6.584,238.8a12.418,12.418,0,0,0,1.637-4.2,5.969,5.969,0,0,0,.143-1.208,11.686,11.686,0,0,1,1.669.351c.214.071.318.156.318.253a.877.877,0,0,1-.162.377,2.318,2.318,0,0,0-.227.721,8.4,8.4,0,0,1-.221.838H11.15v-.649a22.984,22.984,0,0,0-.143-2.825,15.977,15.977,0,0,1,1.948.136c.227,0,.338.091.338.195a1.221,1.221,0,0,1-.123.429,7.288,7.288,0,0,0-.143,2.026v.649h1.422l2.364-.039c.1,0,.162,0,.182.039a.474.474,0,0,1,0,.188v1.39c0,.1,0,.162-.039.182a.332.332,0,0,1-.169,0l-2.364-.039h-1.37v2.552H15.06l2.6-.039a.169.169,0,0,1,.188.188v1.409a.474.474,0,0,1,0,.188.413.413,0,0,1-.162.039l-2.6-.039H13.677a15.925,15.925,0,0,0,4.637,4.839,5.481,5.481,0,0,0-.8,1.448c-.11.26-.208.39-.305.39s-.227-.084-.409-.253a16.978,16.978,0,0,1-3.832-4.793q0,1.948.078,4.462c0,1.3.032,1.948.032,1.987a.182.182,0,0,1-.208.2H11.3c-.143,0-.221-.071-.221-.2s0-.851.058-2.4.052-2.786.071-3.9a15.444,15.444,0,0,1-4.04,4.728,1.072,1.072,0,0,1-.442.273c-.091,0-.2-.143-.338-.429a3.9,3.9,0,0,0-.838-1.13,14.678,14.678,0,0,0,4.91-5.2H9.812l-2.63.039q-.175,0-.195-.058c-.26.5-.429.844-.507,1.039s-.182.312-.24.312-.13-.117-.247-.351A16.5,16.5,0,0,1,4.9,240.39q0,3.319.084,6.936c0,.52,0,1.2.039,2.039v.649a.3.3,0,0,1-.039.188H3.226c-.117,0-.182,0-.2-.045a.338.338,0,0,1-.039-.169v-1.429q.078-4.118.11-7.443a17.582,17.582,0,0,1-1.987,4.546c-.123.208-.227.312-.292.312s-.156-.11-.227-.331A6.618,6.618,0,0,0-.06,244.19a18.185,18.185,0,0,0,3-6.183H.68a.3.3,0,0,1-.188,0,.357.357,0,0,1,0-.182v-1.383a.3.3,0,0,1,.039-.188.331.331,0,0,1,.175,0l1.832.039h.585v-1.163a17.192,17.192,0,0,0-.156-2.656,18.541,18.541,0,0,1,1.948.136q.331.039.331.195a1.085,1.085,0,0,1-.123.409,6.962,6.962,0,0,0-.13,1.89v1.189l1.6-.039a.3.3,0,0,1,.188.039.344.344,0,0,1,0,.175v1.383a.338.338,0,0,1-.032.188.357.357,0,0,1-.182.032H5.09a14.775,14.775,0,0,0,1.884,3.2v-.8c0-.123.071-.188.214-.188l2.63.039h1.3v-2.643H9.143a15.416,15.416,0,0,1-.688,1.546q-.195.39-.312.39a1.111,1.111,0,0,1-.448-.26A3.9,3.9,0,0,0,6.584,238.8Z" transform="translate(0.06 -231.856)" fill="#fff"/>
      <path id="パス_3796" data-name="パス 3796" d="M38.094,238.042l-2.5.039h-.162a.377.377,0,0,1-.032-.2v-1.533c0-.123,0-.188.032-.208a.26.26,0,0,1,.162-.032l2.5.039h6.995v-.8a22.082,22.082,0,0,0-.162-2.786,19.24,19.24,0,0,1,2.117.11c.214,0,.318.11.318.24a2.872,2.872,0,0,1-.117.409,4.4,4.4,0,0,0-.1,1.221v1.6h2.4l2.481-.052c.1,0,.162,0,.182.052a.337.337,0,0,1,0,.188v1.533a.344.344,0,0,1-.039.208h-.175l-2.462-.032H47.206a25.063,25.063,0,0,0,1.117,6.67q.929,2.884,1.747,2.884c.461,0,.753-.948.877-2.851a5.449,5.449,0,0,0,1.266.883,2.123,2.123,0,0,1,.429.273.39.39,0,0,1,.091.266,3.743,3.743,0,0,1-.039.377c-.364,2.371-1.15,3.546-2.345,3.527q-2.4,0-3.825-4.293a30.13,30.13,0,0,1-1.344-7.735Zm3.9,4.326h-.747v3.819q2.215-.539,3.793-1.091a11.442,11.442,0,0,0-.058,1.228,1.234,1.234,0,0,1-.084.61,1.5,1.5,0,0,1-.494.208,65.927,65.927,0,0,1-6.975,1.942,2.7,2.7,0,0,0-.818.3.935.935,0,0,1-.351.13c-.123,0-.221-.084-.273-.253q-.182-.546-.507-1.948a11.1,11.1,0,0,0,1.864-.234l1.877-.351v-4.287h-.649l-2.312.045c-.143,0-.214-.065-.214-.2v-1.455a.409.409,0,0,1,0-.208.357.357,0,0,1,.182-.033l2.312.039h3.455l2.3-.039c.11,0,.175,0,.2.052a.351.351,0,0,1,0,.188v1.455c0,.1,0,.156-.039.169a.416.416,0,0,1-.195.032Zm7.528-9.508a8.956,8.956,0,0,1,1.669,1.793.292.292,0,0,1,.071.156c0,.065-.071.143-.2.234l-.922.649a.552.552,0,0,1-.247.117c-.058,0-.117-.052-.182-.156a8.723,8.723,0,0,0-1.52-1.851.266.266,0,0,1-.1-.156c0-.046.058-.117.182-.195l.818-.565a.506.506,0,0,1,.227-.11.3.3,0,0,1,.214.11Z" transform="translate(-12.368 -231.891)" fill="#fff"/>
      <path id="パス_3797" data-name="パス 3797" d="M86.424,238.729a6.3,6.3,0,0,0-.831,1.455c-.13.325-.24.487-.338.487a1.74,1.74,0,0,1-.448-.149,22.356,22.356,0,0,1-3.715-2.065V239.9c0,.1,0,.162-.039.182a.324.324,0,0,1-.175.032l-2.2-.039h-3l-2.208.039c-.1,0-.162,0-.175-.039a.325.325,0,0,1,0-.175v-1.481a22.791,22.791,0,0,1-3.527,2.1,1.486,1.486,0,0,1-.468.182q-.136,0-.351-.487a4.43,4.43,0,0,0-.877-1.3,15.8,15.8,0,0,0,7.476-5.663A6.1,6.1,0,0,0,76.2,232a15.519,15.519,0,0,1,2.1.409c.234.058.351.149.351.266a.331.331,0,0,1-.195.318,1.365,1.365,0,0,0-.273.169,18,18,0,0,0,8.235,5.566Zm-14.412,4.962-2.6.039c-.1,0-.175,0-.195-.039a.318.318,0,0,1-.032-.169v-1.468c0-.1,0-.162.039-.182a.388.388,0,0,1,.188,0l2.6.039H82.4l2.6-.039a.318.318,0,0,1,.2.039.3.3,0,0,1,0,.169v1.468a.266.266,0,0,1-.039.175.35.35,0,0,1-.195,0l-2.6-.039H76.383a38.548,38.548,0,0,1-1.741,3.663q3.04-.175,6-.487c-.6-.727-1.072-1.3-1.416-1.656a.26.26,0,0,1-.091-.162c0-.058.071-.123.2-.188l1.247-.649a.461.461,0,0,1,.208-.078.331.331,0,0,1,.2.11,35.492,35.492,0,0,1,3.624,4.546.273.273,0,0,1,.065.162c0,.058-.052.13-.156.195l-1.351.89a.649.649,0,0,1-.234.11c-.045,0-.1-.046-.162-.13-.26-.442-.578-.948-.968-1.526q-3.78.481-10.522.994a1.63,1.63,0,0,0-.7.175.519.519,0,0,1-.338.117c-.136,0-.227-.091-.266-.273-.117-.429-.253-1.1-.409-2.013.3,0,.611.039.942.039s.714,0,1.182-.039h.649a33.04,33.04,0,0,0,1.689-3.793Zm1.526-5.469c.227,0,.942.039,2.137.039h3c1.117,0,1.812,0,2.1-.039a18.283,18.283,0,0,1-3.683-3.572,18.186,18.186,0,0,1-3.553,3.579Z" transform="translate(-23.82 -231.695)" fill="#fff"/>
      <path id="パス_3798" data-name="パス 3798" d="M102,243.092a13.864,13.864,0,0,0,3.208-2.793,12.3,12.3,0,0,0,1.883-2.975h-2.208l-2.065.039c-.1,0-.162,0-.188-.039a.318.318,0,0,1,0-.169v-1.448c0-.1,0-.162.052-.188a.287.287,0,0,1,.169-.032l2.065.052h.331v-.825a14.461,14.461,0,0,0-.149-2.384,14.785,14.785,0,0,1,2.026.136c.208,0,.312.084.312.2a1.253,1.253,0,0,1-.117.409,5.229,5.229,0,0,0-.123,1.546v.89h.818a.649.649,0,0,0,.37-.091.65.65,0,0,1,.221-.071c.13,0,.37.169.721.5s.526.585.526.708a.435.435,0,0,1-.188.312,2.435,2.435,0,0,0-.461.559,18.773,18.773,0,0,1-1.656,2.845,11.578,11.578,0,0,0,2.864,2.286,4.547,4.547,0,0,0-.779,1.266q-.195.429-.37.429c-.084,0-.214-.078-.39-.24a14.427,14.427,0,0,1-1.676-1.806V247.7l.039,2.293a.3.3,0,0,1-.039.188.443.443,0,0,1-.195,0h-1.559c-.1,0-.175,0-.195-.039a.312.312,0,0,1,0-.175v-6.93a19.945,19.945,0,0,1-1.858,1.617,1.026,1.026,0,0,1-.409.253c-.078,0-.182-.149-.305-.442A5.3,5.3,0,0,0,102,243.092Zm9.742,6.391-2.6.039c-.1,0-.162,0-.182-.039a.331.331,0,0,1,0-.169v-1.546a.325.325,0,0,1,0-.182h.175l2.6.039h1.637v-7.313h-3.306a.286.286,0,0,1-.169-.033V238.61q0-.143.039-.175a.4.4,0,0,1,.162,0h3.332v-3.1a21.043,21.043,0,0,0-.156-2.942q1.254.039,2.163.136.312.039.312.195a.987.987,0,0,1-.091.409,7.353,7.353,0,0,0-.162,2.143v3.157h3.683a.338.338,0,0,1,.188.032v1.7c0,.1,0,.162-.045.182a.416.416,0,0,1-.169,0H115.47v7.281h1.767l2.6-.039a.318.318,0,0,1,.2.039.331.331,0,0,1,0,.175v1.546c0,.1,0,.162-.039.175a.338.338,0,0,1-.188.032l-2.6-.039Z" transform="translate(-35.713 -231.81)" fill="#fff"/>
      <path id="パス_3799" data-name="パス 3799" d="M146.831,237.665l-2.552.695q-.584-2.475-2.689-2.475a2.851,2.851,0,0,0-1.948.6,1.747,1.747,0,0,0-.572,1.37,1.988,1.988,0,0,0,.649,1.617,5.93,5.93,0,0,0,2.117.916l.8.234a7.206,7.206,0,0,1,3.637,1.9,3.9,3.9,0,0,1,.792,2.6,4.014,4.014,0,0,1-1.565,3.39,7.417,7.417,0,0,1-7.794,0,5.014,5.014,0,0,1-1.806-2.832l2.513-.8a3.546,3.546,0,0,0,1.228,2.111,3.02,3.02,0,0,0,1.91.649q2.9,0,2.89-2.156a1.949,1.949,0,0,0-.649-1.617,6.5,6.5,0,0,0-2.312-1l-.779-.227a7.015,7.015,0,0,1-3.462-1.916,4.053,4.053,0,0,1-.792-2.637,3.67,3.67,0,0,1,1.487-3.059,5.592,5.592,0,0,1,3.566-1.065A4.977,4.977,0,0,1,146.831,237.665Z" transform="translate(-47.596 -232.378)" fill="#fff"/>
      <path id="パス_3800" data-name="パス 3800" d="M161.35,234.26h5.436q5.358,0,5.358,4.111a3.754,3.754,0,0,1-.877,2.533,4.4,4.4,0,0,1-2.124,1.3l3.494,7.144h-2.825l-3.066-6.774h-2.793v6.755h-2.6Zm2.6,1.948v4.449h2.637c1.948,0,2.955-.76,2.955-2.267s-.948-2.182-2.845-2.182Z" transform="translate(-56.517 -232.487)" fill="#fff"/>
      <path id="パス_3801" data-name="パス 3801" d="M197.408,238.452l-2.552.617q-.552-3.2-3.176-3.2a3.183,3.183,0,0,0-2.864,1.656,7.885,7.885,0,0,0-.929,4.144,7.3,7.3,0,0,0,1.208,4.546,3.124,3.124,0,0,0,2.6,1.3q2.7,0,3.332-3.247l2.481.766a5.47,5.47,0,0,1-5.845,4.494,5.91,5.91,0,0,1-4.975-2.312,8.768,8.768,0,0,1-1.591-5.495,8.358,8.358,0,0,1,2.059-6.073,6.014,6.014,0,0,1,4.507-1.786,5.722,5.722,0,0,1,3.994,1.39A5.846,5.846,0,0,1,197.408,238.452Z" transform="translate(-64.836 -232.347)" fill="#fff"/>
      <path id="パス_3802" data-name="パス 3802" d="M211,246.276a16.529,16.529,0,0,0,4.222-5.806,9.605,9.605,0,0,0,.883-2.884,19.635,19.635,0,0,1,2.41.994.325.325,0,0,1,.234.312.558.558,0,0,1-.195.39,4.139,4.139,0,0,0-.649,1.189,22.99,22.99,0,0,1-4.17,6.547.76.76,0,0,1-.552.292.74.74,0,0,1-.448-.188A5.054,5.054,0,0,0,211,246.276Zm9.957-7.4.961-.649.591-.4a.513.513,0,0,1,.279-.11.481.481,0,0,1,.292.149A24.239,24.239,0,0,1,227.971,245a.525.525,0,0,1,.078.273.4.4,0,0,1-.195.318,10.726,10.726,0,0,1-1.617,1.026.533.533,0,0,1-.227.065c-.11,0-.195-.078-.247-.24a26.676,26.676,0,0,0-4.8-7.573Zm6.014-4.462a2.078,2.078,0,0,1,2.111,2.085,1.994,1.994,0,0,1-.695,1.559,2.046,2.046,0,0,1-1.416.533,2.1,2.1,0,0,1-1.409-3.663,2.072,2.072,0,0,1,1.416-.513Zm0,.929a1.156,1.156,0,1,0,0,2.312,1.117,1.117,0,0,0,.877-.37,1.15,1.15,0,0,0,.286-.786,1.124,1.124,0,0,0-.37-.87,1.175,1.175,0,0,0-.786-.286Z" transform="translate(-73.92 -232.539)" fill="#fff"/>
      <path id="パス_3803" data-name="パス 3803" d="M245.27,244.31a28.238,28.238,0,0,0,4.209.24h6.281c.611,0,1.4,0,2.377-.032h2.2c.175,0,.26.091.26.273v1.838c0,.195-.091.292-.279.292h-.071q-2.923-.039-4.352-.039h-7.008l-2.864.24a.429.429,0,0,1-.448-.409,18.261,18.261,0,0,1-.3-2.4Z" transform="translate(-85.933 -236.01)" fill="#fff"/>
      <path id="パス_3804" data-name="パス 3804" d="M284.1,238.979a29.281,29.281,0,0,1,6.2,2.65.39.39,0,0,1,.253.338.473.473,0,0,1-.039.169,11.423,11.423,0,0,1-.831,1.7c-.084.143-.169.214-.26.214a.344.344,0,0,1-.221-.091,21.608,21.608,0,0,0-5.118-2.507v4.313c0,.708,0,1.981.078,3.812v.058c0,.162-.117.24-.351.24h-1.734c-.286,0-.37-.1-.37-.3q.078-1.884.078-3.832v-9.593a17.143,17.143,0,0,0-.195-2.877,13.026,13.026,0,0,1,2.436.312c.253.052.377.162.377.331a1.046,1.046,0,0,1-.162.448,6.287,6.287,0,0,0-.136,1.825Z" transform="translate(-98.663 -232.14)" fill="#fff"/>
      <path id="パス_3805" data-name="パス 3805" d="M314.176,238.579h2.6c.909,0,2.033,0,3.384-.039h.1c.169,0,.266.117.273.351s.033.507.033.766a5.64,5.64,0,0,1-.033.747c-.032.247,0,.273-.084.318a.493.493,0,0,1-.286.058l-3.247-.078h-2.767a18.662,18.662,0,0,1-.455,3.358,7.7,7.7,0,0,1-.864,1.948,10.249,10.249,0,0,1-4.15,3.838.857.857,0,0,1-.448.136.578.578,0,0,1-.429-.2,6.054,6.054,0,0,0-1.637-1.065,10.431,10.431,0,0,0,4.416-3.527,9.014,9.014,0,0,0,1.189-4.5h-3.76c-.377,0-.9,0-1.578.046l-1.228.058h-.058q-.234,0-.292-.37c-.032-.221-.078-.87-.13-1.948.838.065,1.948.1,3.306.1h3.845v-2.884a9.745,9.745,0,0,0-.234-1.948,14.891,14.891,0,0,1,2.6.273c.195.052.292.143.292.279a1.3,1.3,0,0,1-.13.429,2.988,2.988,0,0,0-.162,1.182Q314.2,237.468,314.176,238.579Z" transform="translate(-106.77 -232.305)" fill="#fff"/>
      <path id="パス_3806" data-name="パス 3806" d="M337.84,244.31a28.177,28.177,0,0,0,4.209.24h6.287c.617,0,1.409,0,2.384-.032h2.163a.24.24,0,0,1,.26.273v1.838a.253.253,0,0,1-.279.292h-.078c-1.948,0-3.4-.039-4.345-.039h-7.014l-2.864.24a.422.422,0,0,1-.442-.409A18.282,18.282,0,0,1,337.84,244.31Z" transform="translate(-118.38 -236.01)" fill="#fff"/>
      <path id="パス_3807" data-name="パス 3807" d="M377.021,241.259a48.354,48.354,0,0,1,5.391,4.715.422.422,0,0,1,.156.279.474.474,0,0,1-.136.286,10.525,10.525,0,0,1-1.3,1.331.363.363,0,0,1-.24.117.429.429,0,0,1-.273-.156A35.93,35.93,0,0,0,375.553,243a28.179,28.179,0,0,1-6.547,5.137,1.547,1.547,0,0,1-.442.149.422.422,0,0,1-.338-.169,5.415,5.415,0,0,0-1.637-1.267,25.812,25.812,0,0,0,4.033-2.455,25.1,25.1,0,0,0,2.832-2.507A25.815,25.815,0,0,0,377.112,237h-5.02c-.987,0-2.013.032-3.085.11q-.188,0-.253-.331a9.187,9.187,0,0,1-.169-2.026c.695.052,1.793.078,3.286.078h5.378a3.286,3.286,0,0,0,1.344-.182.351.351,0,0,1,.214-.078.863.863,0,0,1,.338.149,7.52,7.52,0,0,1,1.26,1.37.565.565,0,0,1,.1.26.539.539,0,0,1-.26.39,3.466,3.466,0,0,0-.708.857,34.214,34.214,0,0,1-2.513,3.663Zm2.475-7.677,1.026-.714a.207.207,0,0,1,.11-.045.286.286,0,0,1,.182.084,8.015,8.015,0,0,1,1.844,2.085.227.227,0,0,1,.059.143.247.247,0,0,1-.11.169l-.818.6a.26.26,0,0,1-.156.065c-.052,0-.11-.039-.169-.123A10.343,10.343,0,0,0,379.5,233.582Zm1.786-1.3.981-.7a.22.22,0,0,1,.123-.052.3.3,0,0,1,.162.084,7.593,7.593,0,0,1,1.858,2.013.362.362,0,0,1,.052.156.253.253,0,0,1-.11.195l-.779.6a.273.273,0,0,1-.156.071.227.227,0,0,1-.182-.123,9.44,9.44,0,0,0-1.948-2.234Z" transform="translate(-128.457 -231.53)" fill="#fff"/>
    </g>
    <g id="グループ_41368" data-name="グループ 41368" transform="translate(8780.37 383.536)">
      <path id="パス_3808" data-name="パス 3808" d="M135.513,278.851a14.493,14.493,0,0,1,1.735.119c.175,0,.271.072.271.175a1.451,1.451,0,0,1-.088.334,6.981,6.981,0,0,0-.111,1.64v3.98a.358.358,0,0,1,0,.167.231.231,0,0,1-.135,0h-1.568a.3.3,0,0,1,0-.159v-.621h-3.431v5.142h3.98v-1.266a16.642,16.642,0,0,0-.1-2.125,14.086,14.086,0,0,1,1.751.119c.175,0,.255.08.255.183a1.453,1.453,0,0,1-.08.334,6.306,6.306,0,0,0-.119,1.632V292c0,.119-.064.175-.183.175h-1.369c-.119,0-.183-.056-.183-.175v-.8h-9.5v.852q0,.167-.191.167h-1.369a.381.381,0,0,1-.175,0,.231.231,0,0,1,0-.143V288.4a18.092,18.092,0,0,0-.1-2.1,15.82,15.82,0,0,1,1.751.111c.191,0,.287.08.287.183a2.574,2.574,0,0,1-.1.334,5.246,5.246,0,0,0-.111,1.457v1.234h3.749v-5.142H127.2v.836a.247.247,0,0,1-.143,0H125.66c-.1,0-.143,0-.159-.04a.247.247,0,0,1,0-.143v-4.1a18.807,18.807,0,0,0-.1-2.133,14.179,14.179,0,0,1,1.751.111c.167,0,.255.087.255.207a.541.541,0,0,1,0,.167.549.549,0,0,0-.048.167,5.245,5.245,0,0,0-.111,1.465v1.823h3.184v-3.661a17.012,17.012,0,0,0-.111-2.157,17.25,17.25,0,0,1,1.839.135c.167,0,.247.072.247.167a1.391,1.391,0,0,1-.1.334,7.84,7.84,0,0,0-.08,1.536v3.645h3.431v-1.855C135.6,280.1,135.569,279.392,135.513,278.851Z" transform="translate(-124.8 -276.432)" fill="#fff"/>
      <path id="パス_3809" data-name="パス 3809" d="M149.717,278.111a15.078,15.078,0,0,0-.08,1.958V281.8h1.409v-2.531a15.737,15.737,0,0,0-.119-2.165,13.224,13.224,0,0,1,1.64.119c.167,0,.247.072.247.167a1.01,1.01,0,0,1-.1.35,5.039,5.039,0,0,0-.08,1.258v2.8h.995a.35.35,0,0,1,.175,0,.3.3,0,0,1,0,.151v1.226c0,.087,0,.135-.04.151a.342.342,0,0,1-.159,0h-4v1.839h3.04c.088,0,.143,0,.159.04a.342.342,0,0,1,0,.159v6.821c0,.1-.056.159-.183.159h-1.465c-.024,0,0-.056,0-.127v-5.452h-1.648l-.159,1.671a13.442,13.442,0,0,1-.939,3.558c-.088.223-.175.334-.247.334s-.183-.088-.334-.255a3.59,3.59,0,0,0-.979-.8,10.825,10.825,0,0,0,.963-3.335,42.983,42.983,0,0,0,.215-5.126v-2.682c0-1.091-.04-1.99-.111-2.69a14.7,14.7,0,0,1,1.592.111c.183,0,.271.08.271.175a1.162,1.162,0,0,1-.056.239Q149.722,278.039,149.717,278.111Zm12.918,12.512a5.031,5.031,0,0,0-.677,1.226c-.111.263-.2.4-.263.4a.7.7,0,0,1-.35-.167,11.941,11.941,0,0,1-2.539-2.34,13.532,13.532,0,0,1-2.388,2.332.748.748,0,0,1-.382.223c-.08,0-.159-.1-.255-.3a2.714,2.714,0,0,0-.748-.987,10.347,10.347,0,0,0,2.81-2.587,13.069,13.069,0,0,1-1.7-5.166H156.1a38.111,38.111,0,0,1-.318,4.5,12.806,12.806,0,0,1-1.305,4.179c-.088.223-.175.334-.247.334s-.175-.088-.318-.271a4.7,4.7,0,0,0-1-.907,9.838,9.838,0,0,0,1.3-3.98,38.493,38.493,0,0,0,.271-5.054v-4.195a.35.35,0,0,1,0-.175.343.343,0,0,1,.159,0h7.434c.08,0,.127,0,.143.04a.318.318,0,0,1,0,.159v1.274c0,.119-.056.183-.167.183h-5.922v2.388h4.147a.62.62,0,0,0,.334-.064.5.5,0,0,1,.223-.064c.135,0,.358.159.669.486s.4.493.4.581a.406.406,0,0,1-.127.287,1.138,1.138,0,0,0-.3.629,16.149,16.149,0,0,1-1.727,4.776A9.305,9.305,0,0,0,162.636,290.623Zm-2.778-7.371h-2.324a10.832,10.832,0,0,0,1.21,3.7A12.2,12.2,0,0,0,159.858,283.253Z" transform="translate(-129.301 -276.448)" fill="#fff"/>
      <path id="パス_3810" data-name="パス 3810" d="M175.071,284.48a1.68,1.68,0,0,1,1.671,1.671,1.592,1.592,0,0,1-.557,1.242,1.648,1.648,0,0,1-2.388-.119,1.592,1.592,0,0,1-.438-1.122,1.7,1.7,0,0,1,1.679-1.671Z" transform="translate(-134.708 -277.954)" fill="#fff"/>
      <path id="パス_3811" data-name="パス 3811" d="M193.747,284.017a13.879,13.879,0,0,1-.318,2.491,7.725,7.725,0,0,1-.669,1.767,8.23,8.23,0,0,1-2.937,3.184,1.083,1.083,0,0,1-.5.207.5.5,0,0,1-.35-.167,4.044,4.044,0,0,0-1.488-.891,10.674,10.674,0,0,0,2.117-1.433,6.01,6.01,0,0,0,1.21-1.544,5.749,5.749,0,0,0,.653-1.719,12.341,12.341,0,0,0,.2-1.871h-3.184q-.8,0-2.507.1c-.127,0-.2-.088-.223-.318a9.181,9.181,0,0,1-.127-1.592c.629.056,1.592.08,2.842.08h7.506c1.194,0,2.276,0,3.255-.1.119,0,.183.111.183.334v1.281c0,.111-.088.286-.247.286-1.162-.04-2.221-.064-3.184-.064Zm-6.081-5.707c.979.056,1.9.08,2.778.08h3.072c1.154,0,2.093,0,2.818-.064.135,0,.207.1.207.318v1.218c0,.207-.072.318-.223.318-.884,0-1.823-.048-2.8-.048h-3.072c-.342,0-1.13,0-2.388.064-.167,0-.263-.1-.279-.286s-.04-.414-.064-.8-.032-.669-.048-.828Zm9.01-.549.947-.533h.1a.191.191,0,0,1,.143.08,7.077,7.077,0,0,1,1.417,1.934.215.215,0,0,1,.04.1.2.2,0,0,1-.119.167l-.748.446a.244.244,0,0,1-.119,0,.183.183,0,0,1-.151-.111,8.143,8.143,0,0,0-1.5-2.109Zm1.632-.955.907-.517a.192.192,0,0,1,.1,0,.185.185,0,0,1,.135.087,6.8,6.8,0,0,1,1.417,1.871.215.215,0,0,1-.08.3l-.7.446a.239.239,0,0,1-.135.04c-.064,0-.111-.04-.151-.119a8.157,8.157,0,0,0-1.5-2.133Z" transform="translate(-137.21 -276.281)" fill="#fff"/>
      <path id="パス_3812" data-name="パス 3812" d="M219.652,281.476h.581c.907,0,1.743,0,2.523-.048h0c.119,0,.183.088.2.263s0,.43,0,.653v.669c0,.215-.088.263-.223.263h-3.144a14.327,14.327,0,0,1-.414,3.128,7.426,7.426,0,0,1-4.815,5.134,1.59,1.59,0,0,1-.47.143.477.477,0,0,1-.31-.175,4.307,4.307,0,0,0-1.393-1,10.966,10.966,0,0,0,2.969-1.337,5.651,5.651,0,0,0,1.544-1.592,6.051,6.051,0,0,0,.748-1.9,14.5,14.5,0,0,0,.239-2.388H214.12v.6c0,1.258,0,2.181.056,2.77,0,.143-.088.215-.287.239a6.989,6.989,0,0,1-.708,0h-.732c-.223,0-.3-.088-.3-.2v-.04c.064-.947.1-1.863.1-2.738v-.637h-.509c-.971,0-1.886,0-2.762.088-.111,0-.175-.111-.191-.318s-.072-.716-.119-1.592c.8.048,1.807.08,3.072.08h.509v-1.226a14.371,14.371,0,0,0-.207-2.46,17.254,17.254,0,0,1,2.038.271.23.23,0,0,1,.255.239,1.448,1.448,0,0,1-.1.35,5.571,5.571,0,0,0-.127,1.592v1.226h3.6V279.55a9.937,9.937,0,0,0-.159-1.95,14.7,14.7,0,0,1,1.958.279c.207.048.3.135.3.271a.8.8,0,0,1-.072.3,5.34,5.34,0,0,0-.127,1.473Zm.517-3.638.907-.414h.08a.215.215,0,0,1,.151.088,7.289,7.289,0,0,1,1.289,2.03.276.276,0,0,1,0,.1c0,.064,0,.111-.127.151l-.685.35a.3.3,0,0,1-.119.04c-.064,0-.119-.048-.167-.135A8.135,8.135,0,0,0,220.169,277.839Zm1.592-.748.868-.382a.168.168,0,0,1,.088,0,.215.215,0,0,1,.151.1,6.878,6.878,0,0,1,1.281,1.958.334.334,0,0,1,0,.119c0,.072-.048.119-.135.159l-.669.334a.215.215,0,0,1-.111,0c-.064,0-.111-.04-.159-.111a7.958,7.958,0,0,0-1.3-2.173Z" transform="translate(-141.911 -276.367)" fill="#fff"/>
      <path id="パス_3813" data-name="パス 3813" d="M239.788,282.433v5.532c0,.979,0,2.141.048,3.478v.048c0,.159-.08.239-.255.239h-1.592c-.231,0-.231-.072-.231-.215v-.072c0-.263,0-.876.04-1.847v-5.484a26.036,26.036,0,0,1-4.6,3.184.446.446,0,0,1-.247.072.5.5,0,0,1-.35-.167,6.371,6.371,0,0,0-1.441-.987,29.2,29.2,0,0,0,5.269-3.43,27.4,27.4,0,0,0,3.558-3.486,5.85,5.85,0,0,0,1.059-1.727,14.521,14.521,0,0,1,1.855,1.178.279.279,0,0,1,.127.247.438.438,0,0,1-.239.366,6.511,6.511,0,0,0-.995.923A26.019,26.019,0,0,1,239.788,282.433Z" transform="translate(-146.503 -276.544)" fill="#fff"/>
      <path id="パス_3814" data-name="パス 3814" d="M252.93,281.111c.279-.342.669-.8,1.17-1.305a.31.31,0,0,1,.239-.135.516.516,0,0,1,.215.088,14.676,14.676,0,0,1,3.184,2.388.374.374,0,0,1,.151.239.366.366,0,0,1-.1.207,15.913,15.913,0,0,1-1.043,1.258c-.087.088-.159.135-.2.135a.423.423,0,0,1-.215-.135A17.11,17.11,0,0,0,252.93,281.111Zm.374,8.373a12.57,12.57,0,0,0,2.261-.8,30.863,30.863,0,0,0,2.682-1.544,22.533,22.533,0,0,0,2.125-1.592q1.671-1.361,2.666-2.348a23.983,23.983,0,0,0,1.918-2.2,7.791,7.791,0,0,0,.462,1.95.915.915,0,0,1,.088.318.955.955,0,0,1-.271.509,26.265,26.265,0,0,1-3.844,3.542,38.619,38.619,0,0,1-5.046,3.271,6.107,6.107,0,0,0-1.114.8.509.509,0,0,1-.3.159.4.4,0,0,1-.287-.183,11.05,11.05,0,0,1-1.337-1.886Z" transform="translate(-150.945 -276.973)" fill="#fff"/>
    </g>
    <g id="グループ_41365" data-name="グループ 41365" transform="translate(8808.016 230.393)">
      <g id="グループ_41363" data-name="グループ 41363" transform="translate(0 0)">
        <path id="パス_3815" data-name="パス 3815" d="M257.8,60.049h0m-.1.115,3.582,2.925-7.446,9.119-3.582-2.925,7.446-9.119m-.023-.764a.546.546,0,0,0-.42.2l-7.985,9.776,4.663,3.819,7.981-9.776a.546.546,0,0,0-.076-.764l-3.819-3.116a.546.546,0,0,0-.348-.122Z" transform="translate(-201.287 -36.717)" fill="#fff"/>
        <path id="パス_3816" data-name="パス 3816" d="M236.679,89l3.582,2.925L234.582,98.9,231,95.977,236.694,89m-.1-.981L230,96.073l4.663,3.819,6.58-8.073L236.58,88Z" transform="translate(-189.369 -54.396)" fill="#fff"/>
        <path id="パス_3817" data-name="パス 3817" d="M230.725,103.78l3.559,2.906-3.654.844Z" transform="translate(-189.759 -61.381)" fill="#fff"/>
        <path id="パス_3818" data-name="パス 3818" d="M230.473,110.565l2.459,2-2.524.58.065-2.585m-.664-1.443-.118,4.911,4.785-1.1-4.663-3.819Z" transform="translate(-189.178 -67.444)" fill="#fff"/>
        <path id="線_1" data-name="線 1" d="M-.566,6.008a.348.348,0,0,1-.221-.079.349.349,0,0,1-.05-.492L4.246-.787a.349.349,0,0,1,.492-.05.349.349,0,0,1,.05.492L-.295,5.88A.349.349,0,0,1-.566,6.008Z" transform="translate(48.284 25.085)" fill="#fff"/>
        <g id="グループ_41362" data-name="グループ 41362" transform="translate(0 0)" clip-path="url(#clip-path)">
          <path id="パス_3819" data-name="パス 3819" d="M143.622,7.226a36.946,36.946,0,0,1,5.318.413c1.494.219,3.044.524,4.606.907a46.131,46.131,0,0,1,4.484,1.321.349.349,0,0,1,.228.328V45.868a.349.349,0,0,1-.517.306,28.934,28.934,0,0,0-7.477-2.838,29.982,29.982,0,0,0-6.645-.739,27.566,27.566,0,0,0-8.416,1.22.349.349,0,0,1-.467-.329V9.32a.349.349,0,0,1,.19-.311A19.094,19.094,0,0,1,143.622,7.226Zm13.937,3.216c-.56-.195-2.108-.71-4.19-1.22a42.622,42.622,0,0,0-9.746-1.3h0a18.648,18.648,0,0,0-8.188,1.611V43.011c.406-.122,1.067-.3,1.944-.484a31.258,31.258,0,0,1,6.241-.628,30.682,30.682,0,0,1,6.8.756,29.62,29.62,0,0,1,7.14,2.629Z" transform="translate(-130.483 -4.466)" fill="#fff"/>
          <path id="パス_3820" data-name="パス 3820" d="M210.15,7.226a19.1,19.1,0,0,1,8.7,1.783.349.349,0,0,1,.19.311v34.17a.349.349,0,0,1-.467.329,19.242,19.242,0,0,0-2.327-.608,30.518,30.518,0,0,0-6.071-.607,30.027,30.027,0,0,0-6.651.74,29.029,29.029,0,0,0-7.491,2.84.349.349,0,0,1-.517-.307V10.194a.349.349,0,0,1,.228-.328,46.122,46.122,0,0,1,4.484-1.321c1.562-.383,3.112-.688,4.606-.907A36.938,36.938,0,0,1,210.15,7.226Zm8.189,2.31a18.652,18.652,0,0,0-8.189-1.611,42.623,42.623,0,0,0-9.756,1.3c-2.079.51-3.621,1.023-4.18,1.217V45.293a29.712,29.712,0,0,1,7.154-2.632,30.727,30.727,0,0,1,6.806-.757,31.218,31.218,0,0,1,6.228.625c.873.181,1.532.36,1.937.481Z" transform="translate(-168.053 -4.466)" fill="#fff"/>
          <path id="パス_3821" data-name="パス 3821" d="M159.1,31.323a.348.348,0,0,1-.134-.027,27.617,27.617,0,0,0-6.93-1.948,16.715,16.715,0,0,0-4.843.024,10.9,10.9,0,0,0-2.848.846,5.328,5.328,0,0,0-.934.534.349.349,0,1,1-.433-.548,9.327,9.327,0,0,1,4.043-1.511,17.331,17.331,0,0,1,5.061-.042,28.26,28.26,0,0,1,7.151,2,.349.349,0,0,1-.134.672Z" transform="translate(-135.496 -17.608)" fill="#fff"/>
          <path id="パス_3822" data-name="パス 3822" d="M159.1,42.089a.348.348,0,0,1-.133-.027,27.7,27.7,0,0,0-6.93-1.943,16.772,16.772,0,0,0-4.844.022,10.926,10.926,0,0,0-2.848.842,5.33,5.33,0,0,0-.934.531.349.349,0,1,1-.432-.549,9.341,9.341,0,0,1,4.043-1.5,17.388,17.388,0,0,1,5.061-.04,28.341,28.341,0,0,1,7.151,2,.349.349,0,0,1-.134.672Z" transform="translate(-135.496 -24.265)" fill="#fff"/>
          <path id="パス_3823" data-name="パス 3823" d="M149.6,49.988h0a25.414,25.414,0,0,1,9.632,2.168.349.349,0,0,1,.215.323V63.8a.349.349,0,0,1-.517.307,18.16,18.16,0,0,0-15.6-.862.349.349,0,0,1-.482-.323V51.978a.349.349,0,0,1,.132-.274,6.86,6.86,0,0,1,1.668-.873A13.744,13.744,0,0,1,149.6,49.988Zm9.15,2.725a24.524,24.524,0,0,0-9.149-2.026h0a11.093,11.093,0,0,0-6.056,1.472V62.405a18.856,18.856,0,0,1,15.206.813Z" transform="translate(-135.496 -30.899)" fill="#fff"/>
          <path id="パス_3824" data-name="パス 3824" d="M202.534,31.454a.349.349,0,0,1-.12-.678,41.267,41.267,0,0,1,7.034-1.753,22.881,22.881,0,0,1,5.951-.219,8.89,8.89,0,0,1,5.1,2.042.349.349,0,0,1-.471.516,8.215,8.215,0,0,0-4.707-1.863,22.168,22.168,0,0,0-5.761.213,40.517,40.517,0,0,0-6.91,1.72A.349.349,0,0,1,202.534,31.454Z" transform="translate(-172.176 -17.74)" fill="#fff"/>
          <path id="パス_3825" data-name="パス 3825" d="M202.534,42.1a.349.349,0,0,1-.12-.678,41.241,41.241,0,0,1,7.034-1.754,22.863,22.863,0,0,1,5.951-.219,8.886,8.886,0,0,1,5.1,2.043.349.349,0,1,1-.471.516,8.211,8.211,0,0,0-4.707-1.864,22.149,22.149,0,0,0-5.761.213,40.488,40.488,0,0,0-6.91,1.721A.349.349,0,0,1,202.534,42.1Z" transform="translate(-172.176 -24.32)" fill="#fff"/>
          <path id="パス_3826" data-name="パス 3826" d="M202.534,52.742a.349.349,0,0,1-.12-.678,41.241,41.241,0,0,1,7.034-1.754,22.863,22.863,0,0,1,5.951-.219,8.886,8.886,0,0,1,5.1,2.043.349.349,0,1,1-.471.516,8.211,8.211,0,0,0-4.707-1.864,22.149,22.149,0,0,0-5.761.213,40.488,40.488,0,0,0-6.91,1.721A.349.349,0,0,1,202.534,52.742Z" transform="translate(-172.176 -30.897)" fill="#fff"/>
          <path id="パス_3827" data-name="パス 3827" d="M202.534,63.382a.349.349,0,0,1-.12-.678,41.241,41.241,0,0,1,7.034-1.754,22.863,22.863,0,0,1,5.951-.219,8.886,8.886,0,0,1,5.1,2.043.349.349,0,1,1-.471.516,8.211,8.211,0,0,0-4.707-1.864,22.148,22.148,0,0,0-5.761.213,40.488,40.488,0,0,0-6.91,1.721A.349.349,0,0,1,202.534,63.382Z" transform="translate(-172.176 -37.474)" fill="#fff"/>
          <path id="パス_3828" data-name="パス 3828" d="M202.534,74.014a.349.349,0,0,1-.12-.678,41.269,41.269,0,0,1,7.034-1.753,22.881,22.881,0,0,1,5.951-.219,8.89,8.89,0,0,1,5.1,2.042.349.349,0,0,1-.471.516,8.215,8.215,0,0,0-4.707-1.863,22.168,22.168,0,0,0-5.761.213,40.515,40.515,0,0,0-6.91,1.72A.349.349,0,0,1,202.534,74.014Z" transform="translate(-172.176 -44.047)" fill="#fff"/>
          <path id="パス_3829" data-name="パス 3829" d="M202.534,84.652a.349.349,0,0,1-.12-.678,41.241,41.241,0,0,1,7.034-1.754A22.863,22.863,0,0,1,215.4,82a8.886,8.886,0,0,1,5.1,2.043.349.349,0,1,1-.471.516,8.211,8.211,0,0,0-4.707-1.864,22.148,22.148,0,0,0-5.761.213,40.489,40.489,0,0,0-6.91,1.721A.349.349,0,0,1,202.534,84.652Z" transform="translate(-172.176 -50.621)" fill="#fff"/>
        </g>
      </g>
    </g>
  </g>
</svg>
